<?xml version="1.0" encoding="utf-8" standalone="no"?>
<!DOCTYPE svg PUBLIC "-//W3C//DTD SVG 1.1//EN"
  "http://www.w3.org/Graphics/SVG/1.1/DTD/svg11.dtd">
<svg xmlns:xlink="http://www.w3.org/1999/xlink" width="856.288125pt" height="568.474375pt" viewBox="0 0 856.288125 568.474375" xmlns="http://www.w3.org/2000/svg" version="1.1">
 <metadata>
  <rdf:RDF xmlns:dc="http://purl.org/dc/elements/1.1/" xmlns:cc="http://creativecommons.org/ns#" xmlns:rdf="http://www.w3.org/1999/02/22-rdf-syntax-ns#">
   <cc:Work>
    <dc:type rdf:resource="http://purl.org/dc/dcmitype/StillImage"/>
    <dc:date>2025-06-28T07:46:44.836139</dc:date>
    <dc:format>image/svg+xml</dc:format>
    <dc:creator>
     <cc:Agent>
      <dc:title>Matplotlib v3.6.3, https://matplotlib.org/</dc:title>
     </cc:Agent>
    </dc:creator>
   </cc:Work>
  </rdf:RDF>
 </metadata>
 <defs>
  <style type="text/css">*{stroke-linejoin: round; stroke-linecap: butt}</style>
 </defs>
 <g id="figure_1">
  <g id="patch_1">
   <path d="M 0 568.474375 
L 856.288125 568.474375 
L 856.288125 0 
L 0 0 
z
" style="fill: #ffffff"/>
  </g>
  <g id="axes_1">
   <g id="patch_2">
    <path d="M 53.328125 530.918125 
L 849.088125 530.918125 
L 849.088125 22.318125 
L 53.328125 22.318125 
z
" style="fill: #ffffff"/>
   </g>
   <g id="matplotlib.axis_1">
    <g id="xtick_1">
     <g id="line2d_1">
      <path d="M 82.908972 530.918125 
L 82.908972 22.318125 
" clip-path="url(#p9516fea97a)" style="fill: none; stroke: #b0b0b0; stroke-opacity: 0.3; stroke-width: 0.8; stroke-linecap: square"/>
     </g>
     <g id="line2d_2">
      <defs>
       <path id="me70958a49b" d="M 0 0 
L 0 3.5 
" style="stroke: #000000; stroke-width: 0.8"/>
      </defs>
      <g>
       <use xlink:href="#me70958a49b" x="82.908972" y="530.918125" style="stroke: #000000; stroke-width: 0.8"/>
      </g>
     </g>
     <g id="text_1">
      <!-- 0 -->
      <g transform="translate(79.727722 545.516562) scale(0.1 -0.1)">
       <defs>
        <path id="DejaVuSans-30" d="M 2034 4250 
Q 1547 4250 1301 3770 
Q 1056 3291 1056 2328 
Q 1056 1369 1301 889 
Q 1547 409 2034 409 
Q 2525 409 2770 889 
Q 3016 1369 3016 2328 
Q 3016 3291 2770 3770 
Q 2525 4250 2034 4250 
z
M 2034 4750 
Q 2819 4750 3233 4129 
Q 3647 3509 3647 2328 
Q 3647 1150 3233 529 
Q 2819 -91 2034 -91 
Q 1250 -91 836 529 
Q 422 1150 422 2328 
Q 422 3509 836 4129 
Q 1250 4750 2034 4750 
z
" transform="scale(0.015625)"/>
       </defs>
       <use xlink:href="#DejaVuSans-30"/>
      </g>
     </g>
    </g>
    <g id="xtick_2">
     <g id="line2d_3">
      <path d="M 195.896357 530.918125 
L 195.896357 22.318125 
" clip-path="url(#p9516fea97a)" style="fill: none; stroke: #b0b0b0; stroke-opacity: 0.3; stroke-width: 0.8; stroke-linecap: square"/>
     </g>
     <g id="line2d_4">
      <g>
       <use xlink:href="#me70958a49b" x="195.896357" y="530.918125" style="stroke: #000000; stroke-width: 0.8"/>
      </g>
     </g>
     <g id="text_2">
      <!-- 2 -->
      <g transform="translate(192.715107 545.516562) scale(0.1 -0.1)">
       <defs>
        <path id="DejaVuSans-32" d="M 1228 531 
L 3431 531 
L 3431 0 
L 469 0 
L 469 531 
Q 828 903 1448 1529 
Q 2069 2156 2228 2338 
Q 2531 2678 2651 2914 
Q 2772 3150 2772 3378 
Q 2772 3750 2511 3984 
Q 2250 4219 1831 4219 
Q 1534 4219 1204 4116 
Q 875 4013 500 3803 
L 500 4441 
Q 881 4594 1212 4672 
Q 1544 4750 1819 4750 
Q 2544 4750 2975 4387 
Q 3406 4025 3406 3419 
Q 3406 3131 3298 2873 
Q 3191 2616 2906 2266 
Q 2828 2175 2409 1742 
Q 1991 1309 1228 531 
z
" transform="scale(0.015625)"/>
       </defs>
       <use xlink:href="#DejaVuSans-32"/>
      </g>
     </g>
    </g>
    <g id="xtick_3">
     <g id="line2d_5">
      <path d="M 308.883742 530.918125 
L 308.883742 22.318125 
" clip-path="url(#p9516fea97a)" style="fill: none; stroke: #b0b0b0; stroke-opacity: 0.3; stroke-width: 0.8; stroke-linecap: square"/>
     </g>
     <g id="line2d_6">
      <g>
       <use xlink:href="#me70958a49b" x="308.883742" y="530.918125" style="stroke: #000000; stroke-width: 0.8"/>
      </g>
     </g>
     <g id="text_3">
      <!-- 4 -->
      <g transform="translate(305.702492 545.516562) scale(0.1 -0.1)">
       <defs>
        <path id="DejaVuSans-34" d="M 2419 4116 
L 825 1625 
L 2419 1625 
L 2419 4116 
z
M 2253 4666 
L 3047 4666 
L 3047 1625 
L 3713 1625 
L 3713 1100 
L 3047 1100 
L 3047 0 
L 2419 0 
L 2419 1100 
L 313 1100 
L 313 1709 
L 2253 4666 
z
" transform="scale(0.015625)"/>
       </defs>
       <use xlink:href="#DejaVuSans-34"/>
      </g>
     </g>
    </g>
    <g id="xtick_4">
     <g id="line2d_7">
      <path d="M 421.871126 530.918125 
L 421.871126 22.318125 
" clip-path="url(#p9516fea97a)" style="fill: none; stroke: #b0b0b0; stroke-opacity: 0.3; stroke-width: 0.8; stroke-linecap: square"/>
     </g>
     <g id="line2d_8">
      <g>
       <use xlink:href="#me70958a49b" x="421.871126" y="530.918125" style="stroke: #000000; stroke-width: 0.8"/>
      </g>
     </g>
     <g id="text_4">
      <!-- 6 -->
      <g transform="translate(418.689876 545.516562) scale(0.1 -0.1)">
       <defs>
        <path id="DejaVuSans-36" d="M 2113 2584 
Q 1688 2584 1439 2293 
Q 1191 2003 1191 1497 
Q 1191 994 1439 701 
Q 1688 409 2113 409 
Q 2538 409 2786 701 
Q 3034 994 3034 1497 
Q 3034 2003 2786 2293 
Q 2538 2584 2113 2584 
z
M 3366 4563 
L 3366 3988 
Q 3128 4100 2886 4159 
Q 2644 4219 2406 4219 
Q 1781 4219 1451 3797 
Q 1122 3375 1075 2522 
Q 1259 2794 1537 2939 
Q 1816 3084 2150 3084 
Q 2853 3084 3261 2657 
Q 3669 2231 3669 1497 
Q 3669 778 3244 343 
Q 2819 -91 2113 -91 
Q 1303 -91 875 529 
Q 447 1150 447 2328 
Q 447 3434 972 4092 
Q 1497 4750 2381 4750 
Q 2619 4750 2861 4703 
Q 3103 4656 3366 4563 
z
" transform="scale(0.015625)"/>
       </defs>
       <use xlink:href="#DejaVuSans-36"/>
      </g>
     </g>
    </g>
    <g id="xtick_5">
     <g id="line2d_9">
      <path d="M 534.858511 530.918125 
L 534.858511 22.318125 
" clip-path="url(#p9516fea97a)" style="fill: none; stroke: #b0b0b0; stroke-opacity: 0.3; stroke-width: 0.8; stroke-linecap: square"/>
     </g>
     <g id="line2d_10">
      <g>
       <use xlink:href="#me70958a49b" x="534.858511" y="530.918125" style="stroke: #000000; stroke-width: 0.8"/>
      </g>
     </g>
     <g id="text_5">
      <!-- 8 -->
      <g transform="translate(531.677261 545.516562) scale(0.1 -0.1)">
       <defs>
        <path id="DejaVuSans-38" d="M 2034 2216 
Q 1584 2216 1326 1975 
Q 1069 1734 1069 1313 
Q 1069 891 1326 650 
Q 1584 409 2034 409 
Q 2484 409 2743 651 
Q 3003 894 3003 1313 
Q 3003 1734 2745 1975 
Q 2488 2216 2034 2216 
z
M 1403 2484 
Q 997 2584 770 2862 
Q 544 3141 544 3541 
Q 544 4100 942 4425 
Q 1341 4750 2034 4750 
Q 2731 4750 3128 4425 
Q 3525 4100 3525 3541 
Q 3525 3141 3298 2862 
Q 3072 2584 2669 2484 
Q 3125 2378 3379 2068 
Q 3634 1759 3634 1313 
Q 3634 634 3220 271 
Q 2806 -91 2034 -91 
Q 1263 -91 848 271 
Q 434 634 434 1313 
Q 434 1759 690 2068 
Q 947 2378 1403 2484 
z
M 1172 3481 
Q 1172 3119 1398 2916 
Q 1625 2713 2034 2713 
Q 2441 2713 2670 2916 
Q 2900 3119 2900 3481 
Q 2900 3844 2670 4047 
Q 2441 4250 2034 4250 
Q 1625 4250 1398 4047 
Q 1172 3844 1172 3481 
z
" transform="scale(0.015625)"/>
       </defs>
       <use xlink:href="#DejaVuSans-38"/>
      </g>
     </g>
    </g>
    <g id="xtick_6">
     <g id="line2d_11">
      <path d="M 647.845896 530.918125 
L 647.845896 22.318125 
" clip-path="url(#p9516fea97a)" style="fill: none; stroke: #b0b0b0; stroke-opacity: 0.3; stroke-width: 0.8; stroke-linecap: square"/>
     </g>
     <g id="line2d_12">
      <g>
       <use xlink:href="#me70958a49b" x="647.845896" y="530.918125" style="stroke: #000000; stroke-width: 0.8"/>
      </g>
     </g>
     <g id="text_6">
      <!-- 10 -->
      <g transform="translate(641.483396 545.516562) scale(0.1 -0.1)">
       <defs>
        <path id="DejaVuSans-31" d="M 794 531 
L 1825 531 
L 1825 4091 
L 703 3866 
L 703 4441 
L 1819 4666 
L 2450 4666 
L 2450 531 
L 3481 531 
L 3481 0 
L 794 0 
L 794 531 
z
" transform="scale(0.015625)"/>
       </defs>
       <use xlink:href="#DejaVuSans-31"/>
       <use xlink:href="#DejaVuSans-30" x="63.623047"/>
      </g>
     </g>
    </g>
    <g id="xtick_7">
     <g id="line2d_13">
      <path d="M 760.833281 530.918125 
L 760.833281 22.318125 
" clip-path="url(#p9516fea97a)" style="fill: none; stroke: #b0b0b0; stroke-opacity: 0.3; stroke-width: 0.8; stroke-linecap: square"/>
     </g>
     <g id="line2d_14">
      <g>
       <use xlink:href="#me70958a49b" x="760.833281" y="530.918125" style="stroke: #000000; stroke-width: 0.8"/>
      </g>
     </g>
     <g id="text_7">
      <!-- 12 -->
      <g transform="translate(754.470781 545.516562) scale(0.1 -0.1)">
       <use xlink:href="#DejaVuSans-31"/>
       <use xlink:href="#DejaVuSans-32" x="63.623047"/>
      </g>
     </g>
    </g>
    <g id="text_8">
     <!-- Elapsed Time (seconds) -->
     <g transform="translate(391.815156 559.194687) scale(0.1 -0.1)">
      <defs>
       <path id="DejaVuSans-45" d="M 628 4666 
L 3578 4666 
L 3578 4134 
L 1259 4134 
L 1259 2753 
L 3481 2753 
L 3481 2222 
L 1259 2222 
L 1259 531 
L 3634 531 
L 3634 0 
L 628 0 
L 628 4666 
z
" transform="scale(0.015625)"/>
       <path id="DejaVuSans-6c" d="M 603 4863 
L 1178 4863 
L 1178 0 
L 603 0 
L 603 4863 
z
" transform="scale(0.015625)"/>
       <path id="DejaVuSans-61" d="M 2194 1759 
Q 1497 1759 1228 1600 
Q 959 1441 959 1056 
Q 959 750 1161 570 
Q 1363 391 1709 391 
Q 2188 391 2477 730 
Q 2766 1069 2766 1631 
L 2766 1759 
L 2194 1759 
z
M 3341 1997 
L 3341 0 
L 2766 0 
L 2766 531 
Q 2569 213 2275 61 
Q 1981 -91 1556 -91 
Q 1019 -91 701 211 
Q 384 513 384 1019 
Q 384 1609 779 1909 
Q 1175 2209 1959 2209 
L 2766 2209 
L 2766 2266 
Q 2766 2663 2505 2880 
Q 2244 3097 1772 3097 
Q 1472 3097 1187 3025 
Q 903 2953 641 2809 
L 641 3341 
Q 956 3463 1253 3523 
Q 1550 3584 1831 3584 
Q 2591 3584 2966 3190 
Q 3341 2797 3341 1997 
z
" transform="scale(0.015625)"/>
       <path id="DejaVuSans-70" d="M 1159 525 
L 1159 -1331 
L 581 -1331 
L 581 3500 
L 1159 3500 
L 1159 2969 
Q 1341 3281 1617 3432 
Q 1894 3584 2278 3584 
Q 2916 3584 3314 3078 
Q 3713 2572 3713 1747 
Q 3713 922 3314 415 
Q 2916 -91 2278 -91 
Q 1894 -91 1617 61 
Q 1341 213 1159 525 
z
M 3116 1747 
Q 3116 2381 2855 2742 
Q 2594 3103 2138 3103 
Q 1681 3103 1420 2742 
Q 1159 2381 1159 1747 
Q 1159 1113 1420 752 
Q 1681 391 2138 391 
Q 2594 391 2855 752 
Q 3116 1113 3116 1747 
z
" transform="scale(0.015625)"/>
       <path id="DejaVuSans-73" d="M 2834 3397 
L 2834 2853 
Q 2591 2978 2328 3040 
Q 2066 3103 1784 3103 
Q 1356 3103 1142 2972 
Q 928 2841 928 2578 
Q 928 2378 1081 2264 
Q 1234 2150 1697 2047 
L 1894 2003 
Q 2506 1872 2764 1633 
Q 3022 1394 3022 966 
Q 3022 478 2636 193 
Q 2250 -91 1575 -91 
Q 1294 -91 989 -36 
Q 684 19 347 128 
L 347 722 
Q 666 556 975 473 
Q 1284 391 1588 391 
Q 1994 391 2212 530 
Q 2431 669 2431 922 
Q 2431 1156 2273 1281 
Q 2116 1406 1581 1522 
L 1381 1569 
Q 847 1681 609 1914 
Q 372 2147 372 2553 
Q 372 3047 722 3315 
Q 1072 3584 1716 3584 
Q 2034 3584 2315 3537 
Q 2597 3491 2834 3397 
z
" transform="scale(0.015625)"/>
       <path id="DejaVuSans-65" d="M 3597 1894 
L 3597 1613 
L 953 1613 
Q 991 1019 1311 708 
Q 1631 397 2203 397 
Q 2534 397 2845 478 
Q 3156 559 3463 722 
L 3463 178 
Q 3153 47 2828 -22 
Q 2503 -91 2169 -91 
Q 1331 -91 842 396 
Q 353 884 353 1716 
Q 353 2575 817 3079 
Q 1281 3584 2069 3584 
Q 2775 3584 3186 3129 
Q 3597 2675 3597 1894 
z
M 3022 2063 
Q 3016 2534 2758 2815 
Q 2500 3097 2075 3097 
Q 1594 3097 1305 2825 
Q 1016 2553 972 2059 
L 3022 2063 
z
" transform="scale(0.015625)"/>
       <path id="DejaVuSans-64" d="M 2906 2969 
L 2906 4863 
L 3481 4863 
L 3481 0 
L 2906 0 
L 2906 525 
Q 2725 213 2448 61 
Q 2172 -91 1784 -91 
Q 1150 -91 751 415 
Q 353 922 353 1747 
Q 353 2572 751 3078 
Q 1150 3584 1784 3584 
Q 2172 3584 2448 3432 
Q 2725 3281 2906 2969 
z
M 947 1747 
Q 947 1113 1208 752 
Q 1469 391 1925 391 
Q 2381 391 2643 752 
Q 2906 1113 2906 1747 
Q 2906 2381 2643 2742 
Q 2381 3103 1925 3103 
Q 1469 3103 1208 2742 
Q 947 2381 947 1747 
z
" transform="scale(0.015625)"/>
       <path id="DejaVuSans-20" transform="scale(0.015625)"/>
       <path id="DejaVuSans-54" d="M -19 4666 
L 3928 4666 
L 3928 4134 
L 2272 4134 
L 2272 0 
L 1638 0 
L 1638 4134 
L -19 4134 
L -19 4666 
z
" transform="scale(0.015625)"/>
       <path id="DejaVuSans-69" d="M 603 3500 
L 1178 3500 
L 1178 0 
L 603 0 
L 603 3500 
z
M 603 4863 
L 1178 4863 
L 1178 4134 
L 603 4134 
L 603 4863 
z
" transform="scale(0.015625)"/>
       <path id="DejaVuSans-6d" d="M 3328 2828 
Q 3544 3216 3844 3400 
Q 4144 3584 4550 3584 
Q 5097 3584 5394 3201 
Q 5691 2819 5691 2113 
L 5691 0 
L 5113 0 
L 5113 2094 
Q 5113 2597 4934 2840 
Q 4756 3084 4391 3084 
Q 3944 3084 3684 2787 
Q 3425 2491 3425 1978 
L 3425 0 
L 2847 0 
L 2847 2094 
Q 2847 2600 2669 2842 
Q 2491 3084 2119 3084 
Q 1678 3084 1418 2786 
Q 1159 2488 1159 1978 
L 1159 0 
L 581 0 
L 581 3500 
L 1159 3500 
L 1159 2956 
Q 1356 3278 1631 3431 
Q 1906 3584 2284 3584 
Q 2666 3584 2933 3390 
Q 3200 3197 3328 2828 
z
" transform="scale(0.015625)"/>
       <path id="DejaVuSans-28" d="M 1984 4856 
Q 1566 4138 1362 3434 
Q 1159 2731 1159 2009 
Q 1159 1288 1364 580 
Q 1569 -128 1984 -844 
L 1484 -844 
Q 1016 -109 783 600 
Q 550 1309 550 2009 
Q 550 2706 781 3412 
Q 1013 4119 1484 4856 
L 1984 4856 
z
" transform="scale(0.015625)"/>
       <path id="DejaVuSans-63" d="M 3122 3366 
L 3122 2828 
Q 2878 2963 2633 3030 
Q 2388 3097 2138 3097 
Q 1578 3097 1268 2742 
Q 959 2388 959 1747 
Q 959 1106 1268 751 
Q 1578 397 2138 397 
Q 2388 397 2633 464 
Q 2878 531 3122 666 
L 3122 134 
Q 2881 22 2623 -34 
Q 2366 -91 2075 -91 
Q 1284 -91 818 406 
Q 353 903 353 1747 
Q 353 2603 823 3093 
Q 1294 3584 2113 3584 
Q 2378 3584 2631 3529 
Q 2884 3475 3122 3366 
z
" transform="scale(0.015625)"/>
       <path id="DejaVuSans-6f" d="M 1959 3097 
Q 1497 3097 1228 2736 
Q 959 2375 959 1747 
Q 959 1119 1226 758 
Q 1494 397 1959 397 
Q 2419 397 2687 759 
Q 2956 1122 2956 1747 
Q 2956 2369 2687 2733 
Q 2419 3097 1959 3097 
z
M 1959 3584 
Q 2709 3584 3137 3096 
Q 3566 2609 3566 1747 
Q 3566 888 3137 398 
Q 2709 -91 1959 -91 
Q 1206 -91 779 398 
Q 353 888 353 1747 
Q 353 2609 779 3096 
Q 1206 3584 1959 3584 
z
" transform="scale(0.015625)"/>
       <path id="DejaVuSans-6e" d="M 3513 2113 
L 3513 0 
L 2938 0 
L 2938 2094 
Q 2938 2591 2744 2837 
Q 2550 3084 2163 3084 
Q 1697 3084 1428 2787 
Q 1159 2491 1159 1978 
L 1159 0 
L 581 0 
L 581 3500 
L 1159 3500 
L 1159 2956 
Q 1366 3272 1645 3428 
Q 1925 3584 2291 3584 
Q 2894 3584 3203 3211 
Q 3513 2838 3513 2113 
z
" transform="scale(0.015625)"/>
       <path id="DejaVuSans-29" d="M 513 4856 
L 1013 4856 
Q 1481 4119 1714 3412 
Q 1947 2706 1947 2009 
Q 1947 1309 1714 600 
Q 1481 -109 1013 -844 
L 513 -844 
Q 928 -128 1133 580 
Q 1338 1288 1338 2009 
Q 1338 2731 1133 3434 
Q 928 4138 513 4856 
z
" transform="scale(0.015625)"/>
      </defs>
      <use xlink:href="#DejaVuSans-45"/>
      <use xlink:href="#DejaVuSans-6c" x="63.183594"/>
      <use xlink:href="#DejaVuSans-61" x="90.966797"/>
      <use xlink:href="#DejaVuSans-70" x="152.246094"/>
      <use xlink:href="#DejaVuSans-73" x="215.722656"/>
      <use xlink:href="#DejaVuSans-65" x="267.822266"/>
      <use xlink:href="#DejaVuSans-64" x="329.345703"/>
      <use xlink:href="#DejaVuSans-20" x="392.822266"/>
      <use xlink:href="#DejaVuSans-54" x="424.609375"/>
      <use xlink:href="#DejaVuSans-69" x="482.568359"/>
      <use xlink:href="#DejaVuSans-6d" x="510.351562"/>
      <use xlink:href="#DejaVuSans-65" x="607.763672"/>
      <use xlink:href="#DejaVuSans-20" x="669.287109"/>
      <use xlink:href="#DejaVuSans-28" x="701.074219"/>
      <use xlink:href="#DejaVuSans-73" x="740.087891"/>
      <use xlink:href="#DejaVuSans-65" x="792.1875"/>
      <use xlink:href="#DejaVuSans-63" x="853.710938"/>
      <use xlink:href="#DejaVuSans-6f" x="908.691406"/>
      <use xlink:href="#DejaVuSans-6e" x="969.873047"/>
      <use xlink:href="#DejaVuSans-64" x="1033.251953"/>
      <use xlink:href="#DejaVuSans-73" x="1096.728516"/>
      <use xlink:href="#DejaVuSans-29" x="1148.828125"/>
     </g>
    </g>
   </g>
   <g id="matplotlib.axis_2">
    <g id="ytick_1">
     <g id="line2d_15">
      <path d="M 53.328125 507.799943 
L 849.088125 507.799943 
" clip-path="url(#p9516fea97a)" style="fill: none; stroke: #b0b0b0; stroke-opacity: 0.3; stroke-width: 0.8; stroke-linecap: square"/>
     </g>
     <g id="line2d_16">
      <defs>
       <path id="mcf02a824bf" d="M 0 0 
L -3.5 0 
" style="stroke: #000000; stroke-width: 0.8"/>
      </defs>
      <g>
       <use xlink:href="#mcf02a824bf" x="53.328125" y="507.799943" style="stroke: #000000; stroke-width: 0.8"/>
      </g>
     </g>
     <g id="text_9">
      <!-- 0 -->
      <g transform="translate(39.965625 511.599162) scale(0.1 -0.1)">
       <use xlink:href="#DejaVuSans-30"/>
      </g>
     </g>
    </g>
    <g id="ytick_2">
     <g id="line2d_17">
      <path d="M 53.328125 444.297178 
L 849.088125 444.297178 
" clip-path="url(#p9516fea97a)" style="fill: none; stroke: #b0b0b0; stroke-opacity: 0.3; stroke-width: 0.8; stroke-linecap: square"/>
     </g>
     <g id="line2d_18">
      <g>
       <use xlink:href="#mcf02a824bf" x="53.328125" y="444.297178" style="stroke: #000000; stroke-width: 0.8"/>
      </g>
     </g>
     <g id="text_10">
      <!-- 200 -->
      <g transform="translate(27.240625 448.096396) scale(0.1 -0.1)">
       <use xlink:href="#DejaVuSans-32"/>
       <use xlink:href="#DejaVuSans-30" x="63.623047"/>
       <use xlink:href="#DejaVuSans-30" x="127.246094"/>
      </g>
     </g>
    </g>
    <g id="ytick_3">
     <g id="line2d_19">
      <path d="M 53.328125 380.794412 
L 849.088125 380.794412 
" clip-path="url(#p9516fea97a)" style="fill: none; stroke: #b0b0b0; stroke-opacity: 0.3; stroke-width: 0.8; stroke-linecap: square"/>
     </g>
     <g id="line2d_20">
      <g>
       <use xlink:href="#mcf02a824bf" x="53.328125" y="380.794412" style="stroke: #000000; stroke-width: 0.8"/>
      </g>
     </g>
     <g id="text_11">
      <!-- 400 -->
      <g transform="translate(27.240625 384.593631) scale(0.1 -0.1)">
       <use xlink:href="#DejaVuSans-34"/>
       <use xlink:href="#DejaVuSans-30" x="63.623047"/>
       <use xlink:href="#DejaVuSans-30" x="127.246094"/>
      </g>
     </g>
    </g>
    <g id="ytick_4">
     <g id="line2d_21">
      <path d="M 53.328125 317.291646 
L 849.088125 317.291646 
" clip-path="url(#p9516fea97a)" style="fill: none; stroke: #b0b0b0; stroke-opacity: 0.3; stroke-width: 0.8; stroke-linecap: square"/>
     </g>
     <g id="line2d_22">
      <g>
       <use xlink:href="#mcf02a824bf" x="53.328125" y="317.291646" style="stroke: #000000; stroke-width: 0.8"/>
      </g>
     </g>
     <g id="text_12">
      <!-- 600 -->
      <g transform="translate(27.240625 321.090865) scale(0.1 -0.1)">
       <use xlink:href="#DejaVuSans-36"/>
       <use xlink:href="#DejaVuSans-30" x="63.623047"/>
       <use xlink:href="#DejaVuSans-30" x="127.246094"/>
      </g>
     </g>
    </g>
    <g id="ytick_5">
     <g id="line2d_23">
      <path d="M 53.328125 253.788881 
L 849.088125 253.788881 
" clip-path="url(#p9516fea97a)" style="fill: none; stroke: #b0b0b0; stroke-opacity: 0.3; stroke-width: 0.8; stroke-linecap: square"/>
     </g>
     <g id="line2d_24">
      <g>
       <use xlink:href="#mcf02a824bf" x="53.328125" y="253.788881" style="stroke: #000000; stroke-width: 0.8"/>
      </g>
     </g>
     <g id="text_13">
      <!-- 800 -->
      <g transform="translate(27.240625 257.5881) scale(0.1 -0.1)">
       <use xlink:href="#DejaVuSans-38"/>
       <use xlink:href="#DejaVuSans-30" x="63.623047"/>
       <use xlink:href="#DejaVuSans-30" x="127.246094"/>
      </g>
     </g>
    </g>
    <g id="ytick_6">
     <g id="line2d_25">
      <path d="M 53.328125 190.286115 
L 849.088125 190.286115 
" clip-path="url(#p9516fea97a)" style="fill: none; stroke: #b0b0b0; stroke-opacity: 0.3; stroke-width: 0.8; stroke-linecap: square"/>
     </g>
     <g id="line2d_26">
      <g>
       <use xlink:href="#mcf02a824bf" x="53.328125" y="190.286115" style="stroke: #000000; stroke-width: 0.8"/>
      </g>
     </g>
     <g id="text_14">
      <!-- 1000 -->
      <g transform="translate(20.878125 194.085334) scale(0.1 -0.1)">
       <use xlink:href="#DejaVuSans-31"/>
       <use xlink:href="#DejaVuSans-30" x="63.623047"/>
       <use xlink:href="#DejaVuSans-30" x="127.246094"/>
       <use xlink:href="#DejaVuSans-30" x="190.869141"/>
      </g>
     </g>
    </g>
    <g id="ytick_7">
     <g id="line2d_27">
      <path d="M 53.328125 126.78335 
L 849.088125 126.78335 
" clip-path="url(#p9516fea97a)" style="fill: none; stroke: #b0b0b0; stroke-opacity: 0.3; stroke-width: 0.8; stroke-linecap: square"/>
     </g>
     <g id="line2d_28">
      <g>
       <use xlink:href="#mcf02a824bf" x="53.328125" y="126.78335" style="stroke: #000000; stroke-width: 0.8"/>
      </g>
     </g>
     <g id="text_15">
      <!-- 1200 -->
      <g transform="translate(20.878125 130.582568) scale(0.1 -0.1)">
       <use xlink:href="#DejaVuSans-31"/>
       <use xlink:href="#DejaVuSans-32" x="63.623047"/>
       <use xlink:href="#DejaVuSans-30" x="127.246094"/>
       <use xlink:href="#DejaVuSans-30" x="190.869141"/>
      </g>
     </g>
    </g>
    <g id="ytick_8">
     <g id="line2d_29">
      <path d="M 53.328125 63.280584 
L 849.088125 63.280584 
" clip-path="url(#p9516fea97a)" style="fill: none; stroke: #b0b0b0; stroke-opacity: 0.3; stroke-width: 0.8; stroke-linecap: square"/>
     </g>
     <g id="line2d_30">
      <g>
       <use xlink:href="#mcf02a824bf" x="53.328125" y="63.280584" style="stroke: #000000; stroke-width: 0.8"/>
      </g>
     </g>
     <g id="text_16">
      <!-- 1400 -->
      <g transform="translate(20.878125 67.079803) scale(0.1 -0.1)">
       <use xlink:href="#DejaVuSans-31"/>
       <use xlink:href="#DejaVuSans-34" x="63.623047"/>
       <use xlink:href="#DejaVuSans-30" x="127.246094"/>
       <use xlink:href="#DejaVuSans-30" x="190.869141"/>
      </g>
     </g>
    </g>
    <g id="text_17">
     <!-- CPU Usage (%) -->
     <g transform="translate(14.798438 314.193125) rotate(-90) scale(0.1 -0.1)">
      <defs>
       <path id="DejaVuSans-43" d="M 4122 4306 
L 4122 3641 
Q 3803 3938 3442 4084 
Q 3081 4231 2675 4231 
Q 1875 4231 1450 3742 
Q 1025 3253 1025 2328 
Q 1025 1406 1450 917 
Q 1875 428 2675 428 
Q 3081 428 3442 575 
Q 3803 722 4122 1019 
L 4122 359 
Q 3791 134 3420 21 
Q 3050 -91 2638 -91 
Q 1578 -91 968 557 
Q 359 1206 359 2328 
Q 359 3453 968 4101 
Q 1578 4750 2638 4750 
Q 3056 4750 3426 4639 
Q 3797 4528 4122 4306 
z
" transform="scale(0.015625)"/>
       <path id="DejaVuSans-50" d="M 1259 4147 
L 1259 2394 
L 2053 2394 
Q 2494 2394 2734 2622 
Q 2975 2850 2975 3272 
Q 2975 3691 2734 3919 
Q 2494 4147 2053 4147 
L 1259 4147 
z
M 628 4666 
L 2053 4666 
Q 2838 4666 3239 4311 
Q 3641 3956 3641 3272 
Q 3641 2581 3239 2228 
Q 2838 1875 2053 1875 
L 1259 1875 
L 1259 0 
L 628 0 
L 628 4666 
z
" transform="scale(0.015625)"/>
       <path id="DejaVuSans-55" d="M 556 4666 
L 1191 4666 
L 1191 1831 
Q 1191 1081 1462 751 
Q 1734 422 2344 422 
Q 2950 422 3222 751 
Q 3494 1081 3494 1831 
L 3494 4666 
L 4128 4666 
L 4128 1753 
Q 4128 841 3676 375 
Q 3225 -91 2344 -91 
Q 1459 -91 1007 375 
Q 556 841 556 1753 
L 556 4666 
z
" transform="scale(0.015625)"/>
       <path id="DejaVuSans-67" d="M 2906 1791 
Q 2906 2416 2648 2759 
Q 2391 3103 1925 3103 
Q 1463 3103 1205 2759 
Q 947 2416 947 1791 
Q 947 1169 1205 825 
Q 1463 481 1925 481 
Q 2391 481 2648 825 
Q 2906 1169 2906 1791 
z
M 3481 434 
Q 3481 -459 3084 -895 
Q 2688 -1331 1869 -1331 
Q 1566 -1331 1297 -1286 
Q 1028 -1241 775 -1147 
L 775 -588 
Q 1028 -725 1275 -790 
Q 1522 -856 1778 -856 
Q 2344 -856 2625 -561 
Q 2906 -266 2906 331 
L 2906 616 
Q 2728 306 2450 153 
Q 2172 0 1784 0 
Q 1141 0 747 490 
Q 353 981 353 1791 
Q 353 2603 747 3093 
Q 1141 3584 1784 3584 
Q 2172 3584 2450 3431 
Q 2728 3278 2906 2969 
L 2906 3500 
L 3481 3500 
L 3481 434 
z
" transform="scale(0.015625)"/>
       <path id="DejaVuSans-25" d="M 4653 2053 
Q 4381 2053 4226 1822 
Q 4072 1591 4072 1178 
Q 4072 772 4226 539 
Q 4381 306 4653 306 
Q 4919 306 5073 539 
Q 5228 772 5228 1178 
Q 5228 1588 5073 1820 
Q 4919 2053 4653 2053 
z
M 4653 2450 
Q 5147 2450 5437 2106 
Q 5728 1763 5728 1178 
Q 5728 594 5436 251 
Q 5144 -91 4653 -91 
Q 4153 -91 3862 251 
Q 3572 594 3572 1178 
Q 3572 1766 3864 2108 
Q 4156 2450 4653 2450 
z
M 1428 4353 
Q 1159 4353 1004 4120 
Q 850 3888 850 3481 
Q 850 3069 1003 2837 
Q 1156 2606 1428 2606 
Q 1700 2606 1854 2837 
Q 2009 3069 2009 3481 
Q 2009 3884 1853 4118 
Q 1697 4353 1428 4353 
z
M 4250 4750 
L 4750 4750 
L 1831 -91 
L 1331 -91 
L 4250 4750 
z
M 1428 4750 
Q 1922 4750 2215 4408 
Q 2509 4066 2509 3481 
Q 2509 2891 2217 2550 
Q 1925 2209 1428 2209 
Q 931 2209 642 2551 
Q 353 2894 353 3481 
Q 353 4063 643 4406 
Q 934 4750 1428 4750 
z
" transform="scale(0.015625)"/>
      </defs>
      <use xlink:href="#DejaVuSans-43"/>
      <use xlink:href="#DejaVuSans-50" x="69.824219"/>
      <use xlink:href="#DejaVuSans-55" x="130.126953"/>
      <use xlink:href="#DejaVuSans-20" x="203.320312"/>
      <use xlink:href="#DejaVuSans-55" x="235.107422"/>
      <use xlink:href="#DejaVuSans-73" x="308.300781"/>
      <use xlink:href="#DejaVuSans-61" x="360.400391"/>
      <use xlink:href="#DejaVuSans-67" x="421.679688"/>
      <use xlink:href="#DejaVuSans-65" x="485.15625"/>
      <use xlink:href="#DejaVuSans-20" x="546.679688"/>
      <use xlink:href="#DejaVuSans-28" x="578.466797"/>
      <use xlink:href="#DejaVuSans-25" x="617.480469"/>
      <use xlink:href="#DejaVuSans-29" x="712.5"/>
     </g>
    </g>
   </g>
   <g id="line2d_31">
    <path d="M 90.538515 507.799943 
L 101.912616 507.799943 
L 113.271888 507.799943 
L 124.633867 507.799943 
L 135.978376 507.799943 
L 147.343817 507.799943 
L 153.024941 507.799943 
L 158.694145 507.799943 
L 164.378501 507.799943 
L 170.063047 507.799943 
L 175.747659 507.799943 
L 181.435356 507.799943 
L 187.115766 507.799943 
L 192.796446 507.799943 
L 198.475307 374.952158 
L 204.159125 179.617651 
L 209.828531 172.441838 
L 215.497237 166.05981 
L 221.165134 184.983634 
L 226.913564 170.822518 
L 232.60118 173.489634 
L 238.310549 155.931119 
L 243.996064 173.457882 
L 249.711615 168.758678 
L 255.379189 178.633358 
L 261.062482 166.9806 
L 266.749182 164.059473 
L 272.437889 163.964219 
L 278.12327 157.613942 
L 283.790911 153.327506 
L 289.459994 169.393705 
L 295.129077 156.439141 
L 300.814161 170.18749 
L 306.498437 160.693826 
L 312.166698 159.677782 
L 317.834662 153.486262 
L 323.519275 176.379009 
L 329.191159 166.250318 
L 334.868297 160.376313 
L 340.541151 162.979926 
L 346.226369 163.868965 
L 351.892219 156.375638 
L 357.581344 173.616639 
L 363.265405 173.299125 
L 368.951405 173.39438 
L 374.620043 159.836539 
L 380.346288 159.995296 
L 386.015587 153.486262 
L 391.742412 172.600595 
L 397.476779 169.996982 
L 403.163924 154.438804 
L 408.829006 165.901053 
L 414.496877 156.502644 
L 420.181274 157.518688 
L 425.848781 153.295754 
L 431.514415 159.582528 
L 437.181909 156.470892 
L 442.848782 146.945478 
L 448.536251 167.234611 
L 454.204902 153.391008 
L 459.929734 153.740274 
L 465.596217 162.598909 
L 471.260922 156.439141 
L 476.927109 153.232251 
L 482.612772 160.789081 
L 488.281801 150.184119 
L 493.947166 146.913726 
L 499.672658 169.425457 
L 505.357041 157.550439 
L 511.021464 156.375638 
L 516.710817 167.266363 
L 522.425682 156.216881 
L 528.102226 172.854606 
L 533.872247 165.83755 
L 539.539632 156.502644 
L 545.207153 159.677782 
L 550.875279 156.502644 
L 556.560713 176.506015 
L 562.245865 157.550439 
L 567.92944 170.155738 
L 573.615696 182.82454 
L 579.300295 163.900716 
L 584.985904 166.948849 
L 590.668591 166.9806 
L 596.355143 157.677445 
L 602.040995 167.107606 
L 607.709404 159.677782 
L 613.437711 166.472578 
L 619.102699 165.83755 
L 624.769128 156.40739 
L 630.454549 167.044103 
L 636.139741 160.725578 
L 641.825498 167.171108 
L 647.513666 163.964219 
L 653.182561 159.963545 
L 658.909049 175.521722 
L 664.592921 163.837213 
L 670.279082 176.569518 
L 675.967439 173.648391 
L 681.638394 197.715939 
L 687.330684 180.06217 
L 692.998272 150.21587 
L 698.722847 166.218567 
L 704.40781 170.219241 
L 710.075748 153.327506 
L 715.743066 153.295754 
L 721.409428 156.470892 
L 727.138044 160.217556 
L 732.805848 165.964556 
L 738.533494 194.636055 
L 744.202025 181.871999 
L 749.888617 151.35892 
L 755.579372 154.692815 
L 761.246528 251.629787 
L 766.921376 507.799943 
L 772.616616 507.799943 
L 778.300231 507.799943 
L 783.982783 507.799943 
L 789.676865 507.799943 
L 795.360454 507.799943 
L 801.058145 507.799943 
L 806.749559 507.799943 
L 812.431074 507.799943 
" clip-path="url(#p9516fea97a)" style="fill: none; stroke: #2ca02c; stroke-width: 2; stroke-linecap: square"/>
    <defs>
     <path id="m15e5d21640" d="M 0 2 
C 0.530406 2 1.03916 1.789267 1.414214 1.414214 
C 1.789267 1.03916 2 0.530406 2 0 
C 2 -0.530406 1.789267 -1.03916 1.414214 -1.414214 
C 1.03916 -1.789267 0.530406 -2 0 -2 
C -0.530406 -2 -1.03916 -1.789267 -1.414214 -1.414214 
C -1.789267 -1.03916 -2 -0.530406 -2 0 
C -2 0.530406 -1.789267 1.03916 -1.414214 1.414214 
C -1.03916 1.789267 -0.530406 2 0 2 
z
" style="stroke: #2ca02c"/>
    </defs>
    <g clip-path="url(#p9516fea97a)">
     <use xlink:href="#m15e5d21640" x="90.538515" y="507.799943" style="fill: #2ca02c; stroke: #2ca02c"/>
     <use xlink:href="#m15e5d21640" x="101.912616" y="507.799943" style="fill: #2ca02c; stroke: #2ca02c"/>
     <use xlink:href="#m15e5d21640" x="113.271888" y="507.799943" style="fill: #2ca02c; stroke: #2ca02c"/>
     <use xlink:href="#m15e5d21640" x="124.633867" y="507.799943" style="fill: #2ca02c; stroke: #2ca02c"/>
     <use xlink:href="#m15e5d21640" x="135.978376" y="507.799943" style="fill: #2ca02c; stroke: #2ca02c"/>
     <use xlink:href="#m15e5d21640" x="147.343817" y="507.799943" style="fill: #2ca02c; stroke: #2ca02c"/>
     <use xlink:href="#m15e5d21640" x="153.024941" y="507.799943" style="fill: #2ca02c; stroke: #2ca02c"/>
     <use xlink:href="#m15e5d21640" x="158.694145" y="507.799943" style="fill: #2ca02c; stroke: #2ca02c"/>
     <use xlink:href="#m15e5d21640" x="164.378501" y="507.799943" style="fill: #2ca02c; stroke: #2ca02c"/>
     <use xlink:href="#m15e5d21640" x="170.063047" y="507.799943" style="fill: #2ca02c; stroke: #2ca02c"/>
     <use xlink:href="#m15e5d21640" x="175.747659" y="507.799943" style="fill: #2ca02c; stroke: #2ca02c"/>
     <use xlink:href="#m15e5d21640" x="181.435356" y="507.799943" style="fill: #2ca02c; stroke: #2ca02c"/>
     <use xlink:href="#m15e5d21640" x="187.115766" y="507.799943" style="fill: #2ca02c; stroke: #2ca02c"/>
     <use xlink:href="#m15e5d21640" x="192.796446" y="507.799943" style="fill: #2ca02c; stroke: #2ca02c"/>
     <use xlink:href="#m15e5d21640" x="198.475307" y="374.952158" style="fill: #2ca02c; stroke: #2ca02c"/>
     <use xlink:href="#m15e5d21640" x="204.159125" y="179.617651" style="fill: #2ca02c; stroke: #2ca02c"/>
     <use xlink:href="#m15e5d21640" x="209.828531" y="172.441838" style="fill: #2ca02c; stroke: #2ca02c"/>
     <use xlink:href="#m15e5d21640" x="215.497237" y="166.05981" style="fill: #2ca02c; stroke: #2ca02c"/>
     <use xlink:href="#m15e5d21640" x="221.165134" y="184.983634" style="fill: #2ca02c; stroke: #2ca02c"/>
     <use xlink:href="#m15e5d21640" x="226.913564" y="170.822518" style="fill: #2ca02c; stroke: #2ca02c"/>
     <use xlink:href="#m15e5d21640" x="232.60118" y="173.489634" style="fill: #2ca02c; stroke: #2ca02c"/>
     <use xlink:href="#m15e5d21640" x="238.310549" y="155.931119" style="fill: #2ca02c; stroke: #2ca02c"/>
     <use xlink:href="#m15e5d21640" x="243.996064" y="173.457882" style="fill: #2ca02c; stroke: #2ca02c"/>
     <use xlink:href="#m15e5d21640" x="249.711615" y="168.758678" style="fill: #2ca02c; stroke: #2ca02c"/>
     <use xlink:href="#m15e5d21640" x="255.379189" y="178.633358" style="fill: #2ca02c; stroke: #2ca02c"/>
     <use xlink:href="#m15e5d21640" x="261.062482" y="166.9806" style="fill: #2ca02c; stroke: #2ca02c"/>
     <use xlink:href="#m15e5d21640" x="266.749182" y="164.059473" style="fill: #2ca02c; stroke: #2ca02c"/>
     <use xlink:href="#m15e5d21640" x="272.437889" y="163.964219" style="fill: #2ca02c; stroke: #2ca02c"/>
     <use xlink:href="#m15e5d21640" x="278.12327" y="157.613942" style="fill: #2ca02c; stroke: #2ca02c"/>
     <use xlink:href="#m15e5d21640" x="283.790911" y="153.327506" style="fill: #2ca02c; stroke: #2ca02c"/>
     <use xlink:href="#m15e5d21640" x="289.459994" y="169.393705" style="fill: #2ca02c; stroke: #2ca02c"/>
     <use xlink:href="#m15e5d21640" x="295.129077" y="156.439141" style="fill: #2ca02c; stroke: #2ca02c"/>
     <use xlink:href="#m15e5d21640" x="300.814161" y="170.18749" style="fill: #2ca02c; stroke: #2ca02c"/>
     <use xlink:href="#m15e5d21640" x="306.498437" y="160.693826" style="fill: #2ca02c; stroke: #2ca02c"/>
     <use xlink:href="#m15e5d21640" x="312.166698" y="159.677782" style="fill: #2ca02c; stroke: #2ca02c"/>
     <use xlink:href="#m15e5d21640" x="317.834662" y="153.486262" style="fill: #2ca02c; stroke: #2ca02c"/>
     <use xlink:href="#m15e5d21640" x="323.519275" y="176.379009" style="fill: #2ca02c; stroke: #2ca02c"/>
     <use xlink:href="#m15e5d21640" x="329.191159" y="166.250318" style="fill: #2ca02c; stroke: #2ca02c"/>
     <use xlink:href="#m15e5d21640" x="334.868297" y="160.376313" style="fill: #2ca02c; stroke: #2ca02c"/>
     <use xlink:href="#m15e5d21640" x="340.541151" y="162.979926" style="fill: #2ca02c; stroke: #2ca02c"/>
     <use xlink:href="#m15e5d21640" x="346.226369" y="163.868965" style="fill: #2ca02c; stroke: #2ca02c"/>
     <use xlink:href="#m15e5d21640" x="351.892219" y="156.375638" style="fill: #2ca02c; stroke: #2ca02c"/>
     <use xlink:href="#m15e5d21640" x="357.581344" y="173.616639" style="fill: #2ca02c; stroke: #2ca02c"/>
     <use xlink:href="#m15e5d21640" x="363.265405" y="173.299125" style="fill: #2ca02c; stroke: #2ca02c"/>
     <use xlink:href="#m15e5d21640" x="368.951405" y="173.39438" style="fill: #2ca02c; stroke: #2ca02c"/>
     <use xlink:href="#m15e5d21640" x="374.620043" y="159.836539" style="fill: #2ca02c; stroke: #2ca02c"/>
     <use xlink:href="#m15e5d21640" x="380.346288" y="159.995296" style="fill: #2ca02c; stroke: #2ca02c"/>
     <use xlink:href="#m15e5d21640" x="386.015587" y="153.486262" style="fill: #2ca02c; stroke: #2ca02c"/>
     <use xlink:href="#m15e5d21640" x="391.742412" y="172.600595" style="fill: #2ca02c; stroke: #2ca02c"/>
     <use xlink:href="#m15e5d21640" x="397.476779" y="169.996982" style="fill: #2ca02c; stroke: #2ca02c"/>
     <use xlink:href="#m15e5d21640" x="403.163924" y="154.438804" style="fill: #2ca02c; stroke: #2ca02c"/>
     <use xlink:href="#m15e5d21640" x="408.829006" y="165.901053" style="fill: #2ca02c; stroke: #2ca02c"/>
     <use xlink:href="#m15e5d21640" x="414.496877" y="156.502644" style="fill: #2ca02c; stroke: #2ca02c"/>
     <use xlink:href="#m15e5d21640" x="420.181274" y="157.518688" style="fill: #2ca02c; stroke: #2ca02c"/>
     <use xlink:href="#m15e5d21640" x="425.848781" y="153.295754" style="fill: #2ca02c; stroke: #2ca02c"/>
     <use xlink:href="#m15e5d21640" x="431.514415" y="159.582528" style="fill: #2ca02c; stroke: #2ca02c"/>
     <use xlink:href="#m15e5d21640" x="437.181909" y="156.470892" style="fill: #2ca02c; stroke: #2ca02c"/>
     <use xlink:href="#m15e5d21640" x="442.848782" y="146.945478" style="fill: #2ca02c; stroke: #2ca02c"/>
     <use xlink:href="#m15e5d21640" x="448.536251" y="167.234611" style="fill: #2ca02c; stroke: #2ca02c"/>
     <use xlink:href="#m15e5d21640" x="454.204902" y="153.391008" style="fill: #2ca02c; stroke: #2ca02c"/>
     <use xlink:href="#m15e5d21640" x="459.929734" y="153.740274" style="fill: #2ca02c; stroke: #2ca02c"/>
     <use xlink:href="#m15e5d21640" x="465.596217" y="162.598909" style="fill: #2ca02c; stroke: #2ca02c"/>
     <use xlink:href="#m15e5d21640" x="471.260922" y="156.439141" style="fill: #2ca02c; stroke: #2ca02c"/>
     <use xlink:href="#m15e5d21640" x="476.927109" y="153.232251" style="fill: #2ca02c; stroke: #2ca02c"/>
     <use xlink:href="#m15e5d21640" x="482.612772" y="160.789081" style="fill: #2ca02c; stroke: #2ca02c"/>
     <use xlink:href="#m15e5d21640" x="488.281801" y="150.184119" style="fill: #2ca02c; stroke: #2ca02c"/>
     <use xlink:href="#m15e5d21640" x="493.947166" y="146.913726" style="fill: #2ca02c; stroke: #2ca02c"/>
     <use xlink:href="#m15e5d21640" x="499.672658" y="169.425457" style="fill: #2ca02c; stroke: #2ca02c"/>
     <use xlink:href="#m15e5d21640" x="505.357041" y="157.550439" style="fill: #2ca02c; stroke: #2ca02c"/>
     <use xlink:href="#m15e5d21640" x="511.021464" y="156.375638" style="fill: #2ca02c; stroke: #2ca02c"/>
     <use xlink:href="#m15e5d21640" x="516.710817" y="167.266363" style="fill: #2ca02c; stroke: #2ca02c"/>
     <use xlink:href="#m15e5d21640" x="522.425682" y="156.216881" style="fill: #2ca02c; stroke: #2ca02c"/>
     <use xlink:href="#m15e5d21640" x="528.102226" y="172.854606" style="fill: #2ca02c; stroke: #2ca02c"/>
     <use xlink:href="#m15e5d21640" x="533.872247" y="165.83755" style="fill: #2ca02c; stroke: #2ca02c"/>
     <use xlink:href="#m15e5d21640" x="539.539632" y="156.502644" style="fill: #2ca02c; stroke: #2ca02c"/>
     <use xlink:href="#m15e5d21640" x="545.207153" y="159.677782" style="fill: #2ca02c; stroke: #2ca02c"/>
     <use xlink:href="#m15e5d21640" x="550.875279" y="156.502644" style="fill: #2ca02c; stroke: #2ca02c"/>
     <use xlink:href="#m15e5d21640" x="556.560713" y="176.506015" style="fill: #2ca02c; stroke: #2ca02c"/>
     <use xlink:href="#m15e5d21640" x="562.245865" y="157.550439" style="fill: #2ca02c; stroke: #2ca02c"/>
     <use xlink:href="#m15e5d21640" x="567.92944" y="170.155738" style="fill: #2ca02c; stroke: #2ca02c"/>
     <use xlink:href="#m15e5d21640" x="573.615696" y="182.82454" style="fill: #2ca02c; stroke: #2ca02c"/>
     <use xlink:href="#m15e5d21640" x="579.300295" y="163.900716" style="fill: #2ca02c; stroke: #2ca02c"/>
     <use xlink:href="#m15e5d21640" x="584.985904" y="166.948849" style="fill: #2ca02c; stroke: #2ca02c"/>
     <use xlink:href="#m15e5d21640" x="590.668591" y="166.9806" style="fill: #2ca02c; stroke: #2ca02c"/>
     <use xlink:href="#m15e5d21640" x="596.355143" y="157.677445" style="fill: #2ca02c; stroke: #2ca02c"/>
     <use xlink:href="#m15e5d21640" x="602.040995" y="167.107606" style="fill: #2ca02c; stroke: #2ca02c"/>
     <use xlink:href="#m15e5d21640" x="607.709404" y="159.677782" style="fill: #2ca02c; stroke: #2ca02c"/>
     <use xlink:href="#m15e5d21640" x="613.437711" y="166.472578" style="fill: #2ca02c; stroke: #2ca02c"/>
     <use xlink:href="#m15e5d21640" x="619.102699" y="165.83755" style="fill: #2ca02c; stroke: #2ca02c"/>
     <use xlink:href="#m15e5d21640" x="624.769128" y="156.40739" style="fill: #2ca02c; stroke: #2ca02c"/>
     <use xlink:href="#m15e5d21640" x="630.454549" y="167.044103" style="fill: #2ca02c; stroke: #2ca02c"/>
     <use xlink:href="#m15e5d21640" x="636.139741" y="160.725578" style="fill: #2ca02c; stroke: #2ca02c"/>
     <use xlink:href="#m15e5d21640" x="641.825498" y="167.171108" style="fill: #2ca02c; stroke: #2ca02c"/>
     <use xlink:href="#m15e5d21640" x="647.513666" y="163.964219" style="fill: #2ca02c; stroke: #2ca02c"/>
     <use xlink:href="#m15e5d21640" x="653.182561" y="159.963545" style="fill: #2ca02c; stroke: #2ca02c"/>
     <use xlink:href="#m15e5d21640" x="658.909049" y="175.521722" style="fill: #2ca02c; stroke: #2ca02c"/>
     <use xlink:href="#m15e5d21640" x="664.592921" y="163.837213" style="fill: #2ca02c; stroke: #2ca02c"/>
     <use xlink:href="#m15e5d21640" x="670.279082" y="176.569518" style="fill: #2ca02c; stroke: #2ca02c"/>
     <use xlink:href="#m15e5d21640" x="675.967439" y="173.648391" style="fill: #2ca02c; stroke: #2ca02c"/>
     <use xlink:href="#m15e5d21640" x="681.638394" y="197.715939" style="fill: #2ca02c; stroke: #2ca02c"/>
     <use xlink:href="#m15e5d21640" x="687.330684" y="180.06217" style="fill: #2ca02c; stroke: #2ca02c"/>
     <use xlink:href="#m15e5d21640" x="692.998272" y="150.21587" style="fill: #2ca02c; stroke: #2ca02c"/>
     <use xlink:href="#m15e5d21640" x="698.722847" y="166.218567" style="fill: #2ca02c; stroke: #2ca02c"/>
     <use xlink:href="#m15e5d21640" x="704.40781" y="170.219241" style="fill: #2ca02c; stroke: #2ca02c"/>
     <use xlink:href="#m15e5d21640" x="710.075748" y="153.327506" style="fill: #2ca02c; stroke: #2ca02c"/>
     <use xlink:href="#m15e5d21640" x="715.743066" y="153.295754" style="fill: #2ca02c; stroke: #2ca02c"/>
     <use xlink:href="#m15e5d21640" x="721.409428" y="156.470892" style="fill: #2ca02c; stroke: #2ca02c"/>
     <use xlink:href="#m15e5d21640" x="727.138044" y="160.217556" style="fill: #2ca02c; stroke: #2ca02c"/>
     <use xlink:href="#m15e5d21640" x="732.805848" y="165.964556" style="fill: #2ca02c; stroke: #2ca02c"/>
     <use xlink:href="#m15e5d21640" x="738.533494" y="194.636055" style="fill: #2ca02c; stroke: #2ca02c"/>
     <use xlink:href="#m15e5d21640" x="744.202025" y="181.871999" style="fill: #2ca02c; stroke: #2ca02c"/>
     <use xlink:href="#m15e5d21640" x="749.888617" y="151.35892" style="fill: #2ca02c; stroke: #2ca02c"/>
     <use xlink:href="#m15e5d21640" x="755.579372" y="154.692815" style="fill: #2ca02c; stroke: #2ca02c"/>
     <use xlink:href="#m15e5d21640" x="761.246528" y="251.629787" style="fill: #2ca02c; stroke: #2ca02c"/>
     <use xlink:href="#m15e5d21640" x="766.921376" y="507.799943" style="fill: #2ca02c; stroke: #2ca02c"/>
     <use xlink:href="#m15e5d21640" x="772.616616" y="507.799943" style="fill: #2ca02c; stroke: #2ca02c"/>
     <use xlink:href="#m15e5d21640" x="778.300231" y="507.799943" style="fill: #2ca02c; stroke: #2ca02c"/>
     <use xlink:href="#m15e5d21640" x="783.982783" y="507.799943" style="fill: #2ca02c; stroke: #2ca02c"/>
     <use xlink:href="#m15e5d21640" x="789.676865" y="507.799943" style="fill: #2ca02c; stroke: #2ca02c"/>
     <use xlink:href="#m15e5d21640" x="795.360454" y="507.799943" style="fill: #2ca02c; stroke: #2ca02c"/>
     <use xlink:href="#m15e5d21640" x="801.058145" y="507.799943" style="fill: #2ca02c; stroke: #2ca02c"/>
     <use xlink:href="#m15e5d21640" x="806.749559" y="507.799943" style="fill: #2ca02c; stroke: #2ca02c"/>
     <use xlink:href="#m15e5d21640" x="812.431074" y="507.799943" style="fill: #2ca02c; stroke: #2ca02c"/>
    </g>
   </g>
   <g id="line2d_32">
    <path d="M 89.499034 504.720059 
L 101.133884 506.244125 
L 112.610122 507.799943 
L 124.014475 507.799943 
L 135.458561 507.799943 
L 146.930664 507.799943 
L 152.733334 501.640175 
L 158.540516 504.688308 
L 164.323655 504.688308 
L 170.109677 507.799943 
L 175.917465 507.799943 
L 181.723677 507.799943 
L 187.592143 507.799943 
L 193.377357 507.799943 
L 199.099293 251.02651 
L 204.841917 45.436307 
L 210.584447 55.088727 
L 216.410674 85.855817 
L 222.185233 79.410286 
L 227.987944 71.726452 
L 233.751593 106.398962 
L 239.623333 92.555359 
L 245.379965 77.536955 
L 251.183308 68.93233 
L 256.931347 83.506215 
L 262.699657 72.012214 
L 268.4528 71.472441 
L 274.21781 90.491519 
L 279.965984 65.217418 
L 285.712379 67.662275 
L 291.630897 86.363839 
L 297.371999 82.299662 
L 303.16784 80.839099 
L 308.897601 63.725103 
L 314.689213 71.281932 
L 320.433615 67.344761 
L 326.179431 61.375501 
L 332.051777 73.822043 
L 337.856588 96.968801 
L 343.586174 119.988554 
L 349.363616 76.457408 
L 355.130956 94.015923 
L 361.004083 85.69706 
L 366.797095 95.952757 
L 372.532918 95.285978 
L 378.267447 70.07538 
L 384.189184 71.027921 
L 389.948483 90.840784 
L 395.713183 81.664635 
L 401.482126 128.815438 
L 407.321136 95.190724 
L 413.080152 83.63322 
L 418.85587 83.315707 
L 424.712429 96.683039 
L 430.449545 88.713442 
L 436.194176 77.251192 
L 441.934052 76.679667 
L 447.720465 105.700431 
L 453.525545 80.331077 
L 459.402201 102.144277 
L 465.203686 77.854469 
L 470.966365 112.876244 
L 476.729341 87.316381 
L 482.473851 79.854806 
L 488.219331 70.488148 
L 494.054744 99.064392 
L 499.821249 81.632883 
L 505.588616 103.446083 
L 511.3517 84.617513 
L 517.211425 119.22652 
L 522.963572 89.729486 
L 528.738307 103.8271 
L 534.502791 97.064055 
L 540.24617 98.715127 
L 546.06375 78.997518 
L 551.805876 92.396602 
L 557.571559 101.001227 
L 563.355049 85.284292 
L 569.13637 95.09547 
L 574.912465 108.335796 
L 580.717007 92.555359 
L 586.48925 99.69942 
L 592.207764 82.109154 
L 597.968989 92.80937 
L 603.717984 90.586773 
L 609.459073 88.935701 
L 615.217928 96.93705 
L 621.081842 94.365188 
L 626.945755 101.255238 
L 632.709041 90.872536 
L 638.520695 75.60012 
L 644.280331 90.840784 
L 650.052506 103.38258 
L 655.900163 109.129581 
L 661.665119 84.617513 
L 667.473553 93.95242 
L 673.245662 88.237171 
L 679.110626 101.159984 
L 684.880108 87.316381 
L 690.695721 98.270608 
L 696.467614 88.237171 
L 702.210077 117.416692 
L 707.956324 108.050034 
L 713.696254 74.076054 
L 719.468538 131.292046 
L 725.229588 93.857166 
L 731.090552 94.809707 
L 736.973551 98.365862 
L 742.751115 89.443723 
L 748.506117 99.381906 
L 754.251907 76.997181 
L 759.99748 132.562101 
L 765.717867 504.656556 
L 771.428502 507.799943 
L 777.228545 504.720059 
L 783.043391 501.640175 
L 788.851354 507.799943 
L 794.655479 507.799943 
L 800.452033 507.799943 
L 806.240426 507.799943 
L 812.06435 507.799943 
" clip-path="url(#p9516fea97a)" style="fill: none; stroke: #1f77b4; stroke-width: 2; stroke-linecap: square"/>
    <defs>
     <path id="m3aac542b8f" d="M 0 2 
C 0.530406 2 1.03916 1.789267 1.414214 1.414214 
C 1.789267 1.03916 2 0.530406 2 0 
C 2 -0.530406 1.789267 -1.03916 1.414214 -1.414214 
C 1.03916 -1.789267 0.530406 -2 0 -2 
C -0.530406 -2 -1.03916 -1.789267 -1.414214 -1.414214 
C -1.789267 -1.03916 -2 -0.530406 -2 0 
C -2 0.530406 -1.789267 1.03916 -1.414214 1.414214 
C -1.03916 1.789267 -0.530406 2 0 2 
z
" style="stroke: #1f77b4"/>
    </defs>
    <g clip-path="url(#p9516fea97a)">
     <use xlink:href="#m3aac542b8f" x="89.499034" y="504.720059" style="fill: #1f77b4; stroke: #1f77b4"/>
     <use xlink:href="#m3aac542b8f" x="101.133884" y="506.244125" style="fill: #1f77b4; stroke: #1f77b4"/>
     <use xlink:href="#m3aac542b8f" x="112.610122" y="507.799943" style="fill: #1f77b4; stroke: #1f77b4"/>
     <use xlink:href="#m3aac542b8f" x="124.014475" y="507.799943" style="fill: #1f77b4; stroke: #1f77b4"/>
     <use xlink:href="#m3aac542b8f" x="135.458561" y="507.799943" style="fill: #1f77b4; stroke: #1f77b4"/>
     <use xlink:href="#m3aac542b8f" x="146.930664" y="507.799943" style="fill: #1f77b4; stroke: #1f77b4"/>
     <use xlink:href="#m3aac542b8f" x="152.733334" y="501.640175" style="fill: #1f77b4; stroke: #1f77b4"/>
     <use xlink:href="#m3aac542b8f" x="158.540516" y="504.688308" style="fill: #1f77b4; stroke: #1f77b4"/>
     <use xlink:href="#m3aac542b8f" x="164.323655" y="504.688308" style="fill: #1f77b4; stroke: #1f77b4"/>
     <use xlink:href="#m3aac542b8f" x="170.109677" y="507.799943" style="fill: #1f77b4; stroke: #1f77b4"/>
     <use xlink:href="#m3aac542b8f" x="175.917465" y="507.799943" style="fill: #1f77b4; stroke: #1f77b4"/>
     <use xlink:href="#m3aac542b8f" x="181.723677" y="507.799943" style="fill: #1f77b4; stroke: #1f77b4"/>
     <use xlink:href="#m3aac542b8f" x="187.592143" y="507.799943" style="fill: #1f77b4; stroke: #1f77b4"/>
     <use xlink:href="#m3aac542b8f" x="193.377357" y="507.799943" style="fill: #1f77b4; stroke: #1f77b4"/>
     <use xlink:href="#m3aac542b8f" x="199.099293" y="251.02651" style="fill: #1f77b4; stroke: #1f77b4"/>
     <use xlink:href="#m3aac542b8f" x="204.841917" y="45.436307" style="fill: #1f77b4; stroke: #1f77b4"/>
     <use xlink:href="#m3aac542b8f" x="210.584447" y="55.088727" style="fill: #1f77b4; stroke: #1f77b4"/>
     <use xlink:href="#m3aac542b8f" x="216.410674" y="85.855817" style="fill: #1f77b4; stroke: #1f77b4"/>
     <use xlink:href="#m3aac542b8f" x="222.185233" y="79.410286" style="fill: #1f77b4; stroke: #1f77b4"/>
     <use xlink:href="#m3aac542b8f" x="227.987944" y="71.726452" style="fill: #1f77b4; stroke: #1f77b4"/>
     <use xlink:href="#m3aac542b8f" x="233.751593" y="106.398962" style="fill: #1f77b4; stroke: #1f77b4"/>
     <use xlink:href="#m3aac542b8f" x="239.623333" y="92.555359" style="fill: #1f77b4; stroke: #1f77b4"/>
     <use xlink:href="#m3aac542b8f" x="245.379965" y="77.536955" style="fill: #1f77b4; stroke: #1f77b4"/>
     <use xlink:href="#m3aac542b8f" x="251.183308" y="68.93233" style="fill: #1f77b4; stroke: #1f77b4"/>
     <use xlink:href="#m3aac542b8f" x="256.931347" y="83.506215" style="fill: #1f77b4; stroke: #1f77b4"/>
     <use xlink:href="#m3aac542b8f" x="262.699657" y="72.012214" style="fill: #1f77b4; stroke: #1f77b4"/>
     <use xlink:href="#m3aac542b8f" x="268.4528" y="71.472441" style="fill: #1f77b4; stroke: #1f77b4"/>
     <use xlink:href="#m3aac542b8f" x="274.21781" y="90.491519" style="fill: #1f77b4; stroke: #1f77b4"/>
     <use xlink:href="#m3aac542b8f" x="279.965984" y="65.217418" style="fill: #1f77b4; stroke: #1f77b4"/>
     <use xlink:href="#m3aac542b8f" x="285.712379" y="67.662275" style="fill: #1f77b4; stroke: #1f77b4"/>
     <use xlink:href="#m3aac542b8f" x="291.630897" y="86.363839" style="fill: #1f77b4; stroke: #1f77b4"/>
     <use xlink:href="#m3aac542b8f" x="297.371999" y="82.299662" style="fill: #1f77b4; stroke: #1f77b4"/>
     <use xlink:href="#m3aac542b8f" x="303.16784" y="80.839099" style="fill: #1f77b4; stroke: #1f77b4"/>
     <use xlink:href="#m3aac542b8f" x="308.897601" y="63.725103" style="fill: #1f77b4; stroke: #1f77b4"/>
     <use xlink:href="#m3aac542b8f" x="314.689213" y="71.281932" style="fill: #1f77b4; stroke: #1f77b4"/>
     <use xlink:href="#m3aac542b8f" x="320.433615" y="67.344761" style="fill: #1f77b4; stroke: #1f77b4"/>
     <use xlink:href="#m3aac542b8f" x="326.179431" y="61.375501" style="fill: #1f77b4; stroke: #1f77b4"/>
     <use xlink:href="#m3aac542b8f" x="332.051777" y="73.822043" style="fill: #1f77b4; stroke: #1f77b4"/>
     <use xlink:href="#m3aac542b8f" x="337.856588" y="96.968801" style="fill: #1f77b4; stroke: #1f77b4"/>
     <use xlink:href="#m3aac542b8f" x="343.586174" y="119.988554" style="fill: #1f77b4; stroke: #1f77b4"/>
     <use xlink:href="#m3aac542b8f" x="349.363616" y="76.457408" style="fill: #1f77b4; stroke: #1f77b4"/>
     <use xlink:href="#m3aac542b8f" x="355.130956" y="94.015923" style="fill: #1f77b4; stroke: #1f77b4"/>
     <use xlink:href="#m3aac542b8f" x="361.004083" y="85.69706" style="fill: #1f77b4; stroke: #1f77b4"/>
     <use xlink:href="#m3aac542b8f" x="366.797095" y="95.952757" style="fill: #1f77b4; stroke: #1f77b4"/>
     <use xlink:href="#m3aac542b8f" x="372.532918" y="95.285978" style="fill: #1f77b4; stroke: #1f77b4"/>
     <use xlink:href="#m3aac542b8f" x="378.267447" y="70.07538" style="fill: #1f77b4; stroke: #1f77b4"/>
     <use xlink:href="#m3aac542b8f" x="384.189184" y="71.027921" style="fill: #1f77b4; stroke: #1f77b4"/>
     <use xlink:href="#m3aac542b8f" x="389.948483" y="90.840784" style="fill: #1f77b4; stroke: #1f77b4"/>
     <use xlink:href="#m3aac542b8f" x="395.713183" y="81.664635" style="fill: #1f77b4; stroke: #1f77b4"/>
     <use xlink:href="#m3aac542b8f" x="401.482126" y="128.815438" style="fill: #1f77b4; stroke: #1f77b4"/>
     <use xlink:href="#m3aac542b8f" x="407.321136" y="95.190724" style="fill: #1f77b4; stroke: #1f77b4"/>
     <use xlink:href="#m3aac542b8f" x="413.080152" y="83.63322" style="fill: #1f77b4; stroke: #1f77b4"/>
     <use xlink:href="#m3aac542b8f" x="418.85587" y="83.315707" style="fill: #1f77b4; stroke: #1f77b4"/>
     <use xlink:href="#m3aac542b8f" x="424.712429" y="96.683039" style="fill: #1f77b4; stroke: #1f77b4"/>
     <use xlink:href="#m3aac542b8f" x="430.449545" y="88.713442" style="fill: #1f77b4; stroke: #1f77b4"/>
     <use xlink:href="#m3aac542b8f" x="436.194176" y="77.251192" style="fill: #1f77b4; stroke: #1f77b4"/>
     <use xlink:href="#m3aac542b8f" x="441.934052" y="76.679667" style="fill: #1f77b4; stroke: #1f77b4"/>
     <use xlink:href="#m3aac542b8f" x="447.720465" y="105.700431" style="fill: #1f77b4; stroke: #1f77b4"/>
     <use xlink:href="#m3aac542b8f" x="453.525545" y="80.331077" style="fill: #1f77b4; stroke: #1f77b4"/>
     <use xlink:href="#m3aac542b8f" x="459.402201" y="102.144277" style="fill: #1f77b4; stroke: #1f77b4"/>
     <use xlink:href="#m3aac542b8f" x="465.203686" y="77.854469" style="fill: #1f77b4; stroke: #1f77b4"/>
     <use xlink:href="#m3aac542b8f" x="470.966365" y="112.876244" style="fill: #1f77b4; stroke: #1f77b4"/>
     <use xlink:href="#m3aac542b8f" x="476.729341" y="87.316381" style="fill: #1f77b4; stroke: #1f77b4"/>
     <use xlink:href="#m3aac542b8f" x="482.473851" y="79.854806" style="fill: #1f77b4; stroke: #1f77b4"/>
     <use xlink:href="#m3aac542b8f" x="488.219331" y="70.488148" style="fill: #1f77b4; stroke: #1f77b4"/>
     <use xlink:href="#m3aac542b8f" x="494.054744" y="99.064392" style="fill: #1f77b4; stroke: #1f77b4"/>
     <use xlink:href="#m3aac542b8f" x="499.821249" y="81.632883" style="fill: #1f77b4; stroke: #1f77b4"/>
     <use xlink:href="#m3aac542b8f" x="505.588616" y="103.446083" style="fill: #1f77b4; stroke: #1f77b4"/>
     <use xlink:href="#m3aac542b8f" x="511.3517" y="84.617513" style="fill: #1f77b4; stroke: #1f77b4"/>
     <use xlink:href="#m3aac542b8f" x="517.211425" y="119.22652" style="fill: #1f77b4; stroke: #1f77b4"/>
     <use xlink:href="#m3aac542b8f" x="522.963572" y="89.729486" style="fill: #1f77b4; stroke: #1f77b4"/>
     <use xlink:href="#m3aac542b8f" x="528.738307" y="103.8271" style="fill: #1f77b4; stroke: #1f77b4"/>
     <use xlink:href="#m3aac542b8f" x="534.502791" y="97.064055" style="fill: #1f77b4; stroke: #1f77b4"/>
     <use xlink:href="#m3aac542b8f" x="540.24617" y="98.715127" style="fill: #1f77b4; stroke: #1f77b4"/>
     <use xlink:href="#m3aac542b8f" x="546.06375" y="78.997518" style="fill: #1f77b4; stroke: #1f77b4"/>
     <use xlink:href="#m3aac542b8f" x="551.805876" y="92.396602" style="fill: #1f77b4; stroke: #1f77b4"/>
     <use xlink:href="#m3aac542b8f" x="557.571559" y="101.001227" style="fill: #1f77b4; stroke: #1f77b4"/>
     <use xlink:href="#m3aac542b8f" x="563.355049" y="85.284292" style="fill: #1f77b4; stroke: #1f77b4"/>
     <use xlink:href="#m3aac542b8f" x="569.13637" y="95.09547" style="fill: #1f77b4; stroke: #1f77b4"/>
     <use xlink:href="#m3aac542b8f" x="574.912465" y="108.335796" style="fill: #1f77b4; stroke: #1f77b4"/>
     <use xlink:href="#m3aac542b8f" x="580.717007" y="92.555359" style="fill: #1f77b4; stroke: #1f77b4"/>
     <use xlink:href="#m3aac542b8f" x="586.48925" y="99.69942" style="fill: #1f77b4; stroke: #1f77b4"/>
     <use xlink:href="#m3aac542b8f" x="592.207764" y="82.109154" style="fill: #1f77b4; stroke: #1f77b4"/>
     <use xlink:href="#m3aac542b8f" x="597.968989" y="92.80937" style="fill: #1f77b4; stroke: #1f77b4"/>
     <use xlink:href="#m3aac542b8f" x="603.717984" y="90.586773" style="fill: #1f77b4; stroke: #1f77b4"/>
     <use xlink:href="#m3aac542b8f" x="609.459073" y="88.935701" style="fill: #1f77b4; stroke: #1f77b4"/>
     <use xlink:href="#m3aac542b8f" x="615.217928" y="96.93705" style="fill: #1f77b4; stroke: #1f77b4"/>
     <use xlink:href="#m3aac542b8f" x="621.081842" y="94.365188" style="fill: #1f77b4; stroke: #1f77b4"/>
     <use xlink:href="#m3aac542b8f" x="626.945755" y="101.255238" style="fill: #1f77b4; stroke: #1f77b4"/>
     <use xlink:href="#m3aac542b8f" x="632.709041" y="90.872536" style="fill: #1f77b4; stroke: #1f77b4"/>
     <use xlink:href="#m3aac542b8f" x="638.520695" y="75.60012" style="fill: #1f77b4; stroke: #1f77b4"/>
     <use xlink:href="#m3aac542b8f" x="644.280331" y="90.840784" style="fill: #1f77b4; stroke: #1f77b4"/>
     <use xlink:href="#m3aac542b8f" x="650.052506" y="103.38258" style="fill: #1f77b4; stroke: #1f77b4"/>
     <use xlink:href="#m3aac542b8f" x="655.900163" y="109.129581" style="fill: #1f77b4; stroke: #1f77b4"/>
     <use xlink:href="#m3aac542b8f" x="661.665119" y="84.617513" style="fill: #1f77b4; stroke: #1f77b4"/>
     <use xlink:href="#m3aac542b8f" x="667.473553" y="93.95242" style="fill: #1f77b4; stroke: #1f77b4"/>
     <use xlink:href="#m3aac542b8f" x="673.245662" y="88.237171" style="fill: #1f77b4; stroke: #1f77b4"/>
     <use xlink:href="#m3aac542b8f" x="679.110626" y="101.159984" style="fill: #1f77b4; stroke: #1f77b4"/>
     <use xlink:href="#m3aac542b8f" x="684.880108" y="87.316381" style="fill: #1f77b4; stroke: #1f77b4"/>
     <use xlink:href="#m3aac542b8f" x="690.695721" y="98.270608" style="fill: #1f77b4; stroke: #1f77b4"/>
     <use xlink:href="#m3aac542b8f" x="696.467614" y="88.237171" style="fill: #1f77b4; stroke: #1f77b4"/>
     <use xlink:href="#m3aac542b8f" x="702.210077" y="117.416692" style="fill: #1f77b4; stroke: #1f77b4"/>
     <use xlink:href="#m3aac542b8f" x="707.956324" y="108.050034" style="fill: #1f77b4; stroke: #1f77b4"/>
     <use xlink:href="#m3aac542b8f" x="713.696254" y="74.076054" style="fill: #1f77b4; stroke: #1f77b4"/>
     <use xlink:href="#m3aac542b8f" x="719.468538" y="131.292046" style="fill: #1f77b4; stroke: #1f77b4"/>
     <use xlink:href="#m3aac542b8f" x="725.229588" y="93.857166" style="fill: #1f77b4; stroke: #1f77b4"/>
     <use xlink:href="#m3aac542b8f" x="731.090552" y="94.809707" style="fill: #1f77b4; stroke: #1f77b4"/>
     <use xlink:href="#m3aac542b8f" x="736.973551" y="98.365862" style="fill: #1f77b4; stroke: #1f77b4"/>
     <use xlink:href="#m3aac542b8f" x="742.751115" y="89.443723" style="fill: #1f77b4; stroke: #1f77b4"/>
     <use xlink:href="#m3aac542b8f" x="748.506117" y="99.381906" style="fill: #1f77b4; stroke: #1f77b4"/>
     <use xlink:href="#m3aac542b8f" x="754.251907" y="76.997181" style="fill: #1f77b4; stroke: #1f77b4"/>
     <use xlink:href="#m3aac542b8f" x="759.99748" y="132.562101" style="fill: #1f77b4; stroke: #1f77b4"/>
     <use xlink:href="#m3aac542b8f" x="765.717867" y="504.656556" style="fill: #1f77b4; stroke: #1f77b4"/>
     <use xlink:href="#m3aac542b8f" x="771.428502" y="507.799943" style="fill: #1f77b4; stroke: #1f77b4"/>
     <use xlink:href="#m3aac542b8f" x="777.228545" y="504.720059" style="fill: #1f77b4; stroke: #1f77b4"/>
     <use xlink:href="#m3aac542b8f" x="783.043391" y="501.640175" style="fill: #1f77b4; stroke: #1f77b4"/>
     <use xlink:href="#m3aac542b8f" x="788.851354" y="507.799943" style="fill: #1f77b4; stroke: #1f77b4"/>
     <use xlink:href="#m3aac542b8f" x="794.655479" y="507.799943" style="fill: #1f77b4; stroke: #1f77b4"/>
     <use xlink:href="#m3aac542b8f" x="800.452033" y="507.799943" style="fill: #1f77b4; stroke: #1f77b4"/>
     <use xlink:href="#m3aac542b8f" x="806.240426" y="507.799943" style="fill: #1f77b4; stroke: #1f77b4"/>
     <use xlink:href="#m3aac542b8f" x="812.06435" y="507.799943" style="fill: #1f77b4; stroke: #1f77b4"/>
    </g>
   </g>
   <g id="line2d_33">
    <path d="M 112.028672 507.799943 
L 123.596527 507.799943 
L 135.060535 507.799943 
L 146.528987 507.799943 
L 152.331522 507.799943 
L 158.146112 507.799943 
L 163.972218 507.799943 
L 169.785447 507.799943 
L 175.624066 507.799943 
L 181.472248 507.799943 
L 187.320134 507.799943 
L 193.137323 507.799943 
L 198.932046 230.705625 
L 204.678065 176.728275 
L 210.433377 177.458557 
L 216.193969 171.489297 
L 222.12834 190.444872 
L 227.891222 171.743308 
L 233.739107 167.393368 
L 239.508198 184.18985 
L 245.324997 177.77607 
L 251.146281 165.710545 
L 256.894697 186.285441 
L 262.65409 171.743308 
L 268.455844 176.982286 
L 274.333362 178.093584 
L 280.208092 178.093584 
L 285.975728 171.743308 
L 291.775502 173.775396 
L 297.541482 177.966579 
L 303.283836 173.521385 
L 309.027228 161.424108 
L 314.837266 174.124661 
L 320.636608 180.030419 
L 326.381267 164.345235 
L 332.124968 173.584888 
L 337.868616 170.505004 
L 343.682802 180.665446 
L 349.44664 168.631672 
L 355.240285 171.267037 
L 361.109129 161.360605 
L 366.86467 174.410424 
L 372.813278 166.948849 
L 378.625672 177.585562 
L 384.464062 182.094258 
L 390.227106 162.281396 
L 395.992223 184.18985 
L 401.79562 167.774385 
L 407.58501 176.188501 
L 413.387747 174.124661 
L 419.141483 183.554822 
L 424.904863 171.743308 
L 430.712867 174.061159 
L 436.499885 173.299125 
L 442.244112 179.83991 
L 448.050971 177.331551 
L 453.873804 156.248633 
L 459.648053 175.648728 
L 465.454037 171.10828 
L 471.314677 181.173468 
L 477.099851 175.077203 
L 482.844159 176.760026 
L 488.588103 145.580168 
L 494.348641 184.18985 
L 500.114675 177.966579 
L 505.972379 186.317192 
L 511.781756 167.996644 
L 517.543682 174.854943 
L 523.308423 164.472241 
L 529.03316 173.521385 
L 534.859414 175.362965 
L 540.622309 184.18985 
L 546.431619 167.996644 
L 552.246169 174.696186 
L 558.076531 169.203197 
L 563.842282 187.301485 
L 569.649517 158.756992 
L 575.46699 171.870313 
L 581.232121 159.296766 
L 587.03677 180.189175 
L 592.783826 167.488622 
L 598.590887 192.730972 
L 604.425424 224.514106 
L 610.174662 183.74533 
L 615.919414 167.774385 
L 621.688074 177.966579 
L 627.471672 169.774722 
L 633.296552 175.172457 
L 639.042315 170.600258 
L 644.782541 173.521385 
L 650.534553 180.220927 
L 656.380163 170.346247 
L 662.239174 198.731983 
L 668.061185 180.824203 
L 673.826465 166.567832 
L 679.614628 172.346584 
L 685.357737 173.521385 
L 691.204249 176.728275 
L 697.026557 175.172457 
L 702.852245 190.508375 
L 708.59988 164.535744 
L 714.342854 154.883323 
L 720.189783 185.80917 
L 725.96045 177.99833 
L 731.721756 171.743308 
L 737.522958 170.632009 
L 743.302084 188.190524 
L 749.070084 168.631672 
L 754.814028 161.138346 
L 760.576815 255.725715 
L 766.357315 507.799943 
L 772.185414 507.799943 
L 778.00224 507.799943 
L 783.81749 507.799943 
L 789.619513 507.799943 
L 795.443949 507.799943 
L 801.252464 507.799943 
L 807.076011 507.799943 
L 812.917216 507.799943 
" clip-path="url(#p9516fea97a)" style="fill: none; stroke: #ff7f0e; stroke-width: 2; stroke-linecap: square"/>
    <defs>
     <path id="m7dad7963d0" d="M 0 2 
C 0.530406 2 1.03916 1.789267 1.414214 1.414214 
C 1.789267 1.03916 2 0.530406 2 0 
C 2 -0.530406 1.789267 -1.03916 1.414214 -1.414214 
C 1.03916 -1.789267 0.530406 -2 0 -2 
C -0.530406 -2 -1.03916 -1.789267 -1.414214 -1.414214 
C -1.789267 -1.03916 -2 -0.530406 -2 0 
C -2 0.530406 -1.789267 1.03916 -1.414214 1.414214 
C -1.03916 1.789267 -0.530406 2 0 2 
z
" style="stroke: #ff7f0e"/>
    </defs>
    <g clip-path="url(#p9516fea97a)">
     <use xlink:href="#m7dad7963d0" x="112.028672" y="507.799943" style="fill: #ff7f0e; stroke: #ff7f0e"/>
     <use xlink:href="#m7dad7963d0" x="123.596527" y="507.799943" style="fill: #ff7f0e; stroke: #ff7f0e"/>
     <use xlink:href="#m7dad7963d0" x="135.060535" y="507.799943" style="fill: #ff7f0e; stroke: #ff7f0e"/>
     <use xlink:href="#m7dad7963d0" x="146.528987" y="507.799943" style="fill: #ff7f0e; stroke: #ff7f0e"/>
     <use xlink:href="#m7dad7963d0" x="152.331522" y="507.799943" style="fill: #ff7f0e; stroke: #ff7f0e"/>
     <use xlink:href="#m7dad7963d0" x="158.146112" y="507.799943" style="fill: #ff7f0e; stroke: #ff7f0e"/>
     <use xlink:href="#m7dad7963d0" x="163.972218" y="507.799943" style="fill: #ff7f0e; stroke: #ff7f0e"/>
     <use xlink:href="#m7dad7963d0" x="169.785447" y="507.799943" style="fill: #ff7f0e; stroke: #ff7f0e"/>
     <use xlink:href="#m7dad7963d0" x="175.624066" y="507.799943" style="fill: #ff7f0e; stroke: #ff7f0e"/>
     <use xlink:href="#m7dad7963d0" x="181.472248" y="507.799943" style="fill: #ff7f0e; stroke: #ff7f0e"/>
     <use xlink:href="#m7dad7963d0" x="187.320134" y="507.799943" style="fill: #ff7f0e; stroke: #ff7f0e"/>
     <use xlink:href="#m7dad7963d0" x="193.137323" y="507.799943" style="fill: #ff7f0e; stroke: #ff7f0e"/>
     <use xlink:href="#m7dad7963d0" x="198.932046" y="230.705625" style="fill: #ff7f0e; stroke: #ff7f0e"/>
     <use xlink:href="#m7dad7963d0" x="204.678065" y="176.728275" style="fill: #ff7f0e; stroke: #ff7f0e"/>
     <use xlink:href="#m7dad7963d0" x="210.433377" y="177.458557" style="fill: #ff7f0e; stroke: #ff7f0e"/>
     <use xlink:href="#m7dad7963d0" x="216.193969" y="171.489297" style="fill: #ff7f0e; stroke: #ff7f0e"/>
     <use xlink:href="#m7dad7963d0" x="222.12834" y="190.444872" style="fill: #ff7f0e; stroke: #ff7f0e"/>
     <use xlink:href="#m7dad7963d0" x="227.891222" y="171.743308" style="fill: #ff7f0e; stroke: #ff7f0e"/>
     <use xlink:href="#m7dad7963d0" x="233.739107" y="167.393368" style="fill: #ff7f0e; stroke: #ff7f0e"/>
     <use xlink:href="#m7dad7963d0" x="239.508198" y="184.18985" style="fill: #ff7f0e; stroke: #ff7f0e"/>
     <use xlink:href="#m7dad7963d0" x="245.324997" y="177.77607" style="fill: #ff7f0e; stroke: #ff7f0e"/>
     <use xlink:href="#m7dad7963d0" x="251.146281" y="165.710545" style="fill: #ff7f0e; stroke: #ff7f0e"/>
     <use xlink:href="#m7dad7963d0" x="256.894697" y="186.285441" style="fill: #ff7f0e; stroke: #ff7f0e"/>
     <use xlink:href="#m7dad7963d0" x="262.65409" y="171.743308" style="fill: #ff7f0e; stroke: #ff7f0e"/>
     <use xlink:href="#m7dad7963d0" x="268.455844" y="176.982286" style="fill: #ff7f0e; stroke: #ff7f0e"/>
     <use xlink:href="#m7dad7963d0" x="274.333362" y="178.093584" style="fill: #ff7f0e; stroke: #ff7f0e"/>
     <use xlink:href="#m7dad7963d0" x="280.208092" y="178.093584" style="fill: #ff7f0e; stroke: #ff7f0e"/>
     <use xlink:href="#m7dad7963d0" x="285.975728" y="171.743308" style="fill: #ff7f0e; stroke: #ff7f0e"/>
     <use xlink:href="#m7dad7963d0" x="291.775502" y="173.775396" style="fill: #ff7f0e; stroke: #ff7f0e"/>
     <use xlink:href="#m7dad7963d0" x="297.541482" y="177.966579" style="fill: #ff7f0e; stroke: #ff7f0e"/>
     <use xlink:href="#m7dad7963d0" x="303.283836" y="173.521385" style="fill: #ff7f0e; stroke: #ff7f0e"/>
     <use xlink:href="#m7dad7963d0" x="309.027228" y="161.424108" style="fill: #ff7f0e; stroke: #ff7f0e"/>
     <use xlink:href="#m7dad7963d0" x="314.837266" y="174.124661" style="fill: #ff7f0e; stroke: #ff7f0e"/>
     <use xlink:href="#m7dad7963d0" x="320.636608" y="180.030419" style="fill: #ff7f0e; stroke: #ff7f0e"/>
     <use xlink:href="#m7dad7963d0" x="326.381267" y="164.345235" style="fill: #ff7f0e; stroke: #ff7f0e"/>
     <use xlink:href="#m7dad7963d0" x="332.124968" y="173.584888" style="fill: #ff7f0e; stroke: #ff7f0e"/>
     <use xlink:href="#m7dad7963d0" x="337.868616" y="170.505004" style="fill: #ff7f0e; stroke: #ff7f0e"/>
     <use xlink:href="#m7dad7963d0" x="343.682802" y="180.665446" style="fill: #ff7f0e; stroke: #ff7f0e"/>
     <use xlink:href="#m7dad7963d0" x="349.44664" y="168.631672" style="fill: #ff7f0e; stroke: #ff7f0e"/>
     <use xlink:href="#m7dad7963d0" x="355.240285" y="171.267037" style="fill: #ff7f0e; stroke: #ff7f0e"/>
     <use xlink:href="#m7dad7963d0" x="361.109129" y="161.360605" style="fill: #ff7f0e; stroke: #ff7f0e"/>
     <use xlink:href="#m7dad7963d0" x="366.86467" y="174.410424" style="fill: #ff7f0e; stroke: #ff7f0e"/>
     <use xlink:href="#m7dad7963d0" x="372.813278" y="166.948849" style="fill: #ff7f0e; stroke: #ff7f0e"/>
     <use xlink:href="#m7dad7963d0" x="378.625672" y="177.585562" style="fill: #ff7f0e; stroke: #ff7f0e"/>
     <use xlink:href="#m7dad7963d0" x="384.464062" y="182.094258" style="fill: #ff7f0e; stroke: #ff7f0e"/>
     <use xlink:href="#m7dad7963d0" x="390.227106" y="162.281396" style="fill: #ff7f0e; stroke: #ff7f0e"/>
     <use xlink:href="#m7dad7963d0" x="395.992223" y="184.18985" style="fill: #ff7f0e; stroke: #ff7f0e"/>
     <use xlink:href="#m7dad7963d0" x="401.79562" y="167.774385" style="fill: #ff7f0e; stroke: #ff7f0e"/>
     <use xlink:href="#m7dad7963d0" x="407.58501" y="176.188501" style="fill: #ff7f0e; stroke: #ff7f0e"/>
     <use xlink:href="#m7dad7963d0" x="413.387747" y="174.124661" style="fill: #ff7f0e; stroke: #ff7f0e"/>
     <use xlink:href="#m7dad7963d0" x="419.141483" y="183.554822" style="fill: #ff7f0e; stroke: #ff7f0e"/>
     <use xlink:href="#m7dad7963d0" x="424.904863" y="171.743308" style="fill: #ff7f0e; stroke: #ff7f0e"/>
     <use xlink:href="#m7dad7963d0" x="430.712867" y="174.061159" style="fill: #ff7f0e; stroke: #ff7f0e"/>
     <use xlink:href="#m7dad7963d0" x="436.499885" y="173.299125" style="fill: #ff7f0e; stroke: #ff7f0e"/>
     <use xlink:href="#m7dad7963d0" x="442.244112" y="179.83991" style="fill: #ff7f0e; stroke: #ff7f0e"/>
     <use xlink:href="#m7dad7963d0" x="448.050971" y="177.331551" style="fill: #ff7f0e; stroke: #ff7f0e"/>
     <use xlink:href="#m7dad7963d0" x="453.873804" y="156.248633" style="fill: #ff7f0e; stroke: #ff7f0e"/>
     <use xlink:href="#m7dad7963d0" x="459.648053" y="175.648728" style="fill: #ff7f0e; stroke: #ff7f0e"/>
     <use xlink:href="#m7dad7963d0" x="465.454037" y="171.10828" style="fill: #ff7f0e; stroke: #ff7f0e"/>
     <use xlink:href="#m7dad7963d0" x="471.314677" y="181.173468" style="fill: #ff7f0e; stroke: #ff7f0e"/>
     <use xlink:href="#m7dad7963d0" x="477.099851" y="175.077203" style="fill: #ff7f0e; stroke: #ff7f0e"/>
     <use xlink:href="#m7dad7963d0" x="482.844159" y="176.760026" style="fill: #ff7f0e; stroke: #ff7f0e"/>
     <use xlink:href="#m7dad7963d0" x="488.588103" y="145.580168" style="fill: #ff7f0e; stroke: #ff7f0e"/>
     <use xlink:href="#m7dad7963d0" x="494.348641" y="184.18985" style="fill: #ff7f0e; stroke: #ff7f0e"/>
     <use xlink:href="#m7dad7963d0" x="500.114675" y="177.966579" style="fill: #ff7f0e; stroke: #ff7f0e"/>
     <use xlink:href="#m7dad7963d0" x="505.972379" y="186.317192" style="fill: #ff7f0e; stroke: #ff7f0e"/>
     <use xlink:href="#m7dad7963d0" x="511.781756" y="167.996644" style="fill: #ff7f0e; stroke: #ff7f0e"/>
     <use xlink:href="#m7dad7963d0" x="517.543682" y="174.854943" style="fill: #ff7f0e; stroke: #ff7f0e"/>
     <use xlink:href="#m7dad7963d0" x="523.308423" y="164.472241" style="fill: #ff7f0e; stroke: #ff7f0e"/>
     <use xlink:href="#m7dad7963d0" x="529.03316" y="173.521385" style="fill: #ff7f0e; stroke: #ff7f0e"/>
     <use xlink:href="#m7dad7963d0" x="534.859414" y="175.362965" style="fill: #ff7f0e; stroke: #ff7f0e"/>
     <use xlink:href="#m7dad7963d0" x="540.622309" y="184.18985" style="fill: #ff7f0e; stroke: #ff7f0e"/>
     <use xlink:href="#m7dad7963d0" x="546.431619" y="167.996644" style="fill: #ff7f0e; stroke: #ff7f0e"/>
     <use xlink:href="#m7dad7963d0" x="552.246169" y="174.696186" style="fill: #ff7f0e; stroke: #ff7f0e"/>
     <use xlink:href="#m7dad7963d0" x="558.076531" y="169.203197" style="fill: #ff7f0e; stroke: #ff7f0e"/>
     <use xlink:href="#m7dad7963d0" x="563.842282" y="187.301485" style="fill: #ff7f0e; stroke: #ff7f0e"/>
     <use xlink:href="#m7dad7963d0" x="569.649517" y="158.756992" style="fill: #ff7f0e; stroke: #ff7f0e"/>
     <use xlink:href="#m7dad7963d0" x="575.46699" y="171.870313" style="fill: #ff7f0e; stroke: #ff7f0e"/>
     <use xlink:href="#m7dad7963d0" x="581.232121" y="159.296766" style="fill: #ff7f0e; stroke: #ff7f0e"/>
     <use xlink:href="#m7dad7963d0" x="587.03677" y="180.189175" style="fill: #ff7f0e; stroke: #ff7f0e"/>
     <use xlink:href="#m7dad7963d0" x="592.783826" y="167.488622" style="fill: #ff7f0e; stroke: #ff7f0e"/>
     <use xlink:href="#m7dad7963d0" x="598.590887" y="192.730972" style="fill: #ff7f0e; stroke: #ff7f0e"/>
     <use xlink:href="#m7dad7963d0" x="604.425424" y="224.514106" style="fill: #ff7f0e; stroke: #ff7f0e"/>
     <use xlink:href="#m7dad7963d0" x="610.174662" y="183.74533" style="fill: #ff7f0e; stroke: #ff7f0e"/>
     <use xlink:href="#m7dad7963d0" x="615.919414" y="167.774385" style="fill: #ff7f0e; stroke: #ff7f0e"/>
     <use xlink:href="#m7dad7963d0" x="621.688074" y="177.966579" style="fill: #ff7f0e; stroke: #ff7f0e"/>
     <use xlink:href="#m7dad7963d0" x="627.471672" y="169.774722" style="fill: #ff7f0e; stroke: #ff7f0e"/>
     <use xlink:href="#m7dad7963d0" x="633.296552" y="175.172457" style="fill: #ff7f0e; stroke: #ff7f0e"/>
     <use xlink:href="#m7dad7963d0" x="639.042315" y="170.600258" style="fill: #ff7f0e; stroke: #ff7f0e"/>
     <use xlink:href="#m7dad7963d0" x="644.782541" y="173.521385" style="fill: #ff7f0e; stroke: #ff7f0e"/>
     <use xlink:href="#m7dad7963d0" x="650.534553" y="180.220927" style="fill: #ff7f0e; stroke: #ff7f0e"/>
     <use xlink:href="#m7dad7963d0" x="656.380163" y="170.346247" style="fill: #ff7f0e; stroke: #ff7f0e"/>
     <use xlink:href="#m7dad7963d0" x="662.239174" y="198.731983" style="fill: #ff7f0e; stroke: #ff7f0e"/>
     <use xlink:href="#m7dad7963d0" x="668.061185" y="180.824203" style="fill: #ff7f0e; stroke: #ff7f0e"/>
     <use xlink:href="#m7dad7963d0" x="673.826465" y="166.567832" style="fill: #ff7f0e; stroke: #ff7f0e"/>
     <use xlink:href="#m7dad7963d0" x="679.614628" y="172.346584" style="fill: #ff7f0e; stroke: #ff7f0e"/>
     <use xlink:href="#m7dad7963d0" x="685.357737" y="173.521385" style="fill: #ff7f0e; stroke: #ff7f0e"/>
     <use xlink:href="#m7dad7963d0" x="691.204249" y="176.728275" style="fill: #ff7f0e; stroke: #ff7f0e"/>
     <use xlink:href="#m7dad7963d0" x="697.026557" y="175.172457" style="fill: #ff7f0e; stroke: #ff7f0e"/>
     <use xlink:href="#m7dad7963d0" x="702.852245" y="190.508375" style="fill: #ff7f0e; stroke: #ff7f0e"/>
     <use xlink:href="#m7dad7963d0" x="708.59988" y="164.535744" style="fill: #ff7f0e; stroke: #ff7f0e"/>
     <use xlink:href="#m7dad7963d0" x="714.342854" y="154.883323" style="fill: #ff7f0e; stroke: #ff7f0e"/>
     <use xlink:href="#m7dad7963d0" x="720.189783" y="185.80917" style="fill: #ff7f0e; stroke: #ff7f0e"/>
     <use xlink:href="#m7dad7963d0" x="725.96045" y="177.99833" style="fill: #ff7f0e; stroke: #ff7f0e"/>
     <use xlink:href="#m7dad7963d0" x="731.721756" y="171.743308" style="fill: #ff7f0e; stroke: #ff7f0e"/>
     <use xlink:href="#m7dad7963d0" x="737.522958" y="170.632009" style="fill: #ff7f0e; stroke: #ff7f0e"/>
     <use xlink:href="#m7dad7963d0" x="743.302084" y="188.190524" style="fill: #ff7f0e; stroke: #ff7f0e"/>
     <use xlink:href="#m7dad7963d0" x="749.070084" y="168.631672" style="fill: #ff7f0e; stroke: #ff7f0e"/>
     <use xlink:href="#m7dad7963d0" x="754.814028" y="161.138346" style="fill: #ff7f0e; stroke: #ff7f0e"/>
     <use xlink:href="#m7dad7963d0" x="760.576815" y="255.725715" style="fill: #ff7f0e; stroke: #ff7f0e"/>
     <use xlink:href="#m7dad7963d0" x="766.357315" y="507.799943" style="fill: #ff7f0e; stroke: #ff7f0e"/>
     <use xlink:href="#m7dad7963d0" x="772.185414" y="507.799943" style="fill: #ff7f0e; stroke: #ff7f0e"/>
     <use xlink:href="#m7dad7963d0" x="778.00224" y="507.799943" style="fill: #ff7f0e; stroke: #ff7f0e"/>
     <use xlink:href="#m7dad7963d0" x="783.81749" y="507.799943" style="fill: #ff7f0e; stroke: #ff7f0e"/>
     <use xlink:href="#m7dad7963d0" x="789.619513" y="507.799943" style="fill: #ff7f0e; stroke: #ff7f0e"/>
     <use xlink:href="#m7dad7963d0" x="795.443949" y="507.799943" style="fill: #ff7f0e; stroke: #ff7f0e"/>
     <use xlink:href="#m7dad7963d0" x="801.252464" y="507.799943" style="fill: #ff7f0e; stroke: #ff7f0e"/>
     <use xlink:href="#m7dad7963d0" x="807.076011" y="507.799943" style="fill: #ff7f0e; stroke: #ff7f0e"/>
     <use xlink:href="#m7dad7963d0" x="812.917216" y="507.799943" style="fill: #ff7f0e; stroke: #ff7f0e"/>
    </g>
   </g>
   <g id="patch_3">
    <path d="M 53.328125 530.918125 
L 53.328125 22.318125 
" style="fill: none; stroke: #000000; stroke-width: 0.8; stroke-linejoin: miter; stroke-linecap: square"/>
   </g>
   <g id="patch_4">
    <path d="M 849.088125 530.918125 
L 849.088125 22.318125 
" style="fill: none; stroke: #000000; stroke-width: 0.8; stroke-linejoin: miter; stroke-linecap: square"/>
   </g>
   <g id="patch_5">
    <path d="M 53.328125 530.918125 
L 849.088125 530.918125 
" style="fill: none; stroke: #000000; stroke-width: 0.8; stroke-linejoin: miter; stroke-linecap: square"/>
   </g>
   <g id="patch_6">
    <path d="M 53.328125 22.318125 
L 849.088125 22.318125 
" style="fill: none; stroke: #000000; stroke-width: 0.8; stroke-linejoin: miter; stroke-linecap: square"/>
   </g>
   <g id="text_18">
    <!-- CPU Usage Comparison Over Time -->
    <g transform="translate(347.65 16.318125) scale(0.12 -0.12)">
     <defs>
      <path id="DejaVuSans-72" d="M 2631 2963 
Q 2534 3019 2420 3045 
Q 2306 3072 2169 3072 
Q 1681 3072 1420 2755 
Q 1159 2438 1159 1844 
L 1159 0 
L 581 0 
L 581 3500 
L 1159 3500 
L 1159 2956 
Q 1341 3275 1631 3429 
Q 1922 3584 2338 3584 
Q 2397 3584 2469 3576 
Q 2541 3569 2628 3553 
L 2631 2963 
z
" transform="scale(0.015625)"/>
      <path id="DejaVuSans-4f" d="M 2522 4238 
Q 1834 4238 1429 3725 
Q 1025 3213 1025 2328 
Q 1025 1447 1429 934 
Q 1834 422 2522 422 
Q 3209 422 3611 934 
Q 4013 1447 4013 2328 
Q 4013 3213 3611 3725 
Q 3209 4238 2522 4238 
z
M 2522 4750 
Q 3503 4750 4090 4092 
Q 4678 3434 4678 2328 
Q 4678 1225 4090 567 
Q 3503 -91 2522 -91 
Q 1538 -91 948 565 
Q 359 1222 359 2328 
Q 359 3434 948 4092 
Q 1538 4750 2522 4750 
z
" transform="scale(0.015625)"/>
      <path id="DejaVuSans-76" d="M 191 3500 
L 800 3500 
L 1894 563 
L 2988 3500 
L 3597 3500 
L 2284 0 
L 1503 0 
L 191 3500 
z
" transform="scale(0.015625)"/>
     </defs>
     <use xlink:href="#DejaVuSans-43"/>
     <use xlink:href="#DejaVuSans-50" x="69.824219"/>
     <use xlink:href="#DejaVuSans-55" x="130.126953"/>
     <use xlink:href="#DejaVuSans-20" x="203.320312"/>
     <use xlink:href="#DejaVuSans-55" x="235.107422"/>
     <use xlink:href="#DejaVuSans-73" x="308.300781"/>
     <use xlink:href="#DejaVuSans-61" x="360.400391"/>
     <use xlink:href="#DejaVuSans-67" x="421.679688"/>
     <use xlink:href="#DejaVuSans-65" x="485.15625"/>
     <use xlink:href="#DejaVuSans-20" x="546.679688"/>
     <use xlink:href="#DejaVuSans-43" x="578.466797"/>
     <use xlink:href="#DejaVuSans-6f" x="648.291016"/>
     <use xlink:href="#DejaVuSans-6d" x="709.472656"/>
     <use xlink:href="#DejaVuSans-70" x="806.884766"/>
     <use xlink:href="#DejaVuSans-61" x="870.361328"/>
     <use xlink:href="#DejaVuSans-72" x="931.640625"/>
     <use xlink:href="#DejaVuSans-69" x="972.753906"/>
     <use xlink:href="#DejaVuSans-73" x="1000.537109"/>
     <use xlink:href="#DejaVuSans-6f" x="1052.636719"/>
     <use xlink:href="#DejaVuSans-6e" x="1113.818359"/>
     <use xlink:href="#DejaVuSans-20" x="1177.197266"/>
     <use xlink:href="#DejaVuSans-4f" x="1208.984375"/>
     <use xlink:href="#DejaVuSans-76" x="1287.695312"/>
     <use xlink:href="#DejaVuSans-65" x="1346.875"/>
     <use xlink:href="#DejaVuSans-72" x="1408.398438"/>
     <use xlink:href="#DejaVuSans-20" x="1449.511719"/>
     <use xlink:href="#DejaVuSans-54" x="1481.298828"/>
     <use xlink:href="#DejaVuSans-69" x="1539.257812"/>
     <use xlink:href="#DejaVuSans-6d" x="1567.041016"/>
     <use xlink:href="#DejaVuSans-65" x="1664.453125"/>
    </g>
   </g>
   <g id="legend_1">
    <g id="patch_7">
     <path d="M 773.445938 74.3525 
L 842.088125 74.3525 
Q 844.088125 74.3525 844.088125 72.3525 
L 844.088125 29.318125 
Q 844.088125 27.318125 842.088125 27.318125 
L 773.445938 27.318125 
Q 771.445938 27.318125 771.445938 29.318125 
L 771.445938 72.3525 
Q 771.445938 74.3525 773.445938 74.3525 
z
" style="fill: #ffffff; opacity: 0.8; stroke: #cccccc; stroke-linejoin: miter"/>
    </g>
    <g id="line2d_34">
     <path d="M 775.445938 35.416562 
L 785.445938 35.416562 
L 795.445938 35.416562 
" style="fill: none; stroke: #2ca02c; stroke-width: 2; stroke-linecap: square"/>
     <g>
      <use xlink:href="#m15e5d21640" x="785.445938" y="35.416562" style="fill: #2ca02c; stroke: #2ca02c"/>
     </g>
    </g>
    <g id="text_19">
     <!-- weaver -->
     <g transform="translate(803.445938 38.916562) scale(0.1 -0.1)">
      <defs>
       <path id="DejaVuSans-77" d="M 269 3500 
L 844 3500 
L 1563 769 
L 2278 3500 
L 2956 3500 
L 3675 769 
L 4391 3500 
L 4966 3500 
L 4050 0 
L 3372 0 
L 2619 2869 
L 1863 0 
L 1184 0 
L 269 3500 
z
" transform="scale(0.015625)"/>
      </defs>
      <use xlink:href="#DejaVuSans-77"/>
      <use xlink:href="#DejaVuSans-65" x="81.787109"/>
      <use xlink:href="#DejaVuSans-61" x="143.310547"/>
      <use xlink:href="#DejaVuSans-76" x="204.589844"/>
      <use xlink:href="#DejaVuSans-65" x="263.769531"/>
      <use xlink:href="#DejaVuSans-72" x="325.292969"/>
     </g>
    </g>
    <g id="line2d_35">
     <path d="M 775.445938 50.094687 
L 785.445938 50.094687 
L 795.445938 50.094687 
" style="fill: none; stroke: #1f77b4; stroke-width: 2; stroke-linecap: square"/>
     <g>
      <use xlink:href="#m3aac542b8f" x="785.445938" y="50.094687" style="fill: #1f77b4; stroke: #1f77b4"/>
     </g>
    </g>
    <g id="text_20">
     <!-- node -->
     <g transform="translate(803.445938 53.594687) scale(0.1 -0.1)">
      <use xlink:href="#DejaVuSans-6e"/>
      <use xlink:href="#DejaVuSans-6f" x="63.378906"/>
      <use xlink:href="#DejaVuSans-64" x="124.560547"/>
      <use xlink:href="#DejaVuSans-65" x="188.037109"/>
     </g>
    </g>
    <g id="line2d_36">
     <path d="M 775.445938 64.772812 
L 785.445938 64.772812 
L 795.445938 64.772812 
" style="fill: none; stroke: #ff7f0e; stroke-width: 2; stroke-linecap: square"/>
     <g>
      <use xlink:href="#m7dad7963d0" x="785.445938" y="64.772812" style="fill: #ff7f0e; stroke: #ff7f0e"/>
     </g>
    </g>
    <g id="text_21">
     <!-- python -->
     <g transform="translate(803.445938 68.272812) scale(0.1 -0.1)">
      <defs>
       <path id="DejaVuSans-79" d="M 2059 -325 
Q 1816 -950 1584 -1140 
Q 1353 -1331 966 -1331 
L 506 -1331 
L 506 -850 
L 844 -850 
Q 1081 -850 1212 -737 
Q 1344 -625 1503 -206 
L 1606 56 
L 191 3500 
L 800 3500 
L 1894 763 
L 2988 3500 
L 3597 3500 
L 2059 -325 
z
" transform="scale(0.015625)"/>
       <path id="DejaVuSans-74" d="M 1172 4494 
L 1172 3500 
L 2356 3500 
L 2356 3053 
L 1172 3053 
L 1172 1153 
Q 1172 725 1289 603 
Q 1406 481 1766 481 
L 2356 481 
L 2356 0 
L 1766 0 
Q 1100 0 847 248 
Q 594 497 594 1153 
L 594 3053 
L 172 3053 
L 172 3500 
L 594 3500 
L 594 4494 
L 1172 4494 
z
" transform="scale(0.015625)"/>
       <path id="DejaVuSans-68" d="M 3513 2113 
L 3513 0 
L 2938 0 
L 2938 2094 
Q 2938 2591 2744 2837 
Q 2550 3084 2163 3084 
Q 1697 3084 1428 2787 
Q 1159 2491 1159 1978 
L 1159 0 
L 581 0 
L 581 4863 
L 1159 4863 
L 1159 2956 
Q 1366 3272 1645 3428 
Q 1925 3584 2291 3584 
Q 2894 3584 3203 3211 
Q 3513 2838 3513 2113 
z
" transform="scale(0.015625)"/>
      </defs>
      <use xlink:href="#DejaVuSans-70"/>
      <use xlink:href="#DejaVuSans-79" x="63.476562"/>
      <use xlink:href="#DejaVuSans-74" x="122.65625"/>
      <use xlink:href="#DejaVuSans-68" x="161.865234"/>
      <use xlink:href="#DejaVuSans-6f" x="225.244141"/>
      <use xlink:href="#DejaVuSans-6e" x="286.425781"/>
     </g>
    </g>
   </g>
  </g>
 </g>
 <defs>
  <clipPath id="p9516fea97a">
   <rect x="53.328125" y="22.318125" width="795.76" height="508.6"/>
  </clipPath>
 </defs>
</svg>
