<?xml version="1.0" encoding="utf-8" standalone="no"?>
<!DOCTYPE svg PUBLIC "-//W3C//DTD SVG 1.1//EN"
  "http://www.w3.org/Graphics/SVG/1.1/DTD/svg11.dtd">
<svg xmlns:xlink="http://www.w3.org/1999/xlink" width="856.370625pt" height="568.474375pt" viewBox="0 0 856.370625 568.474375" xmlns="http://www.w3.org/2000/svg" version="1.1">
 <metadata>
  <rdf:RDF xmlns:dc="http://purl.org/dc/elements/1.1/" xmlns:cc="http://creativecommons.org/ns#" xmlns:rdf="http://www.w3.org/1999/02/22-rdf-syntax-ns#">
   <cc:Work>
    <dc:type rdf:resource="http://purl.org/dc/dcmitype/StillImage"/>
    <dc:date>2025-06-28T07:46:44.308911</dc:date>
    <dc:format>image/svg+xml</dc:format>
    <dc:creator>
     <cc:Agent>
      <dc:title>Matplotlib v3.6.3, https://matplotlib.org/</dc:title>
     </cc:Agent>
    </dc:creator>
   </cc:Work>
  </rdf:RDF>
 </metadata>
 <defs>
  <style type="text/css">*{stroke-linejoin: round; stroke-linecap: butt}</style>
 </defs>
 <g id="figure_1">
  <g id="patch_1">
   <path d="M 0 568.474375 
L 856.370625 568.474375 
L 856.370625 0 
L 0 0 
z
" style="fill: #ffffff"/>
  </g>
  <g id="axes_1">
   <g id="patch_2">
    <path d="M 34.240625 530.918125 
L 849.170625 530.918125 
L 849.170625 22.318125 
L 34.240625 22.318125 
z
" style="fill: #ffffff"/>
   </g>
   <g id="matplotlib.axis_1">
    <g id="xtick_1">
     <g id="line2d_1">
      <path d="M 56.163603 530.918125 
L 56.163603 22.318125 
" clip-path="url(#p35e51435b8)" style="fill: none; stroke: #b0b0b0; stroke-opacity: 0.3; stroke-width: 0.8; stroke-linecap: square"/>
     </g>
     <g id="line2d_2">
      <defs>
       <path id="m3434058ee5" d="M 0 0 
L 0 3.5 
" style="stroke: #000000; stroke-width: 0.8"/>
      </defs>
      <g>
       <use xlink:href="#m3434058ee5" x="56.163603" y="530.918125" style="stroke: #000000; stroke-width: 0.8"/>
      </g>
     </g>
     <g id="text_1">
      <!-- 0 -->
      <g transform="translate(52.982353 545.516562) scale(0.1 -0.1)">
       <defs>
        <path id="DejaVuSans-30" d="M 2034 4250 
Q 1547 4250 1301 3770 
Q 1056 3291 1056 2328 
Q 1056 1369 1301 889 
Q 1547 409 2034 409 
Q 2525 409 2770 889 
Q 3016 1369 3016 2328 
Q 3016 3291 2770 3770 
Q 2525 4250 2034 4250 
z
M 2034 4750 
Q 2819 4750 3233 4129 
Q 3647 3509 3647 2328 
Q 3647 1150 3233 529 
Q 2819 -91 2034 -91 
Q 1250 -91 836 529 
Q 422 1150 422 2328 
Q 422 3509 836 4129 
Q 1250 4750 2034 4750 
z
" transform="scale(0.015625)"/>
       </defs>
       <use xlink:href="#DejaVuSans-30"/>
      </g>
     </g>
    </g>
    <g id="xtick_2">
     <g id="line2d_3">
      <path d="M 207.356553 530.918125 
L 207.356553 22.318125 
" clip-path="url(#p35e51435b8)" style="fill: none; stroke: #b0b0b0; stroke-opacity: 0.3; stroke-width: 0.8; stroke-linecap: square"/>
     </g>
     <g id="line2d_4">
      <g>
       <use xlink:href="#m3434058ee5" x="207.356553" y="530.918125" style="stroke: #000000; stroke-width: 0.8"/>
      </g>
     </g>
     <g id="text_2">
      <!-- 2 -->
      <g transform="translate(204.175303 545.516562) scale(0.1 -0.1)">
       <defs>
        <path id="DejaVuSans-32" d="M 1228 531 
L 3431 531 
L 3431 0 
L 469 0 
L 469 531 
Q 828 903 1448 1529 
Q 2069 2156 2228 2338 
Q 2531 2678 2651 2914 
Q 2772 3150 2772 3378 
Q 2772 3750 2511 3984 
Q 2250 4219 1831 4219 
Q 1534 4219 1204 4116 
Q 875 4013 500 3803 
L 500 4441 
Q 881 4594 1212 4672 
Q 1544 4750 1819 4750 
Q 2544 4750 2975 4387 
Q 3406 4025 3406 3419 
Q 3406 3131 3298 2873 
Q 3191 2616 2906 2266 
Q 2828 2175 2409 1742 
Q 1991 1309 1228 531 
z
" transform="scale(0.015625)"/>
       </defs>
       <use xlink:href="#DejaVuSans-32"/>
      </g>
     </g>
    </g>
    <g id="xtick_3">
     <g id="line2d_5">
      <path d="M 358.549503 530.918125 
L 358.549503 22.318125 
" clip-path="url(#p35e51435b8)" style="fill: none; stroke: #b0b0b0; stroke-opacity: 0.3; stroke-width: 0.8; stroke-linecap: square"/>
     </g>
     <g id="line2d_6">
      <g>
       <use xlink:href="#m3434058ee5" x="358.549503" y="530.918125" style="stroke: #000000; stroke-width: 0.8"/>
      </g>
     </g>
     <g id="text_3">
      <!-- 4 -->
      <g transform="translate(355.368253 545.516562) scale(0.1 -0.1)">
       <defs>
        <path id="DejaVuSans-34" d="M 2419 4116 
L 825 1625 
L 2419 1625 
L 2419 4116 
z
M 2253 4666 
L 3047 4666 
L 3047 1625 
L 3713 1625 
L 3713 1100 
L 3047 1100 
L 3047 0 
L 2419 0 
L 2419 1100 
L 313 1100 
L 313 1709 
L 2253 4666 
z
" transform="scale(0.015625)"/>
       </defs>
       <use xlink:href="#DejaVuSans-34"/>
      </g>
     </g>
    </g>
    <g id="xtick_4">
     <g id="line2d_7">
      <path d="M 509.742452 530.918125 
L 509.742452 22.318125 
" clip-path="url(#p35e51435b8)" style="fill: none; stroke: #b0b0b0; stroke-opacity: 0.3; stroke-width: 0.8; stroke-linecap: square"/>
     </g>
     <g id="line2d_8">
      <g>
       <use xlink:href="#m3434058ee5" x="509.742452" y="530.918125" style="stroke: #000000; stroke-width: 0.8"/>
      </g>
     </g>
     <g id="text_4">
      <!-- 6 -->
      <g transform="translate(506.561202 545.516562) scale(0.1 -0.1)">
       <defs>
        <path id="DejaVuSans-36" d="M 2113 2584 
Q 1688 2584 1439 2293 
Q 1191 2003 1191 1497 
Q 1191 994 1439 701 
Q 1688 409 2113 409 
Q 2538 409 2786 701 
Q 3034 994 3034 1497 
Q 3034 2003 2786 2293 
Q 2538 2584 2113 2584 
z
M 3366 4563 
L 3366 3988 
Q 3128 4100 2886 4159 
Q 2644 4219 2406 4219 
Q 1781 4219 1451 3797 
Q 1122 3375 1075 2522 
Q 1259 2794 1537 2939 
Q 1816 3084 2150 3084 
Q 2853 3084 3261 2657 
Q 3669 2231 3669 1497 
Q 3669 778 3244 343 
Q 2819 -91 2113 -91 
Q 1303 -91 875 529 
Q 447 1150 447 2328 
Q 447 3434 972 4092 
Q 1497 4750 2381 4750 
Q 2619 4750 2861 4703 
Q 3103 4656 3366 4563 
z
" transform="scale(0.015625)"/>
       </defs>
       <use xlink:href="#DejaVuSans-36"/>
      </g>
     </g>
    </g>
    <g id="xtick_5">
     <g id="line2d_9">
      <path d="M 660.935402 530.918125 
L 660.935402 22.318125 
" clip-path="url(#p35e51435b8)" style="fill: none; stroke: #b0b0b0; stroke-opacity: 0.3; stroke-width: 0.8; stroke-linecap: square"/>
     </g>
     <g id="line2d_10">
      <g>
       <use xlink:href="#m3434058ee5" x="660.935402" y="530.918125" style="stroke: #000000; stroke-width: 0.8"/>
      </g>
     </g>
     <g id="text_5">
      <!-- 8 -->
      <g transform="translate(657.754152 545.516562) scale(0.1 -0.1)">
       <defs>
        <path id="DejaVuSans-38" d="M 2034 2216 
Q 1584 2216 1326 1975 
Q 1069 1734 1069 1313 
Q 1069 891 1326 650 
Q 1584 409 2034 409 
Q 2484 409 2743 651 
Q 3003 894 3003 1313 
Q 3003 1734 2745 1975 
Q 2488 2216 2034 2216 
z
M 1403 2484 
Q 997 2584 770 2862 
Q 544 3141 544 3541 
Q 544 4100 942 4425 
Q 1341 4750 2034 4750 
Q 2731 4750 3128 4425 
Q 3525 4100 3525 3541 
Q 3525 3141 3298 2862 
Q 3072 2584 2669 2484 
Q 3125 2378 3379 2068 
Q 3634 1759 3634 1313 
Q 3634 634 3220 271 
Q 2806 -91 2034 -91 
Q 1263 -91 848 271 
Q 434 634 434 1313 
Q 434 1759 690 2068 
Q 947 2378 1403 2484 
z
M 1172 3481 
Q 1172 3119 1398 2916 
Q 1625 2713 2034 2713 
Q 2441 2713 2670 2916 
Q 2900 3119 2900 3481 
Q 2900 3844 2670 4047 
Q 2441 4250 2034 4250 
Q 1625 4250 1398 4047 
Q 1172 3844 1172 3481 
z
" transform="scale(0.015625)"/>
       </defs>
       <use xlink:href="#DejaVuSans-38"/>
      </g>
     </g>
    </g>
    <g id="xtick_6">
     <g id="line2d_11">
      <path d="M 812.128352 530.918125 
L 812.128352 22.318125 
" clip-path="url(#p35e51435b8)" style="fill: none; stroke: #b0b0b0; stroke-opacity: 0.3; stroke-width: 0.8; stroke-linecap: square"/>
     </g>
     <g id="line2d_12">
      <g>
       <use xlink:href="#m3434058ee5" x="812.128352" y="530.918125" style="stroke: #000000; stroke-width: 0.8"/>
      </g>
     </g>
     <g id="text_6">
      <!-- 10 -->
      <g transform="translate(805.765852 545.516562) scale(0.1 -0.1)">
       <defs>
        <path id="DejaVuSans-31" d="M 794 531 
L 1825 531 
L 1825 4091 
L 703 3866 
L 703 4441 
L 1819 4666 
L 2450 4666 
L 2450 531 
L 3481 531 
L 3481 0 
L 794 0 
L 794 531 
z
" transform="scale(0.015625)"/>
       </defs>
       <use xlink:href="#DejaVuSans-31"/>
       <use xlink:href="#DejaVuSans-30" x="63.623047"/>
      </g>
     </g>
    </g>
    <g id="text_7">
     <!-- Elapsed Time (seconds) -->
     <g transform="translate(382.312656 559.194687) scale(0.1 -0.1)">
      <defs>
       <path id="DejaVuSans-45" d="M 628 4666 
L 3578 4666 
L 3578 4134 
L 1259 4134 
L 1259 2753 
L 3481 2753 
L 3481 2222 
L 1259 2222 
L 1259 531 
L 3634 531 
L 3634 0 
L 628 0 
L 628 4666 
z
" transform="scale(0.015625)"/>
       <path id="DejaVuSans-6c" d="M 603 4863 
L 1178 4863 
L 1178 0 
L 603 0 
L 603 4863 
z
" transform="scale(0.015625)"/>
       <path id="DejaVuSans-61" d="M 2194 1759 
Q 1497 1759 1228 1600 
Q 959 1441 959 1056 
Q 959 750 1161 570 
Q 1363 391 1709 391 
Q 2188 391 2477 730 
Q 2766 1069 2766 1631 
L 2766 1759 
L 2194 1759 
z
M 3341 1997 
L 3341 0 
L 2766 0 
L 2766 531 
Q 2569 213 2275 61 
Q 1981 -91 1556 -91 
Q 1019 -91 701 211 
Q 384 513 384 1019 
Q 384 1609 779 1909 
Q 1175 2209 1959 2209 
L 2766 2209 
L 2766 2266 
Q 2766 2663 2505 2880 
Q 2244 3097 1772 3097 
Q 1472 3097 1187 3025 
Q 903 2953 641 2809 
L 641 3341 
Q 956 3463 1253 3523 
Q 1550 3584 1831 3584 
Q 2591 3584 2966 3190 
Q 3341 2797 3341 1997 
z
" transform="scale(0.015625)"/>
       <path id="DejaVuSans-70" d="M 1159 525 
L 1159 -1331 
L 581 -1331 
L 581 3500 
L 1159 3500 
L 1159 2969 
Q 1341 3281 1617 3432 
Q 1894 3584 2278 3584 
Q 2916 3584 3314 3078 
Q 3713 2572 3713 1747 
Q 3713 922 3314 415 
Q 2916 -91 2278 -91 
Q 1894 -91 1617 61 
Q 1341 213 1159 525 
z
M 3116 1747 
Q 3116 2381 2855 2742 
Q 2594 3103 2138 3103 
Q 1681 3103 1420 2742 
Q 1159 2381 1159 1747 
Q 1159 1113 1420 752 
Q 1681 391 2138 391 
Q 2594 391 2855 752 
Q 3116 1113 3116 1747 
z
" transform="scale(0.015625)"/>
       <path id="DejaVuSans-73" d="M 2834 3397 
L 2834 2853 
Q 2591 2978 2328 3040 
Q 2066 3103 1784 3103 
Q 1356 3103 1142 2972 
Q 928 2841 928 2578 
Q 928 2378 1081 2264 
Q 1234 2150 1697 2047 
L 1894 2003 
Q 2506 1872 2764 1633 
Q 3022 1394 3022 966 
Q 3022 478 2636 193 
Q 2250 -91 1575 -91 
Q 1294 -91 989 -36 
Q 684 19 347 128 
L 347 722 
Q 666 556 975 473 
Q 1284 391 1588 391 
Q 1994 391 2212 530 
Q 2431 669 2431 922 
Q 2431 1156 2273 1281 
Q 2116 1406 1581 1522 
L 1381 1569 
Q 847 1681 609 1914 
Q 372 2147 372 2553 
Q 372 3047 722 3315 
Q 1072 3584 1716 3584 
Q 2034 3584 2315 3537 
Q 2597 3491 2834 3397 
z
" transform="scale(0.015625)"/>
       <path id="DejaVuSans-65" d="M 3597 1894 
L 3597 1613 
L 953 1613 
Q 991 1019 1311 708 
Q 1631 397 2203 397 
Q 2534 397 2845 478 
Q 3156 559 3463 722 
L 3463 178 
Q 3153 47 2828 -22 
Q 2503 -91 2169 -91 
Q 1331 -91 842 396 
Q 353 884 353 1716 
Q 353 2575 817 3079 
Q 1281 3584 2069 3584 
Q 2775 3584 3186 3129 
Q 3597 2675 3597 1894 
z
M 3022 2063 
Q 3016 2534 2758 2815 
Q 2500 3097 2075 3097 
Q 1594 3097 1305 2825 
Q 1016 2553 972 2059 
L 3022 2063 
z
" transform="scale(0.015625)"/>
       <path id="DejaVuSans-64" d="M 2906 2969 
L 2906 4863 
L 3481 4863 
L 3481 0 
L 2906 0 
L 2906 525 
Q 2725 213 2448 61 
Q 2172 -91 1784 -91 
Q 1150 -91 751 415 
Q 353 922 353 1747 
Q 353 2572 751 3078 
Q 1150 3584 1784 3584 
Q 2172 3584 2448 3432 
Q 2725 3281 2906 2969 
z
M 947 1747 
Q 947 1113 1208 752 
Q 1469 391 1925 391 
Q 2381 391 2643 752 
Q 2906 1113 2906 1747 
Q 2906 2381 2643 2742 
Q 2381 3103 1925 3103 
Q 1469 3103 1208 2742 
Q 947 2381 947 1747 
z
" transform="scale(0.015625)"/>
       <path id="DejaVuSans-20" transform="scale(0.015625)"/>
       <path id="DejaVuSans-54" d="M -19 4666 
L 3928 4666 
L 3928 4134 
L 2272 4134 
L 2272 0 
L 1638 0 
L 1638 4134 
L -19 4134 
L -19 4666 
z
" transform="scale(0.015625)"/>
       <path id="DejaVuSans-69" d="M 603 3500 
L 1178 3500 
L 1178 0 
L 603 0 
L 603 3500 
z
M 603 4863 
L 1178 4863 
L 1178 4134 
L 603 4134 
L 603 4863 
z
" transform="scale(0.015625)"/>
       <path id="DejaVuSans-6d" d="M 3328 2828 
Q 3544 3216 3844 3400 
Q 4144 3584 4550 3584 
Q 5097 3584 5394 3201 
Q 5691 2819 5691 2113 
L 5691 0 
L 5113 0 
L 5113 2094 
Q 5113 2597 4934 2840 
Q 4756 3084 4391 3084 
Q 3944 3084 3684 2787 
Q 3425 2491 3425 1978 
L 3425 0 
L 2847 0 
L 2847 2094 
Q 2847 2600 2669 2842 
Q 2491 3084 2119 3084 
Q 1678 3084 1418 2786 
Q 1159 2488 1159 1978 
L 1159 0 
L 581 0 
L 581 3500 
L 1159 3500 
L 1159 2956 
Q 1356 3278 1631 3431 
Q 1906 3584 2284 3584 
Q 2666 3584 2933 3390 
Q 3200 3197 3328 2828 
z
" transform="scale(0.015625)"/>
       <path id="DejaVuSans-28" d="M 1984 4856 
Q 1566 4138 1362 3434 
Q 1159 2731 1159 2009 
Q 1159 1288 1364 580 
Q 1569 -128 1984 -844 
L 1484 -844 
Q 1016 -109 783 600 
Q 550 1309 550 2009 
Q 550 2706 781 3412 
Q 1013 4119 1484 4856 
L 1984 4856 
z
" transform="scale(0.015625)"/>
       <path id="DejaVuSans-63" d="M 3122 3366 
L 3122 2828 
Q 2878 2963 2633 3030 
Q 2388 3097 2138 3097 
Q 1578 3097 1268 2742 
Q 959 2388 959 1747 
Q 959 1106 1268 751 
Q 1578 397 2138 397 
Q 2388 397 2633 464 
Q 2878 531 3122 666 
L 3122 134 
Q 2881 22 2623 -34 
Q 2366 -91 2075 -91 
Q 1284 -91 818 406 
Q 353 903 353 1747 
Q 353 2603 823 3093 
Q 1294 3584 2113 3584 
Q 2378 3584 2631 3529 
Q 2884 3475 3122 3366 
z
" transform="scale(0.015625)"/>
       <path id="DejaVuSans-6f" d="M 1959 3097 
Q 1497 3097 1228 2736 
Q 959 2375 959 1747 
Q 959 1119 1226 758 
Q 1494 397 1959 397 
Q 2419 397 2687 759 
Q 2956 1122 2956 1747 
Q 2956 2369 2687 2733 
Q 2419 3097 1959 3097 
z
M 1959 3584 
Q 2709 3584 3137 3096 
Q 3566 2609 3566 1747 
Q 3566 888 3137 398 
Q 2709 -91 1959 -91 
Q 1206 -91 779 398 
Q 353 888 353 1747 
Q 353 2609 779 3096 
Q 1206 3584 1959 3584 
z
" transform="scale(0.015625)"/>
       <path id="DejaVuSans-6e" d="M 3513 2113 
L 3513 0 
L 2938 0 
L 2938 2094 
Q 2938 2591 2744 2837 
Q 2550 3084 2163 3084 
Q 1697 3084 1428 2787 
Q 1159 2491 1159 1978 
L 1159 0 
L 581 0 
L 581 3500 
L 1159 3500 
L 1159 2956 
Q 1366 3272 1645 3428 
Q 1925 3584 2291 3584 
Q 2894 3584 3203 3211 
Q 3513 2838 3513 2113 
z
" transform="scale(0.015625)"/>
       <path id="DejaVuSans-29" d="M 513 4856 
L 1013 4856 
Q 1481 4119 1714 3412 
Q 1947 2706 1947 2009 
Q 1947 1309 1714 600 
Q 1481 -109 1013 -844 
L 513 -844 
Q 928 -128 1133 580 
Q 1338 1288 1338 2009 
Q 1338 2731 1133 3434 
Q 928 4138 513 4856 
z
" transform="scale(0.015625)"/>
      </defs>
      <use xlink:href="#DejaVuSans-45"/>
      <use xlink:href="#DejaVuSans-6c" x="63.183594"/>
      <use xlink:href="#DejaVuSans-61" x="90.966797"/>
      <use xlink:href="#DejaVuSans-70" x="152.246094"/>
      <use xlink:href="#DejaVuSans-73" x="215.722656"/>
      <use xlink:href="#DejaVuSans-65" x="267.822266"/>
      <use xlink:href="#DejaVuSans-64" x="329.345703"/>
      <use xlink:href="#DejaVuSans-20" x="392.822266"/>
      <use xlink:href="#DejaVuSans-54" x="424.609375"/>
      <use xlink:href="#DejaVuSans-69" x="482.568359"/>
      <use xlink:href="#DejaVuSans-6d" x="510.351562"/>
      <use xlink:href="#DejaVuSans-65" x="607.763672"/>
      <use xlink:href="#DejaVuSans-20" x="669.287109"/>
      <use xlink:href="#DejaVuSans-28" x="701.074219"/>
      <use xlink:href="#DejaVuSans-73" x="740.087891"/>
      <use xlink:href="#DejaVuSans-65" x="792.1875"/>
      <use xlink:href="#DejaVuSans-63" x="853.710938"/>
      <use xlink:href="#DejaVuSans-6f" x="908.691406"/>
      <use xlink:href="#DejaVuSans-6e" x="969.873047"/>
      <use xlink:href="#DejaVuSans-64" x="1033.251953"/>
      <use xlink:href="#DejaVuSans-73" x="1096.728516"/>
      <use xlink:href="#DejaVuSans-29" x="1148.828125"/>
     </g>
    </g>
   </g>
   <g id="matplotlib.axis_2">
    <g id="ytick_1">
     <g id="line2d_13">
      <path d="M 34.240625 495.049107 
L 849.170625 495.049107 
" clip-path="url(#p35e51435b8)" style="fill: none; stroke: #b0b0b0; stroke-opacity: 0.3; stroke-width: 0.8; stroke-linecap: square"/>
     </g>
     <g id="line2d_14">
      <defs>
       <path id="m5c9680299a" d="M 0 0 
L -3.5 0 
" style="stroke: #000000; stroke-width: 0.8"/>
      </defs>
      <g>
       <use xlink:href="#m5c9680299a" x="34.240625" y="495.049107" style="stroke: #000000; stroke-width: 0.8"/>
      </g>
     </g>
     <g id="text_8">
      <!-- 1 -->
      <g transform="translate(20.878125 498.848326) scale(0.1 -0.1)">
       <use xlink:href="#DejaVuSans-31"/>
      </g>
     </g>
    </g>
    <g id="ytick_2">
     <g id="line2d_15">
      <path d="M 34.240625 411.710312 
L 849.170625 411.710312 
" clip-path="url(#p35e51435b8)" style="fill: none; stroke: #b0b0b0; stroke-opacity: 0.3; stroke-width: 0.8; stroke-linecap: square"/>
     </g>
     <g id="line2d_16">
      <g>
       <use xlink:href="#m5c9680299a" x="34.240625" y="411.710312" style="stroke: #000000; stroke-width: 0.8"/>
      </g>
     </g>
     <g id="text_9">
      <!-- 2 -->
      <g transform="translate(20.878125 415.509531) scale(0.1 -0.1)">
       <use xlink:href="#DejaVuSans-32"/>
      </g>
     </g>
    </g>
    <g id="ytick_3">
     <g id="line2d_17">
      <path d="M 34.240625 328.371517 
L 849.170625 328.371517 
" clip-path="url(#p35e51435b8)" style="fill: none; stroke: #b0b0b0; stroke-opacity: 0.3; stroke-width: 0.8; stroke-linecap: square"/>
     </g>
     <g id="line2d_18">
      <g>
       <use xlink:href="#m5c9680299a" x="34.240625" y="328.371517" style="stroke: #000000; stroke-width: 0.8"/>
      </g>
     </g>
     <g id="text_10">
      <!-- 3 -->
      <g transform="translate(20.878125 332.170736) scale(0.1 -0.1)">
       <defs>
        <path id="DejaVuSans-33" d="M 2597 2516 
Q 3050 2419 3304 2112 
Q 3559 1806 3559 1356 
Q 3559 666 3084 287 
Q 2609 -91 1734 -91 
Q 1441 -91 1130 -33 
Q 819 25 488 141 
L 488 750 
Q 750 597 1062 519 
Q 1375 441 1716 441 
Q 2309 441 2620 675 
Q 2931 909 2931 1356 
Q 2931 1769 2642 2001 
Q 2353 2234 1838 2234 
L 1294 2234 
L 1294 2753 
L 1863 2753 
Q 2328 2753 2575 2939 
Q 2822 3125 2822 3475 
Q 2822 3834 2567 4026 
Q 2313 4219 1838 4219 
Q 1578 4219 1281 4162 
Q 984 4106 628 3988 
L 628 4550 
Q 988 4650 1302 4700 
Q 1616 4750 1894 4750 
Q 2613 4750 3031 4423 
Q 3450 4097 3450 3541 
Q 3450 3153 3228 2886 
Q 3006 2619 2597 2516 
z
" transform="scale(0.015625)"/>
       </defs>
       <use xlink:href="#DejaVuSans-33"/>
      </g>
     </g>
    </g>
    <g id="ytick_4">
     <g id="line2d_19">
      <path d="M 34.240625 245.032722 
L 849.170625 245.032722 
" clip-path="url(#p35e51435b8)" style="fill: none; stroke: #b0b0b0; stroke-opacity: 0.3; stroke-width: 0.8; stroke-linecap: square"/>
     </g>
     <g id="line2d_20">
      <g>
       <use xlink:href="#m5c9680299a" x="34.240625" y="245.032722" style="stroke: #000000; stroke-width: 0.8"/>
      </g>
     </g>
     <g id="text_11">
      <!-- 4 -->
      <g transform="translate(20.878125 248.83194) scale(0.1 -0.1)">
       <use xlink:href="#DejaVuSans-34"/>
      </g>
     </g>
    </g>
    <g id="ytick_5">
     <g id="line2d_21">
      <path d="M 34.240625 161.693926 
L 849.170625 161.693926 
" clip-path="url(#p35e51435b8)" style="fill: none; stroke: #b0b0b0; stroke-opacity: 0.3; stroke-width: 0.8; stroke-linecap: square"/>
     </g>
     <g id="line2d_22">
      <g>
       <use xlink:href="#m5c9680299a" x="34.240625" y="161.693926" style="stroke: #000000; stroke-width: 0.8"/>
      </g>
     </g>
     <g id="text_12">
      <!-- 5 -->
      <g transform="translate(20.878125 165.493145) scale(0.1 -0.1)">
       <defs>
        <path id="DejaVuSans-35" d="M 691 4666 
L 3169 4666 
L 3169 4134 
L 1269 4134 
L 1269 2991 
Q 1406 3038 1543 3061 
Q 1681 3084 1819 3084 
Q 2600 3084 3056 2656 
Q 3513 2228 3513 1497 
Q 3513 744 3044 326 
Q 2575 -91 1722 -91 
Q 1428 -91 1123 -41 
Q 819 9 494 109 
L 494 744 
Q 775 591 1075 516 
Q 1375 441 1709 441 
Q 2250 441 2565 725 
Q 2881 1009 2881 1497 
Q 2881 1984 2565 2268 
Q 2250 2553 1709 2553 
Q 1456 2553 1204 2497 
Q 953 2441 691 2322 
L 691 4666 
z
" transform="scale(0.015625)"/>
       </defs>
       <use xlink:href="#DejaVuSans-35"/>
      </g>
     </g>
    </g>
    <g id="ytick_6">
     <g id="line2d_23">
      <path d="M 34.240625 78.355131 
L 849.170625 78.355131 
" clip-path="url(#p35e51435b8)" style="fill: none; stroke: #b0b0b0; stroke-opacity: 0.3; stroke-width: 0.8; stroke-linecap: square"/>
     </g>
     <g id="line2d_24">
      <g>
       <use xlink:href="#m5c9680299a" x="34.240625" y="78.355131" style="stroke: #000000; stroke-width: 0.8"/>
      </g>
     </g>
     <g id="text_13">
      <!-- 6 -->
      <g transform="translate(20.878125 82.15435) scale(0.1 -0.1)">
       <use xlink:href="#DejaVuSans-36"/>
      </g>
     </g>
    </g>
    <g id="text_14">
     <!-- Mean Latency (ms) -->
     <g transform="translate(14.798438 324.560312) rotate(-90) scale(0.1 -0.1)">
      <defs>
       <path id="DejaVuSans-4d" d="M 628 4666 
L 1569 4666 
L 2759 1491 
L 3956 4666 
L 4897 4666 
L 4897 0 
L 4281 0 
L 4281 4097 
L 3078 897 
L 2444 897 
L 1241 4097 
L 1241 0 
L 628 0 
L 628 4666 
z
" transform="scale(0.015625)"/>
       <path id="DejaVuSans-4c" d="M 628 4666 
L 1259 4666 
L 1259 531 
L 3531 531 
L 3531 0 
L 628 0 
L 628 4666 
z
" transform="scale(0.015625)"/>
       <path id="DejaVuSans-74" d="M 1172 4494 
L 1172 3500 
L 2356 3500 
L 2356 3053 
L 1172 3053 
L 1172 1153 
Q 1172 725 1289 603 
Q 1406 481 1766 481 
L 2356 481 
L 2356 0 
L 1766 0 
Q 1100 0 847 248 
Q 594 497 594 1153 
L 594 3053 
L 172 3053 
L 172 3500 
L 594 3500 
L 594 4494 
L 1172 4494 
z
" transform="scale(0.015625)"/>
       <path id="DejaVuSans-79" d="M 2059 -325 
Q 1816 -950 1584 -1140 
Q 1353 -1331 966 -1331 
L 506 -1331 
L 506 -850 
L 844 -850 
Q 1081 -850 1212 -737 
Q 1344 -625 1503 -206 
L 1606 56 
L 191 3500 
L 800 3500 
L 1894 763 
L 2988 3500 
L 3597 3500 
L 2059 -325 
z
" transform="scale(0.015625)"/>
      </defs>
      <use xlink:href="#DejaVuSans-4d"/>
      <use xlink:href="#DejaVuSans-65" x="86.279297"/>
      <use xlink:href="#DejaVuSans-61" x="147.802734"/>
      <use xlink:href="#DejaVuSans-6e" x="209.082031"/>
      <use xlink:href="#DejaVuSans-20" x="272.460938"/>
      <use xlink:href="#DejaVuSans-4c" x="304.248047"/>
      <use xlink:href="#DejaVuSans-61" x="359.960938"/>
      <use xlink:href="#DejaVuSans-74" x="421.240234"/>
      <use xlink:href="#DejaVuSans-65" x="460.449219"/>
      <use xlink:href="#DejaVuSans-6e" x="521.972656"/>
      <use xlink:href="#DejaVuSans-63" x="585.351562"/>
      <use xlink:href="#DejaVuSans-79" x="640.332031"/>
      <use xlink:href="#DejaVuSans-20" x="699.511719"/>
      <use xlink:href="#DejaVuSans-28" x="731.298828"/>
      <use xlink:href="#DejaVuSans-6d" x="770.3125"/>
      <use xlink:href="#DejaVuSans-73" x="867.724609"/>
      <use xlink:href="#DejaVuSans-29" x="919.824219"/>
     </g>
    </g>
   </g>
   <g id="line2d_25">
    <path d="M 71.282898 496.049173 
L 86.402193 501.549534 
L 101.521488 502.799615 
L 116.640783 504.383053 
L 131.760078 504.799747 
L 146.879373 505.216441 
L 161.998668 505.549796 
L 177.117963 506.216506 
L 192.237258 506.383184 
L 207.356553 506.466522 
L 222.475848 506.799878 
L 237.595143 506.799878 
L 252.714438 507.049894 
L 267.833733 507.133233 
L 282.953028 506.883216 
L 298.072323 506.966555 
L 313.191618 507.049894 
L 328.310913 507.049894 
L 343.430208 507.133233 
L 358.549503 507.216572 
L 373.668798 507.29991 
L 388.788093 507.466588 
L 403.907388 507.466588 
L 419.026683 507.549927 
L 434.145978 507.549927 
L 449.265272 507.633266 
L 464.384567 507.716604 
L 479.503862 507.716604 
L 494.623157 507.716604 
L 509.742452 507.633266 
L 524.861747 507.716604 
L 539.981042 507.799943 
L 555.100337 507.716604 
L 570.219632 507.633266 
L 585.338927 507.633266 
L 600.458222 507.633266 
L 615.577517 507.633266 
L 630.696812 507.633266 
L 645.816107 507.633266 
L 660.935402 507.549927 
L 676.054697 507.549927 
L 691.173992 507.549927 
L 706.293287 507.466588 
L 721.412582 507.383249 
L 736.531877 507.383249 
L 751.651172 507.466588 
L 766.770467 507.466588 
L 781.889762 507.466588 
L 797.009057 507.383249 
L 812.128352 507.383249 
" clip-path="url(#p35e51435b8)" style="fill: none; stroke: #2ca02c; stroke-width: 2; stroke-linecap: square"/>
    <defs>
     <path id="ma7ddfc8345" d="M 0 2 
C 0.530406 2 1.03916 1.789267 1.414214 1.414214 
C 1.789267 1.03916 2 0.530406 2 0 
C 2 -0.530406 1.789267 -1.03916 1.414214 -1.414214 
C 1.03916 -1.789267 0.530406 -2 0 -2 
C -0.530406 -2 -1.03916 -1.789267 -1.414214 -1.414214 
C -1.789267 -1.03916 -2 -0.530406 -2 0 
C -2 0.530406 -1.789267 1.03916 -1.414214 1.414214 
C -1.03916 1.789267 -0.530406 2 0 2 
z
" style="stroke: #2ca02c"/>
    </defs>
    <g clip-path="url(#p35e51435b8)">
     <use xlink:href="#ma7ddfc8345" x="71.282898" y="496.049173" style="fill: #2ca02c; stroke: #2ca02c"/>
     <use xlink:href="#ma7ddfc8345" x="86.402193" y="501.549534" style="fill: #2ca02c; stroke: #2ca02c"/>
     <use xlink:href="#ma7ddfc8345" x="101.521488" y="502.799615" style="fill: #2ca02c; stroke: #2ca02c"/>
     <use xlink:href="#ma7ddfc8345" x="116.640783" y="504.383053" style="fill: #2ca02c; stroke: #2ca02c"/>
     <use xlink:href="#ma7ddfc8345" x="131.760078" y="504.799747" style="fill: #2ca02c; stroke: #2ca02c"/>
     <use xlink:href="#ma7ddfc8345" x="146.879373" y="505.216441" style="fill: #2ca02c; stroke: #2ca02c"/>
     <use xlink:href="#ma7ddfc8345" x="161.998668" y="505.549796" style="fill: #2ca02c; stroke: #2ca02c"/>
     <use xlink:href="#ma7ddfc8345" x="177.117963" y="506.216506" style="fill: #2ca02c; stroke: #2ca02c"/>
     <use xlink:href="#ma7ddfc8345" x="192.237258" y="506.383184" style="fill: #2ca02c; stroke: #2ca02c"/>
     <use xlink:href="#ma7ddfc8345" x="207.356553" y="506.466522" style="fill: #2ca02c; stroke: #2ca02c"/>
     <use xlink:href="#ma7ddfc8345" x="222.475848" y="506.799878" style="fill: #2ca02c; stroke: #2ca02c"/>
     <use xlink:href="#ma7ddfc8345" x="237.595143" y="506.799878" style="fill: #2ca02c; stroke: #2ca02c"/>
     <use xlink:href="#ma7ddfc8345" x="252.714438" y="507.049894" style="fill: #2ca02c; stroke: #2ca02c"/>
     <use xlink:href="#ma7ddfc8345" x="267.833733" y="507.133233" style="fill: #2ca02c; stroke: #2ca02c"/>
     <use xlink:href="#ma7ddfc8345" x="282.953028" y="506.883216" style="fill: #2ca02c; stroke: #2ca02c"/>
     <use xlink:href="#ma7ddfc8345" x="298.072323" y="506.966555" style="fill: #2ca02c; stroke: #2ca02c"/>
     <use xlink:href="#ma7ddfc8345" x="313.191618" y="507.049894" style="fill: #2ca02c; stroke: #2ca02c"/>
     <use xlink:href="#ma7ddfc8345" x="328.310913" y="507.049894" style="fill: #2ca02c; stroke: #2ca02c"/>
     <use xlink:href="#ma7ddfc8345" x="343.430208" y="507.133233" style="fill: #2ca02c; stroke: #2ca02c"/>
     <use xlink:href="#ma7ddfc8345" x="358.549503" y="507.216572" style="fill: #2ca02c; stroke: #2ca02c"/>
     <use xlink:href="#ma7ddfc8345" x="373.668798" y="507.29991" style="fill: #2ca02c; stroke: #2ca02c"/>
     <use xlink:href="#ma7ddfc8345" x="388.788093" y="507.466588" style="fill: #2ca02c; stroke: #2ca02c"/>
     <use xlink:href="#ma7ddfc8345" x="403.907388" y="507.466588" style="fill: #2ca02c; stroke: #2ca02c"/>
     <use xlink:href="#ma7ddfc8345" x="419.026683" y="507.549927" style="fill: #2ca02c; stroke: #2ca02c"/>
     <use xlink:href="#ma7ddfc8345" x="434.145978" y="507.549927" style="fill: #2ca02c; stroke: #2ca02c"/>
     <use xlink:href="#ma7ddfc8345" x="449.265272" y="507.633266" style="fill: #2ca02c; stroke: #2ca02c"/>
     <use xlink:href="#ma7ddfc8345" x="464.384567" y="507.716604" style="fill: #2ca02c; stroke: #2ca02c"/>
     <use xlink:href="#ma7ddfc8345" x="479.503862" y="507.716604" style="fill: #2ca02c; stroke: #2ca02c"/>
     <use xlink:href="#ma7ddfc8345" x="494.623157" y="507.716604" style="fill: #2ca02c; stroke: #2ca02c"/>
     <use xlink:href="#ma7ddfc8345" x="509.742452" y="507.633266" style="fill: #2ca02c; stroke: #2ca02c"/>
     <use xlink:href="#ma7ddfc8345" x="524.861747" y="507.716604" style="fill: #2ca02c; stroke: #2ca02c"/>
     <use xlink:href="#ma7ddfc8345" x="539.981042" y="507.799943" style="fill: #2ca02c; stroke: #2ca02c"/>
     <use xlink:href="#ma7ddfc8345" x="555.100337" y="507.716604" style="fill: #2ca02c; stroke: #2ca02c"/>
     <use xlink:href="#ma7ddfc8345" x="570.219632" y="507.633266" style="fill: #2ca02c; stroke: #2ca02c"/>
     <use xlink:href="#ma7ddfc8345" x="585.338927" y="507.633266" style="fill: #2ca02c; stroke: #2ca02c"/>
     <use xlink:href="#ma7ddfc8345" x="600.458222" y="507.633266" style="fill: #2ca02c; stroke: #2ca02c"/>
     <use xlink:href="#ma7ddfc8345" x="615.577517" y="507.633266" style="fill: #2ca02c; stroke: #2ca02c"/>
     <use xlink:href="#ma7ddfc8345" x="630.696812" y="507.633266" style="fill: #2ca02c; stroke: #2ca02c"/>
     <use xlink:href="#ma7ddfc8345" x="645.816107" y="507.633266" style="fill: #2ca02c; stroke: #2ca02c"/>
     <use xlink:href="#ma7ddfc8345" x="660.935402" y="507.549927" style="fill: #2ca02c; stroke: #2ca02c"/>
     <use xlink:href="#ma7ddfc8345" x="676.054697" y="507.549927" style="fill: #2ca02c; stroke: #2ca02c"/>
     <use xlink:href="#ma7ddfc8345" x="691.173992" y="507.549927" style="fill: #2ca02c; stroke: #2ca02c"/>
     <use xlink:href="#ma7ddfc8345" x="706.293287" y="507.466588" style="fill: #2ca02c; stroke: #2ca02c"/>
     <use xlink:href="#ma7ddfc8345" x="721.412582" y="507.383249" style="fill: #2ca02c; stroke: #2ca02c"/>
     <use xlink:href="#ma7ddfc8345" x="736.531877" y="507.383249" style="fill: #2ca02c; stroke: #2ca02c"/>
     <use xlink:href="#ma7ddfc8345" x="751.651172" y="507.466588" style="fill: #2ca02c; stroke: #2ca02c"/>
     <use xlink:href="#ma7ddfc8345" x="766.770467" y="507.466588" style="fill: #2ca02c; stroke: #2ca02c"/>
     <use xlink:href="#ma7ddfc8345" x="781.889762" y="507.466588" style="fill: #2ca02c; stroke: #2ca02c"/>
     <use xlink:href="#ma7ddfc8345" x="797.009057" y="507.383249" style="fill: #2ca02c; stroke: #2ca02c"/>
     <use xlink:href="#ma7ddfc8345" x="812.128352" y="507.383249" style="fill: #2ca02c; stroke: #2ca02c"/>
    </g>
   </g>
   <g id="line2d_26">
    <path d="M 71.282898 45.436307 
L 86.402193 94.106163 
L 101.521488 124.858179 
L 116.640783 129.358474 
L 131.760078 140.775889 
L 146.879373 150.35985 
L 161.998668 150.859883 
L 177.117963 166.694254 
L 192.237258 175.111472 
L 207.356553 184.27874 
L 222.475848 188.362341 
L 237.595143 187.445614 
L 252.714438 191.529215 
L 267.833733 195.529477 
L 282.953028 196.779559 
L 298.072323 202.613275 
L 313.191618 209.447056 
L 328.310913 215.447449 
L 343.430208 220.781132 
L 358.549503 226.531509 
L 373.668798 232.781919 
L 388.788093 239.449022 
L 403.907388 244.949383 
L 419.026683 249.616355 
L 434.145978 253.699956 
L 449.265272 258.28359 
L 464.384567 261.700481 
L 479.503862 265.534065 
L 494.623157 268.534262 
L 509.742452 271.701136 
L 524.861747 274.534655 
L 539.981042 277.368174 
L 555.100337 279.118289 
L 570.219632 280.701726 
L 585.338927 282.451841 
L 600.458222 284.368633 
L 615.577517 286.535442 
L 630.696812 287.868862 
L 645.816107 289.702316 
L 660.935402 291.119075 
L 676.054697 291.952463 
L 691.173992 293.369223 
L 706.293287 294.619305 
L 721.412582 295.786048 
L 736.531877 296.869452 
L 751.651172 298.036195 
L 766.770467 298.786245 
L 781.889762 299.702971 
L 797.009057 300.369682 
L 812.128352 301.536425 
" clip-path="url(#p35e51435b8)" style="fill: none; stroke: #1f77b4; stroke-width: 2; stroke-linecap: square"/>
    <defs>
     <path id="m48ffa397ff" d="M 0 2 
C 0.530406 2 1.03916 1.789267 1.414214 1.414214 
C 1.789267 1.03916 2 0.530406 2 0 
C 2 -0.530406 1.789267 -1.03916 1.414214 -1.414214 
C 1.03916 -1.789267 0.530406 -2 0 -2 
C -0.530406 -2 -1.03916 -1.789267 -1.414214 -1.414214 
C -1.789267 -1.03916 -2 -0.530406 -2 0 
C -2 0.530406 -1.789267 1.03916 -1.414214 1.414214 
C -1.03916 1.789267 -0.530406 2 0 2 
z
" style="stroke: #1f77b4"/>
    </defs>
    <g clip-path="url(#p35e51435b8)">
     <use xlink:href="#m48ffa397ff" x="71.282898" y="45.436307" style="fill: #1f77b4; stroke: #1f77b4"/>
     <use xlink:href="#m48ffa397ff" x="86.402193" y="94.106163" style="fill: #1f77b4; stroke: #1f77b4"/>
     <use xlink:href="#m48ffa397ff" x="101.521488" y="124.858179" style="fill: #1f77b4; stroke: #1f77b4"/>
     <use xlink:href="#m48ffa397ff" x="116.640783" y="129.358474" style="fill: #1f77b4; stroke: #1f77b4"/>
     <use xlink:href="#m48ffa397ff" x="131.760078" y="140.775889" style="fill: #1f77b4; stroke: #1f77b4"/>
     <use xlink:href="#m48ffa397ff" x="146.879373" y="150.35985" style="fill: #1f77b4; stroke: #1f77b4"/>
     <use xlink:href="#m48ffa397ff" x="161.998668" y="150.859883" style="fill: #1f77b4; stroke: #1f77b4"/>
     <use xlink:href="#m48ffa397ff" x="177.117963" y="166.694254" style="fill: #1f77b4; stroke: #1f77b4"/>
     <use xlink:href="#m48ffa397ff" x="192.237258" y="175.111472" style="fill: #1f77b4; stroke: #1f77b4"/>
     <use xlink:href="#m48ffa397ff" x="207.356553" y="184.27874" style="fill: #1f77b4; stroke: #1f77b4"/>
     <use xlink:href="#m48ffa397ff" x="222.475848" y="188.362341" style="fill: #1f77b4; stroke: #1f77b4"/>
     <use xlink:href="#m48ffa397ff" x="237.595143" y="187.445614" style="fill: #1f77b4; stroke: #1f77b4"/>
     <use xlink:href="#m48ffa397ff" x="252.714438" y="191.529215" style="fill: #1f77b4; stroke: #1f77b4"/>
     <use xlink:href="#m48ffa397ff" x="267.833733" y="195.529477" style="fill: #1f77b4; stroke: #1f77b4"/>
     <use xlink:href="#m48ffa397ff" x="282.953028" y="196.779559" style="fill: #1f77b4; stroke: #1f77b4"/>
     <use xlink:href="#m48ffa397ff" x="298.072323" y="202.613275" style="fill: #1f77b4; stroke: #1f77b4"/>
     <use xlink:href="#m48ffa397ff" x="313.191618" y="209.447056" style="fill: #1f77b4; stroke: #1f77b4"/>
     <use xlink:href="#m48ffa397ff" x="328.310913" y="215.447449" style="fill: #1f77b4; stroke: #1f77b4"/>
     <use xlink:href="#m48ffa397ff" x="343.430208" y="220.781132" style="fill: #1f77b4; stroke: #1f77b4"/>
     <use xlink:href="#m48ffa397ff" x="358.549503" y="226.531509" style="fill: #1f77b4; stroke: #1f77b4"/>
     <use xlink:href="#m48ffa397ff" x="373.668798" y="232.781919" style="fill: #1f77b4; stroke: #1f77b4"/>
     <use xlink:href="#m48ffa397ff" x="388.788093" y="239.449022" style="fill: #1f77b4; stroke: #1f77b4"/>
     <use xlink:href="#m48ffa397ff" x="403.907388" y="244.949383" style="fill: #1f77b4; stroke: #1f77b4"/>
     <use xlink:href="#m48ffa397ff" x="419.026683" y="249.616355" style="fill: #1f77b4; stroke: #1f77b4"/>
     <use xlink:href="#m48ffa397ff" x="434.145978" y="253.699956" style="fill: #1f77b4; stroke: #1f77b4"/>
     <use xlink:href="#m48ffa397ff" x="449.265272" y="258.28359" style="fill: #1f77b4; stroke: #1f77b4"/>
     <use xlink:href="#m48ffa397ff" x="464.384567" y="261.700481" style="fill: #1f77b4; stroke: #1f77b4"/>
     <use xlink:href="#m48ffa397ff" x="479.503862" y="265.534065" style="fill: #1f77b4; stroke: #1f77b4"/>
     <use xlink:href="#m48ffa397ff" x="494.623157" y="268.534262" style="fill: #1f77b4; stroke: #1f77b4"/>
     <use xlink:href="#m48ffa397ff" x="509.742452" y="271.701136" style="fill: #1f77b4; stroke: #1f77b4"/>
     <use xlink:href="#m48ffa397ff" x="524.861747" y="274.534655" style="fill: #1f77b4; stroke: #1f77b4"/>
     <use xlink:href="#m48ffa397ff" x="539.981042" y="277.368174" style="fill: #1f77b4; stroke: #1f77b4"/>
     <use xlink:href="#m48ffa397ff" x="555.100337" y="279.118289" style="fill: #1f77b4; stroke: #1f77b4"/>
     <use xlink:href="#m48ffa397ff" x="570.219632" y="280.701726" style="fill: #1f77b4; stroke: #1f77b4"/>
     <use xlink:href="#m48ffa397ff" x="585.338927" y="282.451841" style="fill: #1f77b4; stroke: #1f77b4"/>
     <use xlink:href="#m48ffa397ff" x="600.458222" y="284.368633" style="fill: #1f77b4; stroke: #1f77b4"/>
     <use xlink:href="#m48ffa397ff" x="615.577517" y="286.535442" style="fill: #1f77b4; stroke: #1f77b4"/>
     <use xlink:href="#m48ffa397ff" x="630.696812" y="287.868862" style="fill: #1f77b4; stroke: #1f77b4"/>
     <use xlink:href="#m48ffa397ff" x="645.816107" y="289.702316" style="fill: #1f77b4; stroke: #1f77b4"/>
     <use xlink:href="#m48ffa397ff" x="660.935402" y="291.119075" style="fill: #1f77b4; stroke: #1f77b4"/>
     <use xlink:href="#m48ffa397ff" x="676.054697" y="291.952463" style="fill: #1f77b4; stroke: #1f77b4"/>
     <use xlink:href="#m48ffa397ff" x="691.173992" y="293.369223" style="fill: #1f77b4; stroke: #1f77b4"/>
     <use xlink:href="#m48ffa397ff" x="706.293287" y="294.619305" style="fill: #1f77b4; stroke: #1f77b4"/>
     <use xlink:href="#m48ffa397ff" x="721.412582" y="295.786048" style="fill: #1f77b4; stroke: #1f77b4"/>
     <use xlink:href="#m48ffa397ff" x="736.531877" y="296.869452" style="fill: #1f77b4; stroke: #1f77b4"/>
     <use xlink:href="#m48ffa397ff" x="751.651172" y="298.036195" style="fill: #1f77b4; stroke: #1f77b4"/>
     <use xlink:href="#m48ffa397ff" x="766.770467" y="298.786245" style="fill: #1f77b4; stroke: #1f77b4"/>
     <use xlink:href="#m48ffa397ff" x="781.889762" y="299.702971" style="fill: #1f77b4; stroke: #1f77b4"/>
     <use xlink:href="#m48ffa397ff" x="797.009057" y="300.369682" style="fill: #1f77b4; stroke: #1f77b4"/>
     <use xlink:href="#m48ffa397ff" x="812.128352" y="301.536425" style="fill: #1f77b4; stroke: #1f77b4"/>
    </g>
   </g>
   <g id="line2d_27">
    <path d="M 71.282898 267.784213 
L 78.842545 261.03377 
L 101.521488 256.866831 
L 109.081135 255.116716 
L 131.760078 253.44994 
L 139.319725 253.116585 
L 154.43902 251.033115 
L 177.117963 251.283131 
L 184.67761 251.199792 
L 199.796905 251.36647 
L 214.9162 251.033115 
L 237.595143 251.533148 
L 245.15479 252.199858 
L 260.274085 251.36647 
L 275.39338 249.699694 
L 298.072323 249.283 
L 313.191618 248.949645 
L 328.310913 248.782967 
L 335.87056 248.449612 
L 350.989855 248.282935 
L 366.10915 247.866241 
L 381.228445 247.616224 
L 396.34774 247.532885 
L 419.026683 247.782902 
L 434.145978 247.532885 
L 441.705625 247.866241 
L 456.82492 247.699563 
L 479.503862 247.616224 
L 487.06351 247.532885 
L 502.182805 247.366208 
L 524.861747 247.532885 
L 532.421395 247.282869 
L 547.54069 247.366208 
L 570.219632 247.282869 
L 577.77928 247.366208 
L 600.458222 246.616159 
L 608.01787 246.116126 
L 623.137165 246.199465 
L 638.25646 246.199465 
L 660.935402 246.53282 
L 668.49505 246.449481 
L 683.614345 245.949448 
L 698.73364 245.949448 
L 713.852935 245.949448 
L 736.531877 245.86611 
L 744.091525 245.949448 
L 766.770467 245.782771 
L 774.330115 245.782771 
L 789.44941 245.86611 
L 812.128352 245.86611 
L 812.128352 245.86611 
" clip-path="url(#p35e51435b8)" style="fill: none; stroke: #ff7f0e; stroke-width: 2; stroke-linecap: square"/>
    <defs>
     <path id="m59eab3f1dd" d="M 0 2 
C 0.530406 2 1.03916 1.789267 1.414214 1.414214 
C 1.789267 1.03916 2 0.530406 2 0 
C 2 -0.530406 1.789267 -1.03916 1.414214 -1.414214 
C 1.03916 -1.789267 0.530406 -2 0 -2 
C -0.530406 -2 -1.03916 -1.789267 -1.414214 -1.414214 
C -1.789267 -1.03916 -2 -0.530406 -2 0 
C -2 0.530406 -1.789267 1.03916 -1.414214 1.414214 
C -1.03916 1.789267 -0.530406 2 0 2 
z
" style="stroke: #ff7f0e"/>
    </defs>
    <g clip-path="url(#p35e51435b8)">
     <use xlink:href="#m59eab3f1dd" x="71.282898" y="267.784213" style="fill: #ff7f0e; stroke: #ff7f0e"/>
     <use xlink:href="#m59eab3f1dd" x="78.842545" y="261.03377" style="fill: #ff7f0e; stroke: #ff7f0e"/>
     <use xlink:href="#m59eab3f1dd" x="101.521488" y="256.866831" style="fill: #ff7f0e; stroke: #ff7f0e"/>
     <use xlink:href="#m59eab3f1dd" x="109.081135" y="255.116716" style="fill: #ff7f0e; stroke: #ff7f0e"/>
     <use xlink:href="#m59eab3f1dd" x="131.760078" y="253.44994" style="fill: #ff7f0e; stroke: #ff7f0e"/>
     <use xlink:href="#m59eab3f1dd" x="139.319725" y="253.116585" style="fill: #ff7f0e; stroke: #ff7f0e"/>
     <use xlink:href="#m59eab3f1dd" x="154.43902" y="251.033115" style="fill: #ff7f0e; stroke: #ff7f0e"/>
     <use xlink:href="#m59eab3f1dd" x="177.117963" y="251.283131" style="fill: #ff7f0e; stroke: #ff7f0e"/>
     <use xlink:href="#m59eab3f1dd" x="184.67761" y="251.199792" style="fill: #ff7f0e; stroke: #ff7f0e"/>
     <use xlink:href="#m59eab3f1dd" x="199.796905" y="251.36647" style="fill: #ff7f0e; stroke: #ff7f0e"/>
     <use xlink:href="#m59eab3f1dd" x="214.9162" y="251.033115" style="fill: #ff7f0e; stroke: #ff7f0e"/>
     <use xlink:href="#m59eab3f1dd" x="237.595143" y="251.533148" style="fill: #ff7f0e; stroke: #ff7f0e"/>
     <use xlink:href="#m59eab3f1dd" x="245.15479" y="252.199858" style="fill: #ff7f0e; stroke: #ff7f0e"/>
     <use xlink:href="#m59eab3f1dd" x="260.274085" y="251.36647" style="fill: #ff7f0e; stroke: #ff7f0e"/>
     <use xlink:href="#m59eab3f1dd" x="275.39338" y="249.699694" style="fill: #ff7f0e; stroke: #ff7f0e"/>
     <use xlink:href="#m59eab3f1dd" x="298.072323" y="249.283" style="fill: #ff7f0e; stroke: #ff7f0e"/>
     <use xlink:href="#m59eab3f1dd" x="313.191618" y="248.949645" style="fill: #ff7f0e; stroke: #ff7f0e"/>
     <use xlink:href="#m59eab3f1dd" x="328.310913" y="248.782967" style="fill: #ff7f0e; stroke: #ff7f0e"/>
     <use xlink:href="#m59eab3f1dd" x="335.87056" y="248.449612" style="fill: #ff7f0e; stroke: #ff7f0e"/>
     <use xlink:href="#m59eab3f1dd" x="350.989855" y="248.282935" style="fill: #ff7f0e; stroke: #ff7f0e"/>
     <use xlink:href="#m59eab3f1dd" x="366.10915" y="247.866241" style="fill: #ff7f0e; stroke: #ff7f0e"/>
     <use xlink:href="#m59eab3f1dd" x="381.228445" y="247.616224" style="fill: #ff7f0e; stroke: #ff7f0e"/>
     <use xlink:href="#m59eab3f1dd" x="396.34774" y="247.532885" style="fill: #ff7f0e; stroke: #ff7f0e"/>
     <use xlink:href="#m59eab3f1dd" x="419.026683" y="247.782902" style="fill: #ff7f0e; stroke: #ff7f0e"/>
     <use xlink:href="#m59eab3f1dd" x="434.145978" y="247.532885" style="fill: #ff7f0e; stroke: #ff7f0e"/>
     <use xlink:href="#m59eab3f1dd" x="441.705625" y="247.866241" style="fill: #ff7f0e; stroke: #ff7f0e"/>
     <use xlink:href="#m59eab3f1dd" x="456.82492" y="247.699563" style="fill: #ff7f0e; stroke: #ff7f0e"/>
     <use xlink:href="#m59eab3f1dd" x="479.503862" y="247.616224" style="fill: #ff7f0e; stroke: #ff7f0e"/>
     <use xlink:href="#m59eab3f1dd" x="487.06351" y="247.532885" style="fill: #ff7f0e; stroke: #ff7f0e"/>
     <use xlink:href="#m59eab3f1dd" x="502.182805" y="247.366208" style="fill: #ff7f0e; stroke: #ff7f0e"/>
     <use xlink:href="#m59eab3f1dd" x="524.861747" y="247.532885" style="fill: #ff7f0e; stroke: #ff7f0e"/>
     <use xlink:href="#m59eab3f1dd" x="532.421395" y="247.282869" style="fill: #ff7f0e; stroke: #ff7f0e"/>
     <use xlink:href="#m59eab3f1dd" x="547.54069" y="247.366208" style="fill: #ff7f0e; stroke: #ff7f0e"/>
     <use xlink:href="#m59eab3f1dd" x="570.219632" y="247.282869" style="fill: #ff7f0e; stroke: #ff7f0e"/>
     <use xlink:href="#m59eab3f1dd" x="577.77928" y="247.366208" style="fill: #ff7f0e; stroke: #ff7f0e"/>
     <use xlink:href="#m59eab3f1dd" x="600.458222" y="246.616159" style="fill: #ff7f0e; stroke: #ff7f0e"/>
     <use xlink:href="#m59eab3f1dd" x="608.01787" y="246.116126" style="fill: #ff7f0e; stroke: #ff7f0e"/>
     <use xlink:href="#m59eab3f1dd" x="623.137165" y="246.199465" style="fill: #ff7f0e; stroke: #ff7f0e"/>
     <use xlink:href="#m59eab3f1dd" x="638.25646" y="246.199465" style="fill: #ff7f0e; stroke: #ff7f0e"/>
     <use xlink:href="#m59eab3f1dd" x="660.935402" y="246.53282" style="fill: #ff7f0e; stroke: #ff7f0e"/>
     <use xlink:href="#m59eab3f1dd" x="668.49505" y="246.449481" style="fill: #ff7f0e; stroke: #ff7f0e"/>
     <use xlink:href="#m59eab3f1dd" x="683.614345" y="245.949448" style="fill: #ff7f0e; stroke: #ff7f0e"/>
     <use xlink:href="#m59eab3f1dd" x="698.73364" y="245.949448" style="fill: #ff7f0e; stroke: #ff7f0e"/>
     <use xlink:href="#m59eab3f1dd" x="713.852935" y="245.949448" style="fill: #ff7f0e; stroke: #ff7f0e"/>
     <use xlink:href="#m59eab3f1dd" x="736.531877" y="245.86611" style="fill: #ff7f0e; stroke: #ff7f0e"/>
     <use xlink:href="#m59eab3f1dd" x="744.091525" y="245.949448" style="fill: #ff7f0e; stroke: #ff7f0e"/>
     <use xlink:href="#m59eab3f1dd" x="766.770467" y="245.782771" style="fill: #ff7f0e; stroke: #ff7f0e"/>
     <use xlink:href="#m59eab3f1dd" x="774.330115" y="245.782771" style="fill: #ff7f0e; stroke: #ff7f0e"/>
     <use xlink:href="#m59eab3f1dd" x="789.44941" y="245.86611" style="fill: #ff7f0e; stroke: #ff7f0e"/>
     <use xlink:href="#m59eab3f1dd" x="812.128352" y="245.86611" style="fill: #ff7f0e; stroke: #ff7f0e"/>
     <use xlink:href="#m59eab3f1dd" x="812.128352" y="245.86611" style="fill: #ff7f0e; stroke: #ff7f0e"/>
    </g>
   </g>
   <g id="patch_3">
    <path d="M 34.240625 530.918125 
L 34.240625 22.318125 
" style="fill: none; stroke: #000000; stroke-width: 0.8; stroke-linejoin: miter; stroke-linecap: square"/>
   </g>
   <g id="patch_4">
    <path d="M 849.170625 530.918125 
L 849.170625 22.318125 
" style="fill: none; stroke: #000000; stroke-width: 0.8; stroke-linejoin: miter; stroke-linecap: square"/>
   </g>
   <g id="patch_5">
    <path d="M 34.240625 530.918125 
L 849.170625 530.918125 
" style="fill: none; stroke: #000000; stroke-width: 0.8; stroke-linejoin: miter; stroke-linecap: square"/>
   </g>
   <g id="patch_6">
    <path d="M 34.240625 22.318125 
L 849.170625 22.318125 
" style="fill: none; stroke: #000000; stroke-width: 0.8; stroke-linejoin: miter; stroke-linecap: square"/>
   </g>
   <g id="text_15">
    <!-- Mean Latency Comparison Over Time -->
    <g transform="translate(328.975938 16.318125) scale(0.12 -0.12)">
     <defs>
      <path id="DejaVuSans-43" d="M 4122 4306 
L 4122 3641 
Q 3803 3938 3442 4084 
Q 3081 4231 2675 4231 
Q 1875 4231 1450 3742 
Q 1025 3253 1025 2328 
Q 1025 1406 1450 917 
Q 1875 428 2675 428 
Q 3081 428 3442 575 
Q 3803 722 4122 1019 
L 4122 359 
Q 3791 134 3420 21 
Q 3050 -91 2638 -91 
Q 1578 -91 968 557 
Q 359 1206 359 2328 
Q 359 3453 968 4101 
Q 1578 4750 2638 4750 
Q 3056 4750 3426 4639 
Q 3797 4528 4122 4306 
z
" transform="scale(0.015625)"/>
      <path id="DejaVuSans-72" d="M 2631 2963 
Q 2534 3019 2420 3045 
Q 2306 3072 2169 3072 
Q 1681 3072 1420 2755 
Q 1159 2438 1159 1844 
L 1159 0 
L 581 0 
L 581 3500 
L 1159 3500 
L 1159 2956 
Q 1341 3275 1631 3429 
Q 1922 3584 2338 3584 
Q 2397 3584 2469 3576 
Q 2541 3569 2628 3553 
L 2631 2963 
z
" transform="scale(0.015625)"/>
      <path id="DejaVuSans-4f" d="M 2522 4238 
Q 1834 4238 1429 3725 
Q 1025 3213 1025 2328 
Q 1025 1447 1429 934 
Q 1834 422 2522 422 
Q 3209 422 3611 934 
Q 4013 1447 4013 2328 
Q 4013 3213 3611 3725 
Q 3209 4238 2522 4238 
z
M 2522 4750 
Q 3503 4750 4090 4092 
Q 4678 3434 4678 2328 
Q 4678 1225 4090 567 
Q 3503 -91 2522 -91 
Q 1538 -91 948 565 
Q 359 1222 359 2328 
Q 359 3434 948 4092 
Q 1538 4750 2522 4750 
z
" transform="scale(0.015625)"/>
      <path id="DejaVuSans-76" d="M 191 3500 
L 800 3500 
L 1894 563 
L 2988 3500 
L 3597 3500 
L 2284 0 
L 1503 0 
L 191 3500 
z
" transform="scale(0.015625)"/>
     </defs>
     <use xlink:href="#DejaVuSans-4d"/>
     <use xlink:href="#DejaVuSans-65" x="86.279297"/>
     <use xlink:href="#DejaVuSans-61" x="147.802734"/>
     <use xlink:href="#DejaVuSans-6e" x="209.082031"/>
     <use xlink:href="#DejaVuSans-20" x="272.460938"/>
     <use xlink:href="#DejaVuSans-4c" x="304.248047"/>
     <use xlink:href="#DejaVuSans-61" x="359.960938"/>
     <use xlink:href="#DejaVuSans-74" x="421.240234"/>
     <use xlink:href="#DejaVuSans-65" x="460.449219"/>
     <use xlink:href="#DejaVuSans-6e" x="521.972656"/>
     <use xlink:href="#DejaVuSans-63" x="585.351562"/>
     <use xlink:href="#DejaVuSans-79" x="640.332031"/>
     <use xlink:href="#DejaVuSans-20" x="699.511719"/>
     <use xlink:href="#DejaVuSans-43" x="731.298828"/>
     <use xlink:href="#DejaVuSans-6f" x="801.123047"/>
     <use xlink:href="#DejaVuSans-6d" x="862.304688"/>
     <use xlink:href="#DejaVuSans-70" x="959.716797"/>
     <use xlink:href="#DejaVuSans-61" x="1023.193359"/>
     <use xlink:href="#DejaVuSans-72" x="1084.472656"/>
     <use xlink:href="#DejaVuSans-69" x="1125.585938"/>
     <use xlink:href="#DejaVuSans-73" x="1153.369141"/>
     <use xlink:href="#DejaVuSans-6f" x="1205.46875"/>
     <use xlink:href="#DejaVuSans-6e" x="1266.650391"/>
     <use xlink:href="#DejaVuSans-20" x="1330.029297"/>
     <use xlink:href="#DejaVuSans-4f" x="1361.816406"/>
     <use xlink:href="#DejaVuSans-76" x="1440.527344"/>
     <use xlink:href="#DejaVuSans-65" x="1499.707031"/>
     <use xlink:href="#DejaVuSans-72" x="1561.230469"/>
     <use xlink:href="#DejaVuSans-20" x="1602.34375"/>
     <use xlink:href="#DejaVuSans-54" x="1634.130859"/>
     <use xlink:href="#DejaVuSans-69" x="1692.089844"/>
     <use xlink:href="#DejaVuSans-6d" x="1719.873047"/>
     <use xlink:href="#DejaVuSans-65" x="1817.285156"/>
    </g>
   </g>
   <g id="legend_1">
    <g id="patch_7">
     <path d="M 773.528438 74.3525 
L 842.170625 74.3525 
Q 844.170625 74.3525 844.170625 72.3525 
L 844.170625 29.318125 
Q 844.170625 27.318125 842.170625 27.318125 
L 773.528438 27.318125 
Q 771.528438 27.318125 771.528438 29.318125 
L 771.528438 72.3525 
Q 771.528438 74.3525 773.528438 74.3525 
z
" style="fill: #ffffff; opacity: 0.8; stroke: #cccccc; stroke-linejoin: miter"/>
    </g>
    <g id="line2d_28">
     <path d="M 775.528438 35.416562 
L 785.528438 35.416562 
L 795.528438 35.416562 
" style="fill: none; stroke: #2ca02c; stroke-width: 2; stroke-linecap: square"/>
     <g>
      <use xlink:href="#ma7ddfc8345" x="785.528438" y="35.416562" style="fill: #2ca02c; stroke: #2ca02c"/>
     </g>
    </g>
    <g id="text_16">
     <!-- weaver -->
     <g transform="translate(803.528438 38.916562) scale(0.1 -0.1)">
      <defs>
       <path id="DejaVuSans-77" d="M 269 3500 
L 844 3500 
L 1563 769 
L 2278 3500 
L 2956 3500 
L 3675 769 
L 4391 3500 
L 4966 3500 
L 4050 0 
L 3372 0 
L 2619 2869 
L 1863 0 
L 1184 0 
L 269 3500 
z
" transform="scale(0.015625)"/>
      </defs>
      <use xlink:href="#DejaVuSans-77"/>
      <use xlink:href="#DejaVuSans-65" x="81.787109"/>
      <use xlink:href="#DejaVuSans-61" x="143.310547"/>
      <use xlink:href="#DejaVuSans-76" x="204.589844"/>
      <use xlink:href="#DejaVuSans-65" x="263.769531"/>
      <use xlink:href="#DejaVuSans-72" x="325.292969"/>
     </g>
    </g>
    <g id="line2d_29">
     <path d="M 775.528438 50.094687 
L 785.528438 50.094687 
L 795.528438 50.094687 
" style="fill: none; stroke: #1f77b4; stroke-width: 2; stroke-linecap: square"/>
     <g>
      <use xlink:href="#m48ffa397ff" x="785.528438" y="50.094687" style="fill: #1f77b4; stroke: #1f77b4"/>
     </g>
    </g>
    <g id="text_17">
     <!-- node -->
     <g transform="translate(803.528438 53.594687) scale(0.1 -0.1)">
      <use xlink:href="#DejaVuSans-6e"/>
      <use xlink:href="#DejaVuSans-6f" x="63.378906"/>
      <use xlink:href="#DejaVuSans-64" x="124.560547"/>
      <use xlink:href="#DejaVuSans-65" x="188.037109"/>
     </g>
    </g>
    <g id="line2d_30">
     <path d="M 775.528438 64.772812 
L 785.528438 64.772812 
L 795.528438 64.772812 
" style="fill: none; stroke: #ff7f0e; stroke-width: 2; stroke-linecap: square"/>
     <g>
      <use xlink:href="#m59eab3f1dd" x="785.528438" y="64.772812" style="fill: #ff7f0e; stroke: #ff7f0e"/>
     </g>
    </g>
    <g id="text_18">
     <!-- python -->
     <g transform="translate(803.528438 68.272812) scale(0.1 -0.1)">
      <defs>
       <path id="DejaVuSans-68" d="M 3513 2113 
L 3513 0 
L 2938 0 
L 2938 2094 
Q 2938 2591 2744 2837 
Q 2550 3084 2163 3084 
Q 1697 3084 1428 2787 
Q 1159 2491 1159 1978 
L 1159 0 
L 581 0 
L 581 4863 
L 1159 4863 
L 1159 2956 
Q 1366 3272 1645 3428 
Q 1925 3584 2291 3584 
Q 2894 3584 3203 3211 
Q 3513 2838 3513 2113 
z
" transform="scale(0.015625)"/>
      </defs>
      <use xlink:href="#DejaVuSans-70"/>
      <use xlink:href="#DejaVuSans-79" x="63.476562"/>
      <use xlink:href="#DejaVuSans-74" x="122.65625"/>
      <use xlink:href="#DejaVuSans-68" x="161.865234"/>
      <use xlink:href="#DejaVuSans-6f" x="225.244141"/>
      <use xlink:href="#DejaVuSans-6e" x="286.425781"/>
     </g>
    </g>
   </g>
  </g>
 </g>
 <defs>
  <clipPath id="p35e51435b8">
   <rect x="34.240625" y="22.318125" width="814.93" height="508.6"/>
  </clipPath>
 </defs>
</svg>
