<?xml version="1.0" encoding="utf-8" standalone="no"?>
<!DOCTYPE svg PUBLIC "-//W3C//DTD SVG 1.1//EN"
  "http://www.w3.org/Graphics/SVG/1.1/DTD/svg11.dtd">
<svg xmlns:xlink="http://www.w3.org/1999/xlink" width="856.288125pt" height="568.474375pt" viewBox="0 0 856.288125 568.474375" xmlns="http://www.w3.org/2000/svg" version="1.1">
 <metadata>
  <rdf:RDF xmlns:dc="http://purl.org/dc/elements/1.1/" xmlns:cc="http://creativecommons.org/ns#" xmlns:rdf="http://www.w3.org/1999/02/22-rdf-syntax-ns#">
   <cc:Work>
    <dc:type rdf:resource="http://purl.org/dc/dcmitype/StillImage"/>
    <dc:date>2025-06-28T07:46:44.694056</dc:date>
    <dc:format>image/svg+xml</dc:format>
    <dc:creator>
     <cc:Agent>
      <dc:title>Matplotlib v3.6.3, https://matplotlib.org/</dc:title>
     </cc:Agent>
    </dc:creator>
   </cc:Work>
  </rdf:RDF>
 </metadata>
 <defs>
  <style type="text/css">*{stroke-linejoin: round; stroke-linecap: butt}</style>
 </defs>
 <g id="figure_1">
  <g id="patch_1">
   <path d="M 0 568.474375 
L 856.288125 568.474375 
L 856.288125 0 
L 0 0 
z
" style="fill: #ffffff"/>
  </g>
  <g id="axes_1">
   <g id="patch_2">
    <path d="M 53.328125 530.918125 
L 849.088125 530.918125 
L 849.088125 22.318125 
L 53.328125 22.318125 
z
" style="fill: #ffffff"/>
   </g>
   <g id="matplotlib.axis_1">
    <g id="xtick_1">
     <g id="line2d_1">
      <path d="M 82.908972 530.918125 
L 82.908972 22.318125 
" clip-path="url(#pf92f3fba29)" style="fill: none; stroke: #b0b0b0; stroke-opacity: 0.3; stroke-width: 0.8; stroke-linecap: square"/>
     </g>
     <g id="line2d_2">
      <defs>
       <path id="me337ba8260" d="M 0 0 
L 0 3.5 
" style="stroke: #000000; stroke-width: 0.8"/>
      </defs>
      <g>
       <use xlink:href="#me337ba8260" x="82.908972" y="530.918125" style="stroke: #000000; stroke-width: 0.8"/>
      </g>
     </g>
     <g id="text_1">
      <!-- 0 -->
      <g transform="translate(79.727722 545.516562) scale(0.1 -0.1)">
       <defs>
        <path id="DejaVuSans-30" d="M 2034 4250 
Q 1547 4250 1301 3770 
Q 1056 3291 1056 2328 
Q 1056 1369 1301 889 
Q 1547 409 2034 409 
Q 2525 409 2770 889 
Q 3016 1369 3016 2328 
Q 3016 3291 2770 3770 
Q 2525 4250 2034 4250 
z
M 2034 4750 
Q 2819 4750 3233 4129 
Q 3647 3509 3647 2328 
Q 3647 1150 3233 529 
Q 2819 -91 2034 -91 
Q 1250 -91 836 529 
Q 422 1150 422 2328 
Q 422 3509 836 4129 
Q 1250 4750 2034 4750 
z
" transform="scale(0.015625)"/>
       </defs>
       <use xlink:href="#DejaVuSans-30"/>
      </g>
     </g>
    </g>
    <g id="xtick_2">
     <g id="line2d_3">
      <path d="M 195.896357 530.918125 
L 195.896357 22.318125 
" clip-path="url(#pf92f3fba29)" style="fill: none; stroke: #b0b0b0; stroke-opacity: 0.3; stroke-width: 0.8; stroke-linecap: square"/>
     </g>
     <g id="line2d_4">
      <g>
       <use xlink:href="#me337ba8260" x="195.896357" y="530.918125" style="stroke: #000000; stroke-width: 0.8"/>
      </g>
     </g>
     <g id="text_2">
      <!-- 2 -->
      <g transform="translate(192.715107 545.516562) scale(0.1 -0.1)">
       <defs>
        <path id="DejaVuSans-32" d="M 1228 531 
L 3431 531 
L 3431 0 
L 469 0 
L 469 531 
Q 828 903 1448 1529 
Q 2069 2156 2228 2338 
Q 2531 2678 2651 2914 
Q 2772 3150 2772 3378 
Q 2772 3750 2511 3984 
Q 2250 4219 1831 4219 
Q 1534 4219 1204 4116 
Q 875 4013 500 3803 
L 500 4441 
Q 881 4594 1212 4672 
Q 1544 4750 1819 4750 
Q 2544 4750 2975 4387 
Q 3406 4025 3406 3419 
Q 3406 3131 3298 2873 
Q 3191 2616 2906 2266 
Q 2828 2175 2409 1742 
Q 1991 1309 1228 531 
z
" transform="scale(0.015625)"/>
       </defs>
       <use xlink:href="#DejaVuSans-32"/>
      </g>
     </g>
    </g>
    <g id="xtick_3">
     <g id="line2d_5">
      <path d="M 308.883742 530.918125 
L 308.883742 22.318125 
" clip-path="url(#pf92f3fba29)" style="fill: none; stroke: #b0b0b0; stroke-opacity: 0.3; stroke-width: 0.8; stroke-linecap: square"/>
     </g>
     <g id="line2d_6">
      <g>
       <use xlink:href="#me337ba8260" x="308.883742" y="530.918125" style="stroke: #000000; stroke-width: 0.8"/>
      </g>
     </g>
     <g id="text_3">
      <!-- 4 -->
      <g transform="translate(305.702492 545.516562) scale(0.1 -0.1)">
       <defs>
        <path id="DejaVuSans-34" d="M 2419 4116 
L 825 1625 
L 2419 1625 
L 2419 4116 
z
M 2253 4666 
L 3047 4666 
L 3047 1625 
L 3713 1625 
L 3713 1100 
L 3047 1100 
L 3047 0 
L 2419 0 
L 2419 1100 
L 313 1100 
L 313 1709 
L 2253 4666 
z
" transform="scale(0.015625)"/>
       </defs>
       <use xlink:href="#DejaVuSans-34"/>
      </g>
     </g>
    </g>
    <g id="xtick_4">
     <g id="line2d_7">
      <path d="M 421.871126 530.918125 
L 421.871126 22.318125 
" clip-path="url(#pf92f3fba29)" style="fill: none; stroke: #b0b0b0; stroke-opacity: 0.3; stroke-width: 0.8; stroke-linecap: square"/>
     </g>
     <g id="line2d_8">
      <g>
       <use xlink:href="#me337ba8260" x="421.871126" y="530.918125" style="stroke: #000000; stroke-width: 0.8"/>
      </g>
     </g>
     <g id="text_4">
      <!-- 6 -->
      <g transform="translate(418.689876 545.516562) scale(0.1 -0.1)">
       <defs>
        <path id="DejaVuSans-36" d="M 2113 2584 
Q 1688 2584 1439 2293 
Q 1191 2003 1191 1497 
Q 1191 994 1439 701 
Q 1688 409 2113 409 
Q 2538 409 2786 701 
Q 3034 994 3034 1497 
Q 3034 2003 2786 2293 
Q 2538 2584 2113 2584 
z
M 3366 4563 
L 3366 3988 
Q 3128 4100 2886 4159 
Q 2644 4219 2406 4219 
Q 1781 4219 1451 3797 
Q 1122 3375 1075 2522 
Q 1259 2794 1537 2939 
Q 1816 3084 2150 3084 
Q 2853 3084 3261 2657 
Q 3669 2231 3669 1497 
Q 3669 778 3244 343 
Q 2819 -91 2113 -91 
Q 1303 -91 875 529 
Q 447 1150 447 2328 
Q 447 3434 972 4092 
Q 1497 4750 2381 4750 
Q 2619 4750 2861 4703 
Q 3103 4656 3366 4563 
z
" transform="scale(0.015625)"/>
       </defs>
       <use xlink:href="#DejaVuSans-36"/>
      </g>
     </g>
    </g>
    <g id="xtick_5">
     <g id="line2d_9">
      <path d="M 534.858511 530.918125 
L 534.858511 22.318125 
" clip-path="url(#pf92f3fba29)" style="fill: none; stroke: #b0b0b0; stroke-opacity: 0.3; stroke-width: 0.8; stroke-linecap: square"/>
     </g>
     <g id="line2d_10">
      <g>
       <use xlink:href="#me337ba8260" x="534.858511" y="530.918125" style="stroke: #000000; stroke-width: 0.8"/>
      </g>
     </g>
     <g id="text_5">
      <!-- 8 -->
      <g transform="translate(531.677261 545.516562) scale(0.1 -0.1)">
       <defs>
        <path id="DejaVuSans-38" d="M 2034 2216 
Q 1584 2216 1326 1975 
Q 1069 1734 1069 1313 
Q 1069 891 1326 650 
Q 1584 409 2034 409 
Q 2484 409 2743 651 
Q 3003 894 3003 1313 
Q 3003 1734 2745 1975 
Q 2488 2216 2034 2216 
z
M 1403 2484 
Q 997 2584 770 2862 
Q 544 3141 544 3541 
Q 544 4100 942 4425 
Q 1341 4750 2034 4750 
Q 2731 4750 3128 4425 
Q 3525 4100 3525 3541 
Q 3525 3141 3298 2862 
Q 3072 2584 2669 2484 
Q 3125 2378 3379 2068 
Q 3634 1759 3634 1313 
Q 3634 634 3220 271 
Q 2806 -91 2034 -91 
Q 1263 -91 848 271 
Q 434 634 434 1313 
Q 434 1759 690 2068 
Q 947 2378 1403 2484 
z
M 1172 3481 
Q 1172 3119 1398 2916 
Q 1625 2713 2034 2713 
Q 2441 2713 2670 2916 
Q 2900 3119 2900 3481 
Q 2900 3844 2670 4047 
Q 2441 4250 2034 4250 
Q 1625 4250 1398 4047 
Q 1172 3844 1172 3481 
z
" transform="scale(0.015625)"/>
       </defs>
       <use xlink:href="#DejaVuSans-38"/>
      </g>
     </g>
    </g>
    <g id="xtick_6">
     <g id="line2d_11">
      <path d="M 647.845896 530.918125 
L 647.845896 22.318125 
" clip-path="url(#pf92f3fba29)" style="fill: none; stroke: #b0b0b0; stroke-opacity: 0.3; stroke-width: 0.8; stroke-linecap: square"/>
     </g>
     <g id="line2d_12">
      <g>
       <use xlink:href="#me337ba8260" x="647.845896" y="530.918125" style="stroke: #000000; stroke-width: 0.8"/>
      </g>
     </g>
     <g id="text_6">
      <!-- 10 -->
      <g transform="translate(641.483396 545.516562) scale(0.1 -0.1)">
       <defs>
        <path id="DejaVuSans-31" d="M 794 531 
L 1825 531 
L 1825 4091 
L 703 3866 
L 703 4441 
L 1819 4666 
L 2450 4666 
L 2450 531 
L 3481 531 
L 3481 0 
L 794 0 
L 794 531 
z
" transform="scale(0.015625)"/>
       </defs>
       <use xlink:href="#DejaVuSans-31"/>
       <use xlink:href="#DejaVuSans-30" x="63.623047"/>
      </g>
     </g>
    </g>
    <g id="xtick_7">
     <g id="line2d_13">
      <path d="M 760.833281 530.918125 
L 760.833281 22.318125 
" clip-path="url(#pf92f3fba29)" style="fill: none; stroke: #b0b0b0; stroke-opacity: 0.3; stroke-width: 0.8; stroke-linecap: square"/>
     </g>
     <g id="line2d_14">
      <g>
       <use xlink:href="#me337ba8260" x="760.833281" y="530.918125" style="stroke: #000000; stroke-width: 0.8"/>
      </g>
     </g>
     <g id="text_7">
      <!-- 12 -->
      <g transform="translate(754.470781 545.516562) scale(0.1 -0.1)">
       <use xlink:href="#DejaVuSans-31"/>
       <use xlink:href="#DejaVuSans-32" x="63.623047"/>
      </g>
     </g>
    </g>
    <g id="text_8">
     <!-- Elapsed Time (seconds) -->
     <g transform="translate(391.815156 559.194687) scale(0.1 -0.1)">
      <defs>
       <path id="DejaVuSans-45" d="M 628 4666 
L 3578 4666 
L 3578 4134 
L 1259 4134 
L 1259 2753 
L 3481 2753 
L 3481 2222 
L 1259 2222 
L 1259 531 
L 3634 531 
L 3634 0 
L 628 0 
L 628 4666 
z
" transform="scale(0.015625)"/>
       <path id="DejaVuSans-6c" d="M 603 4863 
L 1178 4863 
L 1178 0 
L 603 0 
L 603 4863 
z
" transform="scale(0.015625)"/>
       <path id="DejaVuSans-61" d="M 2194 1759 
Q 1497 1759 1228 1600 
Q 959 1441 959 1056 
Q 959 750 1161 570 
Q 1363 391 1709 391 
Q 2188 391 2477 730 
Q 2766 1069 2766 1631 
L 2766 1759 
L 2194 1759 
z
M 3341 1997 
L 3341 0 
L 2766 0 
L 2766 531 
Q 2569 213 2275 61 
Q 1981 -91 1556 -91 
Q 1019 -91 701 211 
Q 384 513 384 1019 
Q 384 1609 779 1909 
Q 1175 2209 1959 2209 
L 2766 2209 
L 2766 2266 
Q 2766 2663 2505 2880 
Q 2244 3097 1772 3097 
Q 1472 3097 1187 3025 
Q 903 2953 641 2809 
L 641 3341 
Q 956 3463 1253 3523 
Q 1550 3584 1831 3584 
Q 2591 3584 2966 3190 
Q 3341 2797 3341 1997 
z
" transform="scale(0.015625)"/>
       <path id="DejaVuSans-70" d="M 1159 525 
L 1159 -1331 
L 581 -1331 
L 581 3500 
L 1159 3500 
L 1159 2969 
Q 1341 3281 1617 3432 
Q 1894 3584 2278 3584 
Q 2916 3584 3314 3078 
Q 3713 2572 3713 1747 
Q 3713 922 3314 415 
Q 2916 -91 2278 -91 
Q 1894 -91 1617 61 
Q 1341 213 1159 525 
z
M 3116 1747 
Q 3116 2381 2855 2742 
Q 2594 3103 2138 3103 
Q 1681 3103 1420 2742 
Q 1159 2381 1159 1747 
Q 1159 1113 1420 752 
Q 1681 391 2138 391 
Q 2594 391 2855 752 
Q 3116 1113 3116 1747 
z
" transform="scale(0.015625)"/>
       <path id="DejaVuSans-73" d="M 2834 3397 
L 2834 2853 
Q 2591 2978 2328 3040 
Q 2066 3103 1784 3103 
Q 1356 3103 1142 2972 
Q 928 2841 928 2578 
Q 928 2378 1081 2264 
Q 1234 2150 1697 2047 
L 1894 2003 
Q 2506 1872 2764 1633 
Q 3022 1394 3022 966 
Q 3022 478 2636 193 
Q 2250 -91 1575 -91 
Q 1294 -91 989 -36 
Q 684 19 347 128 
L 347 722 
Q 666 556 975 473 
Q 1284 391 1588 391 
Q 1994 391 2212 530 
Q 2431 669 2431 922 
Q 2431 1156 2273 1281 
Q 2116 1406 1581 1522 
L 1381 1569 
Q 847 1681 609 1914 
Q 372 2147 372 2553 
Q 372 3047 722 3315 
Q 1072 3584 1716 3584 
Q 2034 3584 2315 3537 
Q 2597 3491 2834 3397 
z
" transform="scale(0.015625)"/>
       <path id="DejaVuSans-65" d="M 3597 1894 
L 3597 1613 
L 953 1613 
Q 991 1019 1311 708 
Q 1631 397 2203 397 
Q 2534 397 2845 478 
Q 3156 559 3463 722 
L 3463 178 
Q 3153 47 2828 -22 
Q 2503 -91 2169 -91 
Q 1331 -91 842 396 
Q 353 884 353 1716 
Q 353 2575 817 3079 
Q 1281 3584 2069 3584 
Q 2775 3584 3186 3129 
Q 3597 2675 3597 1894 
z
M 3022 2063 
Q 3016 2534 2758 2815 
Q 2500 3097 2075 3097 
Q 1594 3097 1305 2825 
Q 1016 2553 972 2059 
L 3022 2063 
z
" transform="scale(0.015625)"/>
       <path id="DejaVuSans-64" d="M 2906 2969 
L 2906 4863 
L 3481 4863 
L 3481 0 
L 2906 0 
L 2906 525 
Q 2725 213 2448 61 
Q 2172 -91 1784 -91 
Q 1150 -91 751 415 
Q 353 922 353 1747 
Q 353 2572 751 3078 
Q 1150 3584 1784 3584 
Q 2172 3584 2448 3432 
Q 2725 3281 2906 2969 
z
M 947 1747 
Q 947 1113 1208 752 
Q 1469 391 1925 391 
Q 2381 391 2643 752 
Q 2906 1113 2906 1747 
Q 2906 2381 2643 2742 
Q 2381 3103 1925 3103 
Q 1469 3103 1208 2742 
Q 947 2381 947 1747 
z
" transform="scale(0.015625)"/>
       <path id="DejaVuSans-20" transform="scale(0.015625)"/>
       <path id="DejaVuSans-54" d="M -19 4666 
L 3928 4666 
L 3928 4134 
L 2272 4134 
L 2272 0 
L 1638 0 
L 1638 4134 
L -19 4134 
L -19 4666 
z
" transform="scale(0.015625)"/>
       <path id="DejaVuSans-69" d="M 603 3500 
L 1178 3500 
L 1178 0 
L 603 0 
L 603 3500 
z
M 603 4863 
L 1178 4863 
L 1178 4134 
L 603 4134 
L 603 4863 
z
" transform="scale(0.015625)"/>
       <path id="DejaVuSans-6d" d="M 3328 2828 
Q 3544 3216 3844 3400 
Q 4144 3584 4550 3584 
Q 5097 3584 5394 3201 
Q 5691 2819 5691 2113 
L 5691 0 
L 5113 0 
L 5113 2094 
Q 5113 2597 4934 2840 
Q 4756 3084 4391 3084 
Q 3944 3084 3684 2787 
Q 3425 2491 3425 1978 
L 3425 0 
L 2847 0 
L 2847 2094 
Q 2847 2600 2669 2842 
Q 2491 3084 2119 3084 
Q 1678 3084 1418 2786 
Q 1159 2488 1159 1978 
L 1159 0 
L 581 0 
L 581 3500 
L 1159 3500 
L 1159 2956 
Q 1356 3278 1631 3431 
Q 1906 3584 2284 3584 
Q 2666 3584 2933 3390 
Q 3200 3197 3328 2828 
z
" transform="scale(0.015625)"/>
       <path id="DejaVuSans-28" d="M 1984 4856 
Q 1566 4138 1362 3434 
Q 1159 2731 1159 2009 
Q 1159 1288 1364 580 
Q 1569 -128 1984 -844 
L 1484 -844 
Q 1016 -109 783 600 
Q 550 1309 550 2009 
Q 550 2706 781 3412 
Q 1013 4119 1484 4856 
L 1984 4856 
z
" transform="scale(0.015625)"/>
       <path id="DejaVuSans-63" d="M 3122 3366 
L 3122 2828 
Q 2878 2963 2633 3030 
Q 2388 3097 2138 3097 
Q 1578 3097 1268 2742 
Q 959 2388 959 1747 
Q 959 1106 1268 751 
Q 1578 397 2138 397 
Q 2388 397 2633 464 
Q 2878 531 3122 666 
L 3122 134 
Q 2881 22 2623 -34 
Q 2366 -91 2075 -91 
Q 1284 -91 818 406 
Q 353 903 353 1747 
Q 353 2603 823 3093 
Q 1294 3584 2113 3584 
Q 2378 3584 2631 3529 
Q 2884 3475 3122 3366 
z
" transform="scale(0.015625)"/>
       <path id="DejaVuSans-6f" d="M 1959 3097 
Q 1497 3097 1228 2736 
Q 959 2375 959 1747 
Q 959 1119 1226 758 
Q 1494 397 1959 397 
Q 2419 397 2687 759 
Q 2956 1122 2956 1747 
Q 2956 2369 2687 2733 
Q 2419 3097 1959 3097 
z
M 1959 3584 
Q 2709 3584 3137 3096 
Q 3566 2609 3566 1747 
Q 3566 888 3137 398 
Q 2709 -91 1959 -91 
Q 1206 -91 779 398 
Q 353 888 353 1747 
Q 353 2609 779 3096 
Q 1206 3584 1959 3584 
z
" transform="scale(0.015625)"/>
       <path id="DejaVuSans-6e" d="M 3513 2113 
L 3513 0 
L 2938 0 
L 2938 2094 
Q 2938 2591 2744 2837 
Q 2550 3084 2163 3084 
Q 1697 3084 1428 2787 
Q 1159 2491 1159 1978 
L 1159 0 
L 581 0 
L 581 3500 
L 1159 3500 
L 1159 2956 
Q 1366 3272 1645 3428 
Q 1925 3584 2291 3584 
Q 2894 3584 3203 3211 
Q 3513 2838 3513 2113 
z
" transform="scale(0.015625)"/>
       <path id="DejaVuSans-29" d="M 513 4856 
L 1013 4856 
Q 1481 4119 1714 3412 
Q 1947 2706 1947 2009 
Q 1947 1309 1714 600 
Q 1481 -109 1013 -844 
L 513 -844 
Q 928 -128 1133 580 
Q 1338 1288 1338 2009 
Q 1338 2731 1133 3434 
Q 928 4138 513 4856 
z
" transform="scale(0.015625)"/>
      </defs>
      <use xlink:href="#DejaVuSans-45"/>
      <use xlink:href="#DejaVuSans-6c" x="63.183594"/>
      <use xlink:href="#DejaVuSans-61" x="90.966797"/>
      <use xlink:href="#DejaVuSans-70" x="152.246094"/>
      <use xlink:href="#DejaVuSans-73" x="215.722656"/>
      <use xlink:href="#DejaVuSans-65" x="267.822266"/>
      <use xlink:href="#DejaVuSans-64" x="329.345703"/>
      <use xlink:href="#DejaVuSans-20" x="392.822266"/>
      <use xlink:href="#DejaVuSans-54" x="424.609375"/>
      <use xlink:href="#DejaVuSans-69" x="482.568359"/>
      <use xlink:href="#DejaVuSans-6d" x="510.351562"/>
      <use xlink:href="#DejaVuSans-65" x="607.763672"/>
      <use xlink:href="#DejaVuSans-20" x="669.287109"/>
      <use xlink:href="#DejaVuSans-28" x="701.074219"/>
      <use xlink:href="#DejaVuSans-73" x="740.087891"/>
      <use xlink:href="#DejaVuSans-65" x="792.1875"/>
      <use xlink:href="#DejaVuSans-63" x="853.710938"/>
      <use xlink:href="#DejaVuSans-6f" x="908.691406"/>
      <use xlink:href="#DejaVuSans-6e" x="969.873047"/>
      <use xlink:href="#DejaVuSans-64" x="1033.251953"/>
      <use xlink:href="#DejaVuSans-73" x="1096.728516"/>
      <use xlink:href="#DejaVuSans-29" x="1148.828125"/>
     </g>
    </g>
   </g>
   <g id="matplotlib.axis_2">
    <g id="ytick_1">
     <g id="line2d_15">
      <path d="M 53.328125 515.108575 
L 849.088125 515.108575 
" clip-path="url(#pf92f3fba29)" style="fill: none; stroke: #b0b0b0; stroke-opacity: 0.3; stroke-width: 0.8; stroke-linecap: square"/>
     </g>
     <g id="line2d_16">
      <defs>
       <path id="m5f931d5300" d="M 0 0 
L -3.5 0 
" style="stroke: #000000; stroke-width: 0.8"/>
      </defs>
      <g>
       <use xlink:href="#m5f931d5300" x="53.328125" y="515.108575" style="stroke: #000000; stroke-width: 0.8"/>
      </g>
     </g>
     <g id="text_9">
      <!-- 0 -->
      <g transform="translate(39.965625 518.907793) scale(0.1 -0.1)">
       <use xlink:href="#DejaVuSans-30"/>
      </g>
     </g>
    </g>
    <g id="ytick_2">
     <g id="line2d_17">
      <path d="M 53.328125 458.197465 
L 849.088125 458.197465 
" clip-path="url(#pf92f3fba29)" style="fill: none; stroke: #b0b0b0; stroke-opacity: 0.3; stroke-width: 0.8; stroke-linecap: square"/>
     </g>
     <g id="line2d_18">
      <g>
       <use xlink:href="#m5f931d5300" x="53.328125" y="458.197465" style="stroke: #000000; stroke-width: 0.8"/>
      </g>
     </g>
     <g id="text_10">
      <!-- 250 -->
      <g transform="translate(27.240625 461.996684) scale(0.1 -0.1)">
       <defs>
        <path id="DejaVuSans-35" d="M 691 4666 
L 3169 4666 
L 3169 4134 
L 1269 4134 
L 1269 2991 
Q 1406 3038 1543 3061 
Q 1681 3084 1819 3084 
Q 2600 3084 3056 2656 
Q 3513 2228 3513 1497 
Q 3513 744 3044 326 
Q 2575 -91 1722 -91 
Q 1428 -91 1123 -41 
Q 819 9 494 109 
L 494 744 
Q 775 591 1075 516 
Q 1375 441 1709 441 
Q 2250 441 2565 725 
Q 2881 1009 2881 1497 
Q 2881 1984 2565 2268 
Q 2250 2553 1709 2553 
Q 1456 2553 1204 2497 
Q 953 2441 691 2322 
L 691 4666 
z
" transform="scale(0.015625)"/>
       </defs>
       <use xlink:href="#DejaVuSans-32"/>
       <use xlink:href="#DejaVuSans-35" x="63.623047"/>
       <use xlink:href="#DejaVuSans-30" x="127.246094"/>
      </g>
     </g>
    </g>
    <g id="ytick_3">
     <g id="line2d_19">
      <path d="M 53.328125 401.286356 
L 849.088125 401.286356 
" clip-path="url(#pf92f3fba29)" style="fill: none; stroke: #b0b0b0; stroke-opacity: 0.3; stroke-width: 0.8; stroke-linecap: square"/>
     </g>
     <g id="line2d_20">
      <g>
       <use xlink:href="#m5f931d5300" x="53.328125" y="401.286356" style="stroke: #000000; stroke-width: 0.8"/>
      </g>
     </g>
     <g id="text_11">
      <!-- 500 -->
      <g transform="translate(27.240625 405.085575) scale(0.1 -0.1)">
       <use xlink:href="#DejaVuSans-35"/>
       <use xlink:href="#DejaVuSans-30" x="63.623047"/>
       <use xlink:href="#DejaVuSans-30" x="127.246094"/>
      </g>
     </g>
    </g>
    <g id="ytick_4">
     <g id="line2d_21">
      <path d="M 53.328125 344.375247 
L 849.088125 344.375247 
" clip-path="url(#pf92f3fba29)" style="fill: none; stroke: #b0b0b0; stroke-opacity: 0.3; stroke-width: 0.8; stroke-linecap: square"/>
     </g>
     <g id="line2d_22">
      <g>
       <use xlink:href="#m5f931d5300" x="53.328125" y="344.375247" style="stroke: #000000; stroke-width: 0.8"/>
      </g>
     </g>
     <g id="text_12">
      <!-- 750 -->
      <g transform="translate(27.240625 348.174466) scale(0.1 -0.1)">
       <defs>
        <path id="DejaVuSans-37" d="M 525 4666 
L 3525 4666 
L 3525 4397 
L 1831 0 
L 1172 0 
L 2766 4134 
L 525 4134 
L 525 4666 
z
" transform="scale(0.015625)"/>
       </defs>
       <use xlink:href="#DejaVuSans-37"/>
       <use xlink:href="#DejaVuSans-35" x="63.623047"/>
       <use xlink:href="#DejaVuSans-30" x="127.246094"/>
      </g>
     </g>
    </g>
    <g id="ytick_5">
     <g id="line2d_23">
      <path d="M 53.328125 287.464137 
L 849.088125 287.464137 
" clip-path="url(#pf92f3fba29)" style="fill: none; stroke: #b0b0b0; stroke-opacity: 0.3; stroke-width: 0.8; stroke-linecap: square"/>
     </g>
     <g id="line2d_24">
      <g>
       <use xlink:href="#m5f931d5300" x="53.328125" y="287.464137" style="stroke: #000000; stroke-width: 0.8"/>
      </g>
     </g>
     <g id="text_13">
      <!-- 1000 -->
      <g transform="translate(20.878125 291.263356) scale(0.1 -0.1)">
       <use xlink:href="#DejaVuSans-31"/>
       <use xlink:href="#DejaVuSans-30" x="63.623047"/>
       <use xlink:href="#DejaVuSans-30" x="127.246094"/>
       <use xlink:href="#DejaVuSans-30" x="190.869141"/>
      </g>
     </g>
    </g>
    <g id="ytick_6">
     <g id="line2d_25">
      <path d="M 53.328125 230.553028 
L 849.088125 230.553028 
" clip-path="url(#pf92f3fba29)" style="fill: none; stroke: #b0b0b0; stroke-opacity: 0.3; stroke-width: 0.8; stroke-linecap: square"/>
     </g>
     <g id="line2d_26">
      <g>
       <use xlink:href="#m5f931d5300" x="53.328125" y="230.553028" style="stroke: #000000; stroke-width: 0.8"/>
      </g>
     </g>
     <g id="text_14">
      <!-- 1250 -->
      <g transform="translate(20.878125 234.352247) scale(0.1 -0.1)">
       <use xlink:href="#DejaVuSans-31"/>
       <use xlink:href="#DejaVuSans-32" x="63.623047"/>
       <use xlink:href="#DejaVuSans-35" x="127.246094"/>
       <use xlink:href="#DejaVuSans-30" x="190.869141"/>
      </g>
     </g>
    </g>
    <g id="ytick_7">
     <g id="line2d_27">
      <path d="M 53.328125 173.641919 
L 849.088125 173.641919 
" clip-path="url(#pf92f3fba29)" style="fill: none; stroke: #b0b0b0; stroke-opacity: 0.3; stroke-width: 0.8; stroke-linecap: square"/>
     </g>
     <g id="line2d_28">
      <g>
       <use xlink:href="#m5f931d5300" x="53.328125" y="173.641919" style="stroke: #000000; stroke-width: 0.8"/>
      </g>
     </g>
     <g id="text_15">
      <!-- 1500 -->
      <g transform="translate(20.878125 177.441138) scale(0.1 -0.1)">
       <use xlink:href="#DejaVuSans-31"/>
       <use xlink:href="#DejaVuSans-35" x="63.623047"/>
       <use xlink:href="#DejaVuSans-30" x="127.246094"/>
       <use xlink:href="#DejaVuSans-30" x="190.869141"/>
      </g>
     </g>
    </g>
    <g id="ytick_8">
     <g id="line2d_29">
      <path d="M 53.328125 116.73081 
L 849.088125 116.73081 
" clip-path="url(#pf92f3fba29)" style="fill: none; stroke: #b0b0b0; stroke-opacity: 0.3; stroke-width: 0.8; stroke-linecap: square"/>
     </g>
     <g id="line2d_30">
      <g>
       <use xlink:href="#m5f931d5300" x="53.328125" y="116.73081" style="stroke: #000000; stroke-width: 0.8"/>
      </g>
     </g>
     <g id="text_16">
      <!-- 1750 -->
      <g transform="translate(20.878125 120.530028) scale(0.1 -0.1)">
       <use xlink:href="#DejaVuSans-31"/>
       <use xlink:href="#DejaVuSans-37" x="63.623047"/>
       <use xlink:href="#DejaVuSans-35" x="127.246094"/>
       <use xlink:href="#DejaVuSans-30" x="190.869141"/>
      </g>
     </g>
    </g>
    <g id="ytick_9">
     <g id="line2d_31">
      <path d="M 53.328125 59.8197 
L 849.088125 59.8197 
" clip-path="url(#pf92f3fba29)" style="fill: none; stroke: #b0b0b0; stroke-opacity: 0.3; stroke-width: 0.8; stroke-linecap: square"/>
     </g>
     <g id="line2d_32">
      <g>
       <use xlink:href="#m5f931d5300" x="53.328125" y="59.8197" style="stroke: #000000; stroke-width: 0.8"/>
      </g>
     </g>
     <g id="text_17">
      <!-- 2000 -->
      <g transform="translate(20.878125 63.618919) scale(0.1 -0.1)">
       <use xlink:href="#DejaVuSans-32"/>
       <use xlink:href="#DejaVuSans-30" x="63.623047"/>
       <use xlink:href="#DejaVuSans-30" x="127.246094"/>
       <use xlink:href="#DejaVuSans-30" x="190.869141"/>
      </g>
     </g>
    </g>
    <g id="text_18">
     <!-- Memory Usage (MB) -->
     <g transform="translate(14.798438 327.356406) rotate(-90) scale(0.1 -0.1)">
      <defs>
       <path id="DejaVuSans-4d" d="M 628 4666 
L 1569 4666 
L 2759 1491 
L 3956 4666 
L 4897 4666 
L 4897 0 
L 4281 0 
L 4281 4097 
L 3078 897 
L 2444 897 
L 1241 4097 
L 1241 0 
L 628 0 
L 628 4666 
z
" transform="scale(0.015625)"/>
       <path id="DejaVuSans-72" d="M 2631 2963 
Q 2534 3019 2420 3045 
Q 2306 3072 2169 3072 
Q 1681 3072 1420 2755 
Q 1159 2438 1159 1844 
L 1159 0 
L 581 0 
L 581 3500 
L 1159 3500 
L 1159 2956 
Q 1341 3275 1631 3429 
Q 1922 3584 2338 3584 
Q 2397 3584 2469 3576 
Q 2541 3569 2628 3553 
L 2631 2963 
z
" transform="scale(0.015625)"/>
       <path id="DejaVuSans-79" d="M 2059 -325 
Q 1816 -950 1584 -1140 
Q 1353 -1331 966 -1331 
L 506 -1331 
L 506 -850 
L 844 -850 
Q 1081 -850 1212 -737 
Q 1344 -625 1503 -206 
L 1606 56 
L 191 3500 
L 800 3500 
L 1894 763 
L 2988 3500 
L 3597 3500 
L 2059 -325 
z
" transform="scale(0.015625)"/>
       <path id="DejaVuSans-55" d="M 556 4666 
L 1191 4666 
L 1191 1831 
Q 1191 1081 1462 751 
Q 1734 422 2344 422 
Q 2950 422 3222 751 
Q 3494 1081 3494 1831 
L 3494 4666 
L 4128 4666 
L 4128 1753 
Q 4128 841 3676 375 
Q 3225 -91 2344 -91 
Q 1459 -91 1007 375 
Q 556 841 556 1753 
L 556 4666 
z
" transform="scale(0.015625)"/>
       <path id="DejaVuSans-67" d="M 2906 1791 
Q 2906 2416 2648 2759 
Q 2391 3103 1925 3103 
Q 1463 3103 1205 2759 
Q 947 2416 947 1791 
Q 947 1169 1205 825 
Q 1463 481 1925 481 
Q 2391 481 2648 825 
Q 2906 1169 2906 1791 
z
M 3481 434 
Q 3481 -459 3084 -895 
Q 2688 -1331 1869 -1331 
Q 1566 -1331 1297 -1286 
Q 1028 -1241 775 -1147 
L 775 -588 
Q 1028 -725 1275 -790 
Q 1522 -856 1778 -856 
Q 2344 -856 2625 -561 
Q 2906 -266 2906 331 
L 2906 616 
Q 2728 306 2450 153 
Q 2172 0 1784 0 
Q 1141 0 747 490 
Q 353 981 353 1791 
Q 353 2603 747 3093 
Q 1141 3584 1784 3584 
Q 2172 3584 2450 3431 
Q 2728 3278 2906 2969 
L 2906 3500 
L 3481 3500 
L 3481 434 
z
" transform="scale(0.015625)"/>
       <path id="DejaVuSans-42" d="M 1259 2228 
L 1259 519 
L 2272 519 
Q 2781 519 3026 730 
Q 3272 941 3272 1375 
Q 3272 1813 3026 2020 
Q 2781 2228 2272 2228 
L 1259 2228 
z
M 1259 4147 
L 1259 2741 
L 2194 2741 
Q 2656 2741 2882 2914 
Q 3109 3088 3109 3444 
Q 3109 3797 2882 3972 
Q 2656 4147 2194 4147 
L 1259 4147 
z
M 628 4666 
L 2241 4666 
Q 2963 4666 3353 4366 
Q 3744 4066 3744 3513 
Q 3744 3084 3544 2831 
Q 3344 2578 2956 2516 
Q 3422 2416 3680 2098 
Q 3938 1781 3938 1306 
Q 3938 681 3513 340 
Q 3088 0 2303 0 
L 628 0 
L 628 4666 
z
" transform="scale(0.015625)"/>
      </defs>
      <use xlink:href="#DejaVuSans-4d"/>
      <use xlink:href="#DejaVuSans-65" x="86.279297"/>
      <use xlink:href="#DejaVuSans-6d" x="147.802734"/>
      <use xlink:href="#DejaVuSans-6f" x="245.214844"/>
      <use xlink:href="#DejaVuSans-72" x="306.396484"/>
      <use xlink:href="#DejaVuSans-79" x="347.509766"/>
      <use xlink:href="#DejaVuSans-20" x="406.689453"/>
      <use xlink:href="#DejaVuSans-55" x="438.476562"/>
      <use xlink:href="#DejaVuSans-73" x="511.669922"/>
      <use xlink:href="#DejaVuSans-61" x="563.769531"/>
      <use xlink:href="#DejaVuSans-67" x="625.048828"/>
      <use xlink:href="#DejaVuSans-65" x="688.525391"/>
      <use xlink:href="#DejaVuSans-20" x="750.048828"/>
      <use xlink:href="#DejaVuSans-28" x="781.835938"/>
      <use xlink:href="#DejaVuSans-4d" x="820.849609"/>
      <use xlink:href="#DejaVuSans-42" x="907.128906"/>
      <use xlink:href="#DejaVuSans-29" x="975.732422"/>
     </g>
    </g>
   </g>
   <g id="line2d_33">
    <path d="M 90.538515 507.799943 
L 101.912616 507.799943 
L 113.271888 507.799943 
L 124.633867 507.799943 
L 135.978376 507.799943 
L 147.343817 507.799943 
L 153.024941 507.799943 
L 158.694145 507.799943 
L 164.378501 507.799943 
L 170.063047 507.799943 
L 175.747659 507.799943 
L 181.435356 507.799943 
L 187.115766 507.799943 
L 192.796446 507.799943 
L 198.475307 501.227599 
L 204.159125 500.056475 
L 209.828531 501.227599 
L 215.497237 500.59802 
L 221.165134 500.422841 
L 226.913564 498.030796 
L 232.60118 499.901748 
L 238.310549 499.594962 
L 243.996064 499.761249 
L 249.711615 500.791874 
L 255.379189 498.23532 
L 261.062482 497.883182 
L 266.749182 500.576678 
L 272.437889 501.41256 
L 278.12327 498.671046 
L 283.790911 500.165851 
L 289.459994 499.998675 
L 295.129077 497.814711 
L 300.814161 499.44557 
L 306.498437 500.713621 
L 312.166698 500.804323 
L 317.834662 499.973776 
L 323.519275 501.196476 
L 329.191159 499.401998 
L 334.868297 499.835945 
L 340.541151 498.288674 
L 346.226369 501.734464 
L 351.892219 501.489035 
L 357.581344 500.866569 
L 363.265405 501.175134 
L 368.951405 499.25972 
L 374.620043 500.833668 
L 380.346288 499.21348 
L 386.015587 501.130673 
L 391.742412 500.383714 
L 397.476779 499.486475 
L 403.163924 497.857395 
L 408.829006 501.967444 
L 414.496877 501.754027 
L 420.181274 502.022576 
L 425.848781 497.94365 
L 431.514415 500.988395 
L 437.181909 498.897801 
L 442.848782 498.544774 
L 448.536251 502.035915 
L 454.204902 500.216538 
L 459.929734 501.286289 
L 465.596217 501.520158 
L 471.260922 500.33036 
L 476.927109 499.217926 
L 482.612772 501.079986 
L 488.281801 500.231655 
L 493.947166 497.400327 
L 499.672658 498.504758 
L 505.357041 500.840782 
L 511.021464 500.781203 
L 516.710817 501.764698 
L 522.425682 499.835056 
L 528.102226 501.972779 
L 533.872247 499.111217 
L 539.539632 501.814495 
L 545.207153 500.776757 
L 550.875279 499.594962 
L 556.560713 501.601078 
L 562.245865 499.413558 
L 567.92944 500.285009 
L 573.615696 498.761748 
L 579.300295 501.37788 
L 584.985904 499.319299 
L 590.668591 498.71284 
L 596.355143 497.637753 
L 602.040995 500.715399 
L 607.709404 502.165743 
L 613.437711 498.501201 
L 619.102699 498.937816 
L 624.769128 501.604635 
L 630.454549 501.23827 
L 636.139741 501.194698 
L 641.825498 502.131952 
L 647.513666 500.145399 
L 653.182561 500.903917 
L 658.909049 500.506429 
L 664.592921 501.679331 
L 670.279082 500.845228 
L 675.967439 500.597131 
L 681.638394 498.882684 
L 687.330684 500.662045 
L 692.998272 499.286397 
L 698.722847 500.01646 
L 704.40781 500.835446 
L 710.075748 499.268612 
L 715.743066 497.855616 
L 721.409428 499.395773 
L 727.138044 497.866287 
L 732.805848 498.794649 
L 738.533494 499.935539 
L 744.202025 499.873293 
L 749.888617 500.268114 
L 755.579372 500.138285 
L 761.246528 503.003404 
L 766.921376 503.003404 
L 772.616616 503.003404 
L 778.300231 503.003404 
L 783.982783 503.003404 
L 789.676865 503.003404 
L 795.360454 503.003404 
L 801.058145 503.003404 
L 806.749559 503.003404 
L 812.431074 503.003404 
" clip-path="url(#pf92f3fba29)" style="fill: none; stroke: #2ca02c; stroke-width: 2; stroke-linecap: square"/>
    <defs>
     <path id="mbdbb69547a" d="M 0 2 
C 0.530406 2 1.03916 1.789267 1.414214 1.414214 
C 1.789267 1.03916 2 0.530406 2 0 
C 2 -0.530406 1.789267 -1.03916 1.414214 -1.414214 
C 1.03916 -1.789267 0.530406 -2 0 -2 
C -0.530406 -2 -1.03916 -1.789267 -1.414214 -1.414214 
C -1.789267 -1.03916 -2 -0.530406 -2 0 
C -2 0.530406 -1.789267 1.03916 -1.414214 1.414214 
C -1.03916 1.789267 -0.530406 2 0 2 
z
" style="stroke: #2ca02c"/>
    </defs>
    <g clip-path="url(#pf92f3fba29)">
     <use xlink:href="#mbdbb69547a" x="90.538515" y="507.799943" style="fill: #2ca02c; stroke: #2ca02c"/>
     <use xlink:href="#mbdbb69547a" x="101.912616" y="507.799943" style="fill: #2ca02c; stroke: #2ca02c"/>
     <use xlink:href="#mbdbb69547a" x="113.271888" y="507.799943" style="fill: #2ca02c; stroke: #2ca02c"/>
     <use xlink:href="#mbdbb69547a" x="124.633867" y="507.799943" style="fill: #2ca02c; stroke: #2ca02c"/>
     <use xlink:href="#mbdbb69547a" x="135.978376" y="507.799943" style="fill: #2ca02c; stroke: #2ca02c"/>
     <use xlink:href="#mbdbb69547a" x="147.343817" y="507.799943" style="fill: #2ca02c; stroke: #2ca02c"/>
     <use xlink:href="#mbdbb69547a" x="153.024941" y="507.799943" style="fill: #2ca02c; stroke: #2ca02c"/>
     <use xlink:href="#mbdbb69547a" x="158.694145" y="507.799943" style="fill: #2ca02c; stroke: #2ca02c"/>
     <use xlink:href="#mbdbb69547a" x="164.378501" y="507.799943" style="fill: #2ca02c; stroke: #2ca02c"/>
     <use xlink:href="#mbdbb69547a" x="170.063047" y="507.799943" style="fill: #2ca02c; stroke: #2ca02c"/>
     <use xlink:href="#mbdbb69547a" x="175.747659" y="507.799943" style="fill: #2ca02c; stroke: #2ca02c"/>
     <use xlink:href="#mbdbb69547a" x="181.435356" y="507.799943" style="fill: #2ca02c; stroke: #2ca02c"/>
     <use xlink:href="#mbdbb69547a" x="187.115766" y="507.799943" style="fill: #2ca02c; stroke: #2ca02c"/>
     <use xlink:href="#mbdbb69547a" x="192.796446" y="507.799943" style="fill: #2ca02c; stroke: #2ca02c"/>
     <use xlink:href="#mbdbb69547a" x="198.475307" y="501.227599" style="fill: #2ca02c; stroke: #2ca02c"/>
     <use xlink:href="#mbdbb69547a" x="204.159125" y="500.056475" style="fill: #2ca02c; stroke: #2ca02c"/>
     <use xlink:href="#mbdbb69547a" x="209.828531" y="501.227599" style="fill: #2ca02c; stroke: #2ca02c"/>
     <use xlink:href="#mbdbb69547a" x="215.497237" y="500.59802" style="fill: #2ca02c; stroke: #2ca02c"/>
     <use xlink:href="#mbdbb69547a" x="221.165134" y="500.422841" style="fill: #2ca02c; stroke: #2ca02c"/>
     <use xlink:href="#mbdbb69547a" x="226.913564" y="498.030796" style="fill: #2ca02c; stroke: #2ca02c"/>
     <use xlink:href="#mbdbb69547a" x="232.60118" y="499.901748" style="fill: #2ca02c; stroke: #2ca02c"/>
     <use xlink:href="#mbdbb69547a" x="238.310549" y="499.594962" style="fill: #2ca02c; stroke: #2ca02c"/>
     <use xlink:href="#mbdbb69547a" x="243.996064" y="499.761249" style="fill: #2ca02c; stroke: #2ca02c"/>
     <use xlink:href="#mbdbb69547a" x="249.711615" y="500.791874" style="fill: #2ca02c; stroke: #2ca02c"/>
     <use xlink:href="#mbdbb69547a" x="255.379189" y="498.23532" style="fill: #2ca02c; stroke: #2ca02c"/>
     <use xlink:href="#mbdbb69547a" x="261.062482" y="497.883182" style="fill: #2ca02c; stroke: #2ca02c"/>
     <use xlink:href="#mbdbb69547a" x="266.749182" y="500.576678" style="fill: #2ca02c; stroke: #2ca02c"/>
     <use xlink:href="#mbdbb69547a" x="272.437889" y="501.41256" style="fill: #2ca02c; stroke: #2ca02c"/>
     <use xlink:href="#mbdbb69547a" x="278.12327" y="498.671046" style="fill: #2ca02c; stroke: #2ca02c"/>
     <use xlink:href="#mbdbb69547a" x="283.790911" y="500.165851" style="fill: #2ca02c; stroke: #2ca02c"/>
     <use xlink:href="#mbdbb69547a" x="289.459994" y="499.998675" style="fill: #2ca02c; stroke: #2ca02c"/>
     <use xlink:href="#mbdbb69547a" x="295.129077" y="497.814711" style="fill: #2ca02c; stroke: #2ca02c"/>
     <use xlink:href="#mbdbb69547a" x="300.814161" y="499.44557" style="fill: #2ca02c; stroke: #2ca02c"/>
     <use xlink:href="#mbdbb69547a" x="306.498437" y="500.713621" style="fill: #2ca02c; stroke: #2ca02c"/>
     <use xlink:href="#mbdbb69547a" x="312.166698" y="500.804323" style="fill: #2ca02c; stroke: #2ca02c"/>
     <use xlink:href="#mbdbb69547a" x="317.834662" y="499.973776" style="fill: #2ca02c; stroke: #2ca02c"/>
     <use xlink:href="#mbdbb69547a" x="323.519275" y="501.196476" style="fill: #2ca02c; stroke: #2ca02c"/>
     <use xlink:href="#mbdbb69547a" x="329.191159" y="499.401998" style="fill: #2ca02c; stroke: #2ca02c"/>
     <use xlink:href="#mbdbb69547a" x="334.868297" y="499.835945" style="fill: #2ca02c; stroke: #2ca02c"/>
     <use xlink:href="#mbdbb69547a" x="340.541151" y="498.288674" style="fill: #2ca02c; stroke: #2ca02c"/>
     <use xlink:href="#mbdbb69547a" x="346.226369" y="501.734464" style="fill: #2ca02c; stroke: #2ca02c"/>
     <use xlink:href="#mbdbb69547a" x="351.892219" y="501.489035" style="fill: #2ca02c; stroke: #2ca02c"/>
     <use xlink:href="#mbdbb69547a" x="357.581344" y="500.866569" style="fill: #2ca02c; stroke: #2ca02c"/>
     <use xlink:href="#mbdbb69547a" x="363.265405" y="501.175134" style="fill: #2ca02c; stroke: #2ca02c"/>
     <use xlink:href="#mbdbb69547a" x="368.951405" y="499.25972" style="fill: #2ca02c; stroke: #2ca02c"/>
     <use xlink:href="#mbdbb69547a" x="374.620043" y="500.833668" style="fill: #2ca02c; stroke: #2ca02c"/>
     <use xlink:href="#mbdbb69547a" x="380.346288" y="499.21348" style="fill: #2ca02c; stroke: #2ca02c"/>
     <use xlink:href="#mbdbb69547a" x="386.015587" y="501.130673" style="fill: #2ca02c; stroke: #2ca02c"/>
     <use xlink:href="#mbdbb69547a" x="391.742412" y="500.383714" style="fill: #2ca02c; stroke: #2ca02c"/>
     <use xlink:href="#mbdbb69547a" x="397.476779" y="499.486475" style="fill: #2ca02c; stroke: #2ca02c"/>
     <use xlink:href="#mbdbb69547a" x="403.163924" y="497.857395" style="fill: #2ca02c; stroke: #2ca02c"/>
     <use xlink:href="#mbdbb69547a" x="408.829006" y="501.967444" style="fill: #2ca02c; stroke: #2ca02c"/>
     <use xlink:href="#mbdbb69547a" x="414.496877" y="501.754027" style="fill: #2ca02c; stroke: #2ca02c"/>
     <use xlink:href="#mbdbb69547a" x="420.181274" y="502.022576" style="fill: #2ca02c; stroke: #2ca02c"/>
     <use xlink:href="#mbdbb69547a" x="425.848781" y="497.94365" style="fill: #2ca02c; stroke: #2ca02c"/>
     <use xlink:href="#mbdbb69547a" x="431.514415" y="500.988395" style="fill: #2ca02c; stroke: #2ca02c"/>
     <use xlink:href="#mbdbb69547a" x="437.181909" y="498.897801" style="fill: #2ca02c; stroke: #2ca02c"/>
     <use xlink:href="#mbdbb69547a" x="442.848782" y="498.544774" style="fill: #2ca02c; stroke: #2ca02c"/>
     <use xlink:href="#mbdbb69547a" x="448.536251" y="502.035915" style="fill: #2ca02c; stroke: #2ca02c"/>
     <use xlink:href="#mbdbb69547a" x="454.204902" y="500.216538" style="fill: #2ca02c; stroke: #2ca02c"/>
     <use xlink:href="#mbdbb69547a" x="459.929734" y="501.286289" style="fill: #2ca02c; stroke: #2ca02c"/>
     <use xlink:href="#mbdbb69547a" x="465.596217" y="501.520158" style="fill: #2ca02c; stroke: #2ca02c"/>
     <use xlink:href="#mbdbb69547a" x="471.260922" y="500.33036" style="fill: #2ca02c; stroke: #2ca02c"/>
     <use xlink:href="#mbdbb69547a" x="476.927109" y="499.217926" style="fill: #2ca02c; stroke: #2ca02c"/>
     <use xlink:href="#mbdbb69547a" x="482.612772" y="501.079986" style="fill: #2ca02c; stroke: #2ca02c"/>
     <use xlink:href="#mbdbb69547a" x="488.281801" y="500.231655" style="fill: #2ca02c; stroke: #2ca02c"/>
     <use xlink:href="#mbdbb69547a" x="493.947166" y="497.400327" style="fill: #2ca02c; stroke: #2ca02c"/>
     <use xlink:href="#mbdbb69547a" x="499.672658" y="498.504758" style="fill: #2ca02c; stroke: #2ca02c"/>
     <use xlink:href="#mbdbb69547a" x="505.357041" y="500.840782" style="fill: #2ca02c; stroke: #2ca02c"/>
     <use xlink:href="#mbdbb69547a" x="511.021464" y="500.781203" style="fill: #2ca02c; stroke: #2ca02c"/>
     <use xlink:href="#mbdbb69547a" x="516.710817" y="501.764698" style="fill: #2ca02c; stroke: #2ca02c"/>
     <use xlink:href="#mbdbb69547a" x="522.425682" y="499.835056" style="fill: #2ca02c; stroke: #2ca02c"/>
     <use xlink:href="#mbdbb69547a" x="528.102226" y="501.972779" style="fill: #2ca02c; stroke: #2ca02c"/>
     <use xlink:href="#mbdbb69547a" x="533.872247" y="499.111217" style="fill: #2ca02c; stroke: #2ca02c"/>
     <use xlink:href="#mbdbb69547a" x="539.539632" y="501.814495" style="fill: #2ca02c; stroke: #2ca02c"/>
     <use xlink:href="#mbdbb69547a" x="545.207153" y="500.776757" style="fill: #2ca02c; stroke: #2ca02c"/>
     <use xlink:href="#mbdbb69547a" x="550.875279" y="499.594962" style="fill: #2ca02c; stroke: #2ca02c"/>
     <use xlink:href="#mbdbb69547a" x="556.560713" y="501.601078" style="fill: #2ca02c; stroke: #2ca02c"/>
     <use xlink:href="#mbdbb69547a" x="562.245865" y="499.413558" style="fill: #2ca02c; stroke: #2ca02c"/>
     <use xlink:href="#mbdbb69547a" x="567.92944" y="500.285009" style="fill: #2ca02c; stroke: #2ca02c"/>
     <use xlink:href="#mbdbb69547a" x="573.615696" y="498.761748" style="fill: #2ca02c; stroke: #2ca02c"/>
     <use xlink:href="#mbdbb69547a" x="579.300295" y="501.37788" style="fill: #2ca02c; stroke: #2ca02c"/>
     <use xlink:href="#mbdbb69547a" x="584.985904" y="499.319299" style="fill: #2ca02c; stroke: #2ca02c"/>
     <use xlink:href="#mbdbb69547a" x="590.668591" y="498.71284" style="fill: #2ca02c; stroke: #2ca02c"/>
     <use xlink:href="#mbdbb69547a" x="596.355143" y="497.637753" style="fill: #2ca02c; stroke: #2ca02c"/>
     <use xlink:href="#mbdbb69547a" x="602.040995" y="500.715399" style="fill: #2ca02c; stroke: #2ca02c"/>
     <use xlink:href="#mbdbb69547a" x="607.709404" y="502.165743" style="fill: #2ca02c; stroke: #2ca02c"/>
     <use xlink:href="#mbdbb69547a" x="613.437711" y="498.501201" style="fill: #2ca02c; stroke: #2ca02c"/>
     <use xlink:href="#mbdbb69547a" x="619.102699" y="498.937816" style="fill: #2ca02c; stroke: #2ca02c"/>
     <use xlink:href="#mbdbb69547a" x="624.769128" y="501.604635" style="fill: #2ca02c; stroke: #2ca02c"/>
     <use xlink:href="#mbdbb69547a" x="630.454549" y="501.23827" style="fill: #2ca02c; stroke: #2ca02c"/>
     <use xlink:href="#mbdbb69547a" x="636.139741" y="501.194698" style="fill: #2ca02c; stroke: #2ca02c"/>
     <use xlink:href="#mbdbb69547a" x="641.825498" y="502.131952" style="fill: #2ca02c; stroke: #2ca02c"/>
     <use xlink:href="#mbdbb69547a" x="647.513666" y="500.145399" style="fill: #2ca02c; stroke: #2ca02c"/>
     <use xlink:href="#mbdbb69547a" x="653.182561" y="500.903917" style="fill: #2ca02c; stroke: #2ca02c"/>
     <use xlink:href="#mbdbb69547a" x="658.909049" y="500.506429" style="fill: #2ca02c; stroke: #2ca02c"/>
     <use xlink:href="#mbdbb69547a" x="664.592921" y="501.679331" style="fill: #2ca02c; stroke: #2ca02c"/>
     <use xlink:href="#mbdbb69547a" x="670.279082" y="500.845228" style="fill: #2ca02c; stroke: #2ca02c"/>
     <use xlink:href="#mbdbb69547a" x="675.967439" y="500.597131" style="fill: #2ca02c; stroke: #2ca02c"/>
     <use xlink:href="#mbdbb69547a" x="681.638394" y="498.882684" style="fill: #2ca02c; stroke: #2ca02c"/>
     <use xlink:href="#mbdbb69547a" x="687.330684" y="500.662045" style="fill: #2ca02c; stroke: #2ca02c"/>
     <use xlink:href="#mbdbb69547a" x="692.998272" y="499.286397" style="fill: #2ca02c; stroke: #2ca02c"/>
     <use xlink:href="#mbdbb69547a" x="698.722847" y="500.01646" style="fill: #2ca02c; stroke: #2ca02c"/>
     <use xlink:href="#mbdbb69547a" x="704.40781" y="500.835446" style="fill: #2ca02c; stroke: #2ca02c"/>
     <use xlink:href="#mbdbb69547a" x="710.075748" y="499.268612" style="fill: #2ca02c; stroke: #2ca02c"/>
     <use xlink:href="#mbdbb69547a" x="715.743066" y="497.855616" style="fill: #2ca02c; stroke: #2ca02c"/>
     <use xlink:href="#mbdbb69547a" x="721.409428" y="499.395773" style="fill: #2ca02c; stroke: #2ca02c"/>
     <use xlink:href="#mbdbb69547a" x="727.138044" y="497.866287" style="fill: #2ca02c; stroke: #2ca02c"/>
     <use xlink:href="#mbdbb69547a" x="732.805848" y="498.794649" style="fill: #2ca02c; stroke: #2ca02c"/>
     <use xlink:href="#mbdbb69547a" x="738.533494" y="499.935539" style="fill: #2ca02c; stroke: #2ca02c"/>
     <use xlink:href="#mbdbb69547a" x="744.202025" y="499.873293" style="fill: #2ca02c; stroke: #2ca02c"/>
     <use xlink:href="#mbdbb69547a" x="749.888617" y="500.268114" style="fill: #2ca02c; stroke: #2ca02c"/>
     <use xlink:href="#mbdbb69547a" x="755.579372" y="500.138285" style="fill: #2ca02c; stroke: #2ca02c"/>
     <use xlink:href="#mbdbb69547a" x="761.246528" y="503.003404" style="fill: #2ca02c; stroke: #2ca02c"/>
     <use xlink:href="#mbdbb69547a" x="766.921376" y="503.003404" style="fill: #2ca02c; stroke: #2ca02c"/>
     <use xlink:href="#mbdbb69547a" x="772.616616" y="503.003404" style="fill: #2ca02c; stroke: #2ca02c"/>
     <use xlink:href="#mbdbb69547a" x="778.300231" y="503.003404" style="fill: #2ca02c; stroke: #2ca02c"/>
     <use xlink:href="#mbdbb69547a" x="783.982783" y="503.003404" style="fill: #2ca02c; stroke: #2ca02c"/>
     <use xlink:href="#mbdbb69547a" x="789.676865" y="503.003404" style="fill: #2ca02c; stroke: #2ca02c"/>
     <use xlink:href="#mbdbb69547a" x="795.360454" y="503.003404" style="fill: #2ca02c; stroke: #2ca02c"/>
     <use xlink:href="#mbdbb69547a" x="801.058145" y="503.003404" style="fill: #2ca02c; stroke: #2ca02c"/>
     <use xlink:href="#mbdbb69547a" x="806.749559" y="503.003404" style="fill: #2ca02c; stroke: #2ca02c"/>
     <use xlink:href="#mbdbb69547a" x="812.431074" y="503.003404" style="fill: #2ca02c; stroke: #2ca02c"/>
    </g>
   </g>
   <g id="line2d_34">
    <path d="M 89.499034 264.370676 
L 101.133884 264.370676 
L 112.610122 264.370676 
L 124.014475 264.370676 
L 135.458561 264.370676 
L 146.930664 264.370676 
L 152.733334 264.286199 
L 158.540516 264.286199 
L 164.323655 264.286199 
L 170.109677 264.286199 
L 175.917465 264.286199 
L 181.723677 264.286199 
L 187.592143 264.286199 
L 193.377357 264.286199 
L 199.099293 255.951389 
L 204.841917 248.804599 
L 210.584447 239.488962 
L 216.410674 227.213058 
L 222.185233 214.246217 
L 227.987944 208.543546 
L 233.751593 203.507802 
L 239.623333 197.760669 
L 245.379965 191.620494 
L 251.183308 175.98061 
L 256.931347 160.402083 
L 262.699657 147.475258 
L 268.4528 135.224253 
L 274.21781 131.722441 
L 279.965984 129.790131 
L 285.712379 129.132096 
L 291.630897 128.191284 
L 297.371999 128.177946 
L 303.16784 126.893889 
L 308.897601 126.099801 
L 314.689213 123.787787 
L 320.433615 122.833637 
L 326.179431 120.562528 
L 332.051777 117.78989 
L 337.856588 115.564132 
L 343.586174 110.536391 
L 349.363616 105.778089 
L 355.130956 98.298724 
L 361.004083 94.418987 
L 366.797095 89.076457 
L 372.532918 80.27213 
L 378.267447 76.021582 
L 384.189184 70.385604 
L 389.948483 66.211529 
L 395.713183 64.816318 
L 401.482126 64.078252 
L 407.321136 63.478018 
L 413.080152 62.90446 
L 418.85587 62.767518 
L 424.712429 62.360248 
L 430.449545 62.225973 
L 436.194176 61.489686 
L 441.934052 60.779186 
L 447.720465 60.489295 
L 453.525545 60.489295 
L 459.402201 60.043788 
L 465.203686 59.51736 
L 470.966365 57.938077 
L 476.729341 54.960025 
L 482.473851 53.611943 
L 488.219331 50.912223 
L 494.054744 50.031879 
L 499.821249 49.428977 
L 505.588616 49.428977 
L 511.3517 49.194219 
L 517.211425 49.194219 
L 522.963572 49.135529 
L 528.738307 49.076839 
L 534.502791 49.01815 
L 540.24617 48.137806 
L 546.06375 47.551799 
L 551.805876 47.082283 
L 557.571559 46.730145 
L 563.355049 46.554077 
L 569.13637 45.90938 
L 574.912465 45.733312 
L 580.717007 45.542126 
L 586.48925 45.590145 
L 592.207764 45.701299 
L 597.968989 45.696853 
L 603.717984 45.715527 
L 609.459073 45.715527 
L 615.217928 45.656837 
L 621.081842 45.656837 
L 626.945755 45.656837 
L 632.709041 45.656837 
L 638.520695 45.481658 
L 644.280331 45.585698 
L 650.052506 45.585698 
L 655.900163 45.585698 
L 661.665119 45.585698 
L 667.473553 45.585698 
L 673.245662 45.527009 
L 679.110626 45.494996 
L 684.880108 45.494996 
L 690.695721 45.494996 
L 696.467614 45.436307 
L 702.210077 45.436307 
L 707.956324 45.494996 
L 713.696254 45.494996 
L 719.468538 45.494996 
L 725.229588 45.494996 
L 731.090552 45.494996 
L 736.973551 45.849802 
L 742.751115 46.479381 
L 748.506117 46.622548 
L 754.251907 46.784389 
L 759.99748 46.940005 
L 765.717867 46.940005 
L 771.428502 46.940005 
L 777.228545 46.940005 
L 783.043391 46.940005 
L 788.851354 46.940005 
L 794.655479 46.940005 
L 800.452033 46.940005 
L 806.240426 46.940005 
L 812.06435 46.940005 
" clip-path="url(#pf92f3fba29)" style="fill: none; stroke: #1f77b4; stroke-width: 2; stroke-linecap: square"/>
    <defs>
     <path id="m6a58087fb6" d="M 0 2 
C 0.530406 2 1.03916 1.789267 1.414214 1.414214 
C 1.789267 1.03916 2 0.530406 2 0 
C 2 -0.530406 1.789267 -1.03916 1.414214 -1.414214 
C 1.03916 -1.789267 0.530406 -2 0 -2 
C -0.530406 -2 -1.03916 -1.789267 -1.414214 -1.414214 
C -1.789267 -1.03916 -2 -0.530406 -2 0 
C -2 0.530406 -1.789267 1.03916 -1.414214 1.414214 
C -1.03916 1.789267 -0.530406 2 0 2 
z
" style="stroke: #1f77b4"/>
    </defs>
    <g clip-path="url(#pf92f3fba29)">
     <use xlink:href="#m6a58087fb6" x="89.499034" y="264.370676" style="fill: #1f77b4; stroke: #1f77b4"/>
     <use xlink:href="#m6a58087fb6" x="101.133884" y="264.370676" style="fill: #1f77b4; stroke: #1f77b4"/>
     <use xlink:href="#m6a58087fb6" x="112.610122" y="264.370676" style="fill: #1f77b4; stroke: #1f77b4"/>
     <use xlink:href="#m6a58087fb6" x="124.014475" y="264.370676" style="fill: #1f77b4; stroke: #1f77b4"/>
     <use xlink:href="#m6a58087fb6" x="135.458561" y="264.370676" style="fill: #1f77b4; stroke: #1f77b4"/>
     <use xlink:href="#m6a58087fb6" x="146.930664" y="264.370676" style="fill: #1f77b4; stroke: #1f77b4"/>
     <use xlink:href="#m6a58087fb6" x="152.733334" y="264.286199" style="fill: #1f77b4; stroke: #1f77b4"/>
     <use xlink:href="#m6a58087fb6" x="158.540516" y="264.286199" style="fill: #1f77b4; stroke: #1f77b4"/>
     <use xlink:href="#m6a58087fb6" x="164.323655" y="264.286199" style="fill: #1f77b4; stroke: #1f77b4"/>
     <use xlink:href="#m6a58087fb6" x="170.109677" y="264.286199" style="fill: #1f77b4; stroke: #1f77b4"/>
     <use xlink:href="#m6a58087fb6" x="175.917465" y="264.286199" style="fill: #1f77b4; stroke: #1f77b4"/>
     <use xlink:href="#m6a58087fb6" x="181.723677" y="264.286199" style="fill: #1f77b4; stroke: #1f77b4"/>
     <use xlink:href="#m6a58087fb6" x="187.592143" y="264.286199" style="fill: #1f77b4; stroke: #1f77b4"/>
     <use xlink:href="#m6a58087fb6" x="193.377357" y="264.286199" style="fill: #1f77b4; stroke: #1f77b4"/>
     <use xlink:href="#m6a58087fb6" x="199.099293" y="255.951389" style="fill: #1f77b4; stroke: #1f77b4"/>
     <use xlink:href="#m6a58087fb6" x="204.841917" y="248.804599" style="fill: #1f77b4; stroke: #1f77b4"/>
     <use xlink:href="#m6a58087fb6" x="210.584447" y="239.488962" style="fill: #1f77b4; stroke: #1f77b4"/>
     <use xlink:href="#m6a58087fb6" x="216.410674" y="227.213058" style="fill: #1f77b4; stroke: #1f77b4"/>
     <use xlink:href="#m6a58087fb6" x="222.185233" y="214.246217" style="fill: #1f77b4; stroke: #1f77b4"/>
     <use xlink:href="#m6a58087fb6" x="227.987944" y="208.543546" style="fill: #1f77b4; stroke: #1f77b4"/>
     <use xlink:href="#m6a58087fb6" x="233.751593" y="203.507802" style="fill: #1f77b4; stroke: #1f77b4"/>
     <use xlink:href="#m6a58087fb6" x="239.623333" y="197.760669" style="fill: #1f77b4; stroke: #1f77b4"/>
     <use xlink:href="#m6a58087fb6" x="245.379965" y="191.620494" style="fill: #1f77b4; stroke: #1f77b4"/>
     <use xlink:href="#m6a58087fb6" x="251.183308" y="175.98061" style="fill: #1f77b4; stroke: #1f77b4"/>
     <use xlink:href="#m6a58087fb6" x="256.931347" y="160.402083" style="fill: #1f77b4; stroke: #1f77b4"/>
     <use xlink:href="#m6a58087fb6" x="262.699657" y="147.475258" style="fill: #1f77b4; stroke: #1f77b4"/>
     <use xlink:href="#m6a58087fb6" x="268.4528" y="135.224253" style="fill: #1f77b4; stroke: #1f77b4"/>
     <use xlink:href="#m6a58087fb6" x="274.21781" y="131.722441" style="fill: #1f77b4; stroke: #1f77b4"/>
     <use xlink:href="#m6a58087fb6" x="279.965984" y="129.790131" style="fill: #1f77b4; stroke: #1f77b4"/>
     <use xlink:href="#m6a58087fb6" x="285.712379" y="129.132096" style="fill: #1f77b4; stroke: #1f77b4"/>
     <use xlink:href="#m6a58087fb6" x="291.630897" y="128.191284" style="fill: #1f77b4; stroke: #1f77b4"/>
     <use xlink:href="#m6a58087fb6" x="297.371999" y="128.177946" style="fill: #1f77b4; stroke: #1f77b4"/>
     <use xlink:href="#m6a58087fb6" x="303.16784" y="126.893889" style="fill: #1f77b4; stroke: #1f77b4"/>
     <use xlink:href="#m6a58087fb6" x="308.897601" y="126.099801" style="fill: #1f77b4; stroke: #1f77b4"/>
     <use xlink:href="#m6a58087fb6" x="314.689213" y="123.787787" style="fill: #1f77b4; stroke: #1f77b4"/>
     <use xlink:href="#m6a58087fb6" x="320.433615" y="122.833637" style="fill: #1f77b4; stroke: #1f77b4"/>
     <use xlink:href="#m6a58087fb6" x="326.179431" y="120.562528" style="fill: #1f77b4; stroke: #1f77b4"/>
     <use xlink:href="#m6a58087fb6" x="332.051777" y="117.78989" style="fill: #1f77b4; stroke: #1f77b4"/>
     <use xlink:href="#m6a58087fb6" x="337.856588" y="115.564132" style="fill: #1f77b4; stroke: #1f77b4"/>
     <use xlink:href="#m6a58087fb6" x="343.586174" y="110.536391" style="fill: #1f77b4; stroke: #1f77b4"/>
     <use xlink:href="#m6a58087fb6" x="349.363616" y="105.778089" style="fill: #1f77b4; stroke: #1f77b4"/>
     <use xlink:href="#m6a58087fb6" x="355.130956" y="98.298724" style="fill: #1f77b4; stroke: #1f77b4"/>
     <use xlink:href="#m6a58087fb6" x="361.004083" y="94.418987" style="fill: #1f77b4; stroke: #1f77b4"/>
     <use xlink:href="#m6a58087fb6" x="366.797095" y="89.076457" style="fill: #1f77b4; stroke: #1f77b4"/>
     <use xlink:href="#m6a58087fb6" x="372.532918" y="80.27213" style="fill: #1f77b4; stroke: #1f77b4"/>
     <use xlink:href="#m6a58087fb6" x="378.267447" y="76.021582" style="fill: #1f77b4; stroke: #1f77b4"/>
     <use xlink:href="#m6a58087fb6" x="384.189184" y="70.385604" style="fill: #1f77b4; stroke: #1f77b4"/>
     <use xlink:href="#m6a58087fb6" x="389.948483" y="66.211529" style="fill: #1f77b4; stroke: #1f77b4"/>
     <use xlink:href="#m6a58087fb6" x="395.713183" y="64.816318" style="fill: #1f77b4; stroke: #1f77b4"/>
     <use xlink:href="#m6a58087fb6" x="401.482126" y="64.078252" style="fill: #1f77b4; stroke: #1f77b4"/>
     <use xlink:href="#m6a58087fb6" x="407.321136" y="63.478018" style="fill: #1f77b4; stroke: #1f77b4"/>
     <use xlink:href="#m6a58087fb6" x="413.080152" y="62.90446" style="fill: #1f77b4; stroke: #1f77b4"/>
     <use xlink:href="#m6a58087fb6" x="418.85587" y="62.767518" style="fill: #1f77b4; stroke: #1f77b4"/>
     <use xlink:href="#m6a58087fb6" x="424.712429" y="62.360248" style="fill: #1f77b4; stroke: #1f77b4"/>
     <use xlink:href="#m6a58087fb6" x="430.449545" y="62.225973" style="fill: #1f77b4; stroke: #1f77b4"/>
     <use xlink:href="#m6a58087fb6" x="436.194176" y="61.489686" style="fill: #1f77b4; stroke: #1f77b4"/>
     <use xlink:href="#m6a58087fb6" x="441.934052" y="60.779186" style="fill: #1f77b4; stroke: #1f77b4"/>
     <use xlink:href="#m6a58087fb6" x="447.720465" y="60.489295" style="fill: #1f77b4; stroke: #1f77b4"/>
     <use xlink:href="#m6a58087fb6" x="453.525545" y="60.489295" style="fill: #1f77b4; stroke: #1f77b4"/>
     <use xlink:href="#m6a58087fb6" x="459.402201" y="60.043788" style="fill: #1f77b4; stroke: #1f77b4"/>
     <use xlink:href="#m6a58087fb6" x="465.203686" y="59.51736" style="fill: #1f77b4; stroke: #1f77b4"/>
     <use xlink:href="#m6a58087fb6" x="470.966365" y="57.938077" style="fill: #1f77b4; stroke: #1f77b4"/>
     <use xlink:href="#m6a58087fb6" x="476.729341" y="54.960025" style="fill: #1f77b4; stroke: #1f77b4"/>
     <use xlink:href="#m6a58087fb6" x="482.473851" y="53.611943" style="fill: #1f77b4; stroke: #1f77b4"/>
     <use xlink:href="#m6a58087fb6" x="488.219331" y="50.912223" style="fill: #1f77b4; stroke: #1f77b4"/>
     <use xlink:href="#m6a58087fb6" x="494.054744" y="50.031879" style="fill: #1f77b4; stroke: #1f77b4"/>
     <use xlink:href="#m6a58087fb6" x="499.821249" y="49.428977" style="fill: #1f77b4; stroke: #1f77b4"/>
     <use xlink:href="#m6a58087fb6" x="505.588616" y="49.428977" style="fill: #1f77b4; stroke: #1f77b4"/>
     <use xlink:href="#m6a58087fb6" x="511.3517" y="49.194219" style="fill: #1f77b4; stroke: #1f77b4"/>
     <use xlink:href="#m6a58087fb6" x="517.211425" y="49.194219" style="fill: #1f77b4; stroke: #1f77b4"/>
     <use xlink:href="#m6a58087fb6" x="522.963572" y="49.135529" style="fill: #1f77b4; stroke: #1f77b4"/>
     <use xlink:href="#m6a58087fb6" x="528.738307" y="49.076839" style="fill: #1f77b4; stroke: #1f77b4"/>
     <use xlink:href="#m6a58087fb6" x="534.502791" y="49.01815" style="fill: #1f77b4; stroke: #1f77b4"/>
     <use xlink:href="#m6a58087fb6" x="540.24617" y="48.137806" style="fill: #1f77b4; stroke: #1f77b4"/>
     <use xlink:href="#m6a58087fb6" x="546.06375" y="47.551799" style="fill: #1f77b4; stroke: #1f77b4"/>
     <use xlink:href="#m6a58087fb6" x="551.805876" y="47.082283" style="fill: #1f77b4; stroke: #1f77b4"/>
     <use xlink:href="#m6a58087fb6" x="557.571559" y="46.730145" style="fill: #1f77b4; stroke: #1f77b4"/>
     <use xlink:href="#m6a58087fb6" x="563.355049" y="46.554077" style="fill: #1f77b4; stroke: #1f77b4"/>
     <use xlink:href="#m6a58087fb6" x="569.13637" y="45.90938" style="fill: #1f77b4; stroke: #1f77b4"/>
     <use xlink:href="#m6a58087fb6" x="574.912465" y="45.733312" style="fill: #1f77b4; stroke: #1f77b4"/>
     <use xlink:href="#m6a58087fb6" x="580.717007" y="45.542126" style="fill: #1f77b4; stroke: #1f77b4"/>
     <use xlink:href="#m6a58087fb6" x="586.48925" y="45.590145" style="fill: #1f77b4; stroke: #1f77b4"/>
     <use xlink:href="#m6a58087fb6" x="592.207764" y="45.701299" style="fill: #1f77b4; stroke: #1f77b4"/>
     <use xlink:href="#m6a58087fb6" x="597.968989" y="45.696853" style="fill: #1f77b4; stroke: #1f77b4"/>
     <use xlink:href="#m6a58087fb6" x="603.717984" y="45.715527" style="fill: #1f77b4; stroke: #1f77b4"/>
     <use xlink:href="#m6a58087fb6" x="609.459073" y="45.715527" style="fill: #1f77b4; stroke: #1f77b4"/>
     <use xlink:href="#m6a58087fb6" x="615.217928" y="45.656837" style="fill: #1f77b4; stroke: #1f77b4"/>
     <use xlink:href="#m6a58087fb6" x="621.081842" y="45.656837" style="fill: #1f77b4; stroke: #1f77b4"/>
     <use xlink:href="#m6a58087fb6" x="626.945755" y="45.656837" style="fill: #1f77b4; stroke: #1f77b4"/>
     <use xlink:href="#m6a58087fb6" x="632.709041" y="45.656837" style="fill: #1f77b4; stroke: #1f77b4"/>
     <use xlink:href="#m6a58087fb6" x="638.520695" y="45.481658" style="fill: #1f77b4; stroke: #1f77b4"/>
     <use xlink:href="#m6a58087fb6" x="644.280331" y="45.585698" style="fill: #1f77b4; stroke: #1f77b4"/>
     <use xlink:href="#m6a58087fb6" x="650.052506" y="45.585698" style="fill: #1f77b4; stroke: #1f77b4"/>
     <use xlink:href="#m6a58087fb6" x="655.900163" y="45.585698" style="fill: #1f77b4; stroke: #1f77b4"/>
     <use xlink:href="#m6a58087fb6" x="661.665119" y="45.585698" style="fill: #1f77b4; stroke: #1f77b4"/>
     <use xlink:href="#m6a58087fb6" x="667.473553" y="45.585698" style="fill: #1f77b4; stroke: #1f77b4"/>
     <use xlink:href="#m6a58087fb6" x="673.245662" y="45.527009" style="fill: #1f77b4; stroke: #1f77b4"/>
     <use xlink:href="#m6a58087fb6" x="679.110626" y="45.494996" style="fill: #1f77b4; stroke: #1f77b4"/>
     <use xlink:href="#m6a58087fb6" x="684.880108" y="45.494996" style="fill: #1f77b4; stroke: #1f77b4"/>
     <use xlink:href="#m6a58087fb6" x="690.695721" y="45.494996" style="fill: #1f77b4; stroke: #1f77b4"/>
     <use xlink:href="#m6a58087fb6" x="696.467614" y="45.436307" style="fill: #1f77b4; stroke: #1f77b4"/>
     <use xlink:href="#m6a58087fb6" x="702.210077" y="45.436307" style="fill: #1f77b4; stroke: #1f77b4"/>
     <use xlink:href="#m6a58087fb6" x="707.956324" y="45.494996" style="fill: #1f77b4; stroke: #1f77b4"/>
     <use xlink:href="#m6a58087fb6" x="713.696254" y="45.494996" style="fill: #1f77b4; stroke: #1f77b4"/>
     <use xlink:href="#m6a58087fb6" x="719.468538" y="45.494996" style="fill: #1f77b4; stroke: #1f77b4"/>
     <use xlink:href="#m6a58087fb6" x="725.229588" y="45.494996" style="fill: #1f77b4; stroke: #1f77b4"/>
     <use xlink:href="#m6a58087fb6" x="731.090552" y="45.494996" style="fill: #1f77b4; stroke: #1f77b4"/>
     <use xlink:href="#m6a58087fb6" x="736.973551" y="45.849802" style="fill: #1f77b4; stroke: #1f77b4"/>
     <use xlink:href="#m6a58087fb6" x="742.751115" y="46.479381" style="fill: #1f77b4; stroke: #1f77b4"/>
     <use xlink:href="#m6a58087fb6" x="748.506117" y="46.622548" style="fill: #1f77b4; stroke: #1f77b4"/>
     <use xlink:href="#m6a58087fb6" x="754.251907" y="46.784389" style="fill: #1f77b4; stroke: #1f77b4"/>
     <use xlink:href="#m6a58087fb6" x="759.99748" y="46.940005" style="fill: #1f77b4; stroke: #1f77b4"/>
     <use xlink:href="#m6a58087fb6" x="765.717867" y="46.940005" style="fill: #1f77b4; stroke: #1f77b4"/>
     <use xlink:href="#m6a58087fb6" x="771.428502" y="46.940005" style="fill: #1f77b4; stroke: #1f77b4"/>
     <use xlink:href="#m6a58087fb6" x="777.228545" y="46.940005" style="fill: #1f77b4; stroke: #1f77b4"/>
     <use xlink:href="#m6a58087fb6" x="783.043391" y="46.940005" style="fill: #1f77b4; stroke: #1f77b4"/>
     <use xlink:href="#m6a58087fb6" x="788.851354" y="46.940005" style="fill: #1f77b4; stroke: #1f77b4"/>
     <use xlink:href="#m6a58087fb6" x="794.655479" y="46.940005" style="fill: #1f77b4; stroke: #1f77b4"/>
     <use xlink:href="#m6a58087fb6" x="800.452033" y="46.940005" style="fill: #1f77b4; stroke: #1f77b4"/>
     <use xlink:href="#m6a58087fb6" x="806.240426" y="46.940005" style="fill: #1f77b4; stroke: #1f77b4"/>
     <use xlink:href="#m6a58087fb6" x="812.06435" y="46.940005" style="fill: #1f77b4; stroke: #1f77b4"/>
    </g>
   </g>
   <g id="line2d_35">
    <path d="M 112.028672 404.136358 
L 123.596527 404.136358 
L 135.060535 404.136358 
L 146.528987 404.136358 
L 152.331522 404.136358 
L 158.146112 404.136358 
L 163.972218 404.136358 
L 169.785447 404.136358 
L 175.624066 404.136358 
L 181.472248 404.136358 
L 187.320134 404.136358 
L 193.137323 404.136358 
L 198.932046 401.929274 
L 204.678065 401.713189 
L 210.433377 401.713189 
L 216.193969 401.713189 
L 222.12834 401.713189 
L 227.891222 401.713189 
L 233.739107 401.713189 
L 239.508198 401.713189 
L 245.324997 401.713189 
L 251.146281 401.713189 
L 256.894697 401.713189 
L 262.65409 401.713189 
L 268.455844 401.713189 
L 274.333362 401.713189 
L 280.208092 401.713189 
L 285.975728 401.713189 
L 291.775502 401.713189 
L 297.541482 401.713189 
L 303.283836 401.713189 
L 309.027228 401.713189 
L 314.837266 401.713189 
L 320.636608 401.713189 
L 326.381267 401.713189 
L 332.124968 401.713189 
L 337.868616 401.713189 
L 343.682802 401.708743 
L 349.44664 401.708743 
L 355.240285 401.633158 
L 361.109129 401.554905 
L 366.86467 401.461536 
L 372.813278 401.461536 
L 378.625672 401.436637 
L 384.464062 401.436637 
L 390.227106 401.436637 
L 395.992223 401.436637 
L 401.79562 401.436637 
L 407.58501 401.436637 
L 413.387747 401.436637 
L 419.141483 401.436637 
L 424.904863 401.436637 
L 430.712867 401.436637 
L 436.499885 401.436637 
L 442.244112 401.436637 
L 448.050971 401.436637 
L 453.873804 401.436637 
L 459.648053 401.436637 
L 465.454037 401.436637 
L 471.314677 401.436637 
L 477.099851 401.42152 
L 482.844159 401.42152 
L 488.588103 401.42152 
L 494.348641 401.42152 
L 500.114675 401.42152 
L 505.972379 401.42152 
L 511.781756 401.42152 
L 517.543682 401.42152 
L 523.308423 401.42152 
L 529.03316 401.42152 
L 534.859414 401.42152 
L 540.622309 401.42152 
L 546.431619 401.42152 
L 552.246169 401.42152 
L 558.076531 401.42152 
L 563.842282 401.42152 
L 569.649517 401.42152 
L 575.46699 401.42152 
L 581.232121 401.42152 
L 587.03677 401.42152 
L 592.783826 401.42152 
L 598.590887 401.42152 
L 604.425424 401.42152 
L 610.174662 401.42152 
L 615.919414 401.42152 
L 621.688074 401.42152 
L 627.471672 401.42152 
L 633.296552 401.42152 
L 639.042315 401.42152 
L 644.782541 401.42152 
L 650.534553 401.42152 
L 656.380163 401.42152 
L 662.239174 401.42152 
L 668.061185 401.42152 
L 673.826465 401.42152 
L 679.614628 401.42152 
L 685.357737 401.42152 
L 691.204249 401.42152 
L 697.026557 401.42152 
L 702.852245 401.42152 
L 708.59988 401.42152 
L 714.342854 401.42152 
L 720.189783 401.42152 
L 725.96045 401.42152 
L 731.721756 401.42152 
L 737.522958 401.42152 
L 743.302084 401.42152 
L 749.070084 401.42152 
L 754.814028 401.42152 
L 760.576815 401.420631 
L 766.357315 401.420631 
L 772.185414 401.420631 
L 778.00224 401.420631 
L 783.81749 401.420631 
L 789.619513 401.420631 
L 795.443949 401.420631 
L 801.252464 401.420631 
L 807.076011 401.420631 
L 812.917216 401.420631 
" clip-path="url(#pf92f3fba29)" style="fill: none; stroke: #ff7f0e; stroke-width: 2; stroke-linecap: square"/>
    <defs>
     <path id="m1041bce0ac" d="M 0 2 
C 0.530406 2 1.03916 1.789267 1.414214 1.414214 
C 1.789267 1.03916 2 0.530406 2 0 
C 2 -0.530406 1.789267 -1.03916 1.414214 -1.414214 
C 1.03916 -1.789267 0.530406 -2 0 -2 
C -0.530406 -2 -1.03916 -1.789267 -1.414214 -1.414214 
C -1.789267 -1.03916 -2 -0.530406 -2 0 
C -2 0.530406 -1.789267 1.03916 -1.414214 1.414214 
C -1.03916 1.789267 -0.530406 2 0 2 
z
" style="stroke: #ff7f0e"/>
    </defs>
    <g clip-path="url(#pf92f3fba29)">
     <use xlink:href="#m1041bce0ac" x="112.028672" y="404.136358" style="fill: #ff7f0e; stroke: #ff7f0e"/>
     <use xlink:href="#m1041bce0ac" x="123.596527" y="404.136358" style="fill: #ff7f0e; stroke: #ff7f0e"/>
     <use xlink:href="#m1041bce0ac" x="135.060535" y="404.136358" style="fill: #ff7f0e; stroke: #ff7f0e"/>
     <use xlink:href="#m1041bce0ac" x="146.528987" y="404.136358" style="fill: #ff7f0e; stroke: #ff7f0e"/>
     <use xlink:href="#m1041bce0ac" x="152.331522" y="404.136358" style="fill: #ff7f0e; stroke: #ff7f0e"/>
     <use xlink:href="#m1041bce0ac" x="158.146112" y="404.136358" style="fill: #ff7f0e; stroke: #ff7f0e"/>
     <use xlink:href="#m1041bce0ac" x="163.972218" y="404.136358" style="fill: #ff7f0e; stroke: #ff7f0e"/>
     <use xlink:href="#m1041bce0ac" x="169.785447" y="404.136358" style="fill: #ff7f0e; stroke: #ff7f0e"/>
     <use xlink:href="#m1041bce0ac" x="175.624066" y="404.136358" style="fill: #ff7f0e; stroke: #ff7f0e"/>
     <use xlink:href="#m1041bce0ac" x="181.472248" y="404.136358" style="fill: #ff7f0e; stroke: #ff7f0e"/>
     <use xlink:href="#m1041bce0ac" x="187.320134" y="404.136358" style="fill: #ff7f0e; stroke: #ff7f0e"/>
     <use xlink:href="#m1041bce0ac" x="193.137323" y="404.136358" style="fill: #ff7f0e; stroke: #ff7f0e"/>
     <use xlink:href="#m1041bce0ac" x="198.932046" y="401.929274" style="fill: #ff7f0e; stroke: #ff7f0e"/>
     <use xlink:href="#m1041bce0ac" x="204.678065" y="401.713189" style="fill: #ff7f0e; stroke: #ff7f0e"/>
     <use xlink:href="#m1041bce0ac" x="210.433377" y="401.713189" style="fill: #ff7f0e; stroke: #ff7f0e"/>
     <use xlink:href="#m1041bce0ac" x="216.193969" y="401.713189" style="fill: #ff7f0e; stroke: #ff7f0e"/>
     <use xlink:href="#m1041bce0ac" x="222.12834" y="401.713189" style="fill: #ff7f0e; stroke: #ff7f0e"/>
     <use xlink:href="#m1041bce0ac" x="227.891222" y="401.713189" style="fill: #ff7f0e; stroke: #ff7f0e"/>
     <use xlink:href="#m1041bce0ac" x="233.739107" y="401.713189" style="fill: #ff7f0e; stroke: #ff7f0e"/>
     <use xlink:href="#m1041bce0ac" x="239.508198" y="401.713189" style="fill: #ff7f0e; stroke: #ff7f0e"/>
     <use xlink:href="#m1041bce0ac" x="245.324997" y="401.713189" style="fill: #ff7f0e; stroke: #ff7f0e"/>
     <use xlink:href="#m1041bce0ac" x="251.146281" y="401.713189" style="fill: #ff7f0e; stroke: #ff7f0e"/>
     <use xlink:href="#m1041bce0ac" x="256.894697" y="401.713189" style="fill: #ff7f0e; stroke: #ff7f0e"/>
     <use xlink:href="#m1041bce0ac" x="262.65409" y="401.713189" style="fill: #ff7f0e; stroke: #ff7f0e"/>
     <use xlink:href="#m1041bce0ac" x="268.455844" y="401.713189" style="fill: #ff7f0e; stroke: #ff7f0e"/>
     <use xlink:href="#m1041bce0ac" x="274.333362" y="401.713189" style="fill: #ff7f0e; stroke: #ff7f0e"/>
     <use xlink:href="#m1041bce0ac" x="280.208092" y="401.713189" style="fill: #ff7f0e; stroke: #ff7f0e"/>
     <use xlink:href="#m1041bce0ac" x="285.975728" y="401.713189" style="fill: #ff7f0e; stroke: #ff7f0e"/>
     <use xlink:href="#m1041bce0ac" x="291.775502" y="401.713189" style="fill: #ff7f0e; stroke: #ff7f0e"/>
     <use xlink:href="#m1041bce0ac" x="297.541482" y="401.713189" style="fill: #ff7f0e; stroke: #ff7f0e"/>
     <use xlink:href="#m1041bce0ac" x="303.283836" y="401.713189" style="fill: #ff7f0e; stroke: #ff7f0e"/>
     <use xlink:href="#m1041bce0ac" x="309.027228" y="401.713189" style="fill: #ff7f0e; stroke: #ff7f0e"/>
     <use xlink:href="#m1041bce0ac" x="314.837266" y="401.713189" style="fill: #ff7f0e; stroke: #ff7f0e"/>
     <use xlink:href="#m1041bce0ac" x="320.636608" y="401.713189" style="fill: #ff7f0e; stroke: #ff7f0e"/>
     <use xlink:href="#m1041bce0ac" x="326.381267" y="401.713189" style="fill: #ff7f0e; stroke: #ff7f0e"/>
     <use xlink:href="#m1041bce0ac" x="332.124968" y="401.713189" style="fill: #ff7f0e; stroke: #ff7f0e"/>
     <use xlink:href="#m1041bce0ac" x="337.868616" y="401.713189" style="fill: #ff7f0e; stroke: #ff7f0e"/>
     <use xlink:href="#m1041bce0ac" x="343.682802" y="401.708743" style="fill: #ff7f0e; stroke: #ff7f0e"/>
     <use xlink:href="#m1041bce0ac" x="349.44664" y="401.708743" style="fill: #ff7f0e; stroke: #ff7f0e"/>
     <use xlink:href="#m1041bce0ac" x="355.240285" y="401.633158" style="fill: #ff7f0e; stroke: #ff7f0e"/>
     <use xlink:href="#m1041bce0ac" x="361.109129" y="401.554905" style="fill: #ff7f0e; stroke: #ff7f0e"/>
     <use xlink:href="#m1041bce0ac" x="366.86467" y="401.461536" style="fill: #ff7f0e; stroke: #ff7f0e"/>
     <use xlink:href="#m1041bce0ac" x="372.813278" y="401.461536" style="fill: #ff7f0e; stroke: #ff7f0e"/>
     <use xlink:href="#m1041bce0ac" x="378.625672" y="401.436637" style="fill: #ff7f0e; stroke: #ff7f0e"/>
     <use xlink:href="#m1041bce0ac" x="384.464062" y="401.436637" style="fill: #ff7f0e; stroke: #ff7f0e"/>
     <use xlink:href="#m1041bce0ac" x="390.227106" y="401.436637" style="fill: #ff7f0e; stroke: #ff7f0e"/>
     <use xlink:href="#m1041bce0ac" x="395.992223" y="401.436637" style="fill: #ff7f0e; stroke: #ff7f0e"/>
     <use xlink:href="#m1041bce0ac" x="401.79562" y="401.436637" style="fill: #ff7f0e; stroke: #ff7f0e"/>
     <use xlink:href="#m1041bce0ac" x="407.58501" y="401.436637" style="fill: #ff7f0e; stroke: #ff7f0e"/>
     <use xlink:href="#m1041bce0ac" x="413.387747" y="401.436637" style="fill: #ff7f0e; stroke: #ff7f0e"/>
     <use xlink:href="#m1041bce0ac" x="419.141483" y="401.436637" style="fill: #ff7f0e; stroke: #ff7f0e"/>
     <use xlink:href="#m1041bce0ac" x="424.904863" y="401.436637" style="fill: #ff7f0e; stroke: #ff7f0e"/>
     <use xlink:href="#m1041bce0ac" x="430.712867" y="401.436637" style="fill: #ff7f0e; stroke: #ff7f0e"/>
     <use xlink:href="#m1041bce0ac" x="436.499885" y="401.436637" style="fill: #ff7f0e; stroke: #ff7f0e"/>
     <use xlink:href="#m1041bce0ac" x="442.244112" y="401.436637" style="fill: #ff7f0e; stroke: #ff7f0e"/>
     <use xlink:href="#m1041bce0ac" x="448.050971" y="401.436637" style="fill: #ff7f0e; stroke: #ff7f0e"/>
     <use xlink:href="#m1041bce0ac" x="453.873804" y="401.436637" style="fill: #ff7f0e; stroke: #ff7f0e"/>
     <use xlink:href="#m1041bce0ac" x="459.648053" y="401.436637" style="fill: #ff7f0e; stroke: #ff7f0e"/>
     <use xlink:href="#m1041bce0ac" x="465.454037" y="401.436637" style="fill: #ff7f0e; stroke: #ff7f0e"/>
     <use xlink:href="#m1041bce0ac" x="471.314677" y="401.436637" style="fill: #ff7f0e; stroke: #ff7f0e"/>
     <use xlink:href="#m1041bce0ac" x="477.099851" y="401.42152" style="fill: #ff7f0e; stroke: #ff7f0e"/>
     <use xlink:href="#m1041bce0ac" x="482.844159" y="401.42152" style="fill: #ff7f0e; stroke: #ff7f0e"/>
     <use xlink:href="#m1041bce0ac" x="488.588103" y="401.42152" style="fill: #ff7f0e; stroke: #ff7f0e"/>
     <use xlink:href="#m1041bce0ac" x="494.348641" y="401.42152" style="fill: #ff7f0e; stroke: #ff7f0e"/>
     <use xlink:href="#m1041bce0ac" x="500.114675" y="401.42152" style="fill: #ff7f0e; stroke: #ff7f0e"/>
     <use xlink:href="#m1041bce0ac" x="505.972379" y="401.42152" style="fill: #ff7f0e; stroke: #ff7f0e"/>
     <use xlink:href="#m1041bce0ac" x="511.781756" y="401.42152" style="fill: #ff7f0e; stroke: #ff7f0e"/>
     <use xlink:href="#m1041bce0ac" x="517.543682" y="401.42152" style="fill: #ff7f0e; stroke: #ff7f0e"/>
     <use xlink:href="#m1041bce0ac" x="523.308423" y="401.42152" style="fill: #ff7f0e; stroke: #ff7f0e"/>
     <use xlink:href="#m1041bce0ac" x="529.03316" y="401.42152" style="fill: #ff7f0e; stroke: #ff7f0e"/>
     <use xlink:href="#m1041bce0ac" x="534.859414" y="401.42152" style="fill: #ff7f0e; stroke: #ff7f0e"/>
     <use xlink:href="#m1041bce0ac" x="540.622309" y="401.42152" style="fill: #ff7f0e; stroke: #ff7f0e"/>
     <use xlink:href="#m1041bce0ac" x="546.431619" y="401.42152" style="fill: #ff7f0e; stroke: #ff7f0e"/>
     <use xlink:href="#m1041bce0ac" x="552.246169" y="401.42152" style="fill: #ff7f0e; stroke: #ff7f0e"/>
     <use xlink:href="#m1041bce0ac" x="558.076531" y="401.42152" style="fill: #ff7f0e; stroke: #ff7f0e"/>
     <use xlink:href="#m1041bce0ac" x="563.842282" y="401.42152" style="fill: #ff7f0e; stroke: #ff7f0e"/>
     <use xlink:href="#m1041bce0ac" x="569.649517" y="401.42152" style="fill: #ff7f0e; stroke: #ff7f0e"/>
     <use xlink:href="#m1041bce0ac" x="575.46699" y="401.42152" style="fill: #ff7f0e; stroke: #ff7f0e"/>
     <use xlink:href="#m1041bce0ac" x="581.232121" y="401.42152" style="fill: #ff7f0e; stroke: #ff7f0e"/>
     <use xlink:href="#m1041bce0ac" x="587.03677" y="401.42152" style="fill: #ff7f0e; stroke: #ff7f0e"/>
     <use xlink:href="#m1041bce0ac" x="592.783826" y="401.42152" style="fill: #ff7f0e; stroke: #ff7f0e"/>
     <use xlink:href="#m1041bce0ac" x="598.590887" y="401.42152" style="fill: #ff7f0e; stroke: #ff7f0e"/>
     <use xlink:href="#m1041bce0ac" x="604.425424" y="401.42152" style="fill: #ff7f0e; stroke: #ff7f0e"/>
     <use xlink:href="#m1041bce0ac" x="610.174662" y="401.42152" style="fill: #ff7f0e; stroke: #ff7f0e"/>
     <use xlink:href="#m1041bce0ac" x="615.919414" y="401.42152" style="fill: #ff7f0e; stroke: #ff7f0e"/>
     <use xlink:href="#m1041bce0ac" x="621.688074" y="401.42152" style="fill: #ff7f0e; stroke: #ff7f0e"/>
     <use xlink:href="#m1041bce0ac" x="627.471672" y="401.42152" style="fill: #ff7f0e; stroke: #ff7f0e"/>
     <use xlink:href="#m1041bce0ac" x="633.296552" y="401.42152" style="fill: #ff7f0e; stroke: #ff7f0e"/>
     <use xlink:href="#m1041bce0ac" x="639.042315" y="401.42152" style="fill: #ff7f0e; stroke: #ff7f0e"/>
     <use xlink:href="#m1041bce0ac" x="644.782541" y="401.42152" style="fill: #ff7f0e; stroke: #ff7f0e"/>
     <use xlink:href="#m1041bce0ac" x="650.534553" y="401.42152" style="fill: #ff7f0e; stroke: #ff7f0e"/>
     <use xlink:href="#m1041bce0ac" x="656.380163" y="401.42152" style="fill: #ff7f0e; stroke: #ff7f0e"/>
     <use xlink:href="#m1041bce0ac" x="662.239174" y="401.42152" style="fill: #ff7f0e; stroke: #ff7f0e"/>
     <use xlink:href="#m1041bce0ac" x="668.061185" y="401.42152" style="fill: #ff7f0e; stroke: #ff7f0e"/>
     <use xlink:href="#m1041bce0ac" x="673.826465" y="401.42152" style="fill: #ff7f0e; stroke: #ff7f0e"/>
     <use xlink:href="#m1041bce0ac" x="679.614628" y="401.42152" style="fill: #ff7f0e; stroke: #ff7f0e"/>
     <use xlink:href="#m1041bce0ac" x="685.357737" y="401.42152" style="fill: #ff7f0e; stroke: #ff7f0e"/>
     <use xlink:href="#m1041bce0ac" x="691.204249" y="401.42152" style="fill: #ff7f0e; stroke: #ff7f0e"/>
     <use xlink:href="#m1041bce0ac" x="697.026557" y="401.42152" style="fill: #ff7f0e; stroke: #ff7f0e"/>
     <use xlink:href="#m1041bce0ac" x="702.852245" y="401.42152" style="fill: #ff7f0e; stroke: #ff7f0e"/>
     <use xlink:href="#m1041bce0ac" x="708.59988" y="401.42152" style="fill: #ff7f0e; stroke: #ff7f0e"/>
     <use xlink:href="#m1041bce0ac" x="714.342854" y="401.42152" style="fill: #ff7f0e; stroke: #ff7f0e"/>
     <use xlink:href="#m1041bce0ac" x="720.189783" y="401.42152" style="fill: #ff7f0e; stroke: #ff7f0e"/>
     <use xlink:href="#m1041bce0ac" x="725.96045" y="401.42152" style="fill: #ff7f0e; stroke: #ff7f0e"/>
     <use xlink:href="#m1041bce0ac" x="731.721756" y="401.42152" style="fill: #ff7f0e; stroke: #ff7f0e"/>
     <use xlink:href="#m1041bce0ac" x="737.522958" y="401.42152" style="fill: #ff7f0e; stroke: #ff7f0e"/>
     <use xlink:href="#m1041bce0ac" x="743.302084" y="401.42152" style="fill: #ff7f0e; stroke: #ff7f0e"/>
     <use xlink:href="#m1041bce0ac" x="749.070084" y="401.42152" style="fill: #ff7f0e; stroke: #ff7f0e"/>
     <use xlink:href="#m1041bce0ac" x="754.814028" y="401.42152" style="fill: #ff7f0e; stroke: #ff7f0e"/>
     <use xlink:href="#m1041bce0ac" x="760.576815" y="401.420631" style="fill: #ff7f0e; stroke: #ff7f0e"/>
     <use xlink:href="#m1041bce0ac" x="766.357315" y="401.420631" style="fill: #ff7f0e; stroke: #ff7f0e"/>
     <use xlink:href="#m1041bce0ac" x="772.185414" y="401.420631" style="fill: #ff7f0e; stroke: #ff7f0e"/>
     <use xlink:href="#m1041bce0ac" x="778.00224" y="401.420631" style="fill: #ff7f0e; stroke: #ff7f0e"/>
     <use xlink:href="#m1041bce0ac" x="783.81749" y="401.420631" style="fill: #ff7f0e; stroke: #ff7f0e"/>
     <use xlink:href="#m1041bce0ac" x="789.619513" y="401.420631" style="fill: #ff7f0e; stroke: #ff7f0e"/>
     <use xlink:href="#m1041bce0ac" x="795.443949" y="401.420631" style="fill: #ff7f0e; stroke: #ff7f0e"/>
     <use xlink:href="#m1041bce0ac" x="801.252464" y="401.420631" style="fill: #ff7f0e; stroke: #ff7f0e"/>
     <use xlink:href="#m1041bce0ac" x="807.076011" y="401.420631" style="fill: #ff7f0e; stroke: #ff7f0e"/>
     <use xlink:href="#m1041bce0ac" x="812.917216" y="401.420631" style="fill: #ff7f0e; stroke: #ff7f0e"/>
    </g>
   </g>
   <g id="patch_3">
    <path d="M 53.328125 530.918125 
L 53.328125 22.318125 
" style="fill: none; stroke: #000000; stroke-width: 0.8; stroke-linejoin: miter; stroke-linecap: square"/>
   </g>
   <g id="patch_4">
    <path d="M 849.088125 530.918125 
L 849.088125 22.318125 
" style="fill: none; stroke: #000000; stroke-width: 0.8; stroke-linejoin: miter; stroke-linecap: square"/>
   </g>
   <g id="patch_5">
    <path d="M 53.328125 530.918125 
L 849.088125 530.918125 
" style="fill: none; stroke: #000000; stroke-width: 0.8; stroke-linejoin: miter; stroke-linecap: square"/>
   </g>
   <g id="patch_6">
    <path d="M 53.328125 22.318125 
L 849.088125 22.318125 
" style="fill: none; stroke: #000000; stroke-width: 0.8; stroke-linejoin: miter; stroke-linecap: square"/>
   </g>
   <g id="text_19">
    <!-- Memory Usage Comparison Over Time -->
    <g transform="translate(335.446563 16.318125) scale(0.12 -0.12)">
     <defs>
      <path id="DejaVuSans-43" d="M 4122 4306 
L 4122 3641 
Q 3803 3938 3442 4084 
Q 3081 4231 2675 4231 
Q 1875 4231 1450 3742 
Q 1025 3253 1025 2328 
Q 1025 1406 1450 917 
Q 1875 428 2675 428 
Q 3081 428 3442 575 
Q 3803 722 4122 1019 
L 4122 359 
Q 3791 134 3420 21 
Q 3050 -91 2638 -91 
Q 1578 -91 968 557 
Q 359 1206 359 2328 
Q 359 3453 968 4101 
Q 1578 4750 2638 4750 
Q 3056 4750 3426 4639 
Q 3797 4528 4122 4306 
z
" transform="scale(0.015625)"/>
      <path id="DejaVuSans-4f" d="M 2522 4238 
Q 1834 4238 1429 3725 
Q 1025 3213 1025 2328 
Q 1025 1447 1429 934 
Q 1834 422 2522 422 
Q 3209 422 3611 934 
Q 4013 1447 4013 2328 
Q 4013 3213 3611 3725 
Q 3209 4238 2522 4238 
z
M 2522 4750 
Q 3503 4750 4090 4092 
Q 4678 3434 4678 2328 
Q 4678 1225 4090 567 
Q 3503 -91 2522 -91 
Q 1538 -91 948 565 
Q 359 1222 359 2328 
Q 359 3434 948 4092 
Q 1538 4750 2522 4750 
z
" transform="scale(0.015625)"/>
      <path id="DejaVuSans-76" d="M 191 3500 
L 800 3500 
L 1894 563 
L 2988 3500 
L 3597 3500 
L 2284 0 
L 1503 0 
L 191 3500 
z
" transform="scale(0.015625)"/>
     </defs>
     <use xlink:href="#DejaVuSans-4d"/>
     <use xlink:href="#DejaVuSans-65" x="86.279297"/>
     <use xlink:href="#DejaVuSans-6d" x="147.802734"/>
     <use xlink:href="#DejaVuSans-6f" x="245.214844"/>
     <use xlink:href="#DejaVuSans-72" x="306.396484"/>
     <use xlink:href="#DejaVuSans-79" x="347.509766"/>
     <use xlink:href="#DejaVuSans-20" x="406.689453"/>
     <use xlink:href="#DejaVuSans-55" x="438.476562"/>
     <use xlink:href="#DejaVuSans-73" x="511.669922"/>
     <use xlink:href="#DejaVuSans-61" x="563.769531"/>
     <use xlink:href="#DejaVuSans-67" x="625.048828"/>
     <use xlink:href="#DejaVuSans-65" x="688.525391"/>
     <use xlink:href="#DejaVuSans-20" x="750.048828"/>
     <use xlink:href="#DejaVuSans-43" x="781.835938"/>
     <use xlink:href="#DejaVuSans-6f" x="851.660156"/>
     <use xlink:href="#DejaVuSans-6d" x="912.841797"/>
     <use xlink:href="#DejaVuSans-70" x="1010.253906"/>
     <use xlink:href="#DejaVuSans-61" x="1073.730469"/>
     <use xlink:href="#DejaVuSans-72" x="1135.009766"/>
     <use xlink:href="#DejaVuSans-69" x="1176.123047"/>
     <use xlink:href="#DejaVuSans-73" x="1203.90625"/>
     <use xlink:href="#DejaVuSans-6f" x="1256.005859"/>
     <use xlink:href="#DejaVuSans-6e" x="1317.1875"/>
     <use xlink:href="#DejaVuSans-20" x="1380.566406"/>
     <use xlink:href="#DejaVuSans-4f" x="1412.353516"/>
     <use xlink:href="#DejaVuSans-76" x="1491.064453"/>
     <use xlink:href="#DejaVuSans-65" x="1550.244141"/>
     <use xlink:href="#DejaVuSans-72" x="1611.767578"/>
     <use xlink:href="#DejaVuSans-20" x="1652.880859"/>
     <use xlink:href="#DejaVuSans-54" x="1684.667969"/>
     <use xlink:href="#DejaVuSans-69" x="1742.626953"/>
     <use xlink:href="#DejaVuSans-6d" x="1770.410156"/>
     <use xlink:href="#DejaVuSans-65" x="1867.822266"/>
    </g>
   </g>
   <g id="legend_1">
    <g id="patch_7">
     <path d="M 60.328125 74.3525 
L 128.970313 74.3525 
Q 130.970313 74.3525 130.970313 72.3525 
L 130.970313 29.318125 
Q 130.970313 27.318125 128.970313 27.318125 
L 60.328125 27.318125 
Q 58.328125 27.318125 58.328125 29.318125 
L 58.328125 72.3525 
Q 58.328125 74.3525 60.328125 74.3525 
z
" style="fill: #ffffff; opacity: 0.8; stroke: #cccccc; stroke-linejoin: miter"/>
    </g>
    <g id="line2d_36">
     <path d="M 62.328125 35.416562 
L 72.328125 35.416562 
L 82.328125 35.416562 
" style="fill: none; stroke: #2ca02c; stroke-width: 2; stroke-linecap: square"/>
     <g>
      <use xlink:href="#mbdbb69547a" x="72.328125" y="35.416562" style="fill: #2ca02c; stroke: #2ca02c"/>
     </g>
    </g>
    <g id="text_20">
     <!-- weaver -->
     <g transform="translate(90.328125 38.916562) scale(0.1 -0.1)">
      <defs>
       <path id="DejaVuSans-77" d="M 269 3500 
L 844 3500 
L 1563 769 
L 2278 3500 
L 2956 3500 
L 3675 769 
L 4391 3500 
L 4966 3500 
L 4050 0 
L 3372 0 
L 2619 2869 
L 1863 0 
L 1184 0 
L 269 3500 
z
" transform="scale(0.015625)"/>
      </defs>
      <use xlink:href="#DejaVuSans-77"/>
      <use xlink:href="#DejaVuSans-65" x="81.787109"/>
      <use xlink:href="#DejaVuSans-61" x="143.310547"/>
      <use xlink:href="#DejaVuSans-76" x="204.589844"/>
      <use xlink:href="#DejaVuSans-65" x="263.769531"/>
      <use xlink:href="#DejaVuSans-72" x="325.292969"/>
     </g>
    </g>
    <g id="line2d_37">
     <path d="M 62.328125 50.094687 
L 72.328125 50.094687 
L 82.328125 50.094687 
" style="fill: none; stroke: #1f77b4; stroke-width: 2; stroke-linecap: square"/>
     <g>
      <use xlink:href="#m6a58087fb6" x="72.328125" y="50.094687" style="fill: #1f77b4; stroke: #1f77b4"/>
     </g>
    </g>
    <g id="text_21">
     <!-- node -->
     <g transform="translate(90.328125 53.594687) scale(0.1 -0.1)">
      <use xlink:href="#DejaVuSans-6e"/>
      <use xlink:href="#DejaVuSans-6f" x="63.378906"/>
      <use xlink:href="#DejaVuSans-64" x="124.560547"/>
      <use xlink:href="#DejaVuSans-65" x="188.037109"/>
     </g>
    </g>
    <g id="line2d_38">
     <path d="M 62.328125 64.772812 
L 72.328125 64.772812 
L 82.328125 64.772812 
" style="fill: none; stroke: #ff7f0e; stroke-width: 2; stroke-linecap: square"/>
     <g>
      <use xlink:href="#m1041bce0ac" x="72.328125" y="64.772812" style="fill: #ff7f0e; stroke: #ff7f0e"/>
     </g>
    </g>
    <g id="text_22">
     <!-- python -->
     <g transform="translate(90.328125 68.272812) scale(0.1 -0.1)">
      <defs>
       <path id="DejaVuSans-74" d="M 1172 4494 
L 1172 3500 
L 2356 3500 
L 2356 3053 
L 1172 3053 
L 1172 1153 
Q 1172 725 1289 603 
Q 1406 481 1766 481 
L 2356 481 
L 2356 0 
L 1766 0 
Q 1100 0 847 248 
Q 594 497 594 1153 
L 594 3053 
L 172 3053 
L 172 3500 
L 594 3500 
L 594 4494 
L 1172 4494 
z
" transform="scale(0.015625)"/>
       <path id="DejaVuSans-68" d="M 3513 2113 
L 3513 0 
L 2938 0 
L 2938 2094 
Q 2938 2591 2744 2837 
Q 2550 3084 2163 3084 
Q 1697 3084 1428 2787 
Q 1159 2491 1159 1978 
L 1159 0 
L 581 0 
L 581 4863 
L 1159 4863 
L 1159 2956 
Q 1366 3272 1645 3428 
Q 1925 3584 2291 3584 
Q 2894 3584 3203 3211 
Q 3513 2838 3513 2113 
z
" transform="scale(0.015625)"/>
      </defs>
      <use xlink:href="#DejaVuSans-70"/>
      <use xlink:href="#DejaVuSans-79" x="63.476562"/>
      <use xlink:href="#DejaVuSans-74" x="122.65625"/>
      <use xlink:href="#DejaVuSans-68" x="161.865234"/>
      <use xlink:href="#DejaVuSans-6f" x="225.244141"/>
      <use xlink:href="#DejaVuSans-6e" x="286.425781"/>
     </g>
    </g>
   </g>
  </g>
 </g>
 <defs>
  <clipPath id="pf92f3fba29">
   <rect x="53.328125" y="22.318125" width="795.76" height="508.6"/>
  </clipPath>
 </defs>
</svg>
