<?xml version="1.0" encoding="utf-8" standalone="no"?>
<!DOCTYPE svg PUBLIC "-//W3C//DTD SVG 1.1//EN"
  "http://www.w3.org/Graphics/SVG/1.1/DTD/svg11.dtd">
<svg xmlns:xlink="http://www.w3.org/1999/xlink" width="856.233125pt" height="568.474375pt" viewBox="0 0 856.233125 568.474375" xmlns="http://www.w3.org/2000/svg" version="1.1">
 <metadata>
  <rdf:RDF xmlns:dc="http://purl.org/dc/elements/1.1/" xmlns:cc="http://creativecommons.org/ns#" xmlns:rdf="http://www.w3.org/1999/02/22-rdf-syntax-ns#">
   <cc:Work>
    <dc:type rdf:resource="http://purl.org/dc/dcmitype/StillImage"/>
    <dc:date>2025-06-28T07:46:44.182867</dc:date>
    <dc:format>image/svg+xml</dc:format>
    <dc:creator>
     <cc:Agent>
      <dc:title>Matplotlib v3.6.3, https://matplotlib.org/</dc:title>
     </cc:Agent>
    </dc:creator>
   </cc:Work>
  </rdf:RDF>
 </metadata>
 <defs>
  <style type="text/css">*{stroke-linejoin: round; stroke-linecap: butt}</style>
 </defs>
 <g id="figure_1">
  <g id="patch_1">
   <path d="M 0 568.474375 
L 856.233125 568.474375 
L 856.233125 0 
L 0 0 
z
" style="fill: #ffffff"/>
  </g>
  <g id="axes_1">
   <g id="patch_2">
    <path d="M 66.053125 530.918125 
L 849.033125 530.918125 
L 849.033125 22.318125 
L 66.053125 22.318125 
z
" style="fill: #ffffff"/>
   </g>
   <g id="matplotlib.axis_1">
    <g id="xtick_1">
     <g id="line2d_1">
      <path d="M 87.116594 530.918125 
L 87.116594 22.318125 
" clip-path="url(#pfb93e45159)" style="fill: none; stroke: #b0b0b0; stroke-opacity: 0.3; stroke-width: 0.8; stroke-linecap: square"/>
     </g>
     <g id="line2d_2">
      <defs>
       <path id="me0c4391e8e" d="M 0 0 
L 0 3.5 
" style="stroke: #000000; stroke-width: 0.8"/>
      </defs>
      <g>
       <use xlink:href="#me0c4391e8e" x="87.116594" y="530.918125" style="stroke: #000000; stroke-width: 0.8"/>
      </g>
     </g>
     <g id="text_1">
      <!-- 0 -->
      <g transform="translate(83.935344 545.516562) scale(0.1 -0.1)">
       <defs>
        <path id="DejaVuSans-30" d="M 2034 4250 
Q 1547 4250 1301 3770 
Q 1056 3291 1056 2328 
Q 1056 1369 1301 889 
Q 1547 409 2034 409 
Q 2525 409 2770 889 
Q 3016 1369 3016 2328 
Q 3016 3291 2770 3770 
Q 2525 4250 2034 4250 
z
M 2034 4750 
Q 2819 4750 3233 4129 
Q 3647 3509 3647 2328 
Q 3647 1150 3233 529 
Q 2819 -91 2034 -91 
Q 1250 -91 836 529 
Q 422 1150 422 2328 
Q 422 3509 836 4129 
Q 1250 4750 2034 4750 
z
" transform="scale(0.015625)"/>
       </defs>
       <use xlink:href="#DejaVuSans-30"/>
      </g>
     </g>
    </g>
    <g id="xtick_2">
     <g id="line2d_3">
      <path d="M 232.381901 530.918125 
L 232.381901 22.318125 
" clip-path="url(#pfb93e45159)" style="fill: none; stroke: #b0b0b0; stroke-opacity: 0.3; stroke-width: 0.8; stroke-linecap: square"/>
     </g>
     <g id="line2d_4">
      <g>
       <use xlink:href="#me0c4391e8e" x="232.381901" y="530.918125" style="stroke: #000000; stroke-width: 0.8"/>
      </g>
     </g>
     <g id="text_2">
      <!-- 2 -->
      <g transform="translate(229.200651 545.516562) scale(0.1 -0.1)">
       <defs>
        <path id="DejaVuSans-32" d="M 1228 531 
L 3431 531 
L 3431 0 
L 469 0 
L 469 531 
Q 828 903 1448 1529 
Q 2069 2156 2228 2338 
Q 2531 2678 2651 2914 
Q 2772 3150 2772 3378 
Q 2772 3750 2511 3984 
Q 2250 4219 1831 4219 
Q 1534 4219 1204 4116 
Q 875 4013 500 3803 
L 500 4441 
Q 881 4594 1212 4672 
Q 1544 4750 1819 4750 
Q 2544 4750 2975 4387 
Q 3406 4025 3406 3419 
Q 3406 3131 3298 2873 
Q 3191 2616 2906 2266 
Q 2828 2175 2409 1742 
Q 1991 1309 1228 531 
z
" transform="scale(0.015625)"/>
       </defs>
       <use xlink:href="#DejaVuSans-32"/>
      </g>
     </g>
    </g>
    <g id="xtick_3">
     <g id="line2d_5">
      <path d="M 377.647207 530.918125 
L 377.647207 22.318125 
" clip-path="url(#pfb93e45159)" style="fill: none; stroke: #b0b0b0; stroke-opacity: 0.3; stroke-width: 0.8; stroke-linecap: square"/>
     </g>
     <g id="line2d_6">
      <g>
       <use xlink:href="#me0c4391e8e" x="377.647207" y="530.918125" style="stroke: #000000; stroke-width: 0.8"/>
      </g>
     </g>
     <g id="text_3">
      <!-- 4 -->
      <g transform="translate(374.465957 545.516562) scale(0.1 -0.1)">
       <defs>
        <path id="DejaVuSans-34" d="M 2419 4116 
L 825 1625 
L 2419 1625 
L 2419 4116 
z
M 2253 4666 
L 3047 4666 
L 3047 1625 
L 3713 1625 
L 3713 1100 
L 3047 1100 
L 3047 0 
L 2419 0 
L 2419 1100 
L 313 1100 
L 313 1709 
L 2253 4666 
z
" transform="scale(0.015625)"/>
       </defs>
       <use xlink:href="#DejaVuSans-34"/>
      </g>
     </g>
    </g>
    <g id="xtick_4">
     <g id="line2d_7">
      <path d="M 522.912513 530.918125 
L 522.912513 22.318125 
" clip-path="url(#pfb93e45159)" style="fill: none; stroke: #b0b0b0; stroke-opacity: 0.3; stroke-width: 0.8; stroke-linecap: square"/>
     </g>
     <g id="line2d_8">
      <g>
       <use xlink:href="#me0c4391e8e" x="522.912513" y="530.918125" style="stroke: #000000; stroke-width: 0.8"/>
      </g>
     </g>
     <g id="text_4">
      <!-- 6 -->
      <g transform="translate(519.731263 545.516562) scale(0.1 -0.1)">
       <defs>
        <path id="DejaVuSans-36" d="M 2113 2584 
Q 1688 2584 1439 2293 
Q 1191 2003 1191 1497 
Q 1191 994 1439 701 
Q 1688 409 2113 409 
Q 2538 409 2786 701 
Q 3034 994 3034 1497 
Q 3034 2003 2786 2293 
Q 2538 2584 2113 2584 
z
M 3366 4563 
L 3366 3988 
Q 3128 4100 2886 4159 
Q 2644 4219 2406 4219 
Q 1781 4219 1451 3797 
Q 1122 3375 1075 2522 
Q 1259 2794 1537 2939 
Q 1816 3084 2150 3084 
Q 2853 3084 3261 2657 
Q 3669 2231 3669 1497 
Q 3669 778 3244 343 
Q 2819 -91 2113 -91 
Q 1303 -91 875 529 
Q 447 1150 447 2328 
Q 447 3434 972 4092 
Q 1497 4750 2381 4750 
Q 2619 4750 2861 4703 
Q 3103 4656 3366 4563 
z
" transform="scale(0.015625)"/>
       </defs>
       <use xlink:href="#DejaVuSans-36"/>
      </g>
     </g>
    </g>
    <g id="xtick_5">
     <g id="line2d_9">
      <path d="M 668.177819 530.918125 
L 668.177819 22.318125 
" clip-path="url(#pfb93e45159)" style="fill: none; stroke: #b0b0b0; stroke-opacity: 0.3; stroke-width: 0.8; stroke-linecap: square"/>
     </g>
     <g id="line2d_10">
      <g>
       <use xlink:href="#me0c4391e8e" x="668.177819" y="530.918125" style="stroke: #000000; stroke-width: 0.8"/>
      </g>
     </g>
     <g id="text_5">
      <!-- 8 -->
      <g transform="translate(664.996569 545.516562) scale(0.1 -0.1)">
       <defs>
        <path id="DejaVuSans-38" d="M 2034 2216 
Q 1584 2216 1326 1975 
Q 1069 1734 1069 1313 
Q 1069 891 1326 650 
Q 1584 409 2034 409 
Q 2484 409 2743 651 
Q 3003 894 3003 1313 
Q 3003 1734 2745 1975 
Q 2488 2216 2034 2216 
z
M 1403 2484 
Q 997 2584 770 2862 
Q 544 3141 544 3541 
Q 544 4100 942 4425 
Q 1341 4750 2034 4750 
Q 2731 4750 3128 4425 
Q 3525 4100 3525 3541 
Q 3525 3141 3298 2862 
Q 3072 2584 2669 2484 
Q 3125 2378 3379 2068 
Q 3634 1759 3634 1313 
Q 3634 634 3220 271 
Q 2806 -91 2034 -91 
Q 1263 -91 848 271 
Q 434 634 434 1313 
Q 434 1759 690 2068 
Q 947 2378 1403 2484 
z
M 1172 3481 
Q 1172 3119 1398 2916 
Q 1625 2713 2034 2713 
Q 2441 2713 2670 2916 
Q 2900 3119 2900 3481 
Q 2900 3844 2670 4047 
Q 2441 4250 2034 4250 
Q 1625 4250 1398 4047 
Q 1172 3844 1172 3481 
z
" transform="scale(0.015625)"/>
       </defs>
       <use xlink:href="#DejaVuSans-38"/>
      </g>
     </g>
    </g>
    <g id="xtick_6">
     <g id="line2d_11">
      <path d="M 813.443125 530.918125 
L 813.443125 22.318125 
" clip-path="url(#pfb93e45159)" style="fill: none; stroke: #b0b0b0; stroke-opacity: 0.3; stroke-width: 0.8; stroke-linecap: square"/>
     </g>
     <g id="line2d_12">
      <g>
       <use xlink:href="#me0c4391e8e" x="813.443125" y="530.918125" style="stroke: #000000; stroke-width: 0.8"/>
      </g>
     </g>
     <g id="text_6">
      <!-- 10 -->
      <g transform="translate(807.080625 545.516562) scale(0.1 -0.1)">
       <defs>
        <path id="DejaVuSans-31" d="M 794 531 
L 1825 531 
L 1825 4091 
L 703 3866 
L 703 4441 
L 1819 4666 
L 2450 4666 
L 2450 531 
L 3481 531 
L 3481 0 
L 794 0 
L 794 531 
z
" transform="scale(0.015625)"/>
       </defs>
       <use xlink:href="#DejaVuSans-31"/>
       <use xlink:href="#DejaVuSans-30" x="63.623047"/>
      </g>
     </g>
    </g>
    <g id="text_7">
     <!-- Elapsed Time (seconds) -->
     <g transform="translate(398.150156 559.194687) scale(0.1 -0.1)">
      <defs>
       <path id="DejaVuSans-45" d="M 628 4666 
L 3578 4666 
L 3578 4134 
L 1259 4134 
L 1259 2753 
L 3481 2753 
L 3481 2222 
L 1259 2222 
L 1259 531 
L 3634 531 
L 3634 0 
L 628 0 
L 628 4666 
z
" transform="scale(0.015625)"/>
       <path id="DejaVuSans-6c" d="M 603 4863 
L 1178 4863 
L 1178 0 
L 603 0 
L 603 4863 
z
" transform="scale(0.015625)"/>
       <path id="DejaVuSans-61" d="M 2194 1759 
Q 1497 1759 1228 1600 
Q 959 1441 959 1056 
Q 959 750 1161 570 
Q 1363 391 1709 391 
Q 2188 391 2477 730 
Q 2766 1069 2766 1631 
L 2766 1759 
L 2194 1759 
z
M 3341 1997 
L 3341 0 
L 2766 0 
L 2766 531 
Q 2569 213 2275 61 
Q 1981 -91 1556 -91 
Q 1019 -91 701 211 
Q 384 513 384 1019 
Q 384 1609 779 1909 
Q 1175 2209 1959 2209 
L 2766 2209 
L 2766 2266 
Q 2766 2663 2505 2880 
Q 2244 3097 1772 3097 
Q 1472 3097 1187 3025 
Q 903 2953 641 2809 
L 641 3341 
Q 956 3463 1253 3523 
Q 1550 3584 1831 3584 
Q 2591 3584 2966 3190 
Q 3341 2797 3341 1997 
z
" transform="scale(0.015625)"/>
       <path id="DejaVuSans-70" d="M 1159 525 
L 1159 -1331 
L 581 -1331 
L 581 3500 
L 1159 3500 
L 1159 2969 
Q 1341 3281 1617 3432 
Q 1894 3584 2278 3584 
Q 2916 3584 3314 3078 
Q 3713 2572 3713 1747 
Q 3713 922 3314 415 
Q 2916 -91 2278 -91 
Q 1894 -91 1617 61 
Q 1341 213 1159 525 
z
M 3116 1747 
Q 3116 2381 2855 2742 
Q 2594 3103 2138 3103 
Q 1681 3103 1420 2742 
Q 1159 2381 1159 1747 
Q 1159 1113 1420 752 
Q 1681 391 2138 391 
Q 2594 391 2855 752 
Q 3116 1113 3116 1747 
z
" transform="scale(0.015625)"/>
       <path id="DejaVuSans-73" d="M 2834 3397 
L 2834 2853 
Q 2591 2978 2328 3040 
Q 2066 3103 1784 3103 
Q 1356 3103 1142 2972 
Q 928 2841 928 2578 
Q 928 2378 1081 2264 
Q 1234 2150 1697 2047 
L 1894 2003 
Q 2506 1872 2764 1633 
Q 3022 1394 3022 966 
Q 3022 478 2636 193 
Q 2250 -91 1575 -91 
Q 1294 -91 989 -36 
Q 684 19 347 128 
L 347 722 
Q 666 556 975 473 
Q 1284 391 1588 391 
Q 1994 391 2212 530 
Q 2431 669 2431 922 
Q 2431 1156 2273 1281 
Q 2116 1406 1581 1522 
L 1381 1569 
Q 847 1681 609 1914 
Q 372 2147 372 2553 
Q 372 3047 722 3315 
Q 1072 3584 1716 3584 
Q 2034 3584 2315 3537 
Q 2597 3491 2834 3397 
z
" transform="scale(0.015625)"/>
       <path id="DejaVuSans-65" d="M 3597 1894 
L 3597 1613 
L 953 1613 
Q 991 1019 1311 708 
Q 1631 397 2203 397 
Q 2534 397 2845 478 
Q 3156 559 3463 722 
L 3463 178 
Q 3153 47 2828 -22 
Q 2503 -91 2169 -91 
Q 1331 -91 842 396 
Q 353 884 353 1716 
Q 353 2575 817 3079 
Q 1281 3584 2069 3584 
Q 2775 3584 3186 3129 
Q 3597 2675 3597 1894 
z
M 3022 2063 
Q 3016 2534 2758 2815 
Q 2500 3097 2075 3097 
Q 1594 3097 1305 2825 
Q 1016 2553 972 2059 
L 3022 2063 
z
" transform="scale(0.015625)"/>
       <path id="DejaVuSans-64" d="M 2906 2969 
L 2906 4863 
L 3481 4863 
L 3481 0 
L 2906 0 
L 2906 525 
Q 2725 213 2448 61 
Q 2172 -91 1784 -91 
Q 1150 -91 751 415 
Q 353 922 353 1747 
Q 353 2572 751 3078 
Q 1150 3584 1784 3584 
Q 2172 3584 2448 3432 
Q 2725 3281 2906 2969 
z
M 947 1747 
Q 947 1113 1208 752 
Q 1469 391 1925 391 
Q 2381 391 2643 752 
Q 2906 1113 2906 1747 
Q 2906 2381 2643 2742 
Q 2381 3103 1925 3103 
Q 1469 3103 1208 2742 
Q 947 2381 947 1747 
z
" transform="scale(0.015625)"/>
       <path id="DejaVuSans-20" transform="scale(0.015625)"/>
       <path id="DejaVuSans-54" d="M -19 4666 
L 3928 4666 
L 3928 4134 
L 2272 4134 
L 2272 0 
L 1638 0 
L 1638 4134 
L -19 4134 
L -19 4666 
z
" transform="scale(0.015625)"/>
       <path id="DejaVuSans-69" d="M 603 3500 
L 1178 3500 
L 1178 0 
L 603 0 
L 603 3500 
z
M 603 4863 
L 1178 4863 
L 1178 4134 
L 603 4134 
L 603 4863 
z
" transform="scale(0.015625)"/>
       <path id="DejaVuSans-6d" d="M 3328 2828 
Q 3544 3216 3844 3400 
Q 4144 3584 4550 3584 
Q 5097 3584 5394 3201 
Q 5691 2819 5691 2113 
L 5691 0 
L 5113 0 
L 5113 2094 
Q 5113 2597 4934 2840 
Q 4756 3084 4391 3084 
Q 3944 3084 3684 2787 
Q 3425 2491 3425 1978 
L 3425 0 
L 2847 0 
L 2847 2094 
Q 2847 2600 2669 2842 
Q 2491 3084 2119 3084 
Q 1678 3084 1418 2786 
Q 1159 2488 1159 1978 
L 1159 0 
L 581 0 
L 581 3500 
L 1159 3500 
L 1159 2956 
Q 1356 3278 1631 3431 
Q 1906 3584 2284 3584 
Q 2666 3584 2933 3390 
Q 3200 3197 3328 2828 
z
" transform="scale(0.015625)"/>
       <path id="DejaVuSans-28" d="M 1984 4856 
Q 1566 4138 1362 3434 
Q 1159 2731 1159 2009 
Q 1159 1288 1364 580 
Q 1569 -128 1984 -844 
L 1484 -844 
Q 1016 -109 783 600 
Q 550 1309 550 2009 
Q 550 2706 781 3412 
Q 1013 4119 1484 4856 
L 1984 4856 
z
" transform="scale(0.015625)"/>
       <path id="DejaVuSans-63" d="M 3122 3366 
L 3122 2828 
Q 2878 2963 2633 3030 
Q 2388 3097 2138 3097 
Q 1578 3097 1268 2742 
Q 959 2388 959 1747 
Q 959 1106 1268 751 
Q 1578 397 2138 397 
Q 2388 397 2633 464 
Q 2878 531 3122 666 
L 3122 134 
Q 2881 22 2623 -34 
Q 2366 -91 2075 -91 
Q 1284 -91 818 406 
Q 353 903 353 1747 
Q 353 2603 823 3093 
Q 1294 3584 2113 3584 
Q 2378 3584 2631 3529 
Q 2884 3475 3122 3366 
z
" transform="scale(0.015625)"/>
       <path id="DejaVuSans-6f" d="M 1959 3097 
Q 1497 3097 1228 2736 
Q 959 2375 959 1747 
Q 959 1119 1226 758 
Q 1494 397 1959 397 
Q 2419 397 2687 759 
Q 2956 1122 2956 1747 
Q 2956 2369 2687 2733 
Q 2419 3097 1959 3097 
z
M 1959 3584 
Q 2709 3584 3137 3096 
Q 3566 2609 3566 1747 
Q 3566 888 3137 398 
Q 2709 -91 1959 -91 
Q 1206 -91 779 398 
Q 353 888 353 1747 
Q 353 2609 779 3096 
Q 1206 3584 1959 3584 
z
" transform="scale(0.015625)"/>
       <path id="DejaVuSans-6e" d="M 3513 2113 
L 3513 0 
L 2938 0 
L 2938 2094 
Q 2938 2591 2744 2837 
Q 2550 3084 2163 3084 
Q 1697 3084 1428 2787 
Q 1159 2491 1159 1978 
L 1159 0 
L 581 0 
L 581 3500 
L 1159 3500 
L 1159 2956 
Q 1366 3272 1645 3428 
Q 1925 3584 2291 3584 
Q 2894 3584 3203 3211 
Q 3513 2838 3513 2113 
z
" transform="scale(0.015625)"/>
       <path id="DejaVuSans-29" d="M 513 4856 
L 1013 4856 
Q 1481 4119 1714 3412 
Q 1947 2706 1947 2009 
Q 1947 1309 1714 600 
Q 1481 -109 1013 -844 
L 513 -844 
Q 928 -128 1133 580 
Q 1338 1288 1338 2009 
Q 1338 2731 1133 3434 
Q 928 4138 513 4856 
z
" transform="scale(0.015625)"/>
      </defs>
      <use xlink:href="#DejaVuSans-45"/>
      <use xlink:href="#DejaVuSans-6c" x="63.183594"/>
      <use xlink:href="#DejaVuSans-61" x="90.966797"/>
      <use xlink:href="#DejaVuSans-70" x="152.246094"/>
      <use xlink:href="#DejaVuSans-73" x="215.722656"/>
      <use xlink:href="#DejaVuSans-65" x="267.822266"/>
      <use xlink:href="#DejaVuSans-64" x="329.345703"/>
      <use xlink:href="#DejaVuSans-20" x="392.822266"/>
      <use xlink:href="#DejaVuSans-54" x="424.609375"/>
      <use xlink:href="#DejaVuSans-69" x="482.568359"/>
      <use xlink:href="#DejaVuSans-6d" x="510.351562"/>
      <use xlink:href="#DejaVuSans-65" x="607.763672"/>
      <use xlink:href="#DejaVuSans-20" x="669.287109"/>
      <use xlink:href="#DejaVuSans-28" x="701.074219"/>
      <use xlink:href="#DejaVuSans-73" x="740.087891"/>
      <use xlink:href="#DejaVuSans-65" x="792.1875"/>
      <use xlink:href="#DejaVuSans-63" x="853.710938"/>
      <use xlink:href="#DejaVuSans-6f" x="908.691406"/>
      <use xlink:href="#DejaVuSans-6e" x="969.873047"/>
      <use xlink:href="#DejaVuSans-64" x="1033.251953"/>
      <use xlink:href="#DejaVuSans-73" x="1096.728516"/>
      <use xlink:href="#DejaVuSans-29" x="1148.828125"/>
     </g>
    </g>
   </g>
   <g id="matplotlib.axis_2">
    <g id="ytick_1">
     <g id="line2d_13">
      <path d="M 66.053125 486.770453 
L 849.033125 486.770453 
" clip-path="url(#pfb93e45159)" style="fill: none; stroke: #b0b0b0; stroke-opacity: 0.3; stroke-width: 0.8; stroke-linecap: square"/>
     </g>
     <g id="line2d_14">
      <defs>
       <path id="m6ae4c670e4" d="M 0 0 
L -3.5 0 
" style="stroke: #000000; stroke-width: 0.8"/>
      </defs>
      <g>
       <use xlink:href="#m6ae4c670e4" x="66.053125" y="486.770453" style="stroke: #000000; stroke-width: 0.8"/>
      </g>
     </g>
     <g id="text_8">
      <!-- 20000 -->
      <g transform="translate(27.240625 490.569672) scale(0.1 -0.1)">
       <use xlink:href="#DejaVuSans-32"/>
       <use xlink:href="#DejaVuSans-30" x="63.623047"/>
       <use xlink:href="#DejaVuSans-30" x="127.246094"/>
       <use xlink:href="#DejaVuSans-30" x="190.869141"/>
       <use xlink:href="#DejaVuSans-30" x="254.492188"/>
      </g>
     </g>
    </g>
    <g id="ytick_2">
     <g id="line2d_15">
      <path d="M 66.053125 396.246764 
L 849.033125 396.246764 
" clip-path="url(#pfb93e45159)" style="fill: none; stroke: #b0b0b0; stroke-opacity: 0.3; stroke-width: 0.8; stroke-linecap: square"/>
     </g>
     <g id="line2d_16">
      <g>
       <use xlink:href="#m6ae4c670e4" x="66.053125" y="396.246764" style="stroke: #000000; stroke-width: 0.8"/>
      </g>
     </g>
     <g id="text_9">
      <!-- 40000 -->
      <g transform="translate(27.240625 400.045983) scale(0.1 -0.1)">
       <use xlink:href="#DejaVuSans-34"/>
       <use xlink:href="#DejaVuSans-30" x="63.623047"/>
       <use xlink:href="#DejaVuSans-30" x="127.246094"/>
       <use xlink:href="#DejaVuSans-30" x="190.869141"/>
       <use xlink:href="#DejaVuSans-30" x="254.492188"/>
      </g>
     </g>
    </g>
    <g id="ytick_3">
     <g id="line2d_17">
      <path d="M 66.053125 305.723075 
L 849.033125 305.723075 
" clip-path="url(#pfb93e45159)" style="fill: none; stroke: #b0b0b0; stroke-opacity: 0.3; stroke-width: 0.8; stroke-linecap: square"/>
     </g>
     <g id="line2d_18">
      <g>
       <use xlink:href="#m6ae4c670e4" x="66.053125" y="305.723075" style="stroke: #000000; stroke-width: 0.8"/>
      </g>
     </g>
     <g id="text_10">
      <!-- 60000 -->
      <g transform="translate(27.240625 309.522294) scale(0.1 -0.1)">
       <use xlink:href="#DejaVuSans-36"/>
       <use xlink:href="#DejaVuSans-30" x="63.623047"/>
       <use xlink:href="#DejaVuSans-30" x="127.246094"/>
       <use xlink:href="#DejaVuSans-30" x="190.869141"/>
       <use xlink:href="#DejaVuSans-30" x="254.492188"/>
      </g>
     </g>
    </g>
    <g id="ytick_4">
     <g id="line2d_19">
      <path d="M 66.053125 215.199386 
L 849.033125 215.199386 
" clip-path="url(#pfb93e45159)" style="fill: none; stroke: #b0b0b0; stroke-opacity: 0.3; stroke-width: 0.8; stroke-linecap: square"/>
     </g>
     <g id="line2d_20">
      <g>
       <use xlink:href="#m6ae4c670e4" x="66.053125" y="215.199386" style="stroke: #000000; stroke-width: 0.8"/>
      </g>
     </g>
     <g id="text_11">
      <!-- 80000 -->
      <g transform="translate(27.240625 218.998605) scale(0.1 -0.1)">
       <use xlink:href="#DejaVuSans-38"/>
       <use xlink:href="#DejaVuSans-30" x="63.623047"/>
       <use xlink:href="#DejaVuSans-30" x="127.246094"/>
       <use xlink:href="#DejaVuSans-30" x="190.869141"/>
       <use xlink:href="#DejaVuSans-30" x="254.492188"/>
      </g>
     </g>
    </g>
    <g id="ytick_5">
     <g id="line2d_21">
      <path d="M 66.053125 124.675697 
L 849.033125 124.675697 
" clip-path="url(#pfb93e45159)" style="fill: none; stroke: #b0b0b0; stroke-opacity: 0.3; stroke-width: 0.8; stroke-linecap: square"/>
     </g>
     <g id="line2d_22">
      <g>
       <use xlink:href="#m6ae4c670e4" x="66.053125" y="124.675697" style="stroke: #000000; stroke-width: 0.8"/>
      </g>
     </g>
     <g id="text_12">
      <!-- 100000 -->
      <g transform="translate(20.878125 128.474916) scale(0.1 -0.1)">
       <use xlink:href="#DejaVuSans-31"/>
       <use xlink:href="#DejaVuSans-30" x="63.623047"/>
       <use xlink:href="#DejaVuSans-30" x="127.246094"/>
       <use xlink:href="#DejaVuSans-30" x="190.869141"/>
       <use xlink:href="#DejaVuSans-30" x="254.492188"/>
       <use xlink:href="#DejaVuSans-30" x="318.115234"/>
      </g>
     </g>
    </g>
    <g id="ytick_6">
     <g id="line2d_23">
      <path d="M 66.053125 34.152008 
L 849.033125 34.152008 
" clip-path="url(#pfb93e45159)" style="fill: none; stroke: #b0b0b0; stroke-opacity: 0.3; stroke-width: 0.8; stroke-linecap: square"/>
     </g>
     <g id="line2d_24">
      <g>
       <use xlink:href="#m6ae4c670e4" x="66.053125" y="34.152008" style="stroke: #000000; stroke-width: 0.8"/>
      </g>
     </g>
     <g id="text_13">
      <!-- 120000 -->
      <g transform="translate(20.878125 37.951227) scale(0.1 -0.1)">
       <use xlink:href="#DejaVuSans-31"/>
       <use xlink:href="#DejaVuSans-32" x="63.623047"/>
       <use xlink:href="#DejaVuSans-30" x="127.246094"/>
       <use xlink:href="#DejaVuSans-30" x="190.869141"/>
       <use xlink:href="#DejaVuSans-30" x="254.492188"/>
       <use xlink:href="#DejaVuSans-30" x="318.115234"/>
      </g>
     </g>
    </g>
    <g id="text_14">
     <!-- Requests Per Second (RPS) -->
     <g transform="translate(14.798438 344.232969) rotate(-90) scale(0.1 -0.1)">
      <defs>
       <path id="DejaVuSans-52" d="M 2841 2188 
Q 3044 2119 3236 1894 
Q 3428 1669 3622 1275 
L 4263 0 
L 3584 0 
L 2988 1197 
Q 2756 1666 2539 1819 
Q 2322 1972 1947 1972 
L 1259 1972 
L 1259 0 
L 628 0 
L 628 4666 
L 2053 4666 
Q 2853 4666 3247 4331 
Q 3641 3997 3641 3322 
Q 3641 2881 3436 2590 
Q 3231 2300 2841 2188 
z
M 1259 4147 
L 1259 2491 
L 2053 2491 
Q 2509 2491 2742 2702 
Q 2975 2913 2975 3322 
Q 2975 3731 2742 3939 
Q 2509 4147 2053 4147 
L 1259 4147 
z
" transform="scale(0.015625)"/>
       <path id="DejaVuSans-71" d="M 947 1747 
Q 947 1113 1208 752 
Q 1469 391 1925 391 
Q 2381 391 2643 752 
Q 2906 1113 2906 1747 
Q 2906 2381 2643 2742 
Q 2381 3103 1925 3103 
Q 1469 3103 1208 2742 
Q 947 2381 947 1747 
z
M 2906 525 
Q 2725 213 2448 61 
Q 2172 -91 1784 -91 
Q 1150 -91 751 415 
Q 353 922 353 1747 
Q 353 2572 751 3078 
Q 1150 3584 1784 3584 
Q 2172 3584 2448 3432 
Q 2725 3281 2906 2969 
L 2906 3500 
L 3481 3500 
L 3481 -1331 
L 2906 -1331 
L 2906 525 
z
" transform="scale(0.015625)"/>
       <path id="DejaVuSans-75" d="M 544 1381 
L 544 3500 
L 1119 3500 
L 1119 1403 
Q 1119 906 1312 657 
Q 1506 409 1894 409 
Q 2359 409 2629 706 
Q 2900 1003 2900 1516 
L 2900 3500 
L 3475 3500 
L 3475 0 
L 2900 0 
L 2900 538 
Q 2691 219 2414 64 
Q 2138 -91 1772 -91 
Q 1169 -91 856 284 
Q 544 659 544 1381 
z
M 1991 3584 
L 1991 3584 
z
" transform="scale(0.015625)"/>
       <path id="DejaVuSans-74" d="M 1172 4494 
L 1172 3500 
L 2356 3500 
L 2356 3053 
L 1172 3053 
L 1172 1153 
Q 1172 725 1289 603 
Q 1406 481 1766 481 
L 2356 481 
L 2356 0 
L 1766 0 
Q 1100 0 847 248 
Q 594 497 594 1153 
L 594 3053 
L 172 3053 
L 172 3500 
L 594 3500 
L 594 4494 
L 1172 4494 
z
" transform="scale(0.015625)"/>
       <path id="DejaVuSans-50" d="M 1259 4147 
L 1259 2394 
L 2053 2394 
Q 2494 2394 2734 2622 
Q 2975 2850 2975 3272 
Q 2975 3691 2734 3919 
Q 2494 4147 2053 4147 
L 1259 4147 
z
M 628 4666 
L 2053 4666 
Q 2838 4666 3239 4311 
Q 3641 3956 3641 3272 
Q 3641 2581 3239 2228 
Q 2838 1875 2053 1875 
L 1259 1875 
L 1259 0 
L 628 0 
L 628 4666 
z
" transform="scale(0.015625)"/>
       <path id="DejaVuSans-72" d="M 2631 2963 
Q 2534 3019 2420 3045 
Q 2306 3072 2169 3072 
Q 1681 3072 1420 2755 
Q 1159 2438 1159 1844 
L 1159 0 
L 581 0 
L 581 3500 
L 1159 3500 
L 1159 2956 
Q 1341 3275 1631 3429 
Q 1922 3584 2338 3584 
Q 2397 3584 2469 3576 
Q 2541 3569 2628 3553 
L 2631 2963 
z
" transform="scale(0.015625)"/>
       <path id="DejaVuSans-53" d="M 3425 4513 
L 3425 3897 
Q 3066 4069 2747 4153 
Q 2428 4238 2131 4238 
Q 1616 4238 1336 4038 
Q 1056 3838 1056 3469 
Q 1056 3159 1242 3001 
Q 1428 2844 1947 2747 
L 2328 2669 
Q 3034 2534 3370 2195 
Q 3706 1856 3706 1288 
Q 3706 609 3251 259 
Q 2797 -91 1919 -91 
Q 1588 -91 1214 -16 
Q 841 59 441 206 
L 441 856 
Q 825 641 1194 531 
Q 1563 422 1919 422 
Q 2459 422 2753 634 
Q 3047 847 3047 1241 
Q 3047 1584 2836 1778 
Q 2625 1972 2144 2069 
L 1759 2144 
Q 1053 2284 737 2584 
Q 422 2884 422 3419 
Q 422 4038 858 4394 
Q 1294 4750 2059 4750 
Q 2388 4750 2728 4690 
Q 3069 4631 3425 4513 
z
" transform="scale(0.015625)"/>
      </defs>
      <use xlink:href="#DejaVuSans-52"/>
      <use xlink:href="#DejaVuSans-65" x="64.982422"/>
      <use xlink:href="#DejaVuSans-71" x="126.505859"/>
      <use xlink:href="#DejaVuSans-75" x="189.982422"/>
      <use xlink:href="#DejaVuSans-65" x="253.361328"/>
      <use xlink:href="#DejaVuSans-73" x="314.884766"/>
      <use xlink:href="#DejaVuSans-74" x="366.984375"/>
      <use xlink:href="#DejaVuSans-73" x="406.193359"/>
      <use xlink:href="#DejaVuSans-20" x="458.292969"/>
      <use xlink:href="#DejaVuSans-50" x="490.080078"/>
      <use xlink:href="#DejaVuSans-65" x="546.757812"/>
      <use xlink:href="#DejaVuSans-72" x="608.28125"/>
      <use xlink:href="#DejaVuSans-20" x="649.394531"/>
      <use xlink:href="#DejaVuSans-53" x="681.181641"/>
      <use xlink:href="#DejaVuSans-65" x="744.658203"/>
      <use xlink:href="#DejaVuSans-63" x="806.181641"/>
      <use xlink:href="#DejaVuSans-6f" x="861.162109"/>
      <use xlink:href="#DejaVuSans-6e" x="922.34375"/>
      <use xlink:href="#DejaVuSans-64" x="985.722656"/>
      <use xlink:href="#DejaVuSans-20" x="1049.199219"/>
      <use xlink:href="#DejaVuSans-28" x="1080.986328"/>
      <use xlink:href="#DejaVuSans-52" x="1120"/>
      <use xlink:href="#DejaVuSans-50" x="1189.482422"/>
      <use xlink:href="#DejaVuSans-53" x="1249.785156"/>
      <use xlink:href="#DejaVuSans-29" x="1313.261719"/>
     </g>
    </g>
   </g>
   <g id="line2d_25">
    <path d="M 101.643125 132.147618 
L 116.169656 91.551084 
L 130.696186 81.387478 
L 145.222717 70.549262 
L 159.749247 67.587381 
L 174.275778 64.557947 
L 188.802309 61.700503 
L 203.328839 57.167312 
L 217.85537 55.859901 
L 232.381901 54.731198 
L 246.908431 53.060483 
L 261.434962 52.609558 
L 275.961492 51.030874 
L 290.488023 50.571426 
L 305.014554 51.98948 
L 319.541084 51.850788 
L 334.067615 50.742321 
L 348.594145 50.649267 
L 363.120676 50.31414 
L 377.647207 49.657304 
L 392.173737 48.658425 
L 406.700268 47.650797 
L 421.226798 47.345234 
L 435.753329 47.246731 
L 450.27986 46.816798 
L 464.80639 46.090906 
L 479.332921 45.873061 
L 493.859452 45.436307 
L 508.385982 45.846135 
L 522.912513 46.296418 
L 537.439043 45.631372 
L 551.965574 45.512016 
L 566.492105 45.58597 
L 581.018635 46.238157 
L 595.545166 46.415841 
L 610.071696 46.423612 
L 624.598227 46.487988 
L 639.124758 46.200879 
L 653.651288 46.433403 
L 668.177819 46.752924 
L 682.704349 46.768254 
L 697.23088 46.993446 
L 711.757411 47.824544 
L 726.283941 47.932602 
L 740.810472 48.039501 
L 755.337003 47.722098 
L 769.863533 47.633511 
L 784.390064 47.939187 
L 798.916594 48.413436 
L 813.443125 48.199361 
" clip-path="url(#pfb93e45159)" style="fill: none; stroke: #2ca02c; stroke-width: 2; stroke-linecap: square"/>
    <defs>
     <path id="madeb8a42b4" d="M 0 2 
C 0.530406 2 1.03916 1.789267 1.414214 1.414214 
C 1.789267 1.03916 2 0.530406 2 0 
C 2 -0.530406 1.789267 -1.03916 1.414214 -1.414214 
C 1.03916 -1.789267 0.530406 -2 0 -2 
C -0.530406 -2 -1.03916 -1.789267 -1.414214 -1.414214 
C -1.789267 -1.03916 -2 -0.530406 -2 0 
C -2 0.530406 -1.789267 1.03916 -1.414214 1.414214 
C -1.03916 1.789267 -0.530406 2 0 2 
z
" style="stroke: #2ca02c"/>
    </defs>
    <g clip-path="url(#pfb93e45159)">
     <use xlink:href="#madeb8a42b4" x="101.643125" y="132.147618" style="fill: #2ca02c; stroke: #2ca02c"/>
     <use xlink:href="#madeb8a42b4" x="116.169656" y="91.551084" style="fill: #2ca02c; stroke: #2ca02c"/>
     <use xlink:href="#madeb8a42b4" x="130.696186" y="81.387478" style="fill: #2ca02c; stroke: #2ca02c"/>
     <use xlink:href="#madeb8a42b4" x="145.222717" y="70.549262" style="fill: #2ca02c; stroke: #2ca02c"/>
     <use xlink:href="#madeb8a42b4" x="159.749247" y="67.587381" style="fill: #2ca02c; stroke: #2ca02c"/>
     <use xlink:href="#madeb8a42b4" x="174.275778" y="64.557947" style="fill: #2ca02c; stroke: #2ca02c"/>
     <use xlink:href="#madeb8a42b4" x="188.802309" y="61.700503" style="fill: #2ca02c; stroke: #2ca02c"/>
     <use xlink:href="#madeb8a42b4" x="203.328839" y="57.167312" style="fill: #2ca02c; stroke: #2ca02c"/>
     <use xlink:href="#madeb8a42b4" x="217.85537" y="55.859901" style="fill: #2ca02c; stroke: #2ca02c"/>
     <use xlink:href="#madeb8a42b4" x="232.381901" y="54.731198" style="fill: #2ca02c; stroke: #2ca02c"/>
     <use xlink:href="#madeb8a42b4" x="246.908431" y="53.060483" style="fill: #2ca02c; stroke: #2ca02c"/>
     <use xlink:href="#madeb8a42b4" x="261.434962" y="52.609558" style="fill: #2ca02c; stroke: #2ca02c"/>
     <use xlink:href="#madeb8a42b4" x="275.961492" y="51.030874" style="fill: #2ca02c; stroke: #2ca02c"/>
     <use xlink:href="#madeb8a42b4" x="290.488023" y="50.571426" style="fill: #2ca02c; stroke: #2ca02c"/>
     <use xlink:href="#madeb8a42b4" x="305.014554" y="51.98948" style="fill: #2ca02c; stroke: #2ca02c"/>
     <use xlink:href="#madeb8a42b4" x="319.541084" y="51.850788" style="fill: #2ca02c; stroke: #2ca02c"/>
     <use xlink:href="#madeb8a42b4" x="334.067615" y="50.742321" style="fill: #2ca02c; stroke: #2ca02c"/>
     <use xlink:href="#madeb8a42b4" x="348.594145" y="50.649267" style="fill: #2ca02c; stroke: #2ca02c"/>
     <use xlink:href="#madeb8a42b4" x="363.120676" y="50.31414" style="fill: #2ca02c; stroke: #2ca02c"/>
     <use xlink:href="#madeb8a42b4" x="377.647207" y="49.657304" style="fill: #2ca02c; stroke: #2ca02c"/>
     <use xlink:href="#madeb8a42b4" x="392.173737" y="48.658425" style="fill: #2ca02c; stroke: #2ca02c"/>
     <use xlink:href="#madeb8a42b4" x="406.700268" y="47.650797" style="fill: #2ca02c; stroke: #2ca02c"/>
     <use xlink:href="#madeb8a42b4" x="421.226798" y="47.345234" style="fill: #2ca02c; stroke: #2ca02c"/>
     <use xlink:href="#madeb8a42b4" x="435.753329" y="47.246731" style="fill: #2ca02c; stroke: #2ca02c"/>
     <use xlink:href="#madeb8a42b4" x="450.27986" y="46.816798" style="fill: #2ca02c; stroke: #2ca02c"/>
     <use xlink:href="#madeb8a42b4" x="464.80639" y="46.090906" style="fill: #2ca02c; stroke: #2ca02c"/>
     <use xlink:href="#madeb8a42b4" x="479.332921" y="45.873061" style="fill: #2ca02c; stroke: #2ca02c"/>
     <use xlink:href="#madeb8a42b4" x="493.859452" y="45.436307" style="fill: #2ca02c; stroke: #2ca02c"/>
     <use xlink:href="#madeb8a42b4" x="508.385982" y="45.846135" style="fill: #2ca02c; stroke: #2ca02c"/>
     <use xlink:href="#madeb8a42b4" x="522.912513" y="46.296418" style="fill: #2ca02c; stroke: #2ca02c"/>
     <use xlink:href="#madeb8a42b4" x="537.439043" y="45.631372" style="fill: #2ca02c; stroke: #2ca02c"/>
     <use xlink:href="#madeb8a42b4" x="551.965574" y="45.512016" style="fill: #2ca02c; stroke: #2ca02c"/>
     <use xlink:href="#madeb8a42b4" x="566.492105" y="45.58597" style="fill: #2ca02c; stroke: #2ca02c"/>
     <use xlink:href="#madeb8a42b4" x="581.018635" y="46.238157" style="fill: #2ca02c; stroke: #2ca02c"/>
     <use xlink:href="#madeb8a42b4" x="595.545166" y="46.415841" style="fill: #2ca02c; stroke: #2ca02c"/>
     <use xlink:href="#madeb8a42b4" x="610.071696" y="46.423612" style="fill: #2ca02c; stroke: #2ca02c"/>
     <use xlink:href="#madeb8a42b4" x="624.598227" y="46.487988" style="fill: #2ca02c; stroke: #2ca02c"/>
     <use xlink:href="#madeb8a42b4" x="639.124758" y="46.200879" style="fill: #2ca02c; stroke: #2ca02c"/>
     <use xlink:href="#madeb8a42b4" x="653.651288" y="46.433403" style="fill: #2ca02c; stroke: #2ca02c"/>
     <use xlink:href="#madeb8a42b4" x="668.177819" y="46.752924" style="fill: #2ca02c; stroke: #2ca02c"/>
     <use xlink:href="#madeb8a42b4" x="682.704349" y="46.768254" style="fill: #2ca02c; stroke: #2ca02c"/>
     <use xlink:href="#madeb8a42b4" x="697.23088" y="46.993446" style="fill: #2ca02c; stroke: #2ca02c"/>
     <use xlink:href="#madeb8a42b4" x="711.757411" y="47.824544" style="fill: #2ca02c; stroke: #2ca02c"/>
     <use xlink:href="#madeb8a42b4" x="726.283941" y="47.932602" style="fill: #2ca02c; stroke: #2ca02c"/>
     <use xlink:href="#madeb8a42b4" x="740.810472" y="48.039501" style="fill: #2ca02c; stroke: #2ca02c"/>
     <use xlink:href="#madeb8a42b4" x="755.337003" y="47.722098" style="fill: #2ca02c; stroke: #2ca02c"/>
     <use xlink:href="#madeb8a42b4" x="769.863533" y="47.633511" style="fill: #2ca02c; stroke: #2ca02c"/>
     <use xlink:href="#madeb8a42b4" x="784.390064" y="47.939187" style="fill: #2ca02c; stroke: #2ca02c"/>
     <use xlink:href="#madeb8a42b4" x="798.916594" y="48.413436" style="fill: #2ca02c; stroke: #2ca02c"/>
     <use xlink:href="#madeb8a42b4" x="813.443125" y="48.199361" style="fill: #2ca02c; stroke: #2ca02c"/>
    </g>
   </g>
   <g id="line2d_26">
    <path d="M 101.643125 507.799943 
L 116.169656 500.051595 
L 130.696186 494.679494 
L 145.222717 493.706066 
L 159.749247 491.426303 
L 174.275778 489.546742 
L 188.802309 489.334654 
L 203.328839 485.897257 
L 217.85537 484.014867 
L 232.381901 481.801236 
L 246.908431 480.827749 
L 261.434962 481.030631 
L 275.961492 480.09281 
L 290.488023 478.982134 
L 305.014554 478.633518 
L 319.541084 477.071523 
L 334.067615 475.210288 
L 348.594145 473.526575 
L 363.120676 471.993316 
L 377.647207 470.263467 
L 392.173737 468.305014 
L 406.700268 466.150863 
L 421.226798 464.318279 
L 435.753329 462.760583 
L 450.27986 461.29495 
L 464.80639 459.620946 
L 479.332921 458.331513 
L 493.859452 456.878092 
L 508.385982 455.712309 
L 522.912513 454.471587 
L 537.439043 453.311942 
L 551.965574 452.168565 
L 566.492105 451.454627 
L 581.018635 450.762076 
L 595.545166 450.013255 
L 610.071696 449.151116 
L 624.598227 448.230726 
L 639.124758 447.620528 
L 653.651288 446.788914 
L 668.177819 446.145164 
L 682.704349 445.769549 
L 697.23088 445.106178 
L 711.757411 444.535893 
L 726.283941 443.998209 
L 740.810472 443.490023 
L 755.337003 442.944432 
L 769.863533 442.55117 
L 784.390064 442.129135 
L 798.916594 441.782945 
L 813.443125 441.19818 
" clip-path="url(#pfb93e45159)" style="fill: none; stroke: #1f77b4; stroke-width: 2; stroke-linecap: square"/>
    <defs>
     <path id="m1ff75fe494" d="M 0 2 
C 0.530406 2 1.03916 1.789267 1.414214 1.414214 
C 1.789267 1.03916 2 0.530406 2 0 
C 2 -0.530406 1.789267 -1.03916 1.414214 -1.414214 
C 1.03916 -1.789267 0.530406 -2 0 -2 
C -0.530406 -2 -1.03916 -1.789267 -1.414214 -1.414214 
C -1.789267 -1.03916 -2 -0.530406 -2 0 
C -2 0.530406 -1.789267 1.03916 -1.414214 1.414214 
C -1.03916 1.789267 -0.530406 2 0 2 
z
" style="stroke: #1f77b4"/>
    </defs>
    <g clip-path="url(#pfb93e45159)">
     <use xlink:href="#m1ff75fe494" x="101.643125" y="507.799943" style="fill: #1f77b4; stroke: #1f77b4"/>
     <use xlink:href="#m1ff75fe494" x="116.169656" y="500.051595" style="fill: #1f77b4; stroke: #1f77b4"/>
     <use xlink:href="#m1ff75fe494" x="130.696186" y="494.679494" style="fill: #1f77b4; stroke: #1f77b4"/>
     <use xlink:href="#m1ff75fe494" x="145.222717" y="493.706066" style="fill: #1f77b4; stroke: #1f77b4"/>
     <use xlink:href="#m1ff75fe494" x="159.749247" y="491.426303" style="fill: #1f77b4; stroke: #1f77b4"/>
     <use xlink:href="#m1ff75fe494" x="174.275778" y="489.546742" style="fill: #1f77b4; stroke: #1f77b4"/>
     <use xlink:href="#m1ff75fe494" x="188.802309" y="489.334654" style="fill: #1f77b4; stroke: #1f77b4"/>
     <use xlink:href="#m1ff75fe494" x="203.328839" y="485.897257" style="fill: #1f77b4; stroke: #1f77b4"/>
     <use xlink:href="#m1ff75fe494" x="217.85537" y="484.014867" style="fill: #1f77b4; stroke: #1f77b4"/>
     <use xlink:href="#m1ff75fe494" x="232.381901" y="481.801236" style="fill: #1f77b4; stroke: #1f77b4"/>
     <use xlink:href="#m1ff75fe494" x="246.908431" y="480.827749" style="fill: #1f77b4; stroke: #1f77b4"/>
     <use xlink:href="#m1ff75fe494" x="261.434962" y="481.030631" style="fill: #1f77b4; stroke: #1f77b4"/>
     <use xlink:href="#m1ff75fe494" x="275.961492" y="480.09281" style="fill: #1f77b4; stroke: #1f77b4"/>
     <use xlink:href="#m1ff75fe494" x="290.488023" y="478.982134" style="fill: #1f77b4; stroke: #1f77b4"/>
     <use xlink:href="#m1ff75fe494" x="305.014554" y="478.633518" style="fill: #1f77b4; stroke: #1f77b4"/>
     <use xlink:href="#m1ff75fe494" x="319.541084" y="477.071523" style="fill: #1f77b4; stroke: #1f77b4"/>
     <use xlink:href="#m1ff75fe494" x="334.067615" y="475.210288" style="fill: #1f77b4; stroke: #1f77b4"/>
     <use xlink:href="#m1ff75fe494" x="348.594145" y="473.526575" style="fill: #1f77b4; stroke: #1f77b4"/>
     <use xlink:href="#m1ff75fe494" x="363.120676" y="471.993316" style="fill: #1f77b4; stroke: #1f77b4"/>
     <use xlink:href="#m1ff75fe494" x="377.647207" y="470.263467" style="fill: #1f77b4; stroke: #1f77b4"/>
     <use xlink:href="#m1ff75fe494" x="392.173737" y="468.305014" style="fill: #1f77b4; stroke: #1f77b4"/>
     <use xlink:href="#m1ff75fe494" x="406.700268" y="466.150863" style="fill: #1f77b4; stroke: #1f77b4"/>
     <use xlink:href="#m1ff75fe494" x="421.226798" y="464.318279" style="fill: #1f77b4; stroke: #1f77b4"/>
     <use xlink:href="#m1ff75fe494" x="435.753329" y="462.760583" style="fill: #1f77b4; stroke: #1f77b4"/>
     <use xlink:href="#m1ff75fe494" x="450.27986" y="461.29495" style="fill: #1f77b4; stroke: #1f77b4"/>
     <use xlink:href="#m1ff75fe494" x="464.80639" y="459.620946" style="fill: #1f77b4; stroke: #1f77b4"/>
     <use xlink:href="#m1ff75fe494" x="479.332921" y="458.331513" style="fill: #1f77b4; stroke: #1f77b4"/>
     <use xlink:href="#m1ff75fe494" x="493.859452" y="456.878092" style="fill: #1f77b4; stroke: #1f77b4"/>
     <use xlink:href="#m1ff75fe494" x="508.385982" y="455.712309" style="fill: #1f77b4; stroke: #1f77b4"/>
     <use xlink:href="#m1ff75fe494" x="522.912513" y="454.471587" style="fill: #1f77b4; stroke: #1f77b4"/>
     <use xlink:href="#m1ff75fe494" x="537.439043" y="453.311942" style="fill: #1f77b4; stroke: #1f77b4"/>
     <use xlink:href="#m1ff75fe494" x="551.965574" y="452.168565" style="fill: #1f77b4; stroke: #1f77b4"/>
     <use xlink:href="#m1ff75fe494" x="566.492105" y="451.454627" style="fill: #1f77b4; stroke: #1f77b4"/>
     <use xlink:href="#m1ff75fe494" x="581.018635" y="450.762076" style="fill: #1f77b4; stroke: #1f77b4"/>
     <use xlink:href="#m1ff75fe494" x="595.545166" y="450.013255" style="fill: #1f77b4; stroke: #1f77b4"/>
     <use xlink:href="#m1ff75fe494" x="610.071696" y="449.151116" style="fill: #1f77b4; stroke: #1f77b4"/>
     <use xlink:href="#m1ff75fe494" x="624.598227" y="448.230726" style="fill: #1f77b4; stroke: #1f77b4"/>
     <use xlink:href="#m1ff75fe494" x="639.124758" y="447.620528" style="fill: #1f77b4; stroke: #1f77b4"/>
     <use xlink:href="#m1ff75fe494" x="653.651288" y="446.788914" style="fill: #1f77b4; stroke: #1f77b4"/>
     <use xlink:href="#m1ff75fe494" x="668.177819" y="446.145164" style="fill: #1f77b4; stroke: #1f77b4"/>
     <use xlink:href="#m1ff75fe494" x="682.704349" y="445.769549" style="fill: #1f77b4; stroke: #1f77b4"/>
     <use xlink:href="#m1ff75fe494" x="697.23088" y="445.106178" style="fill: #1f77b4; stroke: #1f77b4"/>
     <use xlink:href="#m1ff75fe494" x="711.757411" y="444.535893" style="fill: #1f77b4; stroke: #1f77b4"/>
     <use xlink:href="#m1ff75fe494" x="726.283941" y="443.998209" style="fill: #1f77b4; stroke: #1f77b4"/>
     <use xlink:href="#m1ff75fe494" x="740.810472" y="443.490023" style="fill: #1f77b4; stroke: #1f77b4"/>
     <use xlink:href="#m1ff75fe494" x="755.337003" y="442.944432" style="fill: #1f77b4; stroke: #1f77b4"/>
     <use xlink:href="#m1ff75fe494" x="769.863533" y="442.55117" style="fill: #1f77b4; stroke: #1f77b4"/>
     <use xlink:href="#m1ff75fe494" x="784.390064" y="442.129135" style="fill: #1f77b4; stroke: #1f77b4"/>
     <use xlink:href="#m1ff75fe494" x="798.916594" y="441.782945" style="fill: #1f77b4; stroke: #1f77b4"/>
     <use xlink:href="#m1ff75fe494" x="813.443125" y="441.19818" style="fill: #1f77b4; stroke: #1f77b4"/>
    </g>
   </g>
   <g id="line2d_27">
    <path d="M 101.643125 459.302239 
L 108.90639 460.467894 
L 130.696186 461.380962 
L 137.959452 461.95686 
L 159.749247 462.77834 
L 167.012513 462.587475 
L 181.539043 463.187742 
L 203.328839 463.21475 
L 210.592105 463.219602 
L 225.118635 462.913012 
L 239.645166 463.04409 
L 261.434962 462.889788 
L 268.698227 462.622001 
L 283.224758 462.895405 
L 297.751288 463.488751 
L 319.541084 463.602626 
L 334.067615 463.650209 
L 348.594145 463.707203 
L 355.857411 463.771326 
L 370.383941 463.847483 
L 384.910472 463.954469 
L 399.437003 464.053302 
L 413.963533 464.029897 
L 435.753329 464.055751 
L 450.27986 464.093916 
L 457.543125 463.92861 
L 472.069656 463.963095 
L 493.859452 464.00165 
L 501.122717 464.016441 
L 515.649247 464.048858 
L 537.439043 463.994308 
L 544.702309 464.052465 
L 559.228839 463.998142 
L 581.018635 464.034786 
L 588.281901 463.982766 
L 610.071696 464.239428 
L 617.334962 464.381356 
L 631.861492 464.358109 
L 646.388023 464.384669 
L 668.177819 464.268142 
L 675.441084 464.275113 
L 689.967615 464.465258 
L 704.494145 464.469213 
L 719.020676 464.468906 
L 740.810472 464.498471 
L 748.073737 464.450276 
L 769.863533 464.495904 
L 777.126798 464.481914 
L 791.653329 464.446673 
L 813.443125 464.453906 
L 813.443125 464.46586 
" clip-path="url(#pfb93e45159)" style="fill: none; stroke: #ff7f0e; stroke-width: 2; stroke-linecap: square"/>
    <defs>
     <path id="m227f37aaf4" d="M 0 2 
C 0.530406 2 1.03916 1.789267 1.414214 1.414214 
C 1.789267 1.03916 2 0.530406 2 0 
C 2 -0.530406 1.789267 -1.03916 1.414214 -1.414214 
C 1.03916 -1.789267 0.530406 -2 0 -2 
C -0.530406 -2 -1.03916 -1.789267 -1.414214 -1.414214 
C -1.789267 -1.03916 -2 -0.530406 -2 0 
C -2 0.530406 -1.789267 1.03916 -1.414214 1.414214 
C -1.03916 1.789267 -0.530406 2 0 2 
z
" style="stroke: #ff7f0e"/>
    </defs>
    <g clip-path="url(#pfb93e45159)">
     <use xlink:href="#m227f37aaf4" x="101.643125" y="459.302239" style="fill: #ff7f0e; stroke: #ff7f0e"/>
     <use xlink:href="#m227f37aaf4" x="108.90639" y="460.467894" style="fill: #ff7f0e; stroke: #ff7f0e"/>
     <use xlink:href="#m227f37aaf4" x="130.696186" y="461.380962" style="fill: #ff7f0e; stroke: #ff7f0e"/>
     <use xlink:href="#m227f37aaf4" x="137.959452" y="461.95686" style="fill: #ff7f0e; stroke: #ff7f0e"/>
     <use xlink:href="#m227f37aaf4" x="159.749247" y="462.77834" style="fill: #ff7f0e; stroke: #ff7f0e"/>
     <use xlink:href="#m227f37aaf4" x="167.012513" y="462.587475" style="fill: #ff7f0e; stroke: #ff7f0e"/>
     <use xlink:href="#m227f37aaf4" x="181.539043" y="463.187742" style="fill: #ff7f0e; stroke: #ff7f0e"/>
     <use xlink:href="#m227f37aaf4" x="203.328839" y="463.21475" style="fill: #ff7f0e; stroke: #ff7f0e"/>
     <use xlink:href="#m227f37aaf4" x="210.592105" y="463.219602" style="fill: #ff7f0e; stroke: #ff7f0e"/>
     <use xlink:href="#m227f37aaf4" x="225.118635" y="462.913012" style="fill: #ff7f0e; stroke: #ff7f0e"/>
     <use xlink:href="#m227f37aaf4" x="239.645166" y="463.04409" style="fill: #ff7f0e; stroke: #ff7f0e"/>
     <use xlink:href="#m227f37aaf4" x="261.434962" y="462.889788" style="fill: #ff7f0e; stroke: #ff7f0e"/>
     <use xlink:href="#m227f37aaf4" x="268.698227" y="462.622001" style="fill: #ff7f0e; stroke: #ff7f0e"/>
     <use xlink:href="#m227f37aaf4" x="283.224758" y="462.895405" style="fill: #ff7f0e; stroke: #ff7f0e"/>
     <use xlink:href="#m227f37aaf4" x="297.751288" y="463.488751" style="fill: #ff7f0e; stroke: #ff7f0e"/>
     <use xlink:href="#m227f37aaf4" x="319.541084" y="463.602626" style="fill: #ff7f0e; stroke: #ff7f0e"/>
     <use xlink:href="#m227f37aaf4" x="334.067615" y="463.650209" style="fill: #ff7f0e; stroke: #ff7f0e"/>
     <use xlink:href="#m227f37aaf4" x="348.594145" y="463.707203" style="fill: #ff7f0e; stroke: #ff7f0e"/>
     <use xlink:href="#m227f37aaf4" x="355.857411" y="463.771326" style="fill: #ff7f0e; stroke: #ff7f0e"/>
     <use xlink:href="#m227f37aaf4" x="370.383941" y="463.847483" style="fill: #ff7f0e; stroke: #ff7f0e"/>
     <use xlink:href="#m227f37aaf4" x="384.910472" y="463.954469" style="fill: #ff7f0e; stroke: #ff7f0e"/>
     <use xlink:href="#m227f37aaf4" x="399.437003" y="464.053302" style="fill: #ff7f0e; stroke: #ff7f0e"/>
     <use xlink:href="#m227f37aaf4" x="413.963533" y="464.029897" style="fill: #ff7f0e; stroke: #ff7f0e"/>
     <use xlink:href="#m227f37aaf4" x="435.753329" y="464.055751" style="fill: #ff7f0e; stroke: #ff7f0e"/>
     <use xlink:href="#m227f37aaf4" x="450.27986" y="464.093916" style="fill: #ff7f0e; stroke: #ff7f0e"/>
     <use xlink:href="#m227f37aaf4" x="457.543125" y="463.92861" style="fill: #ff7f0e; stroke: #ff7f0e"/>
     <use xlink:href="#m227f37aaf4" x="472.069656" y="463.963095" style="fill: #ff7f0e; stroke: #ff7f0e"/>
     <use xlink:href="#m227f37aaf4" x="493.859452" y="464.00165" style="fill: #ff7f0e; stroke: #ff7f0e"/>
     <use xlink:href="#m227f37aaf4" x="501.122717" y="464.016441" style="fill: #ff7f0e; stroke: #ff7f0e"/>
     <use xlink:href="#m227f37aaf4" x="515.649247" y="464.048858" style="fill: #ff7f0e; stroke: #ff7f0e"/>
     <use xlink:href="#m227f37aaf4" x="537.439043" y="463.994308" style="fill: #ff7f0e; stroke: #ff7f0e"/>
     <use xlink:href="#m227f37aaf4" x="544.702309" y="464.052465" style="fill: #ff7f0e; stroke: #ff7f0e"/>
     <use xlink:href="#m227f37aaf4" x="559.228839" y="463.998142" style="fill: #ff7f0e; stroke: #ff7f0e"/>
     <use xlink:href="#m227f37aaf4" x="581.018635" y="464.034786" style="fill: #ff7f0e; stroke: #ff7f0e"/>
     <use xlink:href="#m227f37aaf4" x="588.281901" y="463.982766" style="fill: #ff7f0e; stroke: #ff7f0e"/>
     <use xlink:href="#m227f37aaf4" x="610.071696" y="464.239428" style="fill: #ff7f0e; stroke: #ff7f0e"/>
     <use xlink:href="#m227f37aaf4" x="617.334962" y="464.381356" style="fill: #ff7f0e; stroke: #ff7f0e"/>
     <use xlink:href="#m227f37aaf4" x="631.861492" y="464.358109" style="fill: #ff7f0e; stroke: #ff7f0e"/>
     <use xlink:href="#m227f37aaf4" x="646.388023" y="464.384669" style="fill: #ff7f0e; stroke: #ff7f0e"/>
     <use xlink:href="#m227f37aaf4" x="668.177819" y="464.268142" style="fill: #ff7f0e; stroke: #ff7f0e"/>
     <use xlink:href="#m227f37aaf4" x="675.441084" y="464.275113" style="fill: #ff7f0e; stroke: #ff7f0e"/>
     <use xlink:href="#m227f37aaf4" x="689.967615" y="464.465258" style="fill: #ff7f0e; stroke: #ff7f0e"/>
     <use xlink:href="#m227f37aaf4" x="704.494145" y="464.469213" style="fill: #ff7f0e; stroke: #ff7f0e"/>
     <use xlink:href="#m227f37aaf4" x="719.020676" y="464.468906" style="fill: #ff7f0e; stroke: #ff7f0e"/>
     <use xlink:href="#m227f37aaf4" x="740.810472" y="464.498471" style="fill: #ff7f0e; stroke: #ff7f0e"/>
     <use xlink:href="#m227f37aaf4" x="748.073737" y="464.450276" style="fill: #ff7f0e; stroke: #ff7f0e"/>
     <use xlink:href="#m227f37aaf4" x="769.863533" y="464.495904" style="fill: #ff7f0e; stroke: #ff7f0e"/>
     <use xlink:href="#m227f37aaf4" x="777.126798" y="464.481914" style="fill: #ff7f0e; stroke: #ff7f0e"/>
     <use xlink:href="#m227f37aaf4" x="791.653329" y="464.446673" style="fill: #ff7f0e; stroke: #ff7f0e"/>
     <use xlink:href="#m227f37aaf4" x="813.443125" y="464.453906" style="fill: #ff7f0e; stroke: #ff7f0e"/>
     <use xlink:href="#m227f37aaf4" x="813.443125" y="464.46586" style="fill: #ff7f0e; stroke: #ff7f0e"/>
    </g>
   </g>
   <g id="patch_3">
    <path d="M 66.053125 530.918125 
L 66.053125 22.318125 
" style="fill: none; stroke: #000000; stroke-width: 0.8; stroke-linejoin: miter; stroke-linecap: square"/>
   </g>
   <g id="patch_4">
    <path d="M 849.033125 530.918125 
L 849.033125 22.318125 
" style="fill: none; stroke: #000000; stroke-width: 0.8; stroke-linejoin: miter; stroke-linecap: square"/>
   </g>
   <g id="patch_5">
    <path d="M 66.053125 530.918125 
L 849.033125 530.918125 
" style="fill: none; stroke: #000000; stroke-width: 0.8; stroke-linejoin: miter; stroke-linecap: square"/>
   </g>
   <g id="patch_6">
    <path d="M 66.053125 22.318125 
L 849.033125 22.318125 
" style="fill: none; stroke: #000000; stroke-width: 0.8; stroke-linejoin: miter; stroke-linecap: square"/>
   </g>
   <g id="text_15">
    <!-- RPS Comparison Over Time -->
    <g transform="translate(375.189375 16.318125) scale(0.12 -0.12)">
     <defs>
      <path id="DejaVuSans-43" d="M 4122 4306 
L 4122 3641 
Q 3803 3938 3442 4084 
Q 3081 4231 2675 4231 
Q 1875 4231 1450 3742 
Q 1025 3253 1025 2328 
Q 1025 1406 1450 917 
Q 1875 428 2675 428 
Q 3081 428 3442 575 
Q 3803 722 4122 1019 
L 4122 359 
Q 3791 134 3420 21 
Q 3050 -91 2638 -91 
Q 1578 -91 968 557 
Q 359 1206 359 2328 
Q 359 3453 968 4101 
Q 1578 4750 2638 4750 
Q 3056 4750 3426 4639 
Q 3797 4528 4122 4306 
z
" transform="scale(0.015625)"/>
      <path id="DejaVuSans-4f" d="M 2522 4238 
Q 1834 4238 1429 3725 
Q 1025 3213 1025 2328 
Q 1025 1447 1429 934 
Q 1834 422 2522 422 
Q 3209 422 3611 934 
Q 4013 1447 4013 2328 
Q 4013 3213 3611 3725 
Q 3209 4238 2522 4238 
z
M 2522 4750 
Q 3503 4750 4090 4092 
Q 4678 3434 4678 2328 
Q 4678 1225 4090 567 
Q 3503 -91 2522 -91 
Q 1538 -91 948 565 
Q 359 1222 359 2328 
Q 359 3434 948 4092 
Q 1538 4750 2522 4750 
z
" transform="scale(0.015625)"/>
      <path id="DejaVuSans-76" d="M 191 3500 
L 800 3500 
L 1894 563 
L 2988 3500 
L 3597 3500 
L 2284 0 
L 1503 0 
L 191 3500 
z
" transform="scale(0.015625)"/>
     </defs>
     <use xlink:href="#DejaVuSans-52"/>
     <use xlink:href="#DejaVuSans-50" x="69.482422"/>
     <use xlink:href="#DejaVuSans-53" x="129.785156"/>
     <use xlink:href="#DejaVuSans-20" x="193.261719"/>
     <use xlink:href="#DejaVuSans-43" x="225.048828"/>
     <use xlink:href="#DejaVuSans-6f" x="294.873047"/>
     <use xlink:href="#DejaVuSans-6d" x="356.054688"/>
     <use xlink:href="#DejaVuSans-70" x="453.466797"/>
     <use xlink:href="#DejaVuSans-61" x="516.943359"/>
     <use xlink:href="#DejaVuSans-72" x="578.222656"/>
     <use xlink:href="#DejaVuSans-69" x="619.335938"/>
     <use xlink:href="#DejaVuSans-73" x="647.119141"/>
     <use xlink:href="#DejaVuSans-6f" x="699.21875"/>
     <use xlink:href="#DejaVuSans-6e" x="760.400391"/>
     <use xlink:href="#DejaVuSans-20" x="823.779297"/>
     <use xlink:href="#DejaVuSans-4f" x="855.566406"/>
     <use xlink:href="#DejaVuSans-76" x="934.277344"/>
     <use xlink:href="#DejaVuSans-65" x="993.457031"/>
     <use xlink:href="#DejaVuSans-72" x="1054.980469"/>
     <use xlink:href="#DejaVuSans-20" x="1096.09375"/>
     <use xlink:href="#DejaVuSans-54" x="1127.880859"/>
     <use xlink:href="#DejaVuSans-69" x="1185.839844"/>
     <use xlink:href="#DejaVuSans-6d" x="1213.623047"/>
     <use xlink:href="#DejaVuSans-65" x="1311.035156"/>
    </g>
   </g>
   <g id="legend_1">
    <g id="patch_7">
     <path d="M 773.390938 525.918125 
L 842.033125 525.918125 
Q 844.033125 525.918125 844.033125 523.918125 
L 844.033125 480.88375 
Q 844.033125 478.88375 842.033125 478.88375 
L 773.390938 478.88375 
Q 771.390938 478.88375 771.390938 480.88375 
L 771.390938 523.918125 
Q 771.390938 525.918125 773.390938 525.918125 
z
" style="fill: #ffffff; opacity: 0.8; stroke: #cccccc; stroke-linejoin: miter"/>
    </g>
    <g id="line2d_28">
     <path d="M 775.390938 486.982188 
L 785.390938 486.982188 
L 795.390938 486.982188 
" style="fill: none; stroke: #2ca02c; stroke-width: 2; stroke-linecap: square"/>
     <g>
      <use xlink:href="#madeb8a42b4" x="785.390938" y="486.982188" style="fill: #2ca02c; stroke: #2ca02c"/>
     </g>
    </g>
    <g id="text_16">
     <!-- weaver -->
     <g transform="translate(803.390938 490.482188) scale(0.1 -0.1)">
      <defs>
       <path id="DejaVuSans-77" d="M 269 3500 
L 844 3500 
L 1563 769 
L 2278 3500 
L 2956 3500 
L 3675 769 
L 4391 3500 
L 4966 3500 
L 4050 0 
L 3372 0 
L 2619 2869 
L 1863 0 
L 1184 0 
L 269 3500 
z
" transform="scale(0.015625)"/>
      </defs>
      <use xlink:href="#DejaVuSans-77"/>
      <use xlink:href="#DejaVuSans-65" x="81.787109"/>
      <use xlink:href="#DejaVuSans-61" x="143.310547"/>
      <use xlink:href="#DejaVuSans-76" x="204.589844"/>
      <use xlink:href="#DejaVuSans-65" x="263.769531"/>
      <use xlink:href="#DejaVuSans-72" x="325.292969"/>
     </g>
    </g>
    <g id="line2d_29">
     <path d="M 775.390938 501.660313 
L 785.390938 501.660313 
L 795.390938 501.660313 
" style="fill: none; stroke: #1f77b4; stroke-width: 2; stroke-linecap: square"/>
     <g>
      <use xlink:href="#m1ff75fe494" x="785.390938" y="501.660313" style="fill: #1f77b4; stroke: #1f77b4"/>
     </g>
    </g>
    <g id="text_17">
     <!-- node -->
     <g transform="translate(803.390938 505.160313) scale(0.1 -0.1)">
      <use xlink:href="#DejaVuSans-6e"/>
      <use xlink:href="#DejaVuSans-6f" x="63.378906"/>
      <use xlink:href="#DejaVuSans-64" x="124.560547"/>
      <use xlink:href="#DejaVuSans-65" x="188.037109"/>
     </g>
    </g>
    <g id="line2d_30">
     <path d="M 775.390938 516.338438 
L 785.390938 516.338438 
L 795.390938 516.338438 
" style="fill: none; stroke: #ff7f0e; stroke-width: 2; stroke-linecap: square"/>
     <g>
      <use xlink:href="#m227f37aaf4" x="785.390938" y="516.338438" style="fill: #ff7f0e; stroke: #ff7f0e"/>
     </g>
    </g>
    <g id="text_18">
     <!-- python -->
     <g transform="translate(803.390938 519.838438) scale(0.1 -0.1)">
      <defs>
       <path id="DejaVuSans-79" d="M 2059 -325 
Q 1816 -950 1584 -1140 
Q 1353 -1331 966 -1331 
L 506 -1331 
L 506 -850 
L 844 -850 
Q 1081 -850 1212 -737 
Q 1344 -625 1503 -206 
L 1606 56 
L 191 3500 
L 800 3500 
L 1894 763 
L 2988 3500 
L 3597 3500 
L 2059 -325 
z
" transform="scale(0.015625)"/>
       <path id="DejaVuSans-68" d="M 3513 2113 
L 3513 0 
L 2938 0 
L 2938 2094 
Q 2938 2591 2744 2837 
Q 2550 3084 2163 3084 
Q 1697 3084 1428 2787 
Q 1159 2491 1159 1978 
L 1159 0 
L 581 0 
L 581 4863 
L 1159 4863 
L 1159 2956 
Q 1366 3272 1645 3428 
Q 1925 3584 2291 3584 
Q 2894 3584 3203 3211 
Q 3513 2838 3513 2113 
z
" transform="scale(0.015625)"/>
      </defs>
      <use xlink:href="#DejaVuSans-70"/>
      <use xlink:href="#DejaVuSans-79" x="63.476562"/>
      <use xlink:href="#DejaVuSans-74" x="122.65625"/>
      <use xlink:href="#DejaVuSans-68" x="161.865234"/>
      <use xlink:href="#DejaVuSans-6f" x="225.244141"/>
      <use xlink:href="#DejaVuSans-6e" x="286.425781"/>
     </g>
    </g>
   </g>
  </g>
 </g>
 <defs>
  <clipPath id="pfb93e45159">
   <rect x="66.053125" y="22.318125" width="782.98" height="508.6"/>
  </clipPath>
 </defs>
</svg>
