<?xml version="1.0" encoding="utf-8" standalone="no"?>
<!DOCTYPE svg PUBLIC "-//W3C//DTD SVG 1.1//EN"
  "http://www.w3.org/Graphics/SVG/1.1/DTD/svg11.dtd">
<svg xmlns:xlink="http://www.w3.org/1999/xlink" width="856.288125pt" height="568.474375pt" viewBox="0 0 856.288125 568.474375" xmlns="http://www.w3.org/2000/svg" version="1.1">
 <metadata>
  <rdf:RDF xmlns:dc="http://purl.org/dc/elements/1.1/" xmlns:cc="http://creativecommons.org/ns#" xmlns:rdf="http://www.w3.org/1999/02/22-rdf-syntax-ns#">
   <cc:Work>
    <dc:type rdf:resource="http://purl.org/dc/dcmitype/StillImage"/>
    <dc:date>2025-06-27T15:49:04.378346</dc:date>
    <dc:format>image/svg+xml</dc:format>
    <dc:creator>
     <cc:Agent>
      <dc:title>Matplotlib v3.6.3, https://matplotlib.org/</dc:title>
     </cc:Agent>
    </dc:creator>
   </cc:Work>
  </rdf:RDF>
 </metadata>
 <defs>
  <style type="text/css">*{stroke-linejoin: round; stroke-linecap: butt}</style>
 </defs>
 <g id="figure_1">
  <g id="patch_1">
   <path d="M 0 568.474375 
L 856.288125 568.474375 
L 856.288125 0 
L 0 0 
z
" style="fill: #ffffff"/>
  </g>
  <g id="axes_1">
   <g id="patch_2">
    <path d="M 53.328125 530.918125 
L 849.088125 530.918125 
L 849.088125 22.318125 
L 53.328125 22.318125 
z
" style="fill: #ffffff"/>
   </g>
   <g id="matplotlib.axis_1">
    <g id="xtick_1">
     <g id="line2d_1">
      <path d="M 88.293319 530.918125 
L 88.293319 22.318125 
" clip-path="url(#p3892e2fdc4)" style="fill: none; stroke: #b0b0b0; stroke-opacity: 0.3; stroke-width: 0.8; stroke-linecap: square"/>
     </g>
     <g id="line2d_2">
      <defs>
       <path id="m950cf72bb2" d="M 0 0 
L 0 3.5 
" style="stroke: #000000; stroke-width: 0.8"/>
      </defs>
      <g>
       <use xlink:href="#m950cf72bb2" x="88.293319" y="530.918125" style="stroke: #000000; stroke-width: 0.8"/>
      </g>
     </g>
     <g id="text_1">
      <!-- 0 -->
      <g transform="translate(85.112069 545.516562) scale(0.1 -0.1)">
       <defs>
        <path id="DejaVuSans-30" d="M 2034 4250 
Q 1547 4250 1301 3770 
Q 1056 3291 1056 2328 
Q 1056 1369 1301 889 
Q 1547 409 2034 409 
Q 2525 409 2770 889 
Q 3016 1369 3016 2328 
Q 3016 3291 2770 3770 
Q 2525 4250 2034 4250 
z
M 2034 4750 
Q 2819 4750 3233 4129 
Q 3647 3509 3647 2328 
Q 3647 1150 3233 529 
Q 2819 -91 2034 -91 
Q 1250 -91 836 529 
Q 422 1150 422 2328 
Q 422 3509 836 4129 
Q 1250 4750 2034 4750 
z
" transform="scale(0.015625)"/>
       </defs>
       <use xlink:href="#DejaVuSans-30"/>
      </g>
     </g>
    </g>
    <g id="xtick_2">
     <g id="line2d_3">
      <path d="M 200.231353 530.918125 
L 200.231353 22.318125 
" clip-path="url(#p3892e2fdc4)" style="fill: none; stroke: #b0b0b0; stroke-opacity: 0.3; stroke-width: 0.8; stroke-linecap: square"/>
     </g>
     <g id="line2d_4">
      <g>
       <use xlink:href="#m950cf72bb2" x="200.231353" y="530.918125" style="stroke: #000000; stroke-width: 0.8"/>
      </g>
     </g>
     <g id="text_2">
      <!-- 2 -->
      <g transform="translate(197.050103 545.516562) scale(0.1 -0.1)">
       <defs>
        <path id="DejaVuSans-32" d="M 1228 531 
L 3431 531 
L 3431 0 
L 469 0 
L 469 531 
Q 828 903 1448 1529 
Q 2069 2156 2228 2338 
Q 2531 2678 2651 2914 
Q 2772 3150 2772 3378 
Q 2772 3750 2511 3984 
Q 2250 4219 1831 4219 
Q 1534 4219 1204 4116 
Q 875 4013 500 3803 
L 500 4441 
Q 881 4594 1212 4672 
Q 1544 4750 1819 4750 
Q 2544 4750 2975 4387 
Q 3406 4025 3406 3419 
Q 3406 3131 3298 2873 
Q 3191 2616 2906 2266 
Q 2828 2175 2409 1742 
Q 1991 1309 1228 531 
z
" transform="scale(0.015625)"/>
       </defs>
       <use xlink:href="#DejaVuSans-32"/>
      </g>
     </g>
    </g>
    <g id="xtick_3">
     <g id="line2d_5">
      <path d="M 312.169386 530.918125 
L 312.169386 22.318125 
" clip-path="url(#p3892e2fdc4)" style="fill: none; stroke: #b0b0b0; stroke-opacity: 0.3; stroke-width: 0.8; stroke-linecap: square"/>
     </g>
     <g id="line2d_6">
      <g>
       <use xlink:href="#m950cf72bb2" x="312.169386" y="530.918125" style="stroke: #000000; stroke-width: 0.8"/>
      </g>
     </g>
     <g id="text_3">
      <!-- 4 -->
      <g transform="translate(308.988136 545.516562) scale(0.1 -0.1)">
       <defs>
        <path id="DejaVuSans-34" d="M 2419 4116 
L 825 1625 
L 2419 1625 
L 2419 4116 
z
M 2253 4666 
L 3047 4666 
L 3047 1625 
L 3713 1625 
L 3713 1100 
L 3047 1100 
L 3047 0 
L 2419 0 
L 2419 1100 
L 313 1100 
L 313 1709 
L 2253 4666 
z
" transform="scale(0.015625)"/>
       </defs>
       <use xlink:href="#DejaVuSans-34"/>
      </g>
     </g>
    </g>
    <g id="xtick_4">
     <g id="line2d_7">
      <path d="M 424.10742 530.918125 
L 424.10742 22.318125 
" clip-path="url(#p3892e2fdc4)" style="fill: none; stroke: #b0b0b0; stroke-opacity: 0.3; stroke-width: 0.8; stroke-linecap: square"/>
     </g>
     <g id="line2d_8">
      <g>
       <use xlink:href="#m950cf72bb2" x="424.10742" y="530.918125" style="stroke: #000000; stroke-width: 0.8"/>
      </g>
     </g>
     <g id="text_4">
      <!-- 6 -->
      <g transform="translate(420.92617 545.516562) scale(0.1 -0.1)">
       <defs>
        <path id="DejaVuSans-36" d="M 2113 2584 
Q 1688 2584 1439 2293 
Q 1191 2003 1191 1497 
Q 1191 994 1439 701 
Q 1688 409 2113 409 
Q 2538 409 2786 701 
Q 3034 994 3034 1497 
Q 3034 2003 2786 2293 
Q 2538 2584 2113 2584 
z
M 3366 4563 
L 3366 3988 
Q 3128 4100 2886 4159 
Q 2644 4219 2406 4219 
Q 1781 4219 1451 3797 
Q 1122 3375 1075 2522 
Q 1259 2794 1537 2939 
Q 1816 3084 2150 3084 
Q 2853 3084 3261 2657 
Q 3669 2231 3669 1497 
Q 3669 778 3244 343 
Q 2819 -91 2113 -91 
Q 1303 -91 875 529 
Q 447 1150 447 2328 
Q 447 3434 972 4092 
Q 1497 4750 2381 4750 
Q 2619 4750 2861 4703 
Q 3103 4656 3366 4563 
z
" transform="scale(0.015625)"/>
       </defs>
       <use xlink:href="#DejaVuSans-36"/>
      </g>
     </g>
    </g>
    <g id="xtick_5">
     <g id="line2d_9">
      <path d="M 536.045454 530.918125 
L 536.045454 22.318125 
" clip-path="url(#p3892e2fdc4)" style="fill: none; stroke: #b0b0b0; stroke-opacity: 0.3; stroke-width: 0.8; stroke-linecap: square"/>
     </g>
     <g id="line2d_10">
      <g>
       <use xlink:href="#m950cf72bb2" x="536.045454" y="530.918125" style="stroke: #000000; stroke-width: 0.8"/>
      </g>
     </g>
     <g id="text_5">
      <!-- 8 -->
      <g transform="translate(532.864204 545.516562) scale(0.1 -0.1)">
       <defs>
        <path id="DejaVuSans-38" d="M 2034 2216 
Q 1584 2216 1326 1975 
Q 1069 1734 1069 1313 
Q 1069 891 1326 650 
Q 1584 409 2034 409 
Q 2484 409 2743 651 
Q 3003 894 3003 1313 
Q 3003 1734 2745 1975 
Q 2488 2216 2034 2216 
z
M 1403 2484 
Q 997 2584 770 2862 
Q 544 3141 544 3541 
Q 544 4100 942 4425 
Q 1341 4750 2034 4750 
Q 2731 4750 3128 4425 
Q 3525 4100 3525 3541 
Q 3525 3141 3298 2862 
Q 3072 2584 2669 2484 
Q 3125 2378 3379 2068 
Q 3634 1759 3634 1313 
Q 3634 634 3220 271 
Q 2806 -91 2034 -91 
Q 1263 -91 848 271 
Q 434 634 434 1313 
Q 434 1759 690 2068 
Q 947 2378 1403 2484 
z
M 1172 3481 
Q 1172 3119 1398 2916 
Q 1625 2713 2034 2713 
Q 2441 2713 2670 2916 
Q 2900 3119 2900 3481 
Q 2900 3844 2670 4047 
Q 2441 4250 2034 4250 
Q 1625 4250 1398 4047 
Q 1172 3844 1172 3481 
z
" transform="scale(0.015625)"/>
       </defs>
       <use xlink:href="#DejaVuSans-38"/>
      </g>
     </g>
    </g>
    <g id="xtick_6">
     <g id="line2d_11">
      <path d="M 647.983487 530.918125 
L 647.983487 22.318125 
" clip-path="url(#p3892e2fdc4)" style="fill: none; stroke: #b0b0b0; stroke-opacity: 0.3; stroke-width: 0.8; stroke-linecap: square"/>
     </g>
     <g id="line2d_12">
      <g>
       <use xlink:href="#m950cf72bb2" x="647.983487" y="530.918125" style="stroke: #000000; stroke-width: 0.8"/>
      </g>
     </g>
     <g id="text_6">
      <!-- 10 -->
      <g transform="translate(641.620987 545.516562) scale(0.1 -0.1)">
       <defs>
        <path id="DejaVuSans-31" d="M 794 531 
L 1825 531 
L 1825 4091 
L 703 3866 
L 703 4441 
L 1819 4666 
L 2450 4666 
L 2450 531 
L 3481 531 
L 3481 0 
L 794 0 
L 794 531 
z
" transform="scale(0.015625)"/>
       </defs>
       <use xlink:href="#DejaVuSans-31"/>
       <use xlink:href="#DejaVuSans-30" x="63.623047"/>
      </g>
     </g>
    </g>
    <g id="xtick_7">
     <g id="line2d_13">
      <path d="M 759.921521 530.918125 
L 759.921521 22.318125 
" clip-path="url(#p3892e2fdc4)" style="fill: none; stroke: #b0b0b0; stroke-opacity: 0.3; stroke-width: 0.8; stroke-linecap: square"/>
     </g>
     <g id="line2d_14">
      <g>
       <use xlink:href="#m950cf72bb2" x="759.921521" y="530.918125" style="stroke: #000000; stroke-width: 0.8"/>
      </g>
     </g>
     <g id="text_7">
      <!-- 12 -->
      <g transform="translate(753.559021 545.516562) scale(0.1 -0.1)">
       <use xlink:href="#DejaVuSans-31"/>
       <use xlink:href="#DejaVuSans-32" x="63.623047"/>
      </g>
     </g>
    </g>
    <g id="text_8">
     <!-- Elapsed Time (seconds) -->
     <g transform="translate(391.815156 559.194687) scale(0.1 -0.1)">
      <defs>
       <path id="DejaVuSans-45" d="M 628 4666 
L 3578 4666 
L 3578 4134 
L 1259 4134 
L 1259 2753 
L 3481 2753 
L 3481 2222 
L 1259 2222 
L 1259 531 
L 3634 531 
L 3634 0 
L 628 0 
L 628 4666 
z
" transform="scale(0.015625)"/>
       <path id="DejaVuSans-6c" d="M 603 4863 
L 1178 4863 
L 1178 0 
L 603 0 
L 603 4863 
z
" transform="scale(0.015625)"/>
       <path id="DejaVuSans-61" d="M 2194 1759 
Q 1497 1759 1228 1600 
Q 959 1441 959 1056 
Q 959 750 1161 570 
Q 1363 391 1709 391 
Q 2188 391 2477 730 
Q 2766 1069 2766 1631 
L 2766 1759 
L 2194 1759 
z
M 3341 1997 
L 3341 0 
L 2766 0 
L 2766 531 
Q 2569 213 2275 61 
Q 1981 -91 1556 -91 
Q 1019 -91 701 211 
Q 384 513 384 1019 
Q 384 1609 779 1909 
Q 1175 2209 1959 2209 
L 2766 2209 
L 2766 2266 
Q 2766 2663 2505 2880 
Q 2244 3097 1772 3097 
Q 1472 3097 1187 3025 
Q 903 2953 641 2809 
L 641 3341 
Q 956 3463 1253 3523 
Q 1550 3584 1831 3584 
Q 2591 3584 2966 3190 
Q 3341 2797 3341 1997 
z
" transform="scale(0.015625)"/>
       <path id="DejaVuSans-70" d="M 1159 525 
L 1159 -1331 
L 581 -1331 
L 581 3500 
L 1159 3500 
L 1159 2969 
Q 1341 3281 1617 3432 
Q 1894 3584 2278 3584 
Q 2916 3584 3314 3078 
Q 3713 2572 3713 1747 
Q 3713 922 3314 415 
Q 2916 -91 2278 -91 
Q 1894 -91 1617 61 
Q 1341 213 1159 525 
z
M 3116 1747 
Q 3116 2381 2855 2742 
Q 2594 3103 2138 3103 
Q 1681 3103 1420 2742 
Q 1159 2381 1159 1747 
Q 1159 1113 1420 752 
Q 1681 391 2138 391 
Q 2594 391 2855 752 
Q 3116 1113 3116 1747 
z
" transform="scale(0.015625)"/>
       <path id="DejaVuSans-73" d="M 2834 3397 
L 2834 2853 
Q 2591 2978 2328 3040 
Q 2066 3103 1784 3103 
Q 1356 3103 1142 2972 
Q 928 2841 928 2578 
Q 928 2378 1081 2264 
Q 1234 2150 1697 2047 
L 1894 2003 
Q 2506 1872 2764 1633 
Q 3022 1394 3022 966 
Q 3022 478 2636 193 
Q 2250 -91 1575 -91 
Q 1294 -91 989 -36 
Q 684 19 347 128 
L 347 722 
Q 666 556 975 473 
Q 1284 391 1588 391 
Q 1994 391 2212 530 
Q 2431 669 2431 922 
Q 2431 1156 2273 1281 
Q 2116 1406 1581 1522 
L 1381 1569 
Q 847 1681 609 1914 
Q 372 2147 372 2553 
Q 372 3047 722 3315 
Q 1072 3584 1716 3584 
Q 2034 3584 2315 3537 
Q 2597 3491 2834 3397 
z
" transform="scale(0.015625)"/>
       <path id="DejaVuSans-65" d="M 3597 1894 
L 3597 1613 
L 953 1613 
Q 991 1019 1311 708 
Q 1631 397 2203 397 
Q 2534 397 2845 478 
Q 3156 559 3463 722 
L 3463 178 
Q 3153 47 2828 -22 
Q 2503 -91 2169 -91 
Q 1331 -91 842 396 
Q 353 884 353 1716 
Q 353 2575 817 3079 
Q 1281 3584 2069 3584 
Q 2775 3584 3186 3129 
Q 3597 2675 3597 1894 
z
M 3022 2063 
Q 3016 2534 2758 2815 
Q 2500 3097 2075 3097 
Q 1594 3097 1305 2825 
Q 1016 2553 972 2059 
L 3022 2063 
z
" transform="scale(0.015625)"/>
       <path id="DejaVuSans-64" d="M 2906 2969 
L 2906 4863 
L 3481 4863 
L 3481 0 
L 2906 0 
L 2906 525 
Q 2725 213 2448 61 
Q 2172 -91 1784 -91 
Q 1150 -91 751 415 
Q 353 922 353 1747 
Q 353 2572 751 3078 
Q 1150 3584 1784 3584 
Q 2172 3584 2448 3432 
Q 2725 3281 2906 2969 
z
M 947 1747 
Q 947 1113 1208 752 
Q 1469 391 1925 391 
Q 2381 391 2643 752 
Q 2906 1113 2906 1747 
Q 2906 2381 2643 2742 
Q 2381 3103 1925 3103 
Q 1469 3103 1208 2742 
Q 947 2381 947 1747 
z
" transform="scale(0.015625)"/>
       <path id="DejaVuSans-20" transform="scale(0.015625)"/>
       <path id="DejaVuSans-54" d="M -19 4666 
L 3928 4666 
L 3928 4134 
L 2272 4134 
L 2272 0 
L 1638 0 
L 1638 4134 
L -19 4134 
L -19 4666 
z
" transform="scale(0.015625)"/>
       <path id="DejaVuSans-69" d="M 603 3500 
L 1178 3500 
L 1178 0 
L 603 0 
L 603 3500 
z
M 603 4863 
L 1178 4863 
L 1178 4134 
L 603 4134 
L 603 4863 
z
" transform="scale(0.015625)"/>
       <path id="DejaVuSans-6d" d="M 3328 2828 
Q 3544 3216 3844 3400 
Q 4144 3584 4550 3584 
Q 5097 3584 5394 3201 
Q 5691 2819 5691 2113 
L 5691 0 
L 5113 0 
L 5113 2094 
Q 5113 2597 4934 2840 
Q 4756 3084 4391 3084 
Q 3944 3084 3684 2787 
Q 3425 2491 3425 1978 
L 3425 0 
L 2847 0 
L 2847 2094 
Q 2847 2600 2669 2842 
Q 2491 3084 2119 3084 
Q 1678 3084 1418 2786 
Q 1159 2488 1159 1978 
L 1159 0 
L 581 0 
L 581 3500 
L 1159 3500 
L 1159 2956 
Q 1356 3278 1631 3431 
Q 1906 3584 2284 3584 
Q 2666 3584 2933 3390 
Q 3200 3197 3328 2828 
z
" transform="scale(0.015625)"/>
       <path id="DejaVuSans-28" d="M 1984 4856 
Q 1566 4138 1362 3434 
Q 1159 2731 1159 2009 
Q 1159 1288 1364 580 
Q 1569 -128 1984 -844 
L 1484 -844 
Q 1016 -109 783 600 
Q 550 1309 550 2009 
Q 550 2706 781 3412 
Q 1013 4119 1484 4856 
L 1984 4856 
z
" transform="scale(0.015625)"/>
       <path id="DejaVuSans-63" d="M 3122 3366 
L 3122 2828 
Q 2878 2963 2633 3030 
Q 2388 3097 2138 3097 
Q 1578 3097 1268 2742 
Q 959 2388 959 1747 
Q 959 1106 1268 751 
Q 1578 397 2138 397 
Q 2388 397 2633 464 
Q 2878 531 3122 666 
L 3122 134 
Q 2881 22 2623 -34 
Q 2366 -91 2075 -91 
Q 1284 -91 818 406 
Q 353 903 353 1747 
Q 353 2603 823 3093 
Q 1294 3584 2113 3584 
Q 2378 3584 2631 3529 
Q 2884 3475 3122 3366 
z
" transform="scale(0.015625)"/>
       <path id="DejaVuSans-6f" d="M 1959 3097 
Q 1497 3097 1228 2736 
Q 959 2375 959 1747 
Q 959 1119 1226 758 
Q 1494 397 1959 397 
Q 2419 397 2687 759 
Q 2956 1122 2956 1747 
Q 2956 2369 2687 2733 
Q 2419 3097 1959 3097 
z
M 1959 3584 
Q 2709 3584 3137 3096 
Q 3566 2609 3566 1747 
Q 3566 888 3137 398 
Q 2709 -91 1959 -91 
Q 1206 -91 779 398 
Q 353 888 353 1747 
Q 353 2609 779 3096 
Q 1206 3584 1959 3584 
z
" transform="scale(0.015625)"/>
       <path id="DejaVuSans-6e" d="M 3513 2113 
L 3513 0 
L 2938 0 
L 2938 2094 
Q 2938 2591 2744 2837 
Q 2550 3084 2163 3084 
Q 1697 3084 1428 2787 
Q 1159 2491 1159 1978 
L 1159 0 
L 581 0 
L 581 3500 
L 1159 3500 
L 1159 2956 
Q 1366 3272 1645 3428 
Q 1925 3584 2291 3584 
Q 2894 3584 3203 3211 
Q 3513 2838 3513 2113 
z
" transform="scale(0.015625)"/>
       <path id="DejaVuSans-29" d="M 513 4856 
L 1013 4856 
Q 1481 4119 1714 3412 
Q 1947 2706 1947 2009 
Q 1947 1309 1714 600 
Q 1481 -109 1013 -844 
L 513 -844 
Q 928 -128 1133 580 
Q 1338 1288 1338 2009 
Q 1338 2731 1133 3434 
Q 928 4138 513 4856 
z
" transform="scale(0.015625)"/>
      </defs>
      <use xlink:href="#DejaVuSans-45"/>
      <use xlink:href="#DejaVuSans-6c" x="63.183594"/>
      <use xlink:href="#DejaVuSans-61" x="90.966797"/>
      <use xlink:href="#DejaVuSans-70" x="152.246094"/>
      <use xlink:href="#DejaVuSans-73" x="215.722656"/>
      <use xlink:href="#DejaVuSans-65" x="267.822266"/>
      <use xlink:href="#DejaVuSans-64" x="329.345703"/>
      <use xlink:href="#DejaVuSans-20" x="392.822266"/>
      <use xlink:href="#DejaVuSans-54" x="424.609375"/>
      <use xlink:href="#DejaVuSans-69" x="482.568359"/>
      <use xlink:href="#DejaVuSans-6d" x="510.351562"/>
      <use xlink:href="#DejaVuSans-65" x="607.763672"/>
      <use xlink:href="#DejaVuSans-20" x="669.287109"/>
      <use xlink:href="#DejaVuSans-28" x="701.074219"/>
      <use xlink:href="#DejaVuSans-73" x="740.087891"/>
      <use xlink:href="#DejaVuSans-65" x="792.1875"/>
      <use xlink:href="#DejaVuSans-63" x="853.710938"/>
      <use xlink:href="#DejaVuSans-6f" x="908.691406"/>
      <use xlink:href="#DejaVuSans-6e" x="969.873047"/>
      <use xlink:href="#DejaVuSans-64" x="1033.251953"/>
      <use xlink:href="#DejaVuSans-73" x="1096.728516"/>
      <use xlink:href="#DejaVuSans-29" x="1148.828125"/>
     </g>
    </g>
   </g>
   <g id="matplotlib.axis_2">
    <g id="ytick_1">
     <g id="line2d_15">
      <path d="M 53.328125 507.799943 
L 849.088125 507.799943 
" clip-path="url(#p3892e2fdc4)" style="fill: none; stroke: #b0b0b0; stroke-opacity: 0.3; stroke-width: 0.8; stroke-linecap: square"/>
     </g>
     <g id="line2d_16">
      <defs>
       <path id="m10c41085d9" d="M 0 0 
L -3.5 0 
" style="stroke: #000000; stroke-width: 0.8"/>
      </defs>
      <g>
       <use xlink:href="#m10c41085d9" x="53.328125" y="507.799943" style="stroke: #000000; stroke-width: 0.8"/>
      </g>
     </g>
     <g id="text_9">
      <!-- 0 -->
      <g transform="translate(39.965625 511.599162) scale(0.1 -0.1)">
       <use xlink:href="#DejaVuSans-30"/>
      </g>
     </g>
    </g>
    <g id="ytick_2">
     <g id="line2d_17">
      <path d="M 53.328125 445.132061 
L 849.088125 445.132061 
" clip-path="url(#p3892e2fdc4)" style="fill: none; stroke: #b0b0b0; stroke-opacity: 0.3; stroke-width: 0.8; stroke-linecap: square"/>
     </g>
     <g id="line2d_18">
      <g>
       <use xlink:href="#m10c41085d9" x="53.328125" y="445.132061" style="stroke: #000000; stroke-width: 0.8"/>
      </g>
     </g>
     <g id="text_10">
      <!-- 200 -->
      <g transform="translate(27.240625 448.93128) scale(0.1 -0.1)">
       <use xlink:href="#DejaVuSans-32"/>
       <use xlink:href="#DejaVuSans-30" x="63.623047"/>
       <use xlink:href="#DejaVuSans-30" x="127.246094"/>
      </g>
     </g>
    </g>
    <g id="ytick_3">
     <g id="line2d_19">
      <path d="M 53.328125 382.464178 
L 849.088125 382.464178 
" clip-path="url(#p3892e2fdc4)" style="fill: none; stroke: #b0b0b0; stroke-opacity: 0.3; stroke-width: 0.8; stroke-linecap: square"/>
     </g>
     <g id="line2d_20">
      <g>
       <use xlink:href="#m10c41085d9" x="53.328125" y="382.464178" style="stroke: #000000; stroke-width: 0.8"/>
      </g>
     </g>
     <g id="text_11">
      <!-- 400 -->
      <g transform="translate(27.240625 386.263397) scale(0.1 -0.1)">
       <use xlink:href="#DejaVuSans-34"/>
       <use xlink:href="#DejaVuSans-30" x="63.623047"/>
       <use xlink:href="#DejaVuSans-30" x="127.246094"/>
      </g>
     </g>
    </g>
    <g id="ytick_4">
     <g id="line2d_21">
      <path d="M 53.328125 319.796296 
L 849.088125 319.796296 
" clip-path="url(#p3892e2fdc4)" style="fill: none; stroke: #b0b0b0; stroke-opacity: 0.3; stroke-width: 0.8; stroke-linecap: square"/>
     </g>
     <g id="line2d_22">
      <g>
       <use xlink:href="#m10c41085d9" x="53.328125" y="319.796296" style="stroke: #000000; stroke-width: 0.8"/>
      </g>
     </g>
     <g id="text_12">
      <!-- 600 -->
      <g transform="translate(27.240625 323.595515) scale(0.1 -0.1)">
       <use xlink:href="#DejaVuSans-36"/>
       <use xlink:href="#DejaVuSans-30" x="63.623047"/>
       <use xlink:href="#DejaVuSans-30" x="127.246094"/>
      </g>
     </g>
    </g>
    <g id="ytick_5">
     <g id="line2d_23">
      <path d="M 53.328125 257.128414 
L 849.088125 257.128414 
" clip-path="url(#p3892e2fdc4)" style="fill: none; stroke: #b0b0b0; stroke-opacity: 0.3; stroke-width: 0.8; stroke-linecap: square"/>
     </g>
     <g id="line2d_24">
      <g>
       <use xlink:href="#m10c41085d9" x="53.328125" y="257.128414" style="stroke: #000000; stroke-width: 0.8"/>
      </g>
     </g>
     <g id="text_13">
      <!-- 800 -->
      <g transform="translate(27.240625 260.927632) scale(0.1 -0.1)">
       <use xlink:href="#DejaVuSans-38"/>
       <use xlink:href="#DejaVuSans-30" x="63.623047"/>
       <use xlink:href="#DejaVuSans-30" x="127.246094"/>
      </g>
     </g>
    </g>
    <g id="ytick_6">
     <g id="line2d_25">
      <path d="M 53.328125 194.460531 
L 849.088125 194.460531 
" clip-path="url(#p3892e2fdc4)" style="fill: none; stroke: #b0b0b0; stroke-opacity: 0.3; stroke-width: 0.8; stroke-linecap: square"/>
     </g>
     <g id="line2d_26">
      <g>
       <use xlink:href="#m10c41085d9" x="53.328125" y="194.460531" style="stroke: #000000; stroke-width: 0.8"/>
      </g>
     </g>
     <g id="text_14">
      <!-- 1000 -->
      <g transform="translate(20.878125 198.25975) scale(0.1 -0.1)">
       <use xlink:href="#DejaVuSans-31"/>
       <use xlink:href="#DejaVuSans-30" x="63.623047"/>
       <use xlink:href="#DejaVuSans-30" x="127.246094"/>
       <use xlink:href="#DejaVuSans-30" x="190.869141"/>
      </g>
     </g>
    </g>
    <g id="ytick_7">
     <g id="line2d_27">
      <path d="M 53.328125 131.792649 
L 849.088125 131.792649 
" clip-path="url(#p3892e2fdc4)" style="fill: none; stroke: #b0b0b0; stroke-opacity: 0.3; stroke-width: 0.8; stroke-linecap: square"/>
     </g>
     <g id="line2d_28">
      <g>
       <use xlink:href="#m10c41085d9" x="53.328125" y="131.792649" style="stroke: #000000; stroke-width: 0.8"/>
      </g>
     </g>
     <g id="text_15">
      <!-- 1200 -->
      <g transform="translate(20.878125 135.591868) scale(0.1 -0.1)">
       <use xlink:href="#DejaVuSans-31"/>
       <use xlink:href="#DejaVuSans-32" x="63.623047"/>
       <use xlink:href="#DejaVuSans-30" x="127.246094"/>
       <use xlink:href="#DejaVuSans-30" x="190.869141"/>
      </g>
     </g>
    </g>
    <g id="ytick_8">
     <g id="line2d_29">
      <path d="M 53.328125 69.124766 
L 849.088125 69.124766 
" clip-path="url(#p3892e2fdc4)" style="fill: none; stroke: #b0b0b0; stroke-opacity: 0.3; stroke-width: 0.8; stroke-linecap: square"/>
     </g>
     <g id="line2d_30">
      <g>
       <use xlink:href="#m10c41085d9" x="53.328125" y="69.124766" style="stroke: #000000; stroke-width: 0.8"/>
      </g>
     </g>
     <g id="text_16">
      <!-- 1400 -->
      <g transform="translate(20.878125 72.923985) scale(0.1 -0.1)">
       <use xlink:href="#DejaVuSans-31"/>
       <use xlink:href="#DejaVuSans-34" x="63.623047"/>
       <use xlink:href="#DejaVuSans-30" x="127.246094"/>
       <use xlink:href="#DejaVuSans-30" x="190.869141"/>
      </g>
     </g>
    </g>
    <g id="text_17">
     <!-- CPU Usage (%) -->
     <g transform="translate(14.798438 314.193125) rotate(-90) scale(0.1 -0.1)">
      <defs>
       <path id="DejaVuSans-43" d="M 4122 4306 
L 4122 3641 
Q 3803 3938 3442 4084 
Q 3081 4231 2675 4231 
Q 1875 4231 1450 3742 
Q 1025 3253 1025 2328 
Q 1025 1406 1450 917 
Q 1875 428 2675 428 
Q 3081 428 3442 575 
Q 3803 722 4122 1019 
L 4122 359 
Q 3791 134 3420 21 
Q 3050 -91 2638 -91 
Q 1578 -91 968 557 
Q 359 1206 359 2328 
Q 359 3453 968 4101 
Q 1578 4750 2638 4750 
Q 3056 4750 3426 4639 
Q 3797 4528 4122 4306 
z
" transform="scale(0.015625)"/>
       <path id="DejaVuSans-50" d="M 1259 4147 
L 1259 2394 
L 2053 2394 
Q 2494 2394 2734 2622 
Q 2975 2850 2975 3272 
Q 2975 3691 2734 3919 
Q 2494 4147 2053 4147 
L 1259 4147 
z
M 628 4666 
L 2053 4666 
Q 2838 4666 3239 4311 
Q 3641 3956 3641 3272 
Q 3641 2581 3239 2228 
Q 2838 1875 2053 1875 
L 1259 1875 
L 1259 0 
L 628 0 
L 628 4666 
z
" transform="scale(0.015625)"/>
       <path id="DejaVuSans-55" d="M 556 4666 
L 1191 4666 
L 1191 1831 
Q 1191 1081 1462 751 
Q 1734 422 2344 422 
Q 2950 422 3222 751 
Q 3494 1081 3494 1831 
L 3494 4666 
L 4128 4666 
L 4128 1753 
Q 4128 841 3676 375 
Q 3225 -91 2344 -91 
Q 1459 -91 1007 375 
Q 556 841 556 1753 
L 556 4666 
z
" transform="scale(0.015625)"/>
       <path id="DejaVuSans-67" d="M 2906 1791 
Q 2906 2416 2648 2759 
Q 2391 3103 1925 3103 
Q 1463 3103 1205 2759 
Q 947 2416 947 1791 
Q 947 1169 1205 825 
Q 1463 481 1925 481 
Q 2391 481 2648 825 
Q 2906 1169 2906 1791 
z
M 3481 434 
Q 3481 -459 3084 -895 
Q 2688 -1331 1869 -1331 
Q 1566 -1331 1297 -1286 
Q 1028 -1241 775 -1147 
L 775 -588 
Q 1028 -725 1275 -790 
Q 1522 -856 1778 -856 
Q 2344 -856 2625 -561 
Q 2906 -266 2906 331 
L 2906 616 
Q 2728 306 2450 153 
Q 2172 0 1784 0 
Q 1141 0 747 490 
Q 353 981 353 1791 
Q 353 2603 747 3093 
Q 1141 3584 1784 3584 
Q 2172 3584 2450 3431 
Q 2728 3278 2906 2969 
L 2906 3500 
L 3481 3500 
L 3481 434 
z
" transform="scale(0.015625)"/>
       <path id="DejaVuSans-25" d="M 4653 2053 
Q 4381 2053 4226 1822 
Q 4072 1591 4072 1178 
Q 4072 772 4226 539 
Q 4381 306 4653 306 
Q 4919 306 5073 539 
Q 5228 772 5228 1178 
Q 5228 1588 5073 1820 
Q 4919 2053 4653 2053 
z
M 4653 2450 
Q 5147 2450 5437 2106 
Q 5728 1763 5728 1178 
Q 5728 594 5436 251 
Q 5144 -91 4653 -91 
Q 4153 -91 3862 251 
Q 3572 594 3572 1178 
Q 3572 1766 3864 2108 
Q 4156 2450 4653 2450 
z
M 1428 4353 
Q 1159 4353 1004 4120 
Q 850 3888 850 3481 
Q 850 3069 1003 2837 
Q 1156 2606 1428 2606 
Q 1700 2606 1854 2837 
Q 2009 3069 2009 3481 
Q 2009 3884 1853 4118 
Q 1697 4353 1428 4353 
z
M 4250 4750 
L 4750 4750 
L 1831 -91 
L 1331 -91 
L 4250 4750 
z
M 1428 4750 
Q 1922 4750 2215 4408 
Q 2509 4066 2509 3481 
Q 2509 2891 2217 2550 
Q 1925 2209 1428 2209 
Q 931 2209 642 2551 
Q 353 2894 353 3481 
Q 353 4063 643 4406 
Q 934 4750 1428 4750 
z
" transform="scale(0.015625)"/>
      </defs>
      <use xlink:href="#DejaVuSans-43"/>
      <use xlink:href="#DejaVuSans-50" x="69.824219"/>
      <use xlink:href="#DejaVuSans-55" x="130.126953"/>
      <use xlink:href="#DejaVuSans-20" x="203.320312"/>
      <use xlink:href="#DejaVuSans-55" x="235.107422"/>
      <use xlink:href="#DejaVuSans-73" x="308.300781"/>
      <use xlink:href="#DejaVuSans-61" x="360.400391"/>
      <use xlink:href="#DejaVuSans-67" x="421.679688"/>
      <use xlink:href="#DejaVuSans-65" x="485.15625"/>
      <use xlink:href="#DejaVuSans-20" x="546.679688"/>
      <use xlink:href="#DejaVuSans-28" x="578.466797"/>
      <use xlink:href="#DejaVuSans-25" x="617.480469"/>
      <use xlink:href="#DejaVuSans-29" x="712.5"/>
     </g>
    </g>
   </g>
   <g id="line2d_31">
    <path d="M 89.499034 507.799943 
L 100.727855 507.799943 
L 111.942251 507.799943 
L 123.156553 507.799943 
L 134.387816 507.799943 
L 145.601892 507.799943 
L 151.218324 507.799943 
L 156.829925 507.799943 
L 162.442287 507.799943 
L 168.059694 507.799943 
L 173.675125 507.799943 
L 179.297775 507.799943 
L 184.909564 507.799943 
L 190.52266 507.799943 
L 196.135395 507.799943 
L 201.747531 364.102489 
L 207.38151 212.038872 
L 212.993165 201.573336 
L 218.608489 173.654794 
L 224.250715 193.833852 
L 229.865279 161.089884 
L 235.479496 173.62346 
L 241.170161 178.010212 
L 246.864256 202.920695 
L 252.47914 198.690613 
L 258.09688 186.157037 
L 263.711537 189.165095 
L 269.330558 192.643163 
L 274.946122 164.191944 
L 280.60703 179.451573 
L 286.242144 181.01827 
L 291.858549 176.788188 
L 297.494557 187.285059 
L 303.107907 201.730006 
L 308.721563 207.840124 
L 314.336888 223.601096 
L 319.951251 217.27164 
L 325.587419 243.341479 
L 331.202277 239.174065 
L 336.816814 257.97443 
L 342.433406 236.103339 
L 348.047049 251.644974 
L 353.660652 245.378186 
L 359.275336 239.174065 
L 364.892435 195.588553 
L 370.506559 211.036186 
L 376.121029 217.302974 
L 381.736674 229.836551 
L 387.383677 228.332522 
L 392.998468 217.302974 
L 398.661644 219.841024 
L 404.297719 224.635117 
L 409.932192 199.661965 
L 415.546542 207.934126 
L 421.160906 214.200914 
L 426.847795 208.654807 
L 432.470779 211.506195 
L 438.104998 230.807903 
L 443.718948 210.973518 
L 449.333699 220.467702 
L 454.94841 217.992321 
L 460.575771 217.27164 
L 466.18936 226.671823 
L 471.803964 236.040671 
L 477.419315 248.574248 
L 483.033933 229.773883 
L 488.650125 198.690613 
L 494.264889 192.298489 
L 499.905567 200.037973 
L 505.584969 248.417578 
L 511.200227 239.236733 
L 516.820235 236.322677 
L 522.435693 273.578733 
L 528.059625 233.40862 
L 533.676711 245.378186 
L 539.288005 226.609155 
L 544.901475 220.467702 
L 550.532599 221.282385 
L 556.149404 179.827581 
L 561.761073 179.702245 
L 567.399269 181.206274 
L 573.023654 183.618988 
L 578.665013 178.166882 
L 584.281058 170.552734 
L 589.918213 221.595724 
L 595.532697 182.835639 
L 601.144979 186.094369 
L 606.760904 195.463217 
L 612.375174 167.325338 
L 617.990125 170.458732 
L 623.604702 176.72552 
L 629.247849 178.354885 
L 634.894599 172.401437 
L 640.554025 179.357572 
L 646.169403 170.490066 
L 651.784941 179.858915 
L 657.421189 187.347727 
L 663.055836 193.739851 
L 668.675577 198.596611 
L 674.290969 192.361157 
L 679.905546 182.960975 
L 685.520403 208.028128 
L 691.139037 208.090796 
L 696.753588 198.565277 
L 702.369806 179.952916 
L 707.985678 170.552734 
L 713.601176 170.427398 
L 719.21251 170.302063 
L 724.8265 170.584068 
L 730.442946 164.191944 
L 736.102879 176.255511 
L 741.720219 179.98425 
L 747.400849 192.893834 
L 753.033668 177.822208 
L 758.648472 189.071093 
L 764.262662 507.799943 
L 769.890476 507.799943 
L 775.5131 507.799943 
L 781.152084 507.799943 
L 786.778217 507.799943 
L 792.408113 507.799943 
L 798.03953 507.799943 
L 803.666277 507.799943 
L 809.290836 507.799943 
" clip-path="url(#p3892e2fdc4)" style="fill: none; stroke: #2ca02c; stroke-width: 2; stroke-linecap: square"/>
    <defs>
     <path id="m5d3e7cf19a" d="M 0 2 
C 0.530406 2 1.03916 1.789267 1.414214 1.414214 
C 1.789267 1.03916 2 0.530406 2 0 
C 2 -0.530406 1.789267 -1.03916 1.414214 -1.414214 
C 1.03916 -1.789267 0.530406 -2 0 -2 
C -0.530406 -2 -1.03916 -1.789267 -1.414214 -1.414214 
C -1.789267 -1.03916 -2 -0.530406 -2 0 
C -2 0.530406 -1.789267 1.03916 -1.414214 1.414214 
C -1.03916 1.789267 -0.530406 2 0 2 
z
" style="stroke: #2ca02c"/>
    </defs>
    <g clip-path="url(#p3892e2fdc4)">
     <use xlink:href="#m5d3e7cf19a" x="89.499034" y="507.799943" style="fill: #2ca02c; stroke: #2ca02c"/>
     <use xlink:href="#m5d3e7cf19a" x="100.727855" y="507.799943" style="fill: #2ca02c; stroke: #2ca02c"/>
     <use xlink:href="#m5d3e7cf19a" x="111.942251" y="507.799943" style="fill: #2ca02c; stroke: #2ca02c"/>
     <use xlink:href="#m5d3e7cf19a" x="123.156553" y="507.799943" style="fill: #2ca02c; stroke: #2ca02c"/>
     <use xlink:href="#m5d3e7cf19a" x="134.387816" y="507.799943" style="fill: #2ca02c; stroke: #2ca02c"/>
     <use xlink:href="#m5d3e7cf19a" x="145.601892" y="507.799943" style="fill: #2ca02c; stroke: #2ca02c"/>
     <use xlink:href="#m5d3e7cf19a" x="151.218324" y="507.799943" style="fill: #2ca02c; stroke: #2ca02c"/>
     <use xlink:href="#m5d3e7cf19a" x="156.829925" y="507.799943" style="fill: #2ca02c; stroke: #2ca02c"/>
     <use xlink:href="#m5d3e7cf19a" x="162.442287" y="507.799943" style="fill: #2ca02c; stroke: #2ca02c"/>
     <use xlink:href="#m5d3e7cf19a" x="168.059694" y="507.799943" style="fill: #2ca02c; stroke: #2ca02c"/>
     <use xlink:href="#m5d3e7cf19a" x="173.675125" y="507.799943" style="fill: #2ca02c; stroke: #2ca02c"/>
     <use xlink:href="#m5d3e7cf19a" x="179.297775" y="507.799943" style="fill: #2ca02c; stroke: #2ca02c"/>
     <use xlink:href="#m5d3e7cf19a" x="184.909564" y="507.799943" style="fill: #2ca02c; stroke: #2ca02c"/>
     <use xlink:href="#m5d3e7cf19a" x="190.52266" y="507.799943" style="fill: #2ca02c; stroke: #2ca02c"/>
     <use xlink:href="#m5d3e7cf19a" x="196.135395" y="507.799943" style="fill: #2ca02c; stroke: #2ca02c"/>
     <use xlink:href="#m5d3e7cf19a" x="201.747531" y="364.102489" style="fill: #2ca02c; stroke: #2ca02c"/>
     <use xlink:href="#m5d3e7cf19a" x="207.38151" y="212.038872" style="fill: #2ca02c; stroke: #2ca02c"/>
     <use xlink:href="#m5d3e7cf19a" x="212.993165" y="201.573336" style="fill: #2ca02c; stroke: #2ca02c"/>
     <use xlink:href="#m5d3e7cf19a" x="218.608489" y="173.654794" style="fill: #2ca02c; stroke: #2ca02c"/>
     <use xlink:href="#m5d3e7cf19a" x="224.250715" y="193.833852" style="fill: #2ca02c; stroke: #2ca02c"/>
     <use xlink:href="#m5d3e7cf19a" x="229.865279" y="161.089884" style="fill: #2ca02c; stroke: #2ca02c"/>
     <use xlink:href="#m5d3e7cf19a" x="235.479496" y="173.62346" style="fill: #2ca02c; stroke: #2ca02c"/>
     <use xlink:href="#m5d3e7cf19a" x="241.170161" y="178.010212" style="fill: #2ca02c; stroke: #2ca02c"/>
     <use xlink:href="#m5d3e7cf19a" x="246.864256" y="202.920695" style="fill: #2ca02c; stroke: #2ca02c"/>
     <use xlink:href="#m5d3e7cf19a" x="252.47914" y="198.690613" style="fill: #2ca02c; stroke: #2ca02c"/>
     <use xlink:href="#m5d3e7cf19a" x="258.09688" y="186.157037" style="fill: #2ca02c; stroke: #2ca02c"/>
     <use xlink:href="#m5d3e7cf19a" x="263.711537" y="189.165095" style="fill: #2ca02c; stroke: #2ca02c"/>
     <use xlink:href="#m5d3e7cf19a" x="269.330558" y="192.643163" style="fill: #2ca02c; stroke: #2ca02c"/>
     <use xlink:href="#m5d3e7cf19a" x="274.946122" y="164.191944" style="fill: #2ca02c; stroke: #2ca02c"/>
     <use xlink:href="#m5d3e7cf19a" x="280.60703" y="179.451573" style="fill: #2ca02c; stroke: #2ca02c"/>
     <use xlink:href="#m5d3e7cf19a" x="286.242144" y="181.01827" style="fill: #2ca02c; stroke: #2ca02c"/>
     <use xlink:href="#m5d3e7cf19a" x="291.858549" y="176.788188" style="fill: #2ca02c; stroke: #2ca02c"/>
     <use xlink:href="#m5d3e7cf19a" x="297.494557" y="187.285059" style="fill: #2ca02c; stroke: #2ca02c"/>
     <use xlink:href="#m5d3e7cf19a" x="303.107907" y="201.730006" style="fill: #2ca02c; stroke: #2ca02c"/>
     <use xlink:href="#m5d3e7cf19a" x="308.721563" y="207.840124" style="fill: #2ca02c; stroke: #2ca02c"/>
     <use xlink:href="#m5d3e7cf19a" x="314.336888" y="223.601096" style="fill: #2ca02c; stroke: #2ca02c"/>
     <use xlink:href="#m5d3e7cf19a" x="319.951251" y="217.27164" style="fill: #2ca02c; stroke: #2ca02c"/>
     <use xlink:href="#m5d3e7cf19a" x="325.587419" y="243.341479" style="fill: #2ca02c; stroke: #2ca02c"/>
     <use xlink:href="#m5d3e7cf19a" x="331.202277" y="239.174065" style="fill: #2ca02c; stroke: #2ca02c"/>
     <use xlink:href="#m5d3e7cf19a" x="336.816814" y="257.97443" style="fill: #2ca02c; stroke: #2ca02c"/>
     <use xlink:href="#m5d3e7cf19a" x="342.433406" y="236.103339" style="fill: #2ca02c; stroke: #2ca02c"/>
     <use xlink:href="#m5d3e7cf19a" x="348.047049" y="251.644974" style="fill: #2ca02c; stroke: #2ca02c"/>
     <use xlink:href="#m5d3e7cf19a" x="353.660652" y="245.378186" style="fill: #2ca02c; stroke: #2ca02c"/>
     <use xlink:href="#m5d3e7cf19a" x="359.275336" y="239.174065" style="fill: #2ca02c; stroke: #2ca02c"/>
     <use xlink:href="#m5d3e7cf19a" x="364.892435" y="195.588553" style="fill: #2ca02c; stroke: #2ca02c"/>
     <use xlink:href="#m5d3e7cf19a" x="370.506559" y="211.036186" style="fill: #2ca02c; stroke: #2ca02c"/>
     <use xlink:href="#m5d3e7cf19a" x="376.121029" y="217.302974" style="fill: #2ca02c; stroke: #2ca02c"/>
     <use xlink:href="#m5d3e7cf19a" x="381.736674" y="229.836551" style="fill: #2ca02c; stroke: #2ca02c"/>
     <use xlink:href="#m5d3e7cf19a" x="387.383677" y="228.332522" style="fill: #2ca02c; stroke: #2ca02c"/>
     <use xlink:href="#m5d3e7cf19a" x="392.998468" y="217.302974" style="fill: #2ca02c; stroke: #2ca02c"/>
     <use xlink:href="#m5d3e7cf19a" x="398.661644" y="219.841024" style="fill: #2ca02c; stroke: #2ca02c"/>
     <use xlink:href="#m5d3e7cf19a" x="404.297719" y="224.635117" style="fill: #2ca02c; stroke: #2ca02c"/>
     <use xlink:href="#m5d3e7cf19a" x="409.932192" y="199.661965" style="fill: #2ca02c; stroke: #2ca02c"/>
     <use xlink:href="#m5d3e7cf19a" x="415.546542" y="207.934126" style="fill: #2ca02c; stroke: #2ca02c"/>
     <use xlink:href="#m5d3e7cf19a" x="421.160906" y="214.200914" style="fill: #2ca02c; stroke: #2ca02c"/>
     <use xlink:href="#m5d3e7cf19a" x="426.847795" y="208.654807" style="fill: #2ca02c; stroke: #2ca02c"/>
     <use xlink:href="#m5d3e7cf19a" x="432.470779" y="211.506195" style="fill: #2ca02c; stroke: #2ca02c"/>
     <use xlink:href="#m5d3e7cf19a" x="438.104998" y="230.807903" style="fill: #2ca02c; stroke: #2ca02c"/>
     <use xlink:href="#m5d3e7cf19a" x="443.718948" y="210.973518" style="fill: #2ca02c; stroke: #2ca02c"/>
     <use xlink:href="#m5d3e7cf19a" x="449.333699" y="220.467702" style="fill: #2ca02c; stroke: #2ca02c"/>
     <use xlink:href="#m5d3e7cf19a" x="454.94841" y="217.992321" style="fill: #2ca02c; stroke: #2ca02c"/>
     <use xlink:href="#m5d3e7cf19a" x="460.575771" y="217.27164" style="fill: #2ca02c; stroke: #2ca02c"/>
     <use xlink:href="#m5d3e7cf19a" x="466.18936" y="226.671823" style="fill: #2ca02c; stroke: #2ca02c"/>
     <use xlink:href="#m5d3e7cf19a" x="471.803964" y="236.040671" style="fill: #2ca02c; stroke: #2ca02c"/>
     <use xlink:href="#m5d3e7cf19a" x="477.419315" y="248.574248" style="fill: #2ca02c; stroke: #2ca02c"/>
     <use xlink:href="#m5d3e7cf19a" x="483.033933" y="229.773883" style="fill: #2ca02c; stroke: #2ca02c"/>
     <use xlink:href="#m5d3e7cf19a" x="488.650125" y="198.690613" style="fill: #2ca02c; stroke: #2ca02c"/>
     <use xlink:href="#m5d3e7cf19a" x="494.264889" y="192.298489" style="fill: #2ca02c; stroke: #2ca02c"/>
     <use xlink:href="#m5d3e7cf19a" x="499.905567" y="200.037973" style="fill: #2ca02c; stroke: #2ca02c"/>
     <use xlink:href="#m5d3e7cf19a" x="505.584969" y="248.417578" style="fill: #2ca02c; stroke: #2ca02c"/>
     <use xlink:href="#m5d3e7cf19a" x="511.200227" y="239.236733" style="fill: #2ca02c; stroke: #2ca02c"/>
     <use xlink:href="#m5d3e7cf19a" x="516.820235" y="236.322677" style="fill: #2ca02c; stroke: #2ca02c"/>
     <use xlink:href="#m5d3e7cf19a" x="522.435693" y="273.578733" style="fill: #2ca02c; stroke: #2ca02c"/>
     <use xlink:href="#m5d3e7cf19a" x="528.059625" y="233.40862" style="fill: #2ca02c; stroke: #2ca02c"/>
     <use xlink:href="#m5d3e7cf19a" x="533.676711" y="245.378186" style="fill: #2ca02c; stroke: #2ca02c"/>
     <use xlink:href="#m5d3e7cf19a" x="539.288005" y="226.609155" style="fill: #2ca02c; stroke: #2ca02c"/>
     <use xlink:href="#m5d3e7cf19a" x="544.901475" y="220.467702" style="fill: #2ca02c; stroke: #2ca02c"/>
     <use xlink:href="#m5d3e7cf19a" x="550.532599" y="221.282385" style="fill: #2ca02c; stroke: #2ca02c"/>
     <use xlink:href="#m5d3e7cf19a" x="556.149404" y="179.827581" style="fill: #2ca02c; stroke: #2ca02c"/>
     <use xlink:href="#m5d3e7cf19a" x="561.761073" y="179.702245" style="fill: #2ca02c; stroke: #2ca02c"/>
     <use xlink:href="#m5d3e7cf19a" x="567.399269" y="181.206274" style="fill: #2ca02c; stroke: #2ca02c"/>
     <use xlink:href="#m5d3e7cf19a" x="573.023654" y="183.618988" style="fill: #2ca02c; stroke: #2ca02c"/>
     <use xlink:href="#m5d3e7cf19a" x="578.665013" y="178.166882" style="fill: #2ca02c; stroke: #2ca02c"/>
     <use xlink:href="#m5d3e7cf19a" x="584.281058" y="170.552734" style="fill: #2ca02c; stroke: #2ca02c"/>
     <use xlink:href="#m5d3e7cf19a" x="589.918213" y="221.595724" style="fill: #2ca02c; stroke: #2ca02c"/>
     <use xlink:href="#m5d3e7cf19a" x="595.532697" y="182.835639" style="fill: #2ca02c; stroke: #2ca02c"/>
     <use xlink:href="#m5d3e7cf19a" x="601.144979" y="186.094369" style="fill: #2ca02c; stroke: #2ca02c"/>
     <use xlink:href="#m5d3e7cf19a" x="606.760904" y="195.463217" style="fill: #2ca02c; stroke: #2ca02c"/>
     <use xlink:href="#m5d3e7cf19a" x="612.375174" y="167.325338" style="fill: #2ca02c; stroke: #2ca02c"/>
     <use xlink:href="#m5d3e7cf19a" x="617.990125" y="170.458732" style="fill: #2ca02c; stroke: #2ca02c"/>
     <use xlink:href="#m5d3e7cf19a" x="623.604702" y="176.72552" style="fill: #2ca02c; stroke: #2ca02c"/>
     <use xlink:href="#m5d3e7cf19a" x="629.247849" y="178.354885" style="fill: #2ca02c; stroke: #2ca02c"/>
     <use xlink:href="#m5d3e7cf19a" x="634.894599" y="172.401437" style="fill: #2ca02c; stroke: #2ca02c"/>
     <use xlink:href="#m5d3e7cf19a" x="640.554025" y="179.357572" style="fill: #2ca02c; stroke: #2ca02c"/>
     <use xlink:href="#m5d3e7cf19a" x="646.169403" y="170.490066" style="fill: #2ca02c; stroke: #2ca02c"/>
     <use xlink:href="#m5d3e7cf19a" x="651.784941" y="179.858915" style="fill: #2ca02c; stroke: #2ca02c"/>
     <use xlink:href="#m5d3e7cf19a" x="657.421189" y="187.347727" style="fill: #2ca02c; stroke: #2ca02c"/>
     <use xlink:href="#m5d3e7cf19a" x="663.055836" y="193.739851" style="fill: #2ca02c; stroke: #2ca02c"/>
     <use xlink:href="#m5d3e7cf19a" x="668.675577" y="198.596611" style="fill: #2ca02c; stroke: #2ca02c"/>
     <use xlink:href="#m5d3e7cf19a" x="674.290969" y="192.361157" style="fill: #2ca02c; stroke: #2ca02c"/>
     <use xlink:href="#m5d3e7cf19a" x="679.905546" y="182.960975" style="fill: #2ca02c; stroke: #2ca02c"/>
     <use xlink:href="#m5d3e7cf19a" x="685.520403" y="208.028128" style="fill: #2ca02c; stroke: #2ca02c"/>
     <use xlink:href="#m5d3e7cf19a" x="691.139037" y="208.090796" style="fill: #2ca02c; stroke: #2ca02c"/>
     <use xlink:href="#m5d3e7cf19a" x="696.753588" y="198.565277" style="fill: #2ca02c; stroke: #2ca02c"/>
     <use xlink:href="#m5d3e7cf19a" x="702.369806" y="179.952916" style="fill: #2ca02c; stroke: #2ca02c"/>
     <use xlink:href="#m5d3e7cf19a" x="707.985678" y="170.552734" style="fill: #2ca02c; stroke: #2ca02c"/>
     <use xlink:href="#m5d3e7cf19a" x="713.601176" y="170.427398" style="fill: #2ca02c; stroke: #2ca02c"/>
     <use xlink:href="#m5d3e7cf19a" x="719.21251" y="170.302063" style="fill: #2ca02c; stroke: #2ca02c"/>
     <use xlink:href="#m5d3e7cf19a" x="724.8265" y="170.584068" style="fill: #2ca02c; stroke: #2ca02c"/>
     <use xlink:href="#m5d3e7cf19a" x="730.442946" y="164.191944" style="fill: #2ca02c; stroke: #2ca02c"/>
     <use xlink:href="#m5d3e7cf19a" x="736.102879" y="176.255511" style="fill: #2ca02c; stroke: #2ca02c"/>
     <use xlink:href="#m5d3e7cf19a" x="741.720219" y="179.98425" style="fill: #2ca02c; stroke: #2ca02c"/>
     <use xlink:href="#m5d3e7cf19a" x="747.400849" y="192.893834" style="fill: #2ca02c; stroke: #2ca02c"/>
     <use xlink:href="#m5d3e7cf19a" x="753.033668" y="177.822208" style="fill: #2ca02c; stroke: #2ca02c"/>
     <use xlink:href="#m5d3e7cf19a" x="758.648472" y="189.071093" style="fill: #2ca02c; stroke: #2ca02c"/>
     <use xlink:href="#m5d3e7cf19a" x="764.262662" y="507.799943" style="fill: #2ca02c; stroke: #2ca02c"/>
     <use xlink:href="#m5d3e7cf19a" x="769.890476" y="507.799943" style="fill: #2ca02c; stroke: #2ca02c"/>
     <use xlink:href="#m5d3e7cf19a" x="775.5131" y="507.799943" style="fill: #2ca02c; stroke: #2ca02c"/>
     <use xlink:href="#m5d3e7cf19a" x="781.152084" y="507.799943" style="fill: #2ca02c; stroke: #2ca02c"/>
     <use xlink:href="#m5d3e7cf19a" x="786.778217" y="507.799943" style="fill: #2ca02c; stroke: #2ca02c"/>
     <use xlink:href="#m5d3e7cf19a" x="792.408113" y="507.799943" style="fill: #2ca02c; stroke: #2ca02c"/>
     <use xlink:href="#m5d3e7cf19a" x="798.03953" y="507.799943" style="fill: #2ca02c; stroke: #2ca02c"/>
     <use xlink:href="#m5d3e7cf19a" x="803.666277" y="507.799943" style="fill: #2ca02c; stroke: #2ca02c"/>
     <use xlink:href="#m5d3e7cf19a" x="809.290836" y="507.799943" style="fill: #2ca02c; stroke: #2ca02c"/>
    </g>
   </g>
   <g id="line2d_32">
    <path d="M 95.525329 507.799943 
L 106.988831 500.091794 
L 118.259659 504.729217 
L 129.621254 507.799943 
L 140.985023 507.799943 
L 152.336502 501.721159 
L 158.0682 504.729217 
L 163.819314 498.650432 
L 169.57 504.760551 
L 175.36244 507.799943 
L 181.108323 507.799943 
L 186.853725 507.799943 
L 192.59367 507.799943 
L 198.332467 507.799943 
L 204.075881 253.149003 
L 209.761942 45.436307 
L 215.454142 58.251889 
L 221.154922 58.345891 
L 226.926438 77.114921 
L 232.634998 61.667288 
L 238.329252 63.923332 
L 244.04794 100.615377 
L 249.752416 76.770248 
L 255.480725 73.730856 
L 261.19306 86.452436 
L 266.941225 84.039722 
L 272.695354 65.803369 
L 278.566951 95.601947 
L 284.281836 84.321728 
L 289.973969 76.582244 
L 295.843564 86.17043 
L 301.580239 82.943034 
L 307.268796 82.379023 
L 312.96237 70.722797 
L 318.691693 90.839188 
L 324.371549 60.194593 
L 330.059785 85.919759 
L 335.916611 63.954666 
L 341.623128 87.235784 
L 347.339881 84.41573 
L 353.216722 92.813226 
L 358.976776 85.011075 
L 364.888766 76.926918 
L 370.563832 97.074642 
L 376.245636 72.853505 
L 382.07129 103.999443 
L 387.751573 85.387082 
L 393.44855 67.4014 
L 399.381503 99.988698 
L 405.248443 94.724596 
L 411.006669 82.159686 
L 416.753752 104.626122 
L 422.437532 84.509731 
L 428.11524 109.952892 
L 433.827962 71.756817 
L 439.519428 82.379023 
L 445.208599 79.402299 
L 451.00292 123.551822 
L 456.746588 110.642238 
L 462.53704 92.969896 
L 468.297507 99.518689 
L 474.051316 117.316368 
L 479.761677 93.627908 
L 485.625682 92.280549 
L 491.352682 105.816812 
L 497.031525 76.331573 
L 502.726553 91.841874 
L 508.415243 86.233098 
L 514.326085 103.560768 
L 520.048736 97.325313 
L 525.786145 89.805168 
L 531.533029 98.139996 
L 537.497941 117.2537 
L 543.233615 79.590303 
L 549.021852 116.470352 
L 554.741593 109.106875 
L 560.428242 132.011986 
L 566.156284 155.481108 
L 571.907597 154.227751 
L 577.668078 121.38978 
L 583.401311 100.740713 
L 589.12559 102.495414 
L 595.143731 140.190145 
L 600.870478 125.68253 
L 606.573313 141.349501 
L 612.264632 113.430959 
L 617.955924 116.564353 
L 623.724692 118.757729 
L 629.58101 112.396939 
L 635.311761 109.85889 
L 641.02826 102.746085 
L 646.74161 96.10329 
L 652.443497 116.909027 
L 658.117308 75.986899 
L 663.909375 119.948419 
L 669.694769 159.397851 
L 675.404903 142.195517 
L 681.08955 116.345016 
L 686.872943 108.229525 
L 692.666758 107.508844 
L 698.463855 105.002129 
L 704.180754 97.387981 
L 709.875863 107.195505 
L 715.574975 95.413943 
L 721.271658 104.68879 
L 727.064245 111.456921 
L 732.83005 130.257286 
L 738.673264 131.228638 
L 744.392299 113.99497 
L 750.080722 111.582257 
L 755.86661 103.18476 
L 761.734337 309.769435 
L 767.404346 507.799943 
L 773.181841 501.721159 
L 778.917849 504.697883 
L 784.577555 504.729217 
L 790.282899 507.799943 
L 795.940444 507.799943 
L 801.604755 507.799943 
L 807.261979 507.799943 
L 812.917216 507.799943 
" clip-path="url(#p3892e2fdc4)" style="fill: none; stroke: #1f77b4; stroke-width: 2; stroke-linecap: square"/>
    <defs>
     <path id="m44ec611dc1" d="M 0 2 
C 0.530406 2 1.03916 1.789267 1.414214 1.414214 
C 1.789267 1.03916 2 0.530406 2 0 
C 2 -0.530406 1.789267 -1.03916 1.414214 -1.414214 
C 1.03916 -1.789267 0.530406 -2 0 -2 
C -0.530406 -2 -1.03916 -1.789267 -1.414214 -1.414214 
C -1.789267 -1.03916 -2 -0.530406 -2 0 
C -2 0.530406 -1.789267 1.03916 -1.414214 1.414214 
C -1.03916 1.789267 -0.530406 2 0 2 
z
" style="stroke: #1f77b4"/>
    </defs>
    <g clip-path="url(#p3892e2fdc4)">
     <use xlink:href="#m44ec611dc1" x="95.525329" y="507.799943" style="fill: #1f77b4; stroke: #1f77b4"/>
     <use xlink:href="#m44ec611dc1" x="106.988831" y="500.091794" style="fill: #1f77b4; stroke: #1f77b4"/>
     <use xlink:href="#m44ec611dc1" x="118.259659" y="504.729217" style="fill: #1f77b4; stroke: #1f77b4"/>
     <use xlink:href="#m44ec611dc1" x="129.621254" y="507.799943" style="fill: #1f77b4; stroke: #1f77b4"/>
     <use xlink:href="#m44ec611dc1" x="140.985023" y="507.799943" style="fill: #1f77b4; stroke: #1f77b4"/>
     <use xlink:href="#m44ec611dc1" x="152.336502" y="501.721159" style="fill: #1f77b4; stroke: #1f77b4"/>
     <use xlink:href="#m44ec611dc1" x="158.0682" y="504.729217" style="fill: #1f77b4; stroke: #1f77b4"/>
     <use xlink:href="#m44ec611dc1" x="163.819314" y="498.650432" style="fill: #1f77b4; stroke: #1f77b4"/>
     <use xlink:href="#m44ec611dc1" x="169.57" y="504.760551" style="fill: #1f77b4; stroke: #1f77b4"/>
     <use xlink:href="#m44ec611dc1" x="175.36244" y="507.799943" style="fill: #1f77b4; stroke: #1f77b4"/>
     <use xlink:href="#m44ec611dc1" x="181.108323" y="507.799943" style="fill: #1f77b4; stroke: #1f77b4"/>
     <use xlink:href="#m44ec611dc1" x="186.853725" y="507.799943" style="fill: #1f77b4; stroke: #1f77b4"/>
     <use xlink:href="#m44ec611dc1" x="192.59367" y="507.799943" style="fill: #1f77b4; stroke: #1f77b4"/>
     <use xlink:href="#m44ec611dc1" x="198.332467" y="507.799943" style="fill: #1f77b4; stroke: #1f77b4"/>
     <use xlink:href="#m44ec611dc1" x="204.075881" y="253.149003" style="fill: #1f77b4; stroke: #1f77b4"/>
     <use xlink:href="#m44ec611dc1" x="209.761942" y="45.436307" style="fill: #1f77b4; stroke: #1f77b4"/>
     <use xlink:href="#m44ec611dc1" x="215.454142" y="58.251889" style="fill: #1f77b4; stroke: #1f77b4"/>
     <use xlink:href="#m44ec611dc1" x="221.154922" y="58.345891" style="fill: #1f77b4; stroke: #1f77b4"/>
     <use xlink:href="#m44ec611dc1" x="226.926438" y="77.114921" style="fill: #1f77b4; stroke: #1f77b4"/>
     <use xlink:href="#m44ec611dc1" x="232.634998" y="61.667288" style="fill: #1f77b4; stroke: #1f77b4"/>
     <use xlink:href="#m44ec611dc1" x="238.329252" y="63.923332" style="fill: #1f77b4; stroke: #1f77b4"/>
     <use xlink:href="#m44ec611dc1" x="244.04794" y="100.615377" style="fill: #1f77b4; stroke: #1f77b4"/>
     <use xlink:href="#m44ec611dc1" x="249.752416" y="76.770248" style="fill: #1f77b4; stroke: #1f77b4"/>
     <use xlink:href="#m44ec611dc1" x="255.480725" y="73.730856" style="fill: #1f77b4; stroke: #1f77b4"/>
     <use xlink:href="#m44ec611dc1" x="261.19306" y="86.452436" style="fill: #1f77b4; stroke: #1f77b4"/>
     <use xlink:href="#m44ec611dc1" x="266.941225" y="84.039722" style="fill: #1f77b4; stroke: #1f77b4"/>
     <use xlink:href="#m44ec611dc1" x="272.695354" y="65.803369" style="fill: #1f77b4; stroke: #1f77b4"/>
     <use xlink:href="#m44ec611dc1" x="278.566951" y="95.601947" style="fill: #1f77b4; stroke: #1f77b4"/>
     <use xlink:href="#m44ec611dc1" x="284.281836" y="84.321728" style="fill: #1f77b4; stroke: #1f77b4"/>
     <use xlink:href="#m44ec611dc1" x="289.973969" y="76.582244" style="fill: #1f77b4; stroke: #1f77b4"/>
     <use xlink:href="#m44ec611dc1" x="295.843564" y="86.17043" style="fill: #1f77b4; stroke: #1f77b4"/>
     <use xlink:href="#m44ec611dc1" x="301.580239" y="82.943034" style="fill: #1f77b4; stroke: #1f77b4"/>
     <use xlink:href="#m44ec611dc1" x="307.268796" y="82.379023" style="fill: #1f77b4; stroke: #1f77b4"/>
     <use xlink:href="#m44ec611dc1" x="312.96237" y="70.722797" style="fill: #1f77b4; stroke: #1f77b4"/>
     <use xlink:href="#m44ec611dc1" x="318.691693" y="90.839188" style="fill: #1f77b4; stroke: #1f77b4"/>
     <use xlink:href="#m44ec611dc1" x="324.371549" y="60.194593" style="fill: #1f77b4; stroke: #1f77b4"/>
     <use xlink:href="#m44ec611dc1" x="330.059785" y="85.919759" style="fill: #1f77b4; stroke: #1f77b4"/>
     <use xlink:href="#m44ec611dc1" x="335.916611" y="63.954666" style="fill: #1f77b4; stroke: #1f77b4"/>
     <use xlink:href="#m44ec611dc1" x="341.623128" y="87.235784" style="fill: #1f77b4; stroke: #1f77b4"/>
     <use xlink:href="#m44ec611dc1" x="347.339881" y="84.41573" style="fill: #1f77b4; stroke: #1f77b4"/>
     <use xlink:href="#m44ec611dc1" x="353.216722" y="92.813226" style="fill: #1f77b4; stroke: #1f77b4"/>
     <use xlink:href="#m44ec611dc1" x="358.976776" y="85.011075" style="fill: #1f77b4; stroke: #1f77b4"/>
     <use xlink:href="#m44ec611dc1" x="364.888766" y="76.926918" style="fill: #1f77b4; stroke: #1f77b4"/>
     <use xlink:href="#m44ec611dc1" x="370.563832" y="97.074642" style="fill: #1f77b4; stroke: #1f77b4"/>
     <use xlink:href="#m44ec611dc1" x="376.245636" y="72.853505" style="fill: #1f77b4; stroke: #1f77b4"/>
     <use xlink:href="#m44ec611dc1" x="382.07129" y="103.999443" style="fill: #1f77b4; stroke: #1f77b4"/>
     <use xlink:href="#m44ec611dc1" x="387.751573" y="85.387082" style="fill: #1f77b4; stroke: #1f77b4"/>
     <use xlink:href="#m44ec611dc1" x="393.44855" y="67.4014" style="fill: #1f77b4; stroke: #1f77b4"/>
     <use xlink:href="#m44ec611dc1" x="399.381503" y="99.988698" style="fill: #1f77b4; stroke: #1f77b4"/>
     <use xlink:href="#m44ec611dc1" x="405.248443" y="94.724596" style="fill: #1f77b4; stroke: #1f77b4"/>
     <use xlink:href="#m44ec611dc1" x="411.006669" y="82.159686" style="fill: #1f77b4; stroke: #1f77b4"/>
     <use xlink:href="#m44ec611dc1" x="416.753752" y="104.626122" style="fill: #1f77b4; stroke: #1f77b4"/>
     <use xlink:href="#m44ec611dc1" x="422.437532" y="84.509731" style="fill: #1f77b4; stroke: #1f77b4"/>
     <use xlink:href="#m44ec611dc1" x="428.11524" y="109.952892" style="fill: #1f77b4; stroke: #1f77b4"/>
     <use xlink:href="#m44ec611dc1" x="433.827962" y="71.756817" style="fill: #1f77b4; stroke: #1f77b4"/>
     <use xlink:href="#m44ec611dc1" x="439.519428" y="82.379023" style="fill: #1f77b4; stroke: #1f77b4"/>
     <use xlink:href="#m44ec611dc1" x="445.208599" y="79.402299" style="fill: #1f77b4; stroke: #1f77b4"/>
     <use xlink:href="#m44ec611dc1" x="451.00292" y="123.551822" style="fill: #1f77b4; stroke: #1f77b4"/>
     <use xlink:href="#m44ec611dc1" x="456.746588" y="110.642238" style="fill: #1f77b4; stroke: #1f77b4"/>
     <use xlink:href="#m44ec611dc1" x="462.53704" y="92.969896" style="fill: #1f77b4; stroke: #1f77b4"/>
     <use xlink:href="#m44ec611dc1" x="468.297507" y="99.518689" style="fill: #1f77b4; stroke: #1f77b4"/>
     <use xlink:href="#m44ec611dc1" x="474.051316" y="117.316368" style="fill: #1f77b4; stroke: #1f77b4"/>
     <use xlink:href="#m44ec611dc1" x="479.761677" y="93.627908" style="fill: #1f77b4; stroke: #1f77b4"/>
     <use xlink:href="#m44ec611dc1" x="485.625682" y="92.280549" style="fill: #1f77b4; stroke: #1f77b4"/>
     <use xlink:href="#m44ec611dc1" x="491.352682" y="105.816812" style="fill: #1f77b4; stroke: #1f77b4"/>
     <use xlink:href="#m44ec611dc1" x="497.031525" y="76.331573" style="fill: #1f77b4; stroke: #1f77b4"/>
     <use xlink:href="#m44ec611dc1" x="502.726553" y="91.841874" style="fill: #1f77b4; stroke: #1f77b4"/>
     <use xlink:href="#m44ec611dc1" x="508.415243" y="86.233098" style="fill: #1f77b4; stroke: #1f77b4"/>
     <use xlink:href="#m44ec611dc1" x="514.326085" y="103.560768" style="fill: #1f77b4; stroke: #1f77b4"/>
     <use xlink:href="#m44ec611dc1" x="520.048736" y="97.325313" style="fill: #1f77b4; stroke: #1f77b4"/>
     <use xlink:href="#m44ec611dc1" x="525.786145" y="89.805168" style="fill: #1f77b4; stroke: #1f77b4"/>
     <use xlink:href="#m44ec611dc1" x="531.533029" y="98.139996" style="fill: #1f77b4; stroke: #1f77b4"/>
     <use xlink:href="#m44ec611dc1" x="537.497941" y="117.2537" style="fill: #1f77b4; stroke: #1f77b4"/>
     <use xlink:href="#m44ec611dc1" x="543.233615" y="79.590303" style="fill: #1f77b4; stroke: #1f77b4"/>
     <use xlink:href="#m44ec611dc1" x="549.021852" y="116.470352" style="fill: #1f77b4; stroke: #1f77b4"/>
     <use xlink:href="#m44ec611dc1" x="554.741593" y="109.106875" style="fill: #1f77b4; stroke: #1f77b4"/>
     <use xlink:href="#m44ec611dc1" x="560.428242" y="132.011986" style="fill: #1f77b4; stroke: #1f77b4"/>
     <use xlink:href="#m44ec611dc1" x="566.156284" y="155.481108" style="fill: #1f77b4; stroke: #1f77b4"/>
     <use xlink:href="#m44ec611dc1" x="571.907597" y="154.227751" style="fill: #1f77b4; stroke: #1f77b4"/>
     <use xlink:href="#m44ec611dc1" x="577.668078" y="121.38978" style="fill: #1f77b4; stroke: #1f77b4"/>
     <use xlink:href="#m44ec611dc1" x="583.401311" y="100.740713" style="fill: #1f77b4; stroke: #1f77b4"/>
     <use xlink:href="#m44ec611dc1" x="589.12559" y="102.495414" style="fill: #1f77b4; stroke: #1f77b4"/>
     <use xlink:href="#m44ec611dc1" x="595.143731" y="140.190145" style="fill: #1f77b4; stroke: #1f77b4"/>
     <use xlink:href="#m44ec611dc1" x="600.870478" y="125.68253" style="fill: #1f77b4; stroke: #1f77b4"/>
     <use xlink:href="#m44ec611dc1" x="606.573313" y="141.349501" style="fill: #1f77b4; stroke: #1f77b4"/>
     <use xlink:href="#m44ec611dc1" x="612.264632" y="113.430959" style="fill: #1f77b4; stroke: #1f77b4"/>
     <use xlink:href="#m44ec611dc1" x="617.955924" y="116.564353" style="fill: #1f77b4; stroke: #1f77b4"/>
     <use xlink:href="#m44ec611dc1" x="623.724692" y="118.757729" style="fill: #1f77b4; stroke: #1f77b4"/>
     <use xlink:href="#m44ec611dc1" x="629.58101" y="112.396939" style="fill: #1f77b4; stroke: #1f77b4"/>
     <use xlink:href="#m44ec611dc1" x="635.311761" y="109.85889" style="fill: #1f77b4; stroke: #1f77b4"/>
     <use xlink:href="#m44ec611dc1" x="641.02826" y="102.746085" style="fill: #1f77b4; stroke: #1f77b4"/>
     <use xlink:href="#m44ec611dc1" x="646.74161" y="96.10329" style="fill: #1f77b4; stroke: #1f77b4"/>
     <use xlink:href="#m44ec611dc1" x="652.443497" y="116.909027" style="fill: #1f77b4; stroke: #1f77b4"/>
     <use xlink:href="#m44ec611dc1" x="658.117308" y="75.986899" style="fill: #1f77b4; stroke: #1f77b4"/>
     <use xlink:href="#m44ec611dc1" x="663.909375" y="119.948419" style="fill: #1f77b4; stroke: #1f77b4"/>
     <use xlink:href="#m44ec611dc1" x="669.694769" y="159.397851" style="fill: #1f77b4; stroke: #1f77b4"/>
     <use xlink:href="#m44ec611dc1" x="675.404903" y="142.195517" style="fill: #1f77b4; stroke: #1f77b4"/>
     <use xlink:href="#m44ec611dc1" x="681.08955" y="116.345016" style="fill: #1f77b4; stroke: #1f77b4"/>
     <use xlink:href="#m44ec611dc1" x="686.872943" y="108.229525" style="fill: #1f77b4; stroke: #1f77b4"/>
     <use xlink:href="#m44ec611dc1" x="692.666758" y="107.508844" style="fill: #1f77b4; stroke: #1f77b4"/>
     <use xlink:href="#m44ec611dc1" x="698.463855" y="105.002129" style="fill: #1f77b4; stroke: #1f77b4"/>
     <use xlink:href="#m44ec611dc1" x="704.180754" y="97.387981" style="fill: #1f77b4; stroke: #1f77b4"/>
     <use xlink:href="#m44ec611dc1" x="709.875863" y="107.195505" style="fill: #1f77b4; stroke: #1f77b4"/>
     <use xlink:href="#m44ec611dc1" x="715.574975" y="95.413943" style="fill: #1f77b4; stroke: #1f77b4"/>
     <use xlink:href="#m44ec611dc1" x="721.271658" y="104.68879" style="fill: #1f77b4; stroke: #1f77b4"/>
     <use xlink:href="#m44ec611dc1" x="727.064245" y="111.456921" style="fill: #1f77b4; stroke: #1f77b4"/>
     <use xlink:href="#m44ec611dc1" x="732.83005" y="130.257286" style="fill: #1f77b4; stroke: #1f77b4"/>
     <use xlink:href="#m44ec611dc1" x="738.673264" y="131.228638" style="fill: #1f77b4; stroke: #1f77b4"/>
     <use xlink:href="#m44ec611dc1" x="744.392299" y="113.99497" style="fill: #1f77b4; stroke: #1f77b4"/>
     <use xlink:href="#m44ec611dc1" x="750.080722" y="111.582257" style="fill: #1f77b4; stroke: #1f77b4"/>
     <use xlink:href="#m44ec611dc1" x="755.86661" y="103.18476" style="fill: #1f77b4; stroke: #1f77b4"/>
     <use xlink:href="#m44ec611dc1" x="761.734337" y="309.769435" style="fill: #1f77b4; stroke: #1f77b4"/>
     <use xlink:href="#m44ec611dc1" x="767.404346" y="507.799943" style="fill: #1f77b4; stroke: #1f77b4"/>
     <use xlink:href="#m44ec611dc1" x="773.181841" y="501.721159" style="fill: #1f77b4; stroke: #1f77b4"/>
     <use xlink:href="#m44ec611dc1" x="778.917849" y="504.697883" style="fill: #1f77b4; stroke: #1f77b4"/>
     <use xlink:href="#m44ec611dc1" x="784.577555" y="504.729217" style="fill: #1f77b4; stroke: #1f77b4"/>
     <use xlink:href="#m44ec611dc1" x="790.282899" y="507.799943" style="fill: #1f77b4; stroke: #1f77b4"/>
     <use xlink:href="#m44ec611dc1" x="795.940444" y="507.799943" style="fill: #1f77b4; stroke: #1f77b4"/>
     <use xlink:href="#m44ec611dc1" x="801.604755" y="507.799943" style="fill: #1f77b4; stroke: #1f77b4"/>
     <use xlink:href="#m44ec611dc1" x="807.261979" y="507.799943" style="fill: #1f77b4; stroke: #1f77b4"/>
     <use xlink:href="#m44ec611dc1" x="812.917216" y="507.799943" style="fill: #1f77b4; stroke: #1f77b4"/>
    </g>
   </g>
   <g id="line2d_33">
    <path d="M 93.567569 507.799943 
L 105.022438 507.799943 
L 116.369354 507.799943 
L 127.718845 507.799943 
L 139.090995 507.799943 
L 150.44126 507.799943 
L 156.10166 507.799943 
L 161.764877 507.799943 
L 167.425464 507.799943 
L 173.113954 507.799943 
L 178.893877 507.799943 
L 184.656787 507.799943 
L 190.427823 507.799943 
L 196.192601 507.799943 
L 201.957059 345.020119 
L 207.644735 196.747909 
L 213.349358 212.320878 
L 219.162975 197.092582 
L 224.896915 174.406809 
L 230.586339 193.301175 
L 236.506882 193.833852 
L 242.253992 187.441728 
L 248.000502 190.324451 
L 253.692715 181.206274 
L 259.405544 203.798046 
L 265.118814 173.122117 
L 270.899605 177.414867 
L 276.597022 202.889361 
L 282.335112 183.900993 
L 288.05432 188.88309 
L 293.770592 182.710303 
L 299.676884 187.065721 
L 305.39441 216.55096 
L 311.159922 243.341479 
L 316.881572 201.29133 
L 322.608119 232.123928 
L 328.316839 206.868772 
L 334.008785 193.520513 
L 339.939349 227.016496 
L 345.633644 202.764026 
L 351.349916 201.228662 
L 357.087926 196.027228 
L 362.905826 224.415779 
L 368.655045 208.874144 
L 374.344322 208.84281 
L 380.062623 192.016484 
L 385.779122 201.134661 
L 391.497129 200.476648 
L 397.175731 224.259109 
L 402.868798 193.520513 
L 408.562719 209.344153 
L 414.263485 190.731792 
L 420.106526 252.616326 
L 425.855825 227.110498 
L 431.560007 206.492765 
L 437.271876 182.459632 
L 442.968866 196.810577 
L 448.757837 189.791774 
L 454.512513 184.747009 
L 460.20518 208.623473 
L 465.973694 186.470376 
L 471.724527 196.058562 
L 477.441306 204.393391 
L 483.30479 210.221504 
L 489.139011 214.263582 
L 494.860701 188.945758 
L 500.560226 187.817736 
L 506.251278 190.763126 
L 511.95933 188.099741 
L 517.823815 199.724633 
L 523.512905 199.755967 
L 529.279698 182.083624 
L 534.970777 187.441728 
L 540.663017 190.481121 
L 546.353375 199.661965 
L 552.044867 190.387119 
L 557.747862 176.036174 
L 563.446026 199.818635 
L 569.137906 181.143606 
L 574.826622 196.528571 
L 580.540079 191.515141 
L 586.272991 162.217906 
L 592.014897 208.498137 
L 597.727567 182.302962 
L 603.4454 185.843697 
L 609.176351 217.052303 
L 614.944105 182.36563 
L 620.639 196.841911 
L 626.433802 196.152564 
L 632.157013 188.977091 
L 637.873739 185.843697 
L 643.589811 176.286845 
L 649.279155 184.277 
L 654.973743 172.056763 
L 660.665849 178.166882 
L 666.725611 186.533044 
L 672.442163 179.514241 
L 678.155446 182.36563 
L 683.847659 184.277 
L 689.585496 195.995894 
L 695.319195 192.925168 
L 701.011755 184.339668 
L 706.704208 184.308334 
L 712.472362 191.765812 
L 718.19991 207.526785 
L 723.891109 181.300276 
L 729.583348 181.049604 
L 735.451796 208.936812 
L 741.203297 193.551847 
L 746.958494 194.20986 
L 752.834681 195.807891 
L 758.61371 169.268042 
L 764.365891 504.760551 
L 770.132217 507.799943 
L 775.887214 507.799943 
L 781.649657 507.799943 
L 787.400663 507.799943 
L 793.163386 507.799943 
L 798.922213 507.799943 
L 804.678571 507.799943 
L 810.429377 507.799943 
" clip-path="url(#p3892e2fdc4)" style="fill: none; stroke: #ff7f0e; stroke-width: 2; stroke-linecap: square"/>
    <defs>
     <path id="mbe4d526692" d="M 0 2 
C 0.530406 2 1.03916 1.789267 1.414214 1.414214 
C 1.789267 1.03916 2 0.530406 2 0 
C 2 -0.530406 1.789267 -1.03916 1.414214 -1.414214 
C 1.03916 -1.789267 0.530406 -2 0 -2 
C -0.530406 -2 -1.03916 -1.789267 -1.414214 -1.414214 
C -1.789267 -1.03916 -2 -0.530406 -2 0 
C -2 0.530406 -1.789267 1.03916 -1.414214 1.414214 
C -1.03916 1.789267 -0.530406 2 0 2 
z
" style="stroke: #ff7f0e"/>
    </defs>
    <g clip-path="url(#p3892e2fdc4)">
     <use xlink:href="#mbe4d526692" x="93.567569" y="507.799943" style="fill: #ff7f0e; stroke: #ff7f0e"/>
     <use xlink:href="#mbe4d526692" x="105.022438" y="507.799943" style="fill: #ff7f0e; stroke: #ff7f0e"/>
     <use xlink:href="#mbe4d526692" x="116.369354" y="507.799943" style="fill: #ff7f0e; stroke: #ff7f0e"/>
     <use xlink:href="#mbe4d526692" x="127.718845" y="507.799943" style="fill: #ff7f0e; stroke: #ff7f0e"/>
     <use xlink:href="#mbe4d526692" x="139.090995" y="507.799943" style="fill: #ff7f0e; stroke: #ff7f0e"/>
     <use xlink:href="#mbe4d526692" x="150.44126" y="507.799943" style="fill: #ff7f0e; stroke: #ff7f0e"/>
     <use xlink:href="#mbe4d526692" x="156.10166" y="507.799943" style="fill: #ff7f0e; stroke: #ff7f0e"/>
     <use xlink:href="#mbe4d526692" x="161.764877" y="507.799943" style="fill: #ff7f0e; stroke: #ff7f0e"/>
     <use xlink:href="#mbe4d526692" x="167.425464" y="507.799943" style="fill: #ff7f0e; stroke: #ff7f0e"/>
     <use xlink:href="#mbe4d526692" x="173.113954" y="507.799943" style="fill: #ff7f0e; stroke: #ff7f0e"/>
     <use xlink:href="#mbe4d526692" x="178.893877" y="507.799943" style="fill: #ff7f0e; stroke: #ff7f0e"/>
     <use xlink:href="#mbe4d526692" x="184.656787" y="507.799943" style="fill: #ff7f0e; stroke: #ff7f0e"/>
     <use xlink:href="#mbe4d526692" x="190.427823" y="507.799943" style="fill: #ff7f0e; stroke: #ff7f0e"/>
     <use xlink:href="#mbe4d526692" x="196.192601" y="507.799943" style="fill: #ff7f0e; stroke: #ff7f0e"/>
     <use xlink:href="#mbe4d526692" x="201.957059" y="345.020119" style="fill: #ff7f0e; stroke: #ff7f0e"/>
     <use xlink:href="#mbe4d526692" x="207.644735" y="196.747909" style="fill: #ff7f0e; stroke: #ff7f0e"/>
     <use xlink:href="#mbe4d526692" x="213.349358" y="212.320878" style="fill: #ff7f0e; stroke: #ff7f0e"/>
     <use xlink:href="#mbe4d526692" x="219.162975" y="197.092582" style="fill: #ff7f0e; stroke: #ff7f0e"/>
     <use xlink:href="#mbe4d526692" x="224.896915" y="174.406809" style="fill: #ff7f0e; stroke: #ff7f0e"/>
     <use xlink:href="#mbe4d526692" x="230.586339" y="193.301175" style="fill: #ff7f0e; stroke: #ff7f0e"/>
     <use xlink:href="#mbe4d526692" x="236.506882" y="193.833852" style="fill: #ff7f0e; stroke: #ff7f0e"/>
     <use xlink:href="#mbe4d526692" x="242.253992" y="187.441728" style="fill: #ff7f0e; stroke: #ff7f0e"/>
     <use xlink:href="#mbe4d526692" x="248.000502" y="190.324451" style="fill: #ff7f0e; stroke: #ff7f0e"/>
     <use xlink:href="#mbe4d526692" x="253.692715" y="181.206274" style="fill: #ff7f0e; stroke: #ff7f0e"/>
     <use xlink:href="#mbe4d526692" x="259.405544" y="203.798046" style="fill: #ff7f0e; stroke: #ff7f0e"/>
     <use xlink:href="#mbe4d526692" x="265.118814" y="173.122117" style="fill: #ff7f0e; stroke: #ff7f0e"/>
     <use xlink:href="#mbe4d526692" x="270.899605" y="177.414867" style="fill: #ff7f0e; stroke: #ff7f0e"/>
     <use xlink:href="#mbe4d526692" x="276.597022" y="202.889361" style="fill: #ff7f0e; stroke: #ff7f0e"/>
     <use xlink:href="#mbe4d526692" x="282.335112" y="183.900993" style="fill: #ff7f0e; stroke: #ff7f0e"/>
     <use xlink:href="#mbe4d526692" x="288.05432" y="188.88309" style="fill: #ff7f0e; stroke: #ff7f0e"/>
     <use xlink:href="#mbe4d526692" x="293.770592" y="182.710303" style="fill: #ff7f0e; stroke: #ff7f0e"/>
     <use xlink:href="#mbe4d526692" x="299.676884" y="187.065721" style="fill: #ff7f0e; stroke: #ff7f0e"/>
     <use xlink:href="#mbe4d526692" x="305.39441" y="216.55096" style="fill: #ff7f0e; stroke: #ff7f0e"/>
     <use xlink:href="#mbe4d526692" x="311.159922" y="243.341479" style="fill: #ff7f0e; stroke: #ff7f0e"/>
     <use xlink:href="#mbe4d526692" x="316.881572" y="201.29133" style="fill: #ff7f0e; stroke: #ff7f0e"/>
     <use xlink:href="#mbe4d526692" x="322.608119" y="232.123928" style="fill: #ff7f0e; stroke: #ff7f0e"/>
     <use xlink:href="#mbe4d526692" x="328.316839" y="206.868772" style="fill: #ff7f0e; stroke: #ff7f0e"/>
     <use xlink:href="#mbe4d526692" x="334.008785" y="193.520513" style="fill: #ff7f0e; stroke: #ff7f0e"/>
     <use xlink:href="#mbe4d526692" x="339.939349" y="227.016496" style="fill: #ff7f0e; stroke: #ff7f0e"/>
     <use xlink:href="#mbe4d526692" x="345.633644" y="202.764026" style="fill: #ff7f0e; stroke: #ff7f0e"/>
     <use xlink:href="#mbe4d526692" x="351.349916" y="201.228662" style="fill: #ff7f0e; stroke: #ff7f0e"/>
     <use xlink:href="#mbe4d526692" x="357.087926" y="196.027228" style="fill: #ff7f0e; stroke: #ff7f0e"/>
     <use xlink:href="#mbe4d526692" x="362.905826" y="224.415779" style="fill: #ff7f0e; stroke: #ff7f0e"/>
     <use xlink:href="#mbe4d526692" x="368.655045" y="208.874144" style="fill: #ff7f0e; stroke: #ff7f0e"/>
     <use xlink:href="#mbe4d526692" x="374.344322" y="208.84281" style="fill: #ff7f0e; stroke: #ff7f0e"/>
     <use xlink:href="#mbe4d526692" x="380.062623" y="192.016484" style="fill: #ff7f0e; stroke: #ff7f0e"/>
     <use xlink:href="#mbe4d526692" x="385.779122" y="201.134661" style="fill: #ff7f0e; stroke: #ff7f0e"/>
     <use xlink:href="#mbe4d526692" x="391.497129" y="200.476648" style="fill: #ff7f0e; stroke: #ff7f0e"/>
     <use xlink:href="#mbe4d526692" x="397.175731" y="224.259109" style="fill: #ff7f0e; stroke: #ff7f0e"/>
     <use xlink:href="#mbe4d526692" x="402.868798" y="193.520513" style="fill: #ff7f0e; stroke: #ff7f0e"/>
     <use xlink:href="#mbe4d526692" x="408.562719" y="209.344153" style="fill: #ff7f0e; stroke: #ff7f0e"/>
     <use xlink:href="#mbe4d526692" x="414.263485" y="190.731792" style="fill: #ff7f0e; stroke: #ff7f0e"/>
     <use xlink:href="#mbe4d526692" x="420.106526" y="252.616326" style="fill: #ff7f0e; stroke: #ff7f0e"/>
     <use xlink:href="#mbe4d526692" x="425.855825" y="227.110498" style="fill: #ff7f0e; stroke: #ff7f0e"/>
     <use xlink:href="#mbe4d526692" x="431.560007" y="206.492765" style="fill: #ff7f0e; stroke: #ff7f0e"/>
     <use xlink:href="#mbe4d526692" x="437.271876" y="182.459632" style="fill: #ff7f0e; stroke: #ff7f0e"/>
     <use xlink:href="#mbe4d526692" x="442.968866" y="196.810577" style="fill: #ff7f0e; stroke: #ff7f0e"/>
     <use xlink:href="#mbe4d526692" x="448.757837" y="189.791774" style="fill: #ff7f0e; stroke: #ff7f0e"/>
     <use xlink:href="#mbe4d526692" x="454.512513" y="184.747009" style="fill: #ff7f0e; stroke: #ff7f0e"/>
     <use xlink:href="#mbe4d526692" x="460.20518" y="208.623473" style="fill: #ff7f0e; stroke: #ff7f0e"/>
     <use xlink:href="#mbe4d526692" x="465.973694" y="186.470376" style="fill: #ff7f0e; stroke: #ff7f0e"/>
     <use xlink:href="#mbe4d526692" x="471.724527" y="196.058562" style="fill: #ff7f0e; stroke: #ff7f0e"/>
     <use xlink:href="#mbe4d526692" x="477.441306" y="204.393391" style="fill: #ff7f0e; stroke: #ff7f0e"/>
     <use xlink:href="#mbe4d526692" x="483.30479" y="210.221504" style="fill: #ff7f0e; stroke: #ff7f0e"/>
     <use xlink:href="#mbe4d526692" x="489.139011" y="214.263582" style="fill: #ff7f0e; stroke: #ff7f0e"/>
     <use xlink:href="#mbe4d526692" x="494.860701" y="188.945758" style="fill: #ff7f0e; stroke: #ff7f0e"/>
     <use xlink:href="#mbe4d526692" x="500.560226" y="187.817736" style="fill: #ff7f0e; stroke: #ff7f0e"/>
     <use xlink:href="#mbe4d526692" x="506.251278" y="190.763126" style="fill: #ff7f0e; stroke: #ff7f0e"/>
     <use xlink:href="#mbe4d526692" x="511.95933" y="188.099741" style="fill: #ff7f0e; stroke: #ff7f0e"/>
     <use xlink:href="#mbe4d526692" x="517.823815" y="199.724633" style="fill: #ff7f0e; stroke: #ff7f0e"/>
     <use xlink:href="#mbe4d526692" x="523.512905" y="199.755967" style="fill: #ff7f0e; stroke: #ff7f0e"/>
     <use xlink:href="#mbe4d526692" x="529.279698" y="182.083624" style="fill: #ff7f0e; stroke: #ff7f0e"/>
     <use xlink:href="#mbe4d526692" x="534.970777" y="187.441728" style="fill: #ff7f0e; stroke: #ff7f0e"/>
     <use xlink:href="#mbe4d526692" x="540.663017" y="190.481121" style="fill: #ff7f0e; stroke: #ff7f0e"/>
     <use xlink:href="#mbe4d526692" x="546.353375" y="199.661965" style="fill: #ff7f0e; stroke: #ff7f0e"/>
     <use xlink:href="#mbe4d526692" x="552.044867" y="190.387119" style="fill: #ff7f0e; stroke: #ff7f0e"/>
     <use xlink:href="#mbe4d526692" x="557.747862" y="176.036174" style="fill: #ff7f0e; stroke: #ff7f0e"/>
     <use xlink:href="#mbe4d526692" x="563.446026" y="199.818635" style="fill: #ff7f0e; stroke: #ff7f0e"/>
     <use xlink:href="#mbe4d526692" x="569.137906" y="181.143606" style="fill: #ff7f0e; stroke: #ff7f0e"/>
     <use xlink:href="#mbe4d526692" x="574.826622" y="196.528571" style="fill: #ff7f0e; stroke: #ff7f0e"/>
     <use xlink:href="#mbe4d526692" x="580.540079" y="191.515141" style="fill: #ff7f0e; stroke: #ff7f0e"/>
     <use xlink:href="#mbe4d526692" x="586.272991" y="162.217906" style="fill: #ff7f0e; stroke: #ff7f0e"/>
     <use xlink:href="#mbe4d526692" x="592.014897" y="208.498137" style="fill: #ff7f0e; stroke: #ff7f0e"/>
     <use xlink:href="#mbe4d526692" x="597.727567" y="182.302962" style="fill: #ff7f0e; stroke: #ff7f0e"/>
     <use xlink:href="#mbe4d526692" x="603.4454" y="185.843697" style="fill: #ff7f0e; stroke: #ff7f0e"/>
     <use xlink:href="#mbe4d526692" x="609.176351" y="217.052303" style="fill: #ff7f0e; stroke: #ff7f0e"/>
     <use xlink:href="#mbe4d526692" x="614.944105" y="182.36563" style="fill: #ff7f0e; stroke: #ff7f0e"/>
     <use xlink:href="#mbe4d526692" x="620.639" y="196.841911" style="fill: #ff7f0e; stroke: #ff7f0e"/>
     <use xlink:href="#mbe4d526692" x="626.433802" y="196.152564" style="fill: #ff7f0e; stroke: #ff7f0e"/>
     <use xlink:href="#mbe4d526692" x="632.157013" y="188.977091" style="fill: #ff7f0e; stroke: #ff7f0e"/>
     <use xlink:href="#mbe4d526692" x="637.873739" y="185.843697" style="fill: #ff7f0e; stroke: #ff7f0e"/>
     <use xlink:href="#mbe4d526692" x="643.589811" y="176.286845" style="fill: #ff7f0e; stroke: #ff7f0e"/>
     <use xlink:href="#mbe4d526692" x="649.279155" y="184.277" style="fill: #ff7f0e; stroke: #ff7f0e"/>
     <use xlink:href="#mbe4d526692" x="654.973743" y="172.056763" style="fill: #ff7f0e; stroke: #ff7f0e"/>
     <use xlink:href="#mbe4d526692" x="660.665849" y="178.166882" style="fill: #ff7f0e; stroke: #ff7f0e"/>
     <use xlink:href="#mbe4d526692" x="666.725611" y="186.533044" style="fill: #ff7f0e; stroke: #ff7f0e"/>
     <use xlink:href="#mbe4d526692" x="672.442163" y="179.514241" style="fill: #ff7f0e; stroke: #ff7f0e"/>
     <use xlink:href="#mbe4d526692" x="678.155446" y="182.36563" style="fill: #ff7f0e; stroke: #ff7f0e"/>
     <use xlink:href="#mbe4d526692" x="683.847659" y="184.277" style="fill: #ff7f0e; stroke: #ff7f0e"/>
     <use xlink:href="#mbe4d526692" x="689.585496" y="195.995894" style="fill: #ff7f0e; stroke: #ff7f0e"/>
     <use xlink:href="#mbe4d526692" x="695.319195" y="192.925168" style="fill: #ff7f0e; stroke: #ff7f0e"/>
     <use xlink:href="#mbe4d526692" x="701.011755" y="184.339668" style="fill: #ff7f0e; stroke: #ff7f0e"/>
     <use xlink:href="#mbe4d526692" x="706.704208" y="184.308334" style="fill: #ff7f0e; stroke: #ff7f0e"/>
     <use xlink:href="#mbe4d526692" x="712.472362" y="191.765812" style="fill: #ff7f0e; stroke: #ff7f0e"/>
     <use xlink:href="#mbe4d526692" x="718.19991" y="207.526785" style="fill: #ff7f0e; stroke: #ff7f0e"/>
     <use xlink:href="#mbe4d526692" x="723.891109" y="181.300276" style="fill: #ff7f0e; stroke: #ff7f0e"/>
     <use xlink:href="#mbe4d526692" x="729.583348" y="181.049604" style="fill: #ff7f0e; stroke: #ff7f0e"/>
     <use xlink:href="#mbe4d526692" x="735.451796" y="208.936812" style="fill: #ff7f0e; stroke: #ff7f0e"/>
     <use xlink:href="#mbe4d526692" x="741.203297" y="193.551847" style="fill: #ff7f0e; stroke: #ff7f0e"/>
     <use xlink:href="#mbe4d526692" x="746.958494" y="194.20986" style="fill: #ff7f0e; stroke: #ff7f0e"/>
     <use xlink:href="#mbe4d526692" x="752.834681" y="195.807891" style="fill: #ff7f0e; stroke: #ff7f0e"/>
     <use xlink:href="#mbe4d526692" x="758.61371" y="169.268042" style="fill: #ff7f0e; stroke: #ff7f0e"/>
     <use xlink:href="#mbe4d526692" x="764.365891" y="504.760551" style="fill: #ff7f0e; stroke: #ff7f0e"/>
     <use xlink:href="#mbe4d526692" x="770.132217" y="507.799943" style="fill: #ff7f0e; stroke: #ff7f0e"/>
     <use xlink:href="#mbe4d526692" x="775.887214" y="507.799943" style="fill: #ff7f0e; stroke: #ff7f0e"/>
     <use xlink:href="#mbe4d526692" x="781.649657" y="507.799943" style="fill: #ff7f0e; stroke: #ff7f0e"/>
     <use xlink:href="#mbe4d526692" x="787.400663" y="507.799943" style="fill: #ff7f0e; stroke: #ff7f0e"/>
     <use xlink:href="#mbe4d526692" x="793.163386" y="507.799943" style="fill: #ff7f0e; stroke: #ff7f0e"/>
     <use xlink:href="#mbe4d526692" x="798.922213" y="507.799943" style="fill: #ff7f0e; stroke: #ff7f0e"/>
     <use xlink:href="#mbe4d526692" x="804.678571" y="507.799943" style="fill: #ff7f0e; stroke: #ff7f0e"/>
     <use xlink:href="#mbe4d526692" x="810.429377" y="507.799943" style="fill: #ff7f0e; stroke: #ff7f0e"/>
    </g>
   </g>
   <g id="patch_3">
    <path d="M 53.328125 530.918125 
L 53.328125 22.318125 
" style="fill: none; stroke: #000000; stroke-width: 0.8; stroke-linejoin: miter; stroke-linecap: square"/>
   </g>
   <g id="patch_4">
    <path d="M 849.088125 530.918125 
L 849.088125 22.318125 
" style="fill: none; stroke: #000000; stroke-width: 0.8; stroke-linejoin: miter; stroke-linecap: square"/>
   </g>
   <g id="patch_5">
    <path d="M 53.328125 530.918125 
L 849.088125 530.918125 
" style="fill: none; stroke: #000000; stroke-width: 0.8; stroke-linejoin: miter; stroke-linecap: square"/>
   </g>
   <g id="patch_6">
    <path d="M 53.328125 22.318125 
L 849.088125 22.318125 
" style="fill: none; stroke: #000000; stroke-width: 0.8; stroke-linejoin: miter; stroke-linecap: square"/>
   </g>
   <g id="text_18">
    <!-- CPU Usage Comparison Over Time -->
    <g transform="translate(347.65 16.318125) scale(0.12 -0.12)">
     <defs>
      <path id="DejaVuSans-72" d="M 2631 2963 
Q 2534 3019 2420 3045 
Q 2306 3072 2169 3072 
Q 1681 3072 1420 2755 
Q 1159 2438 1159 1844 
L 1159 0 
L 581 0 
L 581 3500 
L 1159 3500 
L 1159 2956 
Q 1341 3275 1631 3429 
Q 1922 3584 2338 3584 
Q 2397 3584 2469 3576 
Q 2541 3569 2628 3553 
L 2631 2963 
z
" transform="scale(0.015625)"/>
      <path id="DejaVuSans-4f" d="M 2522 4238 
Q 1834 4238 1429 3725 
Q 1025 3213 1025 2328 
Q 1025 1447 1429 934 
Q 1834 422 2522 422 
Q 3209 422 3611 934 
Q 4013 1447 4013 2328 
Q 4013 3213 3611 3725 
Q 3209 4238 2522 4238 
z
M 2522 4750 
Q 3503 4750 4090 4092 
Q 4678 3434 4678 2328 
Q 4678 1225 4090 567 
Q 3503 -91 2522 -91 
Q 1538 -91 948 565 
Q 359 1222 359 2328 
Q 359 3434 948 4092 
Q 1538 4750 2522 4750 
z
" transform="scale(0.015625)"/>
      <path id="DejaVuSans-76" d="M 191 3500 
L 800 3500 
L 1894 563 
L 2988 3500 
L 3597 3500 
L 2284 0 
L 1503 0 
L 191 3500 
z
" transform="scale(0.015625)"/>
     </defs>
     <use xlink:href="#DejaVuSans-43"/>
     <use xlink:href="#DejaVuSans-50" x="69.824219"/>
     <use xlink:href="#DejaVuSans-55" x="130.126953"/>
     <use xlink:href="#DejaVuSans-20" x="203.320312"/>
     <use xlink:href="#DejaVuSans-55" x="235.107422"/>
     <use xlink:href="#DejaVuSans-73" x="308.300781"/>
     <use xlink:href="#DejaVuSans-61" x="360.400391"/>
     <use xlink:href="#DejaVuSans-67" x="421.679688"/>
     <use xlink:href="#DejaVuSans-65" x="485.15625"/>
     <use xlink:href="#DejaVuSans-20" x="546.679688"/>
     <use xlink:href="#DejaVuSans-43" x="578.466797"/>
     <use xlink:href="#DejaVuSans-6f" x="648.291016"/>
     <use xlink:href="#DejaVuSans-6d" x="709.472656"/>
     <use xlink:href="#DejaVuSans-70" x="806.884766"/>
     <use xlink:href="#DejaVuSans-61" x="870.361328"/>
     <use xlink:href="#DejaVuSans-72" x="931.640625"/>
     <use xlink:href="#DejaVuSans-69" x="972.753906"/>
     <use xlink:href="#DejaVuSans-73" x="1000.537109"/>
     <use xlink:href="#DejaVuSans-6f" x="1052.636719"/>
     <use xlink:href="#DejaVuSans-6e" x="1113.818359"/>
     <use xlink:href="#DejaVuSans-20" x="1177.197266"/>
     <use xlink:href="#DejaVuSans-4f" x="1208.984375"/>
     <use xlink:href="#DejaVuSans-76" x="1287.695312"/>
     <use xlink:href="#DejaVuSans-65" x="1346.875"/>
     <use xlink:href="#DejaVuSans-72" x="1408.398438"/>
     <use xlink:href="#DejaVuSans-20" x="1449.511719"/>
     <use xlink:href="#DejaVuSans-54" x="1481.298828"/>
     <use xlink:href="#DejaVuSans-69" x="1539.257812"/>
     <use xlink:href="#DejaVuSans-6d" x="1567.041016"/>
     <use xlink:href="#DejaVuSans-65" x="1664.453125"/>
    </g>
   </g>
   <g id="legend_1">
    <g id="patch_7">
     <path d="M 773.445938 74.3525 
L 842.088125 74.3525 
Q 844.088125 74.3525 844.088125 72.3525 
L 844.088125 29.318125 
Q 844.088125 27.318125 842.088125 27.318125 
L 773.445938 27.318125 
Q 771.445938 27.318125 771.445938 29.318125 
L 771.445938 72.3525 
Q 771.445938 74.3525 773.445938 74.3525 
z
" style="fill: #ffffff; opacity: 0.8; stroke: #cccccc; stroke-linejoin: miter"/>
    </g>
    <g id="line2d_34">
     <path d="M 775.445938 35.416562 
L 785.445938 35.416562 
L 795.445938 35.416562 
" style="fill: none; stroke: #2ca02c; stroke-width: 2; stroke-linecap: square"/>
     <g>
      <use xlink:href="#m5d3e7cf19a" x="785.445938" y="35.416562" style="fill: #2ca02c; stroke: #2ca02c"/>
     </g>
    </g>
    <g id="text_19">
     <!-- weaver -->
     <g transform="translate(803.445938 38.916562) scale(0.1 -0.1)">
      <defs>
       <path id="DejaVuSans-77" d="M 269 3500 
L 844 3500 
L 1563 769 
L 2278 3500 
L 2956 3500 
L 3675 769 
L 4391 3500 
L 4966 3500 
L 4050 0 
L 3372 0 
L 2619 2869 
L 1863 0 
L 1184 0 
L 269 3500 
z
" transform="scale(0.015625)"/>
      </defs>
      <use xlink:href="#DejaVuSans-77"/>
      <use xlink:href="#DejaVuSans-65" x="81.787109"/>
      <use xlink:href="#DejaVuSans-61" x="143.310547"/>
      <use xlink:href="#DejaVuSans-76" x="204.589844"/>
      <use xlink:href="#DejaVuSans-65" x="263.769531"/>
      <use xlink:href="#DejaVuSans-72" x="325.292969"/>
     </g>
    </g>
    <g id="line2d_35">
     <path d="M 775.445938 50.094687 
L 785.445938 50.094687 
L 795.445938 50.094687 
" style="fill: none; stroke: #1f77b4; stroke-width: 2; stroke-linecap: square"/>
     <g>
      <use xlink:href="#m44ec611dc1" x="785.445938" y="50.094687" style="fill: #1f77b4; stroke: #1f77b4"/>
     </g>
    </g>
    <g id="text_20">
     <!-- node -->
     <g transform="translate(803.445938 53.594687) scale(0.1 -0.1)">
      <use xlink:href="#DejaVuSans-6e"/>
      <use xlink:href="#DejaVuSans-6f" x="63.378906"/>
      <use xlink:href="#DejaVuSans-64" x="124.560547"/>
      <use xlink:href="#DejaVuSans-65" x="188.037109"/>
     </g>
    </g>
    <g id="line2d_36">
     <path d="M 775.445938 64.772812 
L 785.445938 64.772812 
L 795.445938 64.772812 
" style="fill: none; stroke: #ff7f0e; stroke-width: 2; stroke-linecap: square"/>
     <g>
      <use xlink:href="#mbe4d526692" x="785.445938" y="64.772812" style="fill: #ff7f0e; stroke: #ff7f0e"/>
     </g>
    </g>
    <g id="text_21">
     <!-- python -->
     <g transform="translate(803.445938 68.272812) scale(0.1 -0.1)">
      <defs>
       <path id="DejaVuSans-79" d="M 2059 -325 
Q 1816 -950 1584 -1140 
Q 1353 -1331 966 -1331 
L 506 -1331 
L 506 -850 
L 844 -850 
Q 1081 -850 1212 -737 
Q 1344 -625 1503 -206 
L 1606 56 
L 191 3500 
L 800 3500 
L 1894 763 
L 2988 3500 
L 3597 3500 
L 2059 -325 
z
" transform="scale(0.015625)"/>
       <path id="DejaVuSans-74" d="M 1172 4494 
L 1172 3500 
L 2356 3500 
L 2356 3053 
L 1172 3053 
L 1172 1153 
Q 1172 725 1289 603 
Q 1406 481 1766 481 
L 2356 481 
L 2356 0 
L 1766 0 
Q 1100 0 847 248 
Q 594 497 594 1153 
L 594 3053 
L 172 3053 
L 172 3500 
L 594 3500 
L 594 4494 
L 1172 4494 
z
" transform="scale(0.015625)"/>
       <path id="DejaVuSans-68" d="M 3513 2113 
L 3513 0 
L 2938 0 
L 2938 2094 
Q 2938 2591 2744 2837 
Q 2550 3084 2163 3084 
Q 1697 3084 1428 2787 
Q 1159 2491 1159 1978 
L 1159 0 
L 581 0 
L 581 4863 
L 1159 4863 
L 1159 2956 
Q 1366 3272 1645 3428 
Q 1925 3584 2291 3584 
Q 2894 3584 3203 3211 
Q 3513 2838 3513 2113 
z
" transform="scale(0.015625)"/>
      </defs>
      <use xlink:href="#DejaVuSans-70"/>
      <use xlink:href="#DejaVuSans-79" x="63.476562"/>
      <use xlink:href="#DejaVuSans-74" x="122.65625"/>
      <use xlink:href="#DejaVuSans-68" x="161.865234"/>
      <use xlink:href="#DejaVuSans-6f" x="225.244141"/>
      <use xlink:href="#DejaVuSans-6e" x="286.425781"/>
     </g>
    </g>
   </g>
  </g>
 </g>
 <defs>
  <clipPath id="p3892e2fdc4">
   <rect x="53.328125" y="22.318125" width="795.76" height="508.6"/>
  </clipPath>
 </defs>
</svg>
