<?xml version="1.0" encoding="utf-8" standalone="no"?>
<!DOCTYPE svg PUBLIC "-//W3C//DTD SVG 1.1//EN"
  "http://www.w3.org/Graphics/SVG/1.1/DTD/svg11.dtd">
<svg xmlns:xlink="http://www.w3.org/1999/xlink" width="856.37125pt" height="568.474375pt" viewBox="0 0 856.37125 568.474375" xmlns="http://www.w3.org/2000/svg" version="1.1">
 <metadata>
  <rdf:RDF xmlns:dc="http://purl.org/dc/elements/1.1/" xmlns:cc="http://creativecommons.org/ns#" xmlns:rdf="http://www.w3.org/1999/02/22-rdf-syntax-ns#">
   <cc:Work>
    <dc:type rdf:resource="http://purl.org/dc/dcmitype/StillImage"/>
    <dc:date>2025-06-27T15:49:03.833085</dc:date>
    <dc:format>image/svg+xml</dc:format>
    <dc:creator>
     <cc:Agent>
      <dc:title>Matplotlib v3.6.3, https://matplotlib.org/</dc:title>
     </cc:Agent>
    </dc:creator>
   </cc:Work>
  </rdf:RDF>
 </metadata>
 <defs>
  <style type="text/css">*{stroke-linejoin: round; stroke-linecap: butt}</style>
 </defs>
 <g id="figure_1">
  <g id="patch_1">
   <path d="M 0 568.474375 
L 856.37125 568.474375 
L 856.37125 0 
L 0 0 
z
" style="fill: #ffffff"/>
  </g>
  <g id="axes_1">
   <g id="patch_2">
    <path d="M 43.78125 530.918125 
L 849.17125 530.918125 
L 849.17125 22.318125 
L 43.78125 22.318125 
z
" style="fill: #ffffff"/>
   </g>
   <g id="matplotlib.axis_1">
    <g id="xtick_1">
     <g id="line2d_1">
      <path d="M 72.994202 530.918125 
L 72.994202 22.318125 
" clip-path="url(#p5510be71e8)" style="fill: none; stroke: #b0b0b0; stroke-opacity: 0.3; stroke-width: 0.8; stroke-linecap: square"/>
     </g>
     <g id="line2d_2">
      <defs>
       <path id="m75fe14ca97" d="M 0 0 
L 0 3.5 
" style="stroke: #000000; stroke-width: 0.8"/>
      </defs>
      <g>
       <use xlink:href="#m75fe14ca97" x="72.994202" y="530.918125" style="stroke: #000000; stroke-width: 0.8"/>
      </g>
     </g>
     <g id="text_1">
      <!-- 0 -->
      <g transform="translate(69.812952 545.516562) scale(0.1 -0.1)">
       <defs>
        <path id="DejaVuSans-30" d="M 2034 4250 
Q 1547 4250 1301 3770 
Q 1056 3291 1056 2328 
Q 1056 1369 1301 889 
Q 1547 409 2034 409 
Q 2525 409 2770 889 
Q 3016 1369 3016 2328 
Q 3016 3291 2770 3770 
Q 2525 4250 2034 4250 
z
M 2034 4750 
Q 2819 4750 3233 4129 
Q 3647 3509 3647 2328 
Q 3647 1150 3233 529 
Q 2819 -91 2034 -91 
Q 1250 -91 836 529 
Q 422 1150 422 2328 
Q 422 3509 836 4129 
Q 1250 4750 2034 4750 
z
" transform="scale(0.015625)"/>
       </defs>
       <use xlink:href="#DejaVuSans-30"/>
      </g>
     </g>
    </g>
    <g id="xtick_2">
     <g id="line2d_3">
      <path d="M 220.907885 530.918125 
L 220.907885 22.318125 
" clip-path="url(#p5510be71e8)" style="fill: none; stroke: #b0b0b0; stroke-opacity: 0.3; stroke-width: 0.8; stroke-linecap: square"/>
     </g>
     <g id="line2d_4">
      <g>
       <use xlink:href="#m75fe14ca97" x="220.907885" y="530.918125" style="stroke: #000000; stroke-width: 0.8"/>
      </g>
     </g>
     <g id="text_2">
      <!-- 2 -->
      <g transform="translate(217.726635 545.516562) scale(0.1 -0.1)">
       <defs>
        <path id="DejaVuSans-32" d="M 1228 531 
L 3431 531 
L 3431 0 
L 469 0 
L 469 531 
Q 828 903 1448 1529 
Q 2069 2156 2228 2338 
Q 2531 2678 2651 2914 
Q 2772 3150 2772 3378 
Q 2772 3750 2511 3984 
Q 2250 4219 1831 4219 
Q 1534 4219 1204 4116 
Q 875 4013 500 3803 
L 500 4441 
Q 881 4594 1212 4672 
Q 1544 4750 1819 4750 
Q 2544 4750 2975 4387 
Q 3406 4025 3406 3419 
Q 3406 3131 3298 2873 
Q 3191 2616 2906 2266 
Q 2828 2175 2409 1742 
Q 1991 1309 1228 531 
z
" transform="scale(0.015625)"/>
       </defs>
       <use xlink:href="#DejaVuSans-32"/>
      </g>
     </g>
    </g>
    <g id="xtick_3">
     <g id="line2d_5">
      <path d="M 368.821567 530.918125 
L 368.821567 22.318125 
" clip-path="url(#p5510be71e8)" style="fill: none; stroke: #b0b0b0; stroke-opacity: 0.3; stroke-width: 0.8; stroke-linecap: square"/>
     </g>
     <g id="line2d_6">
      <g>
       <use xlink:href="#m75fe14ca97" x="368.821567" y="530.918125" style="stroke: #000000; stroke-width: 0.8"/>
      </g>
     </g>
     <g id="text_3">
      <!-- 4 -->
      <g transform="translate(365.640317 545.516562) scale(0.1 -0.1)">
       <defs>
        <path id="DejaVuSans-34" d="M 2419 4116 
L 825 1625 
L 2419 1625 
L 2419 4116 
z
M 2253 4666 
L 3047 4666 
L 3047 1625 
L 3713 1625 
L 3713 1100 
L 3047 1100 
L 3047 0 
L 2419 0 
L 2419 1100 
L 313 1100 
L 313 1709 
L 2253 4666 
z
" transform="scale(0.015625)"/>
       </defs>
       <use xlink:href="#DejaVuSans-34"/>
      </g>
     </g>
    </g>
    <g id="xtick_4">
     <g id="line2d_7">
      <path d="M 516.735249 530.918125 
L 516.735249 22.318125 
" clip-path="url(#p5510be71e8)" style="fill: none; stroke: #b0b0b0; stroke-opacity: 0.3; stroke-width: 0.8; stroke-linecap: square"/>
     </g>
     <g id="line2d_8">
      <g>
       <use xlink:href="#m75fe14ca97" x="516.735249" y="530.918125" style="stroke: #000000; stroke-width: 0.8"/>
      </g>
     </g>
     <g id="text_4">
      <!-- 6 -->
      <g transform="translate(513.553999 545.516562) scale(0.1 -0.1)">
       <defs>
        <path id="DejaVuSans-36" d="M 2113 2584 
Q 1688 2584 1439 2293 
Q 1191 2003 1191 1497 
Q 1191 994 1439 701 
Q 1688 409 2113 409 
Q 2538 409 2786 701 
Q 3034 994 3034 1497 
Q 3034 2003 2786 2293 
Q 2538 2584 2113 2584 
z
M 3366 4563 
L 3366 3988 
Q 3128 4100 2886 4159 
Q 2644 4219 2406 4219 
Q 1781 4219 1451 3797 
Q 1122 3375 1075 2522 
Q 1259 2794 1537 2939 
Q 1816 3084 2150 3084 
Q 2853 3084 3261 2657 
Q 3669 2231 3669 1497 
Q 3669 778 3244 343 
Q 2819 -91 2113 -91 
Q 1303 -91 875 529 
Q 447 1150 447 2328 
Q 447 3434 972 4092 
Q 1497 4750 2381 4750 
Q 2619 4750 2861 4703 
Q 3103 4656 3366 4563 
z
" transform="scale(0.015625)"/>
       </defs>
       <use xlink:href="#DejaVuSans-36"/>
      </g>
     </g>
    </g>
    <g id="xtick_5">
     <g id="line2d_9">
      <path d="M 664.648931 530.918125 
L 664.648931 22.318125 
" clip-path="url(#p5510be71e8)" style="fill: none; stroke: #b0b0b0; stroke-opacity: 0.3; stroke-width: 0.8; stroke-linecap: square"/>
     </g>
     <g id="line2d_10">
      <g>
       <use xlink:href="#m75fe14ca97" x="664.648931" y="530.918125" style="stroke: #000000; stroke-width: 0.8"/>
      </g>
     </g>
     <g id="text_5">
      <!-- 8 -->
      <g transform="translate(661.467681 545.516562) scale(0.1 -0.1)">
       <defs>
        <path id="DejaVuSans-38" d="M 2034 2216 
Q 1584 2216 1326 1975 
Q 1069 1734 1069 1313 
Q 1069 891 1326 650 
Q 1584 409 2034 409 
Q 2484 409 2743 651 
Q 3003 894 3003 1313 
Q 3003 1734 2745 1975 
Q 2488 2216 2034 2216 
z
M 1403 2484 
Q 997 2584 770 2862 
Q 544 3141 544 3541 
Q 544 4100 942 4425 
Q 1341 4750 2034 4750 
Q 2731 4750 3128 4425 
Q 3525 4100 3525 3541 
Q 3525 3141 3298 2862 
Q 3072 2584 2669 2484 
Q 3125 2378 3379 2068 
Q 3634 1759 3634 1313 
Q 3634 634 3220 271 
Q 2806 -91 2034 -91 
Q 1263 -91 848 271 
Q 434 634 434 1313 
Q 434 1759 690 2068 
Q 947 2378 1403 2484 
z
M 1172 3481 
Q 1172 3119 1398 2916 
Q 1625 2713 2034 2713 
Q 2441 2713 2670 2916 
Q 2900 3119 2900 3481 
Q 2900 3844 2670 4047 
Q 2441 4250 2034 4250 
Q 1625 4250 1398 4047 
Q 1172 3844 1172 3481 
z
" transform="scale(0.015625)"/>
       </defs>
       <use xlink:href="#DejaVuSans-38"/>
      </g>
     </g>
    </g>
    <g id="xtick_6">
     <g id="line2d_11">
      <path d="M 812.562614 530.918125 
L 812.562614 22.318125 
" clip-path="url(#p5510be71e8)" style="fill: none; stroke: #b0b0b0; stroke-opacity: 0.3; stroke-width: 0.8; stroke-linecap: square"/>
     </g>
     <g id="line2d_12">
      <g>
       <use xlink:href="#m75fe14ca97" x="812.562614" y="530.918125" style="stroke: #000000; stroke-width: 0.8"/>
      </g>
     </g>
     <g id="text_6">
      <!-- 10 -->
      <g transform="translate(806.200114 545.516562) scale(0.1 -0.1)">
       <defs>
        <path id="DejaVuSans-31" d="M 794 531 
L 1825 531 
L 1825 4091 
L 703 3866 
L 703 4441 
L 1819 4666 
L 2450 4666 
L 2450 531 
L 3481 531 
L 3481 0 
L 794 0 
L 794 531 
z
" transform="scale(0.015625)"/>
       </defs>
       <use xlink:href="#DejaVuSans-31"/>
       <use xlink:href="#DejaVuSans-30" x="63.623047"/>
      </g>
     </g>
    </g>
    <g id="text_7">
     <!-- Elapsed Time (seconds) -->
     <g transform="translate(387.083281 559.194687) scale(0.1 -0.1)">
      <defs>
       <path id="DejaVuSans-45" d="M 628 4666 
L 3578 4666 
L 3578 4134 
L 1259 4134 
L 1259 2753 
L 3481 2753 
L 3481 2222 
L 1259 2222 
L 1259 531 
L 3634 531 
L 3634 0 
L 628 0 
L 628 4666 
z
" transform="scale(0.015625)"/>
       <path id="DejaVuSans-6c" d="M 603 4863 
L 1178 4863 
L 1178 0 
L 603 0 
L 603 4863 
z
" transform="scale(0.015625)"/>
       <path id="DejaVuSans-61" d="M 2194 1759 
Q 1497 1759 1228 1600 
Q 959 1441 959 1056 
Q 959 750 1161 570 
Q 1363 391 1709 391 
Q 2188 391 2477 730 
Q 2766 1069 2766 1631 
L 2766 1759 
L 2194 1759 
z
M 3341 1997 
L 3341 0 
L 2766 0 
L 2766 531 
Q 2569 213 2275 61 
Q 1981 -91 1556 -91 
Q 1019 -91 701 211 
Q 384 513 384 1019 
Q 384 1609 779 1909 
Q 1175 2209 1959 2209 
L 2766 2209 
L 2766 2266 
Q 2766 2663 2505 2880 
Q 2244 3097 1772 3097 
Q 1472 3097 1187 3025 
Q 903 2953 641 2809 
L 641 3341 
Q 956 3463 1253 3523 
Q 1550 3584 1831 3584 
Q 2591 3584 2966 3190 
Q 3341 2797 3341 1997 
z
" transform="scale(0.015625)"/>
       <path id="DejaVuSans-70" d="M 1159 525 
L 1159 -1331 
L 581 -1331 
L 581 3500 
L 1159 3500 
L 1159 2969 
Q 1341 3281 1617 3432 
Q 1894 3584 2278 3584 
Q 2916 3584 3314 3078 
Q 3713 2572 3713 1747 
Q 3713 922 3314 415 
Q 2916 -91 2278 -91 
Q 1894 -91 1617 61 
Q 1341 213 1159 525 
z
M 3116 1747 
Q 3116 2381 2855 2742 
Q 2594 3103 2138 3103 
Q 1681 3103 1420 2742 
Q 1159 2381 1159 1747 
Q 1159 1113 1420 752 
Q 1681 391 2138 391 
Q 2594 391 2855 752 
Q 3116 1113 3116 1747 
z
" transform="scale(0.015625)"/>
       <path id="DejaVuSans-73" d="M 2834 3397 
L 2834 2853 
Q 2591 2978 2328 3040 
Q 2066 3103 1784 3103 
Q 1356 3103 1142 2972 
Q 928 2841 928 2578 
Q 928 2378 1081 2264 
Q 1234 2150 1697 2047 
L 1894 2003 
Q 2506 1872 2764 1633 
Q 3022 1394 3022 966 
Q 3022 478 2636 193 
Q 2250 -91 1575 -91 
Q 1294 -91 989 -36 
Q 684 19 347 128 
L 347 722 
Q 666 556 975 473 
Q 1284 391 1588 391 
Q 1994 391 2212 530 
Q 2431 669 2431 922 
Q 2431 1156 2273 1281 
Q 2116 1406 1581 1522 
L 1381 1569 
Q 847 1681 609 1914 
Q 372 2147 372 2553 
Q 372 3047 722 3315 
Q 1072 3584 1716 3584 
Q 2034 3584 2315 3537 
Q 2597 3491 2834 3397 
z
" transform="scale(0.015625)"/>
       <path id="DejaVuSans-65" d="M 3597 1894 
L 3597 1613 
L 953 1613 
Q 991 1019 1311 708 
Q 1631 397 2203 397 
Q 2534 397 2845 478 
Q 3156 559 3463 722 
L 3463 178 
Q 3153 47 2828 -22 
Q 2503 -91 2169 -91 
Q 1331 -91 842 396 
Q 353 884 353 1716 
Q 353 2575 817 3079 
Q 1281 3584 2069 3584 
Q 2775 3584 3186 3129 
Q 3597 2675 3597 1894 
z
M 3022 2063 
Q 3016 2534 2758 2815 
Q 2500 3097 2075 3097 
Q 1594 3097 1305 2825 
Q 1016 2553 972 2059 
L 3022 2063 
z
" transform="scale(0.015625)"/>
       <path id="DejaVuSans-64" d="M 2906 2969 
L 2906 4863 
L 3481 4863 
L 3481 0 
L 2906 0 
L 2906 525 
Q 2725 213 2448 61 
Q 2172 -91 1784 -91 
Q 1150 -91 751 415 
Q 353 922 353 1747 
Q 353 2572 751 3078 
Q 1150 3584 1784 3584 
Q 2172 3584 2448 3432 
Q 2725 3281 2906 2969 
z
M 947 1747 
Q 947 1113 1208 752 
Q 1469 391 1925 391 
Q 2381 391 2643 752 
Q 2906 1113 2906 1747 
Q 2906 2381 2643 2742 
Q 2381 3103 1925 3103 
Q 1469 3103 1208 2742 
Q 947 2381 947 1747 
z
" transform="scale(0.015625)"/>
       <path id="DejaVuSans-20" transform="scale(0.015625)"/>
       <path id="DejaVuSans-54" d="M -19 4666 
L 3928 4666 
L 3928 4134 
L 2272 4134 
L 2272 0 
L 1638 0 
L 1638 4134 
L -19 4134 
L -19 4666 
z
" transform="scale(0.015625)"/>
       <path id="DejaVuSans-69" d="M 603 3500 
L 1178 3500 
L 1178 0 
L 603 0 
L 603 3500 
z
M 603 4863 
L 1178 4863 
L 1178 4134 
L 603 4134 
L 603 4863 
z
" transform="scale(0.015625)"/>
       <path id="DejaVuSans-6d" d="M 3328 2828 
Q 3544 3216 3844 3400 
Q 4144 3584 4550 3584 
Q 5097 3584 5394 3201 
Q 5691 2819 5691 2113 
L 5691 0 
L 5113 0 
L 5113 2094 
Q 5113 2597 4934 2840 
Q 4756 3084 4391 3084 
Q 3944 3084 3684 2787 
Q 3425 2491 3425 1978 
L 3425 0 
L 2847 0 
L 2847 2094 
Q 2847 2600 2669 2842 
Q 2491 3084 2119 3084 
Q 1678 3084 1418 2786 
Q 1159 2488 1159 1978 
L 1159 0 
L 581 0 
L 581 3500 
L 1159 3500 
L 1159 2956 
Q 1356 3278 1631 3431 
Q 1906 3584 2284 3584 
Q 2666 3584 2933 3390 
Q 3200 3197 3328 2828 
z
" transform="scale(0.015625)"/>
       <path id="DejaVuSans-28" d="M 1984 4856 
Q 1566 4138 1362 3434 
Q 1159 2731 1159 2009 
Q 1159 1288 1364 580 
Q 1569 -128 1984 -844 
L 1484 -844 
Q 1016 -109 783 600 
Q 550 1309 550 2009 
Q 550 2706 781 3412 
Q 1013 4119 1484 4856 
L 1984 4856 
z
" transform="scale(0.015625)"/>
       <path id="DejaVuSans-63" d="M 3122 3366 
L 3122 2828 
Q 2878 2963 2633 3030 
Q 2388 3097 2138 3097 
Q 1578 3097 1268 2742 
Q 959 2388 959 1747 
Q 959 1106 1268 751 
Q 1578 397 2138 397 
Q 2388 397 2633 464 
Q 2878 531 3122 666 
L 3122 134 
Q 2881 22 2623 -34 
Q 2366 -91 2075 -91 
Q 1284 -91 818 406 
Q 353 903 353 1747 
Q 353 2603 823 3093 
Q 1294 3584 2113 3584 
Q 2378 3584 2631 3529 
Q 2884 3475 3122 3366 
z
" transform="scale(0.015625)"/>
       <path id="DejaVuSans-6f" d="M 1959 3097 
Q 1497 3097 1228 2736 
Q 959 2375 959 1747 
Q 959 1119 1226 758 
Q 1494 397 1959 397 
Q 2419 397 2687 759 
Q 2956 1122 2956 1747 
Q 2956 2369 2687 2733 
Q 2419 3097 1959 3097 
z
M 1959 3584 
Q 2709 3584 3137 3096 
Q 3566 2609 3566 1747 
Q 3566 888 3137 398 
Q 2709 -91 1959 -91 
Q 1206 -91 779 398 
Q 353 888 353 1747 
Q 353 2609 779 3096 
Q 1206 3584 1959 3584 
z
" transform="scale(0.015625)"/>
       <path id="DejaVuSans-6e" d="M 3513 2113 
L 3513 0 
L 2938 0 
L 2938 2094 
Q 2938 2591 2744 2837 
Q 2550 3084 2163 3084 
Q 1697 3084 1428 2787 
Q 1159 2491 1159 1978 
L 1159 0 
L 581 0 
L 581 3500 
L 1159 3500 
L 1159 2956 
Q 1366 3272 1645 3428 
Q 1925 3584 2291 3584 
Q 2894 3584 3203 3211 
Q 3513 2838 3513 2113 
z
" transform="scale(0.015625)"/>
       <path id="DejaVuSans-29" d="M 513 4856 
L 1013 4856 
Q 1481 4119 1714 3412 
Q 1947 2706 1947 2009 
Q 1947 1309 1714 600 
Q 1481 -109 1013 -844 
L 513 -844 
Q 928 -128 1133 580 
Q 1338 1288 1338 2009 
Q 1338 2731 1133 3434 
Q 928 4138 513 4856 
z
" transform="scale(0.015625)"/>
      </defs>
      <use xlink:href="#DejaVuSans-45"/>
      <use xlink:href="#DejaVuSans-6c" x="63.183594"/>
      <use xlink:href="#DejaVuSans-61" x="90.966797"/>
      <use xlink:href="#DejaVuSans-70" x="152.246094"/>
      <use xlink:href="#DejaVuSans-73" x="215.722656"/>
      <use xlink:href="#DejaVuSans-65" x="267.822266"/>
      <use xlink:href="#DejaVuSans-64" x="329.345703"/>
      <use xlink:href="#DejaVuSans-20" x="392.822266"/>
      <use xlink:href="#DejaVuSans-54" x="424.609375"/>
      <use xlink:href="#DejaVuSans-69" x="482.568359"/>
      <use xlink:href="#DejaVuSans-6d" x="510.351562"/>
      <use xlink:href="#DejaVuSans-65" x="607.763672"/>
      <use xlink:href="#DejaVuSans-20" x="669.287109"/>
      <use xlink:href="#DejaVuSans-28" x="701.074219"/>
      <use xlink:href="#DejaVuSans-73" x="740.087891"/>
      <use xlink:href="#DejaVuSans-65" x="792.1875"/>
      <use xlink:href="#DejaVuSans-63" x="853.710938"/>
      <use xlink:href="#DejaVuSans-6f" x="908.691406"/>
      <use xlink:href="#DejaVuSans-6e" x="969.873047"/>
      <use xlink:href="#DejaVuSans-64" x="1033.251953"/>
      <use xlink:href="#DejaVuSans-73" x="1096.728516"/>
      <use xlink:href="#DejaVuSans-29" x="1148.828125"/>
     </g>
    </g>
   </g>
   <g id="matplotlib.axis_2">
    <g id="ytick_1">
     <g id="line2d_13">
      <path d="M 43.78125 501.121357 
L 849.17125 501.121357 
" clip-path="url(#p5510be71e8)" style="fill: none; stroke: #b0b0b0; stroke-opacity: 0.3; stroke-width: 0.8; stroke-linecap: square"/>
     </g>
     <g id="line2d_14">
      <defs>
       <path id="mdf6e7637b1" d="M 0 0 
L -3.5 0 
" style="stroke: #000000; stroke-width: 0.8"/>
      </defs>
      <g>
       <use xlink:href="#mdf6e7637b1" x="43.78125" y="501.121357" style="stroke: #000000; stroke-width: 0.8"/>
      </g>
     </g>
     <g id="text_8">
      <!-- 0.5 -->
      <g transform="translate(20.878125 504.920576) scale(0.1 -0.1)">
       <defs>
        <path id="DejaVuSans-2e" d="M 684 794 
L 1344 794 
L 1344 0 
L 684 0 
L 684 794 
z
" transform="scale(0.015625)"/>
        <path id="DejaVuSans-35" d="M 691 4666 
L 3169 4666 
L 3169 4134 
L 1269 4134 
L 1269 2991 
Q 1406 3038 1543 3061 
Q 1681 3084 1819 3084 
Q 2600 3084 3056 2656 
Q 3513 2228 3513 1497 
Q 3513 744 3044 326 
Q 2575 -91 1722 -91 
Q 1428 -91 1123 -41 
Q 819 9 494 109 
L 494 744 
Q 775 591 1075 516 
Q 1375 441 1709 441 
Q 2250 441 2565 725 
Q 2881 1009 2881 1497 
Q 2881 1984 2565 2268 
Q 2250 2553 1709 2553 
Q 1456 2553 1204 2497 
Q 953 2441 691 2322 
L 691 4666 
z
" transform="scale(0.015625)"/>
       </defs>
       <use xlink:href="#DejaVuSans-30"/>
       <use xlink:href="#DejaVuSans-2e" x="63.623047"/>
       <use xlink:href="#DejaVuSans-35" x="95.410156"/>
      </g>
     </g>
    </g>
    <g id="ytick_2">
     <g id="line2d_15">
      <path d="M 43.78125 415.498462 
L 849.17125 415.498462 
" clip-path="url(#p5510be71e8)" style="fill: none; stroke: #b0b0b0; stroke-opacity: 0.3; stroke-width: 0.8; stroke-linecap: square"/>
     </g>
     <g id="line2d_16">
      <g>
       <use xlink:href="#mdf6e7637b1" x="43.78125" y="415.498462" style="stroke: #000000; stroke-width: 0.8"/>
      </g>
     </g>
     <g id="text_9">
      <!-- 1.0 -->
      <g transform="translate(20.878125 419.29768) scale(0.1 -0.1)">
       <use xlink:href="#DejaVuSans-31"/>
       <use xlink:href="#DejaVuSans-2e" x="63.623047"/>
       <use xlink:href="#DejaVuSans-30" x="95.410156"/>
      </g>
     </g>
    </g>
    <g id="ytick_3">
     <g id="line2d_17">
      <path d="M 43.78125 329.875566 
L 849.17125 329.875566 
" clip-path="url(#p5510be71e8)" style="fill: none; stroke: #b0b0b0; stroke-opacity: 0.3; stroke-width: 0.8; stroke-linecap: square"/>
     </g>
     <g id="line2d_18">
      <g>
       <use xlink:href="#mdf6e7637b1" x="43.78125" y="329.875566" style="stroke: #000000; stroke-width: 0.8"/>
      </g>
     </g>
     <g id="text_10">
      <!-- 1.5 -->
      <g transform="translate(20.878125 333.674785) scale(0.1 -0.1)">
       <use xlink:href="#DejaVuSans-31"/>
       <use xlink:href="#DejaVuSans-2e" x="63.623047"/>
       <use xlink:href="#DejaVuSans-35" x="95.410156"/>
      </g>
     </g>
    </g>
    <g id="ytick_4">
     <g id="line2d_19">
      <path d="M 43.78125 244.25267 
L 849.17125 244.25267 
" clip-path="url(#p5510be71e8)" style="fill: none; stroke: #b0b0b0; stroke-opacity: 0.3; stroke-width: 0.8; stroke-linecap: square"/>
     </g>
     <g id="line2d_20">
      <g>
       <use xlink:href="#mdf6e7637b1" x="43.78125" y="244.25267" style="stroke: #000000; stroke-width: 0.8"/>
      </g>
     </g>
     <g id="text_11">
      <!-- 2.0 -->
      <g transform="translate(20.878125 248.051889) scale(0.1 -0.1)">
       <use xlink:href="#DejaVuSans-32"/>
       <use xlink:href="#DejaVuSans-2e" x="63.623047"/>
       <use xlink:href="#DejaVuSans-30" x="95.410156"/>
      </g>
     </g>
    </g>
    <g id="ytick_5">
     <g id="line2d_21">
      <path d="M 43.78125 158.629775 
L 849.17125 158.629775 
" clip-path="url(#p5510be71e8)" style="fill: none; stroke: #b0b0b0; stroke-opacity: 0.3; stroke-width: 0.8; stroke-linecap: square"/>
     </g>
     <g id="line2d_22">
      <g>
       <use xlink:href="#mdf6e7637b1" x="43.78125" y="158.629775" style="stroke: #000000; stroke-width: 0.8"/>
      </g>
     </g>
     <g id="text_12">
      <!-- 2.5 -->
      <g transform="translate(20.878125 162.428994) scale(0.1 -0.1)">
       <use xlink:href="#DejaVuSans-32"/>
       <use xlink:href="#DejaVuSans-2e" x="63.623047"/>
       <use xlink:href="#DejaVuSans-35" x="95.410156"/>
      </g>
     </g>
    </g>
    <g id="ytick_6">
     <g id="line2d_23">
      <path d="M 43.78125 73.006879 
L 849.17125 73.006879 
" clip-path="url(#p5510be71e8)" style="fill: none; stroke: #b0b0b0; stroke-opacity: 0.3; stroke-width: 0.8; stroke-linecap: square"/>
     </g>
     <g id="line2d_24">
      <g>
       <use xlink:href="#mdf6e7637b1" x="43.78125" y="73.006879" style="stroke: #000000; stroke-width: 0.8"/>
      </g>
     </g>
     <g id="text_13">
      <!-- 3.0 -->
      <g transform="translate(20.878125 76.806098) scale(0.1 -0.1)">
       <defs>
        <path id="DejaVuSans-33" d="M 2597 2516 
Q 3050 2419 3304 2112 
Q 3559 1806 3559 1356 
Q 3559 666 3084 287 
Q 2609 -91 1734 -91 
Q 1441 -91 1130 -33 
Q 819 25 488 141 
L 488 750 
Q 750 597 1062 519 
Q 1375 441 1716 441 
Q 2309 441 2620 675 
Q 2931 909 2931 1356 
Q 2931 1769 2642 2001 
Q 2353 2234 1838 2234 
L 1294 2234 
L 1294 2753 
L 1863 2753 
Q 2328 2753 2575 2939 
Q 2822 3125 2822 3475 
Q 2822 3834 2567 4026 
Q 2313 4219 1838 4219 
Q 1578 4219 1281 4162 
Q 984 4106 628 3988 
L 628 4550 
Q 988 4650 1302 4700 
Q 1616 4750 1894 4750 
Q 2613 4750 3031 4423 
Q 3450 4097 3450 3541 
Q 3450 3153 3228 2886 
Q 3006 2619 2597 2516 
z
" transform="scale(0.015625)"/>
       </defs>
       <use xlink:href="#DejaVuSans-33"/>
       <use xlink:href="#DejaVuSans-2e" x="63.623047"/>
       <use xlink:href="#DejaVuSans-30" x="95.410156"/>
      </g>
     </g>
    </g>
    <g id="text_14">
     <!-- Mean Latency (ms) -->
     <g transform="translate(14.798438 324.560312) rotate(-90) scale(0.1 -0.1)">
      <defs>
       <path id="DejaVuSans-4d" d="M 628 4666 
L 1569 4666 
L 2759 1491 
L 3956 4666 
L 4897 4666 
L 4897 0 
L 4281 0 
L 4281 4097 
L 3078 897 
L 2444 897 
L 1241 4097 
L 1241 0 
L 628 0 
L 628 4666 
z
" transform="scale(0.015625)"/>
       <path id="DejaVuSans-4c" d="M 628 4666 
L 1259 4666 
L 1259 531 
L 3531 531 
L 3531 0 
L 628 0 
L 628 4666 
z
" transform="scale(0.015625)"/>
       <path id="DejaVuSans-74" d="M 1172 4494 
L 1172 3500 
L 2356 3500 
L 2356 3053 
L 1172 3053 
L 1172 1153 
Q 1172 725 1289 603 
Q 1406 481 1766 481 
L 2356 481 
L 2356 0 
L 1766 0 
Q 1100 0 847 248 
Q 594 497 594 1153 
L 594 3053 
L 172 3053 
L 172 3500 
L 594 3500 
L 594 4494 
L 1172 4494 
z
" transform="scale(0.015625)"/>
       <path id="DejaVuSans-79" d="M 2059 -325 
Q 1816 -950 1584 -1140 
Q 1353 -1331 966 -1331 
L 506 -1331 
L 506 -850 
L 844 -850 
Q 1081 -850 1212 -737 
Q 1344 -625 1503 -206 
L 1606 56 
L 191 3500 
L 800 3500 
L 1894 763 
L 2988 3500 
L 3597 3500 
L 2059 -325 
z
" transform="scale(0.015625)"/>
      </defs>
      <use xlink:href="#DejaVuSans-4d"/>
      <use xlink:href="#DejaVuSans-65" x="86.279297"/>
      <use xlink:href="#DejaVuSans-61" x="147.802734"/>
      <use xlink:href="#DejaVuSans-6e" x="209.082031"/>
      <use xlink:href="#DejaVuSans-20" x="272.460938"/>
      <use xlink:href="#DejaVuSans-4c" x="304.248047"/>
      <use xlink:href="#DejaVuSans-61" x="359.960938"/>
      <use xlink:href="#DejaVuSans-74" x="421.240234"/>
      <use xlink:href="#DejaVuSans-65" x="460.449219"/>
      <use xlink:href="#DejaVuSans-6e" x="521.972656"/>
      <use xlink:href="#DejaVuSans-63" x="585.351562"/>
      <use xlink:href="#DejaVuSans-79" x="640.332031"/>
      <use xlink:href="#DejaVuSans-20" x="699.511719"/>
      <use xlink:href="#DejaVuSans-28" x="731.298828"/>
      <use xlink:href="#DejaVuSans-6d" x="770.3125"/>
      <use xlink:href="#DejaVuSans-73" x="867.724609"/>
      <use xlink:href="#DejaVuSans-29" x="919.824219"/>
     </g>
    </g>
   </g>
   <g id="line2d_25">
    <path d="M 87.78557 498.038933 
L 102.576939 504.032536 
L 117.368307 507.11496 
L 132.159675 507.457452 
L 146.951043 506.601223 
L 161.742412 506.943714 
L 176.53378 507.457452 
L 191.325148 507.799943 
L 206.116516 507.799943 
L 220.907885 506.943714 
L 235.699253 506.087485 
L 250.490621 504.717519 
L 265.281989 503.518798 
L 280.073357 502.320078 
L 294.864726 502.320078 
L 309.656094 502.148832 
L 324.447462 501.80634 
L 339.23883 501.635095 
L 354.030199 501.635095 
L 368.821567 501.463849 
L 383.612935 501.292603 
L 398.404303 501.121357 
L 413.195671 500.950112 
L 427.98704 500.778866 
L 442.778408 500.265128 
L 457.569776 500.265128 
L 472.361144 500.265128 
L 487.152513 499.751391 
L 501.943881 499.408899 
L 516.735249 499.066408 
L 531.526617 498.895162 
L 546.317986 499.066408 
L 561.109354 499.408899 
L 575.900722 499.751391 
L 590.69209 499.922637 
L 605.483458 500.093883 
L 620.274827 500.436374 
L 635.066195 500.778866 
L 649.857563 500.950112 
L 664.648931 501.292603 
L 679.4403 501.635095 
L 694.231668 501.635095 
L 709.023036 501.80634 
L 723.814404 501.80634 
L 738.605772 501.80634 
L 753.397141 502.148832 
L 768.188509 502.320078 
L 782.979877 502.662569 
L 797.771245 502.662569 
L 812.562614 503.005061 
L 812.562614 503.005061 
" clip-path="url(#p5510be71e8)" style="fill: none; stroke: #2ca02c; stroke-width: 2; stroke-linecap: square"/>
    <defs>
     <path id="mb65dd37687" d="M 0 2 
C 0.530406 2 1.03916 1.789267 1.414214 1.414214 
C 1.789267 1.03916 2 0.530406 2 0 
C 2 -0.530406 1.789267 -1.03916 1.414214 -1.414214 
C 1.03916 -1.789267 0.530406 -2 0 -2 
C -0.530406 -2 -1.03916 -1.789267 -1.414214 -1.414214 
C -1.789267 -1.03916 -2 -0.530406 -2 0 
C -2 0.530406 -1.789267 1.03916 -1.414214 1.414214 
C -1.03916 1.789267 -0.530406 2 0 2 
z
" style="stroke: #2ca02c"/>
    </defs>
    <g clip-path="url(#p5510be71e8)">
     <use xlink:href="#mb65dd37687" x="87.78557" y="498.038933" style="fill: #2ca02c; stroke: #2ca02c"/>
     <use xlink:href="#mb65dd37687" x="102.576939" y="504.032536" style="fill: #2ca02c; stroke: #2ca02c"/>
     <use xlink:href="#mb65dd37687" x="117.368307" y="507.11496" style="fill: #2ca02c; stroke: #2ca02c"/>
     <use xlink:href="#mb65dd37687" x="132.159675" y="507.457452" style="fill: #2ca02c; stroke: #2ca02c"/>
     <use xlink:href="#mb65dd37687" x="146.951043" y="506.601223" style="fill: #2ca02c; stroke: #2ca02c"/>
     <use xlink:href="#mb65dd37687" x="161.742412" y="506.943714" style="fill: #2ca02c; stroke: #2ca02c"/>
     <use xlink:href="#mb65dd37687" x="176.53378" y="507.457452" style="fill: #2ca02c; stroke: #2ca02c"/>
     <use xlink:href="#mb65dd37687" x="191.325148" y="507.799943" style="fill: #2ca02c; stroke: #2ca02c"/>
     <use xlink:href="#mb65dd37687" x="206.116516" y="507.799943" style="fill: #2ca02c; stroke: #2ca02c"/>
     <use xlink:href="#mb65dd37687" x="220.907885" y="506.943714" style="fill: #2ca02c; stroke: #2ca02c"/>
     <use xlink:href="#mb65dd37687" x="235.699253" y="506.087485" style="fill: #2ca02c; stroke: #2ca02c"/>
     <use xlink:href="#mb65dd37687" x="250.490621" y="504.717519" style="fill: #2ca02c; stroke: #2ca02c"/>
     <use xlink:href="#mb65dd37687" x="265.281989" y="503.518798" style="fill: #2ca02c; stroke: #2ca02c"/>
     <use xlink:href="#mb65dd37687" x="280.073357" y="502.320078" style="fill: #2ca02c; stroke: #2ca02c"/>
     <use xlink:href="#mb65dd37687" x="294.864726" y="502.320078" style="fill: #2ca02c; stroke: #2ca02c"/>
     <use xlink:href="#mb65dd37687" x="309.656094" y="502.148832" style="fill: #2ca02c; stroke: #2ca02c"/>
     <use xlink:href="#mb65dd37687" x="324.447462" y="501.80634" style="fill: #2ca02c; stroke: #2ca02c"/>
     <use xlink:href="#mb65dd37687" x="339.23883" y="501.635095" style="fill: #2ca02c; stroke: #2ca02c"/>
     <use xlink:href="#mb65dd37687" x="354.030199" y="501.635095" style="fill: #2ca02c; stroke: #2ca02c"/>
     <use xlink:href="#mb65dd37687" x="368.821567" y="501.463849" style="fill: #2ca02c; stroke: #2ca02c"/>
     <use xlink:href="#mb65dd37687" x="383.612935" y="501.292603" style="fill: #2ca02c; stroke: #2ca02c"/>
     <use xlink:href="#mb65dd37687" x="398.404303" y="501.121357" style="fill: #2ca02c; stroke: #2ca02c"/>
     <use xlink:href="#mb65dd37687" x="413.195671" y="500.950112" style="fill: #2ca02c; stroke: #2ca02c"/>
     <use xlink:href="#mb65dd37687" x="427.98704" y="500.778866" style="fill: #2ca02c; stroke: #2ca02c"/>
     <use xlink:href="#mb65dd37687" x="442.778408" y="500.265128" style="fill: #2ca02c; stroke: #2ca02c"/>
     <use xlink:href="#mb65dd37687" x="457.569776" y="500.265128" style="fill: #2ca02c; stroke: #2ca02c"/>
     <use xlink:href="#mb65dd37687" x="472.361144" y="500.265128" style="fill: #2ca02c; stroke: #2ca02c"/>
     <use xlink:href="#mb65dd37687" x="487.152513" y="499.751391" style="fill: #2ca02c; stroke: #2ca02c"/>
     <use xlink:href="#mb65dd37687" x="501.943881" y="499.408899" style="fill: #2ca02c; stroke: #2ca02c"/>
     <use xlink:href="#mb65dd37687" x="516.735249" y="499.066408" style="fill: #2ca02c; stroke: #2ca02c"/>
     <use xlink:href="#mb65dd37687" x="531.526617" y="498.895162" style="fill: #2ca02c; stroke: #2ca02c"/>
     <use xlink:href="#mb65dd37687" x="546.317986" y="499.066408" style="fill: #2ca02c; stroke: #2ca02c"/>
     <use xlink:href="#mb65dd37687" x="561.109354" y="499.408899" style="fill: #2ca02c; stroke: #2ca02c"/>
     <use xlink:href="#mb65dd37687" x="575.900722" y="499.751391" style="fill: #2ca02c; stroke: #2ca02c"/>
     <use xlink:href="#mb65dd37687" x="590.69209" y="499.922637" style="fill: #2ca02c; stroke: #2ca02c"/>
     <use xlink:href="#mb65dd37687" x="605.483458" y="500.093883" style="fill: #2ca02c; stroke: #2ca02c"/>
     <use xlink:href="#mb65dd37687" x="620.274827" y="500.436374" style="fill: #2ca02c; stroke: #2ca02c"/>
     <use xlink:href="#mb65dd37687" x="635.066195" y="500.778866" style="fill: #2ca02c; stroke: #2ca02c"/>
     <use xlink:href="#mb65dd37687" x="649.857563" y="500.950112" style="fill: #2ca02c; stroke: #2ca02c"/>
     <use xlink:href="#mb65dd37687" x="664.648931" y="501.292603" style="fill: #2ca02c; stroke: #2ca02c"/>
     <use xlink:href="#mb65dd37687" x="679.4403" y="501.635095" style="fill: #2ca02c; stroke: #2ca02c"/>
     <use xlink:href="#mb65dd37687" x="694.231668" y="501.635095" style="fill: #2ca02c; stroke: #2ca02c"/>
     <use xlink:href="#mb65dd37687" x="709.023036" y="501.80634" style="fill: #2ca02c; stroke: #2ca02c"/>
     <use xlink:href="#mb65dd37687" x="723.814404" y="501.80634" style="fill: #2ca02c; stroke: #2ca02c"/>
     <use xlink:href="#mb65dd37687" x="738.605772" y="501.80634" style="fill: #2ca02c; stroke: #2ca02c"/>
     <use xlink:href="#mb65dd37687" x="753.397141" y="502.148832" style="fill: #2ca02c; stroke: #2ca02c"/>
     <use xlink:href="#mb65dd37687" x="768.188509" y="502.320078" style="fill: #2ca02c; stroke: #2ca02c"/>
     <use xlink:href="#mb65dd37687" x="782.979877" y="502.662569" style="fill: #2ca02c; stroke: #2ca02c"/>
     <use xlink:href="#mb65dd37687" x="797.771245" y="502.662569" style="fill: #2ca02c; stroke: #2ca02c"/>
     <use xlink:href="#mb65dd37687" x="812.562614" y="503.005061" style="fill: #2ca02c; stroke: #2ca02c"/>
     <use xlink:href="#mb65dd37687" x="812.562614" y="503.005061" style="fill: #2ca02c; stroke: #2ca02c"/>
    </g>
   </g>
   <g id="line2d_26">
    <path d="M 80.389886 45.436307 
L 95.181255 95.611324 
L 109.972623 119.75698 
L 124.763991 126.093074 
L 139.555359 129.51799 
L 154.346728 136.539068 
L 169.138096 135.169101 
L 183.929464 146.300078 
L 198.720832 157.088563 
L 213.5122 161.712199 
L 228.303569 168.390785 
L 243.094937 170.959472 
L 257.886305 170.103243 
L 272.677673 175.754354 
L 287.469042 178.151795 
L 302.26041 183.63166 
L 317.051778 189.111526 
L 331.843146 192.536441 
L 354.030199 200.756239 
L 361.425883 205.893613 
L 376.217251 214.627149 
L 391.008619 221.134489 
L 413.195671 226.956846 
L 420.591356 231.922973 
L 435.382724 236.54661 
L 450.174092 240.656509 
L 464.96546 245.451391 
L 479.756829 249.390044 
L 494.548197 253.328697 
L 509.339565 256.753613 
L 524.130933 260.007283 
L 538.922301 262.062233 
L 553.71367 262.57597 
L 568.505038 264.117182 
L 583.296406 265.487149 
L 598.087774 266.343378 
L 612.879143 266.857115 
L 627.670511 268.398327 
L 642.461879 270.110785 
L 657.253247 271.994489 
L 672.044615 273.706947 
L 686.835984 274.39193 
L 701.627352 274.563176 
L 716.41872 275.761896 
L 731.210088 277.303108 
L 746.001457 278.673074 
L 768.188509 279.871795 
L 775.584193 280.556778 
L 790.375561 281.413007 
L 805.16693 282.611728 
L 812.562614 282.611728 
" clip-path="url(#p5510be71e8)" style="fill: none; stroke: #1f77b4; stroke-width: 2; stroke-linecap: square"/>
    <defs>
     <path id="m893a91ec43" d="M 0 2 
C 0.530406 2 1.03916 1.789267 1.414214 1.414214 
C 1.789267 1.03916 2 0.530406 2 0 
C 2 -0.530406 1.789267 -1.03916 1.414214 -1.414214 
C 1.03916 -1.789267 0.530406 -2 0 -2 
C -0.530406 -2 -1.03916 -1.789267 -1.414214 -1.414214 
C -1.789267 -1.03916 -2 -0.530406 -2 0 
C -2 0.530406 -1.789267 1.03916 -1.414214 1.414214 
C -1.03916 1.789267 -0.530406 2 0 2 
z
" style="stroke: #1f77b4"/>
    </defs>
    <g clip-path="url(#p5510be71e8)">
     <use xlink:href="#m893a91ec43" x="80.389886" y="45.436307" style="fill: #1f77b4; stroke: #1f77b4"/>
     <use xlink:href="#m893a91ec43" x="95.181255" y="95.611324" style="fill: #1f77b4; stroke: #1f77b4"/>
     <use xlink:href="#m893a91ec43" x="109.972623" y="119.75698" style="fill: #1f77b4; stroke: #1f77b4"/>
     <use xlink:href="#m893a91ec43" x="124.763991" y="126.093074" style="fill: #1f77b4; stroke: #1f77b4"/>
     <use xlink:href="#m893a91ec43" x="139.555359" y="129.51799" style="fill: #1f77b4; stroke: #1f77b4"/>
     <use xlink:href="#m893a91ec43" x="154.346728" y="136.539068" style="fill: #1f77b4; stroke: #1f77b4"/>
     <use xlink:href="#m893a91ec43" x="169.138096" y="135.169101" style="fill: #1f77b4; stroke: #1f77b4"/>
     <use xlink:href="#m893a91ec43" x="183.929464" y="146.300078" style="fill: #1f77b4; stroke: #1f77b4"/>
     <use xlink:href="#m893a91ec43" x="198.720832" y="157.088563" style="fill: #1f77b4; stroke: #1f77b4"/>
     <use xlink:href="#m893a91ec43" x="213.5122" y="161.712199" style="fill: #1f77b4; stroke: #1f77b4"/>
     <use xlink:href="#m893a91ec43" x="228.303569" y="168.390785" style="fill: #1f77b4; stroke: #1f77b4"/>
     <use xlink:href="#m893a91ec43" x="243.094937" y="170.959472" style="fill: #1f77b4; stroke: #1f77b4"/>
     <use xlink:href="#m893a91ec43" x="257.886305" y="170.103243" style="fill: #1f77b4; stroke: #1f77b4"/>
     <use xlink:href="#m893a91ec43" x="272.677673" y="175.754354" style="fill: #1f77b4; stroke: #1f77b4"/>
     <use xlink:href="#m893a91ec43" x="287.469042" y="178.151795" style="fill: #1f77b4; stroke: #1f77b4"/>
     <use xlink:href="#m893a91ec43" x="302.26041" y="183.63166" style="fill: #1f77b4; stroke: #1f77b4"/>
     <use xlink:href="#m893a91ec43" x="317.051778" y="189.111526" style="fill: #1f77b4; stroke: #1f77b4"/>
     <use xlink:href="#m893a91ec43" x="331.843146" y="192.536441" style="fill: #1f77b4; stroke: #1f77b4"/>
     <use xlink:href="#m893a91ec43" x="354.030199" y="200.756239" style="fill: #1f77b4; stroke: #1f77b4"/>
     <use xlink:href="#m893a91ec43" x="361.425883" y="205.893613" style="fill: #1f77b4; stroke: #1f77b4"/>
     <use xlink:href="#m893a91ec43" x="376.217251" y="214.627149" style="fill: #1f77b4; stroke: #1f77b4"/>
     <use xlink:href="#m893a91ec43" x="391.008619" y="221.134489" style="fill: #1f77b4; stroke: #1f77b4"/>
     <use xlink:href="#m893a91ec43" x="413.195671" y="226.956846" style="fill: #1f77b4; stroke: #1f77b4"/>
     <use xlink:href="#m893a91ec43" x="420.591356" y="231.922973" style="fill: #1f77b4; stroke: #1f77b4"/>
     <use xlink:href="#m893a91ec43" x="435.382724" y="236.54661" style="fill: #1f77b4; stroke: #1f77b4"/>
     <use xlink:href="#m893a91ec43" x="450.174092" y="240.656509" style="fill: #1f77b4; stroke: #1f77b4"/>
     <use xlink:href="#m893a91ec43" x="464.96546" y="245.451391" style="fill: #1f77b4; stroke: #1f77b4"/>
     <use xlink:href="#m893a91ec43" x="479.756829" y="249.390044" style="fill: #1f77b4; stroke: #1f77b4"/>
     <use xlink:href="#m893a91ec43" x="494.548197" y="253.328697" style="fill: #1f77b4; stroke: #1f77b4"/>
     <use xlink:href="#m893a91ec43" x="509.339565" y="256.753613" style="fill: #1f77b4; stroke: #1f77b4"/>
     <use xlink:href="#m893a91ec43" x="524.130933" y="260.007283" style="fill: #1f77b4; stroke: #1f77b4"/>
     <use xlink:href="#m893a91ec43" x="538.922301" y="262.062233" style="fill: #1f77b4; stroke: #1f77b4"/>
     <use xlink:href="#m893a91ec43" x="553.71367" y="262.57597" style="fill: #1f77b4; stroke: #1f77b4"/>
     <use xlink:href="#m893a91ec43" x="568.505038" y="264.117182" style="fill: #1f77b4; stroke: #1f77b4"/>
     <use xlink:href="#m893a91ec43" x="583.296406" y="265.487149" style="fill: #1f77b4; stroke: #1f77b4"/>
     <use xlink:href="#m893a91ec43" x="598.087774" y="266.343378" style="fill: #1f77b4; stroke: #1f77b4"/>
     <use xlink:href="#m893a91ec43" x="612.879143" y="266.857115" style="fill: #1f77b4; stroke: #1f77b4"/>
     <use xlink:href="#m893a91ec43" x="627.670511" y="268.398327" style="fill: #1f77b4; stroke: #1f77b4"/>
     <use xlink:href="#m893a91ec43" x="642.461879" y="270.110785" style="fill: #1f77b4; stroke: #1f77b4"/>
     <use xlink:href="#m893a91ec43" x="657.253247" y="271.994489" style="fill: #1f77b4; stroke: #1f77b4"/>
     <use xlink:href="#m893a91ec43" x="672.044615" y="273.706947" style="fill: #1f77b4; stroke: #1f77b4"/>
     <use xlink:href="#m893a91ec43" x="686.835984" y="274.39193" style="fill: #1f77b4; stroke: #1f77b4"/>
     <use xlink:href="#m893a91ec43" x="701.627352" y="274.563176" style="fill: #1f77b4; stroke: #1f77b4"/>
     <use xlink:href="#m893a91ec43" x="716.41872" y="275.761896" style="fill: #1f77b4; stroke: #1f77b4"/>
     <use xlink:href="#m893a91ec43" x="731.210088" y="277.303108" style="fill: #1f77b4; stroke: #1f77b4"/>
     <use xlink:href="#m893a91ec43" x="746.001457" y="278.673074" style="fill: #1f77b4; stroke: #1f77b4"/>
     <use xlink:href="#m893a91ec43" x="768.188509" y="279.871795" style="fill: #1f77b4; stroke: #1f77b4"/>
     <use xlink:href="#m893a91ec43" x="775.584193" y="280.556778" style="fill: #1f77b4; stroke: #1f77b4"/>
     <use xlink:href="#m893a91ec43" x="790.375561" y="281.413007" style="fill: #1f77b4; stroke: #1f77b4"/>
     <use xlink:href="#m893a91ec43" x="805.16693" y="282.611728" style="fill: #1f77b4; stroke: #1f77b4"/>
     <use xlink:href="#m893a91ec43" x="812.562614" y="282.611728" style="fill: #1f77b4; stroke: #1f77b4"/>
    </g>
   </g>
   <g id="line2d_27">
    <path d="M 87.78557 217.02459 
L 102.576939 231.066745 
L 109.972623 236.54661 
L 124.763991 237.916576 
L 146.951043 240.999 
L 161.742412 242.711458 
L 176.53378 243.567687 
L 191.325148 244.25267 
L 206.116516 245.280145 
L 220.907885 238.944051 
L 235.699253 232.950448 
L 250.490621 231.409236 
L 265.281989 229.354287 
L 280.073357 228.669303 
L 294.864726 226.956846 
L 309.656094 224.388159 
L 324.447462 224.045667 
L 339.23883 222.846947 
L 354.030199 221.990718 
L 368.821567 219.593277 
L 376.217251 219.250785 
L 391.008619 220.449505 
L 405.799987 220.791997 
L 427.98704 221.47698 
L 442.778408 221.134489 
L 450.174092 220.27826 
L 472.361144 221.134489 
L 487.152513 222.161963 
L 501.943881 221.819472 
L 516.735249 222.504455 
L 531.526617 222.675701 
L 546.317986 223.703176 
L 561.109354 224.216913 
L 575.900722 224.388159 
L 590.69209 225.415633 
L 605.483458 225.586879 
L 620.274827 225.586879 
L 635.066195 225.244388 
L 649.857563 225.758125 
L 664.648931 226.443108 
L 679.4403 227.470583 
L 694.231668 228.155566 
L 709.023036 228.498058 
L 723.814404 228.840549 
L 738.605772 229.183041 
L 753.397141 229.354287 
L 768.188509 229.354287 
L 782.979877 229.354287 
L 797.771245 229.354287 
L 805.16693 229.354287 
L 812.562614 229.354287 
" clip-path="url(#p5510be71e8)" style="fill: none; stroke: #ff7f0e; stroke-width: 2; stroke-linecap: square"/>
    <defs>
     <path id="m136c0ffa3e" d="M 0 2 
C 0.530406 2 1.03916 1.789267 1.414214 1.414214 
C 1.789267 1.03916 2 0.530406 2 0 
C 2 -0.530406 1.789267 -1.03916 1.414214 -1.414214 
C 1.03916 -1.789267 0.530406 -2 0 -2 
C -0.530406 -2 -1.03916 -1.789267 -1.414214 -1.414214 
C -1.789267 -1.03916 -2 -0.530406 -2 0 
C -2 0.530406 -1.789267 1.03916 -1.414214 1.414214 
C -1.03916 1.789267 -0.530406 2 0 2 
z
" style="stroke: #ff7f0e"/>
    </defs>
    <g clip-path="url(#p5510be71e8)">
     <use xlink:href="#m136c0ffa3e" x="87.78557" y="217.02459" style="fill: #ff7f0e; stroke: #ff7f0e"/>
     <use xlink:href="#m136c0ffa3e" x="102.576939" y="231.066745" style="fill: #ff7f0e; stroke: #ff7f0e"/>
     <use xlink:href="#m136c0ffa3e" x="109.972623" y="236.54661" style="fill: #ff7f0e; stroke: #ff7f0e"/>
     <use xlink:href="#m136c0ffa3e" x="124.763991" y="237.916576" style="fill: #ff7f0e; stroke: #ff7f0e"/>
     <use xlink:href="#m136c0ffa3e" x="146.951043" y="240.999" style="fill: #ff7f0e; stroke: #ff7f0e"/>
     <use xlink:href="#m136c0ffa3e" x="161.742412" y="242.711458" style="fill: #ff7f0e; stroke: #ff7f0e"/>
     <use xlink:href="#m136c0ffa3e" x="176.53378" y="243.567687" style="fill: #ff7f0e; stroke: #ff7f0e"/>
     <use xlink:href="#m136c0ffa3e" x="191.325148" y="244.25267" style="fill: #ff7f0e; stroke: #ff7f0e"/>
     <use xlink:href="#m136c0ffa3e" x="206.116516" y="245.280145" style="fill: #ff7f0e; stroke: #ff7f0e"/>
     <use xlink:href="#m136c0ffa3e" x="220.907885" y="238.944051" style="fill: #ff7f0e; stroke: #ff7f0e"/>
     <use xlink:href="#m136c0ffa3e" x="235.699253" y="232.950448" style="fill: #ff7f0e; stroke: #ff7f0e"/>
     <use xlink:href="#m136c0ffa3e" x="250.490621" y="231.409236" style="fill: #ff7f0e; stroke: #ff7f0e"/>
     <use xlink:href="#m136c0ffa3e" x="265.281989" y="229.354287" style="fill: #ff7f0e; stroke: #ff7f0e"/>
     <use xlink:href="#m136c0ffa3e" x="280.073357" y="228.669303" style="fill: #ff7f0e; stroke: #ff7f0e"/>
     <use xlink:href="#m136c0ffa3e" x="294.864726" y="226.956846" style="fill: #ff7f0e; stroke: #ff7f0e"/>
     <use xlink:href="#m136c0ffa3e" x="309.656094" y="224.388159" style="fill: #ff7f0e; stroke: #ff7f0e"/>
     <use xlink:href="#m136c0ffa3e" x="324.447462" y="224.045667" style="fill: #ff7f0e; stroke: #ff7f0e"/>
     <use xlink:href="#m136c0ffa3e" x="339.23883" y="222.846947" style="fill: #ff7f0e; stroke: #ff7f0e"/>
     <use xlink:href="#m136c0ffa3e" x="354.030199" y="221.990718" style="fill: #ff7f0e; stroke: #ff7f0e"/>
     <use xlink:href="#m136c0ffa3e" x="368.821567" y="219.593277" style="fill: #ff7f0e; stroke: #ff7f0e"/>
     <use xlink:href="#m136c0ffa3e" x="376.217251" y="219.250785" style="fill: #ff7f0e; stroke: #ff7f0e"/>
     <use xlink:href="#m136c0ffa3e" x="391.008619" y="220.449505" style="fill: #ff7f0e; stroke: #ff7f0e"/>
     <use xlink:href="#m136c0ffa3e" x="405.799987" y="220.791997" style="fill: #ff7f0e; stroke: #ff7f0e"/>
     <use xlink:href="#m136c0ffa3e" x="427.98704" y="221.47698" style="fill: #ff7f0e; stroke: #ff7f0e"/>
     <use xlink:href="#m136c0ffa3e" x="442.778408" y="221.134489" style="fill: #ff7f0e; stroke: #ff7f0e"/>
     <use xlink:href="#m136c0ffa3e" x="450.174092" y="220.27826" style="fill: #ff7f0e; stroke: #ff7f0e"/>
     <use xlink:href="#m136c0ffa3e" x="472.361144" y="221.134489" style="fill: #ff7f0e; stroke: #ff7f0e"/>
     <use xlink:href="#m136c0ffa3e" x="487.152513" y="222.161963" style="fill: #ff7f0e; stroke: #ff7f0e"/>
     <use xlink:href="#m136c0ffa3e" x="501.943881" y="221.819472" style="fill: #ff7f0e; stroke: #ff7f0e"/>
     <use xlink:href="#m136c0ffa3e" x="516.735249" y="222.504455" style="fill: #ff7f0e; stroke: #ff7f0e"/>
     <use xlink:href="#m136c0ffa3e" x="531.526617" y="222.675701" style="fill: #ff7f0e; stroke: #ff7f0e"/>
     <use xlink:href="#m136c0ffa3e" x="546.317986" y="223.703176" style="fill: #ff7f0e; stroke: #ff7f0e"/>
     <use xlink:href="#m136c0ffa3e" x="561.109354" y="224.216913" style="fill: #ff7f0e; stroke: #ff7f0e"/>
     <use xlink:href="#m136c0ffa3e" x="575.900722" y="224.388159" style="fill: #ff7f0e; stroke: #ff7f0e"/>
     <use xlink:href="#m136c0ffa3e" x="590.69209" y="225.415633" style="fill: #ff7f0e; stroke: #ff7f0e"/>
     <use xlink:href="#m136c0ffa3e" x="605.483458" y="225.586879" style="fill: #ff7f0e; stroke: #ff7f0e"/>
     <use xlink:href="#m136c0ffa3e" x="620.274827" y="225.586879" style="fill: #ff7f0e; stroke: #ff7f0e"/>
     <use xlink:href="#m136c0ffa3e" x="635.066195" y="225.244388" style="fill: #ff7f0e; stroke: #ff7f0e"/>
     <use xlink:href="#m136c0ffa3e" x="649.857563" y="225.758125" style="fill: #ff7f0e; stroke: #ff7f0e"/>
     <use xlink:href="#m136c0ffa3e" x="664.648931" y="226.443108" style="fill: #ff7f0e; stroke: #ff7f0e"/>
     <use xlink:href="#m136c0ffa3e" x="679.4403" y="227.470583" style="fill: #ff7f0e; stroke: #ff7f0e"/>
     <use xlink:href="#m136c0ffa3e" x="694.231668" y="228.155566" style="fill: #ff7f0e; stroke: #ff7f0e"/>
     <use xlink:href="#m136c0ffa3e" x="709.023036" y="228.498058" style="fill: #ff7f0e; stroke: #ff7f0e"/>
     <use xlink:href="#m136c0ffa3e" x="723.814404" y="228.840549" style="fill: #ff7f0e; stroke: #ff7f0e"/>
     <use xlink:href="#m136c0ffa3e" x="738.605772" y="229.183041" style="fill: #ff7f0e; stroke: #ff7f0e"/>
     <use xlink:href="#m136c0ffa3e" x="753.397141" y="229.354287" style="fill: #ff7f0e; stroke: #ff7f0e"/>
     <use xlink:href="#m136c0ffa3e" x="768.188509" y="229.354287" style="fill: #ff7f0e; stroke: #ff7f0e"/>
     <use xlink:href="#m136c0ffa3e" x="782.979877" y="229.354287" style="fill: #ff7f0e; stroke: #ff7f0e"/>
     <use xlink:href="#m136c0ffa3e" x="797.771245" y="229.354287" style="fill: #ff7f0e; stroke: #ff7f0e"/>
     <use xlink:href="#m136c0ffa3e" x="805.16693" y="229.354287" style="fill: #ff7f0e; stroke: #ff7f0e"/>
     <use xlink:href="#m136c0ffa3e" x="812.562614" y="229.354287" style="fill: #ff7f0e; stroke: #ff7f0e"/>
    </g>
   </g>
   <g id="patch_3">
    <path d="M 43.78125 530.918125 
L 43.78125 22.318125 
" style="fill: none; stroke: #000000; stroke-width: 0.8; stroke-linejoin: miter; stroke-linecap: square"/>
   </g>
   <g id="patch_4">
    <path d="M 849.17125 530.918125 
L 849.17125 22.318125 
" style="fill: none; stroke: #000000; stroke-width: 0.8; stroke-linejoin: miter; stroke-linecap: square"/>
   </g>
   <g id="patch_5">
    <path d="M 43.78125 530.918125 
L 849.17125 530.918125 
" style="fill: none; stroke: #000000; stroke-width: 0.8; stroke-linejoin: miter; stroke-linecap: square"/>
   </g>
   <g id="patch_6">
    <path d="M 43.78125 22.318125 
L 849.17125 22.318125 
" style="fill: none; stroke: #000000; stroke-width: 0.8; stroke-linejoin: miter; stroke-linecap: square"/>
   </g>
   <g id="text_15">
    <!-- Mean Latency Comparison Over Time -->
    <g transform="translate(333.746563 16.318125) scale(0.12 -0.12)">
     <defs>
      <path id="DejaVuSans-43" d="M 4122 4306 
L 4122 3641 
Q 3803 3938 3442 4084 
Q 3081 4231 2675 4231 
Q 1875 4231 1450 3742 
Q 1025 3253 1025 2328 
Q 1025 1406 1450 917 
Q 1875 428 2675 428 
Q 3081 428 3442 575 
Q 3803 722 4122 1019 
L 4122 359 
Q 3791 134 3420 21 
Q 3050 -91 2638 -91 
Q 1578 -91 968 557 
Q 359 1206 359 2328 
Q 359 3453 968 4101 
Q 1578 4750 2638 4750 
Q 3056 4750 3426 4639 
Q 3797 4528 4122 4306 
z
" transform="scale(0.015625)"/>
      <path id="DejaVuSans-72" d="M 2631 2963 
Q 2534 3019 2420 3045 
Q 2306 3072 2169 3072 
Q 1681 3072 1420 2755 
Q 1159 2438 1159 1844 
L 1159 0 
L 581 0 
L 581 3500 
L 1159 3500 
L 1159 2956 
Q 1341 3275 1631 3429 
Q 1922 3584 2338 3584 
Q 2397 3584 2469 3576 
Q 2541 3569 2628 3553 
L 2631 2963 
z
" transform="scale(0.015625)"/>
      <path id="DejaVuSans-4f" d="M 2522 4238 
Q 1834 4238 1429 3725 
Q 1025 3213 1025 2328 
Q 1025 1447 1429 934 
Q 1834 422 2522 422 
Q 3209 422 3611 934 
Q 4013 1447 4013 2328 
Q 4013 3213 3611 3725 
Q 3209 4238 2522 4238 
z
M 2522 4750 
Q 3503 4750 4090 4092 
Q 4678 3434 4678 2328 
Q 4678 1225 4090 567 
Q 3503 -91 2522 -91 
Q 1538 -91 948 565 
Q 359 1222 359 2328 
Q 359 3434 948 4092 
Q 1538 4750 2522 4750 
z
" transform="scale(0.015625)"/>
      <path id="DejaVuSans-76" d="M 191 3500 
L 800 3500 
L 1894 563 
L 2988 3500 
L 3597 3500 
L 2284 0 
L 1503 0 
L 191 3500 
z
" transform="scale(0.015625)"/>
     </defs>
     <use xlink:href="#DejaVuSans-4d"/>
     <use xlink:href="#DejaVuSans-65" x="86.279297"/>
     <use xlink:href="#DejaVuSans-61" x="147.802734"/>
     <use xlink:href="#DejaVuSans-6e" x="209.082031"/>
     <use xlink:href="#DejaVuSans-20" x="272.460938"/>
     <use xlink:href="#DejaVuSans-4c" x="304.248047"/>
     <use xlink:href="#DejaVuSans-61" x="359.960938"/>
     <use xlink:href="#DejaVuSans-74" x="421.240234"/>
     <use xlink:href="#DejaVuSans-65" x="460.449219"/>
     <use xlink:href="#DejaVuSans-6e" x="521.972656"/>
     <use xlink:href="#DejaVuSans-63" x="585.351562"/>
     <use xlink:href="#DejaVuSans-79" x="640.332031"/>
     <use xlink:href="#DejaVuSans-20" x="699.511719"/>
     <use xlink:href="#DejaVuSans-43" x="731.298828"/>
     <use xlink:href="#DejaVuSans-6f" x="801.123047"/>
     <use xlink:href="#DejaVuSans-6d" x="862.304688"/>
     <use xlink:href="#DejaVuSans-70" x="959.716797"/>
     <use xlink:href="#DejaVuSans-61" x="1023.193359"/>
     <use xlink:href="#DejaVuSans-72" x="1084.472656"/>
     <use xlink:href="#DejaVuSans-69" x="1125.585938"/>
     <use xlink:href="#DejaVuSans-73" x="1153.369141"/>
     <use xlink:href="#DejaVuSans-6f" x="1205.46875"/>
     <use xlink:href="#DejaVuSans-6e" x="1266.650391"/>
     <use xlink:href="#DejaVuSans-20" x="1330.029297"/>
     <use xlink:href="#DejaVuSans-4f" x="1361.816406"/>
     <use xlink:href="#DejaVuSans-76" x="1440.527344"/>
     <use xlink:href="#DejaVuSans-65" x="1499.707031"/>
     <use xlink:href="#DejaVuSans-72" x="1561.230469"/>
     <use xlink:href="#DejaVuSans-20" x="1602.34375"/>
     <use xlink:href="#DejaVuSans-54" x="1634.130859"/>
     <use xlink:href="#DejaVuSans-69" x="1692.089844"/>
     <use xlink:href="#DejaVuSans-6d" x="1719.873047"/>
     <use xlink:href="#DejaVuSans-65" x="1817.285156"/>
    </g>
   </g>
   <g id="legend_1">
    <g id="patch_7">
     <path d="M 773.529063 74.3525 
L 842.17125 74.3525 
Q 844.17125 74.3525 844.17125 72.3525 
L 844.17125 29.318125 
Q 844.17125 27.318125 842.17125 27.318125 
L 773.529063 27.318125 
Q 771.529063 27.318125 771.529063 29.318125 
L 771.529063 72.3525 
Q 771.529063 74.3525 773.529063 74.3525 
z
" style="fill: #ffffff; opacity: 0.8; stroke: #cccccc; stroke-linejoin: miter"/>
    </g>
    <g id="line2d_28">
     <path d="M 775.529063 35.416562 
L 785.529063 35.416562 
L 795.529063 35.416562 
" style="fill: none; stroke: #2ca02c; stroke-width: 2; stroke-linecap: square"/>
     <g>
      <use xlink:href="#mb65dd37687" x="785.529063" y="35.416562" style="fill: #2ca02c; stroke: #2ca02c"/>
     </g>
    </g>
    <g id="text_16">
     <!-- weaver -->
     <g transform="translate(803.529063 38.916562) scale(0.1 -0.1)">
      <defs>
       <path id="DejaVuSans-77" d="M 269 3500 
L 844 3500 
L 1563 769 
L 2278 3500 
L 2956 3500 
L 3675 769 
L 4391 3500 
L 4966 3500 
L 4050 0 
L 3372 0 
L 2619 2869 
L 1863 0 
L 1184 0 
L 269 3500 
z
" transform="scale(0.015625)"/>
      </defs>
      <use xlink:href="#DejaVuSans-77"/>
      <use xlink:href="#DejaVuSans-65" x="81.787109"/>
      <use xlink:href="#DejaVuSans-61" x="143.310547"/>
      <use xlink:href="#DejaVuSans-76" x="204.589844"/>
      <use xlink:href="#DejaVuSans-65" x="263.769531"/>
      <use xlink:href="#DejaVuSans-72" x="325.292969"/>
     </g>
    </g>
    <g id="line2d_29">
     <path d="M 775.529063 50.094687 
L 785.529063 50.094687 
L 795.529063 50.094687 
" style="fill: none; stroke: #1f77b4; stroke-width: 2; stroke-linecap: square"/>
     <g>
      <use xlink:href="#m893a91ec43" x="785.529063" y="50.094687" style="fill: #1f77b4; stroke: #1f77b4"/>
     </g>
    </g>
    <g id="text_17">
     <!-- node -->
     <g transform="translate(803.529063 53.594687) scale(0.1 -0.1)">
      <use xlink:href="#DejaVuSans-6e"/>
      <use xlink:href="#DejaVuSans-6f" x="63.378906"/>
      <use xlink:href="#DejaVuSans-64" x="124.560547"/>
      <use xlink:href="#DejaVuSans-65" x="188.037109"/>
     </g>
    </g>
    <g id="line2d_30">
     <path d="M 775.529063 64.772812 
L 785.529063 64.772812 
L 795.529063 64.772812 
" style="fill: none; stroke: #ff7f0e; stroke-width: 2; stroke-linecap: square"/>
     <g>
      <use xlink:href="#m136c0ffa3e" x="785.529063" y="64.772812" style="fill: #ff7f0e; stroke: #ff7f0e"/>
     </g>
    </g>
    <g id="text_18">
     <!-- python -->
     <g transform="translate(803.529063 68.272812) scale(0.1 -0.1)">
      <defs>
       <path id="DejaVuSans-68" d="M 3513 2113 
L 3513 0 
L 2938 0 
L 2938 2094 
Q 2938 2591 2744 2837 
Q 2550 3084 2163 3084 
Q 1697 3084 1428 2787 
Q 1159 2491 1159 1978 
L 1159 0 
L 581 0 
L 581 4863 
L 1159 4863 
L 1159 2956 
Q 1366 3272 1645 3428 
Q 1925 3584 2291 3584 
Q 2894 3584 3203 3211 
Q 3513 2838 3513 2113 
z
" transform="scale(0.015625)"/>
      </defs>
      <use xlink:href="#DejaVuSans-70"/>
      <use xlink:href="#DejaVuSans-79" x="63.476562"/>
      <use xlink:href="#DejaVuSans-74" x="122.65625"/>
      <use xlink:href="#DejaVuSans-68" x="161.865234"/>
      <use xlink:href="#DejaVuSans-6f" x="225.244141"/>
      <use xlink:href="#DejaVuSans-6e" x="286.425781"/>
     </g>
    </g>
   </g>
  </g>
 </g>
 <defs>
  <clipPath id="p5510be71e8">
   <rect x="43.78125" y="22.318125" width="805.39" height="508.6"/>
  </clipPath>
 </defs>
</svg>
