<?xml version="1.0" encoding="utf-8" standalone="no"?>
<!DOCTYPE svg PUBLIC "-//W3C//DTD SVG 1.1//EN"
  "http://www.w3.org/Graphics/SVG/1.1/DTD/svg11.dtd">
<svg xmlns:xlink="http://www.w3.org/1999/xlink" width="856.288125pt" height="568.474375pt" viewBox="0 0 856.288125 568.474375" xmlns="http://www.w3.org/2000/svg" version="1.1">
 <metadata>
  <rdf:RDF xmlns:dc="http://purl.org/dc/elements/1.1/" xmlns:cc="http://creativecommons.org/ns#" xmlns:rdf="http://www.w3.org/1999/02/22-rdf-syntax-ns#">
   <cc:Work>
    <dc:type rdf:resource="http://purl.org/dc/dcmitype/StillImage"/>
    <dc:date>2025-06-27T15:49:04.229280</dc:date>
    <dc:format>image/svg+xml</dc:format>
    <dc:creator>
     <cc:Agent>
      <dc:title>Matplotlib v3.6.3, https://matplotlib.org/</dc:title>
     </cc:Agent>
    </dc:creator>
   </cc:Work>
  </rdf:RDF>
 </metadata>
 <defs>
  <style type="text/css">*{stroke-linejoin: round; stroke-linecap: butt}</style>
 </defs>
 <g id="figure_1">
  <g id="patch_1">
   <path d="M 0 568.474375 
L 856.288125 568.474375 
L 856.288125 0 
L 0 0 
z
" style="fill: #ffffff"/>
  </g>
  <g id="axes_1">
   <g id="patch_2">
    <path d="M 53.328125 530.918125 
L 849.088125 530.918125 
L 849.088125 22.318125 
L 53.328125 22.318125 
z
" style="fill: #ffffff"/>
   </g>
   <g id="matplotlib.axis_1">
    <g id="xtick_1">
     <g id="line2d_1">
      <path d="M 88.293319 530.918125 
L 88.293319 22.318125 
" clip-path="url(#p541b24acfe)" style="fill: none; stroke: #b0b0b0; stroke-opacity: 0.3; stroke-width: 0.8; stroke-linecap: square"/>
     </g>
     <g id="line2d_2">
      <defs>
       <path id="m8614c99dff" d="M 0 0 
L 0 3.5 
" style="stroke: #000000; stroke-width: 0.8"/>
      </defs>
      <g>
       <use xlink:href="#m8614c99dff" x="88.293319" y="530.918125" style="stroke: #000000; stroke-width: 0.8"/>
      </g>
     </g>
     <g id="text_1">
      <!-- 0 -->
      <g transform="translate(85.112069 545.516562) scale(0.1 -0.1)">
       <defs>
        <path id="DejaVuSans-30" d="M 2034 4250 
Q 1547 4250 1301 3770 
Q 1056 3291 1056 2328 
Q 1056 1369 1301 889 
Q 1547 409 2034 409 
Q 2525 409 2770 889 
Q 3016 1369 3016 2328 
Q 3016 3291 2770 3770 
Q 2525 4250 2034 4250 
z
M 2034 4750 
Q 2819 4750 3233 4129 
Q 3647 3509 3647 2328 
Q 3647 1150 3233 529 
Q 2819 -91 2034 -91 
Q 1250 -91 836 529 
Q 422 1150 422 2328 
Q 422 3509 836 4129 
Q 1250 4750 2034 4750 
z
" transform="scale(0.015625)"/>
       </defs>
       <use xlink:href="#DejaVuSans-30"/>
      </g>
     </g>
    </g>
    <g id="xtick_2">
     <g id="line2d_3">
      <path d="M 200.231353 530.918125 
L 200.231353 22.318125 
" clip-path="url(#p541b24acfe)" style="fill: none; stroke: #b0b0b0; stroke-opacity: 0.3; stroke-width: 0.8; stroke-linecap: square"/>
     </g>
     <g id="line2d_4">
      <g>
       <use xlink:href="#m8614c99dff" x="200.231353" y="530.918125" style="stroke: #000000; stroke-width: 0.8"/>
      </g>
     </g>
     <g id="text_2">
      <!-- 2 -->
      <g transform="translate(197.050103 545.516562) scale(0.1 -0.1)">
       <defs>
        <path id="DejaVuSans-32" d="M 1228 531 
L 3431 531 
L 3431 0 
L 469 0 
L 469 531 
Q 828 903 1448 1529 
Q 2069 2156 2228 2338 
Q 2531 2678 2651 2914 
Q 2772 3150 2772 3378 
Q 2772 3750 2511 3984 
Q 2250 4219 1831 4219 
Q 1534 4219 1204 4116 
Q 875 4013 500 3803 
L 500 4441 
Q 881 4594 1212 4672 
Q 1544 4750 1819 4750 
Q 2544 4750 2975 4387 
Q 3406 4025 3406 3419 
Q 3406 3131 3298 2873 
Q 3191 2616 2906 2266 
Q 2828 2175 2409 1742 
Q 1991 1309 1228 531 
z
" transform="scale(0.015625)"/>
       </defs>
       <use xlink:href="#DejaVuSans-32"/>
      </g>
     </g>
    </g>
    <g id="xtick_3">
     <g id="line2d_5">
      <path d="M 312.169386 530.918125 
L 312.169386 22.318125 
" clip-path="url(#p541b24acfe)" style="fill: none; stroke: #b0b0b0; stroke-opacity: 0.3; stroke-width: 0.8; stroke-linecap: square"/>
     </g>
     <g id="line2d_6">
      <g>
       <use xlink:href="#m8614c99dff" x="312.169386" y="530.918125" style="stroke: #000000; stroke-width: 0.8"/>
      </g>
     </g>
     <g id="text_3">
      <!-- 4 -->
      <g transform="translate(308.988136 545.516562) scale(0.1 -0.1)">
       <defs>
        <path id="DejaVuSans-34" d="M 2419 4116 
L 825 1625 
L 2419 1625 
L 2419 4116 
z
M 2253 4666 
L 3047 4666 
L 3047 1625 
L 3713 1625 
L 3713 1100 
L 3047 1100 
L 3047 0 
L 2419 0 
L 2419 1100 
L 313 1100 
L 313 1709 
L 2253 4666 
z
" transform="scale(0.015625)"/>
       </defs>
       <use xlink:href="#DejaVuSans-34"/>
      </g>
     </g>
    </g>
    <g id="xtick_4">
     <g id="line2d_7">
      <path d="M 424.10742 530.918125 
L 424.10742 22.318125 
" clip-path="url(#p541b24acfe)" style="fill: none; stroke: #b0b0b0; stroke-opacity: 0.3; stroke-width: 0.8; stroke-linecap: square"/>
     </g>
     <g id="line2d_8">
      <g>
       <use xlink:href="#m8614c99dff" x="424.10742" y="530.918125" style="stroke: #000000; stroke-width: 0.8"/>
      </g>
     </g>
     <g id="text_4">
      <!-- 6 -->
      <g transform="translate(420.92617 545.516562) scale(0.1 -0.1)">
       <defs>
        <path id="DejaVuSans-36" d="M 2113 2584 
Q 1688 2584 1439 2293 
Q 1191 2003 1191 1497 
Q 1191 994 1439 701 
Q 1688 409 2113 409 
Q 2538 409 2786 701 
Q 3034 994 3034 1497 
Q 3034 2003 2786 2293 
Q 2538 2584 2113 2584 
z
M 3366 4563 
L 3366 3988 
Q 3128 4100 2886 4159 
Q 2644 4219 2406 4219 
Q 1781 4219 1451 3797 
Q 1122 3375 1075 2522 
Q 1259 2794 1537 2939 
Q 1816 3084 2150 3084 
Q 2853 3084 3261 2657 
Q 3669 2231 3669 1497 
Q 3669 778 3244 343 
Q 2819 -91 2113 -91 
Q 1303 -91 875 529 
Q 447 1150 447 2328 
Q 447 3434 972 4092 
Q 1497 4750 2381 4750 
Q 2619 4750 2861 4703 
Q 3103 4656 3366 4563 
z
" transform="scale(0.015625)"/>
       </defs>
       <use xlink:href="#DejaVuSans-36"/>
      </g>
     </g>
    </g>
    <g id="xtick_5">
     <g id="line2d_9">
      <path d="M 536.045454 530.918125 
L 536.045454 22.318125 
" clip-path="url(#p541b24acfe)" style="fill: none; stroke: #b0b0b0; stroke-opacity: 0.3; stroke-width: 0.8; stroke-linecap: square"/>
     </g>
     <g id="line2d_10">
      <g>
       <use xlink:href="#m8614c99dff" x="536.045454" y="530.918125" style="stroke: #000000; stroke-width: 0.8"/>
      </g>
     </g>
     <g id="text_5">
      <!-- 8 -->
      <g transform="translate(532.864204 545.516562) scale(0.1 -0.1)">
       <defs>
        <path id="DejaVuSans-38" d="M 2034 2216 
Q 1584 2216 1326 1975 
Q 1069 1734 1069 1313 
Q 1069 891 1326 650 
Q 1584 409 2034 409 
Q 2484 409 2743 651 
Q 3003 894 3003 1313 
Q 3003 1734 2745 1975 
Q 2488 2216 2034 2216 
z
M 1403 2484 
Q 997 2584 770 2862 
Q 544 3141 544 3541 
Q 544 4100 942 4425 
Q 1341 4750 2034 4750 
Q 2731 4750 3128 4425 
Q 3525 4100 3525 3541 
Q 3525 3141 3298 2862 
Q 3072 2584 2669 2484 
Q 3125 2378 3379 2068 
Q 3634 1759 3634 1313 
Q 3634 634 3220 271 
Q 2806 -91 2034 -91 
Q 1263 -91 848 271 
Q 434 634 434 1313 
Q 434 1759 690 2068 
Q 947 2378 1403 2484 
z
M 1172 3481 
Q 1172 3119 1398 2916 
Q 1625 2713 2034 2713 
Q 2441 2713 2670 2916 
Q 2900 3119 2900 3481 
Q 2900 3844 2670 4047 
Q 2441 4250 2034 4250 
Q 1625 4250 1398 4047 
Q 1172 3844 1172 3481 
z
" transform="scale(0.015625)"/>
       </defs>
       <use xlink:href="#DejaVuSans-38"/>
      </g>
     </g>
    </g>
    <g id="xtick_6">
     <g id="line2d_11">
      <path d="M 647.983487 530.918125 
L 647.983487 22.318125 
" clip-path="url(#p541b24acfe)" style="fill: none; stroke: #b0b0b0; stroke-opacity: 0.3; stroke-width: 0.8; stroke-linecap: square"/>
     </g>
     <g id="line2d_12">
      <g>
       <use xlink:href="#m8614c99dff" x="647.983487" y="530.918125" style="stroke: #000000; stroke-width: 0.8"/>
      </g>
     </g>
     <g id="text_6">
      <!-- 10 -->
      <g transform="translate(641.620987 545.516562) scale(0.1 -0.1)">
       <defs>
        <path id="DejaVuSans-31" d="M 794 531 
L 1825 531 
L 1825 4091 
L 703 3866 
L 703 4441 
L 1819 4666 
L 2450 4666 
L 2450 531 
L 3481 531 
L 3481 0 
L 794 0 
L 794 531 
z
" transform="scale(0.015625)"/>
       </defs>
       <use xlink:href="#DejaVuSans-31"/>
       <use xlink:href="#DejaVuSans-30" x="63.623047"/>
      </g>
     </g>
    </g>
    <g id="xtick_7">
     <g id="line2d_13">
      <path d="M 759.921521 530.918125 
L 759.921521 22.318125 
" clip-path="url(#p541b24acfe)" style="fill: none; stroke: #b0b0b0; stroke-opacity: 0.3; stroke-width: 0.8; stroke-linecap: square"/>
     </g>
     <g id="line2d_14">
      <g>
       <use xlink:href="#m8614c99dff" x="759.921521" y="530.918125" style="stroke: #000000; stroke-width: 0.8"/>
      </g>
     </g>
     <g id="text_7">
      <!-- 12 -->
      <g transform="translate(753.559021 545.516562) scale(0.1 -0.1)">
       <use xlink:href="#DejaVuSans-31"/>
       <use xlink:href="#DejaVuSans-32" x="63.623047"/>
      </g>
     </g>
    </g>
    <g id="text_8">
     <!-- Elapsed Time (seconds) -->
     <g transform="translate(391.815156 559.194687) scale(0.1 -0.1)">
      <defs>
       <path id="DejaVuSans-45" d="M 628 4666 
L 3578 4666 
L 3578 4134 
L 1259 4134 
L 1259 2753 
L 3481 2753 
L 3481 2222 
L 1259 2222 
L 1259 531 
L 3634 531 
L 3634 0 
L 628 0 
L 628 4666 
z
" transform="scale(0.015625)"/>
       <path id="DejaVuSans-6c" d="M 603 4863 
L 1178 4863 
L 1178 0 
L 603 0 
L 603 4863 
z
" transform="scale(0.015625)"/>
       <path id="DejaVuSans-61" d="M 2194 1759 
Q 1497 1759 1228 1600 
Q 959 1441 959 1056 
Q 959 750 1161 570 
Q 1363 391 1709 391 
Q 2188 391 2477 730 
Q 2766 1069 2766 1631 
L 2766 1759 
L 2194 1759 
z
M 3341 1997 
L 3341 0 
L 2766 0 
L 2766 531 
Q 2569 213 2275 61 
Q 1981 -91 1556 -91 
Q 1019 -91 701 211 
Q 384 513 384 1019 
Q 384 1609 779 1909 
Q 1175 2209 1959 2209 
L 2766 2209 
L 2766 2266 
Q 2766 2663 2505 2880 
Q 2244 3097 1772 3097 
Q 1472 3097 1187 3025 
Q 903 2953 641 2809 
L 641 3341 
Q 956 3463 1253 3523 
Q 1550 3584 1831 3584 
Q 2591 3584 2966 3190 
Q 3341 2797 3341 1997 
z
" transform="scale(0.015625)"/>
       <path id="DejaVuSans-70" d="M 1159 525 
L 1159 -1331 
L 581 -1331 
L 581 3500 
L 1159 3500 
L 1159 2969 
Q 1341 3281 1617 3432 
Q 1894 3584 2278 3584 
Q 2916 3584 3314 3078 
Q 3713 2572 3713 1747 
Q 3713 922 3314 415 
Q 2916 -91 2278 -91 
Q 1894 -91 1617 61 
Q 1341 213 1159 525 
z
M 3116 1747 
Q 3116 2381 2855 2742 
Q 2594 3103 2138 3103 
Q 1681 3103 1420 2742 
Q 1159 2381 1159 1747 
Q 1159 1113 1420 752 
Q 1681 391 2138 391 
Q 2594 391 2855 752 
Q 3116 1113 3116 1747 
z
" transform="scale(0.015625)"/>
       <path id="DejaVuSans-73" d="M 2834 3397 
L 2834 2853 
Q 2591 2978 2328 3040 
Q 2066 3103 1784 3103 
Q 1356 3103 1142 2972 
Q 928 2841 928 2578 
Q 928 2378 1081 2264 
Q 1234 2150 1697 2047 
L 1894 2003 
Q 2506 1872 2764 1633 
Q 3022 1394 3022 966 
Q 3022 478 2636 193 
Q 2250 -91 1575 -91 
Q 1294 -91 989 -36 
Q 684 19 347 128 
L 347 722 
Q 666 556 975 473 
Q 1284 391 1588 391 
Q 1994 391 2212 530 
Q 2431 669 2431 922 
Q 2431 1156 2273 1281 
Q 2116 1406 1581 1522 
L 1381 1569 
Q 847 1681 609 1914 
Q 372 2147 372 2553 
Q 372 3047 722 3315 
Q 1072 3584 1716 3584 
Q 2034 3584 2315 3537 
Q 2597 3491 2834 3397 
z
" transform="scale(0.015625)"/>
       <path id="DejaVuSans-65" d="M 3597 1894 
L 3597 1613 
L 953 1613 
Q 991 1019 1311 708 
Q 1631 397 2203 397 
Q 2534 397 2845 478 
Q 3156 559 3463 722 
L 3463 178 
Q 3153 47 2828 -22 
Q 2503 -91 2169 -91 
Q 1331 -91 842 396 
Q 353 884 353 1716 
Q 353 2575 817 3079 
Q 1281 3584 2069 3584 
Q 2775 3584 3186 3129 
Q 3597 2675 3597 1894 
z
M 3022 2063 
Q 3016 2534 2758 2815 
Q 2500 3097 2075 3097 
Q 1594 3097 1305 2825 
Q 1016 2553 972 2059 
L 3022 2063 
z
" transform="scale(0.015625)"/>
       <path id="DejaVuSans-64" d="M 2906 2969 
L 2906 4863 
L 3481 4863 
L 3481 0 
L 2906 0 
L 2906 525 
Q 2725 213 2448 61 
Q 2172 -91 1784 -91 
Q 1150 -91 751 415 
Q 353 922 353 1747 
Q 353 2572 751 3078 
Q 1150 3584 1784 3584 
Q 2172 3584 2448 3432 
Q 2725 3281 2906 2969 
z
M 947 1747 
Q 947 1113 1208 752 
Q 1469 391 1925 391 
Q 2381 391 2643 752 
Q 2906 1113 2906 1747 
Q 2906 2381 2643 2742 
Q 2381 3103 1925 3103 
Q 1469 3103 1208 2742 
Q 947 2381 947 1747 
z
" transform="scale(0.015625)"/>
       <path id="DejaVuSans-20" transform="scale(0.015625)"/>
       <path id="DejaVuSans-54" d="M -19 4666 
L 3928 4666 
L 3928 4134 
L 2272 4134 
L 2272 0 
L 1638 0 
L 1638 4134 
L -19 4134 
L -19 4666 
z
" transform="scale(0.015625)"/>
       <path id="DejaVuSans-69" d="M 603 3500 
L 1178 3500 
L 1178 0 
L 603 0 
L 603 3500 
z
M 603 4863 
L 1178 4863 
L 1178 4134 
L 603 4134 
L 603 4863 
z
" transform="scale(0.015625)"/>
       <path id="DejaVuSans-6d" d="M 3328 2828 
Q 3544 3216 3844 3400 
Q 4144 3584 4550 3584 
Q 5097 3584 5394 3201 
Q 5691 2819 5691 2113 
L 5691 0 
L 5113 0 
L 5113 2094 
Q 5113 2597 4934 2840 
Q 4756 3084 4391 3084 
Q 3944 3084 3684 2787 
Q 3425 2491 3425 1978 
L 3425 0 
L 2847 0 
L 2847 2094 
Q 2847 2600 2669 2842 
Q 2491 3084 2119 3084 
Q 1678 3084 1418 2786 
Q 1159 2488 1159 1978 
L 1159 0 
L 581 0 
L 581 3500 
L 1159 3500 
L 1159 2956 
Q 1356 3278 1631 3431 
Q 1906 3584 2284 3584 
Q 2666 3584 2933 3390 
Q 3200 3197 3328 2828 
z
" transform="scale(0.015625)"/>
       <path id="DejaVuSans-28" d="M 1984 4856 
Q 1566 4138 1362 3434 
Q 1159 2731 1159 2009 
Q 1159 1288 1364 580 
Q 1569 -128 1984 -844 
L 1484 -844 
Q 1016 -109 783 600 
Q 550 1309 550 2009 
Q 550 2706 781 3412 
Q 1013 4119 1484 4856 
L 1984 4856 
z
" transform="scale(0.015625)"/>
       <path id="DejaVuSans-63" d="M 3122 3366 
L 3122 2828 
Q 2878 2963 2633 3030 
Q 2388 3097 2138 3097 
Q 1578 3097 1268 2742 
Q 959 2388 959 1747 
Q 959 1106 1268 751 
Q 1578 397 2138 397 
Q 2388 397 2633 464 
Q 2878 531 3122 666 
L 3122 134 
Q 2881 22 2623 -34 
Q 2366 -91 2075 -91 
Q 1284 -91 818 406 
Q 353 903 353 1747 
Q 353 2603 823 3093 
Q 1294 3584 2113 3584 
Q 2378 3584 2631 3529 
Q 2884 3475 3122 3366 
z
" transform="scale(0.015625)"/>
       <path id="DejaVuSans-6f" d="M 1959 3097 
Q 1497 3097 1228 2736 
Q 959 2375 959 1747 
Q 959 1119 1226 758 
Q 1494 397 1959 397 
Q 2419 397 2687 759 
Q 2956 1122 2956 1747 
Q 2956 2369 2687 2733 
Q 2419 3097 1959 3097 
z
M 1959 3584 
Q 2709 3584 3137 3096 
Q 3566 2609 3566 1747 
Q 3566 888 3137 398 
Q 2709 -91 1959 -91 
Q 1206 -91 779 398 
Q 353 888 353 1747 
Q 353 2609 779 3096 
Q 1206 3584 1959 3584 
z
" transform="scale(0.015625)"/>
       <path id="DejaVuSans-6e" d="M 3513 2113 
L 3513 0 
L 2938 0 
L 2938 2094 
Q 2938 2591 2744 2837 
Q 2550 3084 2163 3084 
Q 1697 3084 1428 2787 
Q 1159 2491 1159 1978 
L 1159 0 
L 581 0 
L 581 3500 
L 1159 3500 
L 1159 2956 
Q 1366 3272 1645 3428 
Q 1925 3584 2291 3584 
Q 2894 3584 3203 3211 
Q 3513 2838 3513 2113 
z
" transform="scale(0.015625)"/>
       <path id="DejaVuSans-29" d="M 513 4856 
L 1013 4856 
Q 1481 4119 1714 3412 
Q 1947 2706 1947 2009 
Q 1947 1309 1714 600 
Q 1481 -109 1013 -844 
L 513 -844 
Q 928 -128 1133 580 
Q 1338 1288 1338 2009 
Q 1338 2731 1133 3434 
Q 928 4138 513 4856 
z
" transform="scale(0.015625)"/>
      </defs>
      <use xlink:href="#DejaVuSans-45"/>
      <use xlink:href="#DejaVuSans-6c" x="63.183594"/>
      <use xlink:href="#DejaVuSans-61" x="90.966797"/>
      <use xlink:href="#DejaVuSans-70" x="152.246094"/>
      <use xlink:href="#DejaVuSans-73" x="215.722656"/>
      <use xlink:href="#DejaVuSans-65" x="267.822266"/>
      <use xlink:href="#DejaVuSans-64" x="329.345703"/>
      <use xlink:href="#DejaVuSans-20" x="392.822266"/>
      <use xlink:href="#DejaVuSans-54" x="424.609375"/>
      <use xlink:href="#DejaVuSans-69" x="482.568359"/>
      <use xlink:href="#DejaVuSans-6d" x="510.351562"/>
      <use xlink:href="#DejaVuSans-65" x="607.763672"/>
      <use xlink:href="#DejaVuSans-20" x="669.287109"/>
      <use xlink:href="#DejaVuSans-28" x="701.074219"/>
      <use xlink:href="#DejaVuSans-73" x="740.087891"/>
      <use xlink:href="#DejaVuSans-65" x="792.1875"/>
      <use xlink:href="#DejaVuSans-63" x="853.710938"/>
      <use xlink:href="#DejaVuSans-6f" x="908.691406"/>
      <use xlink:href="#DejaVuSans-6e" x="969.873047"/>
      <use xlink:href="#DejaVuSans-64" x="1033.251953"/>
      <use xlink:href="#DejaVuSans-73" x="1096.728516"/>
      <use xlink:href="#DejaVuSans-29" x="1148.828125"/>
     </g>
    </g>
   </g>
   <g id="matplotlib.axis_2">
    <g id="ytick_1">
     <g id="line2d_15">
      <path d="M 53.328125 515.056834 
L 849.088125 515.056834 
" clip-path="url(#p541b24acfe)" style="fill: none; stroke: #b0b0b0; stroke-opacity: 0.3; stroke-width: 0.8; stroke-linecap: square"/>
     </g>
     <g id="line2d_16">
      <defs>
       <path id="m27de515e85" d="M 0 0 
L -3.5 0 
" style="stroke: #000000; stroke-width: 0.8"/>
      </defs>
      <g>
       <use xlink:href="#m27de515e85" x="53.328125" y="515.056834" style="stroke: #000000; stroke-width: 0.8"/>
      </g>
     </g>
     <g id="text_9">
      <!-- 0 -->
      <g transform="translate(39.965625 518.856053) scale(0.1 -0.1)">
       <use xlink:href="#DejaVuSans-30"/>
      </g>
     </g>
    </g>
    <g id="ytick_2">
     <g id="line2d_17">
      <path d="M 53.328125 457.725517 
L 849.088125 457.725517 
" clip-path="url(#p541b24acfe)" style="fill: none; stroke: #b0b0b0; stroke-opacity: 0.3; stroke-width: 0.8; stroke-linecap: square"/>
     </g>
     <g id="line2d_18">
      <g>
       <use xlink:href="#m27de515e85" x="53.328125" y="457.725517" style="stroke: #000000; stroke-width: 0.8"/>
      </g>
     </g>
     <g id="text_10">
      <!-- 250 -->
      <g transform="translate(27.240625 461.524735) scale(0.1 -0.1)">
       <defs>
        <path id="DejaVuSans-35" d="M 691 4666 
L 3169 4666 
L 3169 4134 
L 1269 4134 
L 1269 2991 
Q 1406 3038 1543 3061 
Q 1681 3084 1819 3084 
Q 2600 3084 3056 2656 
Q 3513 2228 3513 1497 
Q 3513 744 3044 326 
Q 2575 -91 1722 -91 
Q 1428 -91 1123 -41 
Q 819 9 494 109 
L 494 744 
Q 775 591 1075 516 
Q 1375 441 1709 441 
Q 2250 441 2565 725 
Q 2881 1009 2881 1497 
Q 2881 1984 2565 2268 
Q 2250 2553 1709 2553 
Q 1456 2553 1204 2497 
Q 953 2441 691 2322 
L 691 4666 
z
" transform="scale(0.015625)"/>
       </defs>
       <use xlink:href="#DejaVuSans-32"/>
       <use xlink:href="#DejaVuSans-35" x="63.623047"/>
       <use xlink:href="#DejaVuSans-30" x="127.246094"/>
      </g>
     </g>
    </g>
    <g id="ytick_3">
     <g id="line2d_19">
      <path d="M 53.328125 400.394199 
L 849.088125 400.394199 
" clip-path="url(#p541b24acfe)" style="fill: none; stroke: #b0b0b0; stroke-opacity: 0.3; stroke-width: 0.8; stroke-linecap: square"/>
     </g>
     <g id="line2d_20">
      <g>
       <use xlink:href="#m27de515e85" x="53.328125" y="400.394199" style="stroke: #000000; stroke-width: 0.8"/>
      </g>
     </g>
     <g id="text_11">
      <!-- 500 -->
      <g transform="translate(27.240625 404.193418) scale(0.1 -0.1)">
       <use xlink:href="#DejaVuSans-35"/>
       <use xlink:href="#DejaVuSans-30" x="63.623047"/>
       <use xlink:href="#DejaVuSans-30" x="127.246094"/>
      </g>
     </g>
    </g>
    <g id="ytick_4">
     <g id="line2d_21">
      <path d="M 53.328125 343.062882 
L 849.088125 343.062882 
" clip-path="url(#p541b24acfe)" style="fill: none; stroke: #b0b0b0; stroke-opacity: 0.3; stroke-width: 0.8; stroke-linecap: square"/>
     </g>
     <g id="line2d_22">
      <g>
       <use xlink:href="#m27de515e85" x="53.328125" y="343.062882" style="stroke: #000000; stroke-width: 0.8"/>
      </g>
     </g>
     <g id="text_12">
      <!-- 750 -->
      <g transform="translate(27.240625 346.862101) scale(0.1 -0.1)">
       <defs>
        <path id="DejaVuSans-37" d="M 525 4666 
L 3525 4666 
L 3525 4397 
L 1831 0 
L 1172 0 
L 2766 4134 
L 525 4134 
L 525 4666 
z
" transform="scale(0.015625)"/>
       </defs>
       <use xlink:href="#DejaVuSans-37"/>
       <use xlink:href="#DejaVuSans-35" x="63.623047"/>
       <use xlink:href="#DejaVuSans-30" x="127.246094"/>
      </g>
     </g>
    </g>
    <g id="ytick_5">
     <g id="line2d_23">
      <path d="M 53.328125 285.731565 
L 849.088125 285.731565 
" clip-path="url(#p541b24acfe)" style="fill: none; stroke: #b0b0b0; stroke-opacity: 0.3; stroke-width: 0.8; stroke-linecap: square"/>
     </g>
     <g id="line2d_24">
      <g>
       <use xlink:href="#m27de515e85" x="53.328125" y="285.731565" style="stroke: #000000; stroke-width: 0.8"/>
      </g>
     </g>
     <g id="text_13">
      <!-- 1000 -->
      <g transform="translate(20.878125 289.530784) scale(0.1 -0.1)">
       <use xlink:href="#DejaVuSans-31"/>
       <use xlink:href="#DejaVuSans-30" x="63.623047"/>
       <use xlink:href="#DejaVuSans-30" x="127.246094"/>
       <use xlink:href="#DejaVuSans-30" x="190.869141"/>
      </g>
     </g>
    </g>
    <g id="ytick_6">
     <g id="line2d_25">
      <path d="M 53.328125 228.400248 
L 849.088125 228.400248 
" clip-path="url(#p541b24acfe)" style="fill: none; stroke: #b0b0b0; stroke-opacity: 0.3; stroke-width: 0.8; stroke-linecap: square"/>
     </g>
     <g id="line2d_26">
      <g>
       <use xlink:href="#m27de515e85" x="53.328125" y="228.400248" style="stroke: #000000; stroke-width: 0.8"/>
      </g>
     </g>
     <g id="text_14">
      <!-- 1250 -->
      <g transform="translate(20.878125 232.199466) scale(0.1 -0.1)">
       <use xlink:href="#DejaVuSans-31"/>
       <use xlink:href="#DejaVuSans-32" x="63.623047"/>
       <use xlink:href="#DejaVuSans-35" x="127.246094"/>
       <use xlink:href="#DejaVuSans-30" x="190.869141"/>
      </g>
     </g>
    </g>
    <g id="ytick_7">
     <g id="line2d_27">
      <path d="M 53.328125 171.06893 
L 849.088125 171.06893 
" clip-path="url(#p541b24acfe)" style="fill: none; stroke: #b0b0b0; stroke-opacity: 0.3; stroke-width: 0.8; stroke-linecap: square"/>
     </g>
     <g id="line2d_28">
      <g>
       <use xlink:href="#m27de515e85" x="53.328125" y="171.06893" style="stroke: #000000; stroke-width: 0.8"/>
      </g>
     </g>
     <g id="text_15">
      <!-- 1500 -->
      <g transform="translate(20.878125 174.868149) scale(0.1 -0.1)">
       <use xlink:href="#DejaVuSans-31"/>
       <use xlink:href="#DejaVuSans-35" x="63.623047"/>
       <use xlink:href="#DejaVuSans-30" x="127.246094"/>
       <use xlink:href="#DejaVuSans-30" x="190.869141"/>
      </g>
     </g>
    </g>
    <g id="ytick_8">
     <g id="line2d_29">
      <path d="M 53.328125 113.737613 
L 849.088125 113.737613 
" clip-path="url(#p541b24acfe)" style="fill: none; stroke: #b0b0b0; stroke-opacity: 0.3; stroke-width: 0.8; stroke-linecap: square"/>
     </g>
     <g id="line2d_30">
      <g>
       <use xlink:href="#m27de515e85" x="53.328125" y="113.737613" style="stroke: #000000; stroke-width: 0.8"/>
      </g>
     </g>
     <g id="text_16">
      <!-- 1750 -->
      <g transform="translate(20.878125 117.536832) scale(0.1 -0.1)">
       <use xlink:href="#DejaVuSans-31"/>
       <use xlink:href="#DejaVuSans-37" x="63.623047"/>
       <use xlink:href="#DejaVuSans-35" x="127.246094"/>
       <use xlink:href="#DejaVuSans-30" x="190.869141"/>
      </g>
     </g>
    </g>
    <g id="ytick_9">
     <g id="line2d_31">
      <path d="M 53.328125 56.406296 
L 849.088125 56.406296 
" clip-path="url(#p541b24acfe)" style="fill: none; stroke: #b0b0b0; stroke-opacity: 0.3; stroke-width: 0.8; stroke-linecap: square"/>
     </g>
     <g id="line2d_32">
      <g>
       <use xlink:href="#m27de515e85" x="53.328125" y="56.406296" style="stroke: #000000; stroke-width: 0.8"/>
      </g>
     </g>
     <g id="text_17">
      <!-- 2000 -->
      <g transform="translate(20.878125 60.205515) scale(0.1 -0.1)">
       <use xlink:href="#DejaVuSans-32"/>
       <use xlink:href="#DejaVuSans-30" x="63.623047"/>
       <use xlink:href="#DejaVuSans-30" x="127.246094"/>
       <use xlink:href="#DejaVuSans-30" x="190.869141"/>
      </g>
     </g>
    </g>
    <g id="text_18">
     <!-- Memory Usage (MB) -->
     <g transform="translate(14.798438 327.356406) rotate(-90) scale(0.1 -0.1)">
      <defs>
       <path id="DejaVuSans-4d" d="M 628 4666 
L 1569 4666 
L 2759 1491 
L 3956 4666 
L 4897 4666 
L 4897 0 
L 4281 0 
L 4281 4097 
L 3078 897 
L 2444 897 
L 1241 4097 
L 1241 0 
L 628 0 
L 628 4666 
z
" transform="scale(0.015625)"/>
       <path id="DejaVuSans-72" d="M 2631 2963 
Q 2534 3019 2420 3045 
Q 2306 3072 2169 3072 
Q 1681 3072 1420 2755 
Q 1159 2438 1159 1844 
L 1159 0 
L 581 0 
L 581 3500 
L 1159 3500 
L 1159 2956 
Q 1341 3275 1631 3429 
Q 1922 3584 2338 3584 
Q 2397 3584 2469 3576 
Q 2541 3569 2628 3553 
L 2631 2963 
z
" transform="scale(0.015625)"/>
       <path id="DejaVuSans-79" d="M 2059 -325 
Q 1816 -950 1584 -1140 
Q 1353 -1331 966 -1331 
L 506 -1331 
L 506 -850 
L 844 -850 
Q 1081 -850 1212 -737 
Q 1344 -625 1503 -206 
L 1606 56 
L 191 3500 
L 800 3500 
L 1894 763 
L 2988 3500 
L 3597 3500 
L 2059 -325 
z
" transform="scale(0.015625)"/>
       <path id="DejaVuSans-55" d="M 556 4666 
L 1191 4666 
L 1191 1831 
Q 1191 1081 1462 751 
Q 1734 422 2344 422 
Q 2950 422 3222 751 
Q 3494 1081 3494 1831 
L 3494 4666 
L 4128 4666 
L 4128 1753 
Q 4128 841 3676 375 
Q 3225 -91 2344 -91 
Q 1459 -91 1007 375 
Q 556 841 556 1753 
L 556 4666 
z
" transform="scale(0.015625)"/>
       <path id="DejaVuSans-67" d="M 2906 1791 
Q 2906 2416 2648 2759 
Q 2391 3103 1925 3103 
Q 1463 3103 1205 2759 
Q 947 2416 947 1791 
Q 947 1169 1205 825 
Q 1463 481 1925 481 
Q 2391 481 2648 825 
Q 2906 1169 2906 1791 
z
M 3481 434 
Q 3481 -459 3084 -895 
Q 2688 -1331 1869 -1331 
Q 1566 -1331 1297 -1286 
Q 1028 -1241 775 -1147 
L 775 -588 
Q 1028 -725 1275 -790 
Q 1522 -856 1778 -856 
Q 2344 -856 2625 -561 
Q 2906 -266 2906 331 
L 2906 616 
Q 2728 306 2450 153 
Q 2172 0 1784 0 
Q 1141 0 747 490 
Q 353 981 353 1791 
Q 353 2603 747 3093 
Q 1141 3584 1784 3584 
Q 2172 3584 2450 3431 
Q 2728 3278 2906 2969 
L 2906 3500 
L 3481 3500 
L 3481 434 
z
" transform="scale(0.015625)"/>
       <path id="DejaVuSans-42" d="M 1259 2228 
L 1259 519 
L 2272 519 
Q 2781 519 3026 730 
Q 3272 941 3272 1375 
Q 3272 1813 3026 2020 
Q 2781 2228 2272 2228 
L 1259 2228 
z
M 1259 4147 
L 1259 2741 
L 2194 2741 
Q 2656 2741 2882 2914 
Q 3109 3088 3109 3444 
Q 3109 3797 2882 3972 
Q 2656 4147 2194 4147 
L 1259 4147 
z
M 628 4666 
L 2241 4666 
Q 2963 4666 3353 4366 
Q 3744 4066 3744 3513 
Q 3744 3084 3544 2831 
Q 3344 2578 2956 2516 
Q 3422 2416 3680 2098 
Q 3938 1781 3938 1306 
Q 3938 681 3513 340 
Q 3088 0 2303 0 
L 628 0 
L 628 4666 
z
" transform="scale(0.015625)"/>
      </defs>
      <use xlink:href="#DejaVuSans-4d"/>
      <use xlink:href="#DejaVuSans-65" x="86.279297"/>
      <use xlink:href="#DejaVuSans-6d" x="147.802734"/>
      <use xlink:href="#DejaVuSans-6f" x="245.214844"/>
      <use xlink:href="#DejaVuSans-72" x="306.396484"/>
      <use xlink:href="#DejaVuSans-79" x="347.509766"/>
      <use xlink:href="#DejaVuSans-20" x="406.689453"/>
      <use xlink:href="#DejaVuSans-55" x="438.476562"/>
      <use xlink:href="#DejaVuSans-73" x="511.669922"/>
      <use xlink:href="#DejaVuSans-61" x="563.769531"/>
      <use xlink:href="#DejaVuSans-67" x="625.048828"/>
      <use xlink:href="#DejaVuSans-65" x="688.525391"/>
      <use xlink:href="#DejaVuSans-20" x="750.048828"/>
      <use xlink:href="#DejaVuSans-28" x="781.835938"/>
      <use xlink:href="#DejaVuSans-4d" x="820.849609"/>
      <use xlink:href="#DejaVuSans-42" x="907.128906"/>
      <use xlink:href="#DejaVuSans-29" x="975.732422"/>
     </g>
    </g>
   </g>
   <g id="line2d_33">
    <path d="M 89.499034 507.799943 
L 100.727855 507.799943 
L 111.942251 507.799943 
L 123.156553 507.799943 
L 134.387816 507.799943 
L 145.601892 507.799943 
L 151.218324 507.799943 
L 156.829925 507.799943 
L 162.442287 507.799943 
L 168.059694 507.799943 
L 173.675125 507.799943 
L 179.297775 507.799943 
L 184.909564 507.799943 
L 190.52266 507.799943 
L 196.135395 507.799943 
L 201.747531 506.594194 
L 207.38151 503.359454 
L 212.993165 504.251672 
L 218.608489 504.470248 
L 224.250715 503.957849 
L 229.865279 504.137905 
L 235.479496 505.591792 
L 241.170161 505.697496 
L 246.864256 505.219138 
L 252.47914 502.762849 
L 258.09688 504.635075 
L 263.711537 505.4619 
L 269.330558 505.503107 
L 274.946122 503.589675 
L 280.60703 505.052519 
L 286.242144 506.410555 
L 291.858549 504.515038 
L 297.494557 506.438324 
L 303.107907 505.576563 
L 308.721563 504.440686 
L 314.336888 504.421874 
L 319.951251 505.59 
L 325.587419 505.053415 
L 331.202277 503.452617 
L 336.816814 505.523711 
L 342.433406 504.952189 
L 348.047049 504.8859 
L 353.660652 505.315885 
L 359.275336 504.290192 
L 364.892435 505.322155 
L 370.506559 505.203909 
L 376.121029 503.798396 
L 381.736674 504.289296 
L 387.383677 505.179723 
L 392.998468 504.832152 
L 398.661644 504.665533 
L 404.297719 506.074629 
L 409.932192 504.835735 
L 415.546542 505.291698 
L 421.160906 505.652706 
L 426.847795 504.678074 
L 432.470779 506.148085 
L 438.104998 504.6297 
L 443.718948 504.706739 
L 449.333699 505.610604 
L 454.94841 504.86888 
L 460.575771 504.169258 
L 466.18936 504.414708 
L 471.803964 505.315885 
L 477.419315 505.736912 
L 483.033933 505.968924 
L 488.650125 505.408152 
L 494.264889 504.856338 
L 499.905567 500.422119 
L 505.584969 505.778118 
L 511.200227 506.151668 
L 516.820235 504.503392 
L 522.435693 504.807069 
L 528.059625 505.701079 
L 533.676711 503.610278 
L 539.288005 505.314093 
L 544.901475 504.923524 
L 550.532599 505.373216 
L 556.149404 505.060581 
L 561.761073 505.795139 
L 567.399269 504.604618 
L 573.023654 505.32753 
L 578.665013 504.399479 
L 584.281058 505.399194 
L 589.918213 504.051013 
L 595.532697 506.094336 
L 601.144979 505.140308 
L 606.760904 505.739599 
L 612.375174 504.926211 
L 617.990125 503.659547 
L 623.604702 504.745259 
L 629.247849 505.32753 
L 634.894599 505.220034 
L 640.554025 504.106552 
L 646.169403 505.10358 
L 651.784941 505.797826 
L 657.421189 505.004146 
L 663.055836 505.035499 
L 668.675577 505.256762 
L 674.290969 506.57359 
L 679.905546 504.583119 
L 685.520403 505.456526 
L 691.139037 505.306927 
L 696.753588 505.331113 
L 702.369806 504.514142 
L 707.985678 504.67897 
L 713.601176 504.509663 
L 719.21251 504.378876 
L 724.8265 506.068358 
L 730.442946 504.412021 
L 736.102879 505.013104 
L 741.720219 504.238235 
L 747.400849 505.139412 
L 753.033668 504.775716 
L 758.648472 506.279767 
L 764.262662 506.279767 
L 769.890476 506.279767 
L 775.5131 506.279767 
L 781.152084 506.279767 
L 786.778217 506.279767 
L 792.408113 506.279767 
L 798.03953 506.279767 
L 803.666277 506.279767 
L 809.290836 506.279767 
" clip-path="url(#p541b24acfe)" style="fill: none; stroke: #2ca02c; stroke-width: 2; stroke-linecap: square"/>
    <defs>
     <path id="mcef0d1713b" d="M 0 2 
C 0.530406 2 1.03916 1.789267 1.414214 1.414214 
C 1.789267 1.03916 2 0.530406 2 0 
C 2 -0.530406 1.789267 -1.03916 1.414214 -1.414214 
C 1.03916 -1.789267 0.530406 -2 0 -2 
C -0.530406 -2 -1.03916 -1.789267 -1.414214 -1.414214 
C -1.789267 -1.03916 -2 -0.530406 -2 0 
C -2 0.530406 -1.789267 1.03916 -1.414214 1.414214 
C -1.03916 1.789267 -0.530406 2 0 2 
z
" style="stroke: #2ca02c"/>
    </defs>
    <g clip-path="url(#p541b24acfe)">
     <use xlink:href="#mcef0d1713b" x="89.499034" y="507.799943" style="fill: #2ca02c; stroke: #2ca02c"/>
     <use xlink:href="#mcef0d1713b" x="100.727855" y="507.799943" style="fill: #2ca02c; stroke: #2ca02c"/>
     <use xlink:href="#mcef0d1713b" x="111.942251" y="507.799943" style="fill: #2ca02c; stroke: #2ca02c"/>
     <use xlink:href="#mcef0d1713b" x="123.156553" y="507.799943" style="fill: #2ca02c; stroke: #2ca02c"/>
     <use xlink:href="#mcef0d1713b" x="134.387816" y="507.799943" style="fill: #2ca02c; stroke: #2ca02c"/>
     <use xlink:href="#mcef0d1713b" x="145.601892" y="507.799943" style="fill: #2ca02c; stroke: #2ca02c"/>
     <use xlink:href="#mcef0d1713b" x="151.218324" y="507.799943" style="fill: #2ca02c; stroke: #2ca02c"/>
     <use xlink:href="#mcef0d1713b" x="156.829925" y="507.799943" style="fill: #2ca02c; stroke: #2ca02c"/>
     <use xlink:href="#mcef0d1713b" x="162.442287" y="507.799943" style="fill: #2ca02c; stroke: #2ca02c"/>
     <use xlink:href="#mcef0d1713b" x="168.059694" y="507.799943" style="fill: #2ca02c; stroke: #2ca02c"/>
     <use xlink:href="#mcef0d1713b" x="173.675125" y="507.799943" style="fill: #2ca02c; stroke: #2ca02c"/>
     <use xlink:href="#mcef0d1713b" x="179.297775" y="507.799943" style="fill: #2ca02c; stroke: #2ca02c"/>
     <use xlink:href="#mcef0d1713b" x="184.909564" y="507.799943" style="fill: #2ca02c; stroke: #2ca02c"/>
     <use xlink:href="#mcef0d1713b" x="190.52266" y="507.799943" style="fill: #2ca02c; stroke: #2ca02c"/>
     <use xlink:href="#mcef0d1713b" x="196.135395" y="507.799943" style="fill: #2ca02c; stroke: #2ca02c"/>
     <use xlink:href="#mcef0d1713b" x="201.747531" y="506.594194" style="fill: #2ca02c; stroke: #2ca02c"/>
     <use xlink:href="#mcef0d1713b" x="207.38151" y="503.359454" style="fill: #2ca02c; stroke: #2ca02c"/>
     <use xlink:href="#mcef0d1713b" x="212.993165" y="504.251672" style="fill: #2ca02c; stroke: #2ca02c"/>
     <use xlink:href="#mcef0d1713b" x="218.608489" y="504.470248" style="fill: #2ca02c; stroke: #2ca02c"/>
     <use xlink:href="#mcef0d1713b" x="224.250715" y="503.957849" style="fill: #2ca02c; stroke: #2ca02c"/>
     <use xlink:href="#mcef0d1713b" x="229.865279" y="504.137905" style="fill: #2ca02c; stroke: #2ca02c"/>
     <use xlink:href="#mcef0d1713b" x="235.479496" y="505.591792" style="fill: #2ca02c; stroke: #2ca02c"/>
     <use xlink:href="#mcef0d1713b" x="241.170161" y="505.697496" style="fill: #2ca02c; stroke: #2ca02c"/>
     <use xlink:href="#mcef0d1713b" x="246.864256" y="505.219138" style="fill: #2ca02c; stroke: #2ca02c"/>
     <use xlink:href="#mcef0d1713b" x="252.47914" y="502.762849" style="fill: #2ca02c; stroke: #2ca02c"/>
     <use xlink:href="#mcef0d1713b" x="258.09688" y="504.635075" style="fill: #2ca02c; stroke: #2ca02c"/>
     <use xlink:href="#mcef0d1713b" x="263.711537" y="505.4619" style="fill: #2ca02c; stroke: #2ca02c"/>
     <use xlink:href="#mcef0d1713b" x="269.330558" y="505.503107" style="fill: #2ca02c; stroke: #2ca02c"/>
     <use xlink:href="#mcef0d1713b" x="274.946122" y="503.589675" style="fill: #2ca02c; stroke: #2ca02c"/>
     <use xlink:href="#mcef0d1713b" x="280.60703" y="505.052519" style="fill: #2ca02c; stroke: #2ca02c"/>
     <use xlink:href="#mcef0d1713b" x="286.242144" y="506.410555" style="fill: #2ca02c; stroke: #2ca02c"/>
     <use xlink:href="#mcef0d1713b" x="291.858549" y="504.515038" style="fill: #2ca02c; stroke: #2ca02c"/>
     <use xlink:href="#mcef0d1713b" x="297.494557" y="506.438324" style="fill: #2ca02c; stroke: #2ca02c"/>
     <use xlink:href="#mcef0d1713b" x="303.107907" y="505.576563" style="fill: #2ca02c; stroke: #2ca02c"/>
     <use xlink:href="#mcef0d1713b" x="308.721563" y="504.440686" style="fill: #2ca02c; stroke: #2ca02c"/>
     <use xlink:href="#mcef0d1713b" x="314.336888" y="504.421874" style="fill: #2ca02c; stroke: #2ca02c"/>
     <use xlink:href="#mcef0d1713b" x="319.951251" y="505.59" style="fill: #2ca02c; stroke: #2ca02c"/>
     <use xlink:href="#mcef0d1713b" x="325.587419" y="505.053415" style="fill: #2ca02c; stroke: #2ca02c"/>
     <use xlink:href="#mcef0d1713b" x="331.202277" y="503.452617" style="fill: #2ca02c; stroke: #2ca02c"/>
     <use xlink:href="#mcef0d1713b" x="336.816814" y="505.523711" style="fill: #2ca02c; stroke: #2ca02c"/>
     <use xlink:href="#mcef0d1713b" x="342.433406" y="504.952189" style="fill: #2ca02c; stroke: #2ca02c"/>
     <use xlink:href="#mcef0d1713b" x="348.047049" y="504.8859" style="fill: #2ca02c; stroke: #2ca02c"/>
     <use xlink:href="#mcef0d1713b" x="353.660652" y="505.315885" style="fill: #2ca02c; stroke: #2ca02c"/>
     <use xlink:href="#mcef0d1713b" x="359.275336" y="504.290192" style="fill: #2ca02c; stroke: #2ca02c"/>
     <use xlink:href="#mcef0d1713b" x="364.892435" y="505.322155" style="fill: #2ca02c; stroke: #2ca02c"/>
     <use xlink:href="#mcef0d1713b" x="370.506559" y="505.203909" style="fill: #2ca02c; stroke: #2ca02c"/>
     <use xlink:href="#mcef0d1713b" x="376.121029" y="503.798396" style="fill: #2ca02c; stroke: #2ca02c"/>
     <use xlink:href="#mcef0d1713b" x="381.736674" y="504.289296" style="fill: #2ca02c; stroke: #2ca02c"/>
     <use xlink:href="#mcef0d1713b" x="387.383677" y="505.179723" style="fill: #2ca02c; stroke: #2ca02c"/>
     <use xlink:href="#mcef0d1713b" x="392.998468" y="504.832152" style="fill: #2ca02c; stroke: #2ca02c"/>
     <use xlink:href="#mcef0d1713b" x="398.661644" y="504.665533" style="fill: #2ca02c; stroke: #2ca02c"/>
     <use xlink:href="#mcef0d1713b" x="404.297719" y="506.074629" style="fill: #2ca02c; stroke: #2ca02c"/>
     <use xlink:href="#mcef0d1713b" x="409.932192" y="504.835735" style="fill: #2ca02c; stroke: #2ca02c"/>
     <use xlink:href="#mcef0d1713b" x="415.546542" y="505.291698" style="fill: #2ca02c; stroke: #2ca02c"/>
     <use xlink:href="#mcef0d1713b" x="421.160906" y="505.652706" style="fill: #2ca02c; stroke: #2ca02c"/>
     <use xlink:href="#mcef0d1713b" x="426.847795" y="504.678074" style="fill: #2ca02c; stroke: #2ca02c"/>
     <use xlink:href="#mcef0d1713b" x="432.470779" y="506.148085" style="fill: #2ca02c; stroke: #2ca02c"/>
     <use xlink:href="#mcef0d1713b" x="438.104998" y="504.6297" style="fill: #2ca02c; stroke: #2ca02c"/>
     <use xlink:href="#mcef0d1713b" x="443.718948" y="504.706739" style="fill: #2ca02c; stroke: #2ca02c"/>
     <use xlink:href="#mcef0d1713b" x="449.333699" y="505.610604" style="fill: #2ca02c; stroke: #2ca02c"/>
     <use xlink:href="#mcef0d1713b" x="454.94841" y="504.86888" style="fill: #2ca02c; stroke: #2ca02c"/>
     <use xlink:href="#mcef0d1713b" x="460.575771" y="504.169258" style="fill: #2ca02c; stroke: #2ca02c"/>
     <use xlink:href="#mcef0d1713b" x="466.18936" y="504.414708" style="fill: #2ca02c; stroke: #2ca02c"/>
     <use xlink:href="#mcef0d1713b" x="471.803964" y="505.315885" style="fill: #2ca02c; stroke: #2ca02c"/>
     <use xlink:href="#mcef0d1713b" x="477.419315" y="505.736912" style="fill: #2ca02c; stroke: #2ca02c"/>
     <use xlink:href="#mcef0d1713b" x="483.033933" y="505.968924" style="fill: #2ca02c; stroke: #2ca02c"/>
     <use xlink:href="#mcef0d1713b" x="488.650125" y="505.408152" style="fill: #2ca02c; stroke: #2ca02c"/>
     <use xlink:href="#mcef0d1713b" x="494.264889" y="504.856338" style="fill: #2ca02c; stroke: #2ca02c"/>
     <use xlink:href="#mcef0d1713b" x="499.905567" y="500.422119" style="fill: #2ca02c; stroke: #2ca02c"/>
     <use xlink:href="#mcef0d1713b" x="505.584969" y="505.778118" style="fill: #2ca02c; stroke: #2ca02c"/>
     <use xlink:href="#mcef0d1713b" x="511.200227" y="506.151668" style="fill: #2ca02c; stroke: #2ca02c"/>
     <use xlink:href="#mcef0d1713b" x="516.820235" y="504.503392" style="fill: #2ca02c; stroke: #2ca02c"/>
     <use xlink:href="#mcef0d1713b" x="522.435693" y="504.807069" style="fill: #2ca02c; stroke: #2ca02c"/>
     <use xlink:href="#mcef0d1713b" x="528.059625" y="505.701079" style="fill: #2ca02c; stroke: #2ca02c"/>
     <use xlink:href="#mcef0d1713b" x="533.676711" y="503.610278" style="fill: #2ca02c; stroke: #2ca02c"/>
     <use xlink:href="#mcef0d1713b" x="539.288005" y="505.314093" style="fill: #2ca02c; stroke: #2ca02c"/>
     <use xlink:href="#mcef0d1713b" x="544.901475" y="504.923524" style="fill: #2ca02c; stroke: #2ca02c"/>
     <use xlink:href="#mcef0d1713b" x="550.532599" y="505.373216" style="fill: #2ca02c; stroke: #2ca02c"/>
     <use xlink:href="#mcef0d1713b" x="556.149404" y="505.060581" style="fill: #2ca02c; stroke: #2ca02c"/>
     <use xlink:href="#mcef0d1713b" x="561.761073" y="505.795139" style="fill: #2ca02c; stroke: #2ca02c"/>
     <use xlink:href="#mcef0d1713b" x="567.399269" y="504.604618" style="fill: #2ca02c; stroke: #2ca02c"/>
     <use xlink:href="#mcef0d1713b" x="573.023654" y="505.32753" style="fill: #2ca02c; stroke: #2ca02c"/>
     <use xlink:href="#mcef0d1713b" x="578.665013" y="504.399479" style="fill: #2ca02c; stroke: #2ca02c"/>
     <use xlink:href="#mcef0d1713b" x="584.281058" y="505.399194" style="fill: #2ca02c; stroke: #2ca02c"/>
     <use xlink:href="#mcef0d1713b" x="589.918213" y="504.051013" style="fill: #2ca02c; stroke: #2ca02c"/>
     <use xlink:href="#mcef0d1713b" x="595.532697" y="506.094336" style="fill: #2ca02c; stroke: #2ca02c"/>
     <use xlink:href="#mcef0d1713b" x="601.144979" y="505.140308" style="fill: #2ca02c; stroke: #2ca02c"/>
     <use xlink:href="#mcef0d1713b" x="606.760904" y="505.739599" style="fill: #2ca02c; stroke: #2ca02c"/>
     <use xlink:href="#mcef0d1713b" x="612.375174" y="504.926211" style="fill: #2ca02c; stroke: #2ca02c"/>
     <use xlink:href="#mcef0d1713b" x="617.990125" y="503.659547" style="fill: #2ca02c; stroke: #2ca02c"/>
     <use xlink:href="#mcef0d1713b" x="623.604702" y="504.745259" style="fill: #2ca02c; stroke: #2ca02c"/>
     <use xlink:href="#mcef0d1713b" x="629.247849" y="505.32753" style="fill: #2ca02c; stroke: #2ca02c"/>
     <use xlink:href="#mcef0d1713b" x="634.894599" y="505.220034" style="fill: #2ca02c; stroke: #2ca02c"/>
     <use xlink:href="#mcef0d1713b" x="640.554025" y="504.106552" style="fill: #2ca02c; stroke: #2ca02c"/>
     <use xlink:href="#mcef0d1713b" x="646.169403" y="505.10358" style="fill: #2ca02c; stroke: #2ca02c"/>
     <use xlink:href="#mcef0d1713b" x="651.784941" y="505.797826" style="fill: #2ca02c; stroke: #2ca02c"/>
     <use xlink:href="#mcef0d1713b" x="657.421189" y="505.004146" style="fill: #2ca02c; stroke: #2ca02c"/>
     <use xlink:href="#mcef0d1713b" x="663.055836" y="505.035499" style="fill: #2ca02c; stroke: #2ca02c"/>
     <use xlink:href="#mcef0d1713b" x="668.675577" y="505.256762" style="fill: #2ca02c; stroke: #2ca02c"/>
     <use xlink:href="#mcef0d1713b" x="674.290969" y="506.57359" style="fill: #2ca02c; stroke: #2ca02c"/>
     <use xlink:href="#mcef0d1713b" x="679.905546" y="504.583119" style="fill: #2ca02c; stroke: #2ca02c"/>
     <use xlink:href="#mcef0d1713b" x="685.520403" y="505.456526" style="fill: #2ca02c; stroke: #2ca02c"/>
     <use xlink:href="#mcef0d1713b" x="691.139037" y="505.306927" style="fill: #2ca02c; stroke: #2ca02c"/>
     <use xlink:href="#mcef0d1713b" x="696.753588" y="505.331113" style="fill: #2ca02c; stroke: #2ca02c"/>
     <use xlink:href="#mcef0d1713b" x="702.369806" y="504.514142" style="fill: #2ca02c; stroke: #2ca02c"/>
     <use xlink:href="#mcef0d1713b" x="707.985678" y="504.67897" style="fill: #2ca02c; stroke: #2ca02c"/>
     <use xlink:href="#mcef0d1713b" x="713.601176" y="504.509663" style="fill: #2ca02c; stroke: #2ca02c"/>
     <use xlink:href="#mcef0d1713b" x="719.21251" y="504.378876" style="fill: #2ca02c; stroke: #2ca02c"/>
     <use xlink:href="#mcef0d1713b" x="724.8265" y="506.068358" style="fill: #2ca02c; stroke: #2ca02c"/>
     <use xlink:href="#mcef0d1713b" x="730.442946" y="504.412021" style="fill: #2ca02c; stroke: #2ca02c"/>
     <use xlink:href="#mcef0d1713b" x="736.102879" y="505.013104" style="fill: #2ca02c; stroke: #2ca02c"/>
     <use xlink:href="#mcef0d1713b" x="741.720219" y="504.238235" style="fill: #2ca02c; stroke: #2ca02c"/>
     <use xlink:href="#mcef0d1713b" x="747.400849" y="505.139412" style="fill: #2ca02c; stroke: #2ca02c"/>
     <use xlink:href="#mcef0d1713b" x="753.033668" y="504.775716" style="fill: #2ca02c; stroke: #2ca02c"/>
     <use xlink:href="#mcef0d1713b" x="758.648472" y="506.279767" style="fill: #2ca02c; stroke: #2ca02c"/>
     <use xlink:href="#mcef0d1713b" x="764.262662" y="506.279767" style="fill: #2ca02c; stroke: #2ca02c"/>
     <use xlink:href="#mcef0d1713b" x="769.890476" y="506.279767" style="fill: #2ca02c; stroke: #2ca02c"/>
     <use xlink:href="#mcef0d1713b" x="775.5131" y="506.279767" style="fill: #2ca02c; stroke: #2ca02c"/>
     <use xlink:href="#mcef0d1713b" x="781.152084" y="506.279767" style="fill: #2ca02c; stroke: #2ca02c"/>
     <use xlink:href="#mcef0d1713b" x="786.778217" y="506.279767" style="fill: #2ca02c; stroke: #2ca02c"/>
     <use xlink:href="#mcef0d1713b" x="792.408113" y="506.279767" style="fill: #2ca02c; stroke: #2ca02c"/>
     <use xlink:href="#mcef0d1713b" x="798.03953" y="506.279767" style="fill: #2ca02c; stroke: #2ca02c"/>
     <use xlink:href="#mcef0d1713b" x="803.666277" y="506.279767" style="fill: #2ca02c; stroke: #2ca02c"/>
     <use xlink:href="#mcef0d1713b" x="809.290836" y="506.279767" style="fill: #2ca02c; stroke: #2ca02c"/>
    </g>
   </g>
   <g id="line2d_34">
    <path d="M 95.525329 262.446092 
L 106.988831 262.446092 
L 118.259659 262.446092 
L 129.621254 262.446092 
L 140.985023 262.446092 
L 152.336502 262.446092 
L 158.0682 262.446092 
L 163.819314 262.360991 
L 169.57 262.360991 
L 175.36244 262.27589 
L 181.108323 262.27589 
L 186.853725 262.27589 
L 192.59367 262.27589 
L 198.332467 262.27589 
L 204.075881 254.06497 
L 209.761942 247.189691 
L 215.454142 237.894851 
L 221.154922 225.140425 
L 226.926438 213.556811 
L 232.634998 207.30501 
L 238.329252 201.424071 
L 244.04794 196.254399 
L 249.752416 189.350454 
L 255.480725 176.311163 
L 261.19306 160.201063 
L 266.941225 146.576813 
L 272.695354 132.054969 
L 278.566951 126.840507 
L 284.281836 125.516512 
L 289.973969 125.480679 
L 295.843564 125.115192 
L 301.580239 124.862576 
L 307.268796 123.647869 
L 312.96237 124.120852 
L 318.691693 123.562768 
L 324.371549 122.872105 
L 330.059785 121.382386 
L 335.916611 119.322042 
L 341.623128 117.255427 
L 347.339881 115.134168 
L 353.216722 107.673035 
L 358.976776 104.776012 
L 364.888766 97.324732 
L 370.563832 93.397537 
L 376.245636 85.791284 
L 382.07129 79.803744 
L 387.751573 73.840391 
L 393.44855 69.882739 
L 399.381503 65.052575 
L 405.248443 64.355642 
L 411.006669 63.067478 
L 416.753752 62.568517 
L 422.437532 61.661965 
L 428.11524 61.909207 
L 433.827962 61.463993 
L 439.519428 61.295582 
L 445.208599 61.034008 
L 451.00292 61.015196 
L 456.746588 60.677479 
L 462.53704 60.255557 
L 468.297507 60.137311 
L 474.051316 59.311381 
L 479.761677 57.48305 
L 485.625682 55.298189 
L 491.352682 53.234262 
L 497.031525 50.578209 
L 502.726553 49.694949 
L 508.415243 48.910226 
L 514.326085 48.851103 
L 520.048736 48.851103 
L 525.786145 48.851103 
L 531.533029 48.79198 
L 537.497941 48.732858 
L 543.233615 48.318997 
L 549.021852 48.312726 
L 554.741593 47.781516 
L 560.428242 47.545024 
L 566.156284 47.485901 
L 571.907597 47.426778 
L 577.668078 47.190287 
L 583.401311 46.835549 
L 589.12559 46.814946 
L 595.143731 46.447667 
L 600.870478 46.30613 
L 606.573313 46.229091 
L 612.264632 46.255965 
L 617.955924 46.285527 
L 623.724692 46.204009 
L 629.58101 46.144886 
L 635.311761 46.144886 
L 641.02826 46.02664 
L 646.74161 46.02664 
L 652.443497 46.02664 
L 658.117308 45.967517 
L 663.909375 45.967517 
L 669.694769 45.849271 
L 675.404903 45.849271 
L 681.08955 45.790149 
L 686.872943 45.61278 
L 692.666758 45.49543 
L 698.463855 45.436307 
L 704.180754 45.436307 
L 709.875863 45.436307 
L 715.574975 45.436307 
L 721.271658 45.436307 
L 727.064245 45.436307 
L 732.83005 45.436307 
L 738.673264 45.436307 
L 744.392299 45.542011 
L 750.080722 45.542011 
L 755.86661 45.707735 
L 761.734337 45.707735 
L 767.404346 45.707735 
L 773.181841 45.707735 
L 778.917849 45.707735 
L 784.577555 45.707735 
L 790.282899 45.707735 
L 795.940444 45.707735 
L 801.604755 45.707735 
L 807.261979 45.707735 
L 812.917216 45.707735 
" clip-path="url(#p541b24acfe)" style="fill: none; stroke: #1f77b4; stroke-width: 2; stroke-linecap: square"/>
    <defs>
     <path id="mc052743e45" d="M 0 2 
C 0.530406 2 1.03916 1.789267 1.414214 1.414214 
C 1.789267 1.03916 2 0.530406 2 0 
C 2 -0.530406 1.789267 -1.03916 1.414214 -1.414214 
C 1.03916 -1.789267 0.530406 -2 0 -2 
C -0.530406 -2 -1.03916 -1.789267 -1.414214 -1.414214 
C -1.789267 -1.03916 -2 -0.530406 -2 0 
C -2 0.530406 -1.789267 1.03916 -1.414214 1.414214 
C -1.03916 1.789267 -0.530406 2 0 2 
z
" style="stroke: #1f77b4"/>
    </defs>
    <g clip-path="url(#p541b24acfe)">
     <use xlink:href="#mc052743e45" x="95.525329" y="262.446092" style="fill: #1f77b4; stroke: #1f77b4"/>
     <use xlink:href="#mc052743e45" x="106.988831" y="262.446092" style="fill: #1f77b4; stroke: #1f77b4"/>
     <use xlink:href="#mc052743e45" x="118.259659" y="262.446092" style="fill: #1f77b4; stroke: #1f77b4"/>
     <use xlink:href="#mc052743e45" x="129.621254" y="262.446092" style="fill: #1f77b4; stroke: #1f77b4"/>
     <use xlink:href="#mc052743e45" x="140.985023" y="262.446092" style="fill: #1f77b4; stroke: #1f77b4"/>
     <use xlink:href="#mc052743e45" x="152.336502" y="262.446092" style="fill: #1f77b4; stroke: #1f77b4"/>
     <use xlink:href="#mc052743e45" x="158.0682" y="262.446092" style="fill: #1f77b4; stroke: #1f77b4"/>
     <use xlink:href="#mc052743e45" x="163.819314" y="262.360991" style="fill: #1f77b4; stroke: #1f77b4"/>
     <use xlink:href="#mc052743e45" x="169.57" y="262.360991" style="fill: #1f77b4; stroke: #1f77b4"/>
     <use xlink:href="#mc052743e45" x="175.36244" y="262.27589" style="fill: #1f77b4; stroke: #1f77b4"/>
     <use xlink:href="#mc052743e45" x="181.108323" y="262.27589" style="fill: #1f77b4; stroke: #1f77b4"/>
     <use xlink:href="#mc052743e45" x="186.853725" y="262.27589" style="fill: #1f77b4; stroke: #1f77b4"/>
     <use xlink:href="#mc052743e45" x="192.59367" y="262.27589" style="fill: #1f77b4; stroke: #1f77b4"/>
     <use xlink:href="#mc052743e45" x="198.332467" y="262.27589" style="fill: #1f77b4; stroke: #1f77b4"/>
     <use xlink:href="#mc052743e45" x="204.075881" y="254.06497" style="fill: #1f77b4; stroke: #1f77b4"/>
     <use xlink:href="#mc052743e45" x="209.761942" y="247.189691" style="fill: #1f77b4; stroke: #1f77b4"/>
     <use xlink:href="#mc052743e45" x="215.454142" y="237.894851" style="fill: #1f77b4; stroke: #1f77b4"/>
     <use xlink:href="#mc052743e45" x="221.154922" y="225.140425" style="fill: #1f77b4; stroke: #1f77b4"/>
     <use xlink:href="#mc052743e45" x="226.926438" y="213.556811" style="fill: #1f77b4; stroke: #1f77b4"/>
     <use xlink:href="#mc052743e45" x="232.634998" y="207.30501" style="fill: #1f77b4; stroke: #1f77b4"/>
     <use xlink:href="#mc052743e45" x="238.329252" y="201.424071" style="fill: #1f77b4; stroke: #1f77b4"/>
     <use xlink:href="#mc052743e45" x="244.04794" y="196.254399" style="fill: #1f77b4; stroke: #1f77b4"/>
     <use xlink:href="#mc052743e45" x="249.752416" y="189.350454" style="fill: #1f77b4; stroke: #1f77b4"/>
     <use xlink:href="#mc052743e45" x="255.480725" y="176.311163" style="fill: #1f77b4; stroke: #1f77b4"/>
     <use xlink:href="#mc052743e45" x="261.19306" y="160.201063" style="fill: #1f77b4; stroke: #1f77b4"/>
     <use xlink:href="#mc052743e45" x="266.941225" y="146.576813" style="fill: #1f77b4; stroke: #1f77b4"/>
     <use xlink:href="#mc052743e45" x="272.695354" y="132.054969" style="fill: #1f77b4; stroke: #1f77b4"/>
     <use xlink:href="#mc052743e45" x="278.566951" y="126.840507" style="fill: #1f77b4; stroke: #1f77b4"/>
     <use xlink:href="#mc052743e45" x="284.281836" y="125.516512" style="fill: #1f77b4; stroke: #1f77b4"/>
     <use xlink:href="#mc052743e45" x="289.973969" y="125.480679" style="fill: #1f77b4; stroke: #1f77b4"/>
     <use xlink:href="#mc052743e45" x="295.843564" y="125.115192" style="fill: #1f77b4; stroke: #1f77b4"/>
     <use xlink:href="#mc052743e45" x="301.580239" y="124.862576" style="fill: #1f77b4; stroke: #1f77b4"/>
     <use xlink:href="#mc052743e45" x="307.268796" y="123.647869" style="fill: #1f77b4; stroke: #1f77b4"/>
     <use xlink:href="#mc052743e45" x="312.96237" y="124.120852" style="fill: #1f77b4; stroke: #1f77b4"/>
     <use xlink:href="#mc052743e45" x="318.691693" y="123.562768" style="fill: #1f77b4; stroke: #1f77b4"/>
     <use xlink:href="#mc052743e45" x="324.371549" y="122.872105" style="fill: #1f77b4; stroke: #1f77b4"/>
     <use xlink:href="#mc052743e45" x="330.059785" y="121.382386" style="fill: #1f77b4; stroke: #1f77b4"/>
     <use xlink:href="#mc052743e45" x="335.916611" y="119.322042" style="fill: #1f77b4; stroke: #1f77b4"/>
     <use xlink:href="#mc052743e45" x="341.623128" y="117.255427" style="fill: #1f77b4; stroke: #1f77b4"/>
     <use xlink:href="#mc052743e45" x="347.339881" y="115.134168" style="fill: #1f77b4; stroke: #1f77b4"/>
     <use xlink:href="#mc052743e45" x="353.216722" y="107.673035" style="fill: #1f77b4; stroke: #1f77b4"/>
     <use xlink:href="#mc052743e45" x="358.976776" y="104.776012" style="fill: #1f77b4; stroke: #1f77b4"/>
     <use xlink:href="#mc052743e45" x="364.888766" y="97.324732" style="fill: #1f77b4; stroke: #1f77b4"/>
     <use xlink:href="#mc052743e45" x="370.563832" y="93.397537" style="fill: #1f77b4; stroke: #1f77b4"/>
     <use xlink:href="#mc052743e45" x="376.245636" y="85.791284" style="fill: #1f77b4; stroke: #1f77b4"/>
     <use xlink:href="#mc052743e45" x="382.07129" y="79.803744" style="fill: #1f77b4; stroke: #1f77b4"/>
     <use xlink:href="#mc052743e45" x="387.751573" y="73.840391" style="fill: #1f77b4; stroke: #1f77b4"/>
     <use xlink:href="#mc052743e45" x="393.44855" y="69.882739" style="fill: #1f77b4; stroke: #1f77b4"/>
     <use xlink:href="#mc052743e45" x="399.381503" y="65.052575" style="fill: #1f77b4; stroke: #1f77b4"/>
     <use xlink:href="#mc052743e45" x="405.248443" y="64.355642" style="fill: #1f77b4; stroke: #1f77b4"/>
     <use xlink:href="#mc052743e45" x="411.006669" y="63.067478" style="fill: #1f77b4; stroke: #1f77b4"/>
     <use xlink:href="#mc052743e45" x="416.753752" y="62.568517" style="fill: #1f77b4; stroke: #1f77b4"/>
     <use xlink:href="#mc052743e45" x="422.437532" y="61.661965" style="fill: #1f77b4; stroke: #1f77b4"/>
     <use xlink:href="#mc052743e45" x="428.11524" y="61.909207" style="fill: #1f77b4; stroke: #1f77b4"/>
     <use xlink:href="#mc052743e45" x="433.827962" y="61.463993" style="fill: #1f77b4; stroke: #1f77b4"/>
     <use xlink:href="#mc052743e45" x="439.519428" y="61.295582" style="fill: #1f77b4; stroke: #1f77b4"/>
     <use xlink:href="#mc052743e45" x="445.208599" y="61.034008" style="fill: #1f77b4; stroke: #1f77b4"/>
     <use xlink:href="#mc052743e45" x="451.00292" y="61.015196" style="fill: #1f77b4; stroke: #1f77b4"/>
     <use xlink:href="#mc052743e45" x="456.746588" y="60.677479" style="fill: #1f77b4; stroke: #1f77b4"/>
     <use xlink:href="#mc052743e45" x="462.53704" y="60.255557" style="fill: #1f77b4; stroke: #1f77b4"/>
     <use xlink:href="#mc052743e45" x="468.297507" y="60.137311" style="fill: #1f77b4; stroke: #1f77b4"/>
     <use xlink:href="#mc052743e45" x="474.051316" y="59.311381" style="fill: #1f77b4; stroke: #1f77b4"/>
     <use xlink:href="#mc052743e45" x="479.761677" y="57.48305" style="fill: #1f77b4; stroke: #1f77b4"/>
     <use xlink:href="#mc052743e45" x="485.625682" y="55.298189" style="fill: #1f77b4; stroke: #1f77b4"/>
     <use xlink:href="#mc052743e45" x="491.352682" y="53.234262" style="fill: #1f77b4; stroke: #1f77b4"/>
     <use xlink:href="#mc052743e45" x="497.031525" y="50.578209" style="fill: #1f77b4; stroke: #1f77b4"/>
     <use xlink:href="#mc052743e45" x="502.726553" y="49.694949" style="fill: #1f77b4; stroke: #1f77b4"/>
     <use xlink:href="#mc052743e45" x="508.415243" y="48.910226" style="fill: #1f77b4; stroke: #1f77b4"/>
     <use xlink:href="#mc052743e45" x="514.326085" y="48.851103" style="fill: #1f77b4; stroke: #1f77b4"/>
     <use xlink:href="#mc052743e45" x="520.048736" y="48.851103" style="fill: #1f77b4; stroke: #1f77b4"/>
     <use xlink:href="#mc052743e45" x="525.786145" y="48.851103" style="fill: #1f77b4; stroke: #1f77b4"/>
     <use xlink:href="#mc052743e45" x="531.533029" y="48.79198" style="fill: #1f77b4; stroke: #1f77b4"/>
     <use xlink:href="#mc052743e45" x="537.497941" y="48.732858" style="fill: #1f77b4; stroke: #1f77b4"/>
     <use xlink:href="#mc052743e45" x="543.233615" y="48.318997" style="fill: #1f77b4; stroke: #1f77b4"/>
     <use xlink:href="#mc052743e45" x="549.021852" y="48.312726" style="fill: #1f77b4; stroke: #1f77b4"/>
     <use xlink:href="#mc052743e45" x="554.741593" y="47.781516" style="fill: #1f77b4; stroke: #1f77b4"/>
     <use xlink:href="#mc052743e45" x="560.428242" y="47.545024" style="fill: #1f77b4; stroke: #1f77b4"/>
     <use xlink:href="#mc052743e45" x="566.156284" y="47.485901" style="fill: #1f77b4; stroke: #1f77b4"/>
     <use xlink:href="#mc052743e45" x="571.907597" y="47.426778" style="fill: #1f77b4; stroke: #1f77b4"/>
     <use xlink:href="#mc052743e45" x="577.668078" y="47.190287" style="fill: #1f77b4; stroke: #1f77b4"/>
     <use xlink:href="#mc052743e45" x="583.401311" y="46.835549" style="fill: #1f77b4; stroke: #1f77b4"/>
     <use xlink:href="#mc052743e45" x="589.12559" y="46.814946" style="fill: #1f77b4; stroke: #1f77b4"/>
     <use xlink:href="#mc052743e45" x="595.143731" y="46.447667" style="fill: #1f77b4; stroke: #1f77b4"/>
     <use xlink:href="#mc052743e45" x="600.870478" y="46.30613" style="fill: #1f77b4; stroke: #1f77b4"/>
     <use xlink:href="#mc052743e45" x="606.573313" y="46.229091" style="fill: #1f77b4; stroke: #1f77b4"/>
     <use xlink:href="#mc052743e45" x="612.264632" y="46.255965" style="fill: #1f77b4; stroke: #1f77b4"/>
     <use xlink:href="#mc052743e45" x="617.955924" y="46.285527" style="fill: #1f77b4; stroke: #1f77b4"/>
     <use xlink:href="#mc052743e45" x="623.724692" y="46.204009" style="fill: #1f77b4; stroke: #1f77b4"/>
     <use xlink:href="#mc052743e45" x="629.58101" y="46.144886" style="fill: #1f77b4; stroke: #1f77b4"/>
     <use xlink:href="#mc052743e45" x="635.311761" y="46.144886" style="fill: #1f77b4; stroke: #1f77b4"/>
     <use xlink:href="#mc052743e45" x="641.02826" y="46.02664" style="fill: #1f77b4; stroke: #1f77b4"/>
     <use xlink:href="#mc052743e45" x="646.74161" y="46.02664" style="fill: #1f77b4; stroke: #1f77b4"/>
     <use xlink:href="#mc052743e45" x="652.443497" y="46.02664" style="fill: #1f77b4; stroke: #1f77b4"/>
     <use xlink:href="#mc052743e45" x="658.117308" y="45.967517" style="fill: #1f77b4; stroke: #1f77b4"/>
     <use xlink:href="#mc052743e45" x="663.909375" y="45.967517" style="fill: #1f77b4; stroke: #1f77b4"/>
     <use xlink:href="#mc052743e45" x="669.694769" y="45.849271" style="fill: #1f77b4; stroke: #1f77b4"/>
     <use xlink:href="#mc052743e45" x="675.404903" y="45.849271" style="fill: #1f77b4; stroke: #1f77b4"/>
     <use xlink:href="#mc052743e45" x="681.08955" y="45.790149" style="fill: #1f77b4; stroke: #1f77b4"/>
     <use xlink:href="#mc052743e45" x="686.872943" y="45.61278" style="fill: #1f77b4; stroke: #1f77b4"/>
     <use xlink:href="#mc052743e45" x="692.666758" y="45.49543" style="fill: #1f77b4; stroke: #1f77b4"/>
     <use xlink:href="#mc052743e45" x="698.463855" y="45.436307" style="fill: #1f77b4; stroke: #1f77b4"/>
     <use xlink:href="#mc052743e45" x="704.180754" y="45.436307" style="fill: #1f77b4; stroke: #1f77b4"/>
     <use xlink:href="#mc052743e45" x="709.875863" y="45.436307" style="fill: #1f77b4; stroke: #1f77b4"/>
     <use xlink:href="#mc052743e45" x="715.574975" y="45.436307" style="fill: #1f77b4; stroke: #1f77b4"/>
     <use xlink:href="#mc052743e45" x="721.271658" y="45.436307" style="fill: #1f77b4; stroke: #1f77b4"/>
     <use xlink:href="#mc052743e45" x="727.064245" y="45.436307" style="fill: #1f77b4; stroke: #1f77b4"/>
     <use xlink:href="#mc052743e45" x="732.83005" y="45.436307" style="fill: #1f77b4; stroke: #1f77b4"/>
     <use xlink:href="#mc052743e45" x="738.673264" y="45.436307" style="fill: #1f77b4; stroke: #1f77b4"/>
     <use xlink:href="#mc052743e45" x="744.392299" y="45.542011" style="fill: #1f77b4; stroke: #1f77b4"/>
     <use xlink:href="#mc052743e45" x="750.080722" y="45.542011" style="fill: #1f77b4; stroke: #1f77b4"/>
     <use xlink:href="#mc052743e45" x="755.86661" y="45.707735" style="fill: #1f77b4; stroke: #1f77b4"/>
     <use xlink:href="#mc052743e45" x="761.734337" y="45.707735" style="fill: #1f77b4; stroke: #1f77b4"/>
     <use xlink:href="#mc052743e45" x="767.404346" y="45.707735" style="fill: #1f77b4; stroke: #1f77b4"/>
     <use xlink:href="#mc052743e45" x="773.181841" y="45.707735" style="fill: #1f77b4; stroke: #1f77b4"/>
     <use xlink:href="#mc052743e45" x="778.917849" y="45.707735" style="fill: #1f77b4; stroke: #1f77b4"/>
     <use xlink:href="#mc052743e45" x="784.577555" y="45.707735" style="fill: #1f77b4; stroke: #1f77b4"/>
     <use xlink:href="#mc052743e45" x="790.282899" y="45.707735" style="fill: #1f77b4; stroke: #1f77b4"/>
     <use xlink:href="#mc052743e45" x="795.940444" y="45.707735" style="fill: #1f77b4; stroke: #1f77b4"/>
     <use xlink:href="#mc052743e45" x="801.604755" y="45.707735" style="fill: #1f77b4; stroke: #1f77b4"/>
     <use xlink:href="#mc052743e45" x="807.261979" y="45.707735" style="fill: #1f77b4; stroke: #1f77b4"/>
     <use xlink:href="#mc052743e45" x="812.917216" y="45.707735" style="fill: #1f77b4; stroke: #1f77b4"/>
    </g>
   </g>
   <g id="line2d_35">
    <path d="M 93.567569 402.149971 
L 105.022438 402.149971 
L 116.369354 402.149971 
L 127.718845 402.149971 
L 139.090995 402.149075 
L 150.44126 402.149075 
L 156.10166 402.149075 
L 161.764877 402.149075 
L 167.425464 402.149075 
L 173.113954 402.149075 
L 178.893877 402.149075 
L 184.656787 402.149075 
L 190.427823 402.149075 
L 196.192601 402.149075 
L 201.957059 400.168457 
L 207.644735 399.974068 
L 213.349358 399.722348 
L 219.162975 399.722348 
L 224.896915 399.722348 
L 230.586339 399.722348 
L 236.506882 399.722348 
L 242.253992 399.722348 
L 248.000502 399.722348 
L 253.692715 399.722348 
L 259.405544 399.693682 
L 265.118814 399.693682 
L 270.899605 399.693682 
L 276.597022 399.693682 
L 282.335112 399.693682 
L 288.05432 399.693682 
L 293.770592 399.693682 
L 299.676884 399.693682 
L 305.39441 399.693682 
L 311.159922 399.693682 
L 316.881572 399.693682 
L 322.608119 399.693682 
L 328.316839 399.693682 
L 334.008785 399.693682 
L 339.939349 399.693682 
L 345.633644 399.693682 
L 351.349916 399.693682 
L 357.087926 399.693682 
L 362.905826 399.689203 
L 368.655045 399.675766 
L 374.344322 399.603206 
L 380.062623 399.586186 
L 385.779122 399.57902 
L 391.497129 399.576332 
L 397.175731 399.576332 
L 402.868798 399.576332 
L 408.562719 399.576332 
L 414.263485 399.576332 
L 420.106526 399.576332 
L 425.855825 399.576332 
L 431.560007 399.576332 
L 437.271876 399.576332 
L 442.968866 399.576332 
L 448.757837 399.576332 
L 454.512513 399.576332 
L 460.20518 399.576332 
L 465.973694 399.576332 
L 471.724527 399.576332 
L 477.441306 399.576332 
L 483.30479 399.576332 
L 489.139011 399.576332 
L 494.860701 399.576332 
L 500.560226 399.576332 
L 506.251278 399.576332 
L 511.95933 399.576332 
L 517.823815 399.576332 
L 523.512905 399.576332 
L 529.279698 399.576332 
L 534.970777 399.576332 
L 540.663017 399.576332 
L 546.353375 399.576332 
L 552.044867 399.576332 
L 557.747862 399.576332 
L 563.446026 399.576332 
L 569.137906 399.576332 
L 574.826622 399.576332 
L 580.540079 399.576332 
L 586.272991 399.576332 
L 592.014897 399.576332 
L 597.727567 399.576332 
L 603.4454 399.576332 
L 609.176351 399.576332 
L 614.944105 399.576332 
L 620.639 399.576332 
L 626.433802 399.576332 
L 632.157013 399.576332 
L 637.873739 399.576332 
L 643.589811 399.576332 
L 649.279155 399.576332 
L 654.973743 399.576332 
L 660.665849 399.576332 
L 666.725611 399.576332 
L 672.442163 399.576332 
L 678.155446 399.576332 
L 683.847659 399.576332 
L 689.585496 399.576332 
L 695.319195 399.576332 
L 701.011755 399.576332 
L 706.704208 399.576332 
L 712.472362 399.576332 
L 718.19991 399.576332 
L 723.891109 399.576332 
L 729.583348 399.576332 
L 735.451796 399.576332 
L 741.203297 399.576332 
L 746.958494 399.576332 
L 752.834681 399.576332 
L 758.61371 399.576332 
L 764.365891 399.575437 
L 770.132217 399.575437 
L 775.887214 399.575437 
L 781.649657 399.575437 
L 787.400663 399.575437 
L 793.163386 399.575437 
L 798.922213 399.575437 
L 804.678571 399.575437 
L 810.429377 399.575437 
" clip-path="url(#p541b24acfe)" style="fill: none; stroke: #ff7f0e; stroke-width: 2; stroke-linecap: square"/>
    <defs>
     <path id="m8894c3e41c" d="M 0 2 
C 0.530406 2 1.03916 1.789267 1.414214 1.414214 
C 1.789267 1.03916 2 0.530406 2 0 
C 2 -0.530406 1.789267 -1.03916 1.414214 -1.414214 
C 1.03916 -1.789267 0.530406 -2 0 -2 
C -0.530406 -2 -1.03916 -1.789267 -1.414214 -1.414214 
C -1.789267 -1.03916 -2 -0.530406 -2 0 
C -2 0.530406 -1.789267 1.03916 -1.414214 1.414214 
C -1.03916 1.789267 -0.530406 2 0 2 
z
" style="stroke: #ff7f0e"/>
    </defs>
    <g clip-path="url(#p541b24acfe)">
     <use xlink:href="#m8894c3e41c" x="93.567569" y="402.149971" style="fill: #ff7f0e; stroke: #ff7f0e"/>
     <use xlink:href="#m8894c3e41c" x="105.022438" y="402.149971" style="fill: #ff7f0e; stroke: #ff7f0e"/>
     <use xlink:href="#m8894c3e41c" x="116.369354" y="402.149971" style="fill: #ff7f0e; stroke: #ff7f0e"/>
     <use xlink:href="#m8894c3e41c" x="127.718845" y="402.149971" style="fill: #ff7f0e; stroke: #ff7f0e"/>
     <use xlink:href="#m8894c3e41c" x="139.090995" y="402.149075" style="fill: #ff7f0e; stroke: #ff7f0e"/>
     <use xlink:href="#m8894c3e41c" x="150.44126" y="402.149075" style="fill: #ff7f0e; stroke: #ff7f0e"/>
     <use xlink:href="#m8894c3e41c" x="156.10166" y="402.149075" style="fill: #ff7f0e; stroke: #ff7f0e"/>
     <use xlink:href="#m8894c3e41c" x="161.764877" y="402.149075" style="fill: #ff7f0e; stroke: #ff7f0e"/>
     <use xlink:href="#m8894c3e41c" x="167.425464" y="402.149075" style="fill: #ff7f0e; stroke: #ff7f0e"/>
     <use xlink:href="#m8894c3e41c" x="173.113954" y="402.149075" style="fill: #ff7f0e; stroke: #ff7f0e"/>
     <use xlink:href="#m8894c3e41c" x="178.893877" y="402.149075" style="fill: #ff7f0e; stroke: #ff7f0e"/>
     <use xlink:href="#m8894c3e41c" x="184.656787" y="402.149075" style="fill: #ff7f0e; stroke: #ff7f0e"/>
     <use xlink:href="#m8894c3e41c" x="190.427823" y="402.149075" style="fill: #ff7f0e; stroke: #ff7f0e"/>
     <use xlink:href="#m8894c3e41c" x="196.192601" y="402.149075" style="fill: #ff7f0e; stroke: #ff7f0e"/>
     <use xlink:href="#m8894c3e41c" x="201.957059" y="400.168457" style="fill: #ff7f0e; stroke: #ff7f0e"/>
     <use xlink:href="#m8894c3e41c" x="207.644735" y="399.974068" style="fill: #ff7f0e; stroke: #ff7f0e"/>
     <use xlink:href="#m8894c3e41c" x="213.349358" y="399.722348" style="fill: #ff7f0e; stroke: #ff7f0e"/>
     <use xlink:href="#m8894c3e41c" x="219.162975" y="399.722348" style="fill: #ff7f0e; stroke: #ff7f0e"/>
     <use xlink:href="#m8894c3e41c" x="224.896915" y="399.722348" style="fill: #ff7f0e; stroke: #ff7f0e"/>
     <use xlink:href="#m8894c3e41c" x="230.586339" y="399.722348" style="fill: #ff7f0e; stroke: #ff7f0e"/>
     <use xlink:href="#m8894c3e41c" x="236.506882" y="399.722348" style="fill: #ff7f0e; stroke: #ff7f0e"/>
     <use xlink:href="#m8894c3e41c" x="242.253992" y="399.722348" style="fill: #ff7f0e; stroke: #ff7f0e"/>
     <use xlink:href="#m8894c3e41c" x="248.000502" y="399.722348" style="fill: #ff7f0e; stroke: #ff7f0e"/>
     <use xlink:href="#m8894c3e41c" x="253.692715" y="399.722348" style="fill: #ff7f0e; stroke: #ff7f0e"/>
     <use xlink:href="#m8894c3e41c" x="259.405544" y="399.693682" style="fill: #ff7f0e; stroke: #ff7f0e"/>
     <use xlink:href="#m8894c3e41c" x="265.118814" y="399.693682" style="fill: #ff7f0e; stroke: #ff7f0e"/>
     <use xlink:href="#m8894c3e41c" x="270.899605" y="399.693682" style="fill: #ff7f0e; stroke: #ff7f0e"/>
     <use xlink:href="#m8894c3e41c" x="276.597022" y="399.693682" style="fill: #ff7f0e; stroke: #ff7f0e"/>
     <use xlink:href="#m8894c3e41c" x="282.335112" y="399.693682" style="fill: #ff7f0e; stroke: #ff7f0e"/>
     <use xlink:href="#m8894c3e41c" x="288.05432" y="399.693682" style="fill: #ff7f0e; stroke: #ff7f0e"/>
     <use xlink:href="#m8894c3e41c" x="293.770592" y="399.693682" style="fill: #ff7f0e; stroke: #ff7f0e"/>
     <use xlink:href="#m8894c3e41c" x="299.676884" y="399.693682" style="fill: #ff7f0e; stroke: #ff7f0e"/>
     <use xlink:href="#m8894c3e41c" x="305.39441" y="399.693682" style="fill: #ff7f0e; stroke: #ff7f0e"/>
     <use xlink:href="#m8894c3e41c" x="311.159922" y="399.693682" style="fill: #ff7f0e; stroke: #ff7f0e"/>
     <use xlink:href="#m8894c3e41c" x="316.881572" y="399.693682" style="fill: #ff7f0e; stroke: #ff7f0e"/>
     <use xlink:href="#m8894c3e41c" x="322.608119" y="399.693682" style="fill: #ff7f0e; stroke: #ff7f0e"/>
     <use xlink:href="#m8894c3e41c" x="328.316839" y="399.693682" style="fill: #ff7f0e; stroke: #ff7f0e"/>
     <use xlink:href="#m8894c3e41c" x="334.008785" y="399.693682" style="fill: #ff7f0e; stroke: #ff7f0e"/>
     <use xlink:href="#m8894c3e41c" x="339.939349" y="399.693682" style="fill: #ff7f0e; stroke: #ff7f0e"/>
     <use xlink:href="#m8894c3e41c" x="345.633644" y="399.693682" style="fill: #ff7f0e; stroke: #ff7f0e"/>
     <use xlink:href="#m8894c3e41c" x="351.349916" y="399.693682" style="fill: #ff7f0e; stroke: #ff7f0e"/>
     <use xlink:href="#m8894c3e41c" x="357.087926" y="399.693682" style="fill: #ff7f0e; stroke: #ff7f0e"/>
     <use xlink:href="#m8894c3e41c" x="362.905826" y="399.689203" style="fill: #ff7f0e; stroke: #ff7f0e"/>
     <use xlink:href="#m8894c3e41c" x="368.655045" y="399.675766" style="fill: #ff7f0e; stroke: #ff7f0e"/>
     <use xlink:href="#m8894c3e41c" x="374.344322" y="399.603206" style="fill: #ff7f0e; stroke: #ff7f0e"/>
     <use xlink:href="#m8894c3e41c" x="380.062623" y="399.586186" style="fill: #ff7f0e; stroke: #ff7f0e"/>
     <use xlink:href="#m8894c3e41c" x="385.779122" y="399.57902" style="fill: #ff7f0e; stroke: #ff7f0e"/>
     <use xlink:href="#m8894c3e41c" x="391.497129" y="399.576332" style="fill: #ff7f0e; stroke: #ff7f0e"/>
     <use xlink:href="#m8894c3e41c" x="397.175731" y="399.576332" style="fill: #ff7f0e; stroke: #ff7f0e"/>
     <use xlink:href="#m8894c3e41c" x="402.868798" y="399.576332" style="fill: #ff7f0e; stroke: #ff7f0e"/>
     <use xlink:href="#m8894c3e41c" x="408.562719" y="399.576332" style="fill: #ff7f0e; stroke: #ff7f0e"/>
     <use xlink:href="#m8894c3e41c" x="414.263485" y="399.576332" style="fill: #ff7f0e; stroke: #ff7f0e"/>
     <use xlink:href="#m8894c3e41c" x="420.106526" y="399.576332" style="fill: #ff7f0e; stroke: #ff7f0e"/>
     <use xlink:href="#m8894c3e41c" x="425.855825" y="399.576332" style="fill: #ff7f0e; stroke: #ff7f0e"/>
     <use xlink:href="#m8894c3e41c" x="431.560007" y="399.576332" style="fill: #ff7f0e; stroke: #ff7f0e"/>
     <use xlink:href="#m8894c3e41c" x="437.271876" y="399.576332" style="fill: #ff7f0e; stroke: #ff7f0e"/>
     <use xlink:href="#m8894c3e41c" x="442.968866" y="399.576332" style="fill: #ff7f0e; stroke: #ff7f0e"/>
     <use xlink:href="#m8894c3e41c" x="448.757837" y="399.576332" style="fill: #ff7f0e; stroke: #ff7f0e"/>
     <use xlink:href="#m8894c3e41c" x="454.512513" y="399.576332" style="fill: #ff7f0e; stroke: #ff7f0e"/>
     <use xlink:href="#m8894c3e41c" x="460.20518" y="399.576332" style="fill: #ff7f0e; stroke: #ff7f0e"/>
     <use xlink:href="#m8894c3e41c" x="465.973694" y="399.576332" style="fill: #ff7f0e; stroke: #ff7f0e"/>
     <use xlink:href="#m8894c3e41c" x="471.724527" y="399.576332" style="fill: #ff7f0e; stroke: #ff7f0e"/>
     <use xlink:href="#m8894c3e41c" x="477.441306" y="399.576332" style="fill: #ff7f0e; stroke: #ff7f0e"/>
     <use xlink:href="#m8894c3e41c" x="483.30479" y="399.576332" style="fill: #ff7f0e; stroke: #ff7f0e"/>
     <use xlink:href="#m8894c3e41c" x="489.139011" y="399.576332" style="fill: #ff7f0e; stroke: #ff7f0e"/>
     <use xlink:href="#m8894c3e41c" x="494.860701" y="399.576332" style="fill: #ff7f0e; stroke: #ff7f0e"/>
     <use xlink:href="#m8894c3e41c" x="500.560226" y="399.576332" style="fill: #ff7f0e; stroke: #ff7f0e"/>
     <use xlink:href="#m8894c3e41c" x="506.251278" y="399.576332" style="fill: #ff7f0e; stroke: #ff7f0e"/>
     <use xlink:href="#m8894c3e41c" x="511.95933" y="399.576332" style="fill: #ff7f0e; stroke: #ff7f0e"/>
     <use xlink:href="#m8894c3e41c" x="517.823815" y="399.576332" style="fill: #ff7f0e; stroke: #ff7f0e"/>
     <use xlink:href="#m8894c3e41c" x="523.512905" y="399.576332" style="fill: #ff7f0e; stroke: #ff7f0e"/>
     <use xlink:href="#m8894c3e41c" x="529.279698" y="399.576332" style="fill: #ff7f0e; stroke: #ff7f0e"/>
     <use xlink:href="#m8894c3e41c" x="534.970777" y="399.576332" style="fill: #ff7f0e; stroke: #ff7f0e"/>
     <use xlink:href="#m8894c3e41c" x="540.663017" y="399.576332" style="fill: #ff7f0e; stroke: #ff7f0e"/>
     <use xlink:href="#m8894c3e41c" x="546.353375" y="399.576332" style="fill: #ff7f0e; stroke: #ff7f0e"/>
     <use xlink:href="#m8894c3e41c" x="552.044867" y="399.576332" style="fill: #ff7f0e; stroke: #ff7f0e"/>
     <use xlink:href="#m8894c3e41c" x="557.747862" y="399.576332" style="fill: #ff7f0e; stroke: #ff7f0e"/>
     <use xlink:href="#m8894c3e41c" x="563.446026" y="399.576332" style="fill: #ff7f0e; stroke: #ff7f0e"/>
     <use xlink:href="#m8894c3e41c" x="569.137906" y="399.576332" style="fill: #ff7f0e; stroke: #ff7f0e"/>
     <use xlink:href="#m8894c3e41c" x="574.826622" y="399.576332" style="fill: #ff7f0e; stroke: #ff7f0e"/>
     <use xlink:href="#m8894c3e41c" x="580.540079" y="399.576332" style="fill: #ff7f0e; stroke: #ff7f0e"/>
     <use xlink:href="#m8894c3e41c" x="586.272991" y="399.576332" style="fill: #ff7f0e; stroke: #ff7f0e"/>
     <use xlink:href="#m8894c3e41c" x="592.014897" y="399.576332" style="fill: #ff7f0e; stroke: #ff7f0e"/>
     <use xlink:href="#m8894c3e41c" x="597.727567" y="399.576332" style="fill: #ff7f0e; stroke: #ff7f0e"/>
     <use xlink:href="#m8894c3e41c" x="603.4454" y="399.576332" style="fill: #ff7f0e; stroke: #ff7f0e"/>
     <use xlink:href="#m8894c3e41c" x="609.176351" y="399.576332" style="fill: #ff7f0e; stroke: #ff7f0e"/>
     <use xlink:href="#m8894c3e41c" x="614.944105" y="399.576332" style="fill: #ff7f0e; stroke: #ff7f0e"/>
     <use xlink:href="#m8894c3e41c" x="620.639" y="399.576332" style="fill: #ff7f0e; stroke: #ff7f0e"/>
     <use xlink:href="#m8894c3e41c" x="626.433802" y="399.576332" style="fill: #ff7f0e; stroke: #ff7f0e"/>
     <use xlink:href="#m8894c3e41c" x="632.157013" y="399.576332" style="fill: #ff7f0e; stroke: #ff7f0e"/>
     <use xlink:href="#m8894c3e41c" x="637.873739" y="399.576332" style="fill: #ff7f0e; stroke: #ff7f0e"/>
     <use xlink:href="#m8894c3e41c" x="643.589811" y="399.576332" style="fill: #ff7f0e; stroke: #ff7f0e"/>
     <use xlink:href="#m8894c3e41c" x="649.279155" y="399.576332" style="fill: #ff7f0e; stroke: #ff7f0e"/>
     <use xlink:href="#m8894c3e41c" x="654.973743" y="399.576332" style="fill: #ff7f0e; stroke: #ff7f0e"/>
     <use xlink:href="#m8894c3e41c" x="660.665849" y="399.576332" style="fill: #ff7f0e; stroke: #ff7f0e"/>
     <use xlink:href="#m8894c3e41c" x="666.725611" y="399.576332" style="fill: #ff7f0e; stroke: #ff7f0e"/>
     <use xlink:href="#m8894c3e41c" x="672.442163" y="399.576332" style="fill: #ff7f0e; stroke: #ff7f0e"/>
     <use xlink:href="#m8894c3e41c" x="678.155446" y="399.576332" style="fill: #ff7f0e; stroke: #ff7f0e"/>
     <use xlink:href="#m8894c3e41c" x="683.847659" y="399.576332" style="fill: #ff7f0e; stroke: #ff7f0e"/>
     <use xlink:href="#m8894c3e41c" x="689.585496" y="399.576332" style="fill: #ff7f0e; stroke: #ff7f0e"/>
     <use xlink:href="#m8894c3e41c" x="695.319195" y="399.576332" style="fill: #ff7f0e; stroke: #ff7f0e"/>
     <use xlink:href="#m8894c3e41c" x="701.011755" y="399.576332" style="fill: #ff7f0e; stroke: #ff7f0e"/>
     <use xlink:href="#m8894c3e41c" x="706.704208" y="399.576332" style="fill: #ff7f0e; stroke: #ff7f0e"/>
     <use xlink:href="#m8894c3e41c" x="712.472362" y="399.576332" style="fill: #ff7f0e; stroke: #ff7f0e"/>
     <use xlink:href="#m8894c3e41c" x="718.19991" y="399.576332" style="fill: #ff7f0e; stroke: #ff7f0e"/>
     <use xlink:href="#m8894c3e41c" x="723.891109" y="399.576332" style="fill: #ff7f0e; stroke: #ff7f0e"/>
     <use xlink:href="#m8894c3e41c" x="729.583348" y="399.576332" style="fill: #ff7f0e; stroke: #ff7f0e"/>
     <use xlink:href="#m8894c3e41c" x="735.451796" y="399.576332" style="fill: #ff7f0e; stroke: #ff7f0e"/>
     <use xlink:href="#m8894c3e41c" x="741.203297" y="399.576332" style="fill: #ff7f0e; stroke: #ff7f0e"/>
     <use xlink:href="#m8894c3e41c" x="746.958494" y="399.576332" style="fill: #ff7f0e; stroke: #ff7f0e"/>
     <use xlink:href="#m8894c3e41c" x="752.834681" y="399.576332" style="fill: #ff7f0e; stroke: #ff7f0e"/>
     <use xlink:href="#m8894c3e41c" x="758.61371" y="399.576332" style="fill: #ff7f0e; stroke: #ff7f0e"/>
     <use xlink:href="#m8894c3e41c" x="764.365891" y="399.575437" style="fill: #ff7f0e; stroke: #ff7f0e"/>
     <use xlink:href="#m8894c3e41c" x="770.132217" y="399.575437" style="fill: #ff7f0e; stroke: #ff7f0e"/>
     <use xlink:href="#m8894c3e41c" x="775.887214" y="399.575437" style="fill: #ff7f0e; stroke: #ff7f0e"/>
     <use xlink:href="#m8894c3e41c" x="781.649657" y="399.575437" style="fill: #ff7f0e; stroke: #ff7f0e"/>
     <use xlink:href="#m8894c3e41c" x="787.400663" y="399.575437" style="fill: #ff7f0e; stroke: #ff7f0e"/>
     <use xlink:href="#m8894c3e41c" x="793.163386" y="399.575437" style="fill: #ff7f0e; stroke: #ff7f0e"/>
     <use xlink:href="#m8894c3e41c" x="798.922213" y="399.575437" style="fill: #ff7f0e; stroke: #ff7f0e"/>
     <use xlink:href="#m8894c3e41c" x="804.678571" y="399.575437" style="fill: #ff7f0e; stroke: #ff7f0e"/>
     <use xlink:href="#m8894c3e41c" x="810.429377" y="399.575437" style="fill: #ff7f0e; stroke: #ff7f0e"/>
    </g>
   </g>
   <g id="patch_3">
    <path d="M 53.328125 530.918125 
L 53.328125 22.318125 
" style="fill: none; stroke: #000000; stroke-width: 0.8; stroke-linejoin: miter; stroke-linecap: square"/>
   </g>
   <g id="patch_4">
    <path d="M 849.088125 530.918125 
L 849.088125 22.318125 
" style="fill: none; stroke: #000000; stroke-width: 0.8; stroke-linejoin: miter; stroke-linecap: square"/>
   </g>
   <g id="patch_5">
    <path d="M 53.328125 530.918125 
L 849.088125 530.918125 
" style="fill: none; stroke: #000000; stroke-width: 0.8; stroke-linejoin: miter; stroke-linecap: square"/>
   </g>
   <g id="patch_6">
    <path d="M 53.328125 22.318125 
L 849.088125 22.318125 
" style="fill: none; stroke: #000000; stroke-width: 0.8; stroke-linejoin: miter; stroke-linecap: square"/>
   </g>
   <g id="text_19">
    <!-- Memory Usage Comparison Over Time -->
    <g transform="translate(335.446563 16.318125) scale(0.12 -0.12)">
     <defs>
      <path id="DejaVuSans-43" d="M 4122 4306 
L 4122 3641 
Q 3803 3938 3442 4084 
Q 3081 4231 2675 4231 
Q 1875 4231 1450 3742 
Q 1025 3253 1025 2328 
Q 1025 1406 1450 917 
Q 1875 428 2675 428 
Q 3081 428 3442 575 
Q 3803 722 4122 1019 
L 4122 359 
Q 3791 134 3420 21 
Q 3050 -91 2638 -91 
Q 1578 -91 968 557 
Q 359 1206 359 2328 
Q 359 3453 968 4101 
Q 1578 4750 2638 4750 
Q 3056 4750 3426 4639 
Q 3797 4528 4122 4306 
z
" transform="scale(0.015625)"/>
      <path id="DejaVuSans-4f" d="M 2522 4238 
Q 1834 4238 1429 3725 
Q 1025 3213 1025 2328 
Q 1025 1447 1429 934 
Q 1834 422 2522 422 
Q 3209 422 3611 934 
Q 4013 1447 4013 2328 
Q 4013 3213 3611 3725 
Q 3209 4238 2522 4238 
z
M 2522 4750 
Q 3503 4750 4090 4092 
Q 4678 3434 4678 2328 
Q 4678 1225 4090 567 
Q 3503 -91 2522 -91 
Q 1538 -91 948 565 
Q 359 1222 359 2328 
Q 359 3434 948 4092 
Q 1538 4750 2522 4750 
z
" transform="scale(0.015625)"/>
      <path id="DejaVuSans-76" d="M 191 3500 
L 800 3500 
L 1894 563 
L 2988 3500 
L 3597 3500 
L 2284 0 
L 1503 0 
L 191 3500 
z
" transform="scale(0.015625)"/>
     </defs>
     <use xlink:href="#DejaVuSans-4d"/>
     <use xlink:href="#DejaVuSans-65" x="86.279297"/>
     <use xlink:href="#DejaVuSans-6d" x="147.802734"/>
     <use xlink:href="#DejaVuSans-6f" x="245.214844"/>
     <use xlink:href="#DejaVuSans-72" x="306.396484"/>
     <use xlink:href="#DejaVuSans-79" x="347.509766"/>
     <use xlink:href="#DejaVuSans-20" x="406.689453"/>
     <use xlink:href="#DejaVuSans-55" x="438.476562"/>
     <use xlink:href="#DejaVuSans-73" x="511.669922"/>
     <use xlink:href="#DejaVuSans-61" x="563.769531"/>
     <use xlink:href="#DejaVuSans-67" x="625.048828"/>
     <use xlink:href="#DejaVuSans-65" x="688.525391"/>
     <use xlink:href="#DejaVuSans-20" x="750.048828"/>
     <use xlink:href="#DejaVuSans-43" x="781.835938"/>
     <use xlink:href="#DejaVuSans-6f" x="851.660156"/>
     <use xlink:href="#DejaVuSans-6d" x="912.841797"/>
     <use xlink:href="#DejaVuSans-70" x="1010.253906"/>
     <use xlink:href="#DejaVuSans-61" x="1073.730469"/>
     <use xlink:href="#DejaVuSans-72" x="1135.009766"/>
     <use xlink:href="#DejaVuSans-69" x="1176.123047"/>
     <use xlink:href="#DejaVuSans-73" x="1203.90625"/>
     <use xlink:href="#DejaVuSans-6f" x="1256.005859"/>
     <use xlink:href="#DejaVuSans-6e" x="1317.1875"/>
     <use xlink:href="#DejaVuSans-20" x="1380.566406"/>
     <use xlink:href="#DejaVuSans-4f" x="1412.353516"/>
     <use xlink:href="#DejaVuSans-76" x="1491.064453"/>
     <use xlink:href="#DejaVuSans-65" x="1550.244141"/>
     <use xlink:href="#DejaVuSans-72" x="1611.767578"/>
     <use xlink:href="#DejaVuSans-20" x="1652.880859"/>
     <use xlink:href="#DejaVuSans-54" x="1684.667969"/>
     <use xlink:href="#DejaVuSans-69" x="1742.626953"/>
     <use xlink:href="#DejaVuSans-6d" x="1770.410156"/>
     <use xlink:href="#DejaVuSans-65" x="1867.822266"/>
    </g>
   </g>
   <g id="legend_1">
    <g id="patch_7">
     <path d="M 60.328125 74.3525 
L 128.970313 74.3525 
Q 130.970313 74.3525 130.970313 72.3525 
L 130.970313 29.318125 
Q 130.970313 27.318125 128.970313 27.318125 
L 60.328125 27.318125 
Q 58.328125 27.318125 58.328125 29.318125 
L 58.328125 72.3525 
Q 58.328125 74.3525 60.328125 74.3525 
z
" style="fill: #ffffff; opacity: 0.8; stroke: #cccccc; stroke-linejoin: miter"/>
    </g>
    <g id="line2d_36">
     <path d="M 62.328125 35.416562 
L 72.328125 35.416562 
L 82.328125 35.416562 
" style="fill: none; stroke: #2ca02c; stroke-width: 2; stroke-linecap: square"/>
     <g>
      <use xlink:href="#mcef0d1713b" x="72.328125" y="35.416562" style="fill: #2ca02c; stroke: #2ca02c"/>
     </g>
    </g>
    <g id="text_20">
     <!-- weaver -->
     <g transform="translate(90.328125 38.916562) scale(0.1 -0.1)">
      <defs>
       <path id="DejaVuSans-77" d="M 269 3500 
L 844 3500 
L 1563 769 
L 2278 3500 
L 2956 3500 
L 3675 769 
L 4391 3500 
L 4966 3500 
L 4050 0 
L 3372 0 
L 2619 2869 
L 1863 0 
L 1184 0 
L 269 3500 
z
" transform="scale(0.015625)"/>
      </defs>
      <use xlink:href="#DejaVuSans-77"/>
      <use xlink:href="#DejaVuSans-65" x="81.787109"/>
      <use xlink:href="#DejaVuSans-61" x="143.310547"/>
      <use xlink:href="#DejaVuSans-76" x="204.589844"/>
      <use xlink:href="#DejaVuSans-65" x="263.769531"/>
      <use xlink:href="#DejaVuSans-72" x="325.292969"/>
     </g>
    </g>
    <g id="line2d_37">
     <path d="M 62.328125 50.094687 
L 72.328125 50.094687 
L 82.328125 50.094687 
" style="fill: none; stroke: #1f77b4; stroke-width: 2; stroke-linecap: square"/>
     <g>
      <use xlink:href="#mc052743e45" x="72.328125" y="50.094687" style="fill: #1f77b4; stroke: #1f77b4"/>
     </g>
    </g>
    <g id="text_21">
     <!-- node -->
     <g transform="translate(90.328125 53.594687) scale(0.1 -0.1)">
      <use xlink:href="#DejaVuSans-6e"/>
      <use xlink:href="#DejaVuSans-6f" x="63.378906"/>
      <use xlink:href="#DejaVuSans-64" x="124.560547"/>
      <use xlink:href="#DejaVuSans-65" x="188.037109"/>
     </g>
    </g>
    <g id="line2d_38">
     <path d="M 62.328125 64.772812 
L 72.328125 64.772812 
L 82.328125 64.772812 
" style="fill: none; stroke: #ff7f0e; stroke-width: 2; stroke-linecap: square"/>
     <g>
      <use xlink:href="#m8894c3e41c" x="72.328125" y="64.772812" style="fill: #ff7f0e; stroke: #ff7f0e"/>
     </g>
    </g>
    <g id="text_22">
     <!-- python -->
     <g transform="translate(90.328125 68.272812) scale(0.1 -0.1)">
      <defs>
       <path id="DejaVuSans-74" d="M 1172 4494 
L 1172 3500 
L 2356 3500 
L 2356 3053 
L 1172 3053 
L 1172 1153 
Q 1172 725 1289 603 
Q 1406 481 1766 481 
L 2356 481 
L 2356 0 
L 1766 0 
Q 1100 0 847 248 
Q 594 497 594 1153 
L 594 3053 
L 172 3053 
L 172 3500 
L 594 3500 
L 594 4494 
L 1172 4494 
z
" transform="scale(0.015625)"/>
       <path id="DejaVuSans-68" d="M 3513 2113 
L 3513 0 
L 2938 0 
L 2938 2094 
Q 2938 2591 2744 2837 
Q 2550 3084 2163 3084 
Q 1697 3084 1428 2787 
Q 1159 2491 1159 1978 
L 1159 0 
L 581 0 
L 581 4863 
L 1159 4863 
L 1159 2956 
Q 1366 3272 1645 3428 
Q 1925 3584 2291 3584 
Q 2894 3584 3203 3211 
Q 3513 2838 3513 2113 
z
" transform="scale(0.015625)"/>
      </defs>
      <use xlink:href="#DejaVuSans-70"/>
      <use xlink:href="#DejaVuSans-79" x="63.476562"/>
      <use xlink:href="#DejaVuSans-74" x="122.65625"/>
      <use xlink:href="#DejaVuSans-68" x="161.865234"/>
      <use xlink:href="#DejaVuSans-6f" x="225.244141"/>
      <use xlink:href="#DejaVuSans-6e" x="286.425781"/>
     </g>
    </g>
   </g>
  </g>
 </g>
 <defs>
  <clipPath id="p541b24acfe">
   <rect x="53.328125" y="22.318125" width="795.76" height="508.6"/>
  </clipPath>
 </defs>
</svg>
