<?xml version="1.0" encoding="utf-8" standalone="no"?>
<!DOCTYPE svg PUBLIC "-//W3C//DTD SVG 1.1//EN"
  "http://www.w3.org/Graphics/SVG/1.1/DTD/svg11.dtd">
<svg xmlns:xlink="http://www.w3.org/1999/xlink" width="856.315625pt" height="568.474375pt" viewBox="0 0 856.315625 568.474375" xmlns="http://www.w3.org/2000/svg" version="1.1">
 <metadata>
  <rdf:RDF xmlns:dc="http://purl.org/dc/elements/1.1/" xmlns:cc="http://creativecommons.org/ns#" xmlns:rdf="http://www.w3.org/1999/02/22-rdf-syntax-ns#">
   <cc:Work>
    <dc:type rdf:resource="http://purl.org/dc/dcmitype/StillImage"/>
    <dc:date>2025-06-27T15:22:01.094999</dc:date>
    <dc:format>image/svg+xml</dc:format>
    <dc:creator>
     <cc:Agent>
      <dc:title>Matplotlib v3.6.3, https://matplotlib.org/</dc:title>
     </cc:Agent>
    </dc:creator>
   </cc:Work>
  </rdf:RDF>
 </metadata>
 <defs>
  <style type="text/css">*{stroke-linejoin: round; stroke-linecap: butt}</style>
 </defs>
 <g id="figure_1">
  <g id="patch_1">
   <path d="M 0 568.474375 
L 856.315625 568.474375 
L 856.315625 0 
L 0 0 
z
" style="fill: #ffffff"/>
  </g>
  <g id="axes_1">
   <g id="patch_2">
    <path d="M 46.965625 530.918125 
L 849.115625 530.918125 
L 849.115625 22.318125 
L 46.965625 22.318125 
z
" style="fill: #ffffff"/>
   </g>
   <g id="matplotlib.axis_1">
    <g id="xtick_1">
     <g id="line2d_1">
      <path d="M 82.411516 530.918125 
L 82.411516 22.318125 
" clip-path="url(#p35ff988a47)" style="fill: none; stroke: #b0b0b0; stroke-opacity: 0.3; stroke-width: 0.8; stroke-linecap: square"/>
     </g>
     <g id="line2d_2">
      <defs>
       <path id="meeaf6079e1" d="M 0 0 
L 0 3.5 
" style="stroke: #000000; stroke-width: 0.8"/>
      </defs>
      <g>
       <use xlink:href="#meeaf6079e1" x="82.411516" y="530.918125" style="stroke: #000000; stroke-width: 0.8"/>
      </g>
     </g>
     <g id="text_1">
      <!-- 0 -->
      <g transform="translate(79.230266 545.516562) scale(0.1 -0.1)">
       <defs>
        <path id="DejaVuSans-30" d="M 2034 4250 
Q 1547 4250 1301 3770 
Q 1056 3291 1056 2328 
Q 1056 1369 1301 889 
Q 1547 409 2034 409 
Q 2525 409 2770 889 
Q 3016 1369 3016 2328 
Q 3016 3291 2770 3770 
Q 2525 4250 2034 4250 
z
M 2034 4750 
Q 2819 4750 3233 4129 
Q 3647 3509 3647 2328 
Q 3647 1150 3233 529 
Q 2819 -91 2034 -91 
Q 1250 -91 836 529 
Q 422 1150 422 2328 
Q 422 3509 836 4129 
Q 1250 4750 2034 4750 
z
" transform="scale(0.015625)"/>
       </defs>
       <use xlink:href="#DejaVuSans-30"/>
      </g>
     </g>
    </g>
    <g id="xtick_2">
     <g id="line2d_3">
      <path d="M 195.093281 530.918125 
L 195.093281 22.318125 
" clip-path="url(#p35ff988a47)" style="fill: none; stroke: #b0b0b0; stroke-opacity: 0.3; stroke-width: 0.8; stroke-linecap: square"/>
     </g>
     <g id="line2d_4">
      <g>
       <use xlink:href="#meeaf6079e1" x="195.093281" y="530.918125" style="stroke: #000000; stroke-width: 0.8"/>
      </g>
     </g>
     <g id="text_2">
      <!-- 2 -->
      <g transform="translate(191.912031 545.516562) scale(0.1 -0.1)">
       <defs>
        <path id="DejaVuSans-32" d="M 1228 531 
L 3431 531 
L 3431 0 
L 469 0 
L 469 531 
Q 828 903 1448 1529 
Q 2069 2156 2228 2338 
Q 2531 2678 2651 2914 
Q 2772 3150 2772 3378 
Q 2772 3750 2511 3984 
Q 2250 4219 1831 4219 
Q 1534 4219 1204 4116 
Q 875 4013 500 3803 
L 500 4441 
Q 881 4594 1212 4672 
Q 1544 4750 1819 4750 
Q 2544 4750 2975 4387 
Q 3406 4025 3406 3419 
Q 3406 3131 3298 2873 
Q 3191 2616 2906 2266 
Q 2828 2175 2409 1742 
Q 1991 1309 1228 531 
z
" transform="scale(0.015625)"/>
       </defs>
       <use xlink:href="#DejaVuSans-32"/>
      </g>
     </g>
    </g>
    <g id="xtick_3">
     <g id="line2d_5">
      <path d="M 307.775046 530.918125 
L 307.775046 22.318125 
" clip-path="url(#p35ff988a47)" style="fill: none; stroke: #b0b0b0; stroke-opacity: 0.3; stroke-width: 0.8; stroke-linecap: square"/>
     </g>
     <g id="line2d_6">
      <g>
       <use xlink:href="#meeaf6079e1" x="307.775046" y="530.918125" style="stroke: #000000; stroke-width: 0.8"/>
      </g>
     </g>
     <g id="text_3">
      <!-- 4 -->
      <g transform="translate(304.593796 545.516562) scale(0.1 -0.1)">
       <defs>
        <path id="DejaVuSans-34" d="M 2419 4116 
L 825 1625 
L 2419 1625 
L 2419 4116 
z
M 2253 4666 
L 3047 4666 
L 3047 1625 
L 3713 1625 
L 3713 1100 
L 3047 1100 
L 3047 0 
L 2419 0 
L 2419 1100 
L 313 1100 
L 313 1709 
L 2253 4666 
z
" transform="scale(0.015625)"/>
       </defs>
       <use xlink:href="#DejaVuSans-34"/>
      </g>
     </g>
    </g>
    <g id="xtick_4">
     <g id="line2d_7">
      <path d="M 420.456811 530.918125 
L 420.456811 22.318125 
" clip-path="url(#p35ff988a47)" style="fill: none; stroke: #b0b0b0; stroke-opacity: 0.3; stroke-width: 0.8; stroke-linecap: square"/>
     </g>
     <g id="line2d_8">
      <g>
       <use xlink:href="#meeaf6079e1" x="420.456811" y="530.918125" style="stroke: #000000; stroke-width: 0.8"/>
      </g>
     </g>
     <g id="text_4">
      <!-- 6 -->
      <g transform="translate(417.275561 545.516562) scale(0.1 -0.1)">
       <defs>
        <path id="DejaVuSans-36" d="M 2113 2584 
Q 1688 2584 1439 2293 
Q 1191 2003 1191 1497 
Q 1191 994 1439 701 
Q 1688 409 2113 409 
Q 2538 409 2786 701 
Q 3034 994 3034 1497 
Q 3034 2003 2786 2293 
Q 2538 2584 2113 2584 
z
M 3366 4563 
L 3366 3988 
Q 3128 4100 2886 4159 
Q 2644 4219 2406 4219 
Q 1781 4219 1451 3797 
Q 1122 3375 1075 2522 
Q 1259 2794 1537 2939 
Q 1816 3084 2150 3084 
Q 2853 3084 3261 2657 
Q 3669 2231 3669 1497 
Q 3669 778 3244 343 
Q 2819 -91 2113 -91 
Q 1303 -91 875 529 
Q 447 1150 447 2328 
Q 447 3434 972 4092 
Q 1497 4750 2381 4750 
Q 2619 4750 2861 4703 
Q 3103 4656 3366 4563 
z
" transform="scale(0.015625)"/>
       </defs>
       <use xlink:href="#DejaVuSans-36"/>
      </g>
     </g>
    </g>
    <g id="xtick_5">
     <g id="line2d_9">
      <path d="M 533.138575 530.918125 
L 533.138575 22.318125 
" clip-path="url(#p35ff988a47)" style="fill: none; stroke: #b0b0b0; stroke-opacity: 0.3; stroke-width: 0.8; stroke-linecap: square"/>
     </g>
     <g id="line2d_10">
      <g>
       <use xlink:href="#meeaf6079e1" x="533.138575" y="530.918125" style="stroke: #000000; stroke-width: 0.8"/>
      </g>
     </g>
     <g id="text_5">
      <!-- 8 -->
      <g transform="translate(529.957325 545.516562) scale(0.1 -0.1)">
       <defs>
        <path id="DejaVuSans-38" d="M 2034 2216 
Q 1584 2216 1326 1975 
Q 1069 1734 1069 1313 
Q 1069 891 1326 650 
Q 1584 409 2034 409 
Q 2484 409 2743 651 
Q 3003 894 3003 1313 
Q 3003 1734 2745 1975 
Q 2488 2216 2034 2216 
z
M 1403 2484 
Q 997 2584 770 2862 
Q 544 3141 544 3541 
Q 544 4100 942 4425 
Q 1341 4750 2034 4750 
Q 2731 4750 3128 4425 
Q 3525 4100 3525 3541 
Q 3525 3141 3298 2862 
Q 3072 2584 2669 2484 
Q 3125 2378 3379 2068 
Q 3634 1759 3634 1313 
Q 3634 634 3220 271 
Q 2806 -91 2034 -91 
Q 1263 -91 848 271 
Q 434 634 434 1313 
Q 434 1759 690 2068 
Q 947 2378 1403 2484 
z
M 1172 3481 
Q 1172 3119 1398 2916 
Q 1625 2713 2034 2713 
Q 2441 2713 2670 2916 
Q 2900 3119 2900 3481 
Q 2900 3844 2670 4047 
Q 2441 4250 2034 4250 
Q 1625 4250 1398 4047 
Q 1172 3844 1172 3481 
z
" transform="scale(0.015625)"/>
       </defs>
       <use xlink:href="#DejaVuSans-38"/>
      </g>
     </g>
    </g>
    <g id="xtick_6">
     <g id="line2d_11">
      <path d="M 645.82034 530.918125 
L 645.82034 22.318125 
" clip-path="url(#p35ff988a47)" style="fill: none; stroke: #b0b0b0; stroke-opacity: 0.3; stroke-width: 0.8; stroke-linecap: square"/>
     </g>
     <g id="line2d_12">
      <g>
       <use xlink:href="#meeaf6079e1" x="645.82034" y="530.918125" style="stroke: #000000; stroke-width: 0.8"/>
      </g>
     </g>
     <g id="text_6">
      <!-- 10 -->
      <g transform="translate(639.45784 545.516562) scale(0.1 -0.1)">
       <defs>
        <path id="DejaVuSans-31" d="M 794 531 
L 1825 531 
L 1825 4091 
L 703 3866 
L 703 4441 
L 1819 4666 
L 2450 4666 
L 2450 531 
L 3481 531 
L 3481 0 
L 794 0 
L 794 531 
z
" transform="scale(0.015625)"/>
       </defs>
       <use xlink:href="#DejaVuSans-31"/>
       <use xlink:href="#DejaVuSans-30" x="63.623047"/>
      </g>
     </g>
    </g>
    <g id="xtick_7">
     <g id="line2d_13">
      <path d="M 758.502105 530.918125 
L 758.502105 22.318125 
" clip-path="url(#p35ff988a47)" style="fill: none; stroke: #b0b0b0; stroke-opacity: 0.3; stroke-width: 0.8; stroke-linecap: square"/>
     </g>
     <g id="line2d_14">
      <g>
       <use xlink:href="#meeaf6079e1" x="758.502105" y="530.918125" style="stroke: #000000; stroke-width: 0.8"/>
      </g>
     </g>
     <g id="text_7">
      <!-- 12 -->
      <g transform="translate(752.139605 545.516562) scale(0.1 -0.1)">
       <use xlink:href="#DejaVuSans-31"/>
       <use xlink:href="#DejaVuSans-32" x="63.623047"/>
      </g>
     </g>
    </g>
    <g id="text_8">
     <!-- Elapsed Time (seconds) -->
     <g transform="translate(388.647656 559.194687) scale(0.1 -0.1)">
      <defs>
       <path id="DejaVuSans-45" d="M 628 4666 
L 3578 4666 
L 3578 4134 
L 1259 4134 
L 1259 2753 
L 3481 2753 
L 3481 2222 
L 1259 2222 
L 1259 531 
L 3634 531 
L 3634 0 
L 628 0 
L 628 4666 
z
" transform="scale(0.015625)"/>
       <path id="DejaVuSans-6c" d="M 603 4863 
L 1178 4863 
L 1178 0 
L 603 0 
L 603 4863 
z
" transform="scale(0.015625)"/>
       <path id="DejaVuSans-61" d="M 2194 1759 
Q 1497 1759 1228 1600 
Q 959 1441 959 1056 
Q 959 750 1161 570 
Q 1363 391 1709 391 
Q 2188 391 2477 730 
Q 2766 1069 2766 1631 
L 2766 1759 
L 2194 1759 
z
M 3341 1997 
L 3341 0 
L 2766 0 
L 2766 531 
Q 2569 213 2275 61 
Q 1981 -91 1556 -91 
Q 1019 -91 701 211 
Q 384 513 384 1019 
Q 384 1609 779 1909 
Q 1175 2209 1959 2209 
L 2766 2209 
L 2766 2266 
Q 2766 2663 2505 2880 
Q 2244 3097 1772 3097 
Q 1472 3097 1187 3025 
Q 903 2953 641 2809 
L 641 3341 
Q 956 3463 1253 3523 
Q 1550 3584 1831 3584 
Q 2591 3584 2966 3190 
Q 3341 2797 3341 1997 
z
" transform="scale(0.015625)"/>
       <path id="DejaVuSans-70" d="M 1159 525 
L 1159 -1331 
L 581 -1331 
L 581 3500 
L 1159 3500 
L 1159 2969 
Q 1341 3281 1617 3432 
Q 1894 3584 2278 3584 
Q 2916 3584 3314 3078 
Q 3713 2572 3713 1747 
Q 3713 922 3314 415 
Q 2916 -91 2278 -91 
Q 1894 -91 1617 61 
Q 1341 213 1159 525 
z
M 3116 1747 
Q 3116 2381 2855 2742 
Q 2594 3103 2138 3103 
Q 1681 3103 1420 2742 
Q 1159 2381 1159 1747 
Q 1159 1113 1420 752 
Q 1681 391 2138 391 
Q 2594 391 2855 752 
Q 3116 1113 3116 1747 
z
" transform="scale(0.015625)"/>
       <path id="DejaVuSans-73" d="M 2834 3397 
L 2834 2853 
Q 2591 2978 2328 3040 
Q 2066 3103 1784 3103 
Q 1356 3103 1142 2972 
Q 928 2841 928 2578 
Q 928 2378 1081 2264 
Q 1234 2150 1697 2047 
L 1894 2003 
Q 2506 1872 2764 1633 
Q 3022 1394 3022 966 
Q 3022 478 2636 193 
Q 2250 -91 1575 -91 
Q 1294 -91 989 -36 
Q 684 19 347 128 
L 347 722 
Q 666 556 975 473 
Q 1284 391 1588 391 
Q 1994 391 2212 530 
Q 2431 669 2431 922 
Q 2431 1156 2273 1281 
Q 2116 1406 1581 1522 
L 1381 1569 
Q 847 1681 609 1914 
Q 372 2147 372 2553 
Q 372 3047 722 3315 
Q 1072 3584 1716 3584 
Q 2034 3584 2315 3537 
Q 2597 3491 2834 3397 
z
" transform="scale(0.015625)"/>
       <path id="DejaVuSans-65" d="M 3597 1894 
L 3597 1613 
L 953 1613 
Q 991 1019 1311 708 
Q 1631 397 2203 397 
Q 2534 397 2845 478 
Q 3156 559 3463 722 
L 3463 178 
Q 3153 47 2828 -22 
Q 2503 -91 2169 -91 
Q 1331 -91 842 396 
Q 353 884 353 1716 
Q 353 2575 817 3079 
Q 1281 3584 2069 3584 
Q 2775 3584 3186 3129 
Q 3597 2675 3597 1894 
z
M 3022 2063 
Q 3016 2534 2758 2815 
Q 2500 3097 2075 3097 
Q 1594 3097 1305 2825 
Q 1016 2553 972 2059 
L 3022 2063 
z
" transform="scale(0.015625)"/>
       <path id="DejaVuSans-64" d="M 2906 2969 
L 2906 4863 
L 3481 4863 
L 3481 0 
L 2906 0 
L 2906 525 
Q 2725 213 2448 61 
Q 2172 -91 1784 -91 
Q 1150 -91 751 415 
Q 353 922 353 1747 
Q 353 2572 751 3078 
Q 1150 3584 1784 3584 
Q 2172 3584 2448 3432 
Q 2725 3281 2906 2969 
z
M 947 1747 
Q 947 1113 1208 752 
Q 1469 391 1925 391 
Q 2381 391 2643 752 
Q 2906 1113 2906 1747 
Q 2906 2381 2643 2742 
Q 2381 3103 1925 3103 
Q 1469 3103 1208 2742 
Q 947 2381 947 1747 
z
" transform="scale(0.015625)"/>
       <path id="DejaVuSans-20" transform="scale(0.015625)"/>
       <path id="DejaVuSans-54" d="M -19 4666 
L 3928 4666 
L 3928 4134 
L 2272 4134 
L 2272 0 
L 1638 0 
L 1638 4134 
L -19 4134 
L -19 4666 
z
" transform="scale(0.015625)"/>
       <path id="DejaVuSans-69" d="M 603 3500 
L 1178 3500 
L 1178 0 
L 603 0 
L 603 3500 
z
M 603 4863 
L 1178 4863 
L 1178 4134 
L 603 4134 
L 603 4863 
z
" transform="scale(0.015625)"/>
       <path id="DejaVuSans-6d" d="M 3328 2828 
Q 3544 3216 3844 3400 
Q 4144 3584 4550 3584 
Q 5097 3584 5394 3201 
Q 5691 2819 5691 2113 
L 5691 0 
L 5113 0 
L 5113 2094 
Q 5113 2597 4934 2840 
Q 4756 3084 4391 3084 
Q 3944 3084 3684 2787 
Q 3425 2491 3425 1978 
L 3425 0 
L 2847 0 
L 2847 2094 
Q 2847 2600 2669 2842 
Q 2491 3084 2119 3084 
Q 1678 3084 1418 2786 
Q 1159 2488 1159 1978 
L 1159 0 
L 581 0 
L 581 3500 
L 1159 3500 
L 1159 2956 
Q 1356 3278 1631 3431 
Q 1906 3584 2284 3584 
Q 2666 3584 2933 3390 
Q 3200 3197 3328 2828 
z
" transform="scale(0.015625)"/>
       <path id="DejaVuSans-28" d="M 1984 4856 
Q 1566 4138 1362 3434 
Q 1159 2731 1159 2009 
Q 1159 1288 1364 580 
Q 1569 -128 1984 -844 
L 1484 -844 
Q 1016 -109 783 600 
Q 550 1309 550 2009 
Q 550 2706 781 3412 
Q 1013 4119 1484 4856 
L 1984 4856 
z
" transform="scale(0.015625)"/>
       <path id="DejaVuSans-63" d="M 3122 3366 
L 3122 2828 
Q 2878 2963 2633 3030 
Q 2388 3097 2138 3097 
Q 1578 3097 1268 2742 
Q 959 2388 959 1747 
Q 959 1106 1268 751 
Q 1578 397 2138 397 
Q 2388 397 2633 464 
Q 2878 531 3122 666 
L 3122 134 
Q 2881 22 2623 -34 
Q 2366 -91 2075 -91 
Q 1284 -91 818 406 
Q 353 903 353 1747 
Q 353 2603 823 3093 
Q 1294 3584 2113 3584 
Q 2378 3584 2631 3529 
Q 2884 3475 3122 3366 
z
" transform="scale(0.015625)"/>
       <path id="DejaVuSans-6f" d="M 1959 3097 
Q 1497 3097 1228 2736 
Q 959 2375 959 1747 
Q 959 1119 1226 758 
Q 1494 397 1959 397 
Q 2419 397 2687 759 
Q 2956 1122 2956 1747 
Q 2956 2369 2687 2733 
Q 2419 3097 1959 3097 
z
M 1959 3584 
Q 2709 3584 3137 3096 
Q 3566 2609 3566 1747 
Q 3566 888 3137 398 
Q 2709 -91 1959 -91 
Q 1206 -91 779 398 
Q 353 888 353 1747 
Q 353 2609 779 3096 
Q 1206 3584 1959 3584 
z
" transform="scale(0.015625)"/>
       <path id="DejaVuSans-6e" d="M 3513 2113 
L 3513 0 
L 2938 0 
L 2938 2094 
Q 2938 2591 2744 2837 
Q 2550 3084 2163 3084 
Q 1697 3084 1428 2787 
Q 1159 2491 1159 1978 
L 1159 0 
L 581 0 
L 581 3500 
L 1159 3500 
L 1159 2956 
Q 1366 3272 1645 3428 
Q 1925 3584 2291 3584 
Q 2894 3584 3203 3211 
Q 3513 2838 3513 2113 
z
" transform="scale(0.015625)"/>
       <path id="DejaVuSans-29" d="M 513 4856 
L 1013 4856 
Q 1481 4119 1714 3412 
Q 1947 2706 1947 2009 
Q 1947 1309 1714 600 
Q 1481 -109 1013 -844 
L 513 -844 
Q 928 -128 1133 580 
Q 1338 1288 1338 2009 
Q 1338 2731 1133 3434 
Q 928 4138 513 4856 
z
" transform="scale(0.015625)"/>
      </defs>
      <use xlink:href="#DejaVuSans-45"/>
      <use xlink:href="#DejaVuSans-6c" x="63.183594"/>
      <use xlink:href="#DejaVuSans-61" x="90.966797"/>
      <use xlink:href="#DejaVuSans-70" x="152.246094"/>
      <use xlink:href="#DejaVuSans-73" x="215.722656"/>
      <use xlink:href="#DejaVuSans-65" x="267.822266"/>
      <use xlink:href="#DejaVuSans-64" x="329.345703"/>
      <use xlink:href="#DejaVuSans-20" x="392.822266"/>
      <use xlink:href="#DejaVuSans-54" x="424.609375"/>
      <use xlink:href="#DejaVuSans-69" x="482.568359"/>
      <use xlink:href="#DejaVuSans-6d" x="510.351562"/>
      <use xlink:href="#DejaVuSans-65" x="607.763672"/>
      <use xlink:href="#DejaVuSans-20" x="669.287109"/>
      <use xlink:href="#DejaVuSans-28" x="701.074219"/>
      <use xlink:href="#DejaVuSans-73" x="740.087891"/>
      <use xlink:href="#DejaVuSans-65" x="792.1875"/>
      <use xlink:href="#DejaVuSans-63" x="853.710938"/>
      <use xlink:href="#DejaVuSans-6f" x="908.691406"/>
      <use xlink:href="#DejaVuSans-6e" x="969.873047"/>
      <use xlink:href="#DejaVuSans-64" x="1033.251953"/>
      <use xlink:href="#DejaVuSans-73" x="1096.728516"/>
      <use xlink:href="#DejaVuSans-29" x="1148.828125"/>
     </g>
    </g>
   </g>
   <g id="matplotlib.axis_2">
    <g id="ytick_1">
     <g id="line2d_15">
      <path d="M 46.965625 507.799943 
L 849.115625 507.799943 
" clip-path="url(#p35ff988a47)" style="fill: none; stroke: #b0b0b0; stroke-opacity: 0.3; stroke-width: 0.8; stroke-linecap: square"/>
     </g>
     <g id="line2d_16">
      <defs>
       <path id="m37c4650ba2" d="M 0 0 
L -3.5 0 
" style="stroke: #000000; stroke-width: 0.8"/>
      </defs>
      <g>
       <use xlink:href="#m37c4650ba2" x="46.965625" y="507.799943" style="stroke: #000000; stroke-width: 0.8"/>
      </g>
     </g>
     <g id="text_9">
      <!-- 0 -->
      <g transform="translate(33.603125 511.599162) scale(0.1 -0.1)">
       <use xlink:href="#DejaVuSans-30"/>
      </g>
     </g>
    </g>
    <g id="ytick_2">
     <g id="line2d_17">
      <path d="M 46.965625 446.802102 
L 849.115625 446.802102 
" clip-path="url(#p35ff988a47)" style="fill: none; stroke: #b0b0b0; stroke-opacity: 0.3; stroke-width: 0.8; stroke-linecap: square"/>
     </g>
     <g id="line2d_18">
      <g>
       <use xlink:href="#m37c4650ba2" x="46.965625" y="446.802102" style="stroke: #000000; stroke-width: 0.8"/>
      </g>
     </g>
     <g id="text_10">
      <!-- 25 -->
      <g transform="translate(27.240625 450.601321) scale(0.1 -0.1)">
       <defs>
        <path id="DejaVuSans-35" d="M 691 4666 
L 3169 4666 
L 3169 4134 
L 1269 4134 
L 1269 2991 
Q 1406 3038 1543 3061 
Q 1681 3084 1819 3084 
Q 2600 3084 3056 2656 
Q 3513 2228 3513 1497 
Q 3513 744 3044 326 
Q 2575 -91 1722 -91 
Q 1428 -91 1123 -41 
Q 819 9 494 109 
L 494 744 
Q 775 591 1075 516 
Q 1375 441 1709 441 
Q 2250 441 2565 725 
Q 2881 1009 2881 1497 
Q 2881 1984 2565 2268 
Q 2250 2553 1709 2553 
Q 1456 2553 1204 2497 
Q 953 2441 691 2322 
L 691 4666 
z
" transform="scale(0.015625)"/>
       </defs>
       <use xlink:href="#DejaVuSans-32"/>
       <use xlink:href="#DejaVuSans-35" x="63.623047"/>
      </g>
     </g>
    </g>
    <g id="ytick_3">
     <g id="line2d_19">
      <path d="M 46.965625 385.804261 
L 849.115625 385.804261 
" clip-path="url(#p35ff988a47)" style="fill: none; stroke: #b0b0b0; stroke-opacity: 0.3; stroke-width: 0.8; stroke-linecap: square"/>
     </g>
     <g id="line2d_20">
      <g>
       <use xlink:href="#m37c4650ba2" x="46.965625" y="385.804261" style="stroke: #000000; stroke-width: 0.8"/>
      </g>
     </g>
     <g id="text_11">
      <!-- 50 -->
      <g transform="translate(27.240625 389.60348) scale(0.1 -0.1)">
       <use xlink:href="#DejaVuSans-35"/>
       <use xlink:href="#DejaVuSans-30" x="63.623047"/>
      </g>
     </g>
    </g>
    <g id="ytick_4">
     <g id="line2d_21">
      <path d="M 46.965625 324.80642 
L 849.115625 324.80642 
" clip-path="url(#p35ff988a47)" style="fill: none; stroke: #b0b0b0; stroke-opacity: 0.3; stroke-width: 0.8; stroke-linecap: square"/>
     </g>
     <g id="line2d_22">
      <g>
       <use xlink:href="#m37c4650ba2" x="46.965625" y="324.80642" style="stroke: #000000; stroke-width: 0.8"/>
      </g>
     </g>
     <g id="text_12">
      <!-- 75 -->
      <g transform="translate(27.240625 328.605638) scale(0.1 -0.1)">
       <defs>
        <path id="DejaVuSans-37" d="M 525 4666 
L 3525 4666 
L 3525 4397 
L 1831 0 
L 1172 0 
L 2766 4134 
L 525 4134 
L 525 4666 
z
" transform="scale(0.015625)"/>
       </defs>
       <use xlink:href="#DejaVuSans-37"/>
       <use xlink:href="#DejaVuSans-35" x="63.623047"/>
      </g>
     </g>
    </g>
    <g id="ytick_5">
     <g id="line2d_23">
      <path d="M 46.965625 263.808578 
L 849.115625 263.808578 
" clip-path="url(#p35ff988a47)" style="fill: none; stroke: #b0b0b0; stroke-opacity: 0.3; stroke-width: 0.8; stroke-linecap: square"/>
     </g>
     <g id="line2d_24">
      <g>
       <use xlink:href="#m37c4650ba2" x="46.965625" y="263.808578" style="stroke: #000000; stroke-width: 0.8"/>
      </g>
     </g>
     <g id="text_13">
      <!-- 100 -->
      <g transform="translate(20.878125 267.607797) scale(0.1 -0.1)">
       <use xlink:href="#DejaVuSans-31"/>
       <use xlink:href="#DejaVuSans-30" x="63.623047"/>
       <use xlink:href="#DejaVuSans-30" x="127.246094"/>
      </g>
     </g>
    </g>
    <g id="ytick_6">
     <g id="line2d_25">
      <path d="M 46.965625 202.810737 
L 849.115625 202.810737 
" clip-path="url(#p35ff988a47)" style="fill: none; stroke: #b0b0b0; stroke-opacity: 0.3; stroke-width: 0.8; stroke-linecap: square"/>
     </g>
     <g id="line2d_26">
      <g>
       <use xlink:href="#m37c4650ba2" x="46.965625" y="202.810737" style="stroke: #000000; stroke-width: 0.8"/>
      </g>
     </g>
     <g id="text_14">
      <!-- 125 -->
      <g transform="translate(20.878125 206.609956) scale(0.1 -0.1)">
       <use xlink:href="#DejaVuSans-31"/>
       <use xlink:href="#DejaVuSans-32" x="63.623047"/>
       <use xlink:href="#DejaVuSans-35" x="127.246094"/>
      </g>
     </g>
    </g>
    <g id="ytick_7">
     <g id="line2d_27">
      <path d="M 46.965625 141.812896 
L 849.115625 141.812896 
" clip-path="url(#p35ff988a47)" style="fill: none; stroke: #b0b0b0; stroke-opacity: 0.3; stroke-width: 0.8; stroke-linecap: square"/>
     </g>
     <g id="line2d_28">
      <g>
       <use xlink:href="#m37c4650ba2" x="46.965625" y="141.812896" style="stroke: #000000; stroke-width: 0.8"/>
      </g>
     </g>
     <g id="text_15">
      <!-- 150 -->
      <g transform="translate(20.878125 145.612115) scale(0.1 -0.1)">
       <use xlink:href="#DejaVuSans-31"/>
       <use xlink:href="#DejaVuSans-35" x="63.623047"/>
       <use xlink:href="#DejaVuSans-30" x="127.246094"/>
      </g>
     </g>
    </g>
    <g id="ytick_8">
     <g id="line2d_29">
      <path d="M 46.965625 80.815055 
L 849.115625 80.815055 
" clip-path="url(#p35ff988a47)" style="fill: none; stroke: #b0b0b0; stroke-opacity: 0.3; stroke-width: 0.8; stroke-linecap: square"/>
     </g>
     <g id="line2d_30">
      <g>
       <use xlink:href="#m37c4650ba2" x="46.965625" y="80.815055" style="stroke: #000000; stroke-width: 0.8"/>
      </g>
     </g>
     <g id="text_16">
      <!-- 175 -->
      <g transform="translate(20.878125 84.614273) scale(0.1 -0.1)">
       <use xlink:href="#DejaVuSans-31"/>
       <use xlink:href="#DejaVuSans-37" x="63.623047"/>
       <use xlink:href="#DejaVuSans-35" x="127.246094"/>
      </g>
     </g>
    </g>
    <g id="text_17">
     <!-- CPU Usage (%) -->
     <g transform="translate(14.798437 314.193125) rotate(-90) scale(0.1 -0.1)">
      <defs>
       <path id="DejaVuSans-43" d="M 4122 4306 
L 4122 3641 
Q 3803 3938 3442 4084 
Q 3081 4231 2675 4231 
Q 1875 4231 1450 3742 
Q 1025 3253 1025 2328 
Q 1025 1406 1450 917 
Q 1875 428 2675 428 
Q 3081 428 3442 575 
Q 3803 722 4122 1019 
L 4122 359 
Q 3791 134 3420 21 
Q 3050 -91 2638 -91 
Q 1578 -91 968 557 
Q 359 1206 359 2328 
Q 359 3453 968 4101 
Q 1578 4750 2638 4750 
Q 3056 4750 3426 4639 
Q 3797 4528 4122 4306 
z
" transform="scale(0.015625)"/>
       <path id="DejaVuSans-50" d="M 1259 4147 
L 1259 2394 
L 2053 2394 
Q 2494 2394 2734 2622 
Q 2975 2850 2975 3272 
Q 2975 3691 2734 3919 
Q 2494 4147 2053 4147 
L 1259 4147 
z
M 628 4666 
L 2053 4666 
Q 2838 4666 3239 4311 
Q 3641 3956 3641 3272 
Q 3641 2581 3239 2228 
Q 2838 1875 2053 1875 
L 1259 1875 
L 1259 0 
L 628 0 
L 628 4666 
z
" transform="scale(0.015625)"/>
       <path id="DejaVuSans-55" d="M 556 4666 
L 1191 4666 
L 1191 1831 
Q 1191 1081 1462 751 
Q 1734 422 2344 422 
Q 2950 422 3222 751 
Q 3494 1081 3494 1831 
L 3494 4666 
L 4128 4666 
L 4128 1753 
Q 4128 841 3676 375 
Q 3225 -91 2344 -91 
Q 1459 -91 1007 375 
Q 556 841 556 1753 
L 556 4666 
z
" transform="scale(0.015625)"/>
       <path id="DejaVuSans-67" d="M 2906 1791 
Q 2906 2416 2648 2759 
Q 2391 3103 1925 3103 
Q 1463 3103 1205 2759 
Q 947 2416 947 1791 
Q 947 1169 1205 825 
Q 1463 481 1925 481 
Q 2391 481 2648 825 
Q 2906 1169 2906 1791 
z
M 3481 434 
Q 3481 -459 3084 -895 
Q 2688 -1331 1869 -1331 
Q 1566 -1331 1297 -1286 
Q 1028 -1241 775 -1147 
L 775 -588 
Q 1028 -725 1275 -790 
Q 1522 -856 1778 -856 
Q 2344 -856 2625 -561 
Q 2906 -266 2906 331 
L 2906 616 
Q 2728 306 2450 153 
Q 2172 0 1784 0 
Q 1141 0 747 490 
Q 353 981 353 1791 
Q 353 2603 747 3093 
Q 1141 3584 1784 3584 
Q 2172 3584 2450 3431 
Q 2728 3278 2906 2969 
L 2906 3500 
L 3481 3500 
L 3481 434 
z
" transform="scale(0.015625)"/>
       <path id="DejaVuSans-25" d="M 4653 2053 
Q 4381 2053 4226 1822 
Q 4072 1591 4072 1178 
Q 4072 772 4226 539 
Q 4381 306 4653 306 
Q 4919 306 5073 539 
Q 5228 772 5228 1178 
Q 5228 1588 5073 1820 
Q 4919 2053 4653 2053 
z
M 4653 2450 
Q 5147 2450 5437 2106 
Q 5728 1763 5728 1178 
Q 5728 594 5436 251 
Q 5144 -91 4653 -91 
Q 4153 -91 3862 251 
Q 3572 594 3572 1178 
Q 3572 1766 3864 2108 
Q 4156 2450 4653 2450 
z
M 1428 4353 
Q 1159 4353 1004 4120 
Q 850 3888 850 3481 
Q 850 3069 1003 2837 
Q 1156 2606 1428 2606 
Q 1700 2606 1854 2837 
Q 2009 3069 2009 3481 
Q 2009 3884 1853 4118 
Q 1697 4353 1428 4353 
z
M 4250 4750 
L 4750 4750 
L 1831 -91 
L 1331 -91 
L 4250 4750 
z
M 1428 4750 
Q 1922 4750 2215 4408 
Q 2509 4066 2509 3481 
Q 2509 2891 2217 2550 
Q 1925 2209 1428 2209 
Q 931 2209 642 2551 
Q 353 2894 353 3481 
Q 353 4063 643 4406 
Q 934 4750 1428 4750 
z
" transform="scale(0.015625)"/>
      </defs>
      <use xlink:href="#DejaVuSans-43"/>
      <use xlink:href="#DejaVuSans-50" x="69.824219"/>
      <use xlink:href="#DejaVuSans-55" x="130.126953"/>
      <use xlink:href="#DejaVuSans-20" x="203.320312"/>
      <use xlink:href="#DejaVuSans-55" x="235.107422"/>
      <use xlink:href="#DejaVuSans-73" x="308.300781"/>
      <use xlink:href="#DejaVuSans-61" x="360.400391"/>
      <use xlink:href="#DejaVuSans-67" x="421.679688"/>
      <use xlink:href="#DejaVuSans-65" x="485.15625"/>
      <use xlink:href="#DejaVuSans-20" x="546.679688"/>
      <use xlink:href="#DejaVuSans-28" x="578.466797"/>
      <use xlink:href="#DejaVuSans-25" x="617.480469"/>
      <use xlink:href="#DejaVuSans-29" x="712.5"/>
     </g>
    </g>
   </g>
   <g id="line2d_31">
    <path d="M 83.426989 507.799943 
L 94.752566 507.799943 
L 106.054045 507.799943 
L 117.363328 507.799943 
L 128.672557 507.799943 
L 139.977569 507.799943 
L 145.65324 507.799943 
L 151.331207 507.799943 
L 156.998644 507.799943 
L 162.667289 507.799943 
L 168.332348 507.799943 
L 174.006406 507.799943 
L 179.671895 507.799943 
L 185.33475 507.799943 
L 191.008245 507.799943 
L 196.670913 386.292243 
L 202.320618 264.540552 
L 207.970471 264.540552 
L 213.621452 264.540552 
L 219.271211 264.540552 
L 224.920177 264.540552 
L 230.569049 264.540552 
L 236.218029 264.540552 
L 241.867492 264.540552 
L 247.515545 264.296561 
L 253.165022 264.540552 
L 258.813652 264.540552 
L 264.462713 264.540552 
L 270.111142 264.540552 
L 275.759598 264.296561 
L 281.407677 240.141416 
L 287.056536 264.540552 
L 292.702964 264.296561 
L 298.353381 264.540552 
L 304.002092 288.695698 
L 309.651676 240.141416 
L 315.302469 264.540552 
L 320.952725 264.540552 
L 326.601907 264.540552 
L 332.250738 264.540552 
L 337.899812 288.695698 
L 343.549799 240.141416 
L 349.198752 264.540552 
L 354.846013 264.296561 
L 360.494576 288.695698 
L 366.14408 240.141416 
L 371.79365 264.540552 
L 377.443315 264.540552 
L 383.091758 264.540552 
L 388.740576 264.296561 
L 394.389946 240.141416 
L 400.039812 288.695698 
L 405.68945 264.540552 
L 411.339289 264.540552 
L 416.987678 264.296561 
L 422.637074 264.540552 
L 428.286336 264.540552 
L 433.936189 240.141416 
L 439.584981 288.695698 
L 445.234296 264.540552 
L 450.881328 264.296561 
L 456.531329 264.540552 
L 462.178938 240.141416 
L 467.826051 264.296561 
L 473.475555 288.695698 
L 479.124642 264.540552 
L 484.773662 240.141416 
L 490.423354 264.540552 
L 496.072911 264.540552 
L 501.722079 288.695698 
L 507.370091 264.540552 
L 513.018776 240.141416 
L 518.668669 264.540552 
L 524.317984 288.695698 
L 529.966386 240.141416 
L 535.615286 264.540552 
L 541.265515 264.540552 
L 546.91487 240.141416 
L 552.563891 288.695698 
L 558.21326 264.540552 
L 563.862669 240.141416 
L 569.511448 288.695698 
L 575.160468 264.540552 
L 580.810173 240.141416 
L 586.459744 288.695698 
L 592.107823 264.540552 
L 597.758482 240.141416 
L 603.40726 288.695698 
L 609.0562 264.540552 
L 614.705059 264.540552 
L 620.354401 240.385407 
L 626.007626 264.540552 
L 631.655894 288.695698 
L 637.304484 240.141416 
L 642.953034 264.540552 
L 648.603007 264.540552 
L 654.25196 264.540552 
L 659.900859 264.540552 
L 665.547354 264.296561 
L 671.196441 264.540552 
L 676.845717 264.540552 
L 682.494978 264.540552 
L 688.145288 264.540552 
L 693.79408 288.695698 
L 699.444148 240.141416 
L 705.092066 264.296561 
L 710.741288 264.540552 
L 716.390576 264.540552 
L 722.039543 264.540552 
L 727.688509 240.141416 
L 733.337274 264.540552 
L 738.986751 264.540552 
L 744.636241 288.695698 
L 750.284952 240.141416 
L 755.933488 264.540552 
L 761.58498 459.245662 
L 767.250334 507.799943 
L 772.911592 507.799943 
L 778.618211 507.799943 
L 784.309907 507.799943 
L 789.977558 507.799943 
L 795.645438 507.799943 
L 801.305472 507.799943 
L 806.990721 507.799943 
L 812.654261 507.799943 
" clip-path="url(#p35ff988a47)" style="fill: none; stroke: #2ca02c; stroke-width: 2; stroke-linecap: square"/>
    <defs>
     <path id="m01a1327913" d="M 0 2 
C 0.530406 2 1.03916 1.789267 1.414214 1.414214 
C 1.789267 1.03916 2 0.530406 2 0 
C 2 -0.530406 1.789267 -1.03916 1.414214 -1.414214 
C 1.03916 -1.789267 0.530406 -2 0 -2 
C -0.530406 -2 -1.03916 -1.789267 -1.414214 -1.414214 
C -1.789267 -1.03916 -2 -0.530406 -2 0 
C -2 0.530406 -1.789267 1.03916 -1.414214 1.414214 
C -1.03916 1.789267 -0.530406 2 0 2 
z
" style="stroke: #2ca02c"/>
    </defs>
    <g clip-path="url(#p35ff988a47)">
     <use xlink:href="#m01a1327913" x="83.426989" y="507.799943" style="fill: #2ca02c; stroke: #2ca02c"/>
     <use xlink:href="#m01a1327913" x="94.752566" y="507.799943" style="fill: #2ca02c; stroke: #2ca02c"/>
     <use xlink:href="#m01a1327913" x="106.054045" y="507.799943" style="fill: #2ca02c; stroke: #2ca02c"/>
     <use xlink:href="#m01a1327913" x="117.363328" y="507.799943" style="fill: #2ca02c; stroke: #2ca02c"/>
     <use xlink:href="#m01a1327913" x="128.672557" y="507.799943" style="fill: #2ca02c; stroke: #2ca02c"/>
     <use xlink:href="#m01a1327913" x="139.977569" y="507.799943" style="fill: #2ca02c; stroke: #2ca02c"/>
     <use xlink:href="#m01a1327913" x="145.65324" y="507.799943" style="fill: #2ca02c; stroke: #2ca02c"/>
     <use xlink:href="#m01a1327913" x="151.331207" y="507.799943" style="fill: #2ca02c; stroke: #2ca02c"/>
     <use xlink:href="#m01a1327913" x="156.998644" y="507.799943" style="fill: #2ca02c; stroke: #2ca02c"/>
     <use xlink:href="#m01a1327913" x="162.667289" y="507.799943" style="fill: #2ca02c; stroke: #2ca02c"/>
     <use xlink:href="#m01a1327913" x="168.332348" y="507.799943" style="fill: #2ca02c; stroke: #2ca02c"/>
     <use xlink:href="#m01a1327913" x="174.006406" y="507.799943" style="fill: #2ca02c; stroke: #2ca02c"/>
     <use xlink:href="#m01a1327913" x="179.671895" y="507.799943" style="fill: #2ca02c; stroke: #2ca02c"/>
     <use xlink:href="#m01a1327913" x="185.33475" y="507.799943" style="fill: #2ca02c; stroke: #2ca02c"/>
     <use xlink:href="#m01a1327913" x="191.008245" y="507.799943" style="fill: #2ca02c; stroke: #2ca02c"/>
     <use xlink:href="#m01a1327913" x="196.670913" y="386.292243" style="fill: #2ca02c; stroke: #2ca02c"/>
     <use xlink:href="#m01a1327913" x="202.320618" y="264.540552" style="fill: #2ca02c; stroke: #2ca02c"/>
     <use xlink:href="#m01a1327913" x="207.970471" y="264.540552" style="fill: #2ca02c; stroke: #2ca02c"/>
     <use xlink:href="#m01a1327913" x="213.621452" y="264.540552" style="fill: #2ca02c; stroke: #2ca02c"/>
     <use xlink:href="#m01a1327913" x="219.271211" y="264.540552" style="fill: #2ca02c; stroke: #2ca02c"/>
     <use xlink:href="#m01a1327913" x="224.920177" y="264.540552" style="fill: #2ca02c; stroke: #2ca02c"/>
     <use xlink:href="#m01a1327913" x="230.569049" y="264.540552" style="fill: #2ca02c; stroke: #2ca02c"/>
     <use xlink:href="#m01a1327913" x="236.218029" y="264.540552" style="fill: #2ca02c; stroke: #2ca02c"/>
     <use xlink:href="#m01a1327913" x="241.867492" y="264.540552" style="fill: #2ca02c; stroke: #2ca02c"/>
     <use xlink:href="#m01a1327913" x="247.515545" y="264.296561" style="fill: #2ca02c; stroke: #2ca02c"/>
     <use xlink:href="#m01a1327913" x="253.165022" y="264.540552" style="fill: #2ca02c; stroke: #2ca02c"/>
     <use xlink:href="#m01a1327913" x="258.813652" y="264.540552" style="fill: #2ca02c; stroke: #2ca02c"/>
     <use xlink:href="#m01a1327913" x="264.462713" y="264.540552" style="fill: #2ca02c; stroke: #2ca02c"/>
     <use xlink:href="#m01a1327913" x="270.111142" y="264.540552" style="fill: #2ca02c; stroke: #2ca02c"/>
     <use xlink:href="#m01a1327913" x="275.759598" y="264.296561" style="fill: #2ca02c; stroke: #2ca02c"/>
     <use xlink:href="#m01a1327913" x="281.407677" y="240.141416" style="fill: #2ca02c; stroke: #2ca02c"/>
     <use xlink:href="#m01a1327913" x="287.056536" y="264.540552" style="fill: #2ca02c; stroke: #2ca02c"/>
     <use xlink:href="#m01a1327913" x="292.702964" y="264.296561" style="fill: #2ca02c; stroke: #2ca02c"/>
     <use xlink:href="#m01a1327913" x="298.353381" y="264.540552" style="fill: #2ca02c; stroke: #2ca02c"/>
     <use xlink:href="#m01a1327913" x="304.002092" y="288.695698" style="fill: #2ca02c; stroke: #2ca02c"/>
     <use xlink:href="#m01a1327913" x="309.651676" y="240.141416" style="fill: #2ca02c; stroke: #2ca02c"/>
     <use xlink:href="#m01a1327913" x="315.302469" y="264.540552" style="fill: #2ca02c; stroke: #2ca02c"/>
     <use xlink:href="#m01a1327913" x="320.952725" y="264.540552" style="fill: #2ca02c; stroke: #2ca02c"/>
     <use xlink:href="#m01a1327913" x="326.601907" y="264.540552" style="fill: #2ca02c; stroke: #2ca02c"/>
     <use xlink:href="#m01a1327913" x="332.250738" y="264.540552" style="fill: #2ca02c; stroke: #2ca02c"/>
     <use xlink:href="#m01a1327913" x="337.899812" y="288.695698" style="fill: #2ca02c; stroke: #2ca02c"/>
     <use xlink:href="#m01a1327913" x="343.549799" y="240.141416" style="fill: #2ca02c; stroke: #2ca02c"/>
     <use xlink:href="#m01a1327913" x="349.198752" y="264.540552" style="fill: #2ca02c; stroke: #2ca02c"/>
     <use xlink:href="#m01a1327913" x="354.846013" y="264.296561" style="fill: #2ca02c; stroke: #2ca02c"/>
     <use xlink:href="#m01a1327913" x="360.494576" y="288.695698" style="fill: #2ca02c; stroke: #2ca02c"/>
     <use xlink:href="#m01a1327913" x="366.14408" y="240.141416" style="fill: #2ca02c; stroke: #2ca02c"/>
     <use xlink:href="#m01a1327913" x="371.79365" y="264.540552" style="fill: #2ca02c; stroke: #2ca02c"/>
     <use xlink:href="#m01a1327913" x="377.443315" y="264.540552" style="fill: #2ca02c; stroke: #2ca02c"/>
     <use xlink:href="#m01a1327913" x="383.091758" y="264.540552" style="fill: #2ca02c; stroke: #2ca02c"/>
     <use xlink:href="#m01a1327913" x="388.740576" y="264.296561" style="fill: #2ca02c; stroke: #2ca02c"/>
     <use xlink:href="#m01a1327913" x="394.389946" y="240.141416" style="fill: #2ca02c; stroke: #2ca02c"/>
     <use xlink:href="#m01a1327913" x="400.039812" y="288.695698" style="fill: #2ca02c; stroke: #2ca02c"/>
     <use xlink:href="#m01a1327913" x="405.68945" y="264.540552" style="fill: #2ca02c; stroke: #2ca02c"/>
     <use xlink:href="#m01a1327913" x="411.339289" y="264.540552" style="fill: #2ca02c; stroke: #2ca02c"/>
     <use xlink:href="#m01a1327913" x="416.987678" y="264.296561" style="fill: #2ca02c; stroke: #2ca02c"/>
     <use xlink:href="#m01a1327913" x="422.637074" y="264.540552" style="fill: #2ca02c; stroke: #2ca02c"/>
     <use xlink:href="#m01a1327913" x="428.286336" y="264.540552" style="fill: #2ca02c; stroke: #2ca02c"/>
     <use xlink:href="#m01a1327913" x="433.936189" y="240.141416" style="fill: #2ca02c; stroke: #2ca02c"/>
     <use xlink:href="#m01a1327913" x="439.584981" y="288.695698" style="fill: #2ca02c; stroke: #2ca02c"/>
     <use xlink:href="#m01a1327913" x="445.234296" y="264.540552" style="fill: #2ca02c; stroke: #2ca02c"/>
     <use xlink:href="#m01a1327913" x="450.881328" y="264.296561" style="fill: #2ca02c; stroke: #2ca02c"/>
     <use xlink:href="#m01a1327913" x="456.531329" y="264.540552" style="fill: #2ca02c; stroke: #2ca02c"/>
     <use xlink:href="#m01a1327913" x="462.178938" y="240.141416" style="fill: #2ca02c; stroke: #2ca02c"/>
     <use xlink:href="#m01a1327913" x="467.826051" y="264.296561" style="fill: #2ca02c; stroke: #2ca02c"/>
     <use xlink:href="#m01a1327913" x="473.475555" y="288.695698" style="fill: #2ca02c; stroke: #2ca02c"/>
     <use xlink:href="#m01a1327913" x="479.124642" y="264.540552" style="fill: #2ca02c; stroke: #2ca02c"/>
     <use xlink:href="#m01a1327913" x="484.773662" y="240.141416" style="fill: #2ca02c; stroke: #2ca02c"/>
     <use xlink:href="#m01a1327913" x="490.423354" y="264.540552" style="fill: #2ca02c; stroke: #2ca02c"/>
     <use xlink:href="#m01a1327913" x="496.072911" y="264.540552" style="fill: #2ca02c; stroke: #2ca02c"/>
     <use xlink:href="#m01a1327913" x="501.722079" y="288.695698" style="fill: #2ca02c; stroke: #2ca02c"/>
     <use xlink:href="#m01a1327913" x="507.370091" y="264.540552" style="fill: #2ca02c; stroke: #2ca02c"/>
     <use xlink:href="#m01a1327913" x="513.018776" y="240.141416" style="fill: #2ca02c; stroke: #2ca02c"/>
     <use xlink:href="#m01a1327913" x="518.668669" y="264.540552" style="fill: #2ca02c; stroke: #2ca02c"/>
     <use xlink:href="#m01a1327913" x="524.317984" y="288.695698" style="fill: #2ca02c; stroke: #2ca02c"/>
     <use xlink:href="#m01a1327913" x="529.966386" y="240.141416" style="fill: #2ca02c; stroke: #2ca02c"/>
     <use xlink:href="#m01a1327913" x="535.615286" y="264.540552" style="fill: #2ca02c; stroke: #2ca02c"/>
     <use xlink:href="#m01a1327913" x="541.265515" y="264.540552" style="fill: #2ca02c; stroke: #2ca02c"/>
     <use xlink:href="#m01a1327913" x="546.91487" y="240.141416" style="fill: #2ca02c; stroke: #2ca02c"/>
     <use xlink:href="#m01a1327913" x="552.563891" y="288.695698" style="fill: #2ca02c; stroke: #2ca02c"/>
     <use xlink:href="#m01a1327913" x="558.21326" y="264.540552" style="fill: #2ca02c; stroke: #2ca02c"/>
     <use xlink:href="#m01a1327913" x="563.862669" y="240.141416" style="fill: #2ca02c; stroke: #2ca02c"/>
     <use xlink:href="#m01a1327913" x="569.511448" y="288.695698" style="fill: #2ca02c; stroke: #2ca02c"/>
     <use xlink:href="#m01a1327913" x="575.160468" y="264.540552" style="fill: #2ca02c; stroke: #2ca02c"/>
     <use xlink:href="#m01a1327913" x="580.810173" y="240.141416" style="fill: #2ca02c; stroke: #2ca02c"/>
     <use xlink:href="#m01a1327913" x="586.459744" y="288.695698" style="fill: #2ca02c; stroke: #2ca02c"/>
     <use xlink:href="#m01a1327913" x="592.107823" y="264.540552" style="fill: #2ca02c; stroke: #2ca02c"/>
     <use xlink:href="#m01a1327913" x="597.758482" y="240.141416" style="fill: #2ca02c; stroke: #2ca02c"/>
     <use xlink:href="#m01a1327913" x="603.40726" y="288.695698" style="fill: #2ca02c; stroke: #2ca02c"/>
     <use xlink:href="#m01a1327913" x="609.0562" y="264.540552" style="fill: #2ca02c; stroke: #2ca02c"/>
     <use xlink:href="#m01a1327913" x="614.705059" y="264.540552" style="fill: #2ca02c; stroke: #2ca02c"/>
     <use xlink:href="#m01a1327913" x="620.354401" y="240.385407" style="fill: #2ca02c; stroke: #2ca02c"/>
     <use xlink:href="#m01a1327913" x="626.007626" y="264.540552" style="fill: #2ca02c; stroke: #2ca02c"/>
     <use xlink:href="#m01a1327913" x="631.655894" y="288.695698" style="fill: #2ca02c; stroke: #2ca02c"/>
     <use xlink:href="#m01a1327913" x="637.304484" y="240.141416" style="fill: #2ca02c; stroke: #2ca02c"/>
     <use xlink:href="#m01a1327913" x="642.953034" y="264.540552" style="fill: #2ca02c; stroke: #2ca02c"/>
     <use xlink:href="#m01a1327913" x="648.603007" y="264.540552" style="fill: #2ca02c; stroke: #2ca02c"/>
     <use xlink:href="#m01a1327913" x="654.25196" y="264.540552" style="fill: #2ca02c; stroke: #2ca02c"/>
     <use xlink:href="#m01a1327913" x="659.900859" y="264.540552" style="fill: #2ca02c; stroke: #2ca02c"/>
     <use xlink:href="#m01a1327913" x="665.547354" y="264.296561" style="fill: #2ca02c; stroke: #2ca02c"/>
     <use xlink:href="#m01a1327913" x="671.196441" y="264.540552" style="fill: #2ca02c; stroke: #2ca02c"/>
     <use xlink:href="#m01a1327913" x="676.845717" y="264.540552" style="fill: #2ca02c; stroke: #2ca02c"/>
     <use xlink:href="#m01a1327913" x="682.494978" y="264.540552" style="fill: #2ca02c; stroke: #2ca02c"/>
     <use xlink:href="#m01a1327913" x="688.145288" y="264.540552" style="fill: #2ca02c; stroke: #2ca02c"/>
     <use xlink:href="#m01a1327913" x="693.79408" y="288.695698" style="fill: #2ca02c; stroke: #2ca02c"/>
     <use xlink:href="#m01a1327913" x="699.444148" y="240.141416" style="fill: #2ca02c; stroke: #2ca02c"/>
     <use xlink:href="#m01a1327913" x="705.092066" y="264.296561" style="fill: #2ca02c; stroke: #2ca02c"/>
     <use xlink:href="#m01a1327913" x="710.741288" y="264.540552" style="fill: #2ca02c; stroke: #2ca02c"/>
     <use xlink:href="#m01a1327913" x="716.390576" y="264.540552" style="fill: #2ca02c; stroke: #2ca02c"/>
     <use xlink:href="#m01a1327913" x="722.039543" y="264.540552" style="fill: #2ca02c; stroke: #2ca02c"/>
     <use xlink:href="#m01a1327913" x="727.688509" y="240.141416" style="fill: #2ca02c; stroke: #2ca02c"/>
     <use xlink:href="#m01a1327913" x="733.337274" y="264.540552" style="fill: #2ca02c; stroke: #2ca02c"/>
     <use xlink:href="#m01a1327913" x="738.986751" y="264.540552" style="fill: #2ca02c; stroke: #2ca02c"/>
     <use xlink:href="#m01a1327913" x="744.636241" y="288.695698" style="fill: #2ca02c; stroke: #2ca02c"/>
     <use xlink:href="#m01a1327913" x="750.284952" y="240.141416" style="fill: #2ca02c; stroke: #2ca02c"/>
     <use xlink:href="#m01a1327913" x="755.933488" y="264.540552" style="fill: #2ca02c; stroke: #2ca02c"/>
     <use xlink:href="#m01a1327913" x="761.58498" y="459.245662" style="fill: #2ca02c; stroke: #2ca02c"/>
     <use xlink:href="#m01a1327913" x="767.250334" y="507.799943" style="fill: #2ca02c; stroke: #2ca02c"/>
     <use xlink:href="#m01a1327913" x="772.911592" y="507.799943" style="fill: #2ca02c; stroke: #2ca02c"/>
     <use xlink:href="#m01a1327913" x="778.618211" y="507.799943" style="fill: #2ca02c; stroke: #2ca02c"/>
     <use xlink:href="#m01a1327913" x="784.309907" y="507.799943" style="fill: #2ca02c; stroke: #2ca02c"/>
     <use xlink:href="#m01a1327913" x="789.977558" y="507.799943" style="fill: #2ca02c; stroke: #2ca02c"/>
     <use xlink:href="#m01a1327913" x="795.645438" y="507.799943" style="fill: #2ca02c; stroke: #2ca02c"/>
     <use xlink:href="#m01a1327913" x="801.305472" y="507.799943" style="fill: #2ca02c; stroke: #2ca02c"/>
     <use xlink:href="#m01a1327913" x="806.990721" y="507.799943" style="fill: #2ca02c; stroke: #2ca02c"/>
     <use xlink:href="#m01a1327913" x="812.654261" y="507.799943" style="fill: #2ca02c; stroke: #2ca02c"/>
    </g>
   </g>
   <g id="line2d_32">
    <path d="M 88.136807 483.400807 
L 99.456259 507.799943 
L 110.769128 507.799943 
L 122.084403 507.799943 
L 133.404164 507.799943 
L 144.721278 507.799943 
L 150.403893 507.799943 
L 156.07501 507.799943 
L 161.761037 507.799943 
L 167.426432 507.799943 
L 173.092229 507.799943 
L 178.768263 507.799943 
L 184.433738 507.799943 
L 190.117105 507.799943 
L 195.781774 434.846525 
L 201.430338 313.094834 
L 207.079506 264.540552 
L 212.72827 191.343143 
L 218.376699 191.343143 
L 224.025934 118.389725 
L 229.675613 264.540552 
L 235.324015 142.788861 
L 240.972712 45.436307 
L 246.621732 191.343143 
L 252.270188 94.23458 
L 257.919934 167.187998 
L 263.568631 215.742279 
L 269.218243 215.986271 
L 274.869922 191.587134 
L 280.519238 240.141416 
L 286.169171 215.742279 
L 291.82112 240.141416 
L 297.469831 191.343143 
L 303.119119 215.742279 
L 308.770101 240.385407 
L 314.440828 216.718245 
L 320.090627 192.075117 
L 325.763248 216.718245 
L 331.421859 191.587134 
L 337.069993 240.141416 
L 342.718677 240.141416 
L 348.368006 191.587134 
L 354.018262 215.742279 
L 359.666597 240.141416 
L 365.31598 215.742279 
L 370.964342 215.742279 
L 376.613496 240.141416 
L 382.262946 216.230262 
L 387.923464 215.986271 
L 393.572216 215.986271 
L 399.223479 215.742279 
L 404.872351 215.742279 
L 410.521452 240.141416 
L 416.171654 191.831126 
L 421.825698 240.385407 
L 427.479057 215.986271 
L 433.127795 215.742279 
L 438.77664 215.742279 
L 444.425754 240.385407 
L 450.086246 191.831126 
L 455.734876 191.343143 
L 461.385361 215.986271 
L 467.03794 240.141416 
L 472.688223 215.742279 
L 478.337686 215.742279 
L 483.986545 215.742279 
L 489.635082 191.343143 
L 495.283484 240.141416 
L 500.932222 215.742279 
L 506.581551 240.141416 
L 512.231619 215.986271 
L 517.881418 191.343143 
L 523.529941 240.141416 
L 529.179619 240.141416 
L 534.828021 191.343143 
L 540.476947 240.141416 
L 546.125242 191.587134 
L 551.777835 215.986271 
L 557.428266 240.141416 
L 563.077635 240.385407 
L 568.735332 215.986271 
L 574.38446 167.187998 
L 580.03258 240.141416 
L 585.681976 240.141416 
L 591.329384 240.141416 
L 596.978915 215.742279 
L 602.627814 215.742279 
L 608.276082 191.343143 
L 613.924847 240.141416 
L 619.573302 215.742279 
L 625.222014 215.742279 
L 630.868293 239.897425 
L 636.517689 191.587134 
L 642.166441 215.742279 
L 647.814883 215.742279 
L 653.46307 240.141416 
L 659.111768 191.343143 
L 664.760023 215.742279 
L 670.40919 240.141416 
L 676.057297 215.742279 
L 681.706089 240.141416 
L 687.354451 215.742279 
L 693.003162 191.343143 
L 698.651725 215.742279 
L 704.302276 240.141416 
L 709.951552 215.742279 
L 715.600491 215.742279 
L 721.249444 192.075117 
L 726.912501 215.986271 
L 732.560366 240.141416 
L 738.211831 216.230262 
L 743.86973 215.986271 
L 749.518669 191.343143 
L 755.16726 215.742279 
L 760.83029 362.38109 
L 766.495201 507.799943 
L 772.172148 507.799943 
L 777.849309 507.799943 
L 783.523086 507.799943 
L 789.184128 507.799943 
L 794.856078 507.799943 
L 800.521002 507.799943 
L 806.189231 507.799943 
L 811.856331 507.799943 
" clip-path="url(#p35ff988a47)" style="fill: none; stroke: #1f77b4; stroke-width: 2; stroke-linecap: square"/>
    <defs>
     <path id="m75c8cdf5e5" d="M 0 2 
C 0.530406 2 1.03916 1.789267 1.414214 1.414214 
C 1.789267 1.03916 2 0.530406 2 0 
C 2 -0.530406 1.789267 -1.03916 1.414214 -1.414214 
C 1.03916 -1.789267 0.530406 -2 0 -2 
C -0.530406 -2 -1.03916 -1.789267 -1.414214 -1.414214 
C -1.789267 -1.03916 -2 -0.530406 -2 0 
C -2 0.530406 -1.789267 1.03916 -1.414214 1.414214 
C -1.03916 1.789267 -0.530406 2 0 2 
z
" style="stroke: #1f77b4"/>
    </defs>
    <g clip-path="url(#p35ff988a47)">
     <use xlink:href="#m75c8cdf5e5" x="88.136807" y="483.400807" style="fill: #1f77b4; stroke: #1f77b4"/>
     <use xlink:href="#m75c8cdf5e5" x="99.456259" y="507.799943" style="fill: #1f77b4; stroke: #1f77b4"/>
     <use xlink:href="#m75c8cdf5e5" x="110.769128" y="507.799943" style="fill: #1f77b4; stroke: #1f77b4"/>
     <use xlink:href="#m75c8cdf5e5" x="122.084403" y="507.799943" style="fill: #1f77b4; stroke: #1f77b4"/>
     <use xlink:href="#m75c8cdf5e5" x="133.404164" y="507.799943" style="fill: #1f77b4; stroke: #1f77b4"/>
     <use xlink:href="#m75c8cdf5e5" x="144.721278" y="507.799943" style="fill: #1f77b4; stroke: #1f77b4"/>
     <use xlink:href="#m75c8cdf5e5" x="150.403893" y="507.799943" style="fill: #1f77b4; stroke: #1f77b4"/>
     <use xlink:href="#m75c8cdf5e5" x="156.07501" y="507.799943" style="fill: #1f77b4; stroke: #1f77b4"/>
     <use xlink:href="#m75c8cdf5e5" x="161.761037" y="507.799943" style="fill: #1f77b4; stroke: #1f77b4"/>
     <use xlink:href="#m75c8cdf5e5" x="167.426432" y="507.799943" style="fill: #1f77b4; stroke: #1f77b4"/>
     <use xlink:href="#m75c8cdf5e5" x="173.092229" y="507.799943" style="fill: #1f77b4; stroke: #1f77b4"/>
     <use xlink:href="#m75c8cdf5e5" x="178.768263" y="507.799943" style="fill: #1f77b4; stroke: #1f77b4"/>
     <use xlink:href="#m75c8cdf5e5" x="184.433738" y="507.799943" style="fill: #1f77b4; stroke: #1f77b4"/>
     <use xlink:href="#m75c8cdf5e5" x="190.117105" y="507.799943" style="fill: #1f77b4; stroke: #1f77b4"/>
     <use xlink:href="#m75c8cdf5e5" x="195.781774" y="434.846525" style="fill: #1f77b4; stroke: #1f77b4"/>
     <use xlink:href="#m75c8cdf5e5" x="201.430338" y="313.094834" style="fill: #1f77b4; stroke: #1f77b4"/>
     <use xlink:href="#m75c8cdf5e5" x="207.079506" y="264.540552" style="fill: #1f77b4; stroke: #1f77b4"/>
     <use xlink:href="#m75c8cdf5e5" x="212.72827" y="191.343143" style="fill: #1f77b4; stroke: #1f77b4"/>
     <use xlink:href="#m75c8cdf5e5" x="218.376699" y="191.343143" style="fill: #1f77b4; stroke: #1f77b4"/>
     <use xlink:href="#m75c8cdf5e5" x="224.025934" y="118.389725" style="fill: #1f77b4; stroke: #1f77b4"/>
     <use xlink:href="#m75c8cdf5e5" x="229.675613" y="264.540552" style="fill: #1f77b4; stroke: #1f77b4"/>
     <use xlink:href="#m75c8cdf5e5" x="235.324015" y="142.788861" style="fill: #1f77b4; stroke: #1f77b4"/>
     <use xlink:href="#m75c8cdf5e5" x="240.972712" y="45.436307" style="fill: #1f77b4; stroke: #1f77b4"/>
     <use xlink:href="#m75c8cdf5e5" x="246.621732" y="191.343143" style="fill: #1f77b4; stroke: #1f77b4"/>
     <use xlink:href="#m75c8cdf5e5" x="252.270188" y="94.23458" style="fill: #1f77b4; stroke: #1f77b4"/>
     <use xlink:href="#m75c8cdf5e5" x="257.919934" y="167.187998" style="fill: #1f77b4; stroke: #1f77b4"/>
     <use xlink:href="#m75c8cdf5e5" x="263.568631" y="215.742279" style="fill: #1f77b4; stroke: #1f77b4"/>
     <use xlink:href="#m75c8cdf5e5" x="269.218243" y="215.986271" style="fill: #1f77b4; stroke: #1f77b4"/>
     <use xlink:href="#m75c8cdf5e5" x="274.869922" y="191.587134" style="fill: #1f77b4; stroke: #1f77b4"/>
     <use xlink:href="#m75c8cdf5e5" x="280.519238" y="240.141416" style="fill: #1f77b4; stroke: #1f77b4"/>
     <use xlink:href="#m75c8cdf5e5" x="286.169171" y="215.742279" style="fill: #1f77b4; stroke: #1f77b4"/>
     <use xlink:href="#m75c8cdf5e5" x="291.82112" y="240.141416" style="fill: #1f77b4; stroke: #1f77b4"/>
     <use xlink:href="#m75c8cdf5e5" x="297.469831" y="191.343143" style="fill: #1f77b4; stroke: #1f77b4"/>
     <use xlink:href="#m75c8cdf5e5" x="303.119119" y="215.742279" style="fill: #1f77b4; stroke: #1f77b4"/>
     <use xlink:href="#m75c8cdf5e5" x="308.770101" y="240.385407" style="fill: #1f77b4; stroke: #1f77b4"/>
     <use xlink:href="#m75c8cdf5e5" x="314.440828" y="216.718245" style="fill: #1f77b4; stroke: #1f77b4"/>
     <use xlink:href="#m75c8cdf5e5" x="320.090627" y="192.075117" style="fill: #1f77b4; stroke: #1f77b4"/>
     <use xlink:href="#m75c8cdf5e5" x="325.763248" y="216.718245" style="fill: #1f77b4; stroke: #1f77b4"/>
     <use xlink:href="#m75c8cdf5e5" x="331.421859" y="191.587134" style="fill: #1f77b4; stroke: #1f77b4"/>
     <use xlink:href="#m75c8cdf5e5" x="337.069993" y="240.141416" style="fill: #1f77b4; stroke: #1f77b4"/>
     <use xlink:href="#m75c8cdf5e5" x="342.718677" y="240.141416" style="fill: #1f77b4; stroke: #1f77b4"/>
     <use xlink:href="#m75c8cdf5e5" x="348.368006" y="191.587134" style="fill: #1f77b4; stroke: #1f77b4"/>
     <use xlink:href="#m75c8cdf5e5" x="354.018262" y="215.742279" style="fill: #1f77b4; stroke: #1f77b4"/>
     <use xlink:href="#m75c8cdf5e5" x="359.666597" y="240.141416" style="fill: #1f77b4; stroke: #1f77b4"/>
     <use xlink:href="#m75c8cdf5e5" x="365.31598" y="215.742279" style="fill: #1f77b4; stroke: #1f77b4"/>
     <use xlink:href="#m75c8cdf5e5" x="370.964342" y="215.742279" style="fill: #1f77b4; stroke: #1f77b4"/>
     <use xlink:href="#m75c8cdf5e5" x="376.613496" y="240.141416" style="fill: #1f77b4; stroke: #1f77b4"/>
     <use xlink:href="#m75c8cdf5e5" x="382.262946" y="216.230262" style="fill: #1f77b4; stroke: #1f77b4"/>
     <use xlink:href="#m75c8cdf5e5" x="387.923464" y="215.986271" style="fill: #1f77b4; stroke: #1f77b4"/>
     <use xlink:href="#m75c8cdf5e5" x="393.572216" y="215.986271" style="fill: #1f77b4; stroke: #1f77b4"/>
     <use xlink:href="#m75c8cdf5e5" x="399.223479" y="215.742279" style="fill: #1f77b4; stroke: #1f77b4"/>
     <use xlink:href="#m75c8cdf5e5" x="404.872351" y="215.742279" style="fill: #1f77b4; stroke: #1f77b4"/>
     <use xlink:href="#m75c8cdf5e5" x="410.521452" y="240.141416" style="fill: #1f77b4; stroke: #1f77b4"/>
     <use xlink:href="#m75c8cdf5e5" x="416.171654" y="191.831126" style="fill: #1f77b4; stroke: #1f77b4"/>
     <use xlink:href="#m75c8cdf5e5" x="421.825698" y="240.385407" style="fill: #1f77b4; stroke: #1f77b4"/>
     <use xlink:href="#m75c8cdf5e5" x="427.479057" y="215.986271" style="fill: #1f77b4; stroke: #1f77b4"/>
     <use xlink:href="#m75c8cdf5e5" x="433.127795" y="215.742279" style="fill: #1f77b4; stroke: #1f77b4"/>
     <use xlink:href="#m75c8cdf5e5" x="438.77664" y="215.742279" style="fill: #1f77b4; stroke: #1f77b4"/>
     <use xlink:href="#m75c8cdf5e5" x="444.425754" y="240.385407" style="fill: #1f77b4; stroke: #1f77b4"/>
     <use xlink:href="#m75c8cdf5e5" x="450.086246" y="191.831126" style="fill: #1f77b4; stroke: #1f77b4"/>
     <use xlink:href="#m75c8cdf5e5" x="455.734876" y="191.343143" style="fill: #1f77b4; stroke: #1f77b4"/>
     <use xlink:href="#m75c8cdf5e5" x="461.385361" y="215.986271" style="fill: #1f77b4; stroke: #1f77b4"/>
     <use xlink:href="#m75c8cdf5e5" x="467.03794" y="240.141416" style="fill: #1f77b4; stroke: #1f77b4"/>
     <use xlink:href="#m75c8cdf5e5" x="472.688223" y="215.742279" style="fill: #1f77b4; stroke: #1f77b4"/>
     <use xlink:href="#m75c8cdf5e5" x="478.337686" y="215.742279" style="fill: #1f77b4; stroke: #1f77b4"/>
     <use xlink:href="#m75c8cdf5e5" x="483.986545" y="215.742279" style="fill: #1f77b4; stroke: #1f77b4"/>
     <use xlink:href="#m75c8cdf5e5" x="489.635082" y="191.343143" style="fill: #1f77b4; stroke: #1f77b4"/>
     <use xlink:href="#m75c8cdf5e5" x="495.283484" y="240.141416" style="fill: #1f77b4; stroke: #1f77b4"/>
     <use xlink:href="#m75c8cdf5e5" x="500.932222" y="215.742279" style="fill: #1f77b4; stroke: #1f77b4"/>
     <use xlink:href="#m75c8cdf5e5" x="506.581551" y="240.141416" style="fill: #1f77b4; stroke: #1f77b4"/>
     <use xlink:href="#m75c8cdf5e5" x="512.231619" y="215.986271" style="fill: #1f77b4; stroke: #1f77b4"/>
     <use xlink:href="#m75c8cdf5e5" x="517.881418" y="191.343143" style="fill: #1f77b4; stroke: #1f77b4"/>
     <use xlink:href="#m75c8cdf5e5" x="523.529941" y="240.141416" style="fill: #1f77b4; stroke: #1f77b4"/>
     <use xlink:href="#m75c8cdf5e5" x="529.179619" y="240.141416" style="fill: #1f77b4; stroke: #1f77b4"/>
     <use xlink:href="#m75c8cdf5e5" x="534.828021" y="191.343143" style="fill: #1f77b4; stroke: #1f77b4"/>
     <use xlink:href="#m75c8cdf5e5" x="540.476947" y="240.141416" style="fill: #1f77b4; stroke: #1f77b4"/>
     <use xlink:href="#m75c8cdf5e5" x="546.125242" y="191.587134" style="fill: #1f77b4; stroke: #1f77b4"/>
     <use xlink:href="#m75c8cdf5e5" x="551.777835" y="215.986271" style="fill: #1f77b4; stroke: #1f77b4"/>
     <use xlink:href="#m75c8cdf5e5" x="557.428266" y="240.141416" style="fill: #1f77b4; stroke: #1f77b4"/>
     <use xlink:href="#m75c8cdf5e5" x="563.077635" y="240.385407" style="fill: #1f77b4; stroke: #1f77b4"/>
     <use xlink:href="#m75c8cdf5e5" x="568.735332" y="215.986271" style="fill: #1f77b4; stroke: #1f77b4"/>
     <use xlink:href="#m75c8cdf5e5" x="574.38446" y="167.187998" style="fill: #1f77b4; stroke: #1f77b4"/>
     <use xlink:href="#m75c8cdf5e5" x="580.03258" y="240.141416" style="fill: #1f77b4; stroke: #1f77b4"/>
     <use xlink:href="#m75c8cdf5e5" x="585.681976" y="240.141416" style="fill: #1f77b4; stroke: #1f77b4"/>
     <use xlink:href="#m75c8cdf5e5" x="591.329384" y="240.141416" style="fill: #1f77b4; stroke: #1f77b4"/>
     <use xlink:href="#m75c8cdf5e5" x="596.978915" y="215.742279" style="fill: #1f77b4; stroke: #1f77b4"/>
     <use xlink:href="#m75c8cdf5e5" x="602.627814" y="215.742279" style="fill: #1f77b4; stroke: #1f77b4"/>
     <use xlink:href="#m75c8cdf5e5" x="608.276082" y="191.343143" style="fill: #1f77b4; stroke: #1f77b4"/>
     <use xlink:href="#m75c8cdf5e5" x="613.924847" y="240.141416" style="fill: #1f77b4; stroke: #1f77b4"/>
     <use xlink:href="#m75c8cdf5e5" x="619.573302" y="215.742279" style="fill: #1f77b4; stroke: #1f77b4"/>
     <use xlink:href="#m75c8cdf5e5" x="625.222014" y="215.742279" style="fill: #1f77b4; stroke: #1f77b4"/>
     <use xlink:href="#m75c8cdf5e5" x="630.868293" y="239.897425" style="fill: #1f77b4; stroke: #1f77b4"/>
     <use xlink:href="#m75c8cdf5e5" x="636.517689" y="191.587134" style="fill: #1f77b4; stroke: #1f77b4"/>
     <use xlink:href="#m75c8cdf5e5" x="642.166441" y="215.742279" style="fill: #1f77b4; stroke: #1f77b4"/>
     <use xlink:href="#m75c8cdf5e5" x="647.814883" y="215.742279" style="fill: #1f77b4; stroke: #1f77b4"/>
     <use xlink:href="#m75c8cdf5e5" x="653.46307" y="240.141416" style="fill: #1f77b4; stroke: #1f77b4"/>
     <use xlink:href="#m75c8cdf5e5" x="659.111768" y="191.343143" style="fill: #1f77b4; stroke: #1f77b4"/>
     <use xlink:href="#m75c8cdf5e5" x="664.760023" y="215.742279" style="fill: #1f77b4; stroke: #1f77b4"/>
     <use xlink:href="#m75c8cdf5e5" x="670.40919" y="240.141416" style="fill: #1f77b4; stroke: #1f77b4"/>
     <use xlink:href="#m75c8cdf5e5" x="676.057297" y="215.742279" style="fill: #1f77b4; stroke: #1f77b4"/>
     <use xlink:href="#m75c8cdf5e5" x="681.706089" y="240.141416" style="fill: #1f77b4; stroke: #1f77b4"/>
     <use xlink:href="#m75c8cdf5e5" x="687.354451" y="215.742279" style="fill: #1f77b4; stroke: #1f77b4"/>
     <use xlink:href="#m75c8cdf5e5" x="693.003162" y="191.343143" style="fill: #1f77b4; stroke: #1f77b4"/>
     <use xlink:href="#m75c8cdf5e5" x="698.651725" y="215.742279" style="fill: #1f77b4; stroke: #1f77b4"/>
     <use xlink:href="#m75c8cdf5e5" x="704.302276" y="240.141416" style="fill: #1f77b4; stroke: #1f77b4"/>
     <use xlink:href="#m75c8cdf5e5" x="709.951552" y="215.742279" style="fill: #1f77b4; stroke: #1f77b4"/>
     <use xlink:href="#m75c8cdf5e5" x="715.600491" y="215.742279" style="fill: #1f77b4; stroke: #1f77b4"/>
     <use xlink:href="#m75c8cdf5e5" x="721.249444" y="192.075117" style="fill: #1f77b4; stroke: #1f77b4"/>
     <use xlink:href="#m75c8cdf5e5" x="726.912501" y="215.986271" style="fill: #1f77b4; stroke: #1f77b4"/>
     <use xlink:href="#m75c8cdf5e5" x="732.560366" y="240.141416" style="fill: #1f77b4; stroke: #1f77b4"/>
     <use xlink:href="#m75c8cdf5e5" x="738.211831" y="216.230262" style="fill: #1f77b4; stroke: #1f77b4"/>
     <use xlink:href="#m75c8cdf5e5" x="743.86973" y="215.986271" style="fill: #1f77b4; stroke: #1f77b4"/>
     <use xlink:href="#m75c8cdf5e5" x="749.518669" y="191.343143" style="fill: #1f77b4; stroke: #1f77b4"/>
     <use xlink:href="#m75c8cdf5e5" x="755.16726" y="215.742279" style="fill: #1f77b4; stroke: #1f77b4"/>
     <use xlink:href="#m75c8cdf5e5" x="760.83029" y="362.38109" style="fill: #1f77b4; stroke: #1f77b4"/>
     <use xlink:href="#m75c8cdf5e5" x="766.495201" y="507.799943" style="fill: #1f77b4; stroke: #1f77b4"/>
     <use xlink:href="#m75c8cdf5e5" x="772.172148" y="507.799943" style="fill: #1f77b4; stroke: #1f77b4"/>
     <use xlink:href="#m75c8cdf5e5" x="777.849309" y="507.799943" style="fill: #1f77b4; stroke: #1f77b4"/>
     <use xlink:href="#m75c8cdf5e5" x="783.523086" y="507.799943" style="fill: #1f77b4; stroke: #1f77b4"/>
     <use xlink:href="#m75c8cdf5e5" x="789.184128" y="507.799943" style="fill: #1f77b4; stroke: #1f77b4"/>
     <use xlink:href="#m75c8cdf5e5" x="794.856078" y="507.799943" style="fill: #1f77b4; stroke: #1f77b4"/>
     <use xlink:href="#m75c8cdf5e5" x="800.521002" y="507.799943" style="fill: #1f77b4; stroke: #1f77b4"/>
     <use xlink:href="#m75c8cdf5e5" x="806.189231" y="507.799943" style="fill: #1f77b4; stroke: #1f77b4"/>
     <use xlink:href="#m75c8cdf5e5" x="811.856331" y="507.799943" style="fill: #1f77b4; stroke: #1f77b4"/>
    </g>
   </g>
   <g id="line2d_33">
    <path d="M 86.365972 507.799943 
L 97.744327 507.799943 
L 109.085956 507.799943 
L 120.42557 507.799943 
L 131.759946 507.799943 
L 143.105108 507.799943 
L 148.782793 507.799943 
L 154.478989 507.799943 
L 160.16558 507.799943 
L 165.877089 507.799943 
L 171.5564 507.799943 
L 177.234609 507.799943 
L 182.914861 507.799943 
L 188.605012 507.799943 
L 194.293524 483.644798 
L 199.949583 264.784544 
L 205.606555 264.784544 
L 211.263057 264.784544 
L 216.919693 289.18368 
L 222.577377 240.629399 
L 228.235021 264.784544 
L 233.893391 264.784544 
L 239.55047 240.629399 
L 245.209914 289.18368 
L 250.866524 264.784544 
L 256.523455 240.629399 
L 262.18298 265.028535 
L 267.843257 289.18368 
L 273.500041 265.028535 
L 279.162198 264.784544 
L 284.818633 240.629399 
L 290.482066 265.028535 
L 296.139764 288.939689 
L 301.795608 240.385407 
L 307.452432 264.784544 
L 313.10837 289.18368 
L 318.765127 264.784544 
L 324.422019 264.784544 
L 330.079717 240.385407 
L 335.736031 264.784544 
L 341.392358 264.784544 
L 347.049908 264.784544 
L 352.706222 264.784544 
L 358.362402 264.784544 
L 364.02331 264.784544 
L 369.679153 264.784544 
L 375.336099 264.784544 
L 380.993608 264.784544 
L 386.651816 264.784544 
L 392.306747 288.939689 
L 397.962483 241.361373 
L 403.64718 265.272527 
L 409.303065 264.784544 
L 414.960171 264.784544 
L 420.616351 264.784544 
L 426.272316 289.18368 
L 431.929006 240.385407 
L 437.58497 264.784544 
L 443.239471 264.784544 
L 448.896457 264.784544 
L 454.552462 264.784544 
L 460.208789 264.784544 
L 465.86513 264.784544 
L 471.521686 264.784544 
L 477.178027 265.028535 
L 482.840802 265.028535 
L 488.503255 265.028535 
L 494.165681 265.028535 
L 499.821981 264.784544 
L 505.479316 264.784544 
L 511.13653 264.784544 
L 516.792858 240.385407 
L 522.449413 289.18368 
L 528.112188 265.028535 
L 533.775246 264.784544 
L 539.432943 264.784544 
L 545.089378 264.784544 
L 550.747264 241.605364 
L 556.428576 289.18368 
L 562.085723 264.784544 
L 567.740103 264.784544 
L 573.397115 264.784544 
L 579.053537 264.784544 
L 584.71016 240.629399 
L 590.368556 289.18368 
L 596.027865 264.784544 
L 601.686033 264.784544 
L 607.342925 264.784544 
L 613.0012 240.629399 
L 618.657876 264.784544 
L 624.315547 265.028535 
L 629.978067 265.028535 
L 635.634596 289.18368 
L 641.293207 240.629399 
L 646.955015 289.18368 
L 652.612605 240.629399 
L 658.270988 264.784544 
L 663.928135 264.784544 
L 669.584287 264.784544 
L 675.241784 264.784544 
L 680.898406 264.784544 
L 686.554277 289.18368 
L 692.210578 240.629399 
L 697.87072 264.784544 
L 703.527128 264.784544 
L 709.18492 264.784544 
L 714.842389 264.784544 
L 720.502773 264.784544 
L 726.158926 240.385407 
L 731.81258 288.939689 
L 737.469606 264.784544 
L 743.125732 264.784544 
L 748.782234 264.784544 
L 754.43965 264.784544 
L 760.098959 338.469936 
L 765.789473 507.799943 
L 771.508545 507.799943 
L 777.201221 507.799943 
L 782.898867 507.799943 
L 788.588615 507.799943 
L 794.292548 507.799943 
L 799.998819 507.799943 
L 805.706996 507.799943 
L 811.399982 507.799943 
" clip-path="url(#p35ff988a47)" style="fill: none; stroke: #ff7f0e; stroke-width: 2; stroke-linecap: square"/>
    <defs>
     <path id="ma73f7b3649" d="M 0 2 
C 0.530406 2 1.03916 1.789267 1.414214 1.414214 
C 1.789267 1.03916 2 0.530406 2 0 
C 2 -0.530406 1.789267 -1.03916 1.414214 -1.414214 
C 1.03916 -1.789267 0.530406 -2 0 -2 
C -0.530406 -2 -1.03916 -1.789267 -1.414214 -1.414214 
C -1.789267 -1.03916 -2 -0.530406 -2 0 
C -2 0.530406 -1.789267 1.03916 -1.414214 1.414214 
C -1.03916 1.789267 -0.530406 2 0 2 
z
" style="stroke: #ff7f0e"/>
    </defs>
    <g clip-path="url(#p35ff988a47)">
     <use xlink:href="#ma73f7b3649" x="86.365972" y="507.799943" style="fill: #ff7f0e; stroke: #ff7f0e"/>
     <use xlink:href="#ma73f7b3649" x="97.744327" y="507.799943" style="fill: #ff7f0e; stroke: #ff7f0e"/>
     <use xlink:href="#ma73f7b3649" x="109.085956" y="507.799943" style="fill: #ff7f0e; stroke: #ff7f0e"/>
     <use xlink:href="#ma73f7b3649" x="120.42557" y="507.799943" style="fill: #ff7f0e; stroke: #ff7f0e"/>
     <use xlink:href="#ma73f7b3649" x="131.759946" y="507.799943" style="fill: #ff7f0e; stroke: #ff7f0e"/>
     <use xlink:href="#ma73f7b3649" x="143.105108" y="507.799943" style="fill: #ff7f0e; stroke: #ff7f0e"/>
     <use xlink:href="#ma73f7b3649" x="148.782793" y="507.799943" style="fill: #ff7f0e; stroke: #ff7f0e"/>
     <use xlink:href="#ma73f7b3649" x="154.478989" y="507.799943" style="fill: #ff7f0e; stroke: #ff7f0e"/>
     <use xlink:href="#ma73f7b3649" x="160.16558" y="507.799943" style="fill: #ff7f0e; stroke: #ff7f0e"/>
     <use xlink:href="#ma73f7b3649" x="165.877089" y="507.799943" style="fill: #ff7f0e; stroke: #ff7f0e"/>
     <use xlink:href="#ma73f7b3649" x="171.5564" y="507.799943" style="fill: #ff7f0e; stroke: #ff7f0e"/>
     <use xlink:href="#ma73f7b3649" x="177.234609" y="507.799943" style="fill: #ff7f0e; stroke: #ff7f0e"/>
     <use xlink:href="#ma73f7b3649" x="182.914861" y="507.799943" style="fill: #ff7f0e; stroke: #ff7f0e"/>
     <use xlink:href="#ma73f7b3649" x="188.605012" y="507.799943" style="fill: #ff7f0e; stroke: #ff7f0e"/>
     <use xlink:href="#ma73f7b3649" x="194.293524" y="483.644798" style="fill: #ff7f0e; stroke: #ff7f0e"/>
     <use xlink:href="#ma73f7b3649" x="199.949583" y="264.784544" style="fill: #ff7f0e; stroke: #ff7f0e"/>
     <use xlink:href="#ma73f7b3649" x="205.606555" y="264.784544" style="fill: #ff7f0e; stroke: #ff7f0e"/>
     <use xlink:href="#ma73f7b3649" x="211.263057" y="264.784544" style="fill: #ff7f0e; stroke: #ff7f0e"/>
     <use xlink:href="#ma73f7b3649" x="216.919693" y="289.18368" style="fill: #ff7f0e; stroke: #ff7f0e"/>
     <use xlink:href="#ma73f7b3649" x="222.577377" y="240.629399" style="fill: #ff7f0e; stroke: #ff7f0e"/>
     <use xlink:href="#ma73f7b3649" x="228.235021" y="264.784544" style="fill: #ff7f0e; stroke: #ff7f0e"/>
     <use xlink:href="#ma73f7b3649" x="233.893391" y="264.784544" style="fill: #ff7f0e; stroke: #ff7f0e"/>
     <use xlink:href="#ma73f7b3649" x="239.55047" y="240.629399" style="fill: #ff7f0e; stroke: #ff7f0e"/>
     <use xlink:href="#ma73f7b3649" x="245.209914" y="289.18368" style="fill: #ff7f0e; stroke: #ff7f0e"/>
     <use xlink:href="#ma73f7b3649" x="250.866524" y="264.784544" style="fill: #ff7f0e; stroke: #ff7f0e"/>
     <use xlink:href="#ma73f7b3649" x="256.523455" y="240.629399" style="fill: #ff7f0e; stroke: #ff7f0e"/>
     <use xlink:href="#ma73f7b3649" x="262.18298" y="265.028535" style="fill: #ff7f0e; stroke: #ff7f0e"/>
     <use xlink:href="#ma73f7b3649" x="267.843257" y="289.18368" style="fill: #ff7f0e; stroke: #ff7f0e"/>
     <use xlink:href="#ma73f7b3649" x="273.500041" y="265.028535" style="fill: #ff7f0e; stroke: #ff7f0e"/>
     <use xlink:href="#ma73f7b3649" x="279.162198" y="264.784544" style="fill: #ff7f0e; stroke: #ff7f0e"/>
     <use xlink:href="#ma73f7b3649" x="284.818633" y="240.629399" style="fill: #ff7f0e; stroke: #ff7f0e"/>
     <use xlink:href="#ma73f7b3649" x="290.482066" y="265.028535" style="fill: #ff7f0e; stroke: #ff7f0e"/>
     <use xlink:href="#ma73f7b3649" x="296.139764" y="288.939689" style="fill: #ff7f0e; stroke: #ff7f0e"/>
     <use xlink:href="#ma73f7b3649" x="301.795608" y="240.385407" style="fill: #ff7f0e; stroke: #ff7f0e"/>
     <use xlink:href="#ma73f7b3649" x="307.452432" y="264.784544" style="fill: #ff7f0e; stroke: #ff7f0e"/>
     <use xlink:href="#ma73f7b3649" x="313.10837" y="289.18368" style="fill: #ff7f0e; stroke: #ff7f0e"/>
     <use xlink:href="#ma73f7b3649" x="318.765127" y="264.784544" style="fill: #ff7f0e; stroke: #ff7f0e"/>
     <use xlink:href="#ma73f7b3649" x="324.422019" y="264.784544" style="fill: #ff7f0e; stroke: #ff7f0e"/>
     <use xlink:href="#ma73f7b3649" x="330.079717" y="240.385407" style="fill: #ff7f0e; stroke: #ff7f0e"/>
     <use xlink:href="#ma73f7b3649" x="335.736031" y="264.784544" style="fill: #ff7f0e; stroke: #ff7f0e"/>
     <use xlink:href="#ma73f7b3649" x="341.392358" y="264.784544" style="fill: #ff7f0e; stroke: #ff7f0e"/>
     <use xlink:href="#ma73f7b3649" x="347.049908" y="264.784544" style="fill: #ff7f0e; stroke: #ff7f0e"/>
     <use xlink:href="#ma73f7b3649" x="352.706222" y="264.784544" style="fill: #ff7f0e; stroke: #ff7f0e"/>
     <use xlink:href="#ma73f7b3649" x="358.362402" y="264.784544" style="fill: #ff7f0e; stroke: #ff7f0e"/>
     <use xlink:href="#ma73f7b3649" x="364.02331" y="264.784544" style="fill: #ff7f0e; stroke: #ff7f0e"/>
     <use xlink:href="#ma73f7b3649" x="369.679153" y="264.784544" style="fill: #ff7f0e; stroke: #ff7f0e"/>
     <use xlink:href="#ma73f7b3649" x="375.336099" y="264.784544" style="fill: #ff7f0e; stroke: #ff7f0e"/>
     <use xlink:href="#ma73f7b3649" x="380.993608" y="264.784544" style="fill: #ff7f0e; stroke: #ff7f0e"/>
     <use xlink:href="#ma73f7b3649" x="386.651816" y="264.784544" style="fill: #ff7f0e; stroke: #ff7f0e"/>
     <use xlink:href="#ma73f7b3649" x="392.306747" y="288.939689" style="fill: #ff7f0e; stroke: #ff7f0e"/>
     <use xlink:href="#ma73f7b3649" x="397.962483" y="241.361373" style="fill: #ff7f0e; stroke: #ff7f0e"/>
     <use xlink:href="#ma73f7b3649" x="403.64718" y="265.272527" style="fill: #ff7f0e; stroke: #ff7f0e"/>
     <use xlink:href="#ma73f7b3649" x="409.303065" y="264.784544" style="fill: #ff7f0e; stroke: #ff7f0e"/>
     <use xlink:href="#ma73f7b3649" x="414.960171" y="264.784544" style="fill: #ff7f0e; stroke: #ff7f0e"/>
     <use xlink:href="#ma73f7b3649" x="420.616351" y="264.784544" style="fill: #ff7f0e; stroke: #ff7f0e"/>
     <use xlink:href="#ma73f7b3649" x="426.272316" y="289.18368" style="fill: #ff7f0e; stroke: #ff7f0e"/>
     <use xlink:href="#ma73f7b3649" x="431.929006" y="240.385407" style="fill: #ff7f0e; stroke: #ff7f0e"/>
     <use xlink:href="#ma73f7b3649" x="437.58497" y="264.784544" style="fill: #ff7f0e; stroke: #ff7f0e"/>
     <use xlink:href="#ma73f7b3649" x="443.239471" y="264.784544" style="fill: #ff7f0e; stroke: #ff7f0e"/>
     <use xlink:href="#ma73f7b3649" x="448.896457" y="264.784544" style="fill: #ff7f0e; stroke: #ff7f0e"/>
     <use xlink:href="#ma73f7b3649" x="454.552462" y="264.784544" style="fill: #ff7f0e; stroke: #ff7f0e"/>
     <use xlink:href="#ma73f7b3649" x="460.208789" y="264.784544" style="fill: #ff7f0e; stroke: #ff7f0e"/>
     <use xlink:href="#ma73f7b3649" x="465.86513" y="264.784544" style="fill: #ff7f0e; stroke: #ff7f0e"/>
     <use xlink:href="#ma73f7b3649" x="471.521686" y="264.784544" style="fill: #ff7f0e; stroke: #ff7f0e"/>
     <use xlink:href="#ma73f7b3649" x="477.178027" y="265.028535" style="fill: #ff7f0e; stroke: #ff7f0e"/>
     <use xlink:href="#ma73f7b3649" x="482.840802" y="265.028535" style="fill: #ff7f0e; stroke: #ff7f0e"/>
     <use xlink:href="#ma73f7b3649" x="488.503255" y="265.028535" style="fill: #ff7f0e; stroke: #ff7f0e"/>
     <use xlink:href="#ma73f7b3649" x="494.165681" y="265.028535" style="fill: #ff7f0e; stroke: #ff7f0e"/>
     <use xlink:href="#ma73f7b3649" x="499.821981" y="264.784544" style="fill: #ff7f0e; stroke: #ff7f0e"/>
     <use xlink:href="#ma73f7b3649" x="505.479316" y="264.784544" style="fill: #ff7f0e; stroke: #ff7f0e"/>
     <use xlink:href="#ma73f7b3649" x="511.13653" y="264.784544" style="fill: #ff7f0e; stroke: #ff7f0e"/>
     <use xlink:href="#ma73f7b3649" x="516.792858" y="240.385407" style="fill: #ff7f0e; stroke: #ff7f0e"/>
     <use xlink:href="#ma73f7b3649" x="522.449413" y="289.18368" style="fill: #ff7f0e; stroke: #ff7f0e"/>
     <use xlink:href="#ma73f7b3649" x="528.112188" y="265.028535" style="fill: #ff7f0e; stroke: #ff7f0e"/>
     <use xlink:href="#ma73f7b3649" x="533.775246" y="264.784544" style="fill: #ff7f0e; stroke: #ff7f0e"/>
     <use xlink:href="#ma73f7b3649" x="539.432943" y="264.784544" style="fill: #ff7f0e; stroke: #ff7f0e"/>
     <use xlink:href="#ma73f7b3649" x="545.089378" y="264.784544" style="fill: #ff7f0e; stroke: #ff7f0e"/>
     <use xlink:href="#ma73f7b3649" x="550.747264" y="241.605364" style="fill: #ff7f0e; stroke: #ff7f0e"/>
     <use xlink:href="#ma73f7b3649" x="556.428576" y="289.18368" style="fill: #ff7f0e; stroke: #ff7f0e"/>
     <use xlink:href="#ma73f7b3649" x="562.085723" y="264.784544" style="fill: #ff7f0e; stroke: #ff7f0e"/>
     <use xlink:href="#ma73f7b3649" x="567.740103" y="264.784544" style="fill: #ff7f0e; stroke: #ff7f0e"/>
     <use xlink:href="#ma73f7b3649" x="573.397115" y="264.784544" style="fill: #ff7f0e; stroke: #ff7f0e"/>
     <use xlink:href="#ma73f7b3649" x="579.053537" y="264.784544" style="fill: #ff7f0e; stroke: #ff7f0e"/>
     <use xlink:href="#ma73f7b3649" x="584.71016" y="240.629399" style="fill: #ff7f0e; stroke: #ff7f0e"/>
     <use xlink:href="#ma73f7b3649" x="590.368556" y="289.18368" style="fill: #ff7f0e; stroke: #ff7f0e"/>
     <use xlink:href="#ma73f7b3649" x="596.027865" y="264.784544" style="fill: #ff7f0e; stroke: #ff7f0e"/>
     <use xlink:href="#ma73f7b3649" x="601.686033" y="264.784544" style="fill: #ff7f0e; stroke: #ff7f0e"/>
     <use xlink:href="#ma73f7b3649" x="607.342925" y="264.784544" style="fill: #ff7f0e; stroke: #ff7f0e"/>
     <use xlink:href="#ma73f7b3649" x="613.0012" y="240.629399" style="fill: #ff7f0e; stroke: #ff7f0e"/>
     <use xlink:href="#ma73f7b3649" x="618.657876" y="264.784544" style="fill: #ff7f0e; stroke: #ff7f0e"/>
     <use xlink:href="#ma73f7b3649" x="624.315547" y="265.028535" style="fill: #ff7f0e; stroke: #ff7f0e"/>
     <use xlink:href="#ma73f7b3649" x="629.978067" y="265.028535" style="fill: #ff7f0e; stroke: #ff7f0e"/>
     <use xlink:href="#ma73f7b3649" x="635.634596" y="289.18368" style="fill: #ff7f0e; stroke: #ff7f0e"/>
     <use xlink:href="#ma73f7b3649" x="641.293207" y="240.629399" style="fill: #ff7f0e; stroke: #ff7f0e"/>
     <use xlink:href="#ma73f7b3649" x="646.955015" y="289.18368" style="fill: #ff7f0e; stroke: #ff7f0e"/>
     <use xlink:href="#ma73f7b3649" x="652.612605" y="240.629399" style="fill: #ff7f0e; stroke: #ff7f0e"/>
     <use xlink:href="#ma73f7b3649" x="658.270988" y="264.784544" style="fill: #ff7f0e; stroke: #ff7f0e"/>
     <use xlink:href="#ma73f7b3649" x="663.928135" y="264.784544" style="fill: #ff7f0e; stroke: #ff7f0e"/>
     <use xlink:href="#ma73f7b3649" x="669.584287" y="264.784544" style="fill: #ff7f0e; stroke: #ff7f0e"/>
     <use xlink:href="#ma73f7b3649" x="675.241784" y="264.784544" style="fill: #ff7f0e; stroke: #ff7f0e"/>
     <use xlink:href="#ma73f7b3649" x="680.898406" y="264.784544" style="fill: #ff7f0e; stroke: #ff7f0e"/>
     <use xlink:href="#ma73f7b3649" x="686.554277" y="289.18368" style="fill: #ff7f0e; stroke: #ff7f0e"/>
     <use xlink:href="#ma73f7b3649" x="692.210578" y="240.629399" style="fill: #ff7f0e; stroke: #ff7f0e"/>
     <use xlink:href="#ma73f7b3649" x="697.87072" y="264.784544" style="fill: #ff7f0e; stroke: #ff7f0e"/>
     <use xlink:href="#ma73f7b3649" x="703.527128" y="264.784544" style="fill: #ff7f0e; stroke: #ff7f0e"/>
     <use xlink:href="#ma73f7b3649" x="709.18492" y="264.784544" style="fill: #ff7f0e; stroke: #ff7f0e"/>
     <use xlink:href="#ma73f7b3649" x="714.842389" y="264.784544" style="fill: #ff7f0e; stroke: #ff7f0e"/>
     <use xlink:href="#ma73f7b3649" x="720.502773" y="264.784544" style="fill: #ff7f0e; stroke: #ff7f0e"/>
     <use xlink:href="#ma73f7b3649" x="726.158926" y="240.385407" style="fill: #ff7f0e; stroke: #ff7f0e"/>
     <use xlink:href="#ma73f7b3649" x="731.81258" y="288.939689" style="fill: #ff7f0e; stroke: #ff7f0e"/>
     <use xlink:href="#ma73f7b3649" x="737.469606" y="264.784544" style="fill: #ff7f0e; stroke: #ff7f0e"/>
     <use xlink:href="#ma73f7b3649" x="743.125732" y="264.784544" style="fill: #ff7f0e; stroke: #ff7f0e"/>
     <use xlink:href="#ma73f7b3649" x="748.782234" y="264.784544" style="fill: #ff7f0e; stroke: #ff7f0e"/>
     <use xlink:href="#ma73f7b3649" x="754.43965" y="264.784544" style="fill: #ff7f0e; stroke: #ff7f0e"/>
     <use xlink:href="#ma73f7b3649" x="760.098959" y="338.469936" style="fill: #ff7f0e; stroke: #ff7f0e"/>
     <use xlink:href="#ma73f7b3649" x="765.789473" y="507.799943" style="fill: #ff7f0e; stroke: #ff7f0e"/>
     <use xlink:href="#ma73f7b3649" x="771.508545" y="507.799943" style="fill: #ff7f0e; stroke: #ff7f0e"/>
     <use xlink:href="#ma73f7b3649" x="777.201221" y="507.799943" style="fill: #ff7f0e; stroke: #ff7f0e"/>
     <use xlink:href="#ma73f7b3649" x="782.898867" y="507.799943" style="fill: #ff7f0e; stroke: #ff7f0e"/>
     <use xlink:href="#ma73f7b3649" x="788.588615" y="507.799943" style="fill: #ff7f0e; stroke: #ff7f0e"/>
     <use xlink:href="#ma73f7b3649" x="794.292548" y="507.799943" style="fill: #ff7f0e; stroke: #ff7f0e"/>
     <use xlink:href="#ma73f7b3649" x="799.998819" y="507.799943" style="fill: #ff7f0e; stroke: #ff7f0e"/>
     <use xlink:href="#ma73f7b3649" x="805.706996" y="507.799943" style="fill: #ff7f0e; stroke: #ff7f0e"/>
     <use xlink:href="#ma73f7b3649" x="811.399982" y="507.799943" style="fill: #ff7f0e; stroke: #ff7f0e"/>
    </g>
   </g>
   <g id="patch_3">
    <path d="M 46.965625 530.918125 
L 46.965625 22.318125 
" style="fill: none; stroke: #000000; stroke-width: 0.8; stroke-linejoin: miter; stroke-linecap: square"/>
   </g>
   <g id="patch_4">
    <path d="M 849.115625 530.918125 
L 849.115625 22.318125 
" style="fill: none; stroke: #000000; stroke-width: 0.8; stroke-linejoin: miter; stroke-linecap: square"/>
   </g>
   <g id="patch_5">
    <path d="M 46.965625 530.918125 
L 849.115625 530.918125 
" style="fill: none; stroke: #000000; stroke-width: 0.8; stroke-linejoin: miter; stroke-linecap: square"/>
   </g>
   <g id="patch_6">
    <path d="M 46.965625 22.318125 
L 849.115625 22.318125 
" style="fill: none; stroke: #000000; stroke-width: 0.8; stroke-linejoin: miter; stroke-linecap: square"/>
   </g>
   <g id="text_18">
    <!-- CPU Usage Comparison Over Time -->
    <g transform="translate(344.4825 16.318125) scale(0.12 -0.12)">
     <defs>
      <path id="DejaVuSans-72" d="M 2631 2963 
Q 2534 3019 2420 3045 
Q 2306 3072 2169 3072 
Q 1681 3072 1420 2755 
Q 1159 2438 1159 1844 
L 1159 0 
L 581 0 
L 581 3500 
L 1159 3500 
L 1159 2956 
Q 1341 3275 1631 3429 
Q 1922 3584 2338 3584 
Q 2397 3584 2469 3576 
Q 2541 3569 2628 3553 
L 2631 2963 
z
" transform="scale(0.015625)"/>
      <path id="DejaVuSans-4f" d="M 2522 4238 
Q 1834 4238 1429 3725 
Q 1025 3213 1025 2328 
Q 1025 1447 1429 934 
Q 1834 422 2522 422 
Q 3209 422 3611 934 
Q 4013 1447 4013 2328 
Q 4013 3213 3611 3725 
Q 3209 4238 2522 4238 
z
M 2522 4750 
Q 3503 4750 4090 4092 
Q 4678 3434 4678 2328 
Q 4678 1225 4090 567 
Q 3503 -91 2522 -91 
Q 1538 -91 948 565 
Q 359 1222 359 2328 
Q 359 3434 948 4092 
Q 1538 4750 2522 4750 
z
" transform="scale(0.015625)"/>
      <path id="DejaVuSans-76" d="M 191 3500 
L 800 3500 
L 1894 563 
L 2988 3500 
L 3597 3500 
L 2284 0 
L 1503 0 
L 191 3500 
z
" transform="scale(0.015625)"/>
     </defs>
     <use xlink:href="#DejaVuSans-43"/>
     <use xlink:href="#DejaVuSans-50" x="69.824219"/>
     <use xlink:href="#DejaVuSans-55" x="130.126953"/>
     <use xlink:href="#DejaVuSans-20" x="203.320312"/>
     <use xlink:href="#DejaVuSans-55" x="235.107422"/>
     <use xlink:href="#DejaVuSans-73" x="308.300781"/>
     <use xlink:href="#DejaVuSans-61" x="360.400391"/>
     <use xlink:href="#DejaVuSans-67" x="421.679688"/>
     <use xlink:href="#DejaVuSans-65" x="485.15625"/>
     <use xlink:href="#DejaVuSans-20" x="546.679688"/>
     <use xlink:href="#DejaVuSans-43" x="578.466797"/>
     <use xlink:href="#DejaVuSans-6f" x="648.291016"/>
     <use xlink:href="#DejaVuSans-6d" x="709.472656"/>
     <use xlink:href="#DejaVuSans-70" x="806.884766"/>
     <use xlink:href="#DejaVuSans-61" x="870.361328"/>
     <use xlink:href="#DejaVuSans-72" x="931.640625"/>
     <use xlink:href="#DejaVuSans-69" x="972.753906"/>
     <use xlink:href="#DejaVuSans-73" x="1000.537109"/>
     <use xlink:href="#DejaVuSans-6f" x="1052.636719"/>
     <use xlink:href="#DejaVuSans-6e" x="1113.818359"/>
     <use xlink:href="#DejaVuSans-20" x="1177.197266"/>
     <use xlink:href="#DejaVuSans-4f" x="1208.984375"/>
     <use xlink:href="#DejaVuSans-76" x="1287.695312"/>
     <use xlink:href="#DejaVuSans-65" x="1346.875"/>
     <use xlink:href="#DejaVuSans-72" x="1408.398438"/>
     <use xlink:href="#DejaVuSans-20" x="1449.511719"/>
     <use xlink:href="#DejaVuSans-54" x="1481.298828"/>
     <use xlink:href="#DejaVuSans-69" x="1539.257812"/>
     <use xlink:href="#DejaVuSans-6d" x="1567.041016"/>
     <use xlink:href="#DejaVuSans-65" x="1664.453125"/>
    </g>
   </g>
   <g id="legend_1">
    <g id="patch_7">
     <path d="M 773.473438 74.3525 
L 842.115625 74.3525 
Q 844.115625 74.3525 844.115625 72.3525 
L 844.115625 29.318125 
Q 844.115625 27.318125 842.115625 27.318125 
L 773.473438 27.318125 
Q 771.473438 27.318125 771.473438 29.318125 
L 771.473438 72.3525 
Q 771.473438 74.3525 773.473438 74.3525 
z
" style="fill: #ffffff; opacity: 0.8; stroke: #cccccc; stroke-linejoin: miter"/>
    </g>
    <g id="line2d_34">
     <path d="M 775.473438 35.416562 
L 785.473438 35.416562 
L 795.473438 35.416562 
" style="fill: none; stroke: #2ca02c; stroke-width: 2; stroke-linecap: square"/>
     <g>
      <use xlink:href="#m01a1327913" x="785.473438" y="35.416562" style="fill: #2ca02c; stroke: #2ca02c"/>
     </g>
    </g>
    <g id="text_19">
     <!-- weaver -->
     <g transform="translate(803.473438 38.916562) scale(0.1 -0.1)">
      <defs>
       <path id="DejaVuSans-77" d="M 269 3500 
L 844 3500 
L 1563 769 
L 2278 3500 
L 2956 3500 
L 3675 769 
L 4391 3500 
L 4966 3500 
L 4050 0 
L 3372 0 
L 2619 2869 
L 1863 0 
L 1184 0 
L 269 3500 
z
" transform="scale(0.015625)"/>
      </defs>
      <use xlink:href="#DejaVuSans-77"/>
      <use xlink:href="#DejaVuSans-65" x="81.787109"/>
      <use xlink:href="#DejaVuSans-61" x="143.310547"/>
      <use xlink:href="#DejaVuSans-76" x="204.589844"/>
      <use xlink:href="#DejaVuSans-65" x="263.769531"/>
      <use xlink:href="#DejaVuSans-72" x="325.292969"/>
     </g>
    </g>
    <g id="line2d_35">
     <path d="M 775.473438 50.094687 
L 785.473438 50.094687 
L 795.473438 50.094687 
" style="fill: none; stroke: #1f77b4; stroke-width: 2; stroke-linecap: square"/>
     <g>
      <use xlink:href="#m75c8cdf5e5" x="785.473438" y="50.094687" style="fill: #1f77b4; stroke: #1f77b4"/>
     </g>
    </g>
    <g id="text_20">
     <!-- node -->
     <g transform="translate(803.473438 53.594687) scale(0.1 -0.1)">
      <use xlink:href="#DejaVuSans-6e"/>
      <use xlink:href="#DejaVuSans-6f" x="63.378906"/>
      <use xlink:href="#DejaVuSans-64" x="124.560547"/>
      <use xlink:href="#DejaVuSans-65" x="188.037109"/>
     </g>
    </g>
    <g id="line2d_36">
     <path d="M 775.473438 64.772812 
L 785.473438 64.772812 
L 795.473438 64.772812 
" style="fill: none; stroke: #ff7f0e; stroke-width: 2; stroke-linecap: square"/>
     <g>
      <use xlink:href="#ma73f7b3649" x="785.473438" y="64.772812" style="fill: #ff7f0e; stroke: #ff7f0e"/>
     </g>
    </g>
    <g id="text_21">
     <!-- python -->
     <g transform="translate(803.473438 68.272812) scale(0.1 -0.1)">
      <defs>
       <path id="DejaVuSans-79" d="M 2059 -325 
Q 1816 -950 1584 -1140 
Q 1353 -1331 966 -1331 
L 506 -1331 
L 506 -850 
L 844 -850 
Q 1081 -850 1212 -737 
Q 1344 -625 1503 -206 
L 1606 56 
L 191 3500 
L 800 3500 
L 1894 763 
L 2988 3500 
L 3597 3500 
L 2059 -325 
z
" transform="scale(0.015625)"/>
       <path id="DejaVuSans-74" d="M 1172 4494 
L 1172 3500 
L 2356 3500 
L 2356 3053 
L 1172 3053 
L 1172 1153 
Q 1172 725 1289 603 
Q 1406 481 1766 481 
L 2356 481 
L 2356 0 
L 1766 0 
Q 1100 0 847 248 
Q 594 497 594 1153 
L 594 3053 
L 172 3053 
L 172 3500 
L 594 3500 
L 594 4494 
L 1172 4494 
z
" transform="scale(0.015625)"/>
       <path id="DejaVuSans-68" d="M 3513 2113 
L 3513 0 
L 2938 0 
L 2938 2094 
Q 2938 2591 2744 2837 
Q 2550 3084 2163 3084 
Q 1697 3084 1428 2787 
Q 1159 2491 1159 1978 
L 1159 0 
L 581 0 
L 581 4863 
L 1159 4863 
L 1159 2956 
Q 1366 3272 1645 3428 
Q 1925 3584 2291 3584 
Q 2894 3584 3203 3211 
Q 3513 2838 3513 2113 
z
" transform="scale(0.015625)"/>
      </defs>
      <use xlink:href="#DejaVuSans-70"/>
      <use xlink:href="#DejaVuSans-79" x="63.476562"/>
      <use xlink:href="#DejaVuSans-74" x="122.65625"/>
      <use xlink:href="#DejaVuSans-68" x="161.865234"/>
      <use xlink:href="#DejaVuSans-6f" x="225.244141"/>
      <use xlink:href="#DejaVuSans-6e" x="286.425781"/>
     </g>
    </g>
   </g>
  </g>
 </g>
 <defs>
  <clipPath id="p35ff988a47">
   <rect x="46.965625" y="22.318125" width="802.15" height="508.6"/>
  </clipPath>
 </defs>
</svg>
