<?xml version="1.0" encoding="utf-8" standalone="no"?>
<!DOCTYPE svg PUBLIC "-//W3C//DTD SVG 1.1//EN"
  "http://www.w3.org/Graphics/SVG/1.1/DTD/svg11.dtd">
<svg xmlns:xlink="http://www.w3.org/1999/xlink" width="856.315625pt" height="568.474375pt" viewBox="0 0 856.315625 568.474375" xmlns="http://www.w3.org/2000/svg" version="1.1">
 <metadata>
  <rdf:RDF xmlns:dc="http://purl.org/dc/elements/1.1/" xmlns:cc="http://creativecommons.org/ns#" xmlns:rdf="http://www.w3.org/1999/02/22-rdf-syntax-ns#">
   <cc:Work>
    <dc:type rdf:resource="http://purl.org/dc/dcmitype/StillImage"/>
    <dc:date>2025-06-27T15:22:00.965983</dc:date>
    <dc:format>image/svg+xml</dc:format>
    <dc:creator>
     <cc:Agent>
      <dc:title>Matplotlib v3.6.3, https://matplotlib.org/</dc:title>
     </cc:Agent>
    </dc:creator>
   </cc:Work>
  </rdf:RDF>
 </metadata>
 <defs>
  <style type="text/css">*{stroke-linejoin: round; stroke-linecap: butt}</style>
 </defs>
 <g id="figure_1">
  <g id="patch_1">
   <path d="M 0 568.474375 
L 856.315625 568.474375 
L 856.315625 0 
L 0 0 
z
" style="fill: #ffffff"/>
  </g>
  <g id="axes_1">
   <g id="patch_2">
    <path d="M 46.965625 530.918125 
L 849.115625 530.918125 
L 849.115625 22.318125 
L 46.965625 22.318125 
z
" style="fill: #ffffff"/>
   </g>
   <g id="matplotlib.axis_1">
    <g id="xtick_1">
     <g id="line2d_1">
      <path d="M 82.411516 530.918125 
L 82.411516 22.318125 
" clip-path="url(#p854d89687a)" style="fill: none; stroke: #b0b0b0; stroke-opacity: 0.3; stroke-width: 0.8; stroke-linecap: square"/>
     </g>
     <g id="line2d_2">
      <defs>
       <path id="m9847dc3a67" d="M 0 0 
L 0 3.5 
" style="stroke: #000000; stroke-width: 0.8"/>
      </defs>
      <g>
       <use xlink:href="#m9847dc3a67" x="82.411516" y="530.918125" style="stroke: #000000; stroke-width: 0.8"/>
      </g>
     </g>
     <g id="text_1">
      <!-- 0 -->
      <g transform="translate(79.230266 545.516562) scale(0.1 -0.1)">
       <defs>
        <path id="DejaVuSans-30" d="M 2034 4250 
Q 1547 4250 1301 3770 
Q 1056 3291 1056 2328 
Q 1056 1369 1301 889 
Q 1547 409 2034 409 
Q 2525 409 2770 889 
Q 3016 1369 3016 2328 
Q 3016 3291 2770 3770 
Q 2525 4250 2034 4250 
z
M 2034 4750 
Q 2819 4750 3233 4129 
Q 3647 3509 3647 2328 
Q 3647 1150 3233 529 
Q 2819 -91 2034 -91 
Q 1250 -91 836 529 
Q 422 1150 422 2328 
Q 422 3509 836 4129 
Q 1250 4750 2034 4750 
z
" transform="scale(0.015625)"/>
       </defs>
       <use xlink:href="#DejaVuSans-30"/>
      </g>
     </g>
    </g>
    <g id="xtick_2">
     <g id="line2d_3">
      <path d="M 195.093281 530.918125 
L 195.093281 22.318125 
" clip-path="url(#p854d89687a)" style="fill: none; stroke: #b0b0b0; stroke-opacity: 0.3; stroke-width: 0.8; stroke-linecap: square"/>
     </g>
     <g id="line2d_4">
      <g>
       <use xlink:href="#m9847dc3a67" x="195.093281" y="530.918125" style="stroke: #000000; stroke-width: 0.8"/>
      </g>
     </g>
     <g id="text_2">
      <!-- 2 -->
      <g transform="translate(191.912031 545.516562) scale(0.1 -0.1)">
       <defs>
        <path id="DejaVuSans-32" d="M 1228 531 
L 3431 531 
L 3431 0 
L 469 0 
L 469 531 
Q 828 903 1448 1529 
Q 2069 2156 2228 2338 
Q 2531 2678 2651 2914 
Q 2772 3150 2772 3378 
Q 2772 3750 2511 3984 
Q 2250 4219 1831 4219 
Q 1534 4219 1204 4116 
Q 875 4013 500 3803 
L 500 4441 
Q 881 4594 1212 4672 
Q 1544 4750 1819 4750 
Q 2544 4750 2975 4387 
Q 3406 4025 3406 3419 
Q 3406 3131 3298 2873 
Q 3191 2616 2906 2266 
Q 2828 2175 2409 1742 
Q 1991 1309 1228 531 
z
" transform="scale(0.015625)"/>
       </defs>
       <use xlink:href="#DejaVuSans-32"/>
      </g>
     </g>
    </g>
    <g id="xtick_3">
     <g id="line2d_5">
      <path d="M 307.775046 530.918125 
L 307.775046 22.318125 
" clip-path="url(#p854d89687a)" style="fill: none; stroke: #b0b0b0; stroke-opacity: 0.3; stroke-width: 0.8; stroke-linecap: square"/>
     </g>
     <g id="line2d_6">
      <g>
       <use xlink:href="#m9847dc3a67" x="307.775046" y="530.918125" style="stroke: #000000; stroke-width: 0.8"/>
      </g>
     </g>
     <g id="text_3">
      <!-- 4 -->
      <g transform="translate(304.593796 545.516562) scale(0.1 -0.1)">
       <defs>
        <path id="DejaVuSans-34" d="M 2419 4116 
L 825 1625 
L 2419 1625 
L 2419 4116 
z
M 2253 4666 
L 3047 4666 
L 3047 1625 
L 3713 1625 
L 3713 1100 
L 3047 1100 
L 3047 0 
L 2419 0 
L 2419 1100 
L 313 1100 
L 313 1709 
L 2253 4666 
z
" transform="scale(0.015625)"/>
       </defs>
       <use xlink:href="#DejaVuSans-34"/>
      </g>
     </g>
    </g>
    <g id="xtick_4">
     <g id="line2d_7">
      <path d="M 420.456811 530.918125 
L 420.456811 22.318125 
" clip-path="url(#p854d89687a)" style="fill: none; stroke: #b0b0b0; stroke-opacity: 0.3; stroke-width: 0.8; stroke-linecap: square"/>
     </g>
     <g id="line2d_8">
      <g>
       <use xlink:href="#m9847dc3a67" x="420.456811" y="530.918125" style="stroke: #000000; stroke-width: 0.8"/>
      </g>
     </g>
     <g id="text_4">
      <!-- 6 -->
      <g transform="translate(417.275561 545.516562) scale(0.1 -0.1)">
       <defs>
        <path id="DejaVuSans-36" d="M 2113 2584 
Q 1688 2584 1439 2293 
Q 1191 2003 1191 1497 
Q 1191 994 1439 701 
Q 1688 409 2113 409 
Q 2538 409 2786 701 
Q 3034 994 3034 1497 
Q 3034 2003 2786 2293 
Q 2538 2584 2113 2584 
z
M 3366 4563 
L 3366 3988 
Q 3128 4100 2886 4159 
Q 2644 4219 2406 4219 
Q 1781 4219 1451 3797 
Q 1122 3375 1075 2522 
Q 1259 2794 1537 2939 
Q 1816 3084 2150 3084 
Q 2853 3084 3261 2657 
Q 3669 2231 3669 1497 
Q 3669 778 3244 343 
Q 2819 -91 2113 -91 
Q 1303 -91 875 529 
Q 447 1150 447 2328 
Q 447 3434 972 4092 
Q 1497 4750 2381 4750 
Q 2619 4750 2861 4703 
Q 3103 4656 3366 4563 
z
" transform="scale(0.015625)"/>
       </defs>
       <use xlink:href="#DejaVuSans-36"/>
      </g>
     </g>
    </g>
    <g id="xtick_5">
     <g id="line2d_9">
      <path d="M 533.138575 530.918125 
L 533.138575 22.318125 
" clip-path="url(#p854d89687a)" style="fill: none; stroke: #b0b0b0; stroke-opacity: 0.3; stroke-width: 0.8; stroke-linecap: square"/>
     </g>
     <g id="line2d_10">
      <g>
       <use xlink:href="#m9847dc3a67" x="533.138575" y="530.918125" style="stroke: #000000; stroke-width: 0.8"/>
      </g>
     </g>
     <g id="text_5">
      <!-- 8 -->
      <g transform="translate(529.957325 545.516562) scale(0.1 -0.1)">
       <defs>
        <path id="DejaVuSans-38" d="M 2034 2216 
Q 1584 2216 1326 1975 
Q 1069 1734 1069 1313 
Q 1069 891 1326 650 
Q 1584 409 2034 409 
Q 2484 409 2743 651 
Q 3003 894 3003 1313 
Q 3003 1734 2745 1975 
Q 2488 2216 2034 2216 
z
M 1403 2484 
Q 997 2584 770 2862 
Q 544 3141 544 3541 
Q 544 4100 942 4425 
Q 1341 4750 2034 4750 
Q 2731 4750 3128 4425 
Q 3525 4100 3525 3541 
Q 3525 3141 3298 2862 
Q 3072 2584 2669 2484 
Q 3125 2378 3379 2068 
Q 3634 1759 3634 1313 
Q 3634 634 3220 271 
Q 2806 -91 2034 -91 
Q 1263 -91 848 271 
Q 434 634 434 1313 
Q 434 1759 690 2068 
Q 947 2378 1403 2484 
z
M 1172 3481 
Q 1172 3119 1398 2916 
Q 1625 2713 2034 2713 
Q 2441 2713 2670 2916 
Q 2900 3119 2900 3481 
Q 2900 3844 2670 4047 
Q 2441 4250 2034 4250 
Q 1625 4250 1398 4047 
Q 1172 3844 1172 3481 
z
" transform="scale(0.015625)"/>
       </defs>
       <use xlink:href="#DejaVuSans-38"/>
      </g>
     </g>
    </g>
    <g id="xtick_6">
     <g id="line2d_11">
      <path d="M 645.82034 530.918125 
L 645.82034 22.318125 
" clip-path="url(#p854d89687a)" style="fill: none; stroke: #b0b0b0; stroke-opacity: 0.3; stroke-width: 0.8; stroke-linecap: square"/>
     </g>
     <g id="line2d_12">
      <g>
       <use xlink:href="#m9847dc3a67" x="645.82034" y="530.918125" style="stroke: #000000; stroke-width: 0.8"/>
      </g>
     </g>
     <g id="text_6">
      <!-- 10 -->
      <g transform="translate(639.45784 545.516562) scale(0.1 -0.1)">
       <defs>
        <path id="DejaVuSans-31" d="M 794 531 
L 1825 531 
L 1825 4091 
L 703 3866 
L 703 4441 
L 1819 4666 
L 2450 4666 
L 2450 531 
L 3481 531 
L 3481 0 
L 794 0 
L 794 531 
z
" transform="scale(0.015625)"/>
       </defs>
       <use xlink:href="#DejaVuSans-31"/>
       <use xlink:href="#DejaVuSans-30" x="63.623047"/>
      </g>
     </g>
    </g>
    <g id="xtick_7">
     <g id="line2d_13">
      <path d="M 758.502105 530.918125 
L 758.502105 22.318125 
" clip-path="url(#p854d89687a)" style="fill: none; stroke: #b0b0b0; stroke-opacity: 0.3; stroke-width: 0.8; stroke-linecap: square"/>
     </g>
     <g id="line2d_14">
      <g>
       <use xlink:href="#m9847dc3a67" x="758.502105" y="530.918125" style="stroke: #000000; stroke-width: 0.8"/>
      </g>
     </g>
     <g id="text_7">
      <!-- 12 -->
      <g transform="translate(752.139605 545.516562) scale(0.1 -0.1)">
       <use xlink:href="#DejaVuSans-31"/>
       <use xlink:href="#DejaVuSans-32" x="63.623047"/>
      </g>
     </g>
    </g>
    <g id="text_8">
     <!-- Elapsed Time (seconds) -->
     <g transform="translate(388.647656 559.194687) scale(0.1 -0.1)">
      <defs>
       <path id="DejaVuSans-45" d="M 628 4666 
L 3578 4666 
L 3578 4134 
L 1259 4134 
L 1259 2753 
L 3481 2753 
L 3481 2222 
L 1259 2222 
L 1259 531 
L 3634 531 
L 3634 0 
L 628 0 
L 628 4666 
z
" transform="scale(0.015625)"/>
       <path id="DejaVuSans-6c" d="M 603 4863 
L 1178 4863 
L 1178 0 
L 603 0 
L 603 4863 
z
" transform="scale(0.015625)"/>
       <path id="DejaVuSans-61" d="M 2194 1759 
Q 1497 1759 1228 1600 
Q 959 1441 959 1056 
Q 959 750 1161 570 
Q 1363 391 1709 391 
Q 2188 391 2477 730 
Q 2766 1069 2766 1631 
L 2766 1759 
L 2194 1759 
z
M 3341 1997 
L 3341 0 
L 2766 0 
L 2766 531 
Q 2569 213 2275 61 
Q 1981 -91 1556 -91 
Q 1019 -91 701 211 
Q 384 513 384 1019 
Q 384 1609 779 1909 
Q 1175 2209 1959 2209 
L 2766 2209 
L 2766 2266 
Q 2766 2663 2505 2880 
Q 2244 3097 1772 3097 
Q 1472 3097 1187 3025 
Q 903 2953 641 2809 
L 641 3341 
Q 956 3463 1253 3523 
Q 1550 3584 1831 3584 
Q 2591 3584 2966 3190 
Q 3341 2797 3341 1997 
z
" transform="scale(0.015625)"/>
       <path id="DejaVuSans-70" d="M 1159 525 
L 1159 -1331 
L 581 -1331 
L 581 3500 
L 1159 3500 
L 1159 2969 
Q 1341 3281 1617 3432 
Q 1894 3584 2278 3584 
Q 2916 3584 3314 3078 
Q 3713 2572 3713 1747 
Q 3713 922 3314 415 
Q 2916 -91 2278 -91 
Q 1894 -91 1617 61 
Q 1341 213 1159 525 
z
M 3116 1747 
Q 3116 2381 2855 2742 
Q 2594 3103 2138 3103 
Q 1681 3103 1420 2742 
Q 1159 2381 1159 1747 
Q 1159 1113 1420 752 
Q 1681 391 2138 391 
Q 2594 391 2855 752 
Q 3116 1113 3116 1747 
z
" transform="scale(0.015625)"/>
       <path id="DejaVuSans-73" d="M 2834 3397 
L 2834 2853 
Q 2591 2978 2328 3040 
Q 2066 3103 1784 3103 
Q 1356 3103 1142 2972 
Q 928 2841 928 2578 
Q 928 2378 1081 2264 
Q 1234 2150 1697 2047 
L 1894 2003 
Q 2506 1872 2764 1633 
Q 3022 1394 3022 966 
Q 3022 478 2636 193 
Q 2250 -91 1575 -91 
Q 1294 -91 989 -36 
Q 684 19 347 128 
L 347 722 
Q 666 556 975 473 
Q 1284 391 1588 391 
Q 1994 391 2212 530 
Q 2431 669 2431 922 
Q 2431 1156 2273 1281 
Q 2116 1406 1581 1522 
L 1381 1569 
Q 847 1681 609 1914 
Q 372 2147 372 2553 
Q 372 3047 722 3315 
Q 1072 3584 1716 3584 
Q 2034 3584 2315 3537 
Q 2597 3491 2834 3397 
z
" transform="scale(0.015625)"/>
       <path id="DejaVuSans-65" d="M 3597 1894 
L 3597 1613 
L 953 1613 
Q 991 1019 1311 708 
Q 1631 397 2203 397 
Q 2534 397 2845 478 
Q 3156 559 3463 722 
L 3463 178 
Q 3153 47 2828 -22 
Q 2503 -91 2169 -91 
Q 1331 -91 842 396 
Q 353 884 353 1716 
Q 353 2575 817 3079 
Q 1281 3584 2069 3584 
Q 2775 3584 3186 3129 
Q 3597 2675 3597 1894 
z
M 3022 2063 
Q 3016 2534 2758 2815 
Q 2500 3097 2075 3097 
Q 1594 3097 1305 2825 
Q 1016 2553 972 2059 
L 3022 2063 
z
" transform="scale(0.015625)"/>
       <path id="DejaVuSans-64" d="M 2906 2969 
L 2906 4863 
L 3481 4863 
L 3481 0 
L 2906 0 
L 2906 525 
Q 2725 213 2448 61 
Q 2172 -91 1784 -91 
Q 1150 -91 751 415 
Q 353 922 353 1747 
Q 353 2572 751 3078 
Q 1150 3584 1784 3584 
Q 2172 3584 2448 3432 
Q 2725 3281 2906 2969 
z
M 947 1747 
Q 947 1113 1208 752 
Q 1469 391 1925 391 
Q 2381 391 2643 752 
Q 2906 1113 2906 1747 
Q 2906 2381 2643 2742 
Q 2381 3103 1925 3103 
Q 1469 3103 1208 2742 
Q 947 2381 947 1747 
z
" transform="scale(0.015625)"/>
       <path id="DejaVuSans-20" transform="scale(0.015625)"/>
       <path id="DejaVuSans-54" d="M -19 4666 
L 3928 4666 
L 3928 4134 
L 2272 4134 
L 2272 0 
L 1638 0 
L 1638 4134 
L -19 4134 
L -19 4666 
z
" transform="scale(0.015625)"/>
       <path id="DejaVuSans-69" d="M 603 3500 
L 1178 3500 
L 1178 0 
L 603 0 
L 603 3500 
z
M 603 4863 
L 1178 4863 
L 1178 4134 
L 603 4134 
L 603 4863 
z
" transform="scale(0.015625)"/>
       <path id="DejaVuSans-6d" d="M 3328 2828 
Q 3544 3216 3844 3400 
Q 4144 3584 4550 3584 
Q 5097 3584 5394 3201 
Q 5691 2819 5691 2113 
L 5691 0 
L 5113 0 
L 5113 2094 
Q 5113 2597 4934 2840 
Q 4756 3084 4391 3084 
Q 3944 3084 3684 2787 
Q 3425 2491 3425 1978 
L 3425 0 
L 2847 0 
L 2847 2094 
Q 2847 2600 2669 2842 
Q 2491 3084 2119 3084 
Q 1678 3084 1418 2786 
Q 1159 2488 1159 1978 
L 1159 0 
L 581 0 
L 581 3500 
L 1159 3500 
L 1159 2956 
Q 1356 3278 1631 3431 
Q 1906 3584 2284 3584 
Q 2666 3584 2933 3390 
Q 3200 3197 3328 2828 
z
" transform="scale(0.015625)"/>
       <path id="DejaVuSans-28" d="M 1984 4856 
Q 1566 4138 1362 3434 
Q 1159 2731 1159 2009 
Q 1159 1288 1364 580 
Q 1569 -128 1984 -844 
L 1484 -844 
Q 1016 -109 783 600 
Q 550 1309 550 2009 
Q 550 2706 781 3412 
Q 1013 4119 1484 4856 
L 1984 4856 
z
" transform="scale(0.015625)"/>
       <path id="DejaVuSans-63" d="M 3122 3366 
L 3122 2828 
Q 2878 2963 2633 3030 
Q 2388 3097 2138 3097 
Q 1578 3097 1268 2742 
Q 959 2388 959 1747 
Q 959 1106 1268 751 
Q 1578 397 2138 397 
Q 2388 397 2633 464 
Q 2878 531 3122 666 
L 3122 134 
Q 2881 22 2623 -34 
Q 2366 -91 2075 -91 
Q 1284 -91 818 406 
Q 353 903 353 1747 
Q 353 2603 823 3093 
Q 1294 3584 2113 3584 
Q 2378 3584 2631 3529 
Q 2884 3475 3122 3366 
z
" transform="scale(0.015625)"/>
       <path id="DejaVuSans-6f" d="M 1959 3097 
Q 1497 3097 1228 2736 
Q 959 2375 959 1747 
Q 959 1119 1226 758 
Q 1494 397 1959 397 
Q 2419 397 2687 759 
Q 2956 1122 2956 1747 
Q 2956 2369 2687 2733 
Q 2419 3097 1959 3097 
z
M 1959 3584 
Q 2709 3584 3137 3096 
Q 3566 2609 3566 1747 
Q 3566 888 3137 398 
Q 2709 -91 1959 -91 
Q 1206 -91 779 398 
Q 353 888 353 1747 
Q 353 2609 779 3096 
Q 1206 3584 1959 3584 
z
" transform="scale(0.015625)"/>
       <path id="DejaVuSans-6e" d="M 3513 2113 
L 3513 0 
L 2938 0 
L 2938 2094 
Q 2938 2591 2744 2837 
Q 2550 3084 2163 3084 
Q 1697 3084 1428 2787 
Q 1159 2491 1159 1978 
L 1159 0 
L 581 0 
L 581 3500 
L 1159 3500 
L 1159 2956 
Q 1366 3272 1645 3428 
Q 1925 3584 2291 3584 
Q 2894 3584 3203 3211 
Q 3513 2838 3513 2113 
z
" transform="scale(0.015625)"/>
       <path id="DejaVuSans-29" d="M 513 4856 
L 1013 4856 
Q 1481 4119 1714 3412 
Q 1947 2706 1947 2009 
Q 1947 1309 1714 600 
Q 1481 -109 1013 -844 
L 513 -844 
Q 928 -128 1133 580 
Q 1338 1288 1338 2009 
Q 1338 2731 1133 3434 
Q 928 4138 513 4856 
z
" transform="scale(0.015625)"/>
      </defs>
      <use xlink:href="#DejaVuSans-45"/>
      <use xlink:href="#DejaVuSans-6c" x="63.183594"/>
      <use xlink:href="#DejaVuSans-61" x="90.966797"/>
      <use xlink:href="#DejaVuSans-70" x="152.246094"/>
      <use xlink:href="#DejaVuSans-73" x="215.722656"/>
      <use xlink:href="#DejaVuSans-65" x="267.822266"/>
      <use xlink:href="#DejaVuSans-64" x="329.345703"/>
      <use xlink:href="#DejaVuSans-20" x="392.822266"/>
      <use xlink:href="#DejaVuSans-54" x="424.609375"/>
      <use xlink:href="#DejaVuSans-69" x="482.568359"/>
      <use xlink:href="#DejaVuSans-6d" x="510.351562"/>
      <use xlink:href="#DejaVuSans-65" x="607.763672"/>
      <use xlink:href="#DejaVuSans-20" x="669.287109"/>
      <use xlink:href="#DejaVuSans-28" x="701.074219"/>
      <use xlink:href="#DejaVuSans-73" x="740.087891"/>
      <use xlink:href="#DejaVuSans-65" x="792.1875"/>
      <use xlink:href="#DejaVuSans-63" x="853.710938"/>
      <use xlink:href="#DejaVuSans-6f" x="908.691406"/>
      <use xlink:href="#DejaVuSans-6e" x="969.873047"/>
      <use xlink:href="#DejaVuSans-64" x="1033.251953"/>
      <use xlink:href="#DejaVuSans-73" x="1096.728516"/>
      <use xlink:href="#DejaVuSans-29" x="1148.828125"/>
     </g>
    </g>
   </g>
   <g id="matplotlib.axis_2">
    <g id="ytick_1">
     <g id="line2d_15">
      <path d="M 46.965625 503.734664 
L 849.115625 503.734664 
" clip-path="url(#p854d89687a)" style="fill: none; stroke: #b0b0b0; stroke-opacity: 0.3; stroke-width: 0.8; stroke-linecap: square"/>
     </g>
     <g id="line2d_16">
      <defs>
       <path id="mfda5e7a2c5" d="M 0 0 
L -3.5 0 
" style="stroke: #000000; stroke-width: 0.8"/>
      </defs>
      <g>
       <use xlink:href="#mfda5e7a2c5" x="46.965625" y="503.734664" style="stroke: #000000; stroke-width: 0.8"/>
      </g>
     </g>
     <g id="text_9">
      <!-- 20 -->
      <g transform="translate(27.240625 507.533882) scale(0.1 -0.1)">
       <use xlink:href="#DejaVuSans-32"/>
       <use xlink:href="#DejaVuSans-30" x="63.623047"/>
      </g>
     </g>
    </g>
    <g id="ytick_2">
     <g id="line2d_17">
      <path d="M 46.965625 429.131682 
L 849.115625 429.131682 
" clip-path="url(#p854d89687a)" style="fill: none; stroke: #b0b0b0; stroke-opacity: 0.3; stroke-width: 0.8; stroke-linecap: square"/>
     </g>
     <g id="line2d_18">
      <g>
       <use xlink:href="#mfda5e7a2c5" x="46.965625" y="429.131682" style="stroke: #000000; stroke-width: 0.8"/>
      </g>
     </g>
     <g id="text_10">
      <!-- 40 -->
      <g transform="translate(27.240625 432.9309) scale(0.1 -0.1)">
       <use xlink:href="#DejaVuSans-34"/>
       <use xlink:href="#DejaVuSans-30" x="63.623047"/>
      </g>
     </g>
    </g>
    <g id="ytick_3">
     <g id="line2d_19">
      <path d="M 46.965625 354.5287 
L 849.115625 354.5287 
" clip-path="url(#p854d89687a)" style="fill: none; stroke: #b0b0b0; stroke-opacity: 0.3; stroke-width: 0.8; stroke-linecap: square"/>
     </g>
     <g id="line2d_20">
      <g>
       <use xlink:href="#mfda5e7a2c5" x="46.965625" y="354.5287" style="stroke: #000000; stroke-width: 0.8"/>
      </g>
     </g>
     <g id="text_11">
      <!-- 60 -->
      <g transform="translate(27.240625 358.327919) scale(0.1 -0.1)">
       <use xlink:href="#DejaVuSans-36"/>
       <use xlink:href="#DejaVuSans-30" x="63.623047"/>
      </g>
     </g>
    </g>
    <g id="ytick_4">
     <g id="line2d_21">
      <path d="M 46.965625 279.925718 
L 849.115625 279.925718 
" clip-path="url(#p854d89687a)" style="fill: none; stroke: #b0b0b0; stroke-opacity: 0.3; stroke-width: 0.8; stroke-linecap: square"/>
     </g>
     <g id="line2d_22">
      <g>
       <use xlink:href="#mfda5e7a2c5" x="46.965625" y="279.925718" style="stroke: #000000; stroke-width: 0.8"/>
      </g>
     </g>
     <g id="text_12">
      <!-- 80 -->
      <g transform="translate(27.240625 283.724937) scale(0.1 -0.1)">
       <use xlink:href="#DejaVuSans-38"/>
       <use xlink:href="#DejaVuSans-30" x="63.623047"/>
      </g>
     </g>
    </g>
    <g id="ytick_5">
     <g id="line2d_23">
      <path d="M 46.965625 205.322736 
L 849.115625 205.322736 
" clip-path="url(#p854d89687a)" style="fill: none; stroke: #b0b0b0; stroke-opacity: 0.3; stroke-width: 0.8; stroke-linecap: square"/>
     </g>
     <g id="line2d_24">
      <g>
       <use xlink:href="#mfda5e7a2c5" x="46.965625" y="205.322736" style="stroke: #000000; stroke-width: 0.8"/>
      </g>
     </g>
     <g id="text_13">
      <!-- 100 -->
      <g transform="translate(20.878125 209.121955) scale(0.1 -0.1)">
       <use xlink:href="#DejaVuSans-31"/>
       <use xlink:href="#DejaVuSans-30" x="63.623047"/>
       <use xlink:href="#DejaVuSans-30" x="127.246094"/>
      </g>
     </g>
    </g>
    <g id="ytick_6">
     <g id="line2d_25">
      <path d="M 46.965625 130.719755 
L 849.115625 130.719755 
" clip-path="url(#p854d89687a)" style="fill: none; stroke: #b0b0b0; stroke-opacity: 0.3; stroke-width: 0.8; stroke-linecap: square"/>
     </g>
     <g id="line2d_26">
      <g>
       <use xlink:href="#mfda5e7a2c5" x="46.965625" y="130.719755" style="stroke: #000000; stroke-width: 0.8"/>
      </g>
     </g>
     <g id="text_14">
      <!-- 120 -->
      <g transform="translate(20.878125 134.518973) scale(0.1 -0.1)">
       <use xlink:href="#DejaVuSans-31"/>
       <use xlink:href="#DejaVuSans-32" x="63.623047"/>
       <use xlink:href="#DejaVuSans-30" x="127.246094"/>
      </g>
     </g>
    </g>
    <g id="ytick_7">
     <g id="line2d_27">
      <path d="M 46.965625 56.116773 
L 849.115625 56.116773 
" clip-path="url(#p854d89687a)" style="fill: none; stroke: #b0b0b0; stroke-opacity: 0.3; stroke-width: 0.8; stroke-linecap: square"/>
     </g>
     <g id="line2d_28">
      <g>
       <use xlink:href="#mfda5e7a2c5" x="46.965625" y="56.116773" style="stroke: #000000; stroke-width: 0.8"/>
      </g>
     </g>
     <g id="text_15">
      <!-- 140 -->
      <g transform="translate(20.878125 59.915992) scale(0.1 -0.1)">
       <use xlink:href="#DejaVuSans-31"/>
       <use xlink:href="#DejaVuSans-34" x="63.623047"/>
       <use xlink:href="#DejaVuSans-30" x="127.246094"/>
      </g>
     </g>
    </g>
    <g id="text_16">
     <!-- Memory Usage (MB) -->
     <g transform="translate(14.798438 327.356406) rotate(-90) scale(0.1 -0.1)">
      <defs>
       <path id="DejaVuSans-4d" d="M 628 4666 
L 1569 4666 
L 2759 1491 
L 3956 4666 
L 4897 4666 
L 4897 0 
L 4281 0 
L 4281 4097 
L 3078 897 
L 2444 897 
L 1241 4097 
L 1241 0 
L 628 0 
L 628 4666 
z
" transform="scale(0.015625)"/>
       <path id="DejaVuSans-72" d="M 2631 2963 
Q 2534 3019 2420 3045 
Q 2306 3072 2169 3072 
Q 1681 3072 1420 2755 
Q 1159 2438 1159 1844 
L 1159 0 
L 581 0 
L 581 3500 
L 1159 3500 
L 1159 2956 
Q 1341 3275 1631 3429 
Q 1922 3584 2338 3584 
Q 2397 3584 2469 3576 
Q 2541 3569 2628 3553 
L 2631 2963 
z
" transform="scale(0.015625)"/>
       <path id="DejaVuSans-79" d="M 2059 -325 
Q 1816 -950 1584 -1140 
Q 1353 -1331 966 -1331 
L 506 -1331 
L 506 -850 
L 844 -850 
Q 1081 -850 1212 -737 
Q 1344 -625 1503 -206 
L 1606 56 
L 191 3500 
L 800 3500 
L 1894 763 
L 2988 3500 
L 3597 3500 
L 2059 -325 
z
" transform="scale(0.015625)"/>
       <path id="DejaVuSans-55" d="M 556 4666 
L 1191 4666 
L 1191 1831 
Q 1191 1081 1462 751 
Q 1734 422 2344 422 
Q 2950 422 3222 751 
Q 3494 1081 3494 1831 
L 3494 4666 
L 4128 4666 
L 4128 1753 
Q 4128 841 3676 375 
Q 3225 -91 2344 -91 
Q 1459 -91 1007 375 
Q 556 841 556 1753 
L 556 4666 
z
" transform="scale(0.015625)"/>
       <path id="DejaVuSans-67" d="M 2906 1791 
Q 2906 2416 2648 2759 
Q 2391 3103 1925 3103 
Q 1463 3103 1205 2759 
Q 947 2416 947 1791 
Q 947 1169 1205 825 
Q 1463 481 1925 481 
Q 2391 481 2648 825 
Q 2906 1169 2906 1791 
z
M 3481 434 
Q 3481 -459 3084 -895 
Q 2688 -1331 1869 -1331 
Q 1566 -1331 1297 -1286 
Q 1028 -1241 775 -1147 
L 775 -588 
Q 1028 -725 1275 -790 
Q 1522 -856 1778 -856 
Q 2344 -856 2625 -561 
Q 2906 -266 2906 331 
L 2906 616 
Q 2728 306 2450 153 
Q 2172 0 1784 0 
Q 1141 0 747 490 
Q 353 981 353 1791 
Q 353 2603 747 3093 
Q 1141 3584 1784 3584 
Q 2172 3584 2450 3431 
Q 2728 3278 2906 2969 
L 2906 3500 
L 3481 3500 
L 3481 434 
z
" transform="scale(0.015625)"/>
       <path id="DejaVuSans-42" d="M 1259 2228 
L 1259 519 
L 2272 519 
Q 2781 519 3026 730 
Q 3272 941 3272 1375 
Q 3272 1813 3026 2020 
Q 2781 2228 2272 2228 
L 1259 2228 
z
M 1259 4147 
L 1259 2741 
L 2194 2741 
Q 2656 2741 2882 2914 
Q 3109 3088 3109 3444 
Q 3109 3797 2882 3972 
Q 2656 4147 2194 4147 
L 1259 4147 
z
M 628 4666 
L 2241 4666 
Q 2963 4666 3353 4366 
Q 3744 4066 3744 3513 
Q 3744 3084 3544 2831 
Q 3344 2578 2956 2516 
Q 3422 2416 3680 2098 
Q 3938 1781 3938 1306 
Q 3938 681 3513 340 
Q 3088 0 2303 0 
L 628 0 
L 628 4666 
z
" transform="scale(0.015625)"/>
      </defs>
      <use xlink:href="#DejaVuSans-4d"/>
      <use xlink:href="#DejaVuSans-65" x="86.279297"/>
      <use xlink:href="#DejaVuSans-6d" x="147.802734"/>
      <use xlink:href="#DejaVuSans-6f" x="245.214844"/>
      <use xlink:href="#DejaVuSans-72" x="306.396484"/>
      <use xlink:href="#DejaVuSans-79" x="347.509766"/>
      <use xlink:href="#DejaVuSans-20" x="406.689453"/>
      <use xlink:href="#DejaVuSans-55" x="438.476562"/>
      <use xlink:href="#DejaVuSans-73" x="511.669922"/>
      <use xlink:href="#DejaVuSans-61" x="563.769531"/>
      <use xlink:href="#DejaVuSans-67" x="625.048828"/>
      <use xlink:href="#DejaVuSans-65" x="688.525391"/>
      <use xlink:href="#DejaVuSans-20" x="750.048828"/>
      <use xlink:href="#DejaVuSans-28" x="781.835938"/>
      <use xlink:href="#DejaVuSans-4d" x="820.849609"/>
      <use xlink:href="#DejaVuSans-42" x="907.128906"/>
      <use xlink:href="#DejaVuSans-29" x="975.732422"/>
     </g>
    </g>
   </g>
   <g id="line2d_29">
    <path d="M 83.426989 473.427202 
L 94.752566 473.427202 
L 106.054045 473.427202 
L 117.363328 473.427202 
L 128.672557 473.427202 
L 139.977569 473.427202 
L 145.65324 473.427202 
L 151.331207 473.427202 
L 156.998644 473.427202 
L 162.667289 473.427202 
L 168.332348 473.427202 
L 174.006406 473.427202 
L 179.671895 473.427202 
L 185.33475 473.427202 
L 191.008245 473.427202 
L 196.670913 444.809965 
L 202.320618 506.168003 
L 207.970471 506.109719 
L 213.621452 506.342854 
L 219.271211 506.342854 
L 224.920177 506.109719 
L 230.569049 506.109719 
L 236.218029 506.109719 
L 241.867492 505.934869 
L 247.515545 506.080578 
L 253.165022 505.96401 
L 258.813652 506.342854 
L 264.462713 506.342854 
L 270.111142 506.342854 
L 275.759598 506.197145 
L 281.407677 506.022294 
L 287.056536 506.313712 
L 292.702964 506.168003 
L 298.353381 506.313712 
L 304.002092 506.168003 
L 309.651676 506.168003 
L 315.302469 506.634272 
L 320.952725 506.634272 
L 326.601907 506.634272 
L 332.250738 506.080578 
L 337.899812 506.168003 
L 343.549799 506.168003 
L 349.198752 506.28457 
L 354.846013 506.546846 
L 360.494576 506.313712 
L 366.14408 506.051436 
L 371.79365 506.051436 
L 377.443315 506.168003 
L 383.091758 506.168003 
L 388.740576 506.168003 
L 394.389946 506.226287 
L 400.039812 506.226287 
L 405.68945 506.430279 
L 411.339289 506.430279 
L 416.987678 506.28457 
L 422.637074 506.28457 
L 428.286336 506.197145 
L 433.936189 506.197145 
L 439.584981 506.197145 
L 445.234296 506.28457 
L 450.881328 506.28457 
L 456.531329 506.28457 
L 462.178938 506.168003 
L 467.826051 506.313712 
L 473.475555 506.313712 
L 479.124642 506.28457 
L 484.773662 505.96401 
L 490.423354 506.28457 
L 496.072911 506.28457 
L 501.722079 506.546846 
L 507.370091 506.546846 
L 513.018776 506.546846 
L 518.668669 506.546846 
L 524.317984 506.28457 
L 529.966386 506.401137 
L 535.615286 506.401137 
L 541.265515 506.197145 
L 546.91487 506.517704 
L 552.563891 506.517704 
L 558.21326 506.517704 
L 563.862669 506.138861 
L 569.511448 507.333675 
L 575.160468 507.799943 
L 580.810173 505.891156 
L 586.459744 506.313712 
L 592.107823 505.366604 
L 597.758482 506.430279 
L 603.40726 506.022294 
L 609.0562 506.255428 
L 614.705059 506.255428 
L 620.354401 507.479383 
L 626.007626 506.109719 
L 631.655894 506.342854 
L 637.304484 506.546846 
L 642.953034 506.546846 
L 648.603007 506.459421 
L 654.25196 506.401137 
L 659.900859 506.401137 
L 665.547354 506.401137 
L 671.196441 506.197145 
L 676.845717 506.28457 
L 682.494978 506.459421 
L 688.145288 506.168003 
L 693.79408 506.255428 
L 699.444148 506.255428 
L 705.092066 506.226287 
L 710.741288 505.876585 
L 716.390576 506.342854 
L 722.039543 506.080578 
L 727.688509 506.080578 
L 733.337274 506.080578 
L 738.986751 506.109719 
L 744.636241 506.313712 
L 750.284952 506.313712 
L 755.933488 506.401137 
L 761.58498 506.401137 
L 767.250334 506.401137 
L 772.911592 506.401137 
L 778.618211 506.401137 
L 784.309907 506.401137 
L 789.977558 506.401137 
L 795.645438 506.401137 
L 801.305472 506.401137 
L 806.990721 506.401137 
L 812.654261 506.401137 
" clip-path="url(#p854d89687a)" style="fill: none; stroke: #2ca02c; stroke-width: 2; stroke-linecap: square"/>
    <defs>
     <path id="mb85670e766" d="M 0 2 
C 0.530406 2 1.03916 1.789267 1.414214 1.414214 
C 1.789267 1.03916 2 0.530406 2 0 
C 2 -0.530406 1.789267 -1.03916 1.414214 -1.414214 
C 1.03916 -1.789267 0.530406 -2 0 -2 
C -0.530406 -2 -1.03916 -1.789267 -1.414214 -1.414214 
C -1.789267 -1.03916 -2 -0.530406 -2 0 
C -2 0.530406 -1.789267 1.03916 -1.414214 1.414214 
C -1.03916 1.789267 -0.530406 2 0 2 
z
" style="stroke: #2ca02c"/>
    </defs>
    <g clip-path="url(#p854d89687a)">
     <use xlink:href="#mb85670e766" x="83.426989" y="473.427202" style="fill: #2ca02c; stroke: #2ca02c"/>
     <use xlink:href="#mb85670e766" x="94.752566" y="473.427202" style="fill: #2ca02c; stroke: #2ca02c"/>
     <use xlink:href="#mb85670e766" x="106.054045" y="473.427202" style="fill: #2ca02c; stroke: #2ca02c"/>
     <use xlink:href="#mb85670e766" x="117.363328" y="473.427202" style="fill: #2ca02c; stroke: #2ca02c"/>
     <use xlink:href="#mb85670e766" x="128.672557" y="473.427202" style="fill: #2ca02c; stroke: #2ca02c"/>
     <use xlink:href="#mb85670e766" x="139.977569" y="473.427202" style="fill: #2ca02c; stroke: #2ca02c"/>
     <use xlink:href="#mb85670e766" x="145.65324" y="473.427202" style="fill: #2ca02c; stroke: #2ca02c"/>
     <use xlink:href="#mb85670e766" x="151.331207" y="473.427202" style="fill: #2ca02c; stroke: #2ca02c"/>
     <use xlink:href="#mb85670e766" x="156.998644" y="473.427202" style="fill: #2ca02c; stroke: #2ca02c"/>
     <use xlink:href="#mb85670e766" x="162.667289" y="473.427202" style="fill: #2ca02c; stroke: #2ca02c"/>
     <use xlink:href="#mb85670e766" x="168.332348" y="473.427202" style="fill: #2ca02c; stroke: #2ca02c"/>
     <use xlink:href="#mb85670e766" x="174.006406" y="473.427202" style="fill: #2ca02c; stroke: #2ca02c"/>
     <use xlink:href="#mb85670e766" x="179.671895" y="473.427202" style="fill: #2ca02c; stroke: #2ca02c"/>
     <use xlink:href="#mb85670e766" x="185.33475" y="473.427202" style="fill: #2ca02c; stroke: #2ca02c"/>
     <use xlink:href="#mb85670e766" x="191.008245" y="473.427202" style="fill: #2ca02c; stroke: #2ca02c"/>
     <use xlink:href="#mb85670e766" x="196.670913" y="444.809965" style="fill: #2ca02c; stroke: #2ca02c"/>
     <use xlink:href="#mb85670e766" x="202.320618" y="506.168003" style="fill: #2ca02c; stroke: #2ca02c"/>
     <use xlink:href="#mb85670e766" x="207.970471" y="506.109719" style="fill: #2ca02c; stroke: #2ca02c"/>
     <use xlink:href="#mb85670e766" x="213.621452" y="506.342854" style="fill: #2ca02c; stroke: #2ca02c"/>
     <use xlink:href="#mb85670e766" x="219.271211" y="506.342854" style="fill: #2ca02c; stroke: #2ca02c"/>
     <use xlink:href="#mb85670e766" x="224.920177" y="506.109719" style="fill: #2ca02c; stroke: #2ca02c"/>
     <use xlink:href="#mb85670e766" x="230.569049" y="506.109719" style="fill: #2ca02c; stroke: #2ca02c"/>
     <use xlink:href="#mb85670e766" x="236.218029" y="506.109719" style="fill: #2ca02c; stroke: #2ca02c"/>
     <use xlink:href="#mb85670e766" x="241.867492" y="505.934869" style="fill: #2ca02c; stroke: #2ca02c"/>
     <use xlink:href="#mb85670e766" x="247.515545" y="506.080578" style="fill: #2ca02c; stroke: #2ca02c"/>
     <use xlink:href="#mb85670e766" x="253.165022" y="505.96401" style="fill: #2ca02c; stroke: #2ca02c"/>
     <use xlink:href="#mb85670e766" x="258.813652" y="506.342854" style="fill: #2ca02c; stroke: #2ca02c"/>
     <use xlink:href="#mb85670e766" x="264.462713" y="506.342854" style="fill: #2ca02c; stroke: #2ca02c"/>
     <use xlink:href="#mb85670e766" x="270.111142" y="506.342854" style="fill: #2ca02c; stroke: #2ca02c"/>
     <use xlink:href="#mb85670e766" x="275.759598" y="506.197145" style="fill: #2ca02c; stroke: #2ca02c"/>
     <use xlink:href="#mb85670e766" x="281.407677" y="506.022294" style="fill: #2ca02c; stroke: #2ca02c"/>
     <use xlink:href="#mb85670e766" x="287.056536" y="506.313712" style="fill: #2ca02c; stroke: #2ca02c"/>
     <use xlink:href="#mb85670e766" x="292.702964" y="506.168003" style="fill: #2ca02c; stroke: #2ca02c"/>
     <use xlink:href="#mb85670e766" x="298.353381" y="506.313712" style="fill: #2ca02c; stroke: #2ca02c"/>
     <use xlink:href="#mb85670e766" x="304.002092" y="506.168003" style="fill: #2ca02c; stroke: #2ca02c"/>
     <use xlink:href="#mb85670e766" x="309.651676" y="506.168003" style="fill: #2ca02c; stroke: #2ca02c"/>
     <use xlink:href="#mb85670e766" x="315.302469" y="506.634272" style="fill: #2ca02c; stroke: #2ca02c"/>
     <use xlink:href="#mb85670e766" x="320.952725" y="506.634272" style="fill: #2ca02c; stroke: #2ca02c"/>
     <use xlink:href="#mb85670e766" x="326.601907" y="506.634272" style="fill: #2ca02c; stroke: #2ca02c"/>
     <use xlink:href="#mb85670e766" x="332.250738" y="506.080578" style="fill: #2ca02c; stroke: #2ca02c"/>
     <use xlink:href="#mb85670e766" x="337.899812" y="506.168003" style="fill: #2ca02c; stroke: #2ca02c"/>
     <use xlink:href="#mb85670e766" x="343.549799" y="506.168003" style="fill: #2ca02c; stroke: #2ca02c"/>
     <use xlink:href="#mb85670e766" x="349.198752" y="506.28457" style="fill: #2ca02c; stroke: #2ca02c"/>
     <use xlink:href="#mb85670e766" x="354.846013" y="506.546846" style="fill: #2ca02c; stroke: #2ca02c"/>
     <use xlink:href="#mb85670e766" x="360.494576" y="506.313712" style="fill: #2ca02c; stroke: #2ca02c"/>
     <use xlink:href="#mb85670e766" x="366.14408" y="506.051436" style="fill: #2ca02c; stroke: #2ca02c"/>
     <use xlink:href="#mb85670e766" x="371.79365" y="506.051436" style="fill: #2ca02c; stroke: #2ca02c"/>
     <use xlink:href="#mb85670e766" x="377.443315" y="506.168003" style="fill: #2ca02c; stroke: #2ca02c"/>
     <use xlink:href="#mb85670e766" x="383.091758" y="506.168003" style="fill: #2ca02c; stroke: #2ca02c"/>
     <use xlink:href="#mb85670e766" x="388.740576" y="506.168003" style="fill: #2ca02c; stroke: #2ca02c"/>
     <use xlink:href="#mb85670e766" x="394.389946" y="506.226287" style="fill: #2ca02c; stroke: #2ca02c"/>
     <use xlink:href="#mb85670e766" x="400.039812" y="506.226287" style="fill: #2ca02c; stroke: #2ca02c"/>
     <use xlink:href="#mb85670e766" x="405.68945" y="506.430279" style="fill: #2ca02c; stroke: #2ca02c"/>
     <use xlink:href="#mb85670e766" x="411.339289" y="506.430279" style="fill: #2ca02c; stroke: #2ca02c"/>
     <use xlink:href="#mb85670e766" x="416.987678" y="506.28457" style="fill: #2ca02c; stroke: #2ca02c"/>
     <use xlink:href="#mb85670e766" x="422.637074" y="506.28457" style="fill: #2ca02c; stroke: #2ca02c"/>
     <use xlink:href="#mb85670e766" x="428.286336" y="506.197145" style="fill: #2ca02c; stroke: #2ca02c"/>
     <use xlink:href="#mb85670e766" x="433.936189" y="506.197145" style="fill: #2ca02c; stroke: #2ca02c"/>
     <use xlink:href="#mb85670e766" x="439.584981" y="506.197145" style="fill: #2ca02c; stroke: #2ca02c"/>
     <use xlink:href="#mb85670e766" x="445.234296" y="506.28457" style="fill: #2ca02c; stroke: #2ca02c"/>
     <use xlink:href="#mb85670e766" x="450.881328" y="506.28457" style="fill: #2ca02c; stroke: #2ca02c"/>
     <use xlink:href="#mb85670e766" x="456.531329" y="506.28457" style="fill: #2ca02c; stroke: #2ca02c"/>
     <use xlink:href="#mb85670e766" x="462.178938" y="506.168003" style="fill: #2ca02c; stroke: #2ca02c"/>
     <use xlink:href="#mb85670e766" x="467.826051" y="506.313712" style="fill: #2ca02c; stroke: #2ca02c"/>
     <use xlink:href="#mb85670e766" x="473.475555" y="506.313712" style="fill: #2ca02c; stroke: #2ca02c"/>
     <use xlink:href="#mb85670e766" x="479.124642" y="506.28457" style="fill: #2ca02c; stroke: #2ca02c"/>
     <use xlink:href="#mb85670e766" x="484.773662" y="505.96401" style="fill: #2ca02c; stroke: #2ca02c"/>
     <use xlink:href="#mb85670e766" x="490.423354" y="506.28457" style="fill: #2ca02c; stroke: #2ca02c"/>
     <use xlink:href="#mb85670e766" x="496.072911" y="506.28457" style="fill: #2ca02c; stroke: #2ca02c"/>
     <use xlink:href="#mb85670e766" x="501.722079" y="506.546846" style="fill: #2ca02c; stroke: #2ca02c"/>
     <use xlink:href="#mb85670e766" x="507.370091" y="506.546846" style="fill: #2ca02c; stroke: #2ca02c"/>
     <use xlink:href="#mb85670e766" x="513.018776" y="506.546846" style="fill: #2ca02c; stroke: #2ca02c"/>
     <use xlink:href="#mb85670e766" x="518.668669" y="506.546846" style="fill: #2ca02c; stroke: #2ca02c"/>
     <use xlink:href="#mb85670e766" x="524.317984" y="506.28457" style="fill: #2ca02c; stroke: #2ca02c"/>
     <use xlink:href="#mb85670e766" x="529.966386" y="506.401137" style="fill: #2ca02c; stroke: #2ca02c"/>
     <use xlink:href="#mb85670e766" x="535.615286" y="506.401137" style="fill: #2ca02c; stroke: #2ca02c"/>
     <use xlink:href="#mb85670e766" x="541.265515" y="506.197145" style="fill: #2ca02c; stroke: #2ca02c"/>
     <use xlink:href="#mb85670e766" x="546.91487" y="506.517704" style="fill: #2ca02c; stroke: #2ca02c"/>
     <use xlink:href="#mb85670e766" x="552.563891" y="506.517704" style="fill: #2ca02c; stroke: #2ca02c"/>
     <use xlink:href="#mb85670e766" x="558.21326" y="506.517704" style="fill: #2ca02c; stroke: #2ca02c"/>
     <use xlink:href="#mb85670e766" x="563.862669" y="506.138861" style="fill: #2ca02c; stroke: #2ca02c"/>
     <use xlink:href="#mb85670e766" x="569.511448" y="507.333675" style="fill: #2ca02c; stroke: #2ca02c"/>
     <use xlink:href="#mb85670e766" x="575.160468" y="507.799943" style="fill: #2ca02c; stroke: #2ca02c"/>
     <use xlink:href="#mb85670e766" x="580.810173" y="505.891156" style="fill: #2ca02c; stroke: #2ca02c"/>
     <use xlink:href="#mb85670e766" x="586.459744" y="506.313712" style="fill: #2ca02c; stroke: #2ca02c"/>
     <use xlink:href="#mb85670e766" x="592.107823" y="505.366604" style="fill: #2ca02c; stroke: #2ca02c"/>
     <use xlink:href="#mb85670e766" x="597.758482" y="506.430279" style="fill: #2ca02c; stroke: #2ca02c"/>
     <use xlink:href="#mb85670e766" x="603.40726" y="506.022294" style="fill: #2ca02c; stroke: #2ca02c"/>
     <use xlink:href="#mb85670e766" x="609.0562" y="506.255428" style="fill: #2ca02c; stroke: #2ca02c"/>
     <use xlink:href="#mb85670e766" x="614.705059" y="506.255428" style="fill: #2ca02c; stroke: #2ca02c"/>
     <use xlink:href="#mb85670e766" x="620.354401" y="507.479383" style="fill: #2ca02c; stroke: #2ca02c"/>
     <use xlink:href="#mb85670e766" x="626.007626" y="506.109719" style="fill: #2ca02c; stroke: #2ca02c"/>
     <use xlink:href="#mb85670e766" x="631.655894" y="506.342854" style="fill: #2ca02c; stroke: #2ca02c"/>
     <use xlink:href="#mb85670e766" x="637.304484" y="506.546846" style="fill: #2ca02c; stroke: #2ca02c"/>
     <use xlink:href="#mb85670e766" x="642.953034" y="506.546846" style="fill: #2ca02c; stroke: #2ca02c"/>
     <use xlink:href="#mb85670e766" x="648.603007" y="506.459421" style="fill: #2ca02c; stroke: #2ca02c"/>
     <use xlink:href="#mb85670e766" x="654.25196" y="506.401137" style="fill: #2ca02c; stroke: #2ca02c"/>
     <use xlink:href="#mb85670e766" x="659.900859" y="506.401137" style="fill: #2ca02c; stroke: #2ca02c"/>
     <use xlink:href="#mb85670e766" x="665.547354" y="506.401137" style="fill: #2ca02c; stroke: #2ca02c"/>
     <use xlink:href="#mb85670e766" x="671.196441" y="506.197145" style="fill: #2ca02c; stroke: #2ca02c"/>
     <use xlink:href="#mb85670e766" x="676.845717" y="506.28457" style="fill: #2ca02c; stroke: #2ca02c"/>
     <use xlink:href="#mb85670e766" x="682.494978" y="506.459421" style="fill: #2ca02c; stroke: #2ca02c"/>
     <use xlink:href="#mb85670e766" x="688.145288" y="506.168003" style="fill: #2ca02c; stroke: #2ca02c"/>
     <use xlink:href="#mb85670e766" x="693.79408" y="506.255428" style="fill: #2ca02c; stroke: #2ca02c"/>
     <use xlink:href="#mb85670e766" x="699.444148" y="506.255428" style="fill: #2ca02c; stroke: #2ca02c"/>
     <use xlink:href="#mb85670e766" x="705.092066" y="506.226287" style="fill: #2ca02c; stroke: #2ca02c"/>
     <use xlink:href="#mb85670e766" x="710.741288" y="505.876585" style="fill: #2ca02c; stroke: #2ca02c"/>
     <use xlink:href="#mb85670e766" x="716.390576" y="506.342854" style="fill: #2ca02c; stroke: #2ca02c"/>
     <use xlink:href="#mb85670e766" x="722.039543" y="506.080578" style="fill: #2ca02c; stroke: #2ca02c"/>
     <use xlink:href="#mb85670e766" x="727.688509" y="506.080578" style="fill: #2ca02c; stroke: #2ca02c"/>
     <use xlink:href="#mb85670e766" x="733.337274" y="506.080578" style="fill: #2ca02c; stroke: #2ca02c"/>
     <use xlink:href="#mb85670e766" x="738.986751" y="506.109719" style="fill: #2ca02c; stroke: #2ca02c"/>
     <use xlink:href="#mb85670e766" x="744.636241" y="506.313712" style="fill: #2ca02c; stroke: #2ca02c"/>
     <use xlink:href="#mb85670e766" x="750.284952" y="506.313712" style="fill: #2ca02c; stroke: #2ca02c"/>
     <use xlink:href="#mb85670e766" x="755.933488" y="506.401137" style="fill: #2ca02c; stroke: #2ca02c"/>
     <use xlink:href="#mb85670e766" x="761.58498" y="506.401137" style="fill: #2ca02c; stroke: #2ca02c"/>
     <use xlink:href="#mb85670e766" x="767.250334" y="506.401137" style="fill: #2ca02c; stroke: #2ca02c"/>
     <use xlink:href="#mb85670e766" x="772.911592" y="506.401137" style="fill: #2ca02c; stroke: #2ca02c"/>
     <use xlink:href="#mb85670e766" x="778.618211" y="506.401137" style="fill: #2ca02c; stroke: #2ca02c"/>
     <use xlink:href="#mb85670e766" x="784.309907" y="506.401137" style="fill: #2ca02c; stroke: #2ca02c"/>
     <use xlink:href="#mb85670e766" x="789.977558" y="506.401137" style="fill: #2ca02c; stroke: #2ca02c"/>
     <use xlink:href="#mb85670e766" x="795.645438" y="506.401137" style="fill: #2ca02c; stroke: #2ca02c"/>
     <use xlink:href="#mb85670e766" x="801.305472" y="506.401137" style="fill: #2ca02c; stroke: #2ca02c"/>
     <use xlink:href="#mb85670e766" x="806.990721" y="506.401137" style="fill: #2ca02c; stroke: #2ca02c"/>
     <use xlink:href="#mb85670e766" x="812.654261" y="506.401137" style="fill: #2ca02c; stroke: #2ca02c"/>
    </g>
   </g>
   <g id="line2d_30">
    <path d="M 88.136807 316.892078 
L 99.456259 316.892078 
L 110.769128 316.892078 
L 122.084403 316.892078 
L 133.404164 316.892078 
L 144.721278 316.892078 
L 150.403893 316.892078 
L 156.07501 316.892078 
L 161.761037 316.892078 
L 167.426432 316.892078 
L 173.092229 316.892078 
L 178.768263 316.892078 
L 184.433738 316.892078 
L 190.117105 316.892078 
L 195.781774 308.309821 
L 201.430338 293.899206 
L 207.079506 262.834058 
L 212.72827 243.935608 
L 218.376699 192.179789 
L 224.025934 165.864753 
L 229.675613 165.864753 
L 235.324015 163.781115 
L 240.972712 157.369921 
L 246.621732 149.064511 
L 252.270188 123.769438 
L 257.919934 98.343226 
L 263.568631 87.764756 
L 269.218243 84.879719 
L 274.869922 85.083712 
L 280.519238 85.083712 
L 286.169171 85.083712 
L 291.82112 71.634776 
L 297.469831 70.673097 
L 303.119119 67.78806 
L 308.770101 67.78806 
L 314.440828 67.78806 
L 320.090627 67.336362 
L 325.763248 66.564104 
L 331.421859 55.053097 
L 337.069993 50.244702 
L 342.718677 49.283023 
L 348.368006 48.321344 
L 354.018262 48.321344 
L 359.666597 47.359665 
L 365.31598 46.397986 
L 370.964342 46.397986 
L 376.613496 45.436307 
L 382.262946 45.436307 
L 387.923464 45.436307 
L 393.572216 45.436307 
L 399.223479 47.126531 
L 404.872351 47.170243 
L 410.521452 47.170243 
L 416.171654 47.170243 
L 421.825698 47.170243 
L 427.479057 46.223135 
L 433.127795 46.223135 
L 438.77664 46.223135 
L 444.425754 46.223135 
L 450.086246 46.776829 
L 455.734876 46.776829 
L 461.385361 46.776829 
L 467.03794 46.776829 
L 472.688223 46.776829 
L 478.337686 46.776829 
L 483.986545 46.776829 
L 489.635082 46.776829 
L 495.283484 46.776829 
L 500.932222 46.776829 
L 506.581551 46.776829 
L 512.231619 46.776829 
L 517.881418 46.776829 
L 523.529941 46.776829 
L 529.179619 46.776829 
L 534.828021 46.776829 
L 540.476947 46.776829 
L 546.125242 46.776829 
L 551.777835 46.776829 
L 557.428266 46.776829 
L 563.077635 46.776829 
L 568.735332 46.776829 
L 574.38446 46.776829 
L 580.03258 46.776829 
L 585.681976 46.776829 
L 591.329384 46.776829 
L 596.978915 46.776829 
L 602.627814 46.776829 
L 608.276082 46.776829 
L 613.924847 46.776829 
L 619.573302 46.776829 
L 625.222014 46.776829 
L 630.868293 46.776829 
L 636.517689 46.776829 
L 642.166441 46.776829 
L 647.814883 46.776829 
L 653.46307 46.776829 
L 659.111768 46.776829 
L 664.760023 46.776829 
L 670.40919 46.776829 
L 676.057297 46.776829 
L 681.706089 46.776829 
L 687.354451 46.776829 
L 693.003162 46.776829 
L 698.651725 46.587408 
L 704.302276 46.587408 
L 709.951552 46.587408 
L 715.600491 46.587408 
L 721.249444 46.587408 
L 726.912501 46.587408 
L 732.560366 46.587408 
L 738.211831 46.193993 
L 743.86973 46.193993 
L 749.518669 46.193993 
L 755.16726 46.193993 
L 760.83029 46.193993 
L 766.495201 46.193993 
L 772.172148 46.193993 
L 777.849309 46.193993 
L 783.523086 46.193993 
L 789.184128 46.193993 
L 794.856078 46.193993 
L 800.521002 46.193993 
L 806.189231 46.193993 
L 811.856331 46.193993 
" clip-path="url(#p854d89687a)" style="fill: none; stroke: #1f77b4; stroke-width: 2; stroke-linecap: square"/>
    <defs>
     <path id="mc115bb032b" d="M 0 2 
C 0.530406 2 1.03916 1.789267 1.414214 1.414214 
C 1.789267 1.03916 2 0.530406 2 0 
C 2 -0.530406 1.789267 -1.03916 1.414214 -1.414214 
C 1.03916 -1.789267 0.530406 -2 0 -2 
C -0.530406 -2 -1.03916 -1.789267 -1.414214 -1.414214 
C -1.789267 -1.03916 -2 -0.530406 -2 0 
C -2 0.530406 -1.789267 1.03916 -1.414214 1.414214 
C -1.03916 1.789267 -0.530406 2 0 2 
z
" style="stroke: #1f77b4"/>
    </defs>
    <g clip-path="url(#p854d89687a)">
     <use xlink:href="#mc115bb032b" x="88.136807" y="316.892078" style="fill: #1f77b4; stroke: #1f77b4"/>
     <use xlink:href="#mc115bb032b" x="99.456259" y="316.892078" style="fill: #1f77b4; stroke: #1f77b4"/>
     <use xlink:href="#mc115bb032b" x="110.769128" y="316.892078" style="fill: #1f77b4; stroke: #1f77b4"/>
     <use xlink:href="#mc115bb032b" x="122.084403" y="316.892078" style="fill: #1f77b4; stroke: #1f77b4"/>
     <use xlink:href="#mc115bb032b" x="133.404164" y="316.892078" style="fill: #1f77b4; stroke: #1f77b4"/>
     <use xlink:href="#mc115bb032b" x="144.721278" y="316.892078" style="fill: #1f77b4; stroke: #1f77b4"/>
     <use xlink:href="#mc115bb032b" x="150.403893" y="316.892078" style="fill: #1f77b4; stroke: #1f77b4"/>
     <use xlink:href="#mc115bb032b" x="156.07501" y="316.892078" style="fill: #1f77b4; stroke: #1f77b4"/>
     <use xlink:href="#mc115bb032b" x="161.761037" y="316.892078" style="fill: #1f77b4; stroke: #1f77b4"/>
     <use xlink:href="#mc115bb032b" x="167.426432" y="316.892078" style="fill: #1f77b4; stroke: #1f77b4"/>
     <use xlink:href="#mc115bb032b" x="173.092229" y="316.892078" style="fill: #1f77b4; stroke: #1f77b4"/>
     <use xlink:href="#mc115bb032b" x="178.768263" y="316.892078" style="fill: #1f77b4; stroke: #1f77b4"/>
     <use xlink:href="#mc115bb032b" x="184.433738" y="316.892078" style="fill: #1f77b4; stroke: #1f77b4"/>
     <use xlink:href="#mc115bb032b" x="190.117105" y="316.892078" style="fill: #1f77b4; stroke: #1f77b4"/>
     <use xlink:href="#mc115bb032b" x="195.781774" y="308.309821" style="fill: #1f77b4; stroke: #1f77b4"/>
     <use xlink:href="#mc115bb032b" x="201.430338" y="293.899206" style="fill: #1f77b4; stroke: #1f77b4"/>
     <use xlink:href="#mc115bb032b" x="207.079506" y="262.834058" style="fill: #1f77b4; stroke: #1f77b4"/>
     <use xlink:href="#mc115bb032b" x="212.72827" y="243.935608" style="fill: #1f77b4; stroke: #1f77b4"/>
     <use xlink:href="#mc115bb032b" x="218.376699" y="192.179789" style="fill: #1f77b4; stroke: #1f77b4"/>
     <use xlink:href="#mc115bb032b" x="224.025934" y="165.864753" style="fill: #1f77b4; stroke: #1f77b4"/>
     <use xlink:href="#mc115bb032b" x="229.675613" y="165.864753" style="fill: #1f77b4; stroke: #1f77b4"/>
     <use xlink:href="#mc115bb032b" x="235.324015" y="163.781115" style="fill: #1f77b4; stroke: #1f77b4"/>
     <use xlink:href="#mc115bb032b" x="240.972712" y="157.369921" style="fill: #1f77b4; stroke: #1f77b4"/>
     <use xlink:href="#mc115bb032b" x="246.621732" y="149.064511" style="fill: #1f77b4; stroke: #1f77b4"/>
     <use xlink:href="#mc115bb032b" x="252.270188" y="123.769438" style="fill: #1f77b4; stroke: #1f77b4"/>
     <use xlink:href="#mc115bb032b" x="257.919934" y="98.343226" style="fill: #1f77b4; stroke: #1f77b4"/>
     <use xlink:href="#mc115bb032b" x="263.568631" y="87.764756" style="fill: #1f77b4; stroke: #1f77b4"/>
     <use xlink:href="#mc115bb032b" x="269.218243" y="84.879719" style="fill: #1f77b4; stroke: #1f77b4"/>
     <use xlink:href="#mc115bb032b" x="274.869922" y="85.083712" style="fill: #1f77b4; stroke: #1f77b4"/>
     <use xlink:href="#mc115bb032b" x="280.519238" y="85.083712" style="fill: #1f77b4; stroke: #1f77b4"/>
     <use xlink:href="#mc115bb032b" x="286.169171" y="85.083712" style="fill: #1f77b4; stroke: #1f77b4"/>
     <use xlink:href="#mc115bb032b" x="291.82112" y="71.634776" style="fill: #1f77b4; stroke: #1f77b4"/>
     <use xlink:href="#mc115bb032b" x="297.469831" y="70.673097" style="fill: #1f77b4; stroke: #1f77b4"/>
     <use xlink:href="#mc115bb032b" x="303.119119" y="67.78806" style="fill: #1f77b4; stroke: #1f77b4"/>
     <use xlink:href="#mc115bb032b" x="308.770101" y="67.78806" style="fill: #1f77b4; stroke: #1f77b4"/>
     <use xlink:href="#mc115bb032b" x="314.440828" y="67.78806" style="fill: #1f77b4; stroke: #1f77b4"/>
     <use xlink:href="#mc115bb032b" x="320.090627" y="67.336362" style="fill: #1f77b4; stroke: #1f77b4"/>
     <use xlink:href="#mc115bb032b" x="325.763248" y="66.564104" style="fill: #1f77b4; stroke: #1f77b4"/>
     <use xlink:href="#mc115bb032b" x="331.421859" y="55.053097" style="fill: #1f77b4; stroke: #1f77b4"/>
     <use xlink:href="#mc115bb032b" x="337.069993" y="50.244702" style="fill: #1f77b4; stroke: #1f77b4"/>
     <use xlink:href="#mc115bb032b" x="342.718677" y="49.283023" style="fill: #1f77b4; stroke: #1f77b4"/>
     <use xlink:href="#mc115bb032b" x="348.368006" y="48.321344" style="fill: #1f77b4; stroke: #1f77b4"/>
     <use xlink:href="#mc115bb032b" x="354.018262" y="48.321344" style="fill: #1f77b4; stroke: #1f77b4"/>
     <use xlink:href="#mc115bb032b" x="359.666597" y="47.359665" style="fill: #1f77b4; stroke: #1f77b4"/>
     <use xlink:href="#mc115bb032b" x="365.31598" y="46.397986" style="fill: #1f77b4; stroke: #1f77b4"/>
     <use xlink:href="#mc115bb032b" x="370.964342" y="46.397986" style="fill: #1f77b4; stroke: #1f77b4"/>
     <use xlink:href="#mc115bb032b" x="376.613496" y="45.436307" style="fill: #1f77b4; stroke: #1f77b4"/>
     <use xlink:href="#mc115bb032b" x="382.262946" y="45.436307" style="fill: #1f77b4; stroke: #1f77b4"/>
     <use xlink:href="#mc115bb032b" x="387.923464" y="45.436307" style="fill: #1f77b4; stroke: #1f77b4"/>
     <use xlink:href="#mc115bb032b" x="393.572216" y="45.436307" style="fill: #1f77b4; stroke: #1f77b4"/>
     <use xlink:href="#mc115bb032b" x="399.223479" y="47.126531" style="fill: #1f77b4; stroke: #1f77b4"/>
     <use xlink:href="#mc115bb032b" x="404.872351" y="47.170243" style="fill: #1f77b4; stroke: #1f77b4"/>
     <use xlink:href="#mc115bb032b" x="410.521452" y="47.170243" style="fill: #1f77b4; stroke: #1f77b4"/>
     <use xlink:href="#mc115bb032b" x="416.171654" y="47.170243" style="fill: #1f77b4; stroke: #1f77b4"/>
     <use xlink:href="#mc115bb032b" x="421.825698" y="47.170243" style="fill: #1f77b4; stroke: #1f77b4"/>
     <use xlink:href="#mc115bb032b" x="427.479057" y="46.223135" style="fill: #1f77b4; stroke: #1f77b4"/>
     <use xlink:href="#mc115bb032b" x="433.127795" y="46.223135" style="fill: #1f77b4; stroke: #1f77b4"/>
     <use xlink:href="#mc115bb032b" x="438.77664" y="46.223135" style="fill: #1f77b4; stroke: #1f77b4"/>
     <use xlink:href="#mc115bb032b" x="444.425754" y="46.223135" style="fill: #1f77b4; stroke: #1f77b4"/>
     <use xlink:href="#mc115bb032b" x="450.086246" y="46.776829" style="fill: #1f77b4; stroke: #1f77b4"/>
     <use xlink:href="#mc115bb032b" x="455.734876" y="46.776829" style="fill: #1f77b4; stroke: #1f77b4"/>
     <use xlink:href="#mc115bb032b" x="461.385361" y="46.776829" style="fill: #1f77b4; stroke: #1f77b4"/>
     <use xlink:href="#mc115bb032b" x="467.03794" y="46.776829" style="fill: #1f77b4; stroke: #1f77b4"/>
     <use xlink:href="#mc115bb032b" x="472.688223" y="46.776829" style="fill: #1f77b4; stroke: #1f77b4"/>
     <use xlink:href="#mc115bb032b" x="478.337686" y="46.776829" style="fill: #1f77b4; stroke: #1f77b4"/>
     <use xlink:href="#mc115bb032b" x="483.986545" y="46.776829" style="fill: #1f77b4; stroke: #1f77b4"/>
     <use xlink:href="#mc115bb032b" x="489.635082" y="46.776829" style="fill: #1f77b4; stroke: #1f77b4"/>
     <use xlink:href="#mc115bb032b" x="495.283484" y="46.776829" style="fill: #1f77b4; stroke: #1f77b4"/>
     <use xlink:href="#mc115bb032b" x="500.932222" y="46.776829" style="fill: #1f77b4; stroke: #1f77b4"/>
     <use xlink:href="#mc115bb032b" x="506.581551" y="46.776829" style="fill: #1f77b4; stroke: #1f77b4"/>
     <use xlink:href="#mc115bb032b" x="512.231619" y="46.776829" style="fill: #1f77b4; stroke: #1f77b4"/>
     <use xlink:href="#mc115bb032b" x="517.881418" y="46.776829" style="fill: #1f77b4; stroke: #1f77b4"/>
     <use xlink:href="#mc115bb032b" x="523.529941" y="46.776829" style="fill: #1f77b4; stroke: #1f77b4"/>
     <use xlink:href="#mc115bb032b" x="529.179619" y="46.776829" style="fill: #1f77b4; stroke: #1f77b4"/>
     <use xlink:href="#mc115bb032b" x="534.828021" y="46.776829" style="fill: #1f77b4; stroke: #1f77b4"/>
     <use xlink:href="#mc115bb032b" x="540.476947" y="46.776829" style="fill: #1f77b4; stroke: #1f77b4"/>
     <use xlink:href="#mc115bb032b" x="546.125242" y="46.776829" style="fill: #1f77b4; stroke: #1f77b4"/>
     <use xlink:href="#mc115bb032b" x="551.777835" y="46.776829" style="fill: #1f77b4; stroke: #1f77b4"/>
     <use xlink:href="#mc115bb032b" x="557.428266" y="46.776829" style="fill: #1f77b4; stroke: #1f77b4"/>
     <use xlink:href="#mc115bb032b" x="563.077635" y="46.776829" style="fill: #1f77b4; stroke: #1f77b4"/>
     <use xlink:href="#mc115bb032b" x="568.735332" y="46.776829" style="fill: #1f77b4; stroke: #1f77b4"/>
     <use xlink:href="#mc115bb032b" x="574.38446" y="46.776829" style="fill: #1f77b4; stroke: #1f77b4"/>
     <use xlink:href="#mc115bb032b" x="580.03258" y="46.776829" style="fill: #1f77b4; stroke: #1f77b4"/>
     <use xlink:href="#mc115bb032b" x="585.681976" y="46.776829" style="fill: #1f77b4; stroke: #1f77b4"/>
     <use xlink:href="#mc115bb032b" x="591.329384" y="46.776829" style="fill: #1f77b4; stroke: #1f77b4"/>
     <use xlink:href="#mc115bb032b" x="596.978915" y="46.776829" style="fill: #1f77b4; stroke: #1f77b4"/>
     <use xlink:href="#mc115bb032b" x="602.627814" y="46.776829" style="fill: #1f77b4; stroke: #1f77b4"/>
     <use xlink:href="#mc115bb032b" x="608.276082" y="46.776829" style="fill: #1f77b4; stroke: #1f77b4"/>
     <use xlink:href="#mc115bb032b" x="613.924847" y="46.776829" style="fill: #1f77b4; stroke: #1f77b4"/>
     <use xlink:href="#mc115bb032b" x="619.573302" y="46.776829" style="fill: #1f77b4; stroke: #1f77b4"/>
     <use xlink:href="#mc115bb032b" x="625.222014" y="46.776829" style="fill: #1f77b4; stroke: #1f77b4"/>
     <use xlink:href="#mc115bb032b" x="630.868293" y="46.776829" style="fill: #1f77b4; stroke: #1f77b4"/>
     <use xlink:href="#mc115bb032b" x="636.517689" y="46.776829" style="fill: #1f77b4; stroke: #1f77b4"/>
     <use xlink:href="#mc115bb032b" x="642.166441" y="46.776829" style="fill: #1f77b4; stroke: #1f77b4"/>
     <use xlink:href="#mc115bb032b" x="647.814883" y="46.776829" style="fill: #1f77b4; stroke: #1f77b4"/>
     <use xlink:href="#mc115bb032b" x="653.46307" y="46.776829" style="fill: #1f77b4; stroke: #1f77b4"/>
     <use xlink:href="#mc115bb032b" x="659.111768" y="46.776829" style="fill: #1f77b4; stroke: #1f77b4"/>
     <use xlink:href="#mc115bb032b" x="664.760023" y="46.776829" style="fill: #1f77b4; stroke: #1f77b4"/>
     <use xlink:href="#mc115bb032b" x="670.40919" y="46.776829" style="fill: #1f77b4; stroke: #1f77b4"/>
     <use xlink:href="#mc115bb032b" x="676.057297" y="46.776829" style="fill: #1f77b4; stroke: #1f77b4"/>
     <use xlink:href="#mc115bb032b" x="681.706089" y="46.776829" style="fill: #1f77b4; stroke: #1f77b4"/>
     <use xlink:href="#mc115bb032b" x="687.354451" y="46.776829" style="fill: #1f77b4; stroke: #1f77b4"/>
     <use xlink:href="#mc115bb032b" x="693.003162" y="46.776829" style="fill: #1f77b4; stroke: #1f77b4"/>
     <use xlink:href="#mc115bb032b" x="698.651725" y="46.587408" style="fill: #1f77b4; stroke: #1f77b4"/>
     <use xlink:href="#mc115bb032b" x="704.302276" y="46.587408" style="fill: #1f77b4; stroke: #1f77b4"/>
     <use xlink:href="#mc115bb032b" x="709.951552" y="46.587408" style="fill: #1f77b4; stroke: #1f77b4"/>
     <use xlink:href="#mc115bb032b" x="715.600491" y="46.587408" style="fill: #1f77b4; stroke: #1f77b4"/>
     <use xlink:href="#mc115bb032b" x="721.249444" y="46.587408" style="fill: #1f77b4; stroke: #1f77b4"/>
     <use xlink:href="#mc115bb032b" x="726.912501" y="46.587408" style="fill: #1f77b4; stroke: #1f77b4"/>
     <use xlink:href="#mc115bb032b" x="732.560366" y="46.587408" style="fill: #1f77b4; stroke: #1f77b4"/>
     <use xlink:href="#mc115bb032b" x="738.211831" y="46.193993" style="fill: #1f77b4; stroke: #1f77b4"/>
     <use xlink:href="#mc115bb032b" x="743.86973" y="46.193993" style="fill: #1f77b4; stroke: #1f77b4"/>
     <use xlink:href="#mc115bb032b" x="749.518669" y="46.193993" style="fill: #1f77b4; stroke: #1f77b4"/>
     <use xlink:href="#mc115bb032b" x="755.16726" y="46.193993" style="fill: #1f77b4; stroke: #1f77b4"/>
     <use xlink:href="#mc115bb032b" x="760.83029" y="46.193993" style="fill: #1f77b4; stroke: #1f77b4"/>
     <use xlink:href="#mc115bb032b" x="766.495201" y="46.193993" style="fill: #1f77b4; stroke: #1f77b4"/>
     <use xlink:href="#mc115bb032b" x="772.172148" y="46.193993" style="fill: #1f77b4; stroke: #1f77b4"/>
     <use xlink:href="#mc115bb032b" x="777.849309" y="46.193993" style="fill: #1f77b4; stroke: #1f77b4"/>
     <use xlink:href="#mc115bb032b" x="783.523086" y="46.193993" style="fill: #1f77b4; stroke: #1f77b4"/>
     <use xlink:href="#mc115bb032b" x="789.184128" y="46.193993" style="fill: #1f77b4; stroke: #1f77b4"/>
     <use xlink:href="#mc115bb032b" x="794.856078" y="46.193993" style="fill: #1f77b4; stroke: #1f77b4"/>
     <use xlink:href="#mc115bb032b" x="800.521002" y="46.193993" style="fill: #1f77b4; stroke: #1f77b4"/>
     <use xlink:href="#mc115bb032b" x="806.189231" y="46.193993" style="fill: #1f77b4; stroke: #1f77b4"/>
     <use xlink:href="#mc115bb032b" x="811.856331" y="46.193993" style="fill: #1f77b4; stroke: #1f77b4"/>
    </g>
   </g>
   <g id="line2d_31">
    <path d="M 86.365972 364.888606 
L 97.744327 364.888606 
L 109.085956 364.888606 
L 120.42557 364.888606 
L 131.759946 364.888606 
L 143.105108 364.888606 
L 148.782793 364.888606 
L 154.478989 364.888606 
L 160.16558 364.888606 
L 165.877089 364.888606 
L 171.5564 364.888606 
L 177.234609 364.888606 
L 182.914861 364.888606 
L 188.605012 364.888606 
L 194.293524 363.548084 
L 199.949583 363.548084 
L 205.606555 363.548084 
L 211.263057 362.83411 
L 216.919693 362.83411 
L 222.577377 362.83411 
L 228.235021 362.83411 
L 233.893391 362.83411 
L 239.55047 362.83411 
L 245.209914 362.83411 
L 250.866524 362.804968 
L 256.523455 362.804968 
L 262.18298 362.804968 
L 267.843257 362.804968 
L 273.500041 362.804968 
L 279.162198 362.804968 
L 284.818633 362.804968 
L 290.482066 362.804968 
L 296.139764 362.804968 
L 301.795608 362.804968 
L 307.452432 362.804968 
L 313.10837 362.804968 
L 318.765127 362.804968 
L 324.422019 362.804968 
L 330.079717 362.804968 
L 335.736031 362.804968 
L 341.392358 362.804968 
L 347.049908 362.804968 
L 352.706222 362.804968 
L 358.362402 362.804968 
L 364.02331 362.804968 
L 369.679153 362.804968 
L 375.336099 362.804968 
L 380.993608 362.804968 
L 386.651816 362.804968 
L 392.306747 362.804968 
L 397.962483 362.804968 
L 403.64718 362.804968 
L 409.303065 362.804968 
L 414.960171 362.804968 
L 420.616351 362.804968 
L 426.272316 362.804968 
L 431.929006 362.804968 
L 437.58497 362.804968 
L 443.239471 362.804968 
L 448.896457 362.804968 
L 454.552462 362.804968 
L 460.208789 362.804968 
L 465.86513 362.804968 
L 471.521686 362.804968 
L 477.178027 362.804968 
L 482.840802 362.804968 
L 488.503255 362.804968 
L 494.165681 362.804968 
L 499.821981 362.804968 
L 505.479316 362.804968 
L 511.13653 362.804968 
L 516.792858 362.804968 
L 522.449413 362.804968 
L 528.112188 362.804968 
L 533.775246 362.804968 
L 539.432943 362.804968 
L 545.089378 362.804968 
L 550.747264 362.804968 
L 556.428576 362.804968 
L 562.085723 362.804968 
L 567.740103 362.804968 
L 573.397115 362.804968 
L 579.053537 362.804968 
L 584.71016 362.804968 
L 590.368556 362.804968 
L 596.027865 362.804968 
L 601.686033 362.804968 
L 607.342925 362.804968 
L 613.0012 362.804968 
L 618.657876 362.804968 
L 624.315547 362.804968 
L 629.978067 362.804968 
L 635.634596 362.804968 
L 641.293207 362.804968 
L 646.955015 362.804968 
L 652.612605 362.804968 
L 658.270988 362.804968 
L 663.928135 362.804968 
L 669.584287 362.804968 
L 675.241784 362.804968 
L 680.898406 362.804968 
L 686.554277 362.804968 
L 692.210578 362.804968 
L 697.87072 362.804968 
L 703.527128 362.804968 
L 709.18492 362.804968 
L 714.842389 362.804968 
L 720.502773 362.804968 
L 726.158926 362.804968 
L 731.81258 362.804968 
L 737.469606 362.804968 
L 743.125732 362.804968 
L 748.782234 362.804968 
L 754.43965 362.804968 
L 760.098959 362.790397 
L 765.789473 362.790397 
L 771.508545 362.790397 
L 777.201221 362.790397 
L 782.898867 362.790397 
L 788.588615 362.790397 
L 794.292548 362.790397 
L 799.998819 362.790397 
L 805.706996 362.790397 
L 811.399982 362.790397 
" clip-path="url(#p854d89687a)" style="fill: none; stroke: #ff7f0e; stroke-width: 2; stroke-linecap: square"/>
    <defs>
     <path id="m49d054f7f3" d="M 0 2 
C 0.530406 2 1.03916 1.789267 1.414214 1.414214 
C 1.789267 1.03916 2 0.530406 2 0 
C 2 -0.530406 1.789267 -1.03916 1.414214 -1.414214 
C 1.03916 -1.789267 0.530406 -2 0 -2 
C -0.530406 -2 -1.03916 -1.789267 -1.414214 -1.414214 
C -1.789267 -1.03916 -2 -0.530406 -2 0 
C -2 0.530406 -1.789267 1.03916 -1.414214 1.414214 
C -1.03916 1.789267 -0.530406 2 0 2 
z
" style="stroke: #ff7f0e"/>
    </defs>
    <g clip-path="url(#p854d89687a)">
     <use xlink:href="#m49d054f7f3" x="86.365972" y="364.888606" style="fill: #ff7f0e; stroke: #ff7f0e"/>
     <use xlink:href="#m49d054f7f3" x="97.744327" y="364.888606" style="fill: #ff7f0e; stroke: #ff7f0e"/>
     <use xlink:href="#m49d054f7f3" x="109.085956" y="364.888606" style="fill: #ff7f0e; stroke: #ff7f0e"/>
     <use xlink:href="#m49d054f7f3" x="120.42557" y="364.888606" style="fill: #ff7f0e; stroke: #ff7f0e"/>
     <use xlink:href="#m49d054f7f3" x="131.759946" y="364.888606" style="fill: #ff7f0e; stroke: #ff7f0e"/>
     <use xlink:href="#m49d054f7f3" x="143.105108" y="364.888606" style="fill: #ff7f0e; stroke: #ff7f0e"/>
     <use xlink:href="#m49d054f7f3" x="148.782793" y="364.888606" style="fill: #ff7f0e; stroke: #ff7f0e"/>
     <use xlink:href="#m49d054f7f3" x="154.478989" y="364.888606" style="fill: #ff7f0e; stroke: #ff7f0e"/>
     <use xlink:href="#m49d054f7f3" x="160.16558" y="364.888606" style="fill: #ff7f0e; stroke: #ff7f0e"/>
     <use xlink:href="#m49d054f7f3" x="165.877089" y="364.888606" style="fill: #ff7f0e; stroke: #ff7f0e"/>
     <use xlink:href="#m49d054f7f3" x="171.5564" y="364.888606" style="fill: #ff7f0e; stroke: #ff7f0e"/>
     <use xlink:href="#m49d054f7f3" x="177.234609" y="364.888606" style="fill: #ff7f0e; stroke: #ff7f0e"/>
     <use xlink:href="#m49d054f7f3" x="182.914861" y="364.888606" style="fill: #ff7f0e; stroke: #ff7f0e"/>
     <use xlink:href="#m49d054f7f3" x="188.605012" y="364.888606" style="fill: #ff7f0e; stroke: #ff7f0e"/>
     <use xlink:href="#m49d054f7f3" x="194.293524" y="363.548084" style="fill: #ff7f0e; stroke: #ff7f0e"/>
     <use xlink:href="#m49d054f7f3" x="199.949583" y="363.548084" style="fill: #ff7f0e; stroke: #ff7f0e"/>
     <use xlink:href="#m49d054f7f3" x="205.606555" y="363.548084" style="fill: #ff7f0e; stroke: #ff7f0e"/>
     <use xlink:href="#m49d054f7f3" x="211.263057" y="362.83411" style="fill: #ff7f0e; stroke: #ff7f0e"/>
     <use xlink:href="#m49d054f7f3" x="216.919693" y="362.83411" style="fill: #ff7f0e; stroke: #ff7f0e"/>
     <use xlink:href="#m49d054f7f3" x="222.577377" y="362.83411" style="fill: #ff7f0e; stroke: #ff7f0e"/>
     <use xlink:href="#m49d054f7f3" x="228.235021" y="362.83411" style="fill: #ff7f0e; stroke: #ff7f0e"/>
     <use xlink:href="#m49d054f7f3" x="233.893391" y="362.83411" style="fill: #ff7f0e; stroke: #ff7f0e"/>
     <use xlink:href="#m49d054f7f3" x="239.55047" y="362.83411" style="fill: #ff7f0e; stroke: #ff7f0e"/>
     <use xlink:href="#m49d054f7f3" x="245.209914" y="362.83411" style="fill: #ff7f0e; stroke: #ff7f0e"/>
     <use xlink:href="#m49d054f7f3" x="250.866524" y="362.804968" style="fill: #ff7f0e; stroke: #ff7f0e"/>
     <use xlink:href="#m49d054f7f3" x="256.523455" y="362.804968" style="fill: #ff7f0e; stroke: #ff7f0e"/>
     <use xlink:href="#m49d054f7f3" x="262.18298" y="362.804968" style="fill: #ff7f0e; stroke: #ff7f0e"/>
     <use xlink:href="#m49d054f7f3" x="267.843257" y="362.804968" style="fill: #ff7f0e; stroke: #ff7f0e"/>
     <use xlink:href="#m49d054f7f3" x="273.500041" y="362.804968" style="fill: #ff7f0e; stroke: #ff7f0e"/>
     <use xlink:href="#m49d054f7f3" x="279.162198" y="362.804968" style="fill: #ff7f0e; stroke: #ff7f0e"/>
     <use xlink:href="#m49d054f7f3" x="284.818633" y="362.804968" style="fill: #ff7f0e; stroke: #ff7f0e"/>
     <use xlink:href="#m49d054f7f3" x="290.482066" y="362.804968" style="fill: #ff7f0e; stroke: #ff7f0e"/>
     <use xlink:href="#m49d054f7f3" x="296.139764" y="362.804968" style="fill: #ff7f0e; stroke: #ff7f0e"/>
     <use xlink:href="#m49d054f7f3" x="301.795608" y="362.804968" style="fill: #ff7f0e; stroke: #ff7f0e"/>
     <use xlink:href="#m49d054f7f3" x="307.452432" y="362.804968" style="fill: #ff7f0e; stroke: #ff7f0e"/>
     <use xlink:href="#m49d054f7f3" x="313.10837" y="362.804968" style="fill: #ff7f0e; stroke: #ff7f0e"/>
     <use xlink:href="#m49d054f7f3" x="318.765127" y="362.804968" style="fill: #ff7f0e; stroke: #ff7f0e"/>
     <use xlink:href="#m49d054f7f3" x="324.422019" y="362.804968" style="fill: #ff7f0e; stroke: #ff7f0e"/>
     <use xlink:href="#m49d054f7f3" x="330.079717" y="362.804968" style="fill: #ff7f0e; stroke: #ff7f0e"/>
     <use xlink:href="#m49d054f7f3" x="335.736031" y="362.804968" style="fill: #ff7f0e; stroke: #ff7f0e"/>
     <use xlink:href="#m49d054f7f3" x="341.392358" y="362.804968" style="fill: #ff7f0e; stroke: #ff7f0e"/>
     <use xlink:href="#m49d054f7f3" x="347.049908" y="362.804968" style="fill: #ff7f0e; stroke: #ff7f0e"/>
     <use xlink:href="#m49d054f7f3" x="352.706222" y="362.804968" style="fill: #ff7f0e; stroke: #ff7f0e"/>
     <use xlink:href="#m49d054f7f3" x="358.362402" y="362.804968" style="fill: #ff7f0e; stroke: #ff7f0e"/>
     <use xlink:href="#m49d054f7f3" x="364.02331" y="362.804968" style="fill: #ff7f0e; stroke: #ff7f0e"/>
     <use xlink:href="#m49d054f7f3" x="369.679153" y="362.804968" style="fill: #ff7f0e; stroke: #ff7f0e"/>
     <use xlink:href="#m49d054f7f3" x="375.336099" y="362.804968" style="fill: #ff7f0e; stroke: #ff7f0e"/>
     <use xlink:href="#m49d054f7f3" x="380.993608" y="362.804968" style="fill: #ff7f0e; stroke: #ff7f0e"/>
     <use xlink:href="#m49d054f7f3" x="386.651816" y="362.804968" style="fill: #ff7f0e; stroke: #ff7f0e"/>
     <use xlink:href="#m49d054f7f3" x="392.306747" y="362.804968" style="fill: #ff7f0e; stroke: #ff7f0e"/>
     <use xlink:href="#m49d054f7f3" x="397.962483" y="362.804968" style="fill: #ff7f0e; stroke: #ff7f0e"/>
     <use xlink:href="#m49d054f7f3" x="403.64718" y="362.804968" style="fill: #ff7f0e; stroke: #ff7f0e"/>
     <use xlink:href="#m49d054f7f3" x="409.303065" y="362.804968" style="fill: #ff7f0e; stroke: #ff7f0e"/>
     <use xlink:href="#m49d054f7f3" x="414.960171" y="362.804968" style="fill: #ff7f0e; stroke: #ff7f0e"/>
     <use xlink:href="#m49d054f7f3" x="420.616351" y="362.804968" style="fill: #ff7f0e; stroke: #ff7f0e"/>
     <use xlink:href="#m49d054f7f3" x="426.272316" y="362.804968" style="fill: #ff7f0e; stroke: #ff7f0e"/>
     <use xlink:href="#m49d054f7f3" x="431.929006" y="362.804968" style="fill: #ff7f0e; stroke: #ff7f0e"/>
     <use xlink:href="#m49d054f7f3" x="437.58497" y="362.804968" style="fill: #ff7f0e; stroke: #ff7f0e"/>
     <use xlink:href="#m49d054f7f3" x="443.239471" y="362.804968" style="fill: #ff7f0e; stroke: #ff7f0e"/>
     <use xlink:href="#m49d054f7f3" x="448.896457" y="362.804968" style="fill: #ff7f0e; stroke: #ff7f0e"/>
     <use xlink:href="#m49d054f7f3" x="454.552462" y="362.804968" style="fill: #ff7f0e; stroke: #ff7f0e"/>
     <use xlink:href="#m49d054f7f3" x="460.208789" y="362.804968" style="fill: #ff7f0e; stroke: #ff7f0e"/>
     <use xlink:href="#m49d054f7f3" x="465.86513" y="362.804968" style="fill: #ff7f0e; stroke: #ff7f0e"/>
     <use xlink:href="#m49d054f7f3" x="471.521686" y="362.804968" style="fill: #ff7f0e; stroke: #ff7f0e"/>
     <use xlink:href="#m49d054f7f3" x="477.178027" y="362.804968" style="fill: #ff7f0e; stroke: #ff7f0e"/>
     <use xlink:href="#m49d054f7f3" x="482.840802" y="362.804968" style="fill: #ff7f0e; stroke: #ff7f0e"/>
     <use xlink:href="#m49d054f7f3" x="488.503255" y="362.804968" style="fill: #ff7f0e; stroke: #ff7f0e"/>
     <use xlink:href="#m49d054f7f3" x="494.165681" y="362.804968" style="fill: #ff7f0e; stroke: #ff7f0e"/>
     <use xlink:href="#m49d054f7f3" x="499.821981" y="362.804968" style="fill: #ff7f0e; stroke: #ff7f0e"/>
     <use xlink:href="#m49d054f7f3" x="505.479316" y="362.804968" style="fill: #ff7f0e; stroke: #ff7f0e"/>
     <use xlink:href="#m49d054f7f3" x="511.13653" y="362.804968" style="fill: #ff7f0e; stroke: #ff7f0e"/>
     <use xlink:href="#m49d054f7f3" x="516.792858" y="362.804968" style="fill: #ff7f0e; stroke: #ff7f0e"/>
     <use xlink:href="#m49d054f7f3" x="522.449413" y="362.804968" style="fill: #ff7f0e; stroke: #ff7f0e"/>
     <use xlink:href="#m49d054f7f3" x="528.112188" y="362.804968" style="fill: #ff7f0e; stroke: #ff7f0e"/>
     <use xlink:href="#m49d054f7f3" x="533.775246" y="362.804968" style="fill: #ff7f0e; stroke: #ff7f0e"/>
     <use xlink:href="#m49d054f7f3" x="539.432943" y="362.804968" style="fill: #ff7f0e; stroke: #ff7f0e"/>
     <use xlink:href="#m49d054f7f3" x="545.089378" y="362.804968" style="fill: #ff7f0e; stroke: #ff7f0e"/>
     <use xlink:href="#m49d054f7f3" x="550.747264" y="362.804968" style="fill: #ff7f0e; stroke: #ff7f0e"/>
     <use xlink:href="#m49d054f7f3" x="556.428576" y="362.804968" style="fill: #ff7f0e; stroke: #ff7f0e"/>
     <use xlink:href="#m49d054f7f3" x="562.085723" y="362.804968" style="fill: #ff7f0e; stroke: #ff7f0e"/>
     <use xlink:href="#m49d054f7f3" x="567.740103" y="362.804968" style="fill: #ff7f0e; stroke: #ff7f0e"/>
     <use xlink:href="#m49d054f7f3" x="573.397115" y="362.804968" style="fill: #ff7f0e; stroke: #ff7f0e"/>
     <use xlink:href="#m49d054f7f3" x="579.053537" y="362.804968" style="fill: #ff7f0e; stroke: #ff7f0e"/>
     <use xlink:href="#m49d054f7f3" x="584.71016" y="362.804968" style="fill: #ff7f0e; stroke: #ff7f0e"/>
     <use xlink:href="#m49d054f7f3" x="590.368556" y="362.804968" style="fill: #ff7f0e; stroke: #ff7f0e"/>
     <use xlink:href="#m49d054f7f3" x="596.027865" y="362.804968" style="fill: #ff7f0e; stroke: #ff7f0e"/>
     <use xlink:href="#m49d054f7f3" x="601.686033" y="362.804968" style="fill: #ff7f0e; stroke: #ff7f0e"/>
     <use xlink:href="#m49d054f7f3" x="607.342925" y="362.804968" style="fill: #ff7f0e; stroke: #ff7f0e"/>
     <use xlink:href="#m49d054f7f3" x="613.0012" y="362.804968" style="fill: #ff7f0e; stroke: #ff7f0e"/>
     <use xlink:href="#m49d054f7f3" x="618.657876" y="362.804968" style="fill: #ff7f0e; stroke: #ff7f0e"/>
     <use xlink:href="#m49d054f7f3" x="624.315547" y="362.804968" style="fill: #ff7f0e; stroke: #ff7f0e"/>
     <use xlink:href="#m49d054f7f3" x="629.978067" y="362.804968" style="fill: #ff7f0e; stroke: #ff7f0e"/>
     <use xlink:href="#m49d054f7f3" x="635.634596" y="362.804968" style="fill: #ff7f0e; stroke: #ff7f0e"/>
     <use xlink:href="#m49d054f7f3" x="641.293207" y="362.804968" style="fill: #ff7f0e; stroke: #ff7f0e"/>
     <use xlink:href="#m49d054f7f3" x="646.955015" y="362.804968" style="fill: #ff7f0e; stroke: #ff7f0e"/>
     <use xlink:href="#m49d054f7f3" x="652.612605" y="362.804968" style="fill: #ff7f0e; stroke: #ff7f0e"/>
     <use xlink:href="#m49d054f7f3" x="658.270988" y="362.804968" style="fill: #ff7f0e; stroke: #ff7f0e"/>
     <use xlink:href="#m49d054f7f3" x="663.928135" y="362.804968" style="fill: #ff7f0e; stroke: #ff7f0e"/>
     <use xlink:href="#m49d054f7f3" x="669.584287" y="362.804968" style="fill: #ff7f0e; stroke: #ff7f0e"/>
     <use xlink:href="#m49d054f7f3" x="675.241784" y="362.804968" style="fill: #ff7f0e; stroke: #ff7f0e"/>
     <use xlink:href="#m49d054f7f3" x="680.898406" y="362.804968" style="fill: #ff7f0e; stroke: #ff7f0e"/>
     <use xlink:href="#m49d054f7f3" x="686.554277" y="362.804968" style="fill: #ff7f0e; stroke: #ff7f0e"/>
     <use xlink:href="#m49d054f7f3" x="692.210578" y="362.804968" style="fill: #ff7f0e; stroke: #ff7f0e"/>
     <use xlink:href="#m49d054f7f3" x="697.87072" y="362.804968" style="fill: #ff7f0e; stroke: #ff7f0e"/>
     <use xlink:href="#m49d054f7f3" x="703.527128" y="362.804968" style="fill: #ff7f0e; stroke: #ff7f0e"/>
     <use xlink:href="#m49d054f7f3" x="709.18492" y="362.804968" style="fill: #ff7f0e; stroke: #ff7f0e"/>
     <use xlink:href="#m49d054f7f3" x="714.842389" y="362.804968" style="fill: #ff7f0e; stroke: #ff7f0e"/>
     <use xlink:href="#m49d054f7f3" x="720.502773" y="362.804968" style="fill: #ff7f0e; stroke: #ff7f0e"/>
     <use xlink:href="#m49d054f7f3" x="726.158926" y="362.804968" style="fill: #ff7f0e; stroke: #ff7f0e"/>
     <use xlink:href="#m49d054f7f3" x="731.81258" y="362.804968" style="fill: #ff7f0e; stroke: #ff7f0e"/>
     <use xlink:href="#m49d054f7f3" x="737.469606" y="362.804968" style="fill: #ff7f0e; stroke: #ff7f0e"/>
     <use xlink:href="#m49d054f7f3" x="743.125732" y="362.804968" style="fill: #ff7f0e; stroke: #ff7f0e"/>
     <use xlink:href="#m49d054f7f3" x="748.782234" y="362.804968" style="fill: #ff7f0e; stroke: #ff7f0e"/>
     <use xlink:href="#m49d054f7f3" x="754.43965" y="362.804968" style="fill: #ff7f0e; stroke: #ff7f0e"/>
     <use xlink:href="#m49d054f7f3" x="760.098959" y="362.790397" style="fill: #ff7f0e; stroke: #ff7f0e"/>
     <use xlink:href="#m49d054f7f3" x="765.789473" y="362.790397" style="fill: #ff7f0e; stroke: #ff7f0e"/>
     <use xlink:href="#m49d054f7f3" x="771.508545" y="362.790397" style="fill: #ff7f0e; stroke: #ff7f0e"/>
     <use xlink:href="#m49d054f7f3" x="777.201221" y="362.790397" style="fill: #ff7f0e; stroke: #ff7f0e"/>
     <use xlink:href="#m49d054f7f3" x="782.898867" y="362.790397" style="fill: #ff7f0e; stroke: #ff7f0e"/>
     <use xlink:href="#m49d054f7f3" x="788.588615" y="362.790397" style="fill: #ff7f0e; stroke: #ff7f0e"/>
     <use xlink:href="#m49d054f7f3" x="794.292548" y="362.790397" style="fill: #ff7f0e; stroke: #ff7f0e"/>
     <use xlink:href="#m49d054f7f3" x="799.998819" y="362.790397" style="fill: #ff7f0e; stroke: #ff7f0e"/>
     <use xlink:href="#m49d054f7f3" x="805.706996" y="362.790397" style="fill: #ff7f0e; stroke: #ff7f0e"/>
     <use xlink:href="#m49d054f7f3" x="811.399982" y="362.790397" style="fill: #ff7f0e; stroke: #ff7f0e"/>
    </g>
   </g>
   <g id="patch_3">
    <path d="M 46.965625 530.918125 
L 46.965625 22.318125 
" style="fill: none; stroke: #000000; stroke-width: 0.8; stroke-linejoin: miter; stroke-linecap: square"/>
   </g>
   <g id="patch_4">
    <path d="M 849.115625 530.918125 
L 849.115625 22.318125 
" style="fill: none; stroke: #000000; stroke-width: 0.8; stroke-linejoin: miter; stroke-linecap: square"/>
   </g>
   <g id="patch_5">
    <path d="M 46.965625 530.918125 
L 849.115625 530.918125 
" style="fill: none; stroke: #000000; stroke-width: 0.8; stroke-linejoin: miter; stroke-linecap: square"/>
   </g>
   <g id="patch_6">
    <path d="M 46.965625 22.318125 
L 849.115625 22.318125 
" style="fill: none; stroke: #000000; stroke-width: 0.8; stroke-linejoin: miter; stroke-linecap: square"/>
   </g>
   <g id="text_17">
    <!-- Memory Usage Comparison Over Time -->
    <g transform="translate(332.279063 16.318125) scale(0.12 -0.12)">
     <defs>
      <path id="DejaVuSans-43" d="M 4122 4306 
L 4122 3641 
Q 3803 3938 3442 4084 
Q 3081 4231 2675 4231 
Q 1875 4231 1450 3742 
Q 1025 3253 1025 2328 
Q 1025 1406 1450 917 
Q 1875 428 2675 428 
Q 3081 428 3442 575 
Q 3803 722 4122 1019 
L 4122 359 
Q 3791 134 3420 21 
Q 3050 -91 2638 -91 
Q 1578 -91 968 557 
Q 359 1206 359 2328 
Q 359 3453 968 4101 
Q 1578 4750 2638 4750 
Q 3056 4750 3426 4639 
Q 3797 4528 4122 4306 
z
" transform="scale(0.015625)"/>
      <path id="DejaVuSans-4f" d="M 2522 4238 
Q 1834 4238 1429 3725 
Q 1025 3213 1025 2328 
Q 1025 1447 1429 934 
Q 1834 422 2522 422 
Q 3209 422 3611 934 
Q 4013 1447 4013 2328 
Q 4013 3213 3611 3725 
Q 3209 4238 2522 4238 
z
M 2522 4750 
Q 3503 4750 4090 4092 
Q 4678 3434 4678 2328 
Q 4678 1225 4090 567 
Q 3503 -91 2522 -91 
Q 1538 -91 948 565 
Q 359 1222 359 2328 
Q 359 3434 948 4092 
Q 1538 4750 2522 4750 
z
" transform="scale(0.015625)"/>
      <path id="DejaVuSans-76" d="M 191 3500 
L 800 3500 
L 1894 563 
L 2988 3500 
L 3597 3500 
L 2284 0 
L 1503 0 
L 191 3500 
z
" transform="scale(0.015625)"/>
     </defs>
     <use xlink:href="#DejaVuSans-4d"/>
     <use xlink:href="#DejaVuSans-65" x="86.279297"/>
     <use xlink:href="#DejaVuSans-6d" x="147.802734"/>
     <use xlink:href="#DejaVuSans-6f" x="245.214844"/>
     <use xlink:href="#DejaVuSans-72" x="306.396484"/>
     <use xlink:href="#DejaVuSans-79" x="347.509766"/>
     <use xlink:href="#DejaVuSans-20" x="406.689453"/>
     <use xlink:href="#DejaVuSans-55" x="438.476562"/>
     <use xlink:href="#DejaVuSans-73" x="511.669922"/>
     <use xlink:href="#DejaVuSans-61" x="563.769531"/>
     <use xlink:href="#DejaVuSans-67" x="625.048828"/>
     <use xlink:href="#DejaVuSans-65" x="688.525391"/>
     <use xlink:href="#DejaVuSans-20" x="750.048828"/>
     <use xlink:href="#DejaVuSans-43" x="781.835938"/>
     <use xlink:href="#DejaVuSans-6f" x="851.660156"/>
     <use xlink:href="#DejaVuSans-6d" x="912.841797"/>
     <use xlink:href="#DejaVuSans-70" x="1010.253906"/>
     <use xlink:href="#DejaVuSans-61" x="1073.730469"/>
     <use xlink:href="#DejaVuSans-72" x="1135.009766"/>
     <use xlink:href="#DejaVuSans-69" x="1176.123047"/>
     <use xlink:href="#DejaVuSans-73" x="1203.90625"/>
     <use xlink:href="#DejaVuSans-6f" x="1256.005859"/>
     <use xlink:href="#DejaVuSans-6e" x="1317.1875"/>
     <use xlink:href="#DejaVuSans-20" x="1380.566406"/>
     <use xlink:href="#DejaVuSans-4f" x="1412.353516"/>
     <use xlink:href="#DejaVuSans-76" x="1491.064453"/>
     <use xlink:href="#DejaVuSans-65" x="1550.244141"/>
     <use xlink:href="#DejaVuSans-72" x="1611.767578"/>
     <use xlink:href="#DejaVuSans-20" x="1652.880859"/>
     <use xlink:href="#DejaVuSans-54" x="1684.667969"/>
     <use xlink:href="#DejaVuSans-69" x="1742.626953"/>
     <use xlink:href="#DejaVuSans-6d" x="1770.410156"/>
     <use xlink:href="#DejaVuSans-65" x="1867.822266"/>
    </g>
   </g>
   <g id="legend_1">
    <g id="patch_7">
     <path d="M 53.965625 74.3525 
L 122.607813 74.3525 
Q 124.607813 74.3525 124.607813 72.3525 
L 124.607813 29.318125 
Q 124.607813 27.318125 122.607813 27.318125 
L 53.965625 27.318125 
Q 51.965625 27.318125 51.965625 29.318125 
L 51.965625 72.3525 
Q 51.965625 74.3525 53.965625 74.3525 
z
" style="fill: #ffffff; opacity: 0.8; stroke: #cccccc; stroke-linejoin: miter"/>
    </g>
    <g id="line2d_32">
     <path d="M 55.965625 35.416562 
L 65.965625 35.416562 
L 75.965625 35.416562 
" style="fill: none; stroke: #2ca02c; stroke-width: 2; stroke-linecap: square"/>
     <g>
      <use xlink:href="#mb85670e766" x="65.965625" y="35.416562" style="fill: #2ca02c; stroke: #2ca02c"/>
     </g>
    </g>
    <g id="text_18">
     <!-- weaver -->
     <g transform="translate(83.965625 38.916562) scale(0.1 -0.1)">
      <defs>
       <path id="DejaVuSans-77" d="M 269 3500 
L 844 3500 
L 1563 769 
L 2278 3500 
L 2956 3500 
L 3675 769 
L 4391 3500 
L 4966 3500 
L 4050 0 
L 3372 0 
L 2619 2869 
L 1863 0 
L 1184 0 
L 269 3500 
z
" transform="scale(0.015625)"/>
      </defs>
      <use xlink:href="#DejaVuSans-77"/>
      <use xlink:href="#DejaVuSans-65" x="81.787109"/>
      <use xlink:href="#DejaVuSans-61" x="143.310547"/>
      <use xlink:href="#DejaVuSans-76" x="204.589844"/>
      <use xlink:href="#DejaVuSans-65" x="263.769531"/>
      <use xlink:href="#DejaVuSans-72" x="325.292969"/>
     </g>
    </g>
    <g id="line2d_33">
     <path d="M 55.965625 50.094687 
L 65.965625 50.094687 
L 75.965625 50.094687 
" style="fill: none; stroke: #1f77b4; stroke-width: 2; stroke-linecap: square"/>
     <g>
      <use xlink:href="#mc115bb032b" x="65.965625" y="50.094687" style="fill: #1f77b4; stroke: #1f77b4"/>
     </g>
    </g>
    <g id="text_19">
     <!-- node -->
     <g transform="translate(83.965625 53.594687) scale(0.1 -0.1)">
      <use xlink:href="#DejaVuSans-6e"/>
      <use xlink:href="#DejaVuSans-6f" x="63.378906"/>
      <use xlink:href="#DejaVuSans-64" x="124.560547"/>
      <use xlink:href="#DejaVuSans-65" x="188.037109"/>
     </g>
    </g>
    <g id="line2d_34">
     <path d="M 55.965625 64.772812 
L 65.965625 64.772812 
L 75.965625 64.772812 
" style="fill: none; stroke: #ff7f0e; stroke-width: 2; stroke-linecap: square"/>
     <g>
      <use xlink:href="#m49d054f7f3" x="65.965625" y="64.772812" style="fill: #ff7f0e; stroke: #ff7f0e"/>
     </g>
    </g>
    <g id="text_20">
     <!-- python -->
     <g transform="translate(83.965625 68.272812) scale(0.1 -0.1)">
      <defs>
       <path id="DejaVuSans-74" d="M 1172 4494 
L 1172 3500 
L 2356 3500 
L 2356 3053 
L 1172 3053 
L 1172 1153 
Q 1172 725 1289 603 
Q 1406 481 1766 481 
L 2356 481 
L 2356 0 
L 1766 0 
Q 1100 0 847 248 
Q 594 497 594 1153 
L 594 3053 
L 172 3053 
L 172 3500 
L 594 3500 
L 594 4494 
L 1172 4494 
z
" transform="scale(0.015625)"/>
       <path id="DejaVuSans-68" d="M 3513 2113 
L 3513 0 
L 2938 0 
L 2938 2094 
Q 2938 2591 2744 2837 
Q 2550 3084 2163 3084 
Q 1697 3084 1428 2787 
Q 1159 2491 1159 1978 
L 1159 0 
L 581 0 
L 581 4863 
L 1159 4863 
L 1159 2956 
Q 1366 3272 1645 3428 
Q 1925 3584 2291 3584 
Q 2894 3584 3203 3211 
Q 3513 2838 3513 2113 
z
" transform="scale(0.015625)"/>
      </defs>
      <use xlink:href="#DejaVuSans-70"/>
      <use xlink:href="#DejaVuSans-79" x="63.476562"/>
      <use xlink:href="#DejaVuSans-74" x="122.65625"/>
      <use xlink:href="#DejaVuSans-68" x="161.865234"/>
      <use xlink:href="#DejaVuSans-6f" x="225.244141"/>
      <use xlink:href="#DejaVuSans-6e" x="286.425781"/>
     </g>
    </g>
   </g>
  </g>
 </g>
 <defs>
  <clipPath id="p854d89687a">
   <rect x="46.965625" y="22.318125" width="802.15" height="508.6"/>
  </clipPath>
 </defs>
</svg>
