<?xml version="1.0" encoding="utf-8" standalone="no"?>
<!DOCTYPE svg PUBLIC "-//W3C//DTD SVG 1.1//EN"
  "http://www.w3.org/Graphics/SVG/1.1/DTD/svg11.dtd">
<svg xmlns:xlink="http://www.w3.org/1999/xlink" width="856.260625pt" height="568.474375pt" viewBox="0 0 856.260625 568.474375" xmlns="http://www.w3.org/2000/svg" version="1.1">
 <metadata>
  <rdf:RDF xmlns:dc="http://purl.org/dc/elements/1.1/" xmlns:cc="http://creativecommons.org/ns#" xmlns:rdf="http://www.w3.org/1999/02/22-rdf-syntax-ns#">
   <cc:Work>
    <dc:type rdf:resource="http://purl.org/dc/dcmitype/StillImage"/>
    <dc:date>2025-06-27T15:22:00.451648</dc:date>
    <dc:format>image/svg+xml</dc:format>
    <dc:creator>
     <cc:Agent>
      <dc:title>Matplotlib v3.6.3, https://matplotlib.org/</dc:title>
     </cc:Agent>
    </dc:creator>
   </cc:Work>
  </rdf:RDF>
 </metadata>
 <defs>
  <style type="text/css">*{stroke-linejoin: round; stroke-linecap: butt}</style>
 </defs>
 <g id="figure_1">
  <g id="patch_1">
   <path d="M 0 568.474375 
L 856.260625 568.474375 
L 856.260625 0 
L 0 0 
z
" style="fill: #ffffff"/>
  </g>
  <g id="axes_1">
   <g id="patch_2">
    <path d="M 59.690625 530.918125 
L 849.060625 530.918125 
L 849.060625 22.318125 
L 59.690625 22.318125 
z
" style="fill: #ffffff"/>
   </g>
   <g id="matplotlib.axis_1">
    <g id="xtick_1">
     <g id="line2d_1">
      <path d="M 88.322503 530.918125 
L 88.322503 22.318125 
" clip-path="url(#p59a3d0f340)" style="fill: none; stroke: #b0b0b0; stroke-opacity: 0.3; stroke-width: 0.8; stroke-linecap: square"/>
     </g>
     <g id="line2d_2">
      <defs>
       <path id="m4a03500695" d="M 0 0 
L 0 3.5 
" style="stroke: #000000; stroke-width: 0.8"/>
      </defs>
      <g>
       <use xlink:href="#m4a03500695" x="88.322503" y="530.918125" style="stroke: #000000; stroke-width: 0.8"/>
      </g>
     </g>
     <g id="text_1">
      <!-- 0 -->
      <g transform="translate(85.141253 545.516562) scale(0.1 -0.1)">
       <defs>
        <path id="DejaVuSans-30" d="M 2034 4250 
Q 1547 4250 1301 3770 
Q 1056 3291 1056 2328 
Q 1056 1369 1301 889 
Q 1547 409 2034 409 
Q 2525 409 2770 889 
Q 3016 1369 3016 2328 
Q 3016 3291 2770 3770 
Q 2525 4250 2034 4250 
z
M 2034 4750 
Q 2819 4750 3233 4129 
Q 3647 3509 3647 2328 
Q 3647 1150 3233 529 
Q 2819 -91 2034 -91 
Q 1250 -91 836 529 
Q 422 1150 422 2328 
Q 422 3509 836 4129 
Q 1250 4750 2034 4750 
z
" transform="scale(0.015625)"/>
       </defs>
       <use xlink:href="#DejaVuSans-30"/>
      </g>
     </g>
    </g>
    <g id="xtick_2">
     <g id="line2d_3">
      <path d="M 233.294036 530.918125 
L 233.294036 22.318125 
" clip-path="url(#p59a3d0f340)" style="fill: none; stroke: #b0b0b0; stroke-opacity: 0.3; stroke-width: 0.8; stroke-linecap: square"/>
     </g>
     <g id="line2d_4">
      <g>
       <use xlink:href="#m4a03500695" x="233.294036" y="530.918125" style="stroke: #000000; stroke-width: 0.8"/>
      </g>
     </g>
     <g id="text_2">
      <!-- 2 -->
      <g transform="translate(230.112786 545.516562) scale(0.1 -0.1)">
       <defs>
        <path id="DejaVuSans-32" d="M 1228 531 
L 3431 531 
L 3431 0 
L 469 0 
L 469 531 
Q 828 903 1448 1529 
Q 2069 2156 2228 2338 
Q 2531 2678 2651 2914 
Q 2772 3150 2772 3378 
Q 2772 3750 2511 3984 
Q 2250 4219 1831 4219 
Q 1534 4219 1204 4116 
Q 875 4013 500 3803 
L 500 4441 
Q 881 4594 1212 4672 
Q 1544 4750 1819 4750 
Q 2544 4750 2975 4387 
Q 3406 4025 3406 3419 
Q 3406 3131 3298 2873 
Q 3191 2616 2906 2266 
Q 2828 2175 2409 1742 
Q 1991 1309 1228 531 
z
" transform="scale(0.015625)"/>
       </defs>
       <use xlink:href="#DejaVuSans-32"/>
      </g>
     </g>
    </g>
    <g id="xtick_3">
     <g id="line2d_5">
      <path d="M 378.26557 530.918125 
L 378.26557 22.318125 
" clip-path="url(#p59a3d0f340)" style="fill: none; stroke: #b0b0b0; stroke-opacity: 0.3; stroke-width: 0.8; stroke-linecap: square"/>
     </g>
     <g id="line2d_6">
      <g>
       <use xlink:href="#m4a03500695" x="378.26557" y="530.918125" style="stroke: #000000; stroke-width: 0.8"/>
      </g>
     </g>
     <g id="text_3">
      <!-- 4 -->
      <g transform="translate(375.08432 545.516562) scale(0.1 -0.1)">
       <defs>
        <path id="DejaVuSans-34" d="M 2419 4116 
L 825 1625 
L 2419 1625 
L 2419 4116 
z
M 2253 4666 
L 3047 4666 
L 3047 1625 
L 3713 1625 
L 3713 1100 
L 3047 1100 
L 3047 0 
L 2419 0 
L 2419 1100 
L 313 1100 
L 313 1709 
L 2253 4666 
z
" transform="scale(0.015625)"/>
       </defs>
       <use xlink:href="#DejaVuSans-34"/>
      </g>
     </g>
    </g>
    <g id="xtick_4">
     <g id="line2d_7">
      <path d="M 523.237103 530.918125 
L 523.237103 22.318125 
" clip-path="url(#p59a3d0f340)" style="fill: none; stroke: #b0b0b0; stroke-opacity: 0.3; stroke-width: 0.8; stroke-linecap: square"/>
     </g>
     <g id="line2d_8">
      <g>
       <use xlink:href="#m4a03500695" x="523.237103" y="530.918125" style="stroke: #000000; stroke-width: 0.8"/>
      </g>
     </g>
     <g id="text_4">
      <!-- 6 -->
      <g transform="translate(520.055853 545.516562) scale(0.1 -0.1)">
       <defs>
        <path id="DejaVuSans-36" d="M 2113 2584 
Q 1688 2584 1439 2293 
Q 1191 2003 1191 1497 
Q 1191 994 1439 701 
Q 1688 409 2113 409 
Q 2538 409 2786 701 
Q 3034 994 3034 1497 
Q 3034 2003 2786 2293 
Q 2538 2584 2113 2584 
z
M 3366 4563 
L 3366 3988 
Q 3128 4100 2886 4159 
Q 2644 4219 2406 4219 
Q 1781 4219 1451 3797 
Q 1122 3375 1075 2522 
Q 1259 2794 1537 2939 
Q 1816 3084 2150 3084 
Q 2853 3084 3261 2657 
Q 3669 2231 3669 1497 
Q 3669 778 3244 343 
Q 2819 -91 2113 -91 
Q 1303 -91 875 529 
Q 447 1150 447 2328 
Q 447 3434 972 4092 
Q 1497 4750 2381 4750 
Q 2619 4750 2861 4703 
Q 3103 4656 3366 4563 
z
" transform="scale(0.015625)"/>
       </defs>
       <use xlink:href="#DejaVuSans-36"/>
      </g>
     </g>
    </g>
    <g id="xtick_5">
     <g id="line2d_9">
      <path d="M 668.208637 530.918125 
L 668.208637 22.318125 
" clip-path="url(#p59a3d0f340)" style="fill: none; stroke: #b0b0b0; stroke-opacity: 0.3; stroke-width: 0.8; stroke-linecap: square"/>
     </g>
     <g id="line2d_10">
      <g>
       <use xlink:href="#m4a03500695" x="668.208637" y="530.918125" style="stroke: #000000; stroke-width: 0.8"/>
      </g>
     </g>
     <g id="text_5">
      <!-- 8 -->
      <g transform="translate(665.027387 545.516562) scale(0.1 -0.1)">
       <defs>
        <path id="DejaVuSans-38" d="M 2034 2216 
Q 1584 2216 1326 1975 
Q 1069 1734 1069 1313 
Q 1069 891 1326 650 
Q 1584 409 2034 409 
Q 2484 409 2743 651 
Q 3003 894 3003 1313 
Q 3003 1734 2745 1975 
Q 2488 2216 2034 2216 
z
M 1403 2484 
Q 997 2584 770 2862 
Q 544 3141 544 3541 
Q 544 4100 942 4425 
Q 1341 4750 2034 4750 
Q 2731 4750 3128 4425 
Q 3525 4100 3525 3541 
Q 3525 3141 3298 2862 
Q 3072 2584 2669 2484 
Q 3125 2378 3379 2068 
Q 3634 1759 3634 1313 
Q 3634 634 3220 271 
Q 2806 -91 2034 -91 
Q 1263 -91 848 271 
Q 434 634 434 1313 
Q 434 1759 690 2068 
Q 947 2378 1403 2484 
z
M 1172 3481 
Q 1172 3119 1398 2916 
Q 1625 2713 2034 2713 
Q 2441 2713 2670 2916 
Q 2900 3119 2900 3481 
Q 2900 3844 2670 4047 
Q 2441 4250 2034 4250 
Q 1625 4250 1398 4047 
Q 1172 3844 1172 3481 
z
" transform="scale(0.015625)"/>
       </defs>
       <use xlink:href="#DejaVuSans-38"/>
      </g>
     </g>
    </g>
    <g id="xtick_6">
     <g id="line2d_11">
      <path d="M 813.18017 530.918125 
L 813.18017 22.318125 
" clip-path="url(#p59a3d0f340)" style="fill: none; stroke: #b0b0b0; stroke-opacity: 0.3; stroke-width: 0.8; stroke-linecap: square"/>
     </g>
     <g id="line2d_12">
      <g>
       <use xlink:href="#m4a03500695" x="813.18017" y="530.918125" style="stroke: #000000; stroke-width: 0.8"/>
      </g>
     </g>
     <g id="text_6">
      <!-- 10 -->
      <g transform="translate(806.81767 545.516562) scale(0.1 -0.1)">
       <defs>
        <path id="DejaVuSans-31" d="M 794 531 
L 1825 531 
L 1825 4091 
L 703 3866 
L 703 4441 
L 1819 4666 
L 2450 4666 
L 2450 531 
L 3481 531 
L 3481 0 
L 794 0 
L 794 531 
z
" transform="scale(0.015625)"/>
       </defs>
       <use xlink:href="#DejaVuSans-31"/>
       <use xlink:href="#DejaVuSans-30" x="63.623047"/>
      </g>
     </g>
    </g>
    <g id="text_7">
     <!-- Elapsed Time (seconds) -->
     <g transform="translate(394.982656 559.194687) scale(0.1 -0.1)">
      <defs>
       <path id="DejaVuSans-45" d="M 628 4666 
L 3578 4666 
L 3578 4134 
L 1259 4134 
L 1259 2753 
L 3481 2753 
L 3481 2222 
L 1259 2222 
L 1259 531 
L 3634 531 
L 3634 0 
L 628 0 
L 628 4666 
z
" transform="scale(0.015625)"/>
       <path id="DejaVuSans-6c" d="M 603 4863 
L 1178 4863 
L 1178 0 
L 603 0 
L 603 4863 
z
" transform="scale(0.015625)"/>
       <path id="DejaVuSans-61" d="M 2194 1759 
Q 1497 1759 1228 1600 
Q 959 1441 959 1056 
Q 959 750 1161 570 
Q 1363 391 1709 391 
Q 2188 391 2477 730 
Q 2766 1069 2766 1631 
L 2766 1759 
L 2194 1759 
z
M 3341 1997 
L 3341 0 
L 2766 0 
L 2766 531 
Q 2569 213 2275 61 
Q 1981 -91 1556 -91 
Q 1019 -91 701 211 
Q 384 513 384 1019 
Q 384 1609 779 1909 
Q 1175 2209 1959 2209 
L 2766 2209 
L 2766 2266 
Q 2766 2663 2505 2880 
Q 2244 3097 1772 3097 
Q 1472 3097 1187 3025 
Q 903 2953 641 2809 
L 641 3341 
Q 956 3463 1253 3523 
Q 1550 3584 1831 3584 
Q 2591 3584 2966 3190 
Q 3341 2797 3341 1997 
z
" transform="scale(0.015625)"/>
       <path id="DejaVuSans-70" d="M 1159 525 
L 1159 -1331 
L 581 -1331 
L 581 3500 
L 1159 3500 
L 1159 2969 
Q 1341 3281 1617 3432 
Q 1894 3584 2278 3584 
Q 2916 3584 3314 3078 
Q 3713 2572 3713 1747 
Q 3713 922 3314 415 
Q 2916 -91 2278 -91 
Q 1894 -91 1617 61 
Q 1341 213 1159 525 
z
M 3116 1747 
Q 3116 2381 2855 2742 
Q 2594 3103 2138 3103 
Q 1681 3103 1420 2742 
Q 1159 2381 1159 1747 
Q 1159 1113 1420 752 
Q 1681 391 2138 391 
Q 2594 391 2855 752 
Q 3116 1113 3116 1747 
z
" transform="scale(0.015625)"/>
       <path id="DejaVuSans-73" d="M 2834 3397 
L 2834 2853 
Q 2591 2978 2328 3040 
Q 2066 3103 1784 3103 
Q 1356 3103 1142 2972 
Q 928 2841 928 2578 
Q 928 2378 1081 2264 
Q 1234 2150 1697 2047 
L 1894 2003 
Q 2506 1872 2764 1633 
Q 3022 1394 3022 966 
Q 3022 478 2636 193 
Q 2250 -91 1575 -91 
Q 1294 -91 989 -36 
Q 684 19 347 128 
L 347 722 
Q 666 556 975 473 
Q 1284 391 1588 391 
Q 1994 391 2212 530 
Q 2431 669 2431 922 
Q 2431 1156 2273 1281 
Q 2116 1406 1581 1522 
L 1381 1569 
Q 847 1681 609 1914 
Q 372 2147 372 2553 
Q 372 3047 722 3315 
Q 1072 3584 1716 3584 
Q 2034 3584 2315 3537 
Q 2597 3491 2834 3397 
z
" transform="scale(0.015625)"/>
       <path id="DejaVuSans-65" d="M 3597 1894 
L 3597 1613 
L 953 1613 
Q 991 1019 1311 708 
Q 1631 397 2203 397 
Q 2534 397 2845 478 
Q 3156 559 3463 722 
L 3463 178 
Q 3153 47 2828 -22 
Q 2503 -91 2169 -91 
Q 1331 -91 842 396 
Q 353 884 353 1716 
Q 353 2575 817 3079 
Q 1281 3584 2069 3584 
Q 2775 3584 3186 3129 
Q 3597 2675 3597 1894 
z
M 3022 2063 
Q 3016 2534 2758 2815 
Q 2500 3097 2075 3097 
Q 1594 3097 1305 2825 
Q 1016 2553 972 2059 
L 3022 2063 
z
" transform="scale(0.015625)"/>
       <path id="DejaVuSans-64" d="M 2906 2969 
L 2906 4863 
L 3481 4863 
L 3481 0 
L 2906 0 
L 2906 525 
Q 2725 213 2448 61 
Q 2172 -91 1784 -91 
Q 1150 -91 751 415 
Q 353 922 353 1747 
Q 353 2572 751 3078 
Q 1150 3584 1784 3584 
Q 2172 3584 2448 3432 
Q 2725 3281 2906 2969 
z
M 947 1747 
Q 947 1113 1208 752 
Q 1469 391 1925 391 
Q 2381 391 2643 752 
Q 2906 1113 2906 1747 
Q 2906 2381 2643 2742 
Q 2381 3103 1925 3103 
Q 1469 3103 1208 2742 
Q 947 2381 947 1747 
z
" transform="scale(0.015625)"/>
       <path id="DejaVuSans-20" transform="scale(0.015625)"/>
       <path id="DejaVuSans-54" d="M -19 4666 
L 3928 4666 
L 3928 4134 
L 2272 4134 
L 2272 0 
L 1638 0 
L 1638 4134 
L -19 4134 
L -19 4666 
z
" transform="scale(0.015625)"/>
       <path id="DejaVuSans-69" d="M 603 3500 
L 1178 3500 
L 1178 0 
L 603 0 
L 603 3500 
z
M 603 4863 
L 1178 4863 
L 1178 4134 
L 603 4134 
L 603 4863 
z
" transform="scale(0.015625)"/>
       <path id="DejaVuSans-6d" d="M 3328 2828 
Q 3544 3216 3844 3400 
Q 4144 3584 4550 3584 
Q 5097 3584 5394 3201 
Q 5691 2819 5691 2113 
L 5691 0 
L 5113 0 
L 5113 2094 
Q 5113 2597 4934 2840 
Q 4756 3084 4391 3084 
Q 3944 3084 3684 2787 
Q 3425 2491 3425 1978 
L 3425 0 
L 2847 0 
L 2847 2094 
Q 2847 2600 2669 2842 
Q 2491 3084 2119 3084 
Q 1678 3084 1418 2786 
Q 1159 2488 1159 1978 
L 1159 0 
L 581 0 
L 581 3500 
L 1159 3500 
L 1159 2956 
Q 1356 3278 1631 3431 
Q 1906 3584 2284 3584 
Q 2666 3584 2933 3390 
Q 3200 3197 3328 2828 
z
" transform="scale(0.015625)"/>
       <path id="DejaVuSans-28" d="M 1984 4856 
Q 1566 4138 1362 3434 
Q 1159 2731 1159 2009 
Q 1159 1288 1364 580 
Q 1569 -128 1984 -844 
L 1484 -844 
Q 1016 -109 783 600 
Q 550 1309 550 2009 
Q 550 2706 781 3412 
Q 1013 4119 1484 4856 
L 1984 4856 
z
" transform="scale(0.015625)"/>
       <path id="DejaVuSans-63" d="M 3122 3366 
L 3122 2828 
Q 2878 2963 2633 3030 
Q 2388 3097 2138 3097 
Q 1578 3097 1268 2742 
Q 959 2388 959 1747 
Q 959 1106 1268 751 
Q 1578 397 2138 397 
Q 2388 397 2633 464 
Q 2878 531 3122 666 
L 3122 134 
Q 2881 22 2623 -34 
Q 2366 -91 2075 -91 
Q 1284 -91 818 406 
Q 353 903 353 1747 
Q 353 2603 823 3093 
Q 1294 3584 2113 3584 
Q 2378 3584 2631 3529 
Q 2884 3475 3122 3366 
z
" transform="scale(0.015625)"/>
       <path id="DejaVuSans-6f" d="M 1959 3097 
Q 1497 3097 1228 2736 
Q 959 2375 959 1747 
Q 959 1119 1226 758 
Q 1494 397 1959 397 
Q 2419 397 2687 759 
Q 2956 1122 2956 1747 
Q 2956 2369 2687 2733 
Q 2419 3097 1959 3097 
z
M 1959 3584 
Q 2709 3584 3137 3096 
Q 3566 2609 3566 1747 
Q 3566 888 3137 398 
Q 2709 -91 1959 -91 
Q 1206 -91 779 398 
Q 353 888 353 1747 
Q 353 2609 779 3096 
Q 1206 3584 1959 3584 
z
" transform="scale(0.015625)"/>
       <path id="DejaVuSans-6e" d="M 3513 2113 
L 3513 0 
L 2938 0 
L 2938 2094 
Q 2938 2591 2744 2837 
Q 2550 3084 2163 3084 
Q 1697 3084 1428 2787 
Q 1159 2491 1159 1978 
L 1159 0 
L 581 0 
L 581 3500 
L 1159 3500 
L 1159 2956 
Q 1366 3272 1645 3428 
Q 1925 3584 2291 3584 
Q 2894 3584 3203 3211 
Q 3513 2838 3513 2113 
z
" transform="scale(0.015625)"/>
       <path id="DejaVuSans-29" d="M 513 4856 
L 1013 4856 
Q 1481 4119 1714 3412 
Q 1947 2706 1947 2009 
Q 1947 1309 1714 600 
Q 1481 -109 1013 -844 
L 513 -844 
Q 928 -128 1133 580 
Q 1338 1288 1338 2009 
Q 1338 2731 1133 3434 
Q 928 4138 513 4856 
z
" transform="scale(0.015625)"/>
      </defs>
      <use xlink:href="#DejaVuSans-45"/>
      <use xlink:href="#DejaVuSans-6c" x="63.183594"/>
      <use xlink:href="#DejaVuSans-61" x="90.966797"/>
      <use xlink:href="#DejaVuSans-70" x="152.246094"/>
      <use xlink:href="#DejaVuSans-73" x="215.722656"/>
      <use xlink:href="#DejaVuSans-65" x="267.822266"/>
      <use xlink:href="#DejaVuSans-64" x="329.345703"/>
      <use xlink:href="#DejaVuSans-20" x="392.822266"/>
      <use xlink:href="#DejaVuSans-54" x="424.609375"/>
      <use xlink:href="#DejaVuSans-69" x="482.568359"/>
      <use xlink:href="#DejaVuSans-6d" x="510.351562"/>
      <use xlink:href="#DejaVuSans-65" x="607.763672"/>
      <use xlink:href="#DejaVuSans-20" x="669.287109"/>
      <use xlink:href="#DejaVuSans-28" x="701.074219"/>
      <use xlink:href="#DejaVuSans-73" x="740.087891"/>
      <use xlink:href="#DejaVuSans-65" x="792.1875"/>
      <use xlink:href="#DejaVuSans-63" x="853.710938"/>
      <use xlink:href="#DejaVuSans-6f" x="908.691406"/>
      <use xlink:href="#DejaVuSans-6e" x="969.873047"/>
      <use xlink:href="#DejaVuSans-64" x="1033.251953"/>
      <use xlink:href="#DejaVuSans-73" x="1096.728516"/>
      <use xlink:href="#DejaVuSans-29" x="1148.828125"/>
     </g>
    </g>
   </g>
   <g id="matplotlib.axis_2">
    <g id="ytick_1">
     <g id="line2d_13">
      <path d="M 59.690625 448.617539 
L 849.060625 448.617539 
" clip-path="url(#p59a3d0f340)" style="fill: none; stroke: #b0b0b0; stroke-opacity: 0.3; stroke-width: 0.8; stroke-linecap: square"/>
     </g>
     <g id="line2d_14">
      <defs>
       <path id="m1bc8bcfd35" d="M 0 0 
L -3.5 0 
" style="stroke: #000000; stroke-width: 0.8"/>
      </defs>
      <g>
       <use xlink:href="#m1bc8bcfd35" x="59.690625" y="448.617539" style="stroke: #000000; stroke-width: 0.8"/>
      </g>
     </g>
     <g id="text_8">
      <!-- 5000 -->
      <g transform="translate(27.240625 452.416758) scale(0.1 -0.1)">
       <defs>
        <path id="DejaVuSans-35" d="M 691 4666 
L 3169 4666 
L 3169 4134 
L 1269 4134 
L 1269 2991 
Q 1406 3038 1543 3061 
Q 1681 3084 1819 3084 
Q 2600 3084 3056 2656 
Q 3513 2228 3513 1497 
Q 3513 744 3044 326 
Q 2575 -91 1722 -91 
Q 1428 -91 1123 -41 
Q 819 9 494 109 
L 494 744 
Q 775 591 1075 516 
Q 1375 441 1709 441 
Q 2250 441 2565 725 
Q 2881 1009 2881 1497 
Q 2881 1984 2565 2268 
Q 2250 2553 1709 2553 
Q 1456 2553 1204 2497 
Q 953 2441 691 2322 
L 691 4666 
z
" transform="scale(0.015625)"/>
       </defs>
       <use xlink:href="#DejaVuSans-35"/>
       <use xlink:href="#DejaVuSans-30" x="63.623047"/>
       <use xlink:href="#DejaVuSans-30" x="127.246094"/>
       <use xlink:href="#DejaVuSans-30" x="190.869141"/>
      </g>
     </g>
    </g>
    <g id="ytick_2">
     <g id="line2d_15">
      <path d="M 59.690625 348.78332 
L 849.060625 348.78332 
" clip-path="url(#p59a3d0f340)" style="fill: none; stroke: #b0b0b0; stroke-opacity: 0.3; stroke-width: 0.8; stroke-linecap: square"/>
     </g>
     <g id="line2d_16">
      <g>
       <use xlink:href="#m1bc8bcfd35" x="59.690625" y="348.78332" style="stroke: #000000; stroke-width: 0.8"/>
      </g>
     </g>
     <g id="text_9">
      <!-- 10000 -->
      <g transform="translate(20.878125 352.582539) scale(0.1 -0.1)">
       <use xlink:href="#DejaVuSans-31"/>
       <use xlink:href="#DejaVuSans-30" x="63.623047"/>
       <use xlink:href="#DejaVuSans-30" x="127.246094"/>
       <use xlink:href="#DejaVuSans-30" x="190.869141"/>
       <use xlink:href="#DejaVuSans-30" x="254.492188"/>
      </g>
     </g>
    </g>
    <g id="ytick_3">
     <g id="line2d_17">
      <path d="M 59.690625 248.949101 
L 849.060625 248.949101 
" clip-path="url(#p59a3d0f340)" style="fill: none; stroke: #b0b0b0; stroke-opacity: 0.3; stroke-width: 0.8; stroke-linecap: square"/>
     </g>
     <g id="line2d_18">
      <g>
       <use xlink:href="#m1bc8bcfd35" x="59.690625" y="248.949101" style="stroke: #000000; stroke-width: 0.8"/>
      </g>
     </g>
     <g id="text_10">
      <!-- 15000 -->
      <g transform="translate(20.878125 252.74832) scale(0.1 -0.1)">
       <use xlink:href="#DejaVuSans-31"/>
       <use xlink:href="#DejaVuSans-35" x="63.623047"/>
       <use xlink:href="#DejaVuSans-30" x="127.246094"/>
       <use xlink:href="#DejaVuSans-30" x="190.869141"/>
       <use xlink:href="#DejaVuSans-30" x="254.492188"/>
      </g>
     </g>
    </g>
    <g id="ytick_4">
     <g id="line2d_19">
      <path d="M 59.690625 149.114882 
L 849.060625 149.114882 
" clip-path="url(#p59a3d0f340)" style="fill: none; stroke: #b0b0b0; stroke-opacity: 0.3; stroke-width: 0.8; stroke-linecap: square"/>
     </g>
     <g id="line2d_20">
      <g>
       <use xlink:href="#m1bc8bcfd35" x="59.690625" y="149.114882" style="stroke: #000000; stroke-width: 0.8"/>
      </g>
     </g>
     <g id="text_11">
      <!-- 20000 -->
      <g transform="translate(20.878125 152.914101) scale(0.1 -0.1)">
       <use xlink:href="#DejaVuSans-32"/>
       <use xlink:href="#DejaVuSans-30" x="63.623047"/>
       <use xlink:href="#DejaVuSans-30" x="127.246094"/>
       <use xlink:href="#DejaVuSans-30" x="190.869141"/>
       <use xlink:href="#DejaVuSans-30" x="254.492188"/>
      </g>
     </g>
    </g>
    <g id="ytick_5">
     <g id="line2d_21">
      <path d="M 59.690625 49.280663 
L 849.060625 49.280663 
" clip-path="url(#p59a3d0f340)" style="fill: none; stroke: #b0b0b0; stroke-opacity: 0.3; stroke-width: 0.8; stroke-linecap: square"/>
     </g>
     <g id="line2d_22">
      <g>
       <use xlink:href="#m1bc8bcfd35" x="59.690625" y="49.280663" style="stroke: #000000; stroke-width: 0.8"/>
      </g>
     </g>
     <g id="text_12">
      <!-- 25000 -->
      <g transform="translate(20.878125 53.079882) scale(0.1 -0.1)">
       <use xlink:href="#DejaVuSans-32"/>
       <use xlink:href="#DejaVuSans-35" x="63.623047"/>
       <use xlink:href="#DejaVuSans-30" x="127.246094"/>
       <use xlink:href="#DejaVuSans-30" x="190.869141"/>
       <use xlink:href="#DejaVuSans-30" x="254.492188"/>
      </g>
     </g>
    </g>
    <g id="text_13">
     <!-- Requests Per Second (RPS) -->
     <g transform="translate(14.798438 344.232969) rotate(-90) scale(0.1 -0.1)">
      <defs>
       <path id="DejaVuSans-52" d="M 2841 2188 
Q 3044 2119 3236 1894 
Q 3428 1669 3622 1275 
L 4263 0 
L 3584 0 
L 2988 1197 
Q 2756 1666 2539 1819 
Q 2322 1972 1947 1972 
L 1259 1972 
L 1259 0 
L 628 0 
L 628 4666 
L 2053 4666 
Q 2853 4666 3247 4331 
Q 3641 3997 3641 3322 
Q 3641 2881 3436 2590 
Q 3231 2300 2841 2188 
z
M 1259 4147 
L 1259 2491 
L 2053 2491 
Q 2509 2491 2742 2702 
Q 2975 2913 2975 3322 
Q 2975 3731 2742 3939 
Q 2509 4147 2053 4147 
L 1259 4147 
z
" transform="scale(0.015625)"/>
       <path id="DejaVuSans-71" d="M 947 1747 
Q 947 1113 1208 752 
Q 1469 391 1925 391 
Q 2381 391 2643 752 
Q 2906 1113 2906 1747 
Q 2906 2381 2643 2742 
Q 2381 3103 1925 3103 
Q 1469 3103 1208 2742 
Q 947 2381 947 1747 
z
M 2906 525 
Q 2725 213 2448 61 
Q 2172 -91 1784 -91 
Q 1150 -91 751 415 
Q 353 922 353 1747 
Q 353 2572 751 3078 
Q 1150 3584 1784 3584 
Q 2172 3584 2448 3432 
Q 2725 3281 2906 2969 
L 2906 3500 
L 3481 3500 
L 3481 -1331 
L 2906 -1331 
L 2906 525 
z
" transform="scale(0.015625)"/>
       <path id="DejaVuSans-75" d="M 544 1381 
L 544 3500 
L 1119 3500 
L 1119 1403 
Q 1119 906 1312 657 
Q 1506 409 1894 409 
Q 2359 409 2629 706 
Q 2900 1003 2900 1516 
L 2900 3500 
L 3475 3500 
L 3475 0 
L 2900 0 
L 2900 538 
Q 2691 219 2414 64 
Q 2138 -91 1772 -91 
Q 1169 -91 856 284 
Q 544 659 544 1381 
z
M 1991 3584 
L 1991 3584 
z
" transform="scale(0.015625)"/>
       <path id="DejaVuSans-74" d="M 1172 4494 
L 1172 3500 
L 2356 3500 
L 2356 3053 
L 1172 3053 
L 1172 1153 
Q 1172 725 1289 603 
Q 1406 481 1766 481 
L 2356 481 
L 2356 0 
L 1766 0 
Q 1100 0 847 248 
Q 594 497 594 1153 
L 594 3053 
L 172 3053 
L 172 3500 
L 594 3500 
L 594 4494 
L 1172 4494 
z
" transform="scale(0.015625)"/>
       <path id="DejaVuSans-50" d="M 1259 4147 
L 1259 2394 
L 2053 2394 
Q 2494 2394 2734 2622 
Q 2975 2850 2975 3272 
Q 2975 3691 2734 3919 
Q 2494 4147 2053 4147 
L 1259 4147 
z
M 628 4666 
L 2053 4666 
Q 2838 4666 3239 4311 
Q 3641 3956 3641 3272 
Q 3641 2581 3239 2228 
Q 2838 1875 2053 1875 
L 1259 1875 
L 1259 0 
L 628 0 
L 628 4666 
z
" transform="scale(0.015625)"/>
       <path id="DejaVuSans-72" d="M 2631 2963 
Q 2534 3019 2420 3045 
Q 2306 3072 2169 3072 
Q 1681 3072 1420 2755 
Q 1159 2438 1159 1844 
L 1159 0 
L 581 0 
L 581 3500 
L 1159 3500 
L 1159 2956 
Q 1341 3275 1631 3429 
Q 1922 3584 2338 3584 
Q 2397 3584 2469 3576 
Q 2541 3569 2628 3553 
L 2631 2963 
z
" transform="scale(0.015625)"/>
       <path id="DejaVuSans-53" d="M 3425 4513 
L 3425 3897 
Q 3066 4069 2747 4153 
Q 2428 4238 2131 4238 
Q 1616 4238 1336 4038 
Q 1056 3838 1056 3469 
Q 1056 3159 1242 3001 
Q 1428 2844 1947 2747 
L 2328 2669 
Q 3034 2534 3370 2195 
Q 3706 1856 3706 1288 
Q 3706 609 3251 259 
Q 2797 -91 1919 -91 
Q 1588 -91 1214 -16 
Q 841 59 441 206 
L 441 856 
Q 825 641 1194 531 
Q 1563 422 1919 422 
Q 2459 422 2753 634 
Q 3047 847 3047 1241 
Q 3047 1584 2836 1778 
Q 2625 1972 2144 2069 
L 1759 2144 
Q 1053 2284 737 2584 
Q 422 2884 422 3419 
Q 422 4038 858 4394 
Q 1294 4750 2059 4750 
Q 2388 4750 2728 4690 
Q 3069 4631 3425 4513 
z
" transform="scale(0.015625)"/>
      </defs>
      <use xlink:href="#DejaVuSans-52"/>
      <use xlink:href="#DejaVuSans-65" x="64.982422"/>
      <use xlink:href="#DejaVuSans-71" x="126.505859"/>
      <use xlink:href="#DejaVuSans-75" x="189.982422"/>
      <use xlink:href="#DejaVuSans-65" x="253.361328"/>
      <use xlink:href="#DejaVuSans-73" x="314.884766"/>
      <use xlink:href="#DejaVuSans-74" x="366.984375"/>
      <use xlink:href="#DejaVuSans-73" x="406.193359"/>
      <use xlink:href="#DejaVuSans-20" x="458.292969"/>
      <use xlink:href="#DejaVuSans-50" x="490.080078"/>
      <use xlink:href="#DejaVuSans-65" x="546.757812"/>
      <use xlink:href="#DejaVuSans-72" x="608.28125"/>
      <use xlink:href="#DejaVuSans-20" x="649.394531"/>
      <use xlink:href="#DejaVuSans-53" x="681.181641"/>
      <use xlink:href="#DejaVuSans-65" x="744.658203"/>
      <use xlink:href="#DejaVuSans-63" x="806.181641"/>
      <use xlink:href="#DejaVuSans-6f" x="861.162109"/>
      <use xlink:href="#DejaVuSans-6e" x="922.34375"/>
      <use xlink:href="#DejaVuSans-64" x="985.722656"/>
      <use xlink:href="#DejaVuSans-20" x="1049.199219"/>
      <use xlink:href="#DejaVuSans-28" x="1080.986328"/>
      <use xlink:href="#DejaVuSans-52" x="1120"/>
      <use xlink:href="#DejaVuSans-50" x="1189.482422"/>
      <use xlink:href="#DejaVuSans-53" x="1249.785156"/>
      <use xlink:href="#DejaVuSans-29" x="1313.261719"/>
     </g>
    </g>
   </g>
   <g id="line2d_23">
    <path d="M 95.57108 79.17612 
L 110.068233 61.588265 
L 124.565386 54.333333 
L 139.06254 50.045792 
L 153.559693 49.514315 
L 168.056846 50.319438 
L 182.554 48.611554 
L 197.051153 49.412504 
L 211.548306 49.612472 
L 226.04546 48.733332 
L 240.542613 49.061966 
L 255.039766 48.733512 
L 269.53692 49.468451 
L 284.034073 49.279425 
L 298.531226 49.628845 
L 313.02838 49.134246 
L 327.525533 48.64414 
L 342.022687 48.374288 
L 356.51984 48.26453 
L 371.016993 47.734391 
L 385.514147 47.478336 
L 400.0113 47.046094 
L 414.508453 46.736068 
L 429.005607 46.433611 
L 443.50276 46.035572 
L 457.999913 46.22919 
L 472.497067 45.84411 
L 486.99422 45.752003 
L 501.491373 45.710232 
L 515.988527 45.799384 
L 530.48568 45.95816 
L 544.982833 45.79549 
L 559.479987 45.758831 
L 573.97714 45.765021 
L 588.474294 45.671676 
L 602.971447 45.817753 
L 617.4686 45.732195 
L 631.965754 45.629246 
L 646.462907 45.702026 
L 660.96006 45.624275 
L 675.457214 45.595063 
L 689.954367 45.512301 
L 704.45152 45.726066 
L 718.948674 45.635796 
L 733.445827 45.436307 
L 747.94298 45.595602 
L 762.440134 45.784469 
L 776.937287 45.659796 
L 791.43444 45.685034 
L 805.931594 45.601193 
L 813.18017 45.636614 
" clip-path="url(#p59a3d0f340)" style="fill: none; stroke: #2ca02c; stroke-width: 2; stroke-linecap: square"/>
    <defs>
     <path id="m98f32b6a4e" d="M 0 2 
C 0.530406 2 1.03916 1.789267 1.414214 1.414214 
C 1.789267 1.03916 2 0.530406 2 0 
C 2 -0.530406 1.789267 -1.03916 1.414214 -1.414214 
C 1.03916 -1.789267 0.530406 -2 0 -2 
C -0.530406 -2 -1.03916 -1.789267 -1.414214 -1.414214 
C -1.789267 -1.03916 -2 -0.530406 -2 0 
C -2 0.530406 -1.789267 1.03916 -1.414214 1.414214 
C -1.03916 1.789267 -0.530406 2 0 2 
z
" style="stroke: #2ca02c"/>
    </defs>
    <g clip-path="url(#p59a3d0f340)">
     <use xlink:href="#m98f32b6a4e" x="95.57108" y="79.17612" style="fill: #2ca02c; stroke: #2ca02c"/>
     <use xlink:href="#m98f32b6a4e" x="110.068233" y="61.588265" style="fill: #2ca02c; stroke: #2ca02c"/>
     <use xlink:href="#m98f32b6a4e" x="124.565386" y="54.333333" style="fill: #2ca02c; stroke: #2ca02c"/>
     <use xlink:href="#m98f32b6a4e" x="139.06254" y="50.045792" style="fill: #2ca02c; stroke: #2ca02c"/>
     <use xlink:href="#m98f32b6a4e" x="153.559693" y="49.514315" style="fill: #2ca02c; stroke: #2ca02c"/>
     <use xlink:href="#m98f32b6a4e" x="168.056846" y="50.319438" style="fill: #2ca02c; stroke: #2ca02c"/>
     <use xlink:href="#m98f32b6a4e" x="182.554" y="48.611554" style="fill: #2ca02c; stroke: #2ca02c"/>
     <use xlink:href="#m98f32b6a4e" x="197.051153" y="49.412504" style="fill: #2ca02c; stroke: #2ca02c"/>
     <use xlink:href="#m98f32b6a4e" x="211.548306" y="49.612472" style="fill: #2ca02c; stroke: #2ca02c"/>
     <use xlink:href="#m98f32b6a4e" x="226.04546" y="48.733332" style="fill: #2ca02c; stroke: #2ca02c"/>
     <use xlink:href="#m98f32b6a4e" x="240.542613" y="49.061966" style="fill: #2ca02c; stroke: #2ca02c"/>
     <use xlink:href="#m98f32b6a4e" x="255.039766" y="48.733512" style="fill: #2ca02c; stroke: #2ca02c"/>
     <use xlink:href="#m98f32b6a4e" x="269.53692" y="49.468451" style="fill: #2ca02c; stroke: #2ca02c"/>
     <use xlink:href="#m98f32b6a4e" x="284.034073" y="49.279425" style="fill: #2ca02c; stroke: #2ca02c"/>
     <use xlink:href="#m98f32b6a4e" x="298.531226" y="49.628845" style="fill: #2ca02c; stroke: #2ca02c"/>
     <use xlink:href="#m98f32b6a4e" x="313.02838" y="49.134246" style="fill: #2ca02c; stroke: #2ca02c"/>
     <use xlink:href="#m98f32b6a4e" x="327.525533" y="48.64414" style="fill: #2ca02c; stroke: #2ca02c"/>
     <use xlink:href="#m98f32b6a4e" x="342.022687" y="48.374288" style="fill: #2ca02c; stroke: #2ca02c"/>
     <use xlink:href="#m98f32b6a4e" x="356.51984" y="48.26453" style="fill: #2ca02c; stroke: #2ca02c"/>
     <use xlink:href="#m98f32b6a4e" x="371.016993" y="47.734391" style="fill: #2ca02c; stroke: #2ca02c"/>
     <use xlink:href="#m98f32b6a4e" x="385.514147" y="47.478336" style="fill: #2ca02c; stroke: #2ca02c"/>
     <use xlink:href="#m98f32b6a4e" x="400.0113" y="47.046094" style="fill: #2ca02c; stroke: #2ca02c"/>
     <use xlink:href="#m98f32b6a4e" x="414.508453" y="46.736068" style="fill: #2ca02c; stroke: #2ca02c"/>
     <use xlink:href="#m98f32b6a4e" x="429.005607" y="46.433611" style="fill: #2ca02c; stroke: #2ca02c"/>
     <use xlink:href="#m98f32b6a4e" x="443.50276" y="46.035572" style="fill: #2ca02c; stroke: #2ca02c"/>
     <use xlink:href="#m98f32b6a4e" x="457.999913" y="46.22919" style="fill: #2ca02c; stroke: #2ca02c"/>
     <use xlink:href="#m98f32b6a4e" x="472.497067" y="45.84411" style="fill: #2ca02c; stroke: #2ca02c"/>
     <use xlink:href="#m98f32b6a4e" x="486.99422" y="45.752003" style="fill: #2ca02c; stroke: #2ca02c"/>
     <use xlink:href="#m98f32b6a4e" x="501.491373" y="45.710232" style="fill: #2ca02c; stroke: #2ca02c"/>
     <use xlink:href="#m98f32b6a4e" x="515.988527" y="45.799384" style="fill: #2ca02c; stroke: #2ca02c"/>
     <use xlink:href="#m98f32b6a4e" x="530.48568" y="45.95816" style="fill: #2ca02c; stroke: #2ca02c"/>
     <use xlink:href="#m98f32b6a4e" x="544.982833" y="45.79549" style="fill: #2ca02c; stroke: #2ca02c"/>
     <use xlink:href="#m98f32b6a4e" x="559.479987" y="45.758831" style="fill: #2ca02c; stroke: #2ca02c"/>
     <use xlink:href="#m98f32b6a4e" x="573.97714" y="45.765021" style="fill: #2ca02c; stroke: #2ca02c"/>
     <use xlink:href="#m98f32b6a4e" x="588.474294" y="45.671676" style="fill: #2ca02c; stroke: #2ca02c"/>
     <use xlink:href="#m98f32b6a4e" x="602.971447" y="45.817753" style="fill: #2ca02c; stroke: #2ca02c"/>
     <use xlink:href="#m98f32b6a4e" x="617.4686" y="45.732195" style="fill: #2ca02c; stroke: #2ca02c"/>
     <use xlink:href="#m98f32b6a4e" x="631.965754" y="45.629246" style="fill: #2ca02c; stroke: #2ca02c"/>
     <use xlink:href="#m98f32b6a4e" x="646.462907" y="45.702026" style="fill: #2ca02c; stroke: #2ca02c"/>
     <use xlink:href="#m98f32b6a4e" x="660.96006" y="45.624275" style="fill: #2ca02c; stroke: #2ca02c"/>
     <use xlink:href="#m98f32b6a4e" x="675.457214" y="45.595063" style="fill: #2ca02c; stroke: #2ca02c"/>
     <use xlink:href="#m98f32b6a4e" x="689.954367" y="45.512301" style="fill: #2ca02c; stroke: #2ca02c"/>
     <use xlink:href="#m98f32b6a4e" x="704.45152" y="45.726066" style="fill: #2ca02c; stroke: #2ca02c"/>
     <use xlink:href="#m98f32b6a4e" x="718.948674" y="45.635796" style="fill: #2ca02c; stroke: #2ca02c"/>
     <use xlink:href="#m98f32b6a4e" x="733.445827" y="45.436307" style="fill: #2ca02c; stroke: #2ca02c"/>
     <use xlink:href="#m98f32b6a4e" x="747.94298" y="45.595602" style="fill: #2ca02c; stroke: #2ca02c"/>
     <use xlink:href="#m98f32b6a4e" x="762.440134" y="45.784469" style="fill: #2ca02c; stroke: #2ca02c"/>
     <use xlink:href="#m98f32b6a4e" x="776.937287" y="45.659796" style="fill: #2ca02c; stroke: #2ca02c"/>
     <use xlink:href="#m98f32b6a4e" x="791.43444" y="45.685034" style="fill: #2ca02c; stroke: #2ca02c"/>
     <use xlink:href="#m98f32b6a4e" x="805.931594" y="45.601193" style="fill: #2ca02c; stroke: #2ca02c"/>
     <use xlink:href="#m98f32b6a4e" x="813.18017" y="45.636614" style="fill: #2ca02c; stroke: #2ca02c"/>
    </g>
   </g>
   <g id="line2d_24">
    <path d="M 102.819656 507.799943 
L 117.31681 491.950482 
L 131.813963 482.550991 
L 146.311116 475.533104 
L 160.80827 467.855374 
L 175.305423 462.983703 
L 189.802576 456.680271 
L 204.29973 451.879862 
L 218.796883 448.658671 
L 233.294036 445.898554 
L 247.79119 443.225373 
L 262.288343 441.490354 
L 276.785496 440.802297 
L 291.28265 439.678862 
L 305.779803 438.443454 
L 320.276956 437.785886 
L 334.77411 436.404819 
L 349.271263 435.875598 
L 363.768417 434.932344 
L 378.26557 434.044499 
L 392.762723 433.007061 
L 407.259877 432.53213 
L 421.75703 431.709157 
L 436.254183 431.556929 
L 450.751337 430.797211 
L 465.24849 430.311538 
L 479.745643 429.699414 
L 494.242797 429.152382 
L 508.73995 428.694183 
L 523.237103 428.348318 
L 537.734257 428.222926 
L 552.23141 428.08174 
L 566.728563 427.884348 
L 581.225717 427.765705 
L 595.72287 427.469377 
L 610.220024 427.215559 
L 624.717177 426.866019 
L 639.21433 426.314275 
L 653.711484 426.002074 
L 668.208637 425.51039 
L 682.70579 425.024277 
L 697.202944 424.775211 
L 711.700097 424.626258 
L 726.19725 424.720981 
L 740.694404 424.36611 
L 755.191557 424.236765 
L 769.68871 424.250922 
L 784.185864 424.218276 
L 798.683017 424.226262 
L 813.18017 424.442204 
" clip-path="url(#p59a3d0f340)" style="fill: none; stroke: #1f77b4; stroke-width: 2; stroke-linecap: square"/>
    <defs>
     <path id="mefebd4f88c" d="M 0 2 
C 0.530406 2 1.03916 1.789267 1.414214 1.414214 
C 1.789267 1.03916 2 0.530406 2 0 
C 2 -0.530406 1.789267 -1.03916 1.414214 -1.414214 
C 1.03916 -1.789267 0.530406 -2 0 -2 
C -0.530406 -2 -1.03916 -1.789267 -1.414214 -1.414214 
C -1.789267 -1.03916 -2 -0.530406 -2 0 
C -2 0.530406 -1.789267 1.03916 -1.414214 1.414214 
C -1.03916 1.789267 -0.530406 2 0 2 
z
" style="stroke: #1f77b4"/>
    </defs>
    <g clip-path="url(#p59a3d0f340)">
     <use xlink:href="#mefebd4f88c" x="102.819656" y="507.799943" style="fill: #1f77b4; stroke: #1f77b4"/>
     <use xlink:href="#mefebd4f88c" x="117.31681" y="491.950482" style="fill: #1f77b4; stroke: #1f77b4"/>
     <use xlink:href="#mefebd4f88c" x="131.813963" y="482.550991" style="fill: #1f77b4; stroke: #1f77b4"/>
     <use xlink:href="#mefebd4f88c" x="146.311116" y="475.533104" style="fill: #1f77b4; stroke: #1f77b4"/>
     <use xlink:href="#mefebd4f88c" x="160.80827" y="467.855374" style="fill: #1f77b4; stroke: #1f77b4"/>
     <use xlink:href="#mefebd4f88c" x="175.305423" y="462.983703" style="fill: #1f77b4; stroke: #1f77b4"/>
     <use xlink:href="#mefebd4f88c" x="189.802576" y="456.680271" style="fill: #1f77b4; stroke: #1f77b4"/>
     <use xlink:href="#mefebd4f88c" x="204.29973" y="451.879862" style="fill: #1f77b4; stroke: #1f77b4"/>
     <use xlink:href="#mefebd4f88c" x="218.796883" y="448.658671" style="fill: #1f77b4; stroke: #1f77b4"/>
     <use xlink:href="#mefebd4f88c" x="233.294036" y="445.898554" style="fill: #1f77b4; stroke: #1f77b4"/>
     <use xlink:href="#mefebd4f88c" x="247.79119" y="443.225373" style="fill: #1f77b4; stroke: #1f77b4"/>
     <use xlink:href="#mefebd4f88c" x="262.288343" y="441.490354" style="fill: #1f77b4; stroke: #1f77b4"/>
     <use xlink:href="#mefebd4f88c" x="276.785496" y="440.802297" style="fill: #1f77b4; stroke: #1f77b4"/>
     <use xlink:href="#mefebd4f88c" x="291.28265" y="439.678862" style="fill: #1f77b4; stroke: #1f77b4"/>
     <use xlink:href="#mefebd4f88c" x="305.779803" y="438.443454" style="fill: #1f77b4; stroke: #1f77b4"/>
     <use xlink:href="#mefebd4f88c" x="320.276956" y="437.785886" style="fill: #1f77b4; stroke: #1f77b4"/>
     <use xlink:href="#mefebd4f88c" x="334.77411" y="436.404819" style="fill: #1f77b4; stroke: #1f77b4"/>
     <use xlink:href="#mefebd4f88c" x="349.271263" y="435.875598" style="fill: #1f77b4; stroke: #1f77b4"/>
     <use xlink:href="#mefebd4f88c" x="363.768417" y="434.932344" style="fill: #1f77b4; stroke: #1f77b4"/>
     <use xlink:href="#mefebd4f88c" x="378.26557" y="434.044499" style="fill: #1f77b4; stroke: #1f77b4"/>
     <use xlink:href="#mefebd4f88c" x="392.762723" y="433.007061" style="fill: #1f77b4; stroke: #1f77b4"/>
     <use xlink:href="#mefebd4f88c" x="407.259877" y="432.53213" style="fill: #1f77b4; stroke: #1f77b4"/>
     <use xlink:href="#mefebd4f88c" x="421.75703" y="431.709157" style="fill: #1f77b4; stroke: #1f77b4"/>
     <use xlink:href="#mefebd4f88c" x="436.254183" y="431.556929" style="fill: #1f77b4; stroke: #1f77b4"/>
     <use xlink:href="#mefebd4f88c" x="450.751337" y="430.797211" style="fill: #1f77b4; stroke: #1f77b4"/>
     <use xlink:href="#mefebd4f88c" x="465.24849" y="430.311538" style="fill: #1f77b4; stroke: #1f77b4"/>
     <use xlink:href="#mefebd4f88c" x="479.745643" y="429.699414" style="fill: #1f77b4; stroke: #1f77b4"/>
     <use xlink:href="#mefebd4f88c" x="494.242797" y="429.152382" style="fill: #1f77b4; stroke: #1f77b4"/>
     <use xlink:href="#mefebd4f88c" x="508.73995" y="428.694183" style="fill: #1f77b4; stroke: #1f77b4"/>
     <use xlink:href="#mefebd4f88c" x="523.237103" y="428.348318" style="fill: #1f77b4; stroke: #1f77b4"/>
     <use xlink:href="#mefebd4f88c" x="537.734257" y="428.222926" style="fill: #1f77b4; stroke: #1f77b4"/>
     <use xlink:href="#mefebd4f88c" x="552.23141" y="428.08174" style="fill: #1f77b4; stroke: #1f77b4"/>
     <use xlink:href="#mefebd4f88c" x="566.728563" y="427.884348" style="fill: #1f77b4; stroke: #1f77b4"/>
     <use xlink:href="#mefebd4f88c" x="581.225717" y="427.765705" style="fill: #1f77b4; stroke: #1f77b4"/>
     <use xlink:href="#mefebd4f88c" x="595.72287" y="427.469377" style="fill: #1f77b4; stroke: #1f77b4"/>
     <use xlink:href="#mefebd4f88c" x="610.220024" y="427.215559" style="fill: #1f77b4; stroke: #1f77b4"/>
     <use xlink:href="#mefebd4f88c" x="624.717177" y="426.866019" style="fill: #1f77b4; stroke: #1f77b4"/>
     <use xlink:href="#mefebd4f88c" x="639.21433" y="426.314275" style="fill: #1f77b4; stroke: #1f77b4"/>
     <use xlink:href="#mefebd4f88c" x="653.711484" y="426.002074" style="fill: #1f77b4; stroke: #1f77b4"/>
     <use xlink:href="#mefebd4f88c" x="668.208637" y="425.51039" style="fill: #1f77b4; stroke: #1f77b4"/>
     <use xlink:href="#mefebd4f88c" x="682.70579" y="425.024277" style="fill: #1f77b4; stroke: #1f77b4"/>
     <use xlink:href="#mefebd4f88c" x="697.202944" y="424.775211" style="fill: #1f77b4; stroke: #1f77b4"/>
     <use xlink:href="#mefebd4f88c" x="711.700097" y="424.626258" style="fill: #1f77b4; stroke: #1f77b4"/>
     <use xlink:href="#mefebd4f88c" x="726.19725" y="424.720981" style="fill: #1f77b4; stroke: #1f77b4"/>
     <use xlink:href="#mefebd4f88c" x="740.694404" y="424.36611" style="fill: #1f77b4; stroke: #1f77b4"/>
     <use xlink:href="#mefebd4f88c" x="755.191557" y="424.236765" style="fill: #1f77b4; stroke: #1f77b4"/>
     <use xlink:href="#mefebd4f88c" x="769.68871" y="424.250922" style="fill: #1f77b4; stroke: #1f77b4"/>
     <use xlink:href="#mefebd4f88c" x="784.185864" y="424.218276" style="fill: #1f77b4; stroke: #1f77b4"/>
     <use xlink:href="#mefebd4f88c" x="798.683017" y="424.226262" style="fill: #1f77b4; stroke: #1f77b4"/>
     <use xlink:href="#mefebd4f88c" x="813.18017" y="424.442204" style="fill: #1f77b4; stroke: #1f77b4"/>
    </g>
   </g>
   <g id="line2d_25">
    <path d="M 95.57108 460.396819 
L 110.068233 458.930773 
L 124.565386 458.025736 
L 139.06254 457.44552 
L 153.559693 456.980612 
L 168.056846 457.000399 
L 182.554 456.784238 
L 197.051153 456.401494 
L 211.548306 456.082843 
L 226.04546 455.871534 
L 240.542613 455.948146 
L 255.039766 455.811274 
L 269.53692 456.35533 
L 284.034073 456.088833 
L 298.531226 456.202384 
L 313.02838 456.165006 
L 327.525533 456.279057 
L 342.022687 456.208234 
L 356.51984 456.52994 
L 378.26557 456.284967 
L 385.514147 456.141266 
L 400.0113 456.063894 
L 414.508453 456.156181 
L 429.005607 456.353553 
L 450.751337 456.231057 
L 457.999913 456.358006 
L 472.497067 456.255935 
L 494.242797 456.326219 
L 501.491373 456.25306 
L 515.988527 456.306891 
L 530.48568 456.268295 
L 552.23141 456.37366 
L 559.479987 456.461374 
L 581.225717 456.422559 
L 588.474294 456.504083 
L 610.220024 456.454825 
L 617.4686 456.334385 
L 631.965754 456.303916 
L 646.462907 456.222631 
L 660.96006 456.246711 
L 675.457214 456.196773 
L 697.202944 456.200847 
L 704.45152 456.199349 
L 718.948674 456.226744 
L 733.445827 456.348641 
L 747.94298 456.404069 
L 762.440134 456.410598 
L 784.185864 456.544256 
L 791.43444 456.477567 
L 805.931594 456.428449 
L 813.18017 456.434638 
" clip-path="url(#p59a3d0f340)" style="fill: none; stroke: #ff7f0e; stroke-width: 2; stroke-linecap: square"/>
    <defs>
     <path id="m0edb45cfdb" d="M 0 2 
C 0.530406 2 1.03916 1.789267 1.414214 1.414214 
C 1.789267 1.03916 2 0.530406 2 0 
C 2 -0.530406 1.789267 -1.03916 1.414214 -1.414214 
C 1.03916 -1.789267 0.530406 -2 0 -2 
C -0.530406 -2 -1.03916 -1.789267 -1.414214 -1.414214 
C -1.789267 -1.03916 -2 -0.530406 -2 0 
C -2 0.530406 -1.789267 1.03916 -1.414214 1.414214 
C -1.03916 1.789267 -0.530406 2 0 2 
z
" style="stroke: #ff7f0e"/>
    </defs>
    <g clip-path="url(#p59a3d0f340)">
     <use xlink:href="#m0edb45cfdb" x="95.57108" y="460.396819" style="fill: #ff7f0e; stroke: #ff7f0e"/>
     <use xlink:href="#m0edb45cfdb" x="110.068233" y="458.930773" style="fill: #ff7f0e; stroke: #ff7f0e"/>
     <use xlink:href="#m0edb45cfdb" x="124.565386" y="458.025736" style="fill: #ff7f0e; stroke: #ff7f0e"/>
     <use xlink:href="#m0edb45cfdb" x="139.06254" y="457.44552" style="fill: #ff7f0e; stroke: #ff7f0e"/>
     <use xlink:href="#m0edb45cfdb" x="153.559693" y="456.980612" style="fill: #ff7f0e; stroke: #ff7f0e"/>
     <use xlink:href="#m0edb45cfdb" x="168.056846" y="457.000399" style="fill: #ff7f0e; stroke: #ff7f0e"/>
     <use xlink:href="#m0edb45cfdb" x="182.554" y="456.784238" style="fill: #ff7f0e; stroke: #ff7f0e"/>
     <use xlink:href="#m0edb45cfdb" x="197.051153" y="456.401494" style="fill: #ff7f0e; stroke: #ff7f0e"/>
     <use xlink:href="#m0edb45cfdb" x="211.548306" y="456.082843" style="fill: #ff7f0e; stroke: #ff7f0e"/>
     <use xlink:href="#m0edb45cfdb" x="226.04546" y="455.871534" style="fill: #ff7f0e; stroke: #ff7f0e"/>
     <use xlink:href="#m0edb45cfdb" x="240.542613" y="455.948146" style="fill: #ff7f0e; stroke: #ff7f0e"/>
     <use xlink:href="#m0edb45cfdb" x="255.039766" y="455.811274" style="fill: #ff7f0e; stroke: #ff7f0e"/>
     <use xlink:href="#m0edb45cfdb" x="269.53692" y="456.35533" style="fill: #ff7f0e; stroke: #ff7f0e"/>
     <use xlink:href="#m0edb45cfdb" x="284.034073" y="456.088833" style="fill: #ff7f0e; stroke: #ff7f0e"/>
     <use xlink:href="#m0edb45cfdb" x="298.531226" y="456.202384" style="fill: #ff7f0e; stroke: #ff7f0e"/>
     <use xlink:href="#m0edb45cfdb" x="313.02838" y="456.165006" style="fill: #ff7f0e; stroke: #ff7f0e"/>
     <use xlink:href="#m0edb45cfdb" x="327.525533" y="456.279057" style="fill: #ff7f0e; stroke: #ff7f0e"/>
     <use xlink:href="#m0edb45cfdb" x="342.022687" y="456.208234" style="fill: #ff7f0e; stroke: #ff7f0e"/>
     <use xlink:href="#m0edb45cfdb" x="356.51984" y="456.52994" style="fill: #ff7f0e; stroke: #ff7f0e"/>
     <use xlink:href="#m0edb45cfdb" x="378.26557" y="456.284967" style="fill: #ff7f0e; stroke: #ff7f0e"/>
     <use xlink:href="#m0edb45cfdb" x="385.514147" y="456.141266" style="fill: #ff7f0e; stroke: #ff7f0e"/>
     <use xlink:href="#m0edb45cfdb" x="400.0113" y="456.063894" style="fill: #ff7f0e; stroke: #ff7f0e"/>
     <use xlink:href="#m0edb45cfdb" x="414.508453" y="456.156181" style="fill: #ff7f0e; stroke: #ff7f0e"/>
     <use xlink:href="#m0edb45cfdb" x="429.005607" y="456.353553" style="fill: #ff7f0e; stroke: #ff7f0e"/>
     <use xlink:href="#m0edb45cfdb" x="450.751337" y="456.231057" style="fill: #ff7f0e; stroke: #ff7f0e"/>
     <use xlink:href="#m0edb45cfdb" x="457.999913" y="456.358006" style="fill: #ff7f0e; stroke: #ff7f0e"/>
     <use xlink:href="#m0edb45cfdb" x="472.497067" y="456.255935" style="fill: #ff7f0e; stroke: #ff7f0e"/>
     <use xlink:href="#m0edb45cfdb" x="494.242797" y="456.326219" style="fill: #ff7f0e; stroke: #ff7f0e"/>
     <use xlink:href="#m0edb45cfdb" x="501.491373" y="456.25306" style="fill: #ff7f0e; stroke: #ff7f0e"/>
     <use xlink:href="#m0edb45cfdb" x="515.988527" y="456.306891" style="fill: #ff7f0e; stroke: #ff7f0e"/>
     <use xlink:href="#m0edb45cfdb" x="530.48568" y="456.268295" style="fill: #ff7f0e; stroke: #ff7f0e"/>
     <use xlink:href="#m0edb45cfdb" x="552.23141" y="456.37366" style="fill: #ff7f0e; stroke: #ff7f0e"/>
     <use xlink:href="#m0edb45cfdb" x="559.479987" y="456.461374" style="fill: #ff7f0e; stroke: #ff7f0e"/>
     <use xlink:href="#m0edb45cfdb" x="581.225717" y="456.422559" style="fill: #ff7f0e; stroke: #ff7f0e"/>
     <use xlink:href="#m0edb45cfdb" x="588.474294" y="456.504083" style="fill: #ff7f0e; stroke: #ff7f0e"/>
     <use xlink:href="#m0edb45cfdb" x="610.220024" y="456.454825" style="fill: #ff7f0e; stroke: #ff7f0e"/>
     <use xlink:href="#m0edb45cfdb" x="617.4686" y="456.334385" style="fill: #ff7f0e; stroke: #ff7f0e"/>
     <use xlink:href="#m0edb45cfdb" x="631.965754" y="456.303916" style="fill: #ff7f0e; stroke: #ff7f0e"/>
     <use xlink:href="#m0edb45cfdb" x="646.462907" y="456.222631" style="fill: #ff7f0e; stroke: #ff7f0e"/>
     <use xlink:href="#m0edb45cfdb" x="660.96006" y="456.246711" style="fill: #ff7f0e; stroke: #ff7f0e"/>
     <use xlink:href="#m0edb45cfdb" x="675.457214" y="456.196773" style="fill: #ff7f0e; stroke: #ff7f0e"/>
     <use xlink:href="#m0edb45cfdb" x="697.202944" y="456.200847" style="fill: #ff7f0e; stroke: #ff7f0e"/>
     <use xlink:href="#m0edb45cfdb" x="704.45152" y="456.199349" style="fill: #ff7f0e; stroke: #ff7f0e"/>
     <use xlink:href="#m0edb45cfdb" x="718.948674" y="456.226744" style="fill: #ff7f0e; stroke: #ff7f0e"/>
     <use xlink:href="#m0edb45cfdb" x="733.445827" y="456.348641" style="fill: #ff7f0e; stroke: #ff7f0e"/>
     <use xlink:href="#m0edb45cfdb" x="747.94298" y="456.404069" style="fill: #ff7f0e; stroke: #ff7f0e"/>
     <use xlink:href="#m0edb45cfdb" x="762.440134" y="456.410598" style="fill: #ff7f0e; stroke: #ff7f0e"/>
     <use xlink:href="#m0edb45cfdb" x="784.185864" y="456.544256" style="fill: #ff7f0e; stroke: #ff7f0e"/>
     <use xlink:href="#m0edb45cfdb" x="791.43444" y="456.477567" style="fill: #ff7f0e; stroke: #ff7f0e"/>
     <use xlink:href="#m0edb45cfdb" x="805.931594" y="456.428449" style="fill: #ff7f0e; stroke: #ff7f0e"/>
     <use xlink:href="#m0edb45cfdb" x="813.18017" y="456.434638" style="fill: #ff7f0e; stroke: #ff7f0e"/>
    </g>
   </g>
   <g id="patch_3">
    <path d="M 59.690625 530.918125 
L 59.690625 22.318125 
" style="fill: none; stroke: #000000; stroke-width: 0.8; stroke-linejoin: miter; stroke-linecap: square"/>
   </g>
   <g id="patch_4">
    <path d="M 849.060625 530.918125 
L 849.060625 22.318125 
" style="fill: none; stroke: #000000; stroke-width: 0.8; stroke-linejoin: miter; stroke-linecap: square"/>
   </g>
   <g id="patch_5">
    <path d="M 59.690625 530.918125 
L 849.060625 530.918125 
" style="fill: none; stroke: #000000; stroke-width: 0.8; stroke-linejoin: miter; stroke-linecap: square"/>
   </g>
   <g id="patch_6">
    <path d="M 59.690625 22.318125 
L 849.060625 22.318125 
" style="fill: none; stroke: #000000; stroke-width: 0.8; stroke-linejoin: miter; stroke-linecap: square"/>
   </g>
   <g id="text_14">
    <!-- RPS Comparison Over Time -->
    <g transform="translate(372.021875 16.318125) scale(0.12 -0.12)">
     <defs>
      <path id="DejaVuSans-43" d="M 4122 4306 
L 4122 3641 
Q 3803 3938 3442 4084 
Q 3081 4231 2675 4231 
Q 1875 4231 1450 3742 
Q 1025 3253 1025 2328 
Q 1025 1406 1450 917 
Q 1875 428 2675 428 
Q 3081 428 3442 575 
Q 3803 722 4122 1019 
L 4122 359 
Q 3791 134 3420 21 
Q 3050 -91 2638 -91 
Q 1578 -91 968 557 
Q 359 1206 359 2328 
Q 359 3453 968 4101 
Q 1578 4750 2638 4750 
Q 3056 4750 3426 4639 
Q 3797 4528 4122 4306 
z
" transform="scale(0.015625)"/>
      <path id="DejaVuSans-4f" d="M 2522 4238 
Q 1834 4238 1429 3725 
Q 1025 3213 1025 2328 
Q 1025 1447 1429 934 
Q 1834 422 2522 422 
Q 3209 422 3611 934 
Q 4013 1447 4013 2328 
Q 4013 3213 3611 3725 
Q 3209 4238 2522 4238 
z
M 2522 4750 
Q 3503 4750 4090 4092 
Q 4678 3434 4678 2328 
Q 4678 1225 4090 567 
Q 3503 -91 2522 -91 
Q 1538 -91 948 565 
Q 359 1222 359 2328 
Q 359 3434 948 4092 
Q 1538 4750 2522 4750 
z
" transform="scale(0.015625)"/>
      <path id="DejaVuSans-76" d="M 191 3500 
L 800 3500 
L 1894 563 
L 2988 3500 
L 3597 3500 
L 2284 0 
L 1503 0 
L 191 3500 
z
" transform="scale(0.015625)"/>
     </defs>
     <use xlink:href="#DejaVuSans-52"/>
     <use xlink:href="#DejaVuSans-50" x="69.482422"/>
     <use xlink:href="#DejaVuSans-53" x="129.785156"/>
     <use xlink:href="#DejaVuSans-20" x="193.261719"/>
     <use xlink:href="#DejaVuSans-43" x="225.048828"/>
     <use xlink:href="#DejaVuSans-6f" x="294.873047"/>
     <use xlink:href="#DejaVuSans-6d" x="356.054688"/>
     <use xlink:href="#DejaVuSans-70" x="453.466797"/>
     <use xlink:href="#DejaVuSans-61" x="516.943359"/>
     <use xlink:href="#DejaVuSans-72" x="578.222656"/>
     <use xlink:href="#DejaVuSans-69" x="619.335938"/>
     <use xlink:href="#DejaVuSans-73" x="647.119141"/>
     <use xlink:href="#DejaVuSans-6f" x="699.21875"/>
     <use xlink:href="#DejaVuSans-6e" x="760.400391"/>
     <use xlink:href="#DejaVuSans-20" x="823.779297"/>
     <use xlink:href="#DejaVuSans-4f" x="855.566406"/>
     <use xlink:href="#DejaVuSans-76" x="934.277344"/>
     <use xlink:href="#DejaVuSans-65" x="993.457031"/>
     <use xlink:href="#DejaVuSans-72" x="1054.980469"/>
     <use xlink:href="#DejaVuSans-20" x="1096.09375"/>
     <use xlink:href="#DejaVuSans-54" x="1127.880859"/>
     <use xlink:href="#DejaVuSans-69" x="1185.839844"/>
     <use xlink:href="#DejaVuSans-6d" x="1213.623047"/>
     <use xlink:href="#DejaVuSans-65" x="1311.035156"/>
    </g>
   </g>
   <g id="legend_1">
    <g id="patch_7">
     <path d="M 773.418438 525.918125 
L 842.060625 525.918125 
Q 844.060625 525.918125 844.060625 523.918125 
L 844.060625 480.88375 
Q 844.060625 478.88375 842.060625 478.88375 
L 773.418438 478.88375 
Q 771.418438 478.88375 771.418438 480.88375 
L 771.418438 523.918125 
Q 771.418438 525.918125 773.418438 525.918125 
z
" style="fill: #ffffff; opacity: 0.8; stroke: #cccccc; stroke-linejoin: miter"/>
    </g>
    <g id="line2d_26">
     <path d="M 775.418438 486.982188 
L 785.418438 486.982188 
L 795.418438 486.982188 
" style="fill: none; stroke: #2ca02c; stroke-width: 2; stroke-linecap: square"/>
     <g>
      <use xlink:href="#m98f32b6a4e" x="785.418438" y="486.982188" style="fill: #2ca02c; stroke: #2ca02c"/>
     </g>
    </g>
    <g id="text_15">
     <!-- weaver -->
     <g transform="translate(803.418438 490.482188) scale(0.1 -0.1)">
      <defs>
       <path id="DejaVuSans-77" d="M 269 3500 
L 844 3500 
L 1563 769 
L 2278 3500 
L 2956 3500 
L 3675 769 
L 4391 3500 
L 4966 3500 
L 4050 0 
L 3372 0 
L 2619 2869 
L 1863 0 
L 1184 0 
L 269 3500 
z
" transform="scale(0.015625)"/>
      </defs>
      <use xlink:href="#DejaVuSans-77"/>
      <use xlink:href="#DejaVuSans-65" x="81.787109"/>
      <use xlink:href="#DejaVuSans-61" x="143.310547"/>
      <use xlink:href="#DejaVuSans-76" x="204.589844"/>
      <use xlink:href="#DejaVuSans-65" x="263.769531"/>
      <use xlink:href="#DejaVuSans-72" x="325.292969"/>
     </g>
    </g>
    <g id="line2d_27">
     <path d="M 775.418438 501.660313 
L 785.418438 501.660313 
L 795.418438 501.660313 
" style="fill: none; stroke: #1f77b4; stroke-width: 2; stroke-linecap: square"/>
     <g>
      <use xlink:href="#mefebd4f88c" x="785.418438" y="501.660313" style="fill: #1f77b4; stroke: #1f77b4"/>
     </g>
    </g>
    <g id="text_16">
     <!-- node -->
     <g transform="translate(803.418438 505.160313) scale(0.1 -0.1)">
      <use xlink:href="#DejaVuSans-6e"/>
      <use xlink:href="#DejaVuSans-6f" x="63.378906"/>
      <use xlink:href="#DejaVuSans-64" x="124.560547"/>
      <use xlink:href="#DejaVuSans-65" x="188.037109"/>
     </g>
    </g>
    <g id="line2d_28">
     <path d="M 775.418438 516.338438 
L 785.418438 516.338438 
L 795.418438 516.338438 
" style="fill: none; stroke: #ff7f0e; stroke-width: 2; stroke-linecap: square"/>
     <g>
      <use xlink:href="#m0edb45cfdb" x="785.418438" y="516.338438" style="fill: #ff7f0e; stroke: #ff7f0e"/>
     </g>
    </g>
    <g id="text_17">
     <!-- python -->
     <g transform="translate(803.418438 519.838438) scale(0.1 -0.1)">
      <defs>
       <path id="DejaVuSans-79" d="M 2059 -325 
Q 1816 -950 1584 -1140 
Q 1353 -1331 966 -1331 
L 506 -1331 
L 506 -850 
L 844 -850 
Q 1081 -850 1212 -737 
Q 1344 -625 1503 -206 
L 1606 56 
L 191 3500 
L 800 3500 
L 1894 763 
L 2988 3500 
L 3597 3500 
L 2059 -325 
z
" transform="scale(0.015625)"/>
       <path id="DejaVuSans-68" d="M 3513 2113 
L 3513 0 
L 2938 0 
L 2938 2094 
Q 2938 2591 2744 2837 
Q 2550 3084 2163 3084 
Q 1697 3084 1428 2787 
Q 1159 2491 1159 1978 
L 1159 0 
L 581 0 
L 581 4863 
L 1159 4863 
L 1159 2956 
Q 1366 3272 1645 3428 
Q 1925 3584 2291 3584 
Q 2894 3584 3203 3211 
Q 3513 2838 3513 2113 
z
" transform="scale(0.015625)"/>
      </defs>
      <use xlink:href="#DejaVuSans-70"/>
      <use xlink:href="#DejaVuSans-79" x="63.476562"/>
      <use xlink:href="#DejaVuSans-74" x="122.65625"/>
      <use xlink:href="#DejaVuSans-68" x="161.865234"/>
      <use xlink:href="#DejaVuSans-6f" x="225.244141"/>
      <use xlink:href="#DejaVuSans-6e" x="286.425781"/>
     </g>
    </g>
   </g>
  </g>
 </g>
 <defs>
  <clipPath id="p59a3d0f340">
   <rect x="59.690625" y="22.318125" width="789.37" height="508.6"/>
  </clipPath>
 </defs>
</svg>
