<?xml version="1.0" encoding="utf-8" standalone="no"?>
<!DOCTYPE svg PUBLIC "-//W3C//DTD SVG 1.1//EN"
  "http://www.w3.org/Graphics/SVG/1.1/DTD/svg11.dtd">
<svg xmlns:xlink="http://www.w3.org/1999/xlink" width="856.288125pt" height="568.474375pt" viewBox="0 0 856.288125 568.474375" xmlns="http://www.w3.org/2000/svg" version="1.1">
 <metadata>
  <rdf:RDF xmlns:dc="http://purl.org/dc/elements/1.1/" xmlns:cc="http://creativecommons.org/ns#" xmlns:rdf="http://www.w3.org/1999/02/22-rdf-syntax-ns#">
   <cc:Work>
    <dc:type rdf:resource="http://purl.org/dc/dcmitype/StillImage"/>
    <dc:date>2025-06-28T07:45:55.006458</dc:date>
    <dc:format>image/svg+xml</dc:format>
    <dc:creator>
     <cc:Agent>
      <dc:title>Matplotlib v3.6.3, https://matplotlib.org/</dc:title>
     </cc:Agent>
    </dc:creator>
   </cc:Work>
  </rdf:RDF>
 </metadata>
 <defs>
  <style type="text/css">*{stroke-linejoin: round; stroke-linecap: butt}</style>
 </defs>
 <g id="figure_1">
  <g id="patch_1">
   <path d="M 0 568.474375 
L 856.288125 568.474375 
L 856.288125 0 
L 0 0 
z
" style="fill: #ffffff"/>
  </g>
  <g id="axes_1">
   <g id="patch_2">
    <path d="M 53.328125 530.918125 
L 849.088125 530.918125 
L 849.088125 22.318125 
L 53.328125 22.318125 
z
" style="fill: #ffffff"/>
   </g>
   <g id="matplotlib.axis_1">
    <g id="xtick_1">
     <g id="line2d_1">
      <path d="M 88.520089 530.918125 
L 88.520089 22.318125 
" clip-path="url(#pe09e8b2be3)" style="fill: none; stroke: #b0b0b0; stroke-opacity: 0.3; stroke-width: 0.8; stroke-linecap: square"/>
     </g>
     <g id="line2d_2">
      <defs>
       <path id="mbfffcd1209" d="M 0 0 
L 0 3.5 
" style="stroke: #000000; stroke-width: 0.8"/>
      </defs>
      <g>
       <use xlink:href="#mbfffcd1209" x="88.520089" y="530.918125" style="stroke: #000000; stroke-width: 0.8"/>
      </g>
     </g>
     <g id="text_1">
      <!-- 0 -->
      <g transform="translate(85.338839 545.516562) scale(0.1 -0.1)">
       <defs>
        <path id="DejaVuSans-30" d="M 2034 4250 
Q 1547 4250 1301 3770 
Q 1056 3291 1056 2328 
Q 1056 1369 1301 889 
Q 1547 409 2034 409 
Q 2525 409 2770 889 
Q 3016 1369 3016 2328 
Q 3016 3291 2770 3770 
Q 2525 4250 2034 4250 
z
M 2034 4750 
Q 2819 4750 3233 4129 
Q 3647 3509 3647 2328 
Q 3647 1150 3233 529 
Q 2819 -91 2034 -91 
Q 1250 -91 836 529 
Q 422 1150 422 2328 
Q 422 3509 836 4129 
Q 1250 4750 2034 4750 
z
" transform="scale(0.015625)"/>
       </defs>
       <use xlink:href="#DejaVuSans-30"/>
      </g>
     </g>
    </g>
    <g id="xtick_2">
     <g id="line2d_3">
      <path d="M 200.23716 530.918125 
L 200.23716 22.318125 
" clip-path="url(#pe09e8b2be3)" style="fill: none; stroke: #b0b0b0; stroke-opacity: 0.3; stroke-width: 0.8; stroke-linecap: square"/>
     </g>
     <g id="line2d_4">
      <g>
       <use xlink:href="#mbfffcd1209" x="200.23716" y="530.918125" style="stroke: #000000; stroke-width: 0.8"/>
      </g>
     </g>
     <g id="text_2">
      <!-- 2 -->
      <g transform="translate(197.05591 545.516562) scale(0.1 -0.1)">
       <defs>
        <path id="DejaVuSans-32" d="M 1228 531 
L 3431 531 
L 3431 0 
L 469 0 
L 469 531 
Q 828 903 1448 1529 
Q 2069 2156 2228 2338 
Q 2531 2678 2651 2914 
Q 2772 3150 2772 3378 
Q 2772 3750 2511 3984 
Q 2250 4219 1831 4219 
Q 1534 4219 1204 4116 
Q 875 4013 500 3803 
L 500 4441 
Q 881 4594 1212 4672 
Q 1544 4750 1819 4750 
Q 2544 4750 2975 4387 
Q 3406 4025 3406 3419 
Q 3406 3131 3298 2873 
Q 3191 2616 2906 2266 
Q 2828 2175 2409 1742 
Q 1991 1309 1228 531 
z
" transform="scale(0.015625)"/>
       </defs>
       <use xlink:href="#DejaVuSans-32"/>
      </g>
     </g>
    </g>
    <g id="xtick_3">
     <g id="line2d_5">
      <path d="M 311.954232 530.918125 
L 311.954232 22.318125 
" clip-path="url(#pe09e8b2be3)" style="fill: none; stroke: #b0b0b0; stroke-opacity: 0.3; stroke-width: 0.8; stroke-linecap: square"/>
     </g>
     <g id="line2d_6">
      <g>
       <use xlink:href="#mbfffcd1209" x="311.954232" y="530.918125" style="stroke: #000000; stroke-width: 0.8"/>
      </g>
     </g>
     <g id="text_3">
      <!-- 4 -->
      <g transform="translate(308.772982 545.516562) scale(0.1 -0.1)">
       <defs>
        <path id="DejaVuSans-34" d="M 2419 4116 
L 825 1625 
L 2419 1625 
L 2419 4116 
z
M 2253 4666 
L 3047 4666 
L 3047 1625 
L 3713 1625 
L 3713 1100 
L 3047 1100 
L 3047 0 
L 2419 0 
L 2419 1100 
L 313 1100 
L 313 1709 
L 2253 4666 
z
" transform="scale(0.015625)"/>
       </defs>
       <use xlink:href="#DejaVuSans-34"/>
      </g>
     </g>
    </g>
    <g id="xtick_4">
     <g id="line2d_7">
      <path d="M 423.671303 530.918125 
L 423.671303 22.318125 
" clip-path="url(#pe09e8b2be3)" style="fill: none; stroke: #b0b0b0; stroke-opacity: 0.3; stroke-width: 0.8; stroke-linecap: square"/>
     </g>
     <g id="line2d_8">
      <g>
       <use xlink:href="#mbfffcd1209" x="423.671303" y="530.918125" style="stroke: #000000; stroke-width: 0.8"/>
      </g>
     </g>
     <g id="text_4">
      <!-- 6 -->
      <g transform="translate(420.490053 545.516562) scale(0.1 -0.1)">
       <defs>
        <path id="DejaVuSans-36" d="M 2113 2584 
Q 1688 2584 1439 2293 
Q 1191 2003 1191 1497 
Q 1191 994 1439 701 
Q 1688 409 2113 409 
Q 2538 409 2786 701 
Q 3034 994 3034 1497 
Q 3034 2003 2786 2293 
Q 2538 2584 2113 2584 
z
M 3366 4563 
L 3366 3988 
Q 3128 4100 2886 4159 
Q 2644 4219 2406 4219 
Q 1781 4219 1451 3797 
Q 1122 3375 1075 2522 
Q 1259 2794 1537 2939 
Q 1816 3084 2150 3084 
Q 2853 3084 3261 2657 
Q 3669 2231 3669 1497 
Q 3669 778 3244 343 
Q 2819 -91 2113 -91 
Q 1303 -91 875 529 
Q 447 1150 447 2328 
Q 447 3434 972 4092 
Q 1497 4750 2381 4750 
Q 2619 4750 2861 4703 
Q 3103 4656 3366 4563 
z
" transform="scale(0.015625)"/>
       </defs>
       <use xlink:href="#DejaVuSans-36"/>
      </g>
     </g>
    </g>
    <g id="xtick_5">
     <g id="line2d_9">
      <path d="M 535.388375 530.918125 
L 535.388375 22.318125 
" clip-path="url(#pe09e8b2be3)" style="fill: none; stroke: #b0b0b0; stroke-opacity: 0.3; stroke-width: 0.8; stroke-linecap: square"/>
     </g>
     <g id="line2d_10">
      <g>
       <use xlink:href="#mbfffcd1209" x="535.388375" y="530.918125" style="stroke: #000000; stroke-width: 0.8"/>
      </g>
     </g>
     <g id="text_5">
      <!-- 8 -->
      <g transform="translate(532.207125 545.516562) scale(0.1 -0.1)">
       <defs>
        <path id="DejaVuSans-38" d="M 2034 2216 
Q 1584 2216 1326 1975 
Q 1069 1734 1069 1313 
Q 1069 891 1326 650 
Q 1584 409 2034 409 
Q 2484 409 2743 651 
Q 3003 894 3003 1313 
Q 3003 1734 2745 1975 
Q 2488 2216 2034 2216 
z
M 1403 2484 
Q 997 2584 770 2862 
Q 544 3141 544 3541 
Q 544 4100 942 4425 
Q 1341 4750 2034 4750 
Q 2731 4750 3128 4425 
Q 3525 4100 3525 3541 
Q 3525 3141 3298 2862 
Q 3072 2584 2669 2484 
Q 3125 2378 3379 2068 
Q 3634 1759 3634 1313 
Q 3634 634 3220 271 
Q 2806 -91 2034 -91 
Q 1263 -91 848 271 
Q 434 634 434 1313 
Q 434 1759 690 2068 
Q 947 2378 1403 2484 
z
M 1172 3481 
Q 1172 3119 1398 2916 
Q 1625 2713 2034 2713 
Q 2441 2713 2670 2916 
Q 2900 3119 2900 3481 
Q 2900 3844 2670 4047 
Q 2441 4250 2034 4250 
Q 1625 4250 1398 4047 
Q 1172 3844 1172 3481 
z
" transform="scale(0.015625)"/>
       </defs>
       <use xlink:href="#DejaVuSans-38"/>
      </g>
     </g>
    </g>
    <g id="xtick_6">
     <g id="line2d_11">
      <path d="M 647.105446 530.918125 
L 647.105446 22.318125 
" clip-path="url(#pe09e8b2be3)" style="fill: none; stroke: #b0b0b0; stroke-opacity: 0.3; stroke-width: 0.8; stroke-linecap: square"/>
     </g>
     <g id="line2d_12">
      <g>
       <use xlink:href="#mbfffcd1209" x="647.105446" y="530.918125" style="stroke: #000000; stroke-width: 0.8"/>
      </g>
     </g>
     <g id="text_6">
      <!-- 10 -->
      <g transform="translate(640.742946 545.516562) scale(0.1 -0.1)">
       <defs>
        <path id="DejaVuSans-31" d="M 794 531 
L 1825 531 
L 1825 4091 
L 703 3866 
L 703 4441 
L 1819 4666 
L 2450 4666 
L 2450 531 
L 3481 531 
L 3481 0 
L 794 0 
L 794 531 
z
" transform="scale(0.015625)"/>
       </defs>
       <use xlink:href="#DejaVuSans-31"/>
       <use xlink:href="#DejaVuSans-30" x="63.623047"/>
      </g>
     </g>
    </g>
    <g id="xtick_7">
     <g id="line2d_13">
      <path d="M 758.822518 530.918125 
L 758.822518 22.318125 
" clip-path="url(#pe09e8b2be3)" style="fill: none; stroke: #b0b0b0; stroke-opacity: 0.3; stroke-width: 0.8; stroke-linecap: square"/>
     </g>
     <g id="line2d_14">
      <g>
       <use xlink:href="#mbfffcd1209" x="758.822518" y="530.918125" style="stroke: #000000; stroke-width: 0.8"/>
      </g>
     </g>
     <g id="text_7">
      <!-- 12 -->
      <g transform="translate(752.460018 545.516562) scale(0.1 -0.1)">
       <use xlink:href="#DejaVuSans-31"/>
       <use xlink:href="#DejaVuSans-32" x="63.623047"/>
      </g>
     </g>
    </g>
    <g id="text_8">
     <!-- Elapsed Time (seconds) -->
     <g transform="translate(391.815156 559.194687) scale(0.1 -0.1)">
      <defs>
       <path id="DejaVuSans-45" d="M 628 4666 
L 3578 4666 
L 3578 4134 
L 1259 4134 
L 1259 2753 
L 3481 2753 
L 3481 2222 
L 1259 2222 
L 1259 531 
L 3634 531 
L 3634 0 
L 628 0 
L 628 4666 
z
" transform="scale(0.015625)"/>
       <path id="DejaVuSans-6c" d="M 603 4863 
L 1178 4863 
L 1178 0 
L 603 0 
L 603 4863 
z
" transform="scale(0.015625)"/>
       <path id="DejaVuSans-61" d="M 2194 1759 
Q 1497 1759 1228 1600 
Q 959 1441 959 1056 
Q 959 750 1161 570 
Q 1363 391 1709 391 
Q 2188 391 2477 730 
Q 2766 1069 2766 1631 
L 2766 1759 
L 2194 1759 
z
M 3341 1997 
L 3341 0 
L 2766 0 
L 2766 531 
Q 2569 213 2275 61 
Q 1981 -91 1556 -91 
Q 1019 -91 701 211 
Q 384 513 384 1019 
Q 384 1609 779 1909 
Q 1175 2209 1959 2209 
L 2766 2209 
L 2766 2266 
Q 2766 2663 2505 2880 
Q 2244 3097 1772 3097 
Q 1472 3097 1187 3025 
Q 903 2953 641 2809 
L 641 3341 
Q 956 3463 1253 3523 
Q 1550 3584 1831 3584 
Q 2591 3584 2966 3190 
Q 3341 2797 3341 1997 
z
" transform="scale(0.015625)"/>
       <path id="DejaVuSans-70" d="M 1159 525 
L 1159 -1331 
L 581 -1331 
L 581 3500 
L 1159 3500 
L 1159 2969 
Q 1341 3281 1617 3432 
Q 1894 3584 2278 3584 
Q 2916 3584 3314 3078 
Q 3713 2572 3713 1747 
Q 3713 922 3314 415 
Q 2916 -91 2278 -91 
Q 1894 -91 1617 61 
Q 1341 213 1159 525 
z
M 3116 1747 
Q 3116 2381 2855 2742 
Q 2594 3103 2138 3103 
Q 1681 3103 1420 2742 
Q 1159 2381 1159 1747 
Q 1159 1113 1420 752 
Q 1681 391 2138 391 
Q 2594 391 2855 752 
Q 3116 1113 3116 1747 
z
" transform="scale(0.015625)"/>
       <path id="DejaVuSans-73" d="M 2834 3397 
L 2834 2853 
Q 2591 2978 2328 3040 
Q 2066 3103 1784 3103 
Q 1356 3103 1142 2972 
Q 928 2841 928 2578 
Q 928 2378 1081 2264 
Q 1234 2150 1697 2047 
L 1894 2003 
Q 2506 1872 2764 1633 
Q 3022 1394 3022 966 
Q 3022 478 2636 193 
Q 2250 -91 1575 -91 
Q 1294 -91 989 -36 
Q 684 19 347 128 
L 347 722 
Q 666 556 975 473 
Q 1284 391 1588 391 
Q 1994 391 2212 530 
Q 2431 669 2431 922 
Q 2431 1156 2273 1281 
Q 2116 1406 1581 1522 
L 1381 1569 
Q 847 1681 609 1914 
Q 372 2147 372 2553 
Q 372 3047 722 3315 
Q 1072 3584 1716 3584 
Q 2034 3584 2315 3537 
Q 2597 3491 2834 3397 
z
" transform="scale(0.015625)"/>
       <path id="DejaVuSans-65" d="M 3597 1894 
L 3597 1613 
L 953 1613 
Q 991 1019 1311 708 
Q 1631 397 2203 397 
Q 2534 397 2845 478 
Q 3156 559 3463 722 
L 3463 178 
Q 3153 47 2828 -22 
Q 2503 -91 2169 -91 
Q 1331 -91 842 396 
Q 353 884 353 1716 
Q 353 2575 817 3079 
Q 1281 3584 2069 3584 
Q 2775 3584 3186 3129 
Q 3597 2675 3597 1894 
z
M 3022 2063 
Q 3016 2534 2758 2815 
Q 2500 3097 2075 3097 
Q 1594 3097 1305 2825 
Q 1016 2553 972 2059 
L 3022 2063 
z
" transform="scale(0.015625)"/>
       <path id="DejaVuSans-64" d="M 2906 2969 
L 2906 4863 
L 3481 4863 
L 3481 0 
L 2906 0 
L 2906 525 
Q 2725 213 2448 61 
Q 2172 -91 1784 -91 
Q 1150 -91 751 415 
Q 353 922 353 1747 
Q 353 2572 751 3078 
Q 1150 3584 1784 3584 
Q 2172 3584 2448 3432 
Q 2725 3281 2906 2969 
z
M 947 1747 
Q 947 1113 1208 752 
Q 1469 391 1925 391 
Q 2381 391 2643 752 
Q 2906 1113 2906 1747 
Q 2906 2381 2643 2742 
Q 2381 3103 1925 3103 
Q 1469 3103 1208 2742 
Q 947 2381 947 1747 
z
" transform="scale(0.015625)"/>
       <path id="DejaVuSans-20" transform="scale(0.015625)"/>
       <path id="DejaVuSans-54" d="M -19 4666 
L 3928 4666 
L 3928 4134 
L 2272 4134 
L 2272 0 
L 1638 0 
L 1638 4134 
L -19 4134 
L -19 4666 
z
" transform="scale(0.015625)"/>
       <path id="DejaVuSans-69" d="M 603 3500 
L 1178 3500 
L 1178 0 
L 603 0 
L 603 3500 
z
M 603 4863 
L 1178 4863 
L 1178 4134 
L 603 4134 
L 603 4863 
z
" transform="scale(0.015625)"/>
       <path id="DejaVuSans-6d" d="M 3328 2828 
Q 3544 3216 3844 3400 
Q 4144 3584 4550 3584 
Q 5097 3584 5394 3201 
Q 5691 2819 5691 2113 
L 5691 0 
L 5113 0 
L 5113 2094 
Q 5113 2597 4934 2840 
Q 4756 3084 4391 3084 
Q 3944 3084 3684 2787 
Q 3425 2491 3425 1978 
L 3425 0 
L 2847 0 
L 2847 2094 
Q 2847 2600 2669 2842 
Q 2491 3084 2119 3084 
Q 1678 3084 1418 2786 
Q 1159 2488 1159 1978 
L 1159 0 
L 581 0 
L 581 3500 
L 1159 3500 
L 1159 2956 
Q 1356 3278 1631 3431 
Q 1906 3584 2284 3584 
Q 2666 3584 2933 3390 
Q 3200 3197 3328 2828 
z
" transform="scale(0.015625)"/>
       <path id="DejaVuSans-28" d="M 1984 4856 
Q 1566 4138 1362 3434 
Q 1159 2731 1159 2009 
Q 1159 1288 1364 580 
Q 1569 -128 1984 -844 
L 1484 -844 
Q 1016 -109 783 600 
Q 550 1309 550 2009 
Q 550 2706 781 3412 
Q 1013 4119 1484 4856 
L 1984 4856 
z
" transform="scale(0.015625)"/>
       <path id="DejaVuSans-63" d="M 3122 3366 
L 3122 2828 
Q 2878 2963 2633 3030 
Q 2388 3097 2138 3097 
Q 1578 3097 1268 2742 
Q 959 2388 959 1747 
Q 959 1106 1268 751 
Q 1578 397 2138 397 
Q 2388 397 2633 464 
Q 2878 531 3122 666 
L 3122 134 
Q 2881 22 2623 -34 
Q 2366 -91 2075 -91 
Q 1284 -91 818 406 
Q 353 903 353 1747 
Q 353 2603 823 3093 
Q 1294 3584 2113 3584 
Q 2378 3584 2631 3529 
Q 2884 3475 3122 3366 
z
" transform="scale(0.015625)"/>
       <path id="DejaVuSans-6f" d="M 1959 3097 
Q 1497 3097 1228 2736 
Q 959 2375 959 1747 
Q 959 1119 1226 758 
Q 1494 397 1959 397 
Q 2419 397 2687 759 
Q 2956 1122 2956 1747 
Q 2956 2369 2687 2733 
Q 2419 3097 1959 3097 
z
M 1959 3584 
Q 2709 3584 3137 3096 
Q 3566 2609 3566 1747 
Q 3566 888 3137 398 
Q 2709 -91 1959 -91 
Q 1206 -91 779 398 
Q 353 888 353 1747 
Q 353 2609 779 3096 
Q 1206 3584 1959 3584 
z
" transform="scale(0.015625)"/>
       <path id="DejaVuSans-6e" d="M 3513 2113 
L 3513 0 
L 2938 0 
L 2938 2094 
Q 2938 2591 2744 2837 
Q 2550 3084 2163 3084 
Q 1697 3084 1428 2787 
Q 1159 2491 1159 1978 
L 1159 0 
L 581 0 
L 581 3500 
L 1159 3500 
L 1159 2956 
Q 1366 3272 1645 3428 
Q 1925 3584 2291 3584 
Q 2894 3584 3203 3211 
Q 3513 2838 3513 2113 
z
" transform="scale(0.015625)"/>
       <path id="DejaVuSans-29" d="M 513 4856 
L 1013 4856 
Q 1481 4119 1714 3412 
Q 1947 2706 1947 2009 
Q 1947 1309 1714 600 
Q 1481 -109 1013 -844 
L 513 -844 
Q 928 -128 1133 580 
Q 1338 1288 1338 2009 
Q 1338 2731 1133 3434 
Q 928 4138 513 4856 
z
" transform="scale(0.015625)"/>
      </defs>
      <use xlink:href="#DejaVuSans-45"/>
      <use xlink:href="#DejaVuSans-6c" x="63.183594"/>
      <use xlink:href="#DejaVuSans-61" x="90.966797"/>
      <use xlink:href="#DejaVuSans-70" x="152.246094"/>
      <use xlink:href="#DejaVuSans-73" x="215.722656"/>
      <use xlink:href="#DejaVuSans-65" x="267.822266"/>
      <use xlink:href="#DejaVuSans-64" x="329.345703"/>
      <use xlink:href="#DejaVuSans-20" x="392.822266"/>
      <use xlink:href="#DejaVuSans-54" x="424.609375"/>
      <use xlink:href="#DejaVuSans-69" x="482.568359"/>
      <use xlink:href="#DejaVuSans-6d" x="510.351562"/>
      <use xlink:href="#DejaVuSans-65" x="607.763672"/>
      <use xlink:href="#DejaVuSans-20" x="669.287109"/>
      <use xlink:href="#DejaVuSans-28" x="701.074219"/>
      <use xlink:href="#DejaVuSans-73" x="740.087891"/>
      <use xlink:href="#DejaVuSans-65" x="792.1875"/>
      <use xlink:href="#DejaVuSans-63" x="853.710938"/>
      <use xlink:href="#DejaVuSans-6f" x="908.691406"/>
      <use xlink:href="#DejaVuSans-6e" x="969.873047"/>
      <use xlink:href="#DejaVuSans-64" x="1033.251953"/>
      <use xlink:href="#DejaVuSans-73" x="1096.728516"/>
      <use xlink:href="#DejaVuSans-29" x="1148.828125"/>
     </g>
    </g>
   </g>
   <g id="matplotlib.axis_2">
    <g id="ytick_1">
     <g id="line2d_15">
      <path d="M 53.328125 507.799943 
L 849.088125 507.799943 
" clip-path="url(#pe09e8b2be3)" style="fill: none; stroke: #b0b0b0; stroke-opacity: 0.3; stroke-width: 0.8; stroke-linecap: square"/>
     </g>
     <g id="line2d_16">
      <defs>
       <path id="ma9e77f4a59" d="M 0 0 
L -3.5 0 
" style="stroke: #000000; stroke-width: 0.8"/>
      </defs>
      <g>
       <use xlink:href="#ma9e77f4a59" x="53.328125" y="507.799943" style="stroke: #000000; stroke-width: 0.8"/>
      </g>
     </g>
     <g id="text_9">
      <!-- 0 -->
      <g transform="translate(39.965625 511.599162) scale(0.1 -0.1)">
       <use xlink:href="#DejaVuSans-30"/>
      </g>
     </g>
    </g>
    <g id="ytick_2">
     <g id="line2d_17">
      <path d="M 53.328125 427.958182 
L 849.088125 427.958182 
" clip-path="url(#pe09e8b2be3)" style="fill: none; stroke: #b0b0b0; stroke-opacity: 0.3; stroke-width: 0.8; stroke-linecap: square"/>
     </g>
     <g id="line2d_18">
      <g>
       <use xlink:href="#ma9e77f4a59" x="53.328125" y="427.958182" style="stroke: #000000; stroke-width: 0.8"/>
      </g>
     </g>
     <g id="text_10">
      <!-- 200 -->
      <g transform="translate(27.240625 431.757401) scale(0.1 -0.1)">
       <use xlink:href="#DejaVuSans-32"/>
       <use xlink:href="#DejaVuSans-30" x="63.623047"/>
       <use xlink:href="#DejaVuSans-30" x="127.246094"/>
      </g>
     </g>
    </g>
    <g id="ytick_3">
     <g id="line2d_19">
      <path d="M 53.328125 348.116422 
L 849.088125 348.116422 
" clip-path="url(#pe09e8b2be3)" style="fill: none; stroke: #b0b0b0; stroke-opacity: 0.3; stroke-width: 0.8; stroke-linecap: square"/>
     </g>
     <g id="line2d_20">
      <g>
       <use xlink:href="#ma9e77f4a59" x="53.328125" y="348.116422" style="stroke: #000000; stroke-width: 0.8"/>
      </g>
     </g>
     <g id="text_11">
      <!-- 400 -->
      <g transform="translate(27.240625 351.91564) scale(0.1 -0.1)">
       <use xlink:href="#DejaVuSans-34"/>
       <use xlink:href="#DejaVuSans-30" x="63.623047"/>
       <use xlink:href="#DejaVuSans-30" x="127.246094"/>
      </g>
     </g>
    </g>
    <g id="ytick_4">
     <g id="line2d_21">
      <path d="M 53.328125 268.274661 
L 849.088125 268.274661 
" clip-path="url(#pe09e8b2be3)" style="fill: none; stroke: #b0b0b0; stroke-opacity: 0.3; stroke-width: 0.8; stroke-linecap: square"/>
     </g>
     <g id="line2d_22">
      <g>
       <use xlink:href="#ma9e77f4a59" x="53.328125" y="268.274661" style="stroke: #000000; stroke-width: 0.8"/>
      </g>
     </g>
     <g id="text_12">
      <!-- 600 -->
      <g transform="translate(27.240625 272.07388) scale(0.1 -0.1)">
       <use xlink:href="#DejaVuSans-36"/>
       <use xlink:href="#DejaVuSans-30" x="63.623047"/>
       <use xlink:href="#DejaVuSans-30" x="127.246094"/>
      </g>
     </g>
    </g>
    <g id="ytick_5">
     <g id="line2d_23">
      <path d="M 53.328125 188.4329 
L 849.088125 188.4329 
" clip-path="url(#pe09e8b2be3)" style="fill: none; stroke: #b0b0b0; stroke-opacity: 0.3; stroke-width: 0.8; stroke-linecap: square"/>
     </g>
     <g id="line2d_24">
      <g>
       <use xlink:href="#ma9e77f4a59" x="53.328125" y="188.4329" style="stroke: #000000; stroke-width: 0.8"/>
      </g>
     </g>
     <g id="text_13">
      <!-- 800 -->
      <g transform="translate(27.240625 192.232119) scale(0.1 -0.1)">
       <use xlink:href="#DejaVuSans-38"/>
       <use xlink:href="#DejaVuSans-30" x="63.623047"/>
       <use xlink:href="#DejaVuSans-30" x="127.246094"/>
      </g>
     </g>
    </g>
    <g id="ytick_6">
     <g id="line2d_25">
      <path d="M 53.328125 108.59114 
L 849.088125 108.59114 
" clip-path="url(#pe09e8b2be3)" style="fill: none; stroke: #b0b0b0; stroke-opacity: 0.3; stroke-width: 0.8; stroke-linecap: square"/>
     </g>
     <g id="line2d_26">
      <g>
       <use xlink:href="#ma9e77f4a59" x="53.328125" y="108.59114" style="stroke: #000000; stroke-width: 0.8"/>
      </g>
     </g>
     <g id="text_14">
      <!-- 1000 -->
      <g transform="translate(20.878125 112.390358) scale(0.1 -0.1)">
       <use xlink:href="#DejaVuSans-31"/>
       <use xlink:href="#DejaVuSans-30" x="63.623047"/>
       <use xlink:href="#DejaVuSans-30" x="127.246094"/>
       <use xlink:href="#DejaVuSans-30" x="190.869141"/>
      </g>
     </g>
    </g>
    <g id="ytick_7">
     <g id="line2d_27">
      <path d="M 53.328125 28.749379 
L 849.088125 28.749379 
" clip-path="url(#pe09e8b2be3)" style="fill: none; stroke: #b0b0b0; stroke-opacity: 0.3; stroke-width: 0.8; stroke-linecap: square"/>
     </g>
     <g id="line2d_28">
      <g>
       <use xlink:href="#ma9e77f4a59" x="53.328125" y="28.749379" style="stroke: #000000; stroke-width: 0.8"/>
      </g>
     </g>
     <g id="text_15">
      <!-- 1200 -->
      <g transform="translate(20.878125 32.548598) scale(0.1 -0.1)">
       <use xlink:href="#DejaVuSans-31"/>
       <use xlink:href="#DejaVuSans-32" x="63.623047"/>
       <use xlink:href="#DejaVuSans-30" x="127.246094"/>
       <use xlink:href="#DejaVuSans-30" x="190.869141"/>
      </g>
     </g>
    </g>
    <g id="text_16">
     <!-- CPU Usage (%) -->
     <g transform="translate(14.798438 314.193125) rotate(-90) scale(0.1 -0.1)">
      <defs>
       <path id="DejaVuSans-43" d="M 4122 4306 
L 4122 3641 
Q 3803 3938 3442 4084 
Q 3081 4231 2675 4231 
Q 1875 4231 1450 3742 
Q 1025 3253 1025 2328 
Q 1025 1406 1450 917 
Q 1875 428 2675 428 
Q 3081 428 3442 575 
Q 3803 722 4122 1019 
L 4122 359 
Q 3791 134 3420 21 
Q 3050 -91 2638 -91 
Q 1578 -91 968 557 
Q 359 1206 359 2328 
Q 359 3453 968 4101 
Q 1578 4750 2638 4750 
Q 3056 4750 3426 4639 
Q 3797 4528 4122 4306 
z
" transform="scale(0.015625)"/>
       <path id="DejaVuSans-50" d="M 1259 4147 
L 1259 2394 
L 2053 2394 
Q 2494 2394 2734 2622 
Q 2975 2850 2975 3272 
Q 2975 3691 2734 3919 
Q 2494 4147 2053 4147 
L 1259 4147 
z
M 628 4666 
L 2053 4666 
Q 2838 4666 3239 4311 
Q 3641 3956 3641 3272 
Q 3641 2581 3239 2228 
Q 2838 1875 2053 1875 
L 1259 1875 
L 1259 0 
L 628 0 
L 628 4666 
z
" transform="scale(0.015625)"/>
       <path id="DejaVuSans-55" d="M 556 4666 
L 1191 4666 
L 1191 1831 
Q 1191 1081 1462 751 
Q 1734 422 2344 422 
Q 2950 422 3222 751 
Q 3494 1081 3494 1831 
L 3494 4666 
L 4128 4666 
L 4128 1753 
Q 4128 841 3676 375 
Q 3225 -91 2344 -91 
Q 1459 -91 1007 375 
Q 556 841 556 1753 
L 556 4666 
z
" transform="scale(0.015625)"/>
       <path id="DejaVuSans-67" d="M 2906 1791 
Q 2906 2416 2648 2759 
Q 2391 3103 1925 3103 
Q 1463 3103 1205 2759 
Q 947 2416 947 1791 
Q 947 1169 1205 825 
Q 1463 481 1925 481 
Q 2391 481 2648 825 
Q 2906 1169 2906 1791 
z
M 3481 434 
Q 3481 -459 3084 -895 
Q 2688 -1331 1869 -1331 
Q 1566 -1331 1297 -1286 
Q 1028 -1241 775 -1147 
L 775 -588 
Q 1028 -725 1275 -790 
Q 1522 -856 1778 -856 
Q 2344 -856 2625 -561 
Q 2906 -266 2906 331 
L 2906 616 
Q 2728 306 2450 153 
Q 2172 0 1784 0 
Q 1141 0 747 490 
Q 353 981 353 1791 
Q 353 2603 747 3093 
Q 1141 3584 1784 3584 
Q 2172 3584 2450 3431 
Q 2728 3278 2906 2969 
L 2906 3500 
L 3481 3500 
L 3481 434 
z
" transform="scale(0.015625)"/>
       <path id="DejaVuSans-25" d="M 4653 2053 
Q 4381 2053 4226 1822 
Q 4072 1591 4072 1178 
Q 4072 772 4226 539 
Q 4381 306 4653 306 
Q 4919 306 5073 539 
Q 5228 772 5228 1178 
Q 5228 1588 5073 1820 
Q 4919 2053 4653 2053 
z
M 4653 2450 
Q 5147 2450 5437 2106 
Q 5728 1763 5728 1178 
Q 5728 594 5436 251 
Q 5144 -91 4653 -91 
Q 4153 -91 3862 251 
Q 3572 594 3572 1178 
Q 3572 1766 3864 2108 
Q 4156 2450 4653 2450 
z
M 1428 4353 
Q 1159 4353 1004 4120 
Q 850 3888 850 3481 
Q 850 3069 1003 2837 
Q 1156 2606 1428 2606 
Q 1700 2606 1854 2837 
Q 2009 3069 2009 3481 
Q 2009 3884 1853 4118 
Q 1697 4353 1428 4353 
z
M 4250 4750 
L 4750 4750 
L 1831 -91 
L 1331 -91 
L 4250 4750 
z
M 1428 4750 
Q 1922 4750 2215 4408 
Q 2509 4066 2509 3481 
Q 2509 2891 2217 2550 
Q 1925 2209 1428 2209 
Q 931 2209 642 2551 
Q 353 2894 353 3481 
Q 353 4063 643 4406 
Q 934 4750 1428 4750 
z
" transform="scale(0.015625)"/>
      </defs>
      <use xlink:href="#DejaVuSans-43"/>
      <use xlink:href="#DejaVuSans-50" x="69.824219"/>
      <use xlink:href="#DejaVuSans-55" x="130.126953"/>
      <use xlink:href="#DejaVuSans-20" x="203.320312"/>
      <use xlink:href="#DejaVuSans-55" x="235.107422"/>
      <use xlink:href="#DejaVuSans-73" x="308.300781"/>
      <use xlink:href="#DejaVuSans-61" x="360.400391"/>
      <use xlink:href="#DejaVuSans-67" x="421.679688"/>
      <use xlink:href="#DejaVuSans-65" x="485.15625"/>
      <use xlink:href="#DejaVuSans-20" x="546.679688"/>
      <use xlink:href="#DejaVuSans-28" x="578.466797"/>
      <use xlink:href="#DejaVuSans-25" x="617.480469"/>
      <use xlink:href="#DejaVuSans-29" x="712.5"/>
     </g>
    </g>
   </g>
   <g id="line2d_29">
    <path d="M 89.499034 507.799943 
L 100.730234 507.799943 
L 111.923745 507.799943 
L 123.158994 507.799943 
L 134.432118 507.799943 
L 145.651718 507.799943 
L 151.284445 507.799943 
L 156.903734 507.799943 
L 162.533277 507.799943 
L 168.150462 507.799943 
L 173.78235 507.799943 
L 179.400826 507.799943 
L 185.029145 507.799943 
L 190.657903 507.799943 
L 196.278351 507.799943 
L 201.899158 440.253814 
L 207.502972 201.327345 
L 213.10584 197.415098 
L 218.709481 193.462931 
L 224.313468 197.415098 
L 229.916935 205.319433 
L 235.519191 189.31116 
L 241.120314 205.279512 
L 246.72273 205.319433 
L 252.325172 193.383089 
L 257.930571 201.526949 
L 263.534864 197.415098 
L 269.138465 197.375177 
L 274.74144 197.335257 
L 280.343389 197.335257 
L 285.946817 201.367266 
L 291.549938 193.383089 
L 297.153485 197.455019 
L 302.757938 193.462931 
L 308.361779 201.407186 
L 313.974556 190.029735 
L 319.580074 197.49494 
L 325.184434 197.415098 
L 330.788328 197.375177 
L 336.39069 197.375177 
L 341.994544 197.375177 
L 347.597905 197.415098 
L 353.201732 193.383089 
L 358.804813 197.455019 
L 364.40912 197.335257 
L 370.010217 201.327345 
L 375.613698 193.383089 
L 381.217498 197.455019 
L 386.820367 197.415098 
L 392.424873 197.415098 
L 398.028753 197.375177 
L 403.631409 193.343169 
L 409.23413 201.367266 
L 414.837931 197.415098 
L 420.441811 193.502852 
L 426.04697 201.407186 
L 431.650891 193.462931 
L 437.253879 201.367266 
L 442.857493 193.502852 
L 448.462798 201.367266 
L 454.06548 189.430922 
L 459.669334 197.415098 
L 465.273654 197.415098 
L 470.876069 197.335257 
L 476.477712 201.327345 
L 482.079902 197.335257 
L 487.689722 193.782298 
L 493.293655 201.407186 
L 498.898069 189.510764 
L 504.503627 201.447107 
L 510.108053 197.455019 
L 515.723773 205.998088 
L 521.327787 197.415098 
L 526.931947 185.518676 
L 532.536826 201.407186 
L 538.140187 193.343169 
L 543.742709 197.375177 
L 549.34599 197.415098 
L 554.950071 201.407186 
L 560.553885 197.415098 
L 566.156034 197.335257 
L 571.759954 189.391001 
L 577.361397 205.279512 
L 582.967302 189.590606 
L 588.571036 197.455019 
L 594.17505 205.359354 
L 599.783245 185.758201 
L 605.387205 201.407186 
L 610.991099 197.415098 
L 616.595326 197.415098 
L 622.197528 197.295336 
L 627.799651 193.343169 
L 633.402053 201.367266 
L 639.016055 193.981903 
L 644.62421 193.702456 
L 650.227957 197.335257 
L 655.830586 197.415098 
L 661.434679 197.49494 
L 667.040344 193.462931 
L 672.644664 197.375177 
L 678.24716 197.375177 
L 683.850334 197.295336 
L 689.451138 197.295336 
L 695.053367 197.335257 
L 700.655929 201.287424 
L 706.257879 201.367266 
L 711.861679 193.383089 
L 717.464095 193.42301 
L 723.068308 193.42301 
L 728.670617 201.327345 
L 734.274537 193.42301 
L 739.877659 197.415098 
L 745.480301 197.255415 
L 751.0794 201.247503 
L 756.683254 197.335257 
L 762.287987 468.038746 
L 767.90344 507.799943 
L 773.535328 507.799943 
L 779.152766 507.799943 
L 784.772521 507.799943 
L 790.39763 507.799943 
L 796.028598 507.799943 
L 801.657063 507.799943 
L 807.283837 507.799943 
L 812.917216 507.799943 
" clip-path="url(#pe09e8b2be3)" style="fill: none; stroke: #2ca02c; stroke-width: 2; stroke-linecap: square"/>
    <defs>
     <path id="m9f70f3a4a6" d="M 0 2 
C 0.530406 2 1.03916 1.789267 1.414214 1.414214 
C 1.789267 1.03916 2 0.530406 2 0 
C 2 -0.530406 1.789267 -1.03916 1.414214 -1.414214 
C 1.03916 -1.789267 0.530406 -2 0 -2 
C -0.530406 -2 -1.03916 -1.789267 -1.414214 -1.414214 
C -1.789267 -1.03916 -2 -0.530406 -2 0 
C -2 0.530406 -1.789267 1.03916 -1.414214 1.414214 
C -1.03916 1.789267 -0.530406 2 0 2 
z
" style="stroke: #2ca02c"/>
    </defs>
    <g clip-path="url(#pe09e8b2be3)">
     <use xlink:href="#m9f70f3a4a6" x="89.499034" y="507.799943" style="fill: #2ca02c; stroke: #2ca02c"/>
     <use xlink:href="#m9f70f3a4a6" x="100.730234" y="507.799943" style="fill: #2ca02c; stroke: #2ca02c"/>
     <use xlink:href="#m9f70f3a4a6" x="111.923745" y="507.799943" style="fill: #2ca02c; stroke: #2ca02c"/>
     <use xlink:href="#m9f70f3a4a6" x="123.158994" y="507.799943" style="fill: #2ca02c; stroke: #2ca02c"/>
     <use xlink:href="#m9f70f3a4a6" x="134.432118" y="507.799943" style="fill: #2ca02c; stroke: #2ca02c"/>
     <use xlink:href="#m9f70f3a4a6" x="145.651718" y="507.799943" style="fill: #2ca02c; stroke: #2ca02c"/>
     <use xlink:href="#m9f70f3a4a6" x="151.284445" y="507.799943" style="fill: #2ca02c; stroke: #2ca02c"/>
     <use xlink:href="#m9f70f3a4a6" x="156.903734" y="507.799943" style="fill: #2ca02c; stroke: #2ca02c"/>
     <use xlink:href="#m9f70f3a4a6" x="162.533277" y="507.799943" style="fill: #2ca02c; stroke: #2ca02c"/>
     <use xlink:href="#m9f70f3a4a6" x="168.150462" y="507.799943" style="fill: #2ca02c; stroke: #2ca02c"/>
     <use xlink:href="#m9f70f3a4a6" x="173.78235" y="507.799943" style="fill: #2ca02c; stroke: #2ca02c"/>
     <use xlink:href="#m9f70f3a4a6" x="179.400826" y="507.799943" style="fill: #2ca02c; stroke: #2ca02c"/>
     <use xlink:href="#m9f70f3a4a6" x="185.029145" y="507.799943" style="fill: #2ca02c; stroke: #2ca02c"/>
     <use xlink:href="#m9f70f3a4a6" x="190.657903" y="507.799943" style="fill: #2ca02c; stroke: #2ca02c"/>
     <use xlink:href="#m9f70f3a4a6" x="196.278351" y="507.799943" style="fill: #2ca02c; stroke: #2ca02c"/>
     <use xlink:href="#m9f70f3a4a6" x="201.899158" y="440.253814" style="fill: #2ca02c; stroke: #2ca02c"/>
     <use xlink:href="#m9f70f3a4a6" x="207.502972" y="201.327345" style="fill: #2ca02c; stroke: #2ca02c"/>
     <use xlink:href="#m9f70f3a4a6" x="213.10584" y="197.415098" style="fill: #2ca02c; stroke: #2ca02c"/>
     <use xlink:href="#m9f70f3a4a6" x="218.709481" y="193.462931" style="fill: #2ca02c; stroke: #2ca02c"/>
     <use xlink:href="#m9f70f3a4a6" x="224.313468" y="197.415098" style="fill: #2ca02c; stroke: #2ca02c"/>
     <use xlink:href="#m9f70f3a4a6" x="229.916935" y="205.319433" style="fill: #2ca02c; stroke: #2ca02c"/>
     <use xlink:href="#m9f70f3a4a6" x="235.519191" y="189.31116" style="fill: #2ca02c; stroke: #2ca02c"/>
     <use xlink:href="#m9f70f3a4a6" x="241.120314" y="205.279512" style="fill: #2ca02c; stroke: #2ca02c"/>
     <use xlink:href="#m9f70f3a4a6" x="246.72273" y="205.319433" style="fill: #2ca02c; stroke: #2ca02c"/>
     <use xlink:href="#m9f70f3a4a6" x="252.325172" y="193.383089" style="fill: #2ca02c; stroke: #2ca02c"/>
     <use xlink:href="#m9f70f3a4a6" x="257.930571" y="201.526949" style="fill: #2ca02c; stroke: #2ca02c"/>
     <use xlink:href="#m9f70f3a4a6" x="263.534864" y="197.415098" style="fill: #2ca02c; stroke: #2ca02c"/>
     <use xlink:href="#m9f70f3a4a6" x="269.138465" y="197.375177" style="fill: #2ca02c; stroke: #2ca02c"/>
     <use xlink:href="#m9f70f3a4a6" x="274.74144" y="197.335257" style="fill: #2ca02c; stroke: #2ca02c"/>
     <use xlink:href="#m9f70f3a4a6" x="280.343389" y="197.335257" style="fill: #2ca02c; stroke: #2ca02c"/>
     <use xlink:href="#m9f70f3a4a6" x="285.946817" y="201.367266" style="fill: #2ca02c; stroke: #2ca02c"/>
     <use xlink:href="#m9f70f3a4a6" x="291.549938" y="193.383089" style="fill: #2ca02c; stroke: #2ca02c"/>
     <use xlink:href="#m9f70f3a4a6" x="297.153485" y="197.455019" style="fill: #2ca02c; stroke: #2ca02c"/>
     <use xlink:href="#m9f70f3a4a6" x="302.757938" y="193.462931" style="fill: #2ca02c; stroke: #2ca02c"/>
     <use xlink:href="#m9f70f3a4a6" x="308.361779" y="201.407186" style="fill: #2ca02c; stroke: #2ca02c"/>
     <use xlink:href="#m9f70f3a4a6" x="313.974556" y="190.029735" style="fill: #2ca02c; stroke: #2ca02c"/>
     <use xlink:href="#m9f70f3a4a6" x="319.580074" y="197.49494" style="fill: #2ca02c; stroke: #2ca02c"/>
     <use xlink:href="#m9f70f3a4a6" x="325.184434" y="197.415098" style="fill: #2ca02c; stroke: #2ca02c"/>
     <use xlink:href="#m9f70f3a4a6" x="330.788328" y="197.375177" style="fill: #2ca02c; stroke: #2ca02c"/>
     <use xlink:href="#m9f70f3a4a6" x="336.39069" y="197.375177" style="fill: #2ca02c; stroke: #2ca02c"/>
     <use xlink:href="#m9f70f3a4a6" x="341.994544" y="197.375177" style="fill: #2ca02c; stroke: #2ca02c"/>
     <use xlink:href="#m9f70f3a4a6" x="347.597905" y="197.415098" style="fill: #2ca02c; stroke: #2ca02c"/>
     <use xlink:href="#m9f70f3a4a6" x="353.201732" y="193.383089" style="fill: #2ca02c; stroke: #2ca02c"/>
     <use xlink:href="#m9f70f3a4a6" x="358.804813" y="197.455019" style="fill: #2ca02c; stroke: #2ca02c"/>
     <use xlink:href="#m9f70f3a4a6" x="364.40912" y="197.335257" style="fill: #2ca02c; stroke: #2ca02c"/>
     <use xlink:href="#m9f70f3a4a6" x="370.010217" y="201.327345" style="fill: #2ca02c; stroke: #2ca02c"/>
     <use xlink:href="#m9f70f3a4a6" x="375.613698" y="193.383089" style="fill: #2ca02c; stroke: #2ca02c"/>
     <use xlink:href="#m9f70f3a4a6" x="381.217498" y="197.455019" style="fill: #2ca02c; stroke: #2ca02c"/>
     <use xlink:href="#m9f70f3a4a6" x="386.820367" y="197.415098" style="fill: #2ca02c; stroke: #2ca02c"/>
     <use xlink:href="#m9f70f3a4a6" x="392.424873" y="197.415098" style="fill: #2ca02c; stroke: #2ca02c"/>
     <use xlink:href="#m9f70f3a4a6" x="398.028753" y="197.375177" style="fill: #2ca02c; stroke: #2ca02c"/>
     <use xlink:href="#m9f70f3a4a6" x="403.631409" y="193.343169" style="fill: #2ca02c; stroke: #2ca02c"/>
     <use xlink:href="#m9f70f3a4a6" x="409.23413" y="201.367266" style="fill: #2ca02c; stroke: #2ca02c"/>
     <use xlink:href="#m9f70f3a4a6" x="414.837931" y="197.415098" style="fill: #2ca02c; stroke: #2ca02c"/>
     <use xlink:href="#m9f70f3a4a6" x="420.441811" y="193.502852" style="fill: #2ca02c; stroke: #2ca02c"/>
     <use xlink:href="#m9f70f3a4a6" x="426.04697" y="201.407186" style="fill: #2ca02c; stroke: #2ca02c"/>
     <use xlink:href="#m9f70f3a4a6" x="431.650891" y="193.462931" style="fill: #2ca02c; stroke: #2ca02c"/>
     <use xlink:href="#m9f70f3a4a6" x="437.253879" y="201.367266" style="fill: #2ca02c; stroke: #2ca02c"/>
     <use xlink:href="#m9f70f3a4a6" x="442.857493" y="193.502852" style="fill: #2ca02c; stroke: #2ca02c"/>
     <use xlink:href="#m9f70f3a4a6" x="448.462798" y="201.367266" style="fill: #2ca02c; stroke: #2ca02c"/>
     <use xlink:href="#m9f70f3a4a6" x="454.06548" y="189.430922" style="fill: #2ca02c; stroke: #2ca02c"/>
     <use xlink:href="#m9f70f3a4a6" x="459.669334" y="197.415098" style="fill: #2ca02c; stroke: #2ca02c"/>
     <use xlink:href="#m9f70f3a4a6" x="465.273654" y="197.415098" style="fill: #2ca02c; stroke: #2ca02c"/>
     <use xlink:href="#m9f70f3a4a6" x="470.876069" y="197.335257" style="fill: #2ca02c; stroke: #2ca02c"/>
     <use xlink:href="#m9f70f3a4a6" x="476.477712" y="201.327345" style="fill: #2ca02c; stroke: #2ca02c"/>
     <use xlink:href="#m9f70f3a4a6" x="482.079902" y="197.335257" style="fill: #2ca02c; stroke: #2ca02c"/>
     <use xlink:href="#m9f70f3a4a6" x="487.689722" y="193.782298" style="fill: #2ca02c; stroke: #2ca02c"/>
     <use xlink:href="#m9f70f3a4a6" x="493.293655" y="201.407186" style="fill: #2ca02c; stroke: #2ca02c"/>
     <use xlink:href="#m9f70f3a4a6" x="498.898069" y="189.510764" style="fill: #2ca02c; stroke: #2ca02c"/>
     <use xlink:href="#m9f70f3a4a6" x="504.503627" y="201.447107" style="fill: #2ca02c; stroke: #2ca02c"/>
     <use xlink:href="#m9f70f3a4a6" x="510.108053" y="197.455019" style="fill: #2ca02c; stroke: #2ca02c"/>
     <use xlink:href="#m9f70f3a4a6" x="515.723773" y="205.998088" style="fill: #2ca02c; stroke: #2ca02c"/>
     <use xlink:href="#m9f70f3a4a6" x="521.327787" y="197.415098" style="fill: #2ca02c; stroke: #2ca02c"/>
     <use xlink:href="#m9f70f3a4a6" x="526.931947" y="185.518676" style="fill: #2ca02c; stroke: #2ca02c"/>
     <use xlink:href="#m9f70f3a4a6" x="532.536826" y="201.407186" style="fill: #2ca02c; stroke: #2ca02c"/>
     <use xlink:href="#m9f70f3a4a6" x="538.140187" y="193.343169" style="fill: #2ca02c; stroke: #2ca02c"/>
     <use xlink:href="#m9f70f3a4a6" x="543.742709" y="197.375177" style="fill: #2ca02c; stroke: #2ca02c"/>
     <use xlink:href="#m9f70f3a4a6" x="549.34599" y="197.415098" style="fill: #2ca02c; stroke: #2ca02c"/>
     <use xlink:href="#m9f70f3a4a6" x="554.950071" y="201.407186" style="fill: #2ca02c; stroke: #2ca02c"/>
     <use xlink:href="#m9f70f3a4a6" x="560.553885" y="197.415098" style="fill: #2ca02c; stroke: #2ca02c"/>
     <use xlink:href="#m9f70f3a4a6" x="566.156034" y="197.335257" style="fill: #2ca02c; stroke: #2ca02c"/>
     <use xlink:href="#m9f70f3a4a6" x="571.759954" y="189.391001" style="fill: #2ca02c; stroke: #2ca02c"/>
     <use xlink:href="#m9f70f3a4a6" x="577.361397" y="205.279512" style="fill: #2ca02c; stroke: #2ca02c"/>
     <use xlink:href="#m9f70f3a4a6" x="582.967302" y="189.590606" style="fill: #2ca02c; stroke: #2ca02c"/>
     <use xlink:href="#m9f70f3a4a6" x="588.571036" y="197.455019" style="fill: #2ca02c; stroke: #2ca02c"/>
     <use xlink:href="#m9f70f3a4a6" x="594.17505" y="205.359354" style="fill: #2ca02c; stroke: #2ca02c"/>
     <use xlink:href="#m9f70f3a4a6" x="599.783245" y="185.758201" style="fill: #2ca02c; stroke: #2ca02c"/>
     <use xlink:href="#m9f70f3a4a6" x="605.387205" y="201.407186" style="fill: #2ca02c; stroke: #2ca02c"/>
     <use xlink:href="#m9f70f3a4a6" x="610.991099" y="197.415098" style="fill: #2ca02c; stroke: #2ca02c"/>
     <use xlink:href="#m9f70f3a4a6" x="616.595326" y="197.415098" style="fill: #2ca02c; stroke: #2ca02c"/>
     <use xlink:href="#m9f70f3a4a6" x="622.197528" y="197.295336" style="fill: #2ca02c; stroke: #2ca02c"/>
     <use xlink:href="#m9f70f3a4a6" x="627.799651" y="193.343169" style="fill: #2ca02c; stroke: #2ca02c"/>
     <use xlink:href="#m9f70f3a4a6" x="633.402053" y="201.367266" style="fill: #2ca02c; stroke: #2ca02c"/>
     <use xlink:href="#m9f70f3a4a6" x="639.016055" y="193.981903" style="fill: #2ca02c; stroke: #2ca02c"/>
     <use xlink:href="#m9f70f3a4a6" x="644.62421" y="193.702456" style="fill: #2ca02c; stroke: #2ca02c"/>
     <use xlink:href="#m9f70f3a4a6" x="650.227957" y="197.335257" style="fill: #2ca02c; stroke: #2ca02c"/>
     <use xlink:href="#m9f70f3a4a6" x="655.830586" y="197.415098" style="fill: #2ca02c; stroke: #2ca02c"/>
     <use xlink:href="#m9f70f3a4a6" x="661.434679" y="197.49494" style="fill: #2ca02c; stroke: #2ca02c"/>
     <use xlink:href="#m9f70f3a4a6" x="667.040344" y="193.462931" style="fill: #2ca02c; stroke: #2ca02c"/>
     <use xlink:href="#m9f70f3a4a6" x="672.644664" y="197.375177" style="fill: #2ca02c; stroke: #2ca02c"/>
     <use xlink:href="#m9f70f3a4a6" x="678.24716" y="197.375177" style="fill: #2ca02c; stroke: #2ca02c"/>
     <use xlink:href="#m9f70f3a4a6" x="683.850334" y="197.295336" style="fill: #2ca02c; stroke: #2ca02c"/>
     <use xlink:href="#m9f70f3a4a6" x="689.451138" y="197.295336" style="fill: #2ca02c; stroke: #2ca02c"/>
     <use xlink:href="#m9f70f3a4a6" x="695.053367" y="197.335257" style="fill: #2ca02c; stroke: #2ca02c"/>
     <use xlink:href="#m9f70f3a4a6" x="700.655929" y="201.287424" style="fill: #2ca02c; stroke: #2ca02c"/>
     <use xlink:href="#m9f70f3a4a6" x="706.257879" y="201.367266" style="fill: #2ca02c; stroke: #2ca02c"/>
     <use xlink:href="#m9f70f3a4a6" x="711.861679" y="193.383089" style="fill: #2ca02c; stroke: #2ca02c"/>
     <use xlink:href="#m9f70f3a4a6" x="717.464095" y="193.42301" style="fill: #2ca02c; stroke: #2ca02c"/>
     <use xlink:href="#m9f70f3a4a6" x="723.068308" y="193.42301" style="fill: #2ca02c; stroke: #2ca02c"/>
     <use xlink:href="#m9f70f3a4a6" x="728.670617" y="201.327345" style="fill: #2ca02c; stroke: #2ca02c"/>
     <use xlink:href="#m9f70f3a4a6" x="734.274537" y="193.42301" style="fill: #2ca02c; stroke: #2ca02c"/>
     <use xlink:href="#m9f70f3a4a6" x="739.877659" y="197.415098" style="fill: #2ca02c; stroke: #2ca02c"/>
     <use xlink:href="#m9f70f3a4a6" x="745.480301" y="197.255415" style="fill: #2ca02c; stroke: #2ca02c"/>
     <use xlink:href="#m9f70f3a4a6" x="751.0794" y="201.247503" style="fill: #2ca02c; stroke: #2ca02c"/>
     <use xlink:href="#m9f70f3a4a6" x="756.683254" y="197.335257" style="fill: #2ca02c; stroke: #2ca02c"/>
     <use xlink:href="#m9f70f3a4a6" x="762.287987" y="468.038746" style="fill: #2ca02c; stroke: #2ca02c"/>
     <use xlink:href="#m9f70f3a4a6" x="767.90344" y="507.799943" style="fill: #2ca02c; stroke: #2ca02c"/>
     <use xlink:href="#m9f70f3a4a6" x="773.535328" y="507.799943" style="fill: #2ca02c; stroke: #2ca02c"/>
     <use xlink:href="#m9f70f3a4a6" x="779.152766" y="507.799943" style="fill: #2ca02c; stroke: #2ca02c"/>
     <use xlink:href="#m9f70f3a4a6" x="784.772521" y="507.799943" style="fill: #2ca02c; stroke: #2ca02c"/>
     <use xlink:href="#m9f70f3a4a6" x="790.39763" y="507.799943" style="fill: #2ca02c; stroke: #2ca02c"/>
     <use xlink:href="#m9f70f3a4a6" x="796.028598" y="507.799943" style="fill: #2ca02c; stroke: #2ca02c"/>
     <use xlink:href="#m9f70f3a4a6" x="801.657063" y="507.799943" style="fill: #2ca02c; stroke: #2ca02c"/>
     <use xlink:href="#m9f70f3a4a6" x="807.283837" y="507.799943" style="fill: #2ca02c; stroke: #2ca02c"/>
     <use xlink:href="#m9f70f3a4a6" x="812.917216" y="507.799943" style="fill: #2ca02c; stroke: #2ca02c"/>
    </g>
   </g>
   <g id="line2d_30">
    <path d="M 95.375688 503.847776 
L 106.728945 501.931574 
L 118.017038 507.799943 
L 129.298845 507.799943 
L 140.570305 505.803899 
L 151.848357 507.799943 
L 157.542505 492.150958 
L 163.212361 507.799943 
L 168.894736 507.799943 
L 174.611005 507.799943 
L 180.30125 507.799943 
L 185.984345 507.799943 
L 191.666373 507.799943 
L 197.343128 507.799943 
L 203.006952 349.952782 
L 208.641689 135.737338 
L 214.278518 135.777259 
L 219.909633 112.22394 
L 225.550656 136.296231 
L 231.190721 131.74525 
L 236.827177 80.96589 
L 242.466442 119.729065 
L 248.091897 147.15471 
L 253.718325 88.510937 
L 259.364356 120.727087 
L 265.006498 69.029547 
L 270.644631 48.74974 
L 276.277478 107.872564 
L 281.909379 45.436307 
L 287.556102 104.559131 
L 293.197792 104.678893 
L 298.839881 100.00815 
L 304.465815 112.064256 
L 310.106959 127.952767 
L 315.737608 143.322305 
L 321.366419 123.56147 
L 326.99848 127.67332 
L 332.627118 139.410059 
L 338.256528 139.290297 
L 343.884727 131.585567 
L 349.517853 120.248037 
L 355.159662 112.22394 
L 360.787887 139.609664 
L 366.429617 148.152732 
L 372.070227 155.937304 
L 377.706443 143.322305 
L 383.329222 131.226279 
L 388.96043 147.713602 
L 394.599136 131.74525 
L 400.226709 127.353953 
L 405.854095 143.242464 
L 411.481894 119.529461 
L 417.108028 151.186719 
L 422.736933 143.561831 
L 428.370685 135.897022 
L 434.00999 143.96104 
L 439.648963 124.000599 
L 445.28117 147.513998 
L 450.918132 137.254332 
L 456.57784 135.936943 
L 462.208116 143.881198 
L 467.847994 132.064617 
L 473.487926 148.152732 
L 479.131014 136.775281 
L 484.780121 116.056344 
L 490.410091 147.194631 
L 496.0346 146.915185 
L 501.702419 138.372116 
L 507.334387 147.394235 
L 512.965409 151.70569 
L 518.605367 135.657496 
L 524.232513 131.465804 
L 529.862909 127.992687 
L 535.504146 132.064617 
L 541.138111 151.825453 
L 546.778975 143.761435 
L 552.411102 143.561831 
L 558.041738 131.904934 
L 563.682615 147.59384 
L 569.309735 127.952767 
L 574.950905 131.904934 
L 580.581154 135.258288 
L 586.205797 143.242464 
L 591.834448 139.210455 
L 597.459144 143.202543 
L 603.085958 135.81718 
L 608.726515 151.665769 
L 614.375636 129.230235 
L 620.019243 131.984775 
L 625.652249 147.354314 
L 631.280315 135.857101 
L 636.91725 147.234552 
L 642.542545 123.361865 
L 648.167414 155.218728 
L 653.800008 127.353953 
L 659.424397 123.761074 
L 665.063144 143.681593 
L 670.691089 147.633761 
L 676.330368 131.865013 
L 681.962335 143.52191 
L 687.600123 144.280407 
L 693.241133 147.673681 
L 698.870996 127.912846 
L 704.50941 128.232213 
L 710.145852 135.497813 
L 715.775675 143.52191 
L 721.404899 143.761435 
L 727.044618 144.00096 
L 732.684309 131.785171 
L 738.313414 147.194631 
L 743.938882 131.346041 
L 749.566481 135.417971 
L 755.206546 140.448002 
L 760.849434 251.947021 
L 766.526775 503.887697 
L 772.224985 499.975451 
L 777.904936 507.799943 
L 783.595528 507.799943 
L 789.279168 507.799943 
L 794.974581 507.799943 
L 800.667264 507.799943 
L 806.352396 507.799943 
L 812.035104 507.799943 
" clip-path="url(#pe09e8b2be3)" style="fill: none; stroke: #1f77b4; stroke-width: 2; stroke-linecap: square"/>
    <defs>
     <path id="m6b4b709990" d="M 0 2 
C 0.530406 2 1.03916 1.789267 1.414214 1.414214 
C 1.789267 1.03916 2 0.530406 2 0 
C 2 -0.530406 1.789267 -1.03916 1.414214 -1.414214 
C 1.03916 -1.789267 0.530406 -2 0 -2 
C -0.530406 -2 -1.03916 -1.789267 -1.414214 -1.414214 
C -1.789267 -1.03916 -2 -0.530406 -2 0 
C -2 0.530406 -1.789267 1.03916 -1.414214 1.414214 
C -1.03916 1.789267 -0.530406 2 0 2 
z
" style="stroke: #1f77b4"/>
    </defs>
    <g clip-path="url(#pe09e8b2be3)">
     <use xlink:href="#m6b4b709990" x="95.375688" y="503.847776" style="fill: #1f77b4; stroke: #1f77b4"/>
     <use xlink:href="#m6b4b709990" x="106.728945" y="501.931574" style="fill: #1f77b4; stroke: #1f77b4"/>
     <use xlink:href="#m6b4b709990" x="118.017038" y="507.799943" style="fill: #1f77b4; stroke: #1f77b4"/>
     <use xlink:href="#m6b4b709990" x="129.298845" y="507.799943" style="fill: #1f77b4; stroke: #1f77b4"/>
     <use xlink:href="#m6b4b709990" x="140.570305" y="505.803899" style="fill: #1f77b4; stroke: #1f77b4"/>
     <use xlink:href="#m6b4b709990" x="151.848357" y="507.799943" style="fill: #1f77b4; stroke: #1f77b4"/>
     <use xlink:href="#m6b4b709990" x="157.542505" y="492.150958" style="fill: #1f77b4; stroke: #1f77b4"/>
     <use xlink:href="#m6b4b709990" x="163.212361" y="507.799943" style="fill: #1f77b4; stroke: #1f77b4"/>
     <use xlink:href="#m6b4b709990" x="168.894736" y="507.799943" style="fill: #1f77b4; stroke: #1f77b4"/>
     <use xlink:href="#m6b4b709990" x="174.611005" y="507.799943" style="fill: #1f77b4; stroke: #1f77b4"/>
     <use xlink:href="#m6b4b709990" x="180.30125" y="507.799943" style="fill: #1f77b4; stroke: #1f77b4"/>
     <use xlink:href="#m6b4b709990" x="185.984345" y="507.799943" style="fill: #1f77b4; stroke: #1f77b4"/>
     <use xlink:href="#m6b4b709990" x="191.666373" y="507.799943" style="fill: #1f77b4; stroke: #1f77b4"/>
     <use xlink:href="#m6b4b709990" x="197.343128" y="507.799943" style="fill: #1f77b4; stroke: #1f77b4"/>
     <use xlink:href="#m6b4b709990" x="203.006952" y="349.952782" style="fill: #1f77b4; stroke: #1f77b4"/>
     <use xlink:href="#m6b4b709990" x="208.641689" y="135.737338" style="fill: #1f77b4; stroke: #1f77b4"/>
     <use xlink:href="#m6b4b709990" x="214.278518" y="135.777259" style="fill: #1f77b4; stroke: #1f77b4"/>
     <use xlink:href="#m6b4b709990" x="219.909633" y="112.22394" style="fill: #1f77b4; stroke: #1f77b4"/>
     <use xlink:href="#m6b4b709990" x="225.550656" y="136.296231" style="fill: #1f77b4; stroke: #1f77b4"/>
     <use xlink:href="#m6b4b709990" x="231.190721" y="131.74525" style="fill: #1f77b4; stroke: #1f77b4"/>
     <use xlink:href="#m6b4b709990" x="236.827177" y="80.96589" style="fill: #1f77b4; stroke: #1f77b4"/>
     <use xlink:href="#m6b4b709990" x="242.466442" y="119.729065" style="fill: #1f77b4; stroke: #1f77b4"/>
     <use xlink:href="#m6b4b709990" x="248.091897" y="147.15471" style="fill: #1f77b4; stroke: #1f77b4"/>
     <use xlink:href="#m6b4b709990" x="253.718325" y="88.510937" style="fill: #1f77b4; stroke: #1f77b4"/>
     <use xlink:href="#m6b4b709990" x="259.364356" y="120.727087" style="fill: #1f77b4; stroke: #1f77b4"/>
     <use xlink:href="#m6b4b709990" x="265.006498" y="69.029547" style="fill: #1f77b4; stroke: #1f77b4"/>
     <use xlink:href="#m6b4b709990" x="270.644631" y="48.74974" style="fill: #1f77b4; stroke: #1f77b4"/>
     <use xlink:href="#m6b4b709990" x="276.277478" y="107.872564" style="fill: #1f77b4; stroke: #1f77b4"/>
     <use xlink:href="#m6b4b709990" x="281.909379" y="45.436307" style="fill: #1f77b4; stroke: #1f77b4"/>
     <use xlink:href="#m6b4b709990" x="287.556102" y="104.559131" style="fill: #1f77b4; stroke: #1f77b4"/>
     <use xlink:href="#m6b4b709990" x="293.197792" y="104.678893" style="fill: #1f77b4; stroke: #1f77b4"/>
     <use xlink:href="#m6b4b709990" x="298.839881" y="100.00815" style="fill: #1f77b4; stroke: #1f77b4"/>
     <use xlink:href="#m6b4b709990" x="304.465815" y="112.064256" style="fill: #1f77b4; stroke: #1f77b4"/>
     <use xlink:href="#m6b4b709990" x="310.106959" y="127.952767" style="fill: #1f77b4; stroke: #1f77b4"/>
     <use xlink:href="#m6b4b709990" x="315.737608" y="143.322305" style="fill: #1f77b4; stroke: #1f77b4"/>
     <use xlink:href="#m6b4b709990" x="321.366419" y="123.56147" style="fill: #1f77b4; stroke: #1f77b4"/>
     <use xlink:href="#m6b4b709990" x="326.99848" y="127.67332" style="fill: #1f77b4; stroke: #1f77b4"/>
     <use xlink:href="#m6b4b709990" x="332.627118" y="139.410059" style="fill: #1f77b4; stroke: #1f77b4"/>
     <use xlink:href="#m6b4b709990" x="338.256528" y="139.290297" style="fill: #1f77b4; stroke: #1f77b4"/>
     <use xlink:href="#m6b4b709990" x="343.884727" y="131.585567" style="fill: #1f77b4; stroke: #1f77b4"/>
     <use xlink:href="#m6b4b709990" x="349.517853" y="120.248037" style="fill: #1f77b4; stroke: #1f77b4"/>
     <use xlink:href="#m6b4b709990" x="355.159662" y="112.22394" style="fill: #1f77b4; stroke: #1f77b4"/>
     <use xlink:href="#m6b4b709990" x="360.787887" y="139.609664" style="fill: #1f77b4; stroke: #1f77b4"/>
     <use xlink:href="#m6b4b709990" x="366.429617" y="148.152732" style="fill: #1f77b4; stroke: #1f77b4"/>
     <use xlink:href="#m6b4b709990" x="372.070227" y="155.937304" style="fill: #1f77b4; stroke: #1f77b4"/>
     <use xlink:href="#m6b4b709990" x="377.706443" y="143.322305" style="fill: #1f77b4; stroke: #1f77b4"/>
     <use xlink:href="#m6b4b709990" x="383.329222" y="131.226279" style="fill: #1f77b4; stroke: #1f77b4"/>
     <use xlink:href="#m6b4b709990" x="388.96043" y="147.713602" style="fill: #1f77b4; stroke: #1f77b4"/>
     <use xlink:href="#m6b4b709990" x="394.599136" y="131.74525" style="fill: #1f77b4; stroke: #1f77b4"/>
     <use xlink:href="#m6b4b709990" x="400.226709" y="127.353953" style="fill: #1f77b4; stroke: #1f77b4"/>
     <use xlink:href="#m6b4b709990" x="405.854095" y="143.242464" style="fill: #1f77b4; stroke: #1f77b4"/>
     <use xlink:href="#m6b4b709990" x="411.481894" y="119.529461" style="fill: #1f77b4; stroke: #1f77b4"/>
     <use xlink:href="#m6b4b709990" x="417.108028" y="151.186719" style="fill: #1f77b4; stroke: #1f77b4"/>
     <use xlink:href="#m6b4b709990" x="422.736933" y="143.561831" style="fill: #1f77b4; stroke: #1f77b4"/>
     <use xlink:href="#m6b4b709990" x="428.370685" y="135.897022" style="fill: #1f77b4; stroke: #1f77b4"/>
     <use xlink:href="#m6b4b709990" x="434.00999" y="143.96104" style="fill: #1f77b4; stroke: #1f77b4"/>
     <use xlink:href="#m6b4b709990" x="439.648963" y="124.000599" style="fill: #1f77b4; stroke: #1f77b4"/>
     <use xlink:href="#m6b4b709990" x="445.28117" y="147.513998" style="fill: #1f77b4; stroke: #1f77b4"/>
     <use xlink:href="#m6b4b709990" x="450.918132" y="137.254332" style="fill: #1f77b4; stroke: #1f77b4"/>
     <use xlink:href="#m6b4b709990" x="456.57784" y="135.936943" style="fill: #1f77b4; stroke: #1f77b4"/>
     <use xlink:href="#m6b4b709990" x="462.208116" y="143.881198" style="fill: #1f77b4; stroke: #1f77b4"/>
     <use xlink:href="#m6b4b709990" x="467.847994" y="132.064617" style="fill: #1f77b4; stroke: #1f77b4"/>
     <use xlink:href="#m6b4b709990" x="473.487926" y="148.152732" style="fill: #1f77b4; stroke: #1f77b4"/>
     <use xlink:href="#m6b4b709990" x="479.131014" y="136.775281" style="fill: #1f77b4; stroke: #1f77b4"/>
     <use xlink:href="#m6b4b709990" x="484.780121" y="116.056344" style="fill: #1f77b4; stroke: #1f77b4"/>
     <use xlink:href="#m6b4b709990" x="490.410091" y="147.194631" style="fill: #1f77b4; stroke: #1f77b4"/>
     <use xlink:href="#m6b4b709990" x="496.0346" y="146.915185" style="fill: #1f77b4; stroke: #1f77b4"/>
     <use xlink:href="#m6b4b709990" x="501.702419" y="138.372116" style="fill: #1f77b4; stroke: #1f77b4"/>
     <use xlink:href="#m6b4b709990" x="507.334387" y="147.394235" style="fill: #1f77b4; stroke: #1f77b4"/>
     <use xlink:href="#m6b4b709990" x="512.965409" y="151.70569" style="fill: #1f77b4; stroke: #1f77b4"/>
     <use xlink:href="#m6b4b709990" x="518.605367" y="135.657496" style="fill: #1f77b4; stroke: #1f77b4"/>
     <use xlink:href="#m6b4b709990" x="524.232513" y="131.465804" style="fill: #1f77b4; stroke: #1f77b4"/>
     <use xlink:href="#m6b4b709990" x="529.862909" y="127.992687" style="fill: #1f77b4; stroke: #1f77b4"/>
     <use xlink:href="#m6b4b709990" x="535.504146" y="132.064617" style="fill: #1f77b4; stroke: #1f77b4"/>
     <use xlink:href="#m6b4b709990" x="541.138111" y="151.825453" style="fill: #1f77b4; stroke: #1f77b4"/>
     <use xlink:href="#m6b4b709990" x="546.778975" y="143.761435" style="fill: #1f77b4; stroke: #1f77b4"/>
     <use xlink:href="#m6b4b709990" x="552.411102" y="143.561831" style="fill: #1f77b4; stroke: #1f77b4"/>
     <use xlink:href="#m6b4b709990" x="558.041738" y="131.904934" style="fill: #1f77b4; stroke: #1f77b4"/>
     <use xlink:href="#m6b4b709990" x="563.682615" y="147.59384" style="fill: #1f77b4; stroke: #1f77b4"/>
     <use xlink:href="#m6b4b709990" x="569.309735" y="127.952767" style="fill: #1f77b4; stroke: #1f77b4"/>
     <use xlink:href="#m6b4b709990" x="574.950905" y="131.904934" style="fill: #1f77b4; stroke: #1f77b4"/>
     <use xlink:href="#m6b4b709990" x="580.581154" y="135.258288" style="fill: #1f77b4; stroke: #1f77b4"/>
     <use xlink:href="#m6b4b709990" x="586.205797" y="143.242464" style="fill: #1f77b4; stroke: #1f77b4"/>
     <use xlink:href="#m6b4b709990" x="591.834448" y="139.210455" style="fill: #1f77b4; stroke: #1f77b4"/>
     <use xlink:href="#m6b4b709990" x="597.459144" y="143.202543" style="fill: #1f77b4; stroke: #1f77b4"/>
     <use xlink:href="#m6b4b709990" x="603.085958" y="135.81718" style="fill: #1f77b4; stroke: #1f77b4"/>
     <use xlink:href="#m6b4b709990" x="608.726515" y="151.665769" style="fill: #1f77b4; stroke: #1f77b4"/>
     <use xlink:href="#m6b4b709990" x="614.375636" y="129.230235" style="fill: #1f77b4; stroke: #1f77b4"/>
     <use xlink:href="#m6b4b709990" x="620.019243" y="131.984775" style="fill: #1f77b4; stroke: #1f77b4"/>
     <use xlink:href="#m6b4b709990" x="625.652249" y="147.354314" style="fill: #1f77b4; stroke: #1f77b4"/>
     <use xlink:href="#m6b4b709990" x="631.280315" y="135.857101" style="fill: #1f77b4; stroke: #1f77b4"/>
     <use xlink:href="#m6b4b709990" x="636.91725" y="147.234552" style="fill: #1f77b4; stroke: #1f77b4"/>
     <use xlink:href="#m6b4b709990" x="642.542545" y="123.361865" style="fill: #1f77b4; stroke: #1f77b4"/>
     <use xlink:href="#m6b4b709990" x="648.167414" y="155.218728" style="fill: #1f77b4; stroke: #1f77b4"/>
     <use xlink:href="#m6b4b709990" x="653.800008" y="127.353953" style="fill: #1f77b4; stroke: #1f77b4"/>
     <use xlink:href="#m6b4b709990" x="659.424397" y="123.761074" style="fill: #1f77b4; stroke: #1f77b4"/>
     <use xlink:href="#m6b4b709990" x="665.063144" y="143.681593" style="fill: #1f77b4; stroke: #1f77b4"/>
     <use xlink:href="#m6b4b709990" x="670.691089" y="147.633761" style="fill: #1f77b4; stroke: #1f77b4"/>
     <use xlink:href="#m6b4b709990" x="676.330368" y="131.865013" style="fill: #1f77b4; stroke: #1f77b4"/>
     <use xlink:href="#m6b4b709990" x="681.962335" y="143.52191" style="fill: #1f77b4; stroke: #1f77b4"/>
     <use xlink:href="#m6b4b709990" x="687.600123" y="144.280407" style="fill: #1f77b4; stroke: #1f77b4"/>
     <use xlink:href="#m6b4b709990" x="693.241133" y="147.673681" style="fill: #1f77b4; stroke: #1f77b4"/>
     <use xlink:href="#m6b4b709990" x="698.870996" y="127.912846" style="fill: #1f77b4; stroke: #1f77b4"/>
     <use xlink:href="#m6b4b709990" x="704.50941" y="128.232213" style="fill: #1f77b4; stroke: #1f77b4"/>
     <use xlink:href="#m6b4b709990" x="710.145852" y="135.497813" style="fill: #1f77b4; stroke: #1f77b4"/>
     <use xlink:href="#m6b4b709990" x="715.775675" y="143.52191" style="fill: #1f77b4; stroke: #1f77b4"/>
     <use xlink:href="#m6b4b709990" x="721.404899" y="143.761435" style="fill: #1f77b4; stroke: #1f77b4"/>
     <use xlink:href="#m6b4b709990" x="727.044618" y="144.00096" style="fill: #1f77b4; stroke: #1f77b4"/>
     <use xlink:href="#m6b4b709990" x="732.684309" y="131.785171" style="fill: #1f77b4; stroke: #1f77b4"/>
     <use xlink:href="#m6b4b709990" x="738.313414" y="147.194631" style="fill: #1f77b4; stroke: #1f77b4"/>
     <use xlink:href="#m6b4b709990" x="743.938882" y="131.346041" style="fill: #1f77b4; stroke: #1f77b4"/>
     <use xlink:href="#m6b4b709990" x="749.566481" y="135.417971" style="fill: #1f77b4; stroke: #1f77b4"/>
     <use xlink:href="#m6b4b709990" x="755.206546" y="140.448002" style="fill: #1f77b4; stroke: #1f77b4"/>
     <use xlink:href="#m6b4b709990" x="760.849434" y="251.947021" style="fill: #1f77b4; stroke: #1f77b4"/>
     <use xlink:href="#m6b4b709990" x="766.526775" y="503.887697" style="fill: #1f77b4; stroke: #1f77b4"/>
     <use xlink:href="#m6b4b709990" x="772.224985" y="499.975451" style="fill: #1f77b4; stroke: #1f77b4"/>
     <use xlink:href="#m6b4b709990" x="777.904936" y="507.799943" style="fill: #1f77b4; stroke: #1f77b4"/>
     <use xlink:href="#m6b4b709990" x="783.595528" y="507.799943" style="fill: #1f77b4; stroke: #1f77b4"/>
     <use xlink:href="#m6b4b709990" x="789.279168" y="507.799943" style="fill: #1f77b4; stroke: #1f77b4"/>
     <use xlink:href="#m6b4b709990" x="794.974581" y="507.799943" style="fill: #1f77b4; stroke: #1f77b4"/>
     <use xlink:href="#m6b4b709990" x="800.667264" y="507.799943" style="fill: #1f77b4; stroke: #1f77b4"/>
     <use xlink:href="#m6b4b709990" x="806.352396" y="507.799943" style="fill: #1f77b4; stroke: #1f77b4"/>
     <use xlink:href="#m6b4b709990" x="812.035104" y="507.799943" style="fill: #1f77b4; stroke: #1f77b4"/>
    </g>
   </g>
   <g id="line2d_31">
    <path d="M 92.668064 507.799943 
L 104.020242 507.799943 
L 115.344719 507.799943 
L 126.639591 507.799943 
L 137.97668 507.799943 
L 149.284044 507.799943 
L 154.998315 507.799943 
L 160.70923 507.799943 
L 166.398038 507.799943 
L 172.096714 507.799943 
L 177.802142 507.799943 
L 183.480322 507.799943 
L 189.149379 507.799943 
L 194.847629 507.799943 
L 200.54721 436.940381 
L 206.191696 184.041603 
L 211.833972 199.371221 
L 217.472678 191.666492 
L 223.119535 195.898105 
L 228.765259 187.95385 
L 234.411024 195.898105 
L 240.056416 183.642395 
L 245.693937 191.506808 
L 251.334854 183.722236 
L 256.989275 199.930114 
L 262.645614 259.651751 
L 268.309051 377.697794 
L 273.94211 242.924902 
L 279.588421 188.073612 
L 285.243229 196.057788 
L 290.888993 187.674404 
L 296.528126 183.522632 
L 302.163689 191.426966 
L 307.810279 187.993771 
L 313.455538 199.690589 
L 319.117084 220.249842 
L 324.779948 350.152387 
L 330.415592 238.693289 
L 336.047825 183.362948 
L 341.688103 195.419054 
L 347.339301 188.153454 
L 352.994801 196.337235 
L 358.635625 191.466887 
L 364.267326 191.027758 
L 369.904754 183.522632 
L 375.563517 346.359903 
L 381.225769 377.617952 
L 386.950667 219.73087 
L 392.596885 180.089436 
L 398.235178 195.259371 
L 403.872939 195.019846 
L 409.507437 183.682316 
L 415.146303 203.323389 
L 420.786967 187.674404 
L 426.432505 191.786254 
L 432.078256 333.904588 
L 437.724061 373.42626 
L 443.368946 184.001683 
L 449.012847 195.578738 
L 454.649475 199.171617 
L 460.290659 191.826175 
L 465.935131 191.906017 
L 471.578166 195.458975 
L 477.22148 191.626571 
L 482.86594 203.682677 
L 488.513009 341.808923 
L 494.156164 345.76109 
L 499.796681 191.426966 
L 505.438131 191.626571 
L 511.082697 187.95385 
L 516.728688 195.419054 
L 522.363306 191.506808 
L 528.004715 191.426966 
L 533.64799 187.554641 
L 539.28306 191.307204 
L 545.062681 368.835359 
L 550.695528 329.872579 
L 556.339068 195.578738 
L 561.979985 195.179529 
L 567.615082 179.570465 
L 573.259355 199.730509 
L 578.903935 183.522632 
L 584.539059 199.211538 
L 590.174995 187.355037 
L 595.813102 203.123784 
L 601.445042 341.529476 
L 607.169182 324.92239 
L 612.833844 192.904039 
L 618.479143 187.95385 
L 624.133857 188.512742 
L 629.780927 199.610747 
L 635.435668 196.257393 
L 641.081552 180.089436 
L 646.725639 203.483072 
L 652.37103 175.578377 
L 658.002851 341.489556 
L 663.637909 290.390829 
L 669.277574 191.506808 
L 674.928878 184.281129 
L 680.569449 199.530905 
L 686.213576 187.834087 
L 691.864002 183.802078 
L 697.496462 183.762157 
L 703.145822 195.698501 
L 708.807981 235.779064 
L 714.457874 361.729442 
L 720.10529 271.069123 
L 725.749044 195.458975 
L 731.380678 187.275195 
L 737.02061 179.33094 
L 742.650167 198.972013 
L 748.289752 195.339213 
L 753.925861 195.538817 
L 759.578258 276.897571 
L 765.318339 507.799943 
L 771.050815 507.799943 
L 776.758414 507.799943 
L 782.452802 507.799943 
L 788.147868 507.799943 
L 793.857252 507.799943 
L 799.558325 507.799943 
L 805.272862 507.799943 
L 810.967489 507.799943 
" clip-path="url(#pe09e8b2be3)" style="fill: none; stroke: #ff7f0e; stroke-width: 2; stroke-linecap: square"/>
    <defs>
     <path id="m62e510b22b" d="M 0 2 
C 0.530406 2 1.03916 1.789267 1.414214 1.414214 
C 1.789267 1.03916 2 0.530406 2 0 
C 2 -0.530406 1.789267 -1.03916 1.414214 -1.414214 
C 1.03916 -1.789267 0.530406 -2 0 -2 
C -0.530406 -2 -1.03916 -1.789267 -1.414214 -1.414214 
C -1.789267 -1.03916 -2 -0.530406 -2 0 
C -2 0.530406 -1.789267 1.03916 -1.414214 1.414214 
C -1.03916 1.789267 -0.530406 2 0 2 
z
" style="stroke: #ff7f0e"/>
    </defs>
    <g clip-path="url(#pe09e8b2be3)">
     <use xlink:href="#m62e510b22b" x="92.668064" y="507.799943" style="fill: #ff7f0e; stroke: #ff7f0e"/>
     <use xlink:href="#m62e510b22b" x="104.020242" y="507.799943" style="fill: #ff7f0e; stroke: #ff7f0e"/>
     <use xlink:href="#m62e510b22b" x="115.344719" y="507.799943" style="fill: #ff7f0e; stroke: #ff7f0e"/>
     <use xlink:href="#m62e510b22b" x="126.639591" y="507.799943" style="fill: #ff7f0e; stroke: #ff7f0e"/>
     <use xlink:href="#m62e510b22b" x="137.97668" y="507.799943" style="fill: #ff7f0e; stroke: #ff7f0e"/>
     <use xlink:href="#m62e510b22b" x="149.284044" y="507.799943" style="fill: #ff7f0e; stroke: #ff7f0e"/>
     <use xlink:href="#m62e510b22b" x="154.998315" y="507.799943" style="fill: #ff7f0e; stroke: #ff7f0e"/>
     <use xlink:href="#m62e510b22b" x="160.70923" y="507.799943" style="fill: #ff7f0e; stroke: #ff7f0e"/>
     <use xlink:href="#m62e510b22b" x="166.398038" y="507.799943" style="fill: #ff7f0e; stroke: #ff7f0e"/>
     <use xlink:href="#m62e510b22b" x="172.096714" y="507.799943" style="fill: #ff7f0e; stroke: #ff7f0e"/>
     <use xlink:href="#m62e510b22b" x="177.802142" y="507.799943" style="fill: #ff7f0e; stroke: #ff7f0e"/>
     <use xlink:href="#m62e510b22b" x="183.480322" y="507.799943" style="fill: #ff7f0e; stroke: #ff7f0e"/>
     <use xlink:href="#m62e510b22b" x="189.149379" y="507.799943" style="fill: #ff7f0e; stroke: #ff7f0e"/>
     <use xlink:href="#m62e510b22b" x="194.847629" y="507.799943" style="fill: #ff7f0e; stroke: #ff7f0e"/>
     <use xlink:href="#m62e510b22b" x="200.54721" y="436.940381" style="fill: #ff7f0e; stroke: #ff7f0e"/>
     <use xlink:href="#m62e510b22b" x="206.191696" y="184.041603" style="fill: #ff7f0e; stroke: #ff7f0e"/>
     <use xlink:href="#m62e510b22b" x="211.833972" y="199.371221" style="fill: #ff7f0e; stroke: #ff7f0e"/>
     <use xlink:href="#m62e510b22b" x="217.472678" y="191.666492" style="fill: #ff7f0e; stroke: #ff7f0e"/>
     <use xlink:href="#m62e510b22b" x="223.119535" y="195.898105" style="fill: #ff7f0e; stroke: #ff7f0e"/>
     <use xlink:href="#m62e510b22b" x="228.765259" y="187.95385" style="fill: #ff7f0e; stroke: #ff7f0e"/>
     <use xlink:href="#m62e510b22b" x="234.411024" y="195.898105" style="fill: #ff7f0e; stroke: #ff7f0e"/>
     <use xlink:href="#m62e510b22b" x="240.056416" y="183.642395" style="fill: #ff7f0e; stroke: #ff7f0e"/>
     <use xlink:href="#m62e510b22b" x="245.693937" y="191.506808" style="fill: #ff7f0e; stroke: #ff7f0e"/>
     <use xlink:href="#m62e510b22b" x="251.334854" y="183.722236" style="fill: #ff7f0e; stroke: #ff7f0e"/>
     <use xlink:href="#m62e510b22b" x="256.989275" y="199.930114" style="fill: #ff7f0e; stroke: #ff7f0e"/>
     <use xlink:href="#m62e510b22b" x="262.645614" y="259.651751" style="fill: #ff7f0e; stroke: #ff7f0e"/>
     <use xlink:href="#m62e510b22b" x="268.309051" y="377.697794" style="fill: #ff7f0e; stroke: #ff7f0e"/>
     <use xlink:href="#m62e510b22b" x="273.94211" y="242.924902" style="fill: #ff7f0e; stroke: #ff7f0e"/>
     <use xlink:href="#m62e510b22b" x="279.588421" y="188.073612" style="fill: #ff7f0e; stroke: #ff7f0e"/>
     <use xlink:href="#m62e510b22b" x="285.243229" y="196.057788" style="fill: #ff7f0e; stroke: #ff7f0e"/>
     <use xlink:href="#m62e510b22b" x="290.888993" y="187.674404" style="fill: #ff7f0e; stroke: #ff7f0e"/>
     <use xlink:href="#m62e510b22b" x="296.528126" y="183.522632" style="fill: #ff7f0e; stroke: #ff7f0e"/>
     <use xlink:href="#m62e510b22b" x="302.163689" y="191.426966" style="fill: #ff7f0e; stroke: #ff7f0e"/>
     <use xlink:href="#m62e510b22b" x="307.810279" y="187.993771" style="fill: #ff7f0e; stroke: #ff7f0e"/>
     <use xlink:href="#m62e510b22b" x="313.455538" y="199.690589" style="fill: #ff7f0e; stroke: #ff7f0e"/>
     <use xlink:href="#m62e510b22b" x="319.117084" y="220.249842" style="fill: #ff7f0e; stroke: #ff7f0e"/>
     <use xlink:href="#m62e510b22b" x="324.779948" y="350.152387" style="fill: #ff7f0e; stroke: #ff7f0e"/>
     <use xlink:href="#m62e510b22b" x="330.415592" y="238.693289" style="fill: #ff7f0e; stroke: #ff7f0e"/>
     <use xlink:href="#m62e510b22b" x="336.047825" y="183.362948" style="fill: #ff7f0e; stroke: #ff7f0e"/>
     <use xlink:href="#m62e510b22b" x="341.688103" y="195.419054" style="fill: #ff7f0e; stroke: #ff7f0e"/>
     <use xlink:href="#m62e510b22b" x="347.339301" y="188.153454" style="fill: #ff7f0e; stroke: #ff7f0e"/>
     <use xlink:href="#m62e510b22b" x="352.994801" y="196.337235" style="fill: #ff7f0e; stroke: #ff7f0e"/>
     <use xlink:href="#m62e510b22b" x="358.635625" y="191.466887" style="fill: #ff7f0e; stroke: #ff7f0e"/>
     <use xlink:href="#m62e510b22b" x="364.267326" y="191.027758" style="fill: #ff7f0e; stroke: #ff7f0e"/>
     <use xlink:href="#m62e510b22b" x="369.904754" y="183.522632" style="fill: #ff7f0e; stroke: #ff7f0e"/>
     <use xlink:href="#m62e510b22b" x="375.563517" y="346.359903" style="fill: #ff7f0e; stroke: #ff7f0e"/>
     <use xlink:href="#m62e510b22b" x="381.225769" y="377.617952" style="fill: #ff7f0e; stroke: #ff7f0e"/>
     <use xlink:href="#m62e510b22b" x="386.950667" y="219.73087" style="fill: #ff7f0e; stroke: #ff7f0e"/>
     <use xlink:href="#m62e510b22b" x="392.596885" y="180.089436" style="fill: #ff7f0e; stroke: #ff7f0e"/>
     <use xlink:href="#m62e510b22b" x="398.235178" y="195.259371" style="fill: #ff7f0e; stroke: #ff7f0e"/>
     <use xlink:href="#m62e510b22b" x="403.872939" y="195.019846" style="fill: #ff7f0e; stroke: #ff7f0e"/>
     <use xlink:href="#m62e510b22b" x="409.507437" y="183.682316" style="fill: #ff7f0e; stroke: #ff7f0e"/>
     <use xlink:href="#m62e510b22b" x="415.146303" y="203.323389" style="fill: #ff7f0e; stroke: #ff7f0e"/>
     <use xlink:href="#m62e510b22b" x="420.786967" y="187.674404" style="fill: #ff7f0e; stroke: #ff7f0e"/>
     <use xlink:href="#m62e510b22b" x="426.432505" y="191.786254" style="fill: #ff7f0e; stroke: #ff7f0e"/>
     <use xlink:href="#m62e510b22b" x="432.078256" y="333.904588" style="fill: #ff7f0e; stroke: #ff7f0e"/>
     <use xlink:href="#m62e510b22b" x="437.724061" y="373.42626" style="fill: #ff7f0e; stroke: #ff7f0e"/>
     <use xlink:href="#m62e510b22b" x="443.368946" y="184.001683" style="fill: #ff7f0e; stroke: #ff7f0e"/>
     <use xlink:href="#m62e510b22b" x="449.012847" y="195.578738" style="fill: #ff7f0e; stroke: #ff7f0e"/>
     <use xlink:href="#m62e510b22b" x="454.649475" y="199.171617" style="fill: #ff7f0e; stroke: #ff7f0e"/>
     <use xlink:href="#m62e510b22b" x="460.290659" y="191.826175" style="fill: #ff7f0e; stroke: #ff7f0e"/>
     <use xlink:href="#m62e510b22b" x="465.935131" y="191.906017" style="fill: #ff7f0e; stroke: #ff7f0e"/>
     <use xlink:href="#m62e510b22b" x="471.578166" y="195.458975" style="fill: #ff7f0e; stroke: #ff7f0e"/>
     <use xlink:href="#m62e510b22b" x="477.22148" y="191.626571" style="fill: #ff7f0e; stroke: #ff7f0e"/>
     <use xlink:href="#m62e510b22b" x="482.86594" y="203.682677" style="fill: #ff7f0e; stroke: #ff7f0e"/>
     <use xlink:href="#m62e510b22b" x="488.513009" y="341.808923" style="fill: #ff7f0e; stroke: #ff7f0e"/>
     <use xlink:href="#m62e510b22b" x="494.156164" y="345.76109" style="fill: #ff7f0e; stroke: #ff7f0e"/>
     <use xlink:href="#m62e510b22b" x="499.796681" y="191.426966" style="fill: #ff7f0e; stroke: #ff7f0e"/>
     <use xlink:href="#m62e510b22b" x="505.438131" y="191.626571" style="fill: #ff7f0e; stroke: #ff7f0e"/>
     <use xlink:href="#m62e510b22b" x="511.082697" y="187.95385" style="fill: #ff7f0e; stroke: #ff7f0e"/>
     <use xlink:href="#m62e510b22b" x="516.728688" y="195.419054" style="fill: #ff7f0e; stroke: #ff7f0e"/>
     <use xlink:href="#m62e510b22b" x="522.363306" y="191.506808" style="fill: #ff7f0e; stroke: #ff7f0e"/>
     <use xlink:href="#m62e510b22b" x="528.004715" y="191.426966" style="fill: #ff7f0e; stroke: #ff7f0e"/>
     <use xlink:href="#m62e510b22b" x="533.64799" y="187.554641" style="fill: #ff7f0e; stroke: #ff7f0e"/>
     <use xlink:href="#m62e510b22b" x="539.28306" y="191.307204" style="fill: #ff7f0e; stroke: #ff7f0e"/>
     <use xlink:href="#m62e510b22b" x="545.062681" y="368.835359" style="fill: #ff7f0e; stroke: #ff7f0e"/>
     <use xlink:href="#m62e510b22b" x="550.695528" y="329.872579" style="fill: #ff7f0e; stroke: #ff7f0e"/>
     <use xlink:href="#m62e510b22b" x="556.339068" y="195.578738" style="fill: #ff7f0e; stroke: #ff7f0e"/>
     <use xlink:href="#m62e510b22b" x="561.979985" y="195.179529" style="fill: #ff7f0e; stroke: #ff7f0e"/>
     <use xlink:href="#m62e510b22b" x="567.615082" y="179.570465" style="fill: #ff7f0e; stroke: #ff7f0e"/>
     <use xlink:href="#m62e510b22b" x="573.259355" y="199.730509" style="fill: #ff7f0e; stroke: #ff7f0e"/>
     <use xlink:href="#m62e510b22b" x="578.903935" y="183.522632" style="fill: #ff7f0e; stroke: #ff7f0e"/>
     <use xlink:href="#m62e510b22b" x="584.539059" y="199.211538" style="fill: #ff7f0e; stroke: #ff7f0e"/>
     <use xlink:href="#m62e510b22b" x="590.174995" y="187.355037" style="fill: #ff7f0e; stroke: #ff7f0e"/>
     <use xlink:href="#m62e510b22b" x="595.813102" y="203.123784" style="fill: #ff7f0e; stroke: #ff7f0e"/>
     <use xlink:href="#m62e510b22b" x="601.445042" y="341.529476" style="fill: #ff7f0e; stroke: #ff7f0e"/>
     <use xlink:href="#m62e510b22b" x="607.169182" y="324.92239" style="fill: #ff7f0e; stroke: #ff7f0e"/>
     <use xlink:href="#m62e510b22b" x="612.833844" y="192.904039" style="fill: #ff7f0e; stroke: #ff7f0e"/>
     <use xlink:href="#m62e510b22b" x="618.479143" y="187.95385" style="fill: #ff7f0e; stroke: #ff7f0e"/>
     <use xlink:href="#m62e510b22b" x="624.133857" y="188.512742" style="fill: #ff7f0e; stroke: #ff7f0e"/>
     <use xlink:href="#m62e510b22b" x="629.780927" y="199.610747" style="fill: #ff7f0e; stroke: #ff7f0e"/>
     <use xlink:href="#m62e510b22b" x="635.435668" y="196.257393" style="fill: #ff7f0e; stroke: #ff7f0e"/>
     <use xlink:href="#m62e510b22b" x="641.081552" y="180.089436" style="fill: #ff7f0e; stroke: #ff7f0e"/>
     <use xlink:href="#m62e510b22b" x="646.725639" y="203.483072" style="fill: #ff7f0e; stroke: #ff7f0e"/>
     <use xlink:href="#m62e510b22b" x="652.37103" y="175.578377" style="fill: #ff7f0e; stroke: #ff7f0e"/>
     <use xlink:href="#m62e510b22b" x="658.002851" y="341.489556" style="fill: #ff7f0e; stroke: #ff7f0e"/>
     <use xlink:href="#m62e510b22b" x="663.637909" y="290.390829" style="fill: #ff7f0e; stroke: #ff7f0e"/>
     <use xlink:href="#m62e510b22b" x="669.277574" y="191.506808" style="fill: #ff7f0e; stroke: #ff7f0e"/>
     <use xlink:href="#m62e510b22b" x="674.928878" y="184.281129" style="fill: #ff7f0e; stroke: #ff7f0e"/>
     <use xlink:href="#m62e510b22b" x="680.569449" y="199.530905" style="fill: #ff7f0e; stroke: #ff7f0e"/>
     <use xlink:href="#m62e510b22b" x="686.213576" y="187.834087" style="fill: #ff7f0e; stroke: #ff7f0e"/>
     <use xlink:href="#m62e510b22b" x="691.864002" y="183.802078" style="fill: #ff7f0e; stroke: #ff7f0e"/>
     <use xlink:href="#m62e510b22b" x="697.496462" y="183.762157" style="fill: #ff7f0e; stroke: #ff7f0e"/>
     <use xlink:href="#m62e510b22b" x="703.145822" y="195.698501" style="fill: #ff7f0e; stroke: #ff7f0e"/>
     <use xlink:href="#m62e510b22b" x="708.807981" y="235.779064" style="fill: #ff7f0e; stroke: #ff7f0e"/>
     <use xlink:href="#m62e510b22b" x="714.457874" y="361.729442" style="fill: #ff7f0e; stroke: #ff7f0e"/>
     <use xlink:href="#m62e510b22b" x="720.10529" y="271.069123" style="fill: #ff7f0e; stroke: #ff7f0e"/>
     <use xlink:href="#m62e510b22b" x="725.749044" y="195.458975" style="fill: #ff7f0e; stroke: #ff7f0e"/>
     <use xlink:href="#m62e510b22b" x="731.380678" y="187.275195" style="fill: #ff7f0e; stroke: #ff7f0e"/>
     <use xlink:href="#m62e510b22b" x="737.02061" y="179.33094" style="fill: #ff7f0e; stroke: #ff7f0e"/>
     <use xlink:href="#m62e510b22b" x="742.650167" y="198.972013" style="fill: #ff7f0e; stroke: #ff7f0e"/>
     <use xlink:href="#m62e510b22b" x="748.289752" y="195.339213" style="fill: #ff7f0e; stroke: #ff7f0e"/>
     <use xlink:href="#m62e510b22b" x="753.925861" y="195.538817" style="fill: #ff7f0e; stroke: #ff7f0e"/>
     <use xlink:href="#m62e510b22b" x="759.578258" y="276.897571" style="fill: #ff7f0e; stroke: #ff7f0e"/>
     <use xlink:href="#m62e510b22b" x="765.318339" y="507.799943" style="fill: #ff7f0e; stroke: #ff7f0e"/>
     <use xlink:href="#m62e510b22b" x="771.050815" y="507.799943" style="fill: #ff7f0e; stroke: #ff7f0e"/>
     <use xlink:href="#m62e510b22b" x="776.758414" y="507.799943" style="fill: #ff7f0e; stroke: #ff7f0e"/>
     <use xlink:href="#m62e510b22b" x="782.452802" y="507.799943" style="fill: #ff7f0e; stroke: #ff7f0e"/>
     <use xlink:href="#m62e510b22b" x="788.147868" y="507.799943" style="fill: #ff7f0e; stroke: #ff7f0e"/>
     <use xlink:href="#m62e510b22b" x="793.857252" y="507.799943" style="fill: #ff7f0e; stroke: #ff7f0e"/>
     <use xlink:href="#m62e510b22b" x="799.558325" y="507.799943" style="fill: #ff7f0e; stroke: #ff7f0e"/>
     <use xlink:href="#m62e510b22b" x="805.272862" y="507.799943" style="fill: #ff7f0e; stroke: #ff7f0e"/>
     <use xlink:href="#m62e510b22b" x="810.967489" y="507.799943" style="fill: #ff7f0e; stroke: #ff7f0e"/>
    </g>
   </g>
   <g id="patch_3">
    <path d="M 53.328125 530.918125 
L 53.328125 22.318125 
" style="fill: none; stroke: #000000; stroke-width: 0.8; stroke-linejoin: miter; stroke-linecap: square"/>
   </g>
   <g id="patch_4">
    <path d="M 849.088125 530.918125 
L 849.088125 22.318125 
" style="fill: none; stroke: #000000; stroke-width: 0.8; stroke-linejoin: miter; stroke-linecap: square"/>
   </g>
   <g id="patch_5">
    <path d="M 53.328125 530.918125 
L 849.088125 530.918125 
" style="fill: none; stroke: #000000; stroke-width: 0.8; stroke-linejoin: miter; stroke-linecap: square"/>
   </g>
   <g id="patch_6">
    <path d="M 53.328125 22.318125 
L 849.088125 22.318125 
" style="fill: none; stroke: #000000; stroke-width: 0.8; stroke-linejoin: miter; stroke-linecap: square"/>
   </g>
   <g id="text_17">
    <!-- CPU Usage Comparison Over Time -->
    <g transform="translate(347.65 16.318125) scale(0.12 -0.12)">
     <defs>
      <path id="DejaVuSans-72" d="M 2631 2963 
Q 2534 3019 2420 3045 
Q 2306 3072 2169 3072 
Q 1681 3072 1420 2755 
Q 1159 2438 1159 1844 
L 1159 0 
L 581 0 
L 581 3500 
L 1159 3500 
L 1159 2956 
Q 1341 3275 1631 3429 
Q 1922 3584 2338 3584 
Q 2397 3584 2469 3576 
Q 2541 3569 2628 3553 
L 2631 2963 
z
" transform="scale(0.015625)"/>
      <path id="DejaVuSans-4f" d="M 2522 4238 
Q 1834 4238 1429 3725 
Q 1025 3213 1025 2328 
Q 1025 1447 1429 934 
Q 1834 422 2522 422 
Q 3209 422 3611 934 
Q 4013 1447 4013 2328 
Q 4013 3213 3611 3725 
Q 3209 4238 2522 4238 
z
M 2522 4750 
Q 3503 4750 4090 4092 
Q 4678 3434 4678 2328 
Q 4678 1225 4090 567 
Q 3503 -91 2522 -91 
Q 1538 -91 948 565 
Q 359 1222 359 2328 
Q 359 3434 948 4092 
Q 1538 4750 2522 4750 
z
" transform="scale(0.015625)"/>
      <path id="DejaVuSans-76" d="M 191 3500 
L 800 3500 
L 1894 563 
L 2988 3500 
L 3597 3500 
L 2284 0 
L 1503 0 
L 191 3500 
z
" transform="scale(0.015625)"/>
     </defs>
     <use xlink:href="#DejaVuSans-43"/>
     <use xlink:href="#DejaVuSans-50" x="69.824219"/>
     <use xlink:href="#DejaVuSans-55" x="130.126953"/>
     <use xlink:href="#DejaVuSans-20" x="203.320312"/>
     <use xlink:href="#DejaVuSans-55" x="235.107422"/>
     <use xlink:href="#DejaVuSans-73" x="308.300781"/>
     <use xlink:href="#DejaVuSans-61" x="360.400391"/>
     <use xlink:href="#DejaVuSans-67" x="421.679688"/>
     <use xlink:href="#DejaVuSans-65" x="485.15625"/>
     <use xlink:href="#DejaVuSans-20" x="546.679688"/>
     <use xlink:href="#DejaVuSans-43" x="578.466797"/>
     <use xlink:href="#DejaVuSans-6f" x="648.291016"/>
     <use xlink:href="#DejaVuSans-6d" x="709.472656"/>
     <use xlink:href="#DejaVuSans-70" x="806.884766"/>
     <use xlink:href="#DejaVuSans-61" x="870.361328"/>
     <use xlink:href="#DejaVuSans-72" x="931.640625"/>
     <use xlink:href="#DejaVuSans-69" x="972.753906"/>
     <use xlink:href="#DejaVuSans-73" x="1000.537109"/>
     <use xlink:href="#DejaVuSans-6f" x="1052.636719"/>
     <use xlink:href="#DejaVuSans-6e" x="1113.818359"/>
     <use xlink:href="#DejaVuSans-20" x="1177.197266"/>
     <use xlink:href="#DejaVuSans-4f" x="1208.984375"/>
     <use xlink:href="#DejaVuSans-76" x="1287.695312"/>
     <use xlink:href="#DejaVuSans-65" x="1346.875"/>
     <use xlink:href="#DejaVuSans-72" x="1408.398438"/>
     <use xlink:href="#DejaVuSans-20" x="1449.511719"/>
     <use xlink:href="#DejaVuSans-54" x="1481.298828"/>
     <use xlink:href="#DejaVuSans-69" x="1539.257812"/>
     <use xlink:href="#DejaVuSans-6d" x="1567.041016"/>
     <use xlink:href="#DejaVuSans-65" x="1664.453125"/>
    </g>
   </g>
   <g id="legend_1">
    <g id="patch_7">
     <path d="M 773.445938 74.3525 
L 842.088125 74.3525 
Q 844.088125 74.3525 844.088125 72.3525 
L 844.088125 29.318125 
Q 844.088125 27.318125 842.088125 27.318125 
L 773.445938 27.318125 
Q 771.445938 27.318125 771.445938 29.318125 
L 771.445938 72.3525 
Q 771.445938 74.3525 773.445938 74.3525 
z
" style="fill: #ffffff; opacity: 0.8; stroke: #cccccc; stroke-linejoin: miter"/>
    </g>
    <g id="line2d_32">
     <path d="M 775.445938 35.416562 
L 785.445938 35.416562 
L 795.445938 35.416562 
" style="fill: none; stroke: #2ca02c; stroke-width: 2; stroke-linecap: square"/>
     <g>
      <use xlink:href="#m9f70f3a4a6" x="785.445938" y="35.416562" style="fill: #2ca02c; stroke: #2ca02c"/>
     </g>
    </g>
    <g id="text_18">
     <!-- weaver -->
     <g transform="translate(803.445938 38.916562) scale(0.1 -0.1)">
      <defs>
       <path id="DejaVuSans-77" d="M 269 3500 
L 844 3500 
L 1563 769 
L 2278 3500 
L 2956 3500 
L 3675 769 
L 4391 3500 
L 4966 3500 
L 4050 0 
L 3372 0 
L 2619 2869 
L 1863 0 
L 1184 0 
L 269 3500 
z
" transform="scale(0.015625)"/>
      </defs>
      <use xlink:href="#DejaVuSans-77"/>
      <use xlink:href="#DejaVuSans-65" x="81.787109"/>
      <use xlink:href="#DejaVuSans-61" x="143.310547"/>
      <use xlink:href="#DejaVuSans-76" x="204.589844"/>
      <use xlink:href="#DejaVuSans-65" x="263.769531"/>
      <use xlink:href="#DejaVuSans-72" x="325.292969"/>
     </g>
    </g>
    <g id="line2d_33">
     <path d="M 775.445938 50.094687 
L 785.445938 50.094687 
L 795.445938 50.094687 
" style="fill: none; stroke: #1f77b4; stroke-width: 2; stroke-linecap: square"/>
     <g>
      <use xlink:href="#m6b4b709990" x="785.445938" y="50.094687" style="fill: #1f77b4; stroke: #1f77b4"/>
     </g>
    </g>
    <g id="text_19">
     <!-- node -->
     <g transform="translate(803.445938 53.594687) scale(0.1 -0.1)">
      <use xlink:href="#DejaVuSans-6e"/>
      <use xlink:href="#DejaVuSans-6f" x="63.378906"/>
      <use xlink:href="#DejaVuSans-64" x="124.560547"/>
      <use xlink:href="#DejaVuSans-65" x="188.037109"/>
     </g>
    </g>
    <g id="line2d_34">
     <path d="M 775.445938 64.772812 
L 785.445938 64.772812 
L 795.445938 64.772812 
" style="fill: none; stroke: #ff7f0e; stroke-width: 2; stroke-linecap: square"/>
     <g>
      <use xlink:href="#m62e510b22b" x="785.445938" y="64.772812" style="fill: #ff7f0e; stroke: #ff7f0e"/>
     </g>
    </g>
    <g id="text_20">
     <!-- python -->
     <g transform="translate(803.445938 68.272812) scale(0.1 -0.1)">
      <defs>
       <path id="DejaVuSans-79" d="M 2059 -325 
Q 1816 -950 1584 -1140 
Q 1353 -1331 966 -1331 
L 506 -1331 
L 506 -850 
L 844 -850 
Q 1081 -850 1212 -737 
Q 1344 -625 1503 -206 
L 1606 56 
L 191 3500 
L 800 3500 
L 1894 763 
L 2988 3500 
L 3597 3500 
L 2059 -325 
z
" transform="scale(0.015625)"/>
       <path id="DejaVuSans-74" d="M 1172 4494 
L 1172 3500 
L 2356 3500 
L 2356 3053 
L 1172 3053 
L 1172 1153 
Q 1172 725 1289 603 
Q 1406 481 1766 481 
L 2356 481 
L 2356 0 
L 1766 0 
Q 1100 0 847 248 
Q 594 497 594 1153 
L 594 3053 
L 172 3053 
L 172 3500 
L 594 3500 
L 594 4494 
L 1172 4494 
z
" transform="scale(0.015625)"/>
       <path id="DejaVuSans-68" d="M 3513 2113 
L 3513 0 
L 2938 0 
L 2938 2094 
Q 2938 2591 2744 2837 
Q 2550 3084 2163 3084 
Q 1697 3084 1428 2787 
Q 1159 2491 1159 1978 
L 1159 0 
L 581 0 
L 581 4863 
L 1159 4863 
L 1159 2956 
Q 1366 3272 1645 3428 
Q 1925 3584 2291 3584 
Q 2894 3584 3203 3211 
Q 3513 2838 3513 2113 
z
" transform="scale(0.015625)"/>
      </defs>
      <use xlink:href="#DejaVuSans-70"/>
      <use xlink:href="#DejaVuSans-79" x="63.476562"/>
      <use xlink:href="#DejaVuSans-74" x="122.65625"/>
      <use xlink:href="#DejaVuSans-68" x="161.865234"/>
      <use xlink:href="#DejaVuSans-6f" x="225.244141"/>
      <use xlink:href="#DejaVuSans-6e" x="286.425781"/>
     </g>
    </g>
   </g>
  </g>
 </g>
 <defs>
  <clipPath id="pe09e8b2be3">
   <rect x="53.328125" y="22.318125" width="795.76" height="508.6"/>
  </clipPath>
 </defs>
</svg>
