<?xml version="1.0" encoding="utf-8" standalone="no"?>
<!DOCTYPE svg PUBLIC "-//W3C//DTD SVG 1.1//EN"
  "http://www.w3.org/Graphics/SVG/1.1/DTD/svg11.dtd">
<svg xmlns:xlink="http://www.w3.org/1999/xlink" width="856.370625pt" height="568.474375pt" viewBox="0 0 856.370625 568.474375" xmlns="http://www.w3.org/2000/svg" version="1.1">
 <metadata>
  <rdf:RDF xmlns:dc="http://purl.org/dc/elements/1.1/" xmlns:cc="http://creativecommons.org/ns#" xmlns:rdf="http://www.w3.org/1999/02/22-rdf-syntax-ns#">
   <cc:Work>
    <dc:type rdf:resource="http://purl.org/dc/dcmitype/StillImage"/>
    <dc:date>2025-06-27T15:22:50.431308</dc:date>
    <dc:format>image/svg+xml</dc:format>
    <dc:creator>
     <cc:Agent>
      <dc:title>Matplotlib v3.6.3, https://matplotlib.org/</dc:title>
     </cc:Agent>
    </dc:creator>
   </cc:Work>
  </rdf:RDF>
 </metadata>
 <defs>
  <style type="text/css">*{stroke-linejoin: round; stroke-linecap: butt}</style>
 </defs>
 <g id="figure_1">
  <g id="patch_1">
   <path d="M 0 568.474375 
L 856.370625 568.474375 
L 856.370625 0 
L 0 0 
z
" style="fill: #ffffff"/>
  </g>
  <g id="axes_1">
   <g id="patch_2">
    <path d="M 34.240625 530.918125 
L 849.170625 530.918125 
L 849.170625 22.318125 
L 34.240625 22.318125 
z
" style="fill: #ffffff"/>
   </g>
   <g id="matplotlib.axis_1">
    <g id="xtick_1">
     <g id="line2d_1">
      <path d="M 63.79961 530.918125 
L 63.79961 22.318125 
" clip-path="url(#pce8b35dcce)" style="fill: none; stroke: #b0b0b0; stroke-opacity: 0.3; stroke-width: 0.8; stroke-linecap: square"/>
     </g>
     <g id="line2d_2">
      <defs>
       <path id="m98096f4ab6" d="M 0 0 
L 0 3.5 
" style="stroke: #000000; stroke-width: 0.8"/>
      </defs>
      <g>
       <use xlink:href="#m98096f4ab6" x="63.79961" y="530.918125" style="stroke: #000000; stroke-width: 0.8"/>
      </g>
     </g>
     <g id="text_1">
      <!-- 0 -->
      <g transform="translate(60.61836 545.516562) scale(0.1 -0.1)">
       <defs>
        <path id="DejaVuSans-30" d="M 2034 4250 
Q 1547 4250 1301 3770 
Q 1056 3291 1056 2328 
Q 1056 1369 1301 889 
Q 1547 409 2034 409 
Q 2525 409 2770 889 
Q 3016 1369 3016 2328 
Q 3016 3291 2770 3770 
Q 2525 4250 2034 4250 
z
M 2034 4750 
Q 2819 4750 3233 4129 
Q 3647 3509 3647 2328 
Q 3647 1150 3233 529 
Q 2819 -91 2034 -91 
Q 1250 -91 836 529 
Q 422 1150 422 2328 
Q 422 3509 836 4129 
Q 1250 4750 2034 4750 
z
" transform="scale(0.015625)"/>
       </defs>
       <use xlink:href="#DejaVuSans-30"/>
      </g>
     </g>
    </g>
    <g id="xtick_2">
     <g id="line2d_3">
      <path d="M 213.465359 530.918125 
L 213.465359 22.318125 
" clip-path="url(#pce8b35dcce)" style="fill: none; stroke: #b0b0b0; stroke-opacity: 0.3; stroke-width: 0.8; stroke-linecap: square"/>
     </g>
     <g id="line2d_4">
      <g>
       <use xlink:href="#m98096f4ab6" x="213.465359" y="530.918125" style="stroke: #000000; stroke-width: 0.8"/>
      </g>
     </g>
     <g id="text_2">
      <!-- 2 -->
      <g transform="translate(210.284109 545.516562) scale(0.1 -0.1)">
       <defs>
        <path id="DejaVuSans-32" d="M 1228 531 
L 3431 531 
L 3431 0 
L 469 0 
L 469 531 
Q 828 903 1448 1529 
Q 2069 2156 2228 2338 
Q 2531 2678 2651 2914 
Q 2772 3150 2772 3378 
Q 2772 3750 2511 3984 
Q 2250 4219 1831 4219 
Q 1534 4219 1204 4116 
Q 875 4013 500 3803 
L 500 4441 
Q 881 4594 1212 4672 
Q 1544 4750 1819 4750 
Q 2544 4750 2975 4387 
Q 3406 4025 3406 3419 
Q 3406 3131 3298 2873 
Q 3191 2616 2906 2266 
Q 2828 2175 2409 1742 
Q 1991 1309 1228 531 
z
" transform="scale(0.015625)"/>
       </defs>
       <use xlink:href="#DejaVuSans-32"/>
      </g>
     </g>
    </g>
    <g id="xtick_3">
     <g id="line2d_5">
      <path d="M 363.131107 530.918125 
L 363.131107 22.318125 
" clip-path="url(#pce8b35dcce)" style="fill: none; stroke: #b0b0b0; stroke-opacity: 0.3; stroke-width: 0.8; stroke-linecap: square"/>
     </g>
     <g id="line2d_6">
      <g>
       <use xlink:href="#m98096f4ab6" x="363.131107" y="530.918125" style="stroke: #000000; stroke-width: 0.8"/>
      </g>
     </g>
     <g id="text_3">
      <!-- 4 -->
      <g transform="translate(359.949857 545.516562) scale(0.1 -0.1)">
       <defs>
        <path id="DejaVuSans-34" d="M 2419 4116 
L 825 1625 
L 2419 1625 
L 2419 4116 
z
M 2253 4666 
L 3047 4666 
L 3047 1625 
L 3713 1625 
L 3713 1100 
L 3047 1100 
L 3047 0 
L 2419 0 
L 2419 1100 
L 313 1100 
L 313 1709 
L 2253 4666 
z
" transform="scale(0.015625)"/>
       </defs>
       <use xlink:href="#DejaVuSans-34"/>
      </g>
     </g>
    </g>
    <g id="xtick_4">
     <g id="line2d_7">
      <path d="M 512.796855 530.918125 
L 512.796855 22.318125 
" clip-path="url(#pce8b35dcce)" style="fill: none; stroke: #b0b0b0; stroke-opacity: 0.3; stroke-width: 0.8; stroke-linecap: square"/>
     </g>
     <g id="line2d_8">
      <g>
       <use xlink:href="#m98096f4ab6" x="512.796855" y="530.918125" style="stroke: #000000; stroke-width: 0.8"/>
      </g>
     </g>
     <g id="text_4">
      <!-- 6 -->
      <g transform="translate(509.615605 545.516562) scale(0.1 -0.1)">
       <defs>
        <path id="DejaVuSans-36" d="M 2113 2584 
Q 1688 2584 1439 2293 
Q 1191 2003 1191 1497 
Q 1191 994 1439 701 
Q 1688 409 2113 409 
Q 2538 409 2786 701 
Q 3034 994 3034 1497 
Q 3034 2003 2786 2293 
Q 2538 2584 2113 2584 
z
M 3366 4563 
L 3366 3988 
Q 3128 4100 2886 4159 
Q 2644 4219 2406 4219 
Q 1781 4219 1451 3797 
Q 1122 3375 1075 2522 
Q 1259 2794 1537 2939 
Q 1816 3084 2150 3084 
Q 2853 3084 3261 2657 
Q 3669 2231 3669 1497 
Q 3669 778 3244 343 
Q 2819 -91 2113 -91 
Q 1303 -91 875 529 
Q 447 1150 447 2328 
Q 447 3434 972 4092 
Q 1497 4750 2381 4750 
Q 2619 4750 2861 4703 
Q 3103 4656 3366 4563 
z
" transform="scale(0.015625)"/>
       </defs>
       <use xlink:href="#DejaVuSans-36"/>
      </g>
     </g>
    </g>
    <g id="xtick_5">
     <g id="line2d_9">
      <path d="M 662.462604 530.918125 
L 662.462604 22.318125 
" clip-path="url(#pce8b35dcce)" style="fill: none; stroke: #b0b0b0; stroke-opacity: 0.3; stroke-width: 0.8; stroke-linecap: square"/>
     </g>
     <g id="line2d_10">
      <g>
       <use xlink:href="#m98096f4ab6" x="662.462604" y="530.918125" style="stroke: #000000; stroke-width: 0.8"/>
      </g>
     </g>
     <g id="text_5">
      <!-- 8 -->
      <g transform="translate(659.281354 545.516562) scale(0.1 -0.1)">
       <defs>
        <path id="DejaVuSans-38" d="M 2034 2216 
Q 1584 2216 1326 1975 
Q 1069 1734 1069 1313 
Q 1069 891 1326 650 
Q 1584 409 2034 409 
Q 2484 409 2743 651 
Q 3003 894 3003 1313 
Q 3003 1734 2745 1975 
Q 2488 2216 2034 2216 
z
M 1403 2484 
Q 997 2584 770 2862 
Q 544 3141 544 3541 
Q 544 4100 942 4425 
Q 1341 4750 2034 4750 
Q 2731 4750 3128 4425 
Q 3525 4100 3525 3541 
Q 3525 3141 3298 2862 
Q 3072 2584 2669 2484 
Q 3125 2378 3379 2068 
Q 3634 1759 3634 1313 
Q 3634 634 3220 271 
Q 2806 -91 2034 -91 
Q 1263 -91 848 271 
Q 434 634 434 1313 
Q 434 1759 690 2068 
Q 947 2378 1403 2484 
z
M 1172 3481 
Q 1172 3119 1398 2916 
Q 1625 2713 2034 2713 
Q 2441 2713 2670 2916 
Q 2900 3119 2900 3481 
Q 2900 3844 2670 4047 
Q 2441 4250 2034 4250 
Q 1625 4250 1398 4047 
Q 1172 3844 1172 3481 
z
" transform="scale(0.015625)"/>
       </defs>
       <use xlink:href="#DejaVuSans-38"/>
      </g>
     </g>
    </g>
    <g id="xtick_6">
     <g id="line2d_11">
      <path d="M 812.128352 530.918125 
L 812.128352 22.318125 
" clip-path="url(#pce8b35dcce)" style="fill: none; stroke: #b0b0b0; stroke-opacity: 0.3; stroke-width: 0.8; stroke-linecap: square"/>
     </g>
     <g id="line2d_12">
      <g>
       <use xlink:href="#m98096f4ab6" x="812.128352" y="530.918125" style="stroke: #000000; stroke-width: 0.8"/>
      </g>
     </g>
     <g id="text_6">
      <!-- 10 -->
      <g transform="translate(805.765852 545.516562) scale(0.1 -0.1)">
       <defs>
        <path id="DejaVuSans-31" d="M 794 531 
L 1825 531 
L 1825 4091 
L 703 3866 
L 703 4441 
L 1819 4666 
L 2450 4666 
L 2450 531 
L 3481 531 
L 3481 0 
L 794 0 
L 794 531 
z
" transform="scale(0.015625)"/>
       </defs>
       <use xlink:href="#DejaVuSans-31"/>
       <use xlink:href="#DejaVuSans-30" x="63.623047"/>
      </g>
     </g>
    </g>
    <g id="text_7">
     <!-- Elapsed Time (seconds) -->
     <g transform="translate(382.312656 559.194687) scale(0.1 -0.1)">
      <defs>
       <path id="DejaVuSans-45" d="M 628 4666 
L 3578 4666 
L 3578 4134 
L 1259 4134 
L 1259 2753 
L 3481 2753 
L 3481 2222 
L 1259 2222 
L 1259 531 
L 3634 531 
L 3634 0 
L 628 0 
L 628 4666 
z
" transform="scale(0.015625)"/>
       <path id="DejaVuSans-6c" d="M 603 4863 
L 1178 4863 
L 1178 0 
L 603 0 
L 603 4863 
z
" transform="scale(0.015625)"/>
       <path id="DejaVuSans-61" d="M 2194 1759 
Q 1497 1759 1228 1600 
Q 959 1441 959 1056 
Q 959 750 1161 570 
Q 1363 391 1709 391 
Q 2188 391 2477 730 
Q 2766 1069 2766 1631 
L 2766 1759 
L 2194 1759 
z
M 3341 1997 
L 3341 0 
L 2766 0 
L 2766 531 
Q 2569 213 2275 61 
Q 1981 -91 1556 -91 
Q 1019 -91 701 211 
Q 384 513 384 1019 
Q 384 1609 779 1909 
Q 1175 2209 1959 2209 
L 2766 2209 
L 2766 2266 
Q 2766 2663 2505 2880 
Q 2244 3097 1772 3097 
Q 1472 3097 1187 3025 
Q 903 2953 641 2809 
L 641 3341 
Q 956 3463 1253 3523 
Q 1550 3584 1831 3584 
Q 2591 3584 2966 3190 
Q 3341 2797 3341 1997 
z
" transform="scale(0.015625)"/>
       <path id="DejaVuSans-70" d="M 1159 525 
L 1159 -1331 
L 581 -1331 
L 581 3500 
L 1159 3500 
L 1159 2969 
Q 1341 3281 1617 3432 
Q 1894 3584 2278 3584 
Q 2916 3584 3314 3078 
Q 3713 2572 3713 1747 
Q 3713 922 3314 415 
Q 2916 -91 2278 -91 
Q 1894 -91 1617 61 
Q 1341 213 1159 525 
z
M 3116 1747 
Q 3116 2381 2855 2742 
Q 2594 3103 2138 3103 
Q 1681 3103 1420 2742 
Q 1159 2381 1159 1747 
Q 1159 1113 1420 752 
Q 1681 391 2138 391 
Q 2594 391 2855 752 
Q 3116 1113 3116 1747 
z
" transform="scale(0.015625)"/>
       <path id="DejaVuSans-73" d="M 2834 3397 
L 2834 2853 
Q 2591 2978 2328 3040 
Q 2066 3103 1784 3103 
Q 1356 3103 1142 2972 
Q 928 2841 928 2578 
Q 928 2378 1081 2264 
Q 1234 2150 1697 2047 
L 1894 2003 
Q 2506 1872 2764 1633 
Q 3022 1394 3022 966 
Q 3022 478 2636 193 
Q 2250 -91 1575 -91 
Q 1294 -91 989 -36 
Q 684 19 347 128 
L 347 722 
Q 666 556 975 473 
Q 1284 391 1588 391 
Q 1994 391 2212 530 
Q 2431 669 2431 922 
Q 2431 1156 2273 1281 
Q 2116 1406 1581 1522 
L 1381 1569 
Q 847 1681 609 1914 
Q 372 2147 372 2553 
Q 372 3047 722 3315 
Q 1072 3584 1716 3584 
Q 2034 3584 2315 3537 
Q 2597 3491 2834 3397 
z
" transform="scale(0.015625)"/>
       <path id="DejaVuSans-65" d="M 3597 1894 
L 3597 1613 
L 953 1613 
Q 991 1019 1311 708 
Q 1631 397 2203 397 
Q 2534 397 2845 478 
Q 3156 559 3463 722 
L 3463 178 
Q 3153 47 2828 -22 
Q 2503 -91 2169 -91 
Q 1331 -91 842 396 
Q 353 884 353 1716 
Q 353 2575 817 3079 
Q 1281 3584 2069 3584 
Q 2775 3584 3186 3129 
Q 3597 2675 3597 1894 
z
M 3022 2063 
Q 3016 2534 2758 2815 
Q 2500 3097 2075 3097 
Q 1594 3097 1305 2825 
Q 1016 2553 972 2059 
L 3022 2063 
z
" transform="scale(0.015625)"/>
       <path id="DejaVuSans-64" d="M 2906 2969 
L 2906 4863 
L 3481 4863 
L 3481 0 
L 2906 0 
L 2906 525 
Q 2725 213 2448 61 
Q 2172 -91 1784 -91 
Q 1150 -91 751 415 
Q 353 922 353 1747 
Q 353 2572 751 3078 
Q 1150 3584 1784 3584 
Q 2172 3584 2448 3432 
Q 2725 3281 2906 2969 
z
M 947 1747 
Q 947 1113 1208 752 
Q 1469 391 1925 391 
Q 2381 391 2643 752 
Q 2906 1113 2906 1747 
Q 2906 2381 2643 2742 
Q 2381 3103 1925 3103 
Q 1469 3103 1208 2742 
Q 947 2381 947 1747 
z
" transform="scale(0.015625)"/>
       <path id="DejaVuSans-20" transform="scale(0.015625)"/>
       <path id="DejaVuSans-54" d="M -19 4666 
L 3928 4666 
L 3928 4134 
L 2272 4134 
L 2272 0 
L 1638 0 
L 1638 4134 
L -19 4134 
L -19 4666 
z
" transform="scale(0.015625)"/>
       <path id="DejaVuSans-69" d="M 603 3500 
L 1178 3500 
L 1178 0 
L 603 0 
L 603 3500 
z
M 603 4863 
L 1178 4863 
L 1178 4134 
L 603 4134 
L 603 4863 
z
" transform="scale(0.015625)"/>
       <path id="DejaVuSans-6d" d="M 3328 2828 
Q 3544 3216 3844 3400 
Q 4144 3584 4550 3584 
Q 5097 3584 5394 3201 
Q 5691 2819 5691 2113 
L 5691 0 
L 5113 0 
L 5113 2094 
Q 5113 2597 4934 2840 
Q 4756 3084 4391 3084 
Q 3944 3084 3684 2787 
Q 3425 2491 3425 1978 
L 3425 0 
L 2847 0 
L 2847 2094 
Q 2847 2600 2669 2842 
Q 2491 3084 2119 3084 
Q 1678 3084 1418 2786 
Q 1159 2488 1159 1978 
L 1159 0 
L 581 0 
L 581 3500 
L 1159 3500 
L 1159 2956 
Q 1356 3278 1631 3431 
Q 1906 3584 2284 3584 
Q 2666 3584 2933 3390 
Q 3200 3197 3328 2828 
z
" transform="scale(0.015625)"/>
       <path id="DejaVuSans-28" d="M 1984 4856 
Q 1566 4138 1362 3434 
Q 1159 2731 1159 2009 
Q 1159 1288 1364 580 
Q 1569 -128 1984 -844 
L 1484 -844 
Q 1016 -109 783 600 
Q 550 1309 550 2009 
Q 550 2706 781 3412 
Q 1013 4119 1484 4856 
L 1984 4856 
z
" transform="scale(0.015625)"/>
       <path id="DejaVuSans-63" d="M 3122 3366 
L 3122 2828 
Q 2878 2963 2633 3030 
Q 2388 3097 2138 3097 
Q 1578 3097 1268 2742 
Q 959 2388 959 1747 
Q 959 1106 1268 751 
Q 1578 397 2138 397 
Q 2388 397 2633 464 
Q 2878 531 3122 666 
L 3122 134 
Q 2881 22 2623 -34 
Q 2366 -91 2075 -91 
Q 1284 -91 818 406 
Q 353 903 353 1747 
Q 353 2603 823 3093 
Q 1294 3584 2113 3584 
Q 2378 3584 2631 3529 
Q 2884 3475 3122 3366 
z
" transform="scale(0.015625)"/>
       <path id="DejaVuSans-6f" d="M 1959 3097 
Q 1497 3097 1228 2736 
Q 959 2375 959 1747 
Q 959 1119 1226 758 
Q 1494 397 1959 397 
Q 2419 397 2687 759 
Q 2956 1122 2956 1747 
Q 2956 2369 2687 2733 
Q 2419 3097 1959 3097 
z
M 1959 3584 
Q 2709 3584 3137 3096 
Q 3566 2609 3566 1747 
Q 3566 888 3137 398 
Q 2709 -91 1959 -91 
Q 1206 -91 779 398 
Q 353 888 353 1747 
Q 353 2609 779 3096 
Q 1206 3584 1959 3584 
z
" transform="scale(0.015625)"/>
       <path id="DejaVuSans-6e" d="M 3513 2113 
L 3513 0 
L 2938 0 
L 2938 2094 
Q 2938 2591 2744 2837 
Q 2550 3084 2163 3084 
Q 1697 3084 1428 2787 
Q 1159 2491 1159 1978 
L 1159 0 
L 581 0 
L 581 3500 
L 1159 3500 
L 1159 2956 
Q 1366 3272 1645 3428 
Q 1925 3584 2291 3584 
Q 2894 3584 3203 3211 
Q 3513 2838 3513 2113 
z
" transform="scale(0.015625)"/>
       <path id="DejaVuSans-29" d="M 513 4856 
L 1013 4856 
Q 1481 4119 1714 3412 
Q 1947 2706 1947 2009 
Q 1947 1309 1714 600 
Q 1481 -109 1013 -844 
L 513 -844 
Q 928 -128 1133 580 
Q 1338 1288 1338 2009 
Q 1338 2731 1133 3434 
Q 928 4138 513 4856 
z
" transform="scale(0.015625)"/>
      </defs>
      <use xlink:href="#DejaVuSans-45"/>
      <use xlink:href="#DejaVuSans-6c" x="63.183594"/>
      <use xlink:href="#DejaVuSans-61" x="90.966797"/>
      <use xlink:href="#DejaVuSans-70" x="152.246094"/>
      <use xlink:href="#DejaVuSans-73" x="215.722656"/>
      <use xlink:href="#DejaVuSans-65" x="267.822266"/>
      <use xlink:href="#DejaVuSans-64" x="329.345703"/>
      <use xlink:href="#DejaVuSans-20" x="392.822266"/>
      <use xlink:href="#DejaVuSans-54" x="424.609375"/>
      <use xlink:href="#DejaVuSans-69" x="482.568359"/>
      <use xlink:href="#DejaVuSans-6d" x="510.351562"/>
      <use xlink:href="#DejaVuSans-65" x="607.763672"/>
      <use xlink:href="#DejaVuSans-20" x="669.287109"/>
      <use xlink:href="#DejaVuSans-28" x="701.074219"/>
      <use xlink:href="#DejaVuSans-73" x="740.087891"/>
      <use xlink:href="#DejaVuSans-65" x="792.1875"/>
      <use xlink:href="#DejaVuSans-63" x="853.710938"/>
      <use xlink:href="#DejaVuSans-6f" x="908.691406"/>
      <use xlink:href="#DejaVuSans-6e" x="969.873047"/>
      <use xlink:href="#DejaVuSans-64" x="1033.251953"/>
      <use xlink:href="#DejaVuSans-73" x="1096.728516"/>
      <use xlink:href="#DejaVuSans-29" x="1148.828125"/>
     </g>
    </g>
   </g>
   <g id="matplotlib.axis_2">
    <g id="ytick_1">
     <g id="line2d_13">
      <path d="M 34.240625 477.218411 
L 849.170625 477.218411 
" clip-path="url(#pce8b35dcce)" style="fill: none; stroke: #b0b0b0; stroke-opacity: 0.3; stroke-width: 0.8; stroke-linecap: square"/>
     </g>
     <g id="line2d_14">
      <defs>
       <path id="m4af5e912c4" d="M 0 0 
L -3.5 0 
" style="stroke: #000000; stroke-width: 0.8"/>
      </defs>
      <g>
       <use xlink:href="#m4af5e912c4" x="34.240625" y="477.218411" style="stroke: #000000; stroke-width: 0.8"/>
      </g>
     </g>
     <g id="text_8">
      <!-- 1 -->
      <g transform="translate(20.878125 481.01763) scale(0.1 -0.1)">
       <use xlink:href="#DejaVuSans-31"/>
      </g>
     </g>
    </g>
    <g id="ytick_2">
     <g id="line2d_15">
      <path d="M 34.240625 386.201947 
L 849.170625 386.201947 
" clip-path="url(#pce8b35dcce)" style="fill: none; stroke: #b0b0b0; stroke-opacity: 0.3; stroke-width: 0.8; stroke-linecap: square"/>
     </g>
     <g id="line2d_16">
      <g>
       <use xlink:href="#m4af5e912c4" x="34.240625" y="386.201947" style="stroke: #000000; stroke-width: 0.8"/>
      </g>
     </g>
     <g id="text_9">
      <!-- 2 -->
      <g transform="translate(20.878125 390.001166) scale(0.1 -0.1)">
       <use xlink:href="#DejaVuSans-32"/>
      </g>
     </g>
    </g>
    <g id="ytick_3">
     <g id="line2d_17">
      <path d="M 34.240625 295.185484 
L 849.170625 295.185484 
" clip-path="url(#pce8b35dcce)" style="fill: none; stroke: #b0b0b0; stroke-opacity: 0.3; stroke-width: 0.8; stroke-linecap: square"/>
     </g>
     <g id="line2d_18">
      <g>
       <use xlink:href="#m4af5e912c4" x="34.240625" y="295.185484" style="stroke: #000000; stroke-width: 0.8"/>
      </g>
     </g>
     <g id="text_10">
      <!-- 3 -->
      <g transform="translate(20.878125 298.984702) scale(0.1 -0.1)">
       <defs>
        <path id="DejaVuSans-33" d="M 2597 2516 
Q 3050 2419 3304 2112 
Q 3559 1806 3559 1356 
Q 3559 666 3084 287 
Q 2609 -91 1734 -91 
Q 1441 -91 1130 -33 
Q 819 25 488 141 
L 488 750 
Q 750 597 1062 519 
Q 1375 441 1716 441 
Q 2309 441 2620 675 
Q 2931 909 2931 1356 
Q 2931 1769 2642 2001 
Q 2353 2234 1838 2234 
L 1294 2234 
L 1294 2753 
L 1863 2753 
Q 2328 2753 2575 2939 
Q 2822 3125 2822 3475 
Q 2822 3834 2567 4026 
Q 2313 4219 1838 4219 
Q 1578 4219 1281 4162 
Q 984 4106 628 3988 
L 628 4550 
Q 988 4650 1302 4700 
Q 1616 4750 1894 4750 
Q 2613 4750 3031 4423 
Q 3450 4097 3450 3541 
Q 3450 3153 3228 2886 
Q 3006 2619 2597 2516 
z
" transform="scale(0.015625)"/>
       </defs>
       <use xlink:href="#DejaVuSans-33"/>
      </g>
     </g>
    </g>
    <g id="ytick_4">
     <g id="line2d_19">
      <path d="M 34.240625 204.16902 
L 849.170625 204.16902 
" clip-path="url(#pce8b35dcce)" style="fill: none; stroke: #b0b0b0; stroke-opacity: 0.3; stroke-width: 0.8; stroke-linecap: square"/>
     </g>
     <g id="line2d_20">
      <g>
       <use xlink:href="#m4af5e912c4" x="34.240625" y="204.16902" style="stroke: #000000; stroke-width: 0.8"/>
      </g>
     </g>
     <g id="text_11">
      <!-- 4 -->
      <g transform="translate(20.878125 207.968239) scale(0.1 -0.1)">
       <use xlink:href="#DejaVuSans-34"/>
      </g>
     </g>
    </g>
    <g id="ytick_5">
     <g id="line2d_21">
      <path d="M 34.240625 113.152556 
L 849.170625 113.152556 
" clip-path="url(#pce8b35dcce)" style="fill: none; stroke: #b0b0b0; stroke-opacity: 0.3; stroke-width: 0.8; stroke-linecap: square"/>
     </g>
     <g id="line2d_22">
      <g>
       <use xlink:href="#m4af5e912c4" x="34.240625" y="113.152556" style="stroke: #000000; stroke-width: 0.8"/>
      </g>
     </g>
     <g id="text_12">
      <!-- 5 -->
      <g transform="translate(20.878125 116.951775) scale(0.1 -0.1)">
       <defs>
        <path id="DejaVuSans-35" d="M 691 4666 
L 3169 4666 
L 3169 4134 
L 1269 4134 
L 1269 2991 
Q 1406 3038 1543 3061 
Q 1681 3084 1819 3084 
Q 2600 3084 3056 2656 
Q 3513 2228 3513 1497 
Q 3513 744 3044 326 
Q 2575 -91 1722 -91 
Q 1428 -91 1123 -41 
Q 819 9 494 109 
L 494 744 
Q 775 591 1075 516 
Q 1375 441 1709 441 
Q 2250 441 2565 725 
Q 2881 1009 2881 1497 
Q 2881 1984 2565 2268 
Q 2250 2553 1709 2553 
Q 1456 2553 1204 2497 
Q 953 2441 691 2322 
L 691 4666 
z
" transform="scale(0.015625)"/>
       </defs>
       <use xlink:href="#DejaVuSans-35"/>
      </g>
     </g>
    </g>
    <g id="text_13">
     <!-- Mean Latency (ms) -->
     <g transform="translate(14.798438 324.560312) rotate(-90) scale(0.1 -0.1)">
      <defs>
       <path id="DejaVuSans-4d" d="M 628 4666 
L 1569 4666 
L 2759 1491 
L 3956 4666 
L 4897 4666 
L 4897 0 
L 4281 0 
L 4281 4097 
L 3078 897 
L 2444 897 
L 1241 4097 
L 1241 0 
L 628 0 
L 628 4666 
z
" transform="scale(0.015625)"/>
       <path id="DejaVuSans-4c" d="M 628 4666 
L 1259 4666 
L 1259 531 
L 3531 531 
L 3531 0 
L 628 0 
L 628 4666 
z
" transform="scale(0.015625)"/>
       <path id="DejaVuSans-74" d="M 1172 4494 
L 1172 3500 
L 2356 3500 
L 2356 3053 
L 1172 3053 
L 1172 1153 
Q 1172 725 1289 603 
Q 1406 481 1766 481 
L 2356 481 
L 2356 0 
L 1766 0 
Q 1100 0 847 248 
Q 594 497 594 1153 
L 594 3053 
L 172 3053 
L 172 3500 
L 594 3500 
L 594 4494 
L 1172 4494 
z
" transform="scale(0.015625)"/>
       <path id="DejaVuSans-79" d="M 2059 -325 
Q 1816 -950 1584 -1140 
Q 1353 -1331 966 -1331 
L 506 -1331 
L 506 -850 
L 844 -850 
Q 1081 -850 1212 -737 
Q 1344 -625 1503 -206 
L 1606 56 
L 191 3500 
L 800 3500 
L 1894 763 
L 2988 3500 
L 3597 3500 
L 2059 -325 
z
" transform="scale(0.015625)"/>
      </defs>
      <use xlink:href="#DejaVuSans-4d"/>
      <use xlink:href="#DejaVuSans-65" x="86.279297"/>
      <use xlink:href="#DejaVuSans-61" x="147.802734"/>
      <use xlink:href="#DejaVuSans-6e" x="209.082031"/>
      <use xlink:href="#DejaVuSans-20" x="272.460938"/>
      <use xlink:href="#DejaVuSans-4c" x="304.248047"/>
      <use xlink:href="#DejaVuSans-61" x="359.960938"/>
      <use xlink:href="#DejaVuSans-74" x="421.240234"/>
      <use xlink:href="#DejaVuSans-65" x="460.449219"/>
      <use xlink:href="#DejaVuSans-6e" x="521.972656"/>
      <use xlink:href="#DejaVuSans-63" x="585.351562"/>
      <use xlink:href="#DejaVuSans-79" x="640.332031"/>
      <use xlink:href="#DejaVuSans-20" x="699.511719"/>
      <use xlink:href="#DejaVuSans-28" x="731.298828"/>
      <use xlink:href="#DejaVuSans-6d" x="770.3125"/>
      <use xlink:href="#DejaVuSans-73" x="867.724609"/>
      <use xlink:href="#DejaVuSans-29" x="919.824219"/>
     </g>
    </g>
   </g>
   <g id="line2d_23">
    <path d="M 78.766185 507.435877 
L 93.73276 507.799943 
L 108.699335 507.799943 
L 123.66591 507.799943 
L 138.632485 507.708927 
L 153.599059 507.61791 
L 168.565634 507.435877 
L 183.532209 507.435877 
L 198.498784 507.344861 
L 213.465359 507.344861 
L 228.431934 507.253844 
L 243.398508 507.162828 
L 258.365083 507.162828 
L 273.331658 507.162828 
L 288.298233 507.253844 
L 303.264808 507.253844 
L 318.231383 507.253844 
L 333.197957 507.253844 
L 348.164532 507.253844 
L 363.131107 507.253844 
L 378.097682 507.344861 
L 393.064257 507.344861 
L 408.030832 507.253844 
L 422.997406 507.253844 
L 437.963981 507.253844 
L 452.930556 507.253844 
L 467.897131 507.253844 
L 482.863706 507.162828 
L 497.830281 507.253844 
L 512.796855 507.162828 
L 527.76343 507.162828 
L 542.730005 507.162828 
L 557.69658 507.162828 
L 572.663155 507.253844 
L 587.62973 507.253844 
L 602.596305 507.253844 
L 617.562879 507.253844 
L 632.529454 507.253844 
L 647.496029 507.253844 
L 662.462604 507.253844 
L 677.429179 507.253844 
L 692.395754 507.162828 
L 707.362328 507.162828 
L 722.328903 507.253844 
L 737.295478 507.253844 
L 752.262053 507.253844 
L 767.228628 507.253844 
L 782.195203 507.253844 
L 797.161777 507.253844 
L 812.128352 507.253844 
" clip-path="url(#pce8b35dcce)" style="fill: none; stroke: #2ca02c; stroke-width: 2; stroke-linecap: square"/>
    <defs>
     <path id="m91b4b63159" d="M 0 2 
C 0.530406 2 1.03916 1.789267 1.414214 1.414214 
C 1.789267 1.03916 2 0.530406 2 0 
C 2 -0.530406 1.789267 -1.03916 1.414214 -1.414214 
C 1.03916 -1.789267 0.530406 -2 0 -2 
C -0.530406 -2 -1.03916 -1.789267 -1.414214 -1.414214 
C -1.789267 -1.03916 -2 -0.530406 -2 0 
C -2 0.530406 -1.789267 1.03916 -1.414214 1.414214 
C -1.03916 1.789267 -0.530406 2 0 2 
z
" style="stroke: #2ca02c"/>
    </defs>
    <g clip-path="url(#pce8b35dcce)">
     <use xlink:href="#m91b4b63159" x="78.766185" y="507.435877" style="fill: #2ca02c; stroke: #2ca02c"/>
     <use xlink:href="#m91b4b63159" x="93.73276" y="507.799943" style="fill: #2ca02c; stroke: #2ca02c"/>
     <use xlink:href="#m91b4b63159" x="108.699335" y="507.799943" style="fill: #2ca02c; stroke: #2ca02c"/>
     <use xlink:href="#m91b4b63159" x="123.66591" y="507.799943" style="fill: #2ca02c; stroke: #2ca02c"/>
     <use xlink:href="#m91b4b63159" x="138.632485" y="507.708927" style="fill: #2ca02c; stroke: #2ca02c"/>
     <use xlink:href="#m91b4b63159" x="153.599059" y="507.61791" style="fill: #2ca02c; stroke: #2ca02c"/>
     <use xlink:href="#m91b4b63159" x="168.565634" y="507.435877" style="fill: #2ca02c; stroke: #2ca02c"/>
     <use xlink:href="#m91b4b63159" x="183.532209" y="507.435877" style="fill: #2ca02c; stroke: #2ca02c"/>
     <use xlink:href="#m91b4b63159" x="198.498784" y="507.344861" style="fill: #2ca02c; stroke: #2ca02c"/>
     <use xlink:href="#m91b4b63159" x="213.465359" y="507.344861" style="fill: #2ca02c; stroke: #2ca02c"/>
     <use xlink:href="#m91b4b63159" x="228.431934" y="507.253844" style="fill: #2ca02c; stroke: #2ca02c"/>
     <use xlink:href="#m91b4b63159" x="243.398508" y="507.162828" style="fill: #2ca02c; stroke: #2ca02c"/>
     <use xlink:href="#m91b4b63159" x="258.365083" y="507.162828" style="fill: #2ca02c; stroke: #2ca02c"/>
     <use xlink:href="#m91b4b63159" x="273.331658" y="507.162828" style="fill: #2ca02c; stroke: #2ca02c"/>
     <use xlink:href="#m91b4b63159" x="288.298233" y="507.253844" style="fill: #2ca02c; stroke: #2ca02c"/>
     <use xlink:href="#m91b4b63159" x="303.264808" y="507.253844" style="fill: #2ca02c; stroke: #2ca02c"/>
     <use xlink:href="#m91b4b63159" x="318.231383" y="507.253844" style="fill: #2ca02c; stroke: #2ca02c"/>
     <use xlink:href="#m91b4b63159" x="333.197957" y="507.253844" style="fill: #2ca02c; stroke: #2ca02c"/>
     <use xlink:href="#m91b4b63159" x="348.164532" y="507.253844" style="fill: #2ca02c; stroke: #2ca02c"/>
     <use xlink:href="#m91b4b63159" x="363.131107" y="507.253844" style="fill: #2ca02c; stroke: #2ca02c"/>
     <use xlink:href="#m91b4b63159" x="378.097682" y="507.344861" style="fill: #2ca02c; stroke: #2ca02c"/>
     <use xlink:href="#m91b4b63159" x="393.064257" y="507.344861" style="fill: #2ca02c; stroke: #2ca02c"/>
     <use xlink:href="#m91b4b63159" x="408.030832" y="507.253844" style="fill: #2ca02c; stroke: #2ca02c"/>
     <use xlink:href="#m91b4b63159" x="422.997406" y="507.253844" style="fill: #2ca02c; stroke: #2ca02c"/>
     <use xlink:href="#m91b4b63159" x="437.963981" y="507.253844" style="fill: #2ca02c; stroke: #2ca02c"/>
     <use xlink:href="#m91b4b63159" x="452.930556" y="507.253844" style="fill: #2ca02c; stroke: #2ca02c"/>
     <use xlink:href="#m91b4b63159" x="467.897131" y="507.253844" style="fill: #2ca02c; stroke: #2ca02c"/>
     <use xlink:href="#m91b4b63159" x="482.863706" y="507.162828" style="fill: #2ca02c; stroke: #2ca02c"/>
     <use xlink:href="#m91b4b63159" x="497.830281" y="507.253844" style="fill: #2ca02c; stroke: #2ca02c"/>
     <use xlink:href="#m91b4b63159" x="512.796855" y="507.162828" style="fill: #2ca02c; stroke: #2ca02c"/>
     <use xlink:href="#m91b4b63159" x="527.76343" y="507.162828" style="fill: #2ca02c; stroke: #2ca02c"/>
     <use xlink:href="#m91b4b63159" x="542.730005" y="507.162828" style="fill: #2ca02c; stroke: #2ca02c"/>
     <use xlink:href="#m91b4b63159" x="557.69658" y="507.162828" style="fill: #2ca02c; stroke: #2ca02c"/>
     <use xlink:href="#m91b4b63159" x="572.663155" y="507.253844" style="fill: #2ca02c; stroke: #2ca02c"/>
     <use xlink:href="#m91b4b63159" x="587.62973" y="507.253844" style="fill: #2ca02c; stroke: #2ca02c"/>
     <use xlink:href="#m91b4b63159" x="602.596305" y="507.253844" style="fill: #2ca02c; stroke: #2ca02c"/>
     <use xlink:href="#m91b4b63159" x="617.562879" y="507.253844" style="fill: #2ca02c; stroke: #2ca02c"/>
     <use xlink:href="#m91b4b63159" x="632.529454" y="507.253844" style="fill: #2ca02c; stroke: #2ca02c"/>
     <use xlink:href="#m91b4b63159" x="647.496029" y="507.253844" style="fill: #2ca02c; stroke: #2ca02c"/>
     <use xlink:href="#m91b4b63159" x="662.462604" y="507.253844" style="fill: #2ca02c; stroke: #2ca02c"/>
     <use xlink:href="#m91b4b63159" x="677.429179" y="507.253844" style="fill: #2ca02c; stroke: #2ca02c"/>
     <use xlink:href="#m91b4b63159" x="692.395754" y="507.162828" style="fill: #2ca02c; stroke: #2ca02c"/>
     <use xlink:href="#m91b4b63159" x="707.362328" y="507.162828" style="fill: #2ca02c; stroke: #2ca02c"/>
     <use xlink:href="#m91b4b63159" x="722.328903" y="507.253844" style="fill: #2ca02c; stroke: #2ca02c"/>
     <use xlink:href="#m91b4b63159" x="737.295478" y="507.253844" style="fill: #2ca02c; stroke: #2ca02c"/>
     <use xlink:href="#m91b4b63159" x="752.262053" y="507.253844" style="fill: #2ca02c; stroke: #2ca02c"/>
     <use xlink:href="#m91b4b63159" x="767.228628" y="507.253844" style="fill: #2ca02c; stroke: #2ca02c"/>
     <use xlink:href="#m91b4b63159" x="782.195203" y="507.253844" style="fill: #2ca02c; stroke: #2ca02c"/>
     <use xlink:href="#m91b4b63159" x="797.161777" y="507.253844" style="fill: #2ca02c; stroke: #2ca02c"/>
     <use xlink:href="#m91b4b63159" x="812.128352" y="507.253844" style="fill: #2ca02c; stroke: #2ca02c"/>
    </g>
   </g>
   <g id="line2d_24">
    <path d="M 78.766185 45.436307 
L 93.73276 85.7566 
L 108.699335 101.957531 
L 123.66591 113.516622 
L 138.632485 125.803844 
L 153.599059 129.808569 
L 168.565634 144.553236 
L 183.532209 151.470487 
L 198.498784 160.299084 
L 213.465359 172.859356 
L 228.431934 184.60048 
L 243.398508 194.612291 
L 258.365083 202.34869 
L 273.331658 209.083909 
L 288.298233 215.273028 
L 303.264808 221.189099 
L 318.231383 225.375856 
L 333.197957 228.470416 
L 348.164532 231.929041 
L 363.131107 235.29665 
L 378.097682 238.209177 
L 393.064257 239.756457 
L 408.030832 242.304918 
L 422.997406 244.58033 
L 437.963981 245.672527 
L 452.930556 247.128791 
L 467.897131 248.858104 
L 482.863706 250.587416 
L 497.830281 252.225713 
L 512.796855 252.407746 
L 527.76343 253.59096 
L 542.730005 254.774174 
L 557.69658 255.866371 
L 572.663155 256.503486 
L 587.62973 257.504668 
L 602.596305 258.323816 
L 617.562879 258.960931 
L 632.529454 259.50703 
L 647.496029 260.144145 
L 662.462604 260.963293 
L 677.429179 261.509392 
L 692.395754 261.964474 
L 707.362328 262.60159 
L 722.328903 263.238705 
L 737.295478 263.693787 
L 752.262053 264.148869 
L 767.228628 264.694968 
L 782.195203 265.332083 
L 797.161777 265.605133 
L 812.128352 266.060215 
L 812.128352 266.060215 
" clip-path="url(#pce8b35dcce)" style="fill: none; stroke: #1f77b4; stroke-width: 2; stroke-linecap: square"/>
    <defs>
     <path id="m9ccdb43402" d="M 0 2 
C 0.530406 2 1.03916 1.789267 1.414214 1.414214 
C 1.789267 1.03916 2 0.530406 2 0 
C 2 -0.530406 1.789267 -1.03916 1.414214 -1.414214 
C 1.03916 -1.789267 0.530406 -2 0 -2 
C -0.530406 -2 -1.03916 -1.789267 -1.414214 -1.414214 
C -1.789267 -1.03916 -2 -0.530406 -2 0 
C -2 0.530406 -1.789267 1.03916 -1.414214 1.414214 
C -1.03916 1.789267 -0.530406 2 0 2 
z
" style="stroke: #1f77b4"/>
    </defs>
    <g clip-path="url(#pce8b35dcce)">
     <use xlink:href="#m9ccdb43402" x="78.766185" y="45.436307" style="fill: #1f77b4; stroke: #1f77b4"/>
     <use xlink:href="#m9ccdb43402" x="93.73276" y="85.7566" style="fill: #1f77b4; stroke: #1f77b4"/>
     <use xlink:href="#m9ccdb43402" x="108.699335" y="101.957531" style="fill: #1f77b4; stroke: #1f77b4"/>
     <use xlink:href="#m9ccdb43402" x="123.66591" y="113.516622" style="fill: #1f77b4; stroke: #1f77b4"/>
     <use xlink:href="#m9ccdb43402" x="138.632485" y="125.803844" style="fill: #1f77b4; stroke: #1f77b4"/>
     <use xlink:href="#m9ccdb43402" x="153.599059" y="129.808569" style="fill: #1f77b4; stroke: #1f77b4"/>
     <use xlink:href="#m9ccdb43402" x="168.565634" y="144.553236" style="fill: #1f77b4; stroke: #1f77b4"/>
     <use xlink:href="#m9ccdb43402" x="183.532209" y="151.470487" style="fill: #1f77b4; stroke: #1f77b4"/>
     <use xlink:href="#m9ccdb43402" x="198.498784" y="160.299084" style="fill: #1f77b4; stroke: #1f77b4"/>
     <use xlink:href="#m9ccdb43402" x="213.465359" y="172.859356" style="fill: #1f77b4; stroke: #1f77b4"/>
     <use xlink:href="#m9ccdb43402" x="228.431934" y="184.60048" style="fill: #1f77b4; stroke: #1f77b4"/>
     <use xlink:href="#m9ccdb43402" x="243.398508" y="194.612291" style="fill: #1f77b4; stroke: #1f77b4"/>
     <use xlink:href="#m9ccdb43402" x="258.365083" y="202.34869" style="fill: #1f77b4; stroke: #1f77b4"/>
     <use xlink:href="#m9ccdb43402" x="273.331658" y="209.083909" style="fill: #1f77b4; stroke: #1f77b4"/>
     <use xlink:href="#m9ccdb43402" x="288.298233" y="215.273028" style="fill: #1f77b4; stroke: #1f77b4"/>
     <use xlink:href="#m9ccdb43402" x="303.264808" y="221.189099" style="fill: #1f77b4; stroke: #1f77b4"/>
     <use xlink:href="#m9ccdb43402" x="318.231383" y="225.375856" style="fill: #1f77b4; stroke: #1f77b4"/>
     <use xlink:href="#m9ccdb43402" x="333.197957" y="228.470416" style="fill: #1f77b4; stroke: #1f77b4"/>
     <use xlink:href="#m9ccdb43402" x="348.164532" y="231.929041" style="fill: #1f77b4; stroke: #1f77b4"/>
     <use xlink:href="#m9ccdb43402" x="363.131107" y="235.29665" style="fill: #1f77b4; stroke: #1f77b4"/>
     <use xlink:href="#m9ccdb43402" x="378.097682" y="238.209177" style="fill: #1f77b4; stroke: #1f77b4"/>
     <use xlink:href="#m9ccdb43402" x="393.064257" y="239.756457" style="fill: #1f77b4; stroke: #1f77b4"/>
     <use xlink:href="#m9ccdb43402" x="408.030832" y="242.304918" style="fill: #1f77b4; stroke: #1f77b4"/>
     <use xlink:href="#m9ccdb43402" x="422.997406" y="244.58033" style="fill: #1f77b4; stroke: #1f77b4"/>
     <use xlink:href="#m9ccdb43402" x="437.963981" y="245.672527" style="fill: #1f77b4; stroke: #1f77b4"/>
     <use xlink:href="#m9ccdb43402" x="452.930556" y="247.128791" style="fill: #1f77b4; stroke: #1f77b4"/>
     <use xlink:href="#m9ccdb43402" x="467.897131" y="248.858104" style="fill: #1f77b4; stroke: #1f77b4"/>
     <use xlink:href="#m9ccdb43402" x="482.863706" y="250.587416" style="fill: #1f77b4; stroke: #1f77b4"/>
     <use xlink:href="#m9ccdb43402" x="497.830281" y="252.225713" style="fill: #1f77b4; stroke: #1f77b4"/>
     <use xlink:href="#m9ccdb43402" x="512.796855" y="252.407746" style="fill: #1f77b4; stroke: #1f77b4"/>
     <use xlink:href="#m9ccdb43402" x="527.76343" y="253.59096" style="fill: #1f77b4; stroke: #1f77b4"/>
     <use xlink:href="#m9ccdb43402" x="542.730005" y="254.774174" style="fill: #1f77b4; stroke: #1f77b4"/>
     <use xlink:href="#m9ccdb43402" x="557.69658" y="255.866371" style="fill: #1f77b4; stroke: #1f77b4"/>
     <use xlink:href="#m9ccdb43402" x="572.663155" y="256.503486" style="fill: #1f77b4; stroke: #1f77b4"/>
     <use xlink:href="#m9ccdb43402" x="587.62973" y="257.504668" style="fill: #1f77b4; stroke: #1f77b4"/>
     <use xlink:href="#m9ccdb43402" x="602.596305" y="258.323816" style="fill: #1f77b4; stroke: #1f77b4"/>
     <use xlink:href="#m9ccdb43402" x="617.562879" y="258.960931" style="fill: #1f77b4; stroke: #1f77b4"/>
     <use xlink:href="#m9ccdb43402" x="632.529454" y="259.50703" style="fill: #1f77b4; stroke: #1f77b4"/>
     <use xlink:href="#m9ccdb43402" x="647.496029" y="260.144145" style="fill: #1f77b4; stroke: #1f77b4"/>
     <use xlink:href="#m9ccdb43402" x="662.462604" y="260.963293" style="fill: #1f77b4; stroke: #1f77b4"/>
     <use xlink:href="#m9ccdb43402" x="677.429179" y="261.509392" style="fill: #1f77b4; stroke: #1f77b4"/>
     <use xlink:href="#m9ccdb43402" x="692.395754" y="261.964474" style="fill: #1f77b4; stroke: #1f77b4"/>
     <use xlink:href="#m9ccdb43402" x="707.362328" y="262.60159" style="fill: #1f77b4; stroke: #1f77b4"/>
     <use xlink:href="#m9ccdb43402" x="722.328903" y="263.238705" style="fill: #1f77b4; stroke: #1f77b4"/>
     <use xlink:href="#m9ccdb43402" x="737.295478" y="263.693787" style="fill: #1f77b4; stroke: #1f77b4"/>
     <use xlink:href="#m9ccdb43402" x="752.262053" y="264.148869" style="fill: #1f77b4; stroke: #1f77b4"/>
     <use xlink:href="#m9ccdb43402" x="767.228628" y="264.694968" style="fill: #1f77b4; stroke: #1f77b4"/>
     <use xlink:href="#m9ccdb43402" x="782.195203" y="265.332083" style="fill: #1f77b4; stroke: #1f77b4"/>
     <use xlink:href="#m9ccdb43402" x="797.161777" y="265.605133" style="fill: #1f77b4; stroke: #1f77b4"/>
     <use xlink:href="#m9ccdb43402" x="812.128352" y="266.060215" style="fill: #1f77b4; stroke: #1f77b4"/>
     <use xlink:href="#m9ccdb43402" x="812.128352" y="266.060215" style="fill: #1f77b4; stroke: #1f77b4"/>
    </g>
   </g>
   <g id="line2d_25">
    <path d="M 71.282898 222.645362 
L 86.249473 221.462148 
L 101.216047 219.823852 
L 123.66591 218.913687 
L 138.632485 177.592212 
L 146.115772 165.578039 
L 161.082347 174.224603 
L 176.048922 176.864081 
L 198.498784 181.596937 
L 213.465359 165.851088 
L 228.431934 157.750623 
L 243.398508 162.756529 
L 258.365083 166.943286 
L 273.331658 170.674961 
L 288.298233 163.393644 
L 295.78152 155.384195 
L 310.748095 159.297903 
L 333.197957 162.665512 
L 348.164532 165.669056 
L 363.131107 164.121776 
L 378.097682 160.026035 
L 393.064257 162.938562 
L 400.547544 165.122957 
L 422.997406 167.216335 
L 437.963981 163.302628 
L 452.930556 159.844002 
L 460.413844 162.119413 
L 482.863706 164.303809 
L 497.830281 166.215154 
L 512.796855 160.481117 
L 527.76343 157.932656 
L 535.246718 159.752985 
L 557.69658 161.573315 
L 565.179867 163.393644 
L 587.62973 160.481117 
L 595.113017 158.478755 
L 617.562879 160.299084 
L 625.046167 161.937381 
L 647.496029 163.302628 
L 662.462604 157.477574 
L 677.429179 156.112327 
L 684.912466 157.750623 
L 699.879041 159.297903 
L 722.328903 160.66315 
L 737.295478 157.113508 
L 744.778765 155.475212 
L 767.228628 156.749442 
L 774.711915 158.114689 
L 789.67849 159.38892 
L 812.128352 156.931475 
L 812.128352 156.931475 
" clip-path="url(#pce8b35dcce)" style="fill: none; stroke: #ff7f0e; stroke-width: 2; stroke-linecap: square"/>
    <defs>
     <path id="m137d1a1f58" d="M 0 2 
C 0.530406 2 1.03916 1.789267 1.414214 1.414214 
C 1.789267 1.03916 2 0.530406 2 0 
C 2 -0.530406 1.789267 -1.03916 1.414214 -1.414214 
C 1.03916 -1.789267 0.530406 -2 0 -2 
C -0.530406 -2 -1.03916 -1.789267 -1.414214 -1.414214 
C -1.789267 -1.03916 -2 -0.530406 -2 0 
C -2 0.530406 -1.789267 1.03916 -1.414214 1.414214 
C -1.03916 1.789267 -0.530406 2 0 2 
z
" style="stroke: #ff7f0e"/>
    </defs>
    <g clip-path="url(#pce8b35dcce)">
     <use xlink:href="#m137d1a1f58" x="71.282898" y="222.645362" style="fill: #ff7f0e; stroke: #ff7f0e"/>
     <use xlink:href="#m137d1a1f58" x="86.249473" y="221.462148" style="fill: #ff7f0e; stroke: #ff7f0e"/>
     <use xlink:href="#m137d1a1f58" x="101.216047" y="219.823852" style="fill: #ff7f0e; stroke: #ff7f0e"/>
     <use xlink:href="#m137d1a1f58" x="123.66591" y="218.913687" style="fill: #ff7f0e; stroke: #ff7f0e"/>
     <use xlink:href="#m137d1a1f58" x="138.632485" y="177.592212" style="fill: #ff7f0e; stroke: #ff7f0e"/>
     <use xlink:href="#m137d1a1f58" x="146.115772" y="165.578039" style="fill: #ff7f0e; stroke: #ff7f0e"/>
     <use xlink:href="#m137d1a1f58" x="161.082347" y="174.224603" style="fill: #ff7f0e; stroke: #ff7f0e"/>
     <use xlink:href="#m137d1a1f58" x="176.048922" y="176.864081" style="fill: #ff7f0e; stroke: #ff7f0e"/>
     <use xlink:href="#m137d1a1f58" x="198.498784" y="181.596937" style="fill: #ff7f0e; stroke: #ff7f0e"/>
     <use xlink:href="#m137d1a1f58" x="213.465359" y="165.851088" style="fill: #ff7f0e; stroke: #ff7f0e"/>
     <use xlink:href="#m137d1a1f58" x="228.431934" y="157.750623" style="fill: #ff7f0e; stroke: #ff7f0e"/>
     <use xlink:href="#m137d1a1f58" x="243.398508" y="162.756529" style="fill: #ff7f0e; stroke: #ff7f0e"/>
     <use xlink:href="#m137d1a1f58" x="258.365083" y="166.943286" style="fill: #ff7f0e; stroke: #ff7f0e"/>
     <use xlink:href="#m137d1a1f58" x="273.331658" y="170.674961" style="fill: #ff7f0e; stroke: #ff7f0e"/>
     <use xlink:href="#m137d1a1f58" x="288.298233" y="163.393644" style="fill: #ff7f0e; stroke: #ff7f0e"/>
     <use xlink:href="#m137d1a1f58" x="295.78152" y="155.384195" style="fill: #ff7f0e; stroke: #ff7f0e"/>
     <use xlink:href="#m137d1a1f58" x="310.748095" y="159.297903" style="fill: #ff7f0e; stroke: #ff7f0e"/>
     <use xlink:href="#m137d1a1f58" x="333.197957" y="162.665512" style="fill: #ff7f0e; stroke: #ff7f0e"/>
     <use xlink:href="#m137d1a1f58" x="348.164532" y="165.669056" style="fill: #ff7f0e; stroke: #ff7f0e"/>
     <use xlink:href="#m137d1a1f58" x="363.131107" y="164.121776" style="fill: #ff7f0e; stroke: #ff7f0e"/>
     <use xlink:href="#m137d1a1f58" x="378.097682" y="160.026035" style="fill: #ff7f0e; stroke: #ff7f0e"/>
     <use xlink:href="#m137d1a1f58" x="393.064257" y="162.938562" style="fill: #ff7f0e; stroke: #ff7f0e"/>
     <use xlink:href="#m137d1a1f58" x="400.547544" y="165.122957" style="fill: #ff7f0e; stroke: #ff7f0e"/>
     <use xlink:href="#m137d1a1f58" x="422.997406" y="167.216335" style="fill: #ff7f0e; stroke: #ff7f0e"/>
     <use xlink:href="#m137d1a1f58" x="437.963981" y="163.302628" style="fill: #ff7f0e; stroke: #ff7f0e"/>
     <use xlink:href="#m137d1a1f58" x="452.930556" y="159.844002" style="fill: #ff7f0e; stroke: #ff7f0e"/>
     <use xlink:href="#m137d1a1f58" x="460.413844" y="162.119413" style="fill: #ff7f0e; stroke: #ff7f0e"/>
     <use xlink:href="#m137d1a1f58" x="482.863706" y="164.303809" style="fill: #ff7f0e; stroke: #ff7f0e"/>
     <use xlink:href="#m137d1a1f58" x="497.830281" y="166.215154" style="fill: #ff7f0e; stroke: #ff7f0e"/>
     <use xlink:href="#m137d1a1f58" x="512.796855" y="160.481117" style="fill: #ff7f0e; stroke: #ff7f0e"/>
     <use xlink:href="#m137d1a1f58" x="527.76343" y="157.932656" style="fill: #ff7f0e; stroke: #ff7f0e"/>
     <use xlink:href="#m137d1a1f58" x="535.246718" y="159.752985" style="fill: #ff7f0e; stroke: #ff7f0e"/>
     <use xlink:href="#m137d1a1f58" x="557.69658" y="161.573315" style="fill: #ff7f0e; stroke: #ff7f0e"/>
     <use xlink:href="#m137d1a1f58" x="565.179867" y="163.393644" style="fill: #ff7f0e; stroke: #ff7f0e"/>
     <use xlink:href="#m137d1a1f58" x="587.62973" y="160.481117" style="fill: #ff7f0e; stroke: #ff7f0e"/>
     <use xlink:href="#m137d1a1f58" x="595.113017" y="158.478755" style="fill: #ff7f0e; stroke: #ff7f0e"/>
     <use xlink:href="#m137d1a1f58" x="617.562879" y="160.299084" style="fill: #ff7f0e; stroke: #ff7f0e"/>
     <use xlink:href="#m137d1a1f58" x="625.046167" y="161.937381" style="fill: #ff7f0e; stroke: #ff7f0e"/>
     <use xlink:href="#m137d1a1f58" x="647.496029" y="163.302628" style="fill: #ff7f0e; stroke: #ff7f0e"/>
     <use xlink:href="#m137d1a1f58" x="662.462604" y="157.477574" style="fill: #ff7f0e; stroke: #ff7f0e"/>
     <use xlink:href="#m137d1a1f58" x="677.429179" y="156.112327" style="fill: #ff7f0e; stroke: #ff7f0e"/>
     <use xlink:href="#m137d1a1f58" x="684.912466" y="157.750623" style="fill: #ff7f0e; stroke: #ff7f0e"/>
     <use xlink:href="#m137d1a1f58" x="699.879041" y="159.297903" style="fill: #ff7f0e; stroke: #ff7f0e"/>
     <use xlink:href="#m137d1a1f58" x="722.328903" y="160.66315" style="fill: #ff7f0e; stroke: #ff7f0e"/>
     <use xlink:href="#m137d1a1f58" x="737.295478" y="157.113508" style="fill: #ff7f0e; stroke: #ff7f0e"/>
     <use xlink:href="#m137d1a1f58" x="744.778765" y="155.475212" style="fill: #ff7f0e; stroke: #ff7f0e"/>
     <use xlink:href="#m137d1a1f58" x="767.228628" y="156.749442" style="fill: #ff7f0e; stroke: #ff7f0e"/>
     <use xlink:href="#m137d1a1f58" x="774.711915" y="158.114689" style="fill: #ff7f0e; stroke: #ff7f0e"/>
     <use xlink:href="#m137d1a1f58" x="789.67849" y="159.38892" style="fill: #ff7f0e; stroke: #ff7f0e"/>
     <use xlink:href="#m137d1a1f58" x="812.128352" y="156.931475" style="fill: #ff7f0e; stroke: #ff7f0e"/>
     <use xlink:href="#m137d1a1f58" x="812.128352" y="156.931475" style="fill: #ff7f0e; stroke: #ff7f0e"/>
    </g>
   </g>
   <g id="patch_3">
    <path d="M 34.240625 530.918125 
L 34.240625 22.318125 
" style="fill: none; stroke: #000000; stroke-width: 0.8; stroke-linejoin: miter; stroke-linecap: square"/>
   </g>
   <g id="patch_4">
    <path d="M 849.170625 530.918125 
L 849.170625 22.318125 
" style="fill: none; stroke: #000000; stroke-width: 0.8; stroke-linejoin: miter; stroke-linecap: square"/>
   </g>
   <g id="patch_5">
    <path d="M 34.240625 530.918125 
L 849.170625 530.918125 
" style="fill: none; stroke: #000000; stroke-width: 0.8; stroke-linejoin: miter; stroke-linecap: square"/>
   </g>
   <g id="patch_6">
    <path d="M 34.240625 22.318125 
L 849.170625 22.318125 
" style="fill: none; stroke: #000000; stroke-width: 0.8; stroke-linejoin: miter; stroke-linecap: square"/>
   </g>
   <g id="text_14">
    <!-- Mean Latency Comparison Over Time -->
    <g transform="translate(328.975938 16.318125) scale(0.12 -0.12)">
     <defs>
      <path id="DejaVuSans-43" d="M 4122 4306 
L 4122 3641 
Q 3803 3938 3442 4084 
Q 3081 4231 2675 4231 
Q 1875 4231 1450 3742 
Q 1025 3253 1025 2328 
Q 1025 1406 1450 917 
Q 1875 428 2675 428 
Q 3081 428 3442 575 
Q 3803 722 4122 1019 
L 4122 359 
Q 3791 134 3420 21 
Q 3050 -91 2638 -91 
Q 1578 -91 968 557 
Q 359 1206 359 2328 
Q 359 3453 968 4101 
Q 1578 4750 2638 4750 
Q 3056 4750 3426 4639 
Q 3797 4528 4122 4306 
z
" transform="scale(0.015625)"/>
      <path id="DejaVuSans-72" d="M 2631 2963 
Q 2534 3019 2420 3045 
Q 2306 3072 2169 3072 
Q 1681 3072 1420 2755 
Q 1159 2438 1159 1844 
L 1159 0 
L 581 0 
L 581 3500 
L 1159 3500 
L 1159 2956 
Q 1341 3275 1631 3429 
Q 1922 3584 2338 3584 
Q 2397 3584 2469 3576 
Q 2541 3569 2628 3553 
L 2631 2963 
z
" transform="scale(0.015625)"/>
      <path id="DejaVuSans-4f" d="M 2522 4238 
Q 1834 4238 1429 3725 
Q 1025 3213 1025 2328 
Q 1025 1447 1429 934 
Q 1834 422 2522 422 
Q 3209 422 3611 934 
Q 4013 1447 4013 2328 
Q 4013 3213 3611 3725 
Q 3209 4238 2522 4238 
z
M 2522 4750 
Q 3503 4750 4090 4092 
Q 4678 3434 4678 2328 
Q 4678 1225 4090 567 
Q 3503 -91 2522 -91 
Q 1538 -91 948 565 
Q 359 1222 359 2328 
Q 359 3434 948 4092 
Q 1538 4750 2522 4750 
z
" transform="scale(0.015625)"/>
      <path id="DejaVuSans-76" d="M 191 3500 
L 800 3500 
L 1894 563 
L 2988 3500 
L 3597 3500 
L 2284 0 
L 1503 0 
L 191 3500 
z
" transform="scale(0.015625)"/>
     </defs>
     <use xlink:href="#DejaVuSans-4d"/>
     <use xlink:href="#DejaVuSans-65" x="86.279297"/>
     <use xlink:href="#DejaVuSans-61" x="147.802734"/>
     <use xlink:href="#DejaVuSans-6e" x="209.082031"/>
     <use xlink:href="#DejaVuSans-20" x="272.460938"/>
     <use xlink:href="#DejaVuSans-4c" x="304.248047"/>
     <use xlink:href="#DejaVuSans-61" x="359.960938"/>
     <use xlink:href="#DejaVuSans-74" x="421.240234"/>
     <use xlink:href="#DejaVuSans-65" x="460.449219"/>
     <use xlink:href="#DejaVuSans-6e" x="521.972656"/>
     <use xlink:href="#DejaVuSans-63" x="585.351562"/>
     <use xlink:href="#DejaVuSans-79" x="640.332031"/>
     <use xlink:href="#DejaVuSans-20" x="699.511719"/>
     <use xlink:href="#DejaVuSans-43" x="731.298828"/>
     <use xlink:href="#DejaVuSans-6f" x="801.123047"/>
     <use xlink:href="#DejaVuSans-6d" x="862.304688"/>
     <use xlink:href="#DejaVuSans-70" x="959.716797"/>
     <use xlink:href="#DejaVuSans-61" x="1023.193359"/>
     <use xlink:href="#DejaVuSans-72" x="1084.472656"/>
     <use xlink:href="#DejaVuSans-69" x="1125.585938"/>
     <use xlink:href="#DejaVuSans-73" x="1153.369141"/>
     <use xlink:href="#DejaVuSans-6f" x="1205.46875"/>
     <use xlink:href="#DejaVuSans-6e" x="1266.650391"/>
     <use xlink:href="#DejaVuSans-20" x="1330.029297"/>
     <use xlink:href="#DejaVuSans-4f" x="1361.816406"/>
     <use xlink:href="#DejaVuSans-76" x="1440.527344"/>
     <use xlink:href="#DejaVuSans-65" x="1499.707031"/>
     <use xlink:href="#DejaVuSans-72" x="1561.230469"/>
     <use xlink:href="#DejaVuSans-20" x="1602.34375"/>
     <use xlink:href="#DejaVuSans-54" x="1634.130859"/>
     <use xlink:href="#DejaVuSans-69" x="1692.089844"/>
     <use xlink:href="#DejaVuSans-6d" x="1719.873047"/>
     <use xlink:href="#DejaVuSans-65" x="1817.285156"/>
    </g>
   </g>
   <g id="legend_1">
    <g id="patch_7">
     <path d="M 773.528438 74.3525 
L 842.170625 74.3525 
Q 844.170625 74.3525 844.170625 72.3525 
L 844.170625 29.318125 
Q 844.170625 27.318125 842.170625 27.318125 
L 773.528438 27.318125 
Q 771.528438 27.318125 771.528438 29.318125 
L 771.528438 72.3525 
Q 771.528438 74.3525 773.528438 74.3525 
z
" style="fill: #ffffff; opacity: 0.8; stroke: #cccccc; stroke-linejoin: miter"/>
    </g>
    <g id="line2d_26">
     <path d="M 775.528438 35.416562 
L 785.528438 35.416562 
L 795.528438 35.416562 
" style="fill: none; stroke: #2ca02c; stroke-width: 2; stroke-linecap: square"/>
     <g>
      <use xlink:href="#m91b4b63159" x="785.528438" y="35.416562" style="fill: #2ca02c; stroke: #2ca02c"/>
     </g>
    </g>
    <g id="text_15">
     <!-- weaver -->
     <g transform="translate(803.528438 38.916562) scale(0.1 -0.1)">
      <defs>
       <path id="DejaVuSans-77" d="M 269 3500 
L 844 3500 
L 1563 769 
L 2278 3500 
L 2956 3500 
L 3675 769 
L 4391 3500 
L 4966 3500 
L 4050 0 
L 3372 0 
L 2619 2869 
L 1863 0 
L 1184 0 
L 269 3500 
z
" transform="scale(0.015625)"/>
      </defs>
      <use xlink:href="#DejaVuSans-77"/>
      <use xlink:href="#DejaVuSans-65" x="81.787109"/>
      <use xlink:href="#DejaVuSans-61" x="143.310547"/>
      <use xlink:href="#DejaVuSans-76" x="204.589844"/>
      <use xlink:href="#DejaVuSans-65" x="263.769531"/>
      <use xlink:href="#DejaVuSans-72" x="325.292969"/>
     </g>
    </g>
    <g id="line2d_27">
     <path d="M 775.528438 50.094687 
L 785.528438 50.094687 
L 795.528438 50.094687 
" style="fill: none; stroke: #1f77b4; stroke-width: 2; stroke-linecap: square"/>
     <g>
      <use xlink:href="#m9ccdb43402" x="785.528438" y="50.094687" style="fill: #1f77b4; stroke: #1f77b4"/>
     </g>
    </g>
    <g id="text_16">
     <!-- node -->
     <g transform="translate(803.528438 53.594687) scale(0.1 -0.1)">
      <use xlink:href="#DejaVuSans-6e"/>
      <use xlink:href="#DejaVuSans-6f" x="63.378906"/>
      <use xlink:href="#DejaVuSans-64" x="124.560547"/>
      <use xlink:href="#DejaVuSans-65" x="188.037109"/>
     </g>
    </g>
    <g id="line2d_28">
     <path d="M 775.528438 64.772812 
L 785.528438 64.772812 
L 795.528438 64.772812 
" style="fill: none; stroke: #ff7f0e; stroke-width: 2; stroke-linecap: square"/>
     <g>
      <use xlink:href="#m137d1a1f58" x="785.528438" y="64.772812" style="fill: #ff7f0e; stroke: #ff7f0e"/>
     </g>
    </g>
    <g id="text_17">
     <!-- python -->
     <g transform="translate(803.528438 68.272812) scale(0.1 -0.1)">
      <defs>
       <path id="DejaVuSans-68" d="M 3513 2113 
L 3513 0 
L 2938 0 
L 2938 2094 
Q 2938 2591 2744 2837 
Q 2550 3084 2163 3084 
Q 1697 3084 1428 2787 
Q 1159 2491 1159 1978 
L 1159 0 
L 581 0 
L 581 4863 
L 1159 4863 
L 1159 2956 
Q 1366 3272 1645 3428 
Q 1925 3584 2291 3584 
Q 2894 3584 3203 3211 
Q 3513 2838 3513 2113 
z
" transform="scale(0.015625)"/>
      </defs>
      <use xlink:href="#DejaVuSans-70"/>
      <use xlink:href="#DejaVuSans-79" x="63.476562"/>
      <use xlink:href="#DejaVuSans-74" x="122.65625"/>
      <use xlink:href="#DejaVuSans-68" x="161.865234"/>
      <use xlink:href="#DejaVuSans-6f" x="225.244141"/>
      <use xlink:href="#DejaVuSans-6e" x="286.425781"/>
     </g>
    </g>
   </g>
  </g>
 </g>
 <defs>
  <clipPath id="pce8b35dcce">
   <rect x="34.240625" y="22.318125" width="814.93" height="508.6"/>
  </clipPath>
 </defs>
</svg>
