<?xml version="1.0" encoding="utf-8" standalone="no"?>
<!DOCTYPE svg PUBLIC "-//W3C//DTD SVG 1.1//EN"
  "http://www.w3.org/Graphics/SVG/1.1/DTD/svg11.dtd">
<svg xmlns:xlink="http://www.w3.org/1999/xlink" width="856.288125pt" height="568.474375pt" viewBox="0 0 856.288125 568.474375" xmlns="http://www.w3.org/2000/svg" version="1.1">
 <metadata>
  <rdf:RDF xmlns:dc="http://purl.org/dc/elements/1.1/" xmlns:cc="http://creativecommons.org/ns#" xmlns:rdf="http://www.w3.org/1999/02/22-rdf-syntax-ns#">
   <cc:Work>
    <dc:type rdf:resource="http://purl.org/dc/dcmitype/StillImage"/>
    <dc:date>2025-06-28T07:45:54.878897</dc:date>
    <dc:format>image/svg+xml</dc:format>
    <dc:creator>
     <cc:Agent>
      <dc:title>Matplotlib v3.6.3, https://matplotlib.org/</dc:title>
     </cc:Agent>
    </dc:creator>
   </cc:Work>
  </rdf:RDF>
 </metadata>
 <defs>
  <style type="text/css">*{stroke-linejoin: round; stroke-linecap: butt}</style>
 </defs>
 <g id="figure_1">
  <g id="patch_1">
   <path d="M 0 568.474375 
L 856.288125 568.474375 
L 856.288125 0 
L 0 0 
z
" style="fill: #ffffff"/>
  </g>
  <g id="axes_1">
   <g id="patch_2">
    <path d="M 53.328125 530.918125 
L 849.088125 530.918125 
L 849.088125 22.318125 
L 53.328125 22.318125 
z
" style="fill: #ffffff"/>
   </g>
   <g id="matplotlib.axis_1">
    <g id="xtick_1">
     <g id="line2d_1">
      <path d="M 88.520089 530.918125 
L 88.520089 22.318125 
" clip-path="url(#pb4b9d84cc0)" style="fill: none; stroke: #b0b0b0; stroke-opacity: 0.3; stroke-width: 0.8; stroke-linecap: square"/>
     </g>
     <g id="line2d_2">
      <defs>
       <path id="me71ecf6b3f" d="M 0 0 
L 0 3.5 
" style="stroke: #000000; stroke-width: 0.8"/>
      </defs>
      <g>
       <use xlink:href="#me71ecf6b3f" x="88.520089" y="530.918125" style="stroke: #000000; stroke-width: 0.8"/>
      </g>
     </g>
     <g id="text_1">
      <!-- 0 -->
      <g transform="translate(85.338839 545.516562) scale(0.1 -0.1)">
       <defs>
        <path id="DejaVuSans-30" d="M 2034 4250 
Q 1547 4250 1301 3770 
Q 1056 3291 1056 2328 
Q 1056 1369 1301 889 
Q 1547 409 2034 409 
Q 2525 409 2770 889 
Q 3016 1369 3016 2328 
Q 3016 3291 2770 3770 
Q 2525 4250 2034 4250 
z
M 2034 4750 
Q 2819 4750 3233 4129 
Q 3647 3509 3647 2328 
Q 3647 1150 3233 529 
Q 2819 -91 2034 -91 
Q 1250 -91 836 529 
Q 422 1150 422 2328 
Q 422 3509 836 4129 
Q 1250 4750 2034 4750 
z
" transform="scale(0.015625)"/>
       </defs>
       <use xlink:href="#DejaVuSans-30"/>
      </g>
     </g>
    </g>
    <g id="xtick_2">
     <g id="line2d_3">
      <path d="M 200.23716 530.918125 
L 200.23716 22.318125 
" clip-path="url(#pb4b9d84cc0)" style="fill: none; stroke: #b0b0b0; stroke-opacity: 0.3; stroke-width: 0.8; stroke-linecap: square"/>
     </g>
     <g id="line2d_4">
      <g>
       <use xlink:href="#me71ecf6b3f" x="200.23716" y="530.918125" style="stroke: #000000; stroke-width: 0.8"/>
      </g>
     </g>
     <g id="text_2">
      <!-- 2 -->
      <g transform="translate(197.05591 545.516562) scale(0.1 -0.1)">
       <defs>
        <path id="DejaVuSans-32" d="M 1228 531 
L 3431 531 
L 3431 0 
L 469 0 
L 469 531 
Q 828 903 1448 1529 
Q 2069 2156 2228 2338 
Q 2531 2678 2651 2914 
Q 2772 3150 2772 3378 
Q 2772 3750 2511 3984 
Q 2250 4219 1831 4219 
Q 1534 4219 1204 4116 
Q 875 4013 500 3803 
L 500 4441 
Q 881 4594 1212 4672 
Q 1544 4750 1819 4750 
Q 2544 4750 2975 4387 
Q 3406 4025 3406 3419 
Q 3406 3131 3298 2873 
Q 3191 2616 2906 2266 
Q 2828 2175 2409 1742 
Q 1991 1309 1228 531 
z
" transform="scale(0.015625)"/>
       </defs>
       <use xlink:href="#DejaVuSans-32"/>
      </g>
     </g>
    </g>
    <g id="xtick_3">
     <g id="line2d_5">
      <path d="M 311.954232 530.918125 
L 311.954232 22.318125 
" clip-path="url(#pb4b9d84cc0)" style="fill: none; stroke: #b0b0b0; stroke-opacity: 0.3; stroke-width: 0.8; stroke-linecap: square"/>
     </g>
     <g id="line2d_6">
      <g>
       <use xlink:href="#me71ecf6b3f" x="311.954232" y="530.918125" style="stroke: #000000; stroke-width: 0.8"/>
      </g>
     </g>
     <g id="text_3">
      <!-- 4 -->
      <g transform="translate(308.772982 545.516562) scale(0.1 -0.1)">
       <defs>
        <path id="DejaVuSans-34" d="M 2419 4116 
L 825 1625 
L 2419 1625 
L 2419 4116 
z
M 2253 4666 
L 3047 4666 
L 3047 1625 
L 3713 1625 
L 3713 1100 
L 3047 1100 
L 3047 0 
L 2419 0 
L 2419 1100 
L 313 1100 
L 313 1709 
L 2253 4666 
z
" transform="scale(0.015625)"/>
       </defs>
       <use xlink:href="#DejaVuSans-34"/>
      </g>
     </g>
    </g>
    <g id="xtick_4">
     <g id="line2d_7">
      <path d="M 423.671303 530.918125 
L 423.671303 22.318125 
" clip-path="url(#pb4b9d84cc0)" style="fill: none; stroke: #b0b0b0; stroke-opacity: 0.3; stroke-width: 0.8; stroke-linecap: square"/>
     </g>
     <g id="line2d_8">
      <g>
       <use xlink:href="#me71ecf6b3f" x="423.671303" y="530.918125" style="stroke: #000000; stroke-width: 0.8"/>
      </g>
     </g>
     <g id="text_4">
      <!-- 6 -->
      <g transform="translate(420.490053 545.516562) scale(0.1 -0.1)">
       <defs>
        <path id="DejaVuSans-36" d="M 2113 2584 
Q 1688 2584 1439 2293 
Q 1191 2003 1191 1497 
Q 1191 994 1439 701 
Q 1688 409 2113 409 
Q 2538 409 2786 701 
Q 3034 994 3034 1497 
Q 3034 2003 2786 2293 
Q 2538 2584 2113 2584 
z
M 3366 4563 
L 3366 3988 
Q 3128 4100 2886 4159 
Q 2644 4219 2406 4219 
Q 1781 4219 1451 3797 
Q 1122 3375 1075 2522 
Q 1259 2794 1537 2939 
Q 1816 3084 2150 3084 
Q 2853 3084 3261 2657 
Q 3669 2231 3669 1497 
Q 3669 778 3244 343 
Q 2819 -91 2113 -91 
Q 1303 -91 875 529 
Q 447 1150 447 2328 
Q 447 3434 972 4092 
Q 1497 4750 2381 4750 
Q 2619 4750 2861 4703 
Q 3103 4656 3366 4563 
z
" transform="scale(0.015625)"/>
       </defs>
       <use xlink:href="#DejaVuSans-36"/>
      </g>
     </g>
    </g>
    <g id="xtick_5">
     <g id="line2d_9">
      <path d="M 535.388375 530.918125 
L 535.388375 22.318125 
" clip-path="url(#pb4b9d84cc0)" style="fill: none; stroke: #b0b0b0; stroke-opacity: 0.3; stroke-width: 0.8; stroke-linecap: square"/>
     </g>
     <g id="line2d_10">
      <g>
       <use xlink:href="#me71ecf6b3f" x="535.388375" y="530.918125" style="stroke: #000000; stroke-width: 0.8"/>
      </g>
     </g>
     <g id="text_5">
      <!-- 8 -->
      <g transform="translate(532.207125 545.516562) scale(0.1 -0.1)">
       <defs>
        <path id="DejaVuSans-38" d="M 2034 2216 
Q 1584 2216 1326 1975 
Q 1069 1734 1069 1313 
Q 1069 891 1326 650 
Q 1584 409 2034 409 
Q 2484 409 2743 651 
Q 3003 894 3003 1313 
Q 3003 1734 2745 1975 
Q 2488 2216 2034 2216 
z
M 1403 2484 
Q 997 2584 770 2862 
Q 544 3141 544 3541 
Q 544 4100 942 4425 
Q 1341 4750 2034 4750 
Q 2731 4750 3128 4425 
Q 3525 4100 3525 3541 
Q 3525 3141 3298 2862 
Q 3072 2584 2669 2484 
Q 3125 2378 3379 2068 
Q 3634 1759 3634 1313 
Q 3634 634 3220 271 
Q 2806 -91 2034 -91 
Q 1263 -91 848 271 
Q 434 634 434 1313 
Q 434 1759 690 2068 
Q 947 2378 1403 2484 
z
M 1172 3481 
Q 1172 3119 1398 2916 
Q 1625 2713 2034 2713 
Q 2441 2713 2670 2916 
Q 2900 3119 2900 3481 
Q 2900 3844 2670 4047 
Q 2441 4250 2034 4250 
Q 1625 4250 1398 4047 
Q 1172 3844 1172 3481 
z
" transform="scale(0.015625)"/>
       </defs>
       <use xlink:href="#DejaVuSans-38"/>
      </g>
     </g>
    </g>
    <g id="xtick_6">
     <g id="line2d_11">
      <path d="M 647.105446 530.918125 
L 647.105446 22.318125 
" clip-path="url(#pb4b9d84cc0)" style="fill: none; stroke: #b0b0b0; stroke-opacity: 0.3; stroke-width: 0.8; stroke-linecap: square"/>
     </g>
     <g id="line2d_12">
      <g>
       <use xlink:href="#me71ecf6b3f" x="647.105446" y="530.918125" style="stroke: #000000; stroke-width: 0.8"/>
      </g>
     </g>
     <g id="text_6">
      <!-- 10 -->
      <g transform="translate(640.742946 545.516562) scale(0.1 -0.1)">
       <defs>
        <path id="DejaVuSans-31" d="M 794 531 
L 1825 531 
L 1825 4091 
L 703 3866 
L 703 4441 
L 1819 4666 
L 2450 4666 
L 2450 531 
L 3481 531 
L 3481 0 
L 794 0 
L 794 531 
z
" transform="scale(0.015625)"/>
       </defs>
       <use xlink:href="#DejaVuSans-31"/>
       <use xlink:href="#DejaVuSans-30" x="63.623047"/>
      </g>
     </g>
    </g>
    <g id="xtick_7">
     <g id="line2d_13">
      <path d="M 758.822518 530.918125 
L 758.822518 22.318125 
" clip-path="url(#pb4b9d84cc0)" style="fill: none; stroke: #b0b0b0; stroke-opacity: 0.3; stroke-width: 0.8; stroke-linecap: square"/>
     </g>
     <g id="line2d_14">
      <g>
       <use xlink:href="#me71ecf6b3f" x="758.822518" y="530.918125" style="stroke: #000000; stroke-width: 0.8"/>
      </g>
     </g>
     <g id="text_7">
      <!-- 12 -->
      <g transform="translate(752.460018 545.516562) scale(0.1 -0.1)">
       <use xlink:href="#DejaVuSans-31"/>
       <use xlink:href="#DejaVuSans-32" x="63.623047"/>
      </g>
     </g>
    </g>
    <g id="text_8">
     <!-- Elapsed Time (seconds) -->
     <g transform="translate(391.815156 559.194687) scale(0.1 -0.1)">
      <defs>
       <path id="DejaVuSans-45" d="M 628 4666 
L 3578 4666 
L 3578 4134 
L 1259 4134 
L 1259 2753 
L 3481 2753 
L 3481 2222 
L 1259 2222 
L 1259 531 
L 3634 531 
L 3634 0 
L 628 0 
L 628 4666 
z
" transform="scale(0.015625)"/>
       <path id="DejaVuSans-6c" d="M 603 4863 
L 1178 4863 
L 1178 0 
L 603 0 
L 603 4863 
z
" transform="scale(0.015625)"/>
       <path id="DejaVuSans-61" d="M 2194 1759 
Q 1497 1759 1228 1600 
Q 959 1441 959 1056 
Q 959 750 1161 570 
Q 1363 391 1709 391 
Q 2188 391 2477 730 
Q 2766 1069 2766 1631 
L 2766 1759 
L 2194 1759 
z
M 3341 1997 
L 3341 0 
L 2766 0 
L 2766 531 
Q 2569 213 2275 61 
Q 1981 -91 1556 -91 
Q 1019 -91 701 211 
Q 384 513 384 1019 
Q 384 1609 779 1909 
Q 1175 2209 1959 2209 
L 2766 2209 
L 2766 2266 
Q 2766 2663 2505 2880 
Q 2244 3097 1772 3097 
Q 1472 3097 1187 3025 
Q 903 2953 641 2809 
L 641 3341 
Q 956 3463 1253 3523 
Q 1550 3584 1831 3584 
Q 2591 3584 2966 3190 
Q 3341 2797 3341 1997 
z
" transform="scale(0.015625)"/>
       <path id="DejaVuSans-70" d="M 1159 525 
L 1159 -1331 
L 581 -1331 
L 581 3500 
L 1159 3500 
L 1159 2969 
Q 1341 3281 1617 3432 
Q 1894 3584 2278 3584 
Q 2916 3584 3314 3078 
Q 3713 2572 3713 1747 
Q 3713 922 3314 415 
Q 2916 -91 2278 -91 
Q 1894 -91 1617 61 
Q 1341 213 1159 525 
z
M 3116 1747 
Q 3116 2381 2855 2742 
Q 2594 3103 2138 3103 
Q 1681 3103 1420 2742 
Q 1159 2381 1159 1747 
Q 1159 1113 1420 752 
Q 1681 391 2138 391 
Q 2594 391 2855 752 
Q 3116 1113 3116 1747 
z
" transform="scale(0.015625)"/>
       <path id="DejaVuSans-73" d="M 2834 3397 
L 2834 2853 
Q 2591 2978 2328 3040 
Q 2066 3103 1784 3103 
Q 1356 3103 1142 2972 
Q 928 2841 928 2578 
Q 928 2378 1081 2264 
Q 1234 2150 1697 2047 
L 1894 2003 
Q 2506 1872 2764 1633 
Q 3022 1394 3022 966 
Q 3022 478 2636 193 
Q 2250 -91 1575 -91 
Q 1294 -91 989 -36 
Q 684 19 347 128 
L 347 722 
Q 666 556 975 473 
Q 1284 391 1588 391 
Q 1994 391 2212 530 
Q 2431 669 2431 922 
Q 2431 1156 2273 1281 
Q 2116 1406 1581 1522 
L 1381 1569 
Q 847 1681 609 1914 
Q 372 2147 372 2553 
Q 372 3047 722 3315 
Q 1072 3584 1716 3584 
Q 2034 3584 2315 3537 
Q 2597 3491 2834 3397 
z
" transform="scale(0.015625)"/>
       <path id="DejaVuSans-65" d="M 3597 1894 
L 3597 1613 
L 953 1613 
Q 991 1019 1311 708 
Q 1631 397 2203 397 
Q 2534 397 2845 478 
Q 3156 559 3463 722 
L 3463 178 
Q 3153 47 2828 -22 
Q 2503 -91 2169 -91 
Q 1331 -91 842 396 
Q 353 884 353 1716 
Q 353 2575 817 3079 
Q 1281 3584 2069 3584 
Q 2775 3584 3186 3129 
Q 3597 2675 3597 1894 
z
M 3022 2063 
Q 3016 2534 2758 2815 
Q 2500 3097 2075 3097 
Q 1594 3097 1305 2825 
Q 1016 2553 972 2059 
L 3022 2063 
z
" transform="scale(0.015625)"/>
       <path id="DejaVuSans-64" d="M 2906 2969 
L 2906 4863 
L 3481 4863 
L 3481 0 
L 2906 0 
L 2906 525 
Q 2725 213 2448 61 
Q 2172 -91 1784 -91 
Q 1150 -91 751 415 
Q 353 922 353 1747 
Q 353 2572 751 3078 
Q 1150 3584 1784 3584 
Q 2172 3584 2448 3432 
Q 2725 3281 2906 2969 
z
M 947 1747 
Q 947 1113 1208 752 
Q 1469 391 1925 391 
Q 2381 391 2643 752 
Q 2906 1113 2906 1747 
Q 2906 2381 2643 2742 
Q 2381 3103 1925 3103 
Q 1469 3103 1208 2742 
Q 947 2381 947 1747 
z
" transform="scale(0.015625)"/>
       <path id="DejaVuSans-20" transform="scale(0.015625)"/>
       <path id="DejaVuSans-54" d="M -19 4666 
L 3928 4666 
L 3928 4134 
L 2272 4134 
L 2272 0 
L 1638 0 
L 1638 4134 
L -19 4134 
L -19 4666 
z
" transform="scale(0.015625)"/>
       <path id="DejaVuSans-69" d="M 603 3500 
L 1178 3500 
L 1178 0 
L 603 0 
L 603 3500 
z
M 603 4863 
L 1178 4863 
L 1178 4134 
L 603 4134 
L 603 4863 
z
" transform="scale(0.015625)"/>
       <path id="DejaVuSans-6d" d="M 3328 2828 
Q 3544 3216 3844 3400 
Q 4144 3584 4550 3584 
Q 5097 3584 5394 3201 
Q 5691 2819 5691 2113 
L 5691 0 
L 5113 0 
L 5113 2094 
Q 5113 2597 4934 2840 
Q 4756 3084 4391 3084 
Q 3944 3084 3684 2787 
Q 3425 2491 3425 1978 
L 3425 0 
L 2847 0 
L 2847 2094 
Q 2847 2600 2669 2842 
Q 2491 3084 2119 3084 
Q 1678 3084 1418 2786 
Q 1159 2488 1159 1978 
L 1159 0 
L 581 0 
L 581 3500 
L 1159 3500 
L 1159 2956 
Q 1356 3278 1631 3431 
Q 1906 3584 2284 3584 
Q 2666 3584 2933 3390 
Q 3200 3197 3328 2828 
z
" transform="scale(0.015625)"/>
       <path id="DejaVuSans-28" d="M 1984 4856 
Q 1566 4138 1362 3434 
Q 1159 2731 1159 2009 
Q 1159 1288 1364 580 
Q 1569 -128 1984 -844 
L 1484 -844 
Q 1016 -109 783 600 
Q 550 1309 550 2009 
Q 550 2706 781 3412 
Q 1013 4119 1484 4856 
L 1984 4856 
z
" transform="scale(0.015625)"/>
       <path id="DejaVuSans-63" d="M 3122 3366 
L 3122 2828 
Q 2878 2963 2633 3030 
Q 2388 3097 2138 3097 
Q 1578 3097 1268 2742 
Q 959 2388 959 1747 
Q 959 1106 1268 751 
Q 1578 397 2138 397 
Q 2388 397 2633 464 
Q 2878 531 3122 666 
L 3122 134 
Q 2881 22 2623 -34 
Q 2366 -91 2075 -91 
Q 1284 -91 818 406 
Q 353 903 353 1747 
Q 353 2603 823 3093 
Q 1294 3584 2113 3584 
Q 2378 3584 2631 3529 
Q 2884 3475 3122 3366 
z
" transform="scale(0.015625)"/>
       <path id="DejaVuSans-6f" d="M 1959 3097 
Q 1497 3097 1228 2736 
Q 959 2375 959 1747 
Q 959 1119 1226 758 
Q 1494 397 1959 397 
Q 2419 397 2687 759 
Q 2956 1122 2956 1747 
Q 2956 2369 2687 2733 
Q 2419 3097 1959 3097 
z
M 1959 3584 
Q 2709 3584 3137 3096 
Q 3566 2609 3566 1747 
Q 3566 888 3137 398 
Q 2709 -91 1959 -91 
Q 1206 -91 779 398 
Q 353 888 353 1747 
Q 353 2609 779 3096 
Q 1206 3584 1959 3584 
z
" transform="scale(0.015625)"/>
       <path id="DejaVuSans-6e" d="M 3513 2113 
L 3513 0 
L 2938 0 
L 2938 2094 
Q 2938 2591 2744 2837 
Q 2550 3084 2163 3084 
Q 1697 3084 1428 2787 
Q 1159 2491 1159 1978 
L 1159 0 
L 581 0 
L 581 3500 
L 1159 3500 
L 1159 2956 
Q 1366 3272 1645 3428 
Q 1925 3584 2291 3584 
Q 2894 3584 3203 3211 
Q 3513 2838 3513 2113 
z
" transform="scale(0.015625)"/>
       <path id="DejaVuSans-29" d="M 513 4856 
L 1013 4856 
Q 1481 4119 1714 3412 
Q 1947 2706 1947 2009 
Q 1947 1309 1714 600 
Q 1481 -109 1013 -844 
L 513 -844 
Q 928 -128 1133 580 
Q 1338 1288 1338 2009 
Q 1338 2731 1133 3434 
Q 928 4138 513 4856 
z
" transform="scale(0.015625)"/>
      </defs>
      <use xlink:href="#DejaVuSans-45"/>
      <use xlink:href="#DejaVuSans-6c" x="63.183594"/>
      <use xlink:href="#DejaVuSans-61" x="90.966797"/>
      <use xlink:href="#DejaVuSans-70" x="152.246094"/>
      <use xlink:href="#DejaVuSans-73" x="215.722656"/>
      <use xlink:href="#DejaVuSans-65" x="267.822266"/>
      <use xlink:href="#DejaVuSans-64" x="329.345703"/>
      <use xlink:href="#DejaVuSans-20" x="392.822266"/>
      <use xlink:href="#DejaVuSans-54" x="424.609375"/>
      <use xlink:href="#DejaVuSans-69" x="482.568359"/>
      <use xlink:href="#DejaVuSans-6d" x="510.351562"/>
      <use xlink:href="#DejaVuSans-65" x="607.763672"/>
      <use xlink:href="#DejaVuSans-20" x="669.287109"/>
      <use xlink:href="#DejaVuSans-28" x="701.074219"/>
      <use xlink:href="#DejaVuSans-73" x="740.087891"/>
      <use xlink:href="#DejaVuSans-65" x="792.1875"/>
      <use xlink:href="#DejaVuSans-63" x="853.710938"/>
      <use xlink:href="#DejaVuSans-6f" x="908.691406"/>
      <use xlink:href="#DejaVuSans-6e" x="969.873047"/>
      <use xlink:href="#DejaVuSans-64" x="1033.251953"/>
      <use xlink:href="#DejaVuSans-73" x="1096.728516"/>
      <use xlink:href="#DejaVuSans-29" x="1148.828125"/>
     </g>
    </g>
   </g>
   <g id="matplotlib.axis_2">
    <g id="ytick_1">
     <g id="line2d_15">
      <path d="M 53.328125 522.323515 
L 849.088125 522.323515 
" clip-path="url(#pb4b9d84cc0)" style="fill: none; stroke: #b0b0b0; stroke-opacity: 0.3; stroke-width: 0.8; stroke-linecap: square"/>
     </g>
     <g id="line2d_16">
      <defs>
       <path id="m3d5b7e35a9" d="M 0 0 
L -3.5 0 
" style="stroke: #000000; stroke-width: 0.8"/>
      </defs>
      <g>
       <use xlink:href="#m3d5b7e35a9" x="53.328125" y="522.323515" style="stroke: #000000; stroke-width: 0.8"/>
      </g>
     </g>
     <g id="text_9">
      <!-- 0 -->
      <g transform="translate(39.965625 526.122734) scale(0.1 -0.1)">
       <use xlink:href="#DejaVuSans-30"/>
      </g>
     </g>
    </g>
    <g id="ytick_2">
     <g id="line2d_17">
      <path d="M 53.328125 430.36125 
L 849.088125 430.36125 
" clip-path="url(#pb4b9d84cc0)" style="fill: none; stroke: #b0b0b0; stroke-opacity: 0.3; stroke-width: 0.8; stroke-linecap: square"/>
     </g>
     <g id="line2d_18">
      <g>
       <use xlink:href="#m3d5b7e35a9" x="53.328125" y="430.36125" style="stroke: #000000; stroke-width: 0.8"/>
      </g>
     </g>
     <g id="text_10">
      <!-- 200 -->
      <g transform="translate(27.240625 434.160469) scale(0.1 -0.1)">
       <use xlink:href="#DejaVuSans-32"/>
       <use xlink:href="#DejaVuSans-30" x="63.623047"/>
       <use xlink:href="#DejaVuSans-30" x="127.246094"/>
      </g>
     </g>
    </g>
    <g id="ytick_3">
     <g id="line2d_19">
      <path d="M 53.328125 338.398985 
L 849.088125 338.398985 
" clip-path="url(#pb4b9d84cc0)" style="fill: none; stroke: #b0b0b0; stroke-opacity: 0.3; stroke-width: 0.8; stroke-linecap: square"/>
     </g>
     <g id="line2d_20">
      <g>
       <use xlink:href="#m3d5b7e35a9" x="53.328125" y="338.398985" style="stroke: #000000; stroke-width: 0.8"/>
      </g>
     </g>
     <g id="text_11">
      <!-- 400 -->
      <g transform="translate(27.240625 342.198204) scale(0.1 -0.1)">
       <use xlink:href="#DejaVuSans-34"/>
       <use xlink:href="#DejaVuSans-30" x="63.623047"/>
       <use xlink:href="#DejaVuSans-30" x="127.246094"/>
      </g>
     </g>
    </g>
    <g id="ytick_4">
     <g id="line2d_21">
      <path d="M 53.328125 246.43672 
L 849.088125 246.43672 
" clip-path="url(#pb4b9d84cc0)" style="fill: none; stroke: #b0b0b0; stroke-opacity: 0.3; stroke-width: 0.8; stroke-linecap: square"/>
     </g>
     <g id="line2d_22">
      <g>
       <use xlink:href="#m3d5b7e35a9" x="53.328125" y="246.43672" style="stroke: #000000; stroke-width: 0.8"/>
      </g>
     </g>
     <g id="text_12">
      <!-- 600 -->
      <g transform="translate(27.240625 250.235939) scale(0.1 -0.1)">
       <use xlink:href="#DejaVuSans-36"/>
       <use xlink:href="#DejaVuSans-30" x="63.623047"/>
       <use xlink:href="#DejaVuSans-30" x="127.246094"/>
      </g>
     </g>
    </g>
    <g id="ytick_5">
     <g id="line2d_23">
      <path d="M 53.328125 154.474456 
L 849.088125 154.474456 
" clip-path="url(#pb4b9d84cc0)" style="fill: none; stroke: #b0b0b0; stroke-opacity: 0.3; stroke-width: 0.8; stroke-linecap: square"/>
     </g>
     <g id="line2d_24">
      <g>
       <use xlink:href="#m3d5b7e35a9" x="53.328125" y="154.474456" style="stroke: #000000; stroke-width: 0.8"/>
      </g>
     </g>
     <g id="text_13">
      <!-- 800 -->
      <g transform="translate(27.240625 158.273674) scale(0.1 -0.1)">
       <use xlink:href="#DejaVuSans-38"/>
       <use xlink:href="#DejaVuSans-30" x="63.623047"/>
       <use xlink:href="#DejaVuSans-30" x="127.246094"/>
      </g>
     </g>
    </g>
    <g id="ytick_6">
     <g id="line2d_25">
      <path d="M 53.328125 62.512191 
L 849.088125 62.512191 
" clip-path="url(#pb4b9d84cc0)" style="fill: none; stroke: #b0b0b0; stroke-opacity: 0.3; stroke-width: 0.8; stroke-linecap: square"/>
     </g>
     <g id="line2d_26">
      <g>
       <use xlink:href="#m3d5b7e35a9" x="53.328125" y="62.512191" style="stroke: #000000; stroke-width: 0.8"/>
      </g>
     </g>
     <g id="text_14">
      <!-- 1000 -->
      <g transform="translate(20.878125 66.311409) scale(0.1 -0.1)">
       <use xlink:href="#DejaVuSans-31"/>
       <use xlink:href="#DejaVuSans-30" x="63.623047"/>
       <use xlink:href="#DejaVuSans-30" x="127.246094"/>
       <use xlink:href="#DejaVuSans-30" x="190.869141"/>
      </g>
     </g>
    </g>
    <g id="text_15">
     <!-- Memory Usage (MB) -->
     <g transform="translate(14.798438 327.356406) rotate(-90) scale(0.1 -0.1)">
      <defs>
       <path id="DejaVuSans-4d" d="M 628 4666 
L 1569 4666 
L 2759 1491 
L 3956 4666 
L 4897 4666 
L 4897 0 
L 4281 0 
L 4281 4097 
L 3078 897 
L 2444 897 
L 1241 4097 
L 1241 0 
L 628 0 
L 628 4666 
z
" transform="scale(0.015625)"/>
       <path id="DejaVuSans-72" d="M 2631 2963 
Q 2534 3019 2420 3045 
Q 2306 3072 2169 3072 
Q 1681 3072 1420 2755 
Q 1159 2438 1159 1844 
L 1159 0 
L 581 0 
L 581 3500 
L 1159 3500 
L 1159 2956 
Q 1341 3275 1631 3429 
Q 1922 3584 2338 3584 
Q 2397 3584 2469 3576 
Q 2541 3569 2628 3553 
L 2631 2963 
z
" transform="scale(0.015625)"/>
       <path id="DejaVuSans-79" d="M 2059 -325 
Q 1816 -950 1584 -1140 
Q 1353 -1331 966 -1331 
L 506 -1331 
L 506 -850 
L 844 -850 
Q 1081 -850 1212 -737 
Q 1344 -625 1503 -206 
L 1606 56 
L 191 3500 
L 800 3500 
L 1894 763 
L 2988 3500 
L 3597 3500 
L 2059 -325 
z
" transform="scale(0.015625)"/>
       <path id="DejaVuSans-55" d="M 556 4666 
L 1191 4666 
L 1191 1831 
Q 1191 1081 1462 751 
Q 1734 422 2344 422 
Q 2950 422 3222 751 
Q 3494 1081 3494 1831 
L 3494 4666 
L 4128 4666 
L 4128 1753 
Q 4128 841 3676 375 
Q 3225 -91 2344 -91 
Q 1459 -91 1007 375 
Q 556 841 556 1753 
L 556 4666 
z
" transform="scale(0.015625)"/>
       <path id="DejaVuSans-67" d="M 2906 1791 
Q 2906 2416 2648 2759 
Q 2391 3103 1925 3103 
Q 1463 3103 1205 2759 
Q 947 2416 947 1791 
Q 947 1169 1205 825 
Q 1463 481 1925 481 
Q 2391 481 2648 825 
Q 2906 1169 2906 1791 
z
M 3481 434 
Q 3481 -459 3084 -895 
Q 2688 -1331 1869 -1331 
Q 1566 -1331 1297 -1286 
Q 1028 -1241 775 -1147 
L 775 -588 
Q 1028 -725 1275 -790 
Q 1522 -856 1778 -856 
Q 2344 -856 2625 -561 
Q 2906 -266 2906 331 
L 2906 616 
Q 2728 306 2450 153 
Q 2172 0 1784 0 
Q 1141 0 747 490 
Q 353 981 353 1791 
Q 353 2603 747 3093 
Q 1141 3584 1784 3584 
Q 2172 3584 2450 3431 
Q 2728 3278 2906 2969 
L 2906 3500 
L 3481 3500 
L 3481 434 
z
" transform="scale(0.015625)"/>
       <path id="DejaVuSans-42" d="M 1259 2228 
L 1259 519 
L 2272 519 
Q 2781 519 3026 730 
Q 3272 941 3272 1375 
Q 3272 1813 3026 2020 
Q 2781 2228 2272 2228 
L 1259 2228 
z
M 1259 4147 
L 1259 2741 
L 2194 2741 
Q 2656 2741 2882 2914 
Q 3109 3088 3109 3444 
Q 3109 3797 2882 3972 
Q 2656 4147 2194 4147 
L 1259 4147 
z
M 628 4666 
L 2241 4666 
Q 2963 4666 3353 4366 
Q 3744 4066 3744 3513 
Q 3744 3084 3544 2831 
Q 3344 2578 2956 2516 
Q 3422 2416 3680 2098 
Q 3938 1781 3938 1306 
Q 3938 681 3513 340 
Q 3088 0 2303 0 
L 628 0 
L 628 4666 
z
" transform="scale(0.015625)"/>
      </defs>
      <use xlink:href="#DejaVuSans-4d"/>
      <use xlink:href="#DejaVuSans-65" x="86.279297"/>
      <use xlink:href="#DejaVuSans-6d" x="147.802734"/>
      <use xlink:href="#DejaVuSans-6f" x="245.214844"/>
      <use xlink:href="#DejaVuSans-72" x="306.396484"/>
      <use xlink:href="#DejaVuSans-79" x="347.509766"/>
      <use xlink:href="#DejaVuSans-20" x="406.689453"/>
      <use xlink:href="#DejaVuSans-55" x="438.476562"/>
      <use xlink:href="#DejaVuSans-73" x="511.669922"/>
      <use xlink:href="#DejaVuSans-61" x="563.769531"/>
      <use xlink:href="#DejaVuSans-67" x="625.048828"/>
      <use xlink:href="#DejaVuSans-65" x="688.525391"/>
      <use xlink:href="#DejaVuSans-20" x="750.048828"/>
      <use xlink:href="#DejaVuSans-28" x="781.835938"/>
      <use xlink:href="#DejaVuSans-4d" x="820.849609"/>
      <use xlink:href="#DejaVuSans-42" x="907.128906"/>
      <use xlink:href="#DejaVuSans-29" x="975.732422"/>
     </g>
    </g>
   </g>
   <g id="line2d_27">
    <path d="M 89.499034 507.799943 
L 100.730234 507.799943 
L 111.923745 507.799943 
L 123.158994 507.799943 
L 134.432118 507.799943 
L 145.651718 507.799943 
L 151.284445 507.799943 
L 156.903734 507.799943 
L 162.533277 507.799943 
L 168.150462 507.799943 
L 173.78235 507.799943 
L 179.400826 507.799943 
L 185.029145 507.799943 
L 190.657903 507.799943 
L 196.278351 507.799943 
L 201.899158 496.196892 
L 207.502972 501.14166 
L 213.10584 501.547587 
L 218.709481 500.631556 
L 224.313468 500.897385 
L 229.916935 501.042872 
L 235.519191 502.00201 
L 241.120314 502.720465 
L 246.72273 502.257061 
L 252.325172 502.382791 
L 257.930571 502.645027 
L 263.534864 501.502683 
L 269.138465 500.570488 
L 274.74144 500.768063 
L 280.343389 500.721363 
L 285.946817 501.800842 
L 291.549938 501.522441 
L 297.153485 502.770757 
L 302.757938 501.612248 
L 308.361779 501.272778 
L 313.974556 501.209913 
L 319.580074 502.142109 
L 325.184434 502.190604 
L 330.788328 501.351808 
L 336.39069 501.385934 
L 341.994544 500.687237 
L 347.597905 501.693074 
L 353.201732 500.848889 
L 358.804813 501.269185 
L 364.40912 501.069814 
L 370.010217 501.294331 
L 375.613698 502.109778 
L 381.217498 501.721812 
L 386.820367 501.838561 
L 392.424873 501.734385 
L 398.028753 501.723608 
L 403.631409 500.868647 
L 409.23413 501.640986 
L 414.837931 501.231467 
L 420.441811 501.946329 
L 426.04697 501.76492 
L 431.650891 500.374709 
L 437.253879 500.839908 
L 442.857493 502.012787 
L 448.462798 501.849338 
L 454.06548 501.445207 
L 459.669334 501.445207 
L 465.273654 500.245387 
L 470.876069 500.945881 
L 476.477712 501.691278 
L 482.079902 501.33205 
L 487.689722 502.091817 
L 493.293655 500.556119 
L 498.898069 501.468557 
L 504.503627 500.683644 
L 510.108053 501.003357 
L 515.723773 501.849338 
L 521.327787 501.822396 
L 526.931947 501.727201 
L 532.536826 502.170847 
L 538.140187 501.348216 
L 543.742709 500.742917 
L 549.34599 501.112921 
L 554.950071 502.187012 
L 560.553885 501.691278 
L 566.156034 501.499091 
L 571.759954 501.67152 
L 577.361397 501.055445 
L 582.967302 501.856523 
L 588.571036 503.101246 
L 594.17505 501.262001 
L 599.783245 502.431287 
L 605.387205 501.263797 
L 610.991099 502.244488 
L 616.595326 501.966087 
L 622.197528 500.915346 
L 627.799651 502.054098 
L 633.402053 501.901426 
L 639.016055 501.755939 
L 644.62421 502.187012 
L 650.227957 501.736181 
L 655.830586 500.229222 
L 661.434679 502.292984 
L 667.040344 502.407937 
L 672.644664 502.01099 
L 678.24716 501.815211 
L 683.850334 502.172643 
L 689.451138 501.059037 
L 695.053367 502.398956 
L 700.655929 501.186563 
L 706.257879 501.949922 
L 711.861679 501.913999 
L 717.464095 501.364381 
L 723.068308 502.600124 
L 728.670617 501.452392 
L 734.274537 501.651763 
L 739.877659 501.461372 
L 745.480301 501.517053 
L 751.0794 500.760878 
L 756.683254 501.874484 
L 762.287987 501.170398 
L 767.90344 501.170398 
L 773.535328 501.170398 
L 779.152766 501.170398 
L 784.772521 501.170398 
L 790.39763 501.170398 
L 796.028598 501.170398 
L 801.657063 501.170398 
L 807.283837 501.170398 
L 812.917216 501.170398 
" clip-path="url(#pb4b9d84cc0)" style="fill: none; stroke: #2ca02c; stroke-width: 2; stroke-linecap: square"/>
    <defs>
     <path id="md8491464e8" d="M 0 2 
C 0.530406 2 1.03916 1.789267 1.414214 1.414214 
C 1.789267 1.03916 2 0.530406 2 0 
C 2 -0.530406 1.789267 -1.03916 1.414214 -1.414214 
C 1.03916 -1.789267 0.530406 -2 0 -2 
C -0.530406 -2 -1.03916 -1.789267 -1.414214 -1.414214 
C -1.789267 -1.03916 -2 -0.530406 -2 0 
C -2 0.530406 -1.789267 1.03916 -1.414214 1.414214 
C -1.03916 1.789267 -0.530406 2 0 2 
z
" style="stroke: #2ca02c"/>
    </defs>
    <g clip-path="url(#pb4b9d84cc0)">
     <use xlink:href="#md8491464e8" x="89.499034" y="507.799943" style="fill: #2ca02c; stroke: #2ca02c"/>
     <use xlink:href="#md8491464e8" x="100.730234" y="507.799943" style="fill: #2ca02c; stroke: #2ca02c"/>
     <use xlink:href="#md8491464e8" x="111.923745" y="507.799943" style="fill: #2ca02c; stroke: #2ca02c"/>
     <use xlink:href="#md8491464e8" x="123.158994" y="507.799943" style="fill: #2ca02c; stroke: #2ca02c"/>
     <use xlink:href="#md8491464e8" x="134.432118" y="507.799943" style="fill: #2ca02c; stroke: #2ca02c"/>
     <use xlink:href="#md8491464e8" x="145.651718" y="507.799943" style="fill: #2ca02c; stroke: #2ca02c"/>
     <use xlink:href="#md8491464e8" x="151.284445" y="507.799943" style="fill: #2ca02c; stroke: #2ca02c"/>
     <use xlink:href="#md8491464e8" x="156.903734" y="507.799943" style="fill: #2ca02c; stroke: #2ca02c"/>
     <use xlink:href="#md8491464e8" x="162.533277" y="507.799943" style="fill: #2ca02c; stroke: #2ca02c"/>
     <use xlink:href="#md8491464e8" x="168.150462" y="507.799943" style="fill: #2ca02c; stroke: #2ca02c"/>
     <use xlink:href="#md8491464e8" x="173.78235" y="507.799943" style="fill: #2ca02c; stroke: #2ca02c"/>
     <use xlink:href="#md8491464e8" x="179.400826" y="507.799943" style="fill: #2ca02c; stroke: #2ca02c"/>
     <use xlink:href="#md8491464e8" x="185.029145" y="507.799943" style="fill: #2ca02c; stroke: #2ca02c"/>
     <use xlink:href="#md8491464e8" x="190.657903" y="507.799943" style="fill: #2ca02c; stroke: #2ca02c"/>
     <use xlink:href="#md8491464e8" x="196.278351" y="507.799943" style="fill: #2ca02c; stroke: #2ca02c"/>
     <use xlink:href="#md8491464e8" x="201.899158" y="496.196892" style="fill: #2ca02c; stroke: #2ca02c"/>
     <use xlink:href="#md8491464e8" x="207.502972" y="501.14166" style="fill: #2ca02c; stroke: #2ca02c"/>
     <use xlink:href="#md8491464e8" x="213.10584" y="501.547587" style="fill: #2ca02c; stroke: #2ca02c"/>
     <use xlink:href="#md8491464e8" x="218.709481" y="500.631556" style="fill: #2ca02c; stroke: #2ca02c"/>
     <use xlink:href="#md8491464e8" x="224.313468" y="500.897385" style="fill: #2ca02c; stroke: #2ca02c"/>
     <use xlink:href="#md8491464e8" x="229.916935" y="501.042872" style="fill: #2ca02c; stroke: #2ca02c"/>
     <use xlink:href="#md8491464e8" x="235.519191" y="502.00201" style="fill: #2ca02c; stroke: #2ca02c"/>
     <use xlink:href="#md8491464e8" x="241.120314" y="502.720465" style="fill: #2ca02c; stroke: #2ca02c"/>
     <use xlink:href="#md8491464e8" x="246.72273" y="502.257061" style="fill: #2ca02c; stroke: #2ca02c"/>
     <use xlink:href="#md8491464e8" x="252.325172" y="502.382791" style="fill: #2ca02c; stroke: #2ca02c"/>
     <use xlink:href="#md8491464e8" x="257.930571" y="502.645027" style="fill: #2ca02c; stroke: #2ca02c"/>
     <use xlink:href="#md8491464e8" x="263.534864" y="501.502683" style="fill: #2ca02c; stroke: #2ca02c"/>
     <use xlink:href="#md8491464e8" x="269.138465" y="500.570488" style="fill: #2ca02c; stroke: #2ca02c"/>
     <use xlink:href="#md8491464e8" x="274.74144" y="500.768063" style="fill: #2ca02c; stroke: #2ca02c"/>
     <use xlink:href="#md8491464e8" x="280.343389" y="500.721363" style="fill: #2ca02c; stroke: #2ca02c"/>
     <use xlink:href="#md8491464e8" x="285.946817" y="501.800842" style="fill: #2ca02c; stroke: #2ca02c"/>
     <use xlink:href="#md8491464e8" x="291.549938" y="501.522441" style="fill: #2ca02c; stroke: #2ca02c"/>
     <use xlink:href="#md8491464e8" x="297.153485" y="502.770757" style="fill: #2ca02c; stroke: #2ca02c"/>
     <use xlink:href="#md8491464e8" x="302.757938" y="501.612248" style="fill: #2ca02c; stroke: #2ca02c"/>
     <use xlink:href="#md8491464e8" x="308.361779" y="501.272778" style="fill: #2ca02c; stroke: #2ca02c"/>
     <use xlink:href="#md8491464e8" x="313.974556" y="501.209913" style="fill: #2ca02c; stroke: #2ca02c"/>
     <use xlink:href="#md8491464e8" x="319.580074" y="502.142109" style="fill: #2ca02c; stroke: #2ca02c"/>
     <use xlink:href="#md8491464e8" x="325.184434" y="502.190604" style="fill: #2ca02c; stroke: #2ca02c"/>
     <use xlink:href="#md8491464e8" x="330.788328" y="501.351808" style="fill: #2ca02c; stroke: #2ca02c"/>
     <use xlink:href="#md8491464e8" x="336.39069" y="501.385934" style="fill: #2ca02c; stroke: #2ca02c"/>
     <use xlink:href="#md8491464e8" x="341.994544" y="500.687237" style="fill: #2ca02c; stroke: #2ca02c"/>
     <use xlink:href="#md8491464e8" x="347.597905" y="501.693074" style="fill: #2ca02c; stroke: #2ca02c"/>
     <use xlink:href="#md8491464e8" x="353.201732" y="500.848889" style="fill: #2ca02c; stroke: #2ca02c"/>
     <use xlink:href="#md8491464e8" x="358.804813" y="501.269185" style="fill: #2ca02c; stroke: #2ca02c"/>
     <use xlink:href="#md8491464e8" x="364.40912" y="501.069814" style="fill: #2ca02c; stroke: #2ca02c"/>
     <use xlink:href="#md8491464e8" x="370.010217" y="501.294331" style="fill: #2ca02c; stroke: #2ca02c"/>
     <use xlink:href="#md8491464e8" x="375.613698" y="502.109778" style="fill: #2ca02c; stroke: #2ca02c"/>
     <use xlink:href="#md8491464e8" x="381.217498" y="501.721812" style="fill: #2ca02c; stroke: #2ca02c"/>
     <use xlink:href="#md8491464e8" x="386.820367" y="501.838561" style="fill: #2ca02c; stroke: #2ca02c"/>
     <use xlink:href="#md8491464e8" x="392.424873" y="501.734385" style="fill: #2ca02c; stroke: #2ca02c"/>
     <use xlink:href="#md8491464e8" x="398.028753" y="501.723608" style="fill: #2ca02c; stroke: #2ca02c"/>
     <use xlink:href="#md8491464e8" x="403.631409" y="500.868647" style="fill: #2ca02c; stroke: #2ca02c"/>
     <use xlink:href="#md8491464e8" x="409.23413" y="501.640986" style="fill: #2ca02c; stroke: #2ca02c"/>
     <use xlink:href="#md8491464e8" x="414.837931" y="501.231467" style="fill: #2ca02c; stroke: #2ca02c"/>
     <use xlink:href="#md8491464e8" x="420.441811" y="501.946329" style="fill: #2ca02c; stroke: #2ca02c"/>
     <use xlink:href="#md8491464e8" x="426.04697" y="501.76492" style="fill: #2ca02c; stroke: #2ca02c"/>
     <use xlink:href="#md8491464e8" x="431.650891" y="500.374709" style="fill: #2ca02c; stroke: #2ca02c"/>
     <use xlink:href="#md8491464e8" x="437.253879" y="500.839908" style="fill: #2ca02c; stroke: #2ca02c"/>
     <use xlink:href="#md8491464e8" x="442.857493" y="502.012787" style="fill: #2ca02c; stroke: #2ca02c"/>
     <use xlink:href="#md8491464e8" x="448.462798" y="501.849338" style="fill: #2ca02c; stroke: #2ca02c"/>
     <use xlink:href="#md8491464e8" x="454.06548" y="501.445207" style="fill: #2ca02c; stroke: #2ca02c"/>
     <use xlink:href="#md8491464e8" x="459.669334" y="501.445207" style="fill: #2ca02c; stroke: #2ca02c"/>
     <use xlink:href="#md8491464e8" x="465.273654" y="500.245387" style="fill: #2ca02c; stroke: #2ca02c"/>
     <use xlink:href="#md8491464e8" x="470.876069" y="500.945881" style="fill: #2ca02c; stroke: #2ca02c"/>
     <use xlink:href="#md8491464e8" x="476.477712" y="501.691278" style="fill: #2ca02c; stroke: #2ca02c"/>
     <use xlink:href="#md8491464e8" x="482.079902" y="501.33205" style="fill: #2ca02c; stroke: #2ca02c"/>
     <use xlink:href="#md8491464e8" x="487.689722" y="502.091817" style="fill: #2ca02c; stroke: #2ca02c"/>
     <use xlink:href="#md8491464e8" x="493.293655" y="500.556119" style="fill: #2ca02c; stroke: #2ca02c"/>
     <use xlink:href="#md8491464e8" x="498.898069" y="501.468557" style="fill: #2ca02c; stroke: #2ca02c"/>
     <use xlink:href="#md8491464e8" x="504.503627" y="500.683644" style="fill: #2ca02c; stroke: #2ca02c"/>
     <use xlink:href="#md8491464e8" x="510.108053" y="501.003357" style="fill: #2ca02c; stroke: #2ca02c"/>
     <use xlink:href="#md8491464e8" x="515.723773" y="501.849338" style="fill: #2ca02c; stroke: #2ca02c"/>
     <use xlink:href="#md8491464e8" x="521.327787" y="501.822396" style="fill: #2ca02c; stroke: #2ca02c"/>
     <use xlink:href="#md8491464e8" x="526.931947" y="501.727201" style="fill: #2ca02c; stroke: #2ca02c"/>
     <use xlink:href="#md8491464e8" x="532.536826" y="502.170847" style="fill: #2ca02c; stroke: #2ca02c"/>
     <use xlink:href="#md8491464e8" x="538.140187" y="501.348216" style="fill: #2ca02c; stroke: #2ca02c"/>
     <use xlink:href="#md8491464e8" x="543.742709" y="500.742917" style="fill: #2ca02c; stroke: #2ca02c"/>
     <use xlink:href="#md8491464e8" x="549.34599" y="501.112921" style="fill: #2ca02c; stroke: #2ca02c"/>
     <use xlink:href="#md8491464e8" x="554.950071" y="502.187012" style="fill: #2ca02c; stroke: #2ca02c"/>
     <use xlink:href="#md8491464e8" x="560.553885" y="501.691278" style="fill: #2ca02c; stroke: #2ca02c"/>
     <use xlink:href="#md8491464e8" x="566.156034" y="501.499091" style="fill: #2ca02c; stroke: #2ca02c"/>
     <use xlink:href="#md8491464e8" x="571.759954" y="501.67152" style="fill: #2ca02c; stroke: #2ca02c"/>
     <use xlink:href="#md8491464e8" x="577.361397" y="501.055445" style="fill: #2ca02c; stroke: #2ca02c"/>
     <use xlink:href="#md8491464e8" x="582.967302" y="501.856523" style="fill: #2ca02c; stroke: #2ca02c"/>
     <use xlink:href="#md8491464e8" x="588.571036" y="503.101246" style="fill: #2ca02c; stroke: #2ca02c"/>
     <use xlink:href="#md8491464e8" x="594.17505" y="501.262001" style="fill: #2ca02c; stroke: #2ca02c"/>
     <use xlink:href="#md8491464e8" x="599.783245" y="502.431287" style="fill: #2ca02c; stroke: #2ca02c"/>
     <use xlink:href="#md8491464e8" x="605.387205" y="501.263797" style="fill: #2ca02c; stroke: #2ca02c"/>
     <use xlink:href="#md8491464e8" x="610.991099" y="502.244488" style="fill: #2ca02c; stroke: #2ca02c"/>
     <use xlink:href="#md8491464e8" x="616.595326" y="501.966087" style="fill: #2ca02c; stroke: #2ca02c"/>
     <use xlink:href="#md8491464e8" x="622.197528" y="500.915346" style="fill: #2ca02c; stroke: #2ca02c"/>
     <use xlink:href="#md8491464e8" x="627.799651" y="502.054098" style="fill: #2ca02c; stroke: #2ca02c"/>
     <use xlink:href="#md8491464e8" x="633.402053" y="501.901426" style="fill: #2ca02c; stroke: #2ca02c"/>
     <use xlink:href="#md8491464e8" x="639.016055" y="501.755939" style="fill: #2ca02c; stroke: #2ca02c"/>
     <use xlink:href="#md8491464e8" x="644.62421" y="502.187012" style="fill: #2ca02c; stroke: #2ca02c"/>
     <use xlink:href="#md8491464e8" x="650.227957" y="501.736181" style="fill: #2ca02c; stroke: #2ca02c"/>
     <use xlink:href="#md8491464e8" x="655.830586" y="500.229222" style="fill: #2ca02c; stroke: #2ca02c"/>
     <use xlink:href="#md8491464e8" x="661.434679" y="502.292984" style="fill: #2ca02c; stroke: #2ca02c"/>
     <use xlink:href="#md8491464e8" x="667.040344" y="502.407937" style="fill: #2ca02c; stroke: #2ca02c"/>
     <use xlink:href="#md8491464e8" x="672.644664" y="502.01099" style="fill: #2ca02c; stroke: #2ca02c"/>
     <use xlink:href="#md8491464e8" x="678.24716" y="501.815211" style="fill: #2ca02c; stroke: #2ca02c"/>
     <use xlink:href="#md8491464e8" x="683.850334" y="502.172643" style="fill: #2ca02c; stroke: #2ca02c"/>
     <use xlink:href="#md8491464e8" x="689.451138" y="501.059037" style="fill: #2ca02c; stroke: #2ca02c"/>
     <use xlink:href="#md8491464e8" x="695.053367" y="502.398956" style="fill: #2ca02c; stroke: #2ca02c"/>
     <use xlink:href="#md8491464e8" x="700.655929" y="501.186563" style="fill: #2ca02c; stroke: #2ca02c"/>
     <use xlink:href="#md8491464e8" x="706.257879" y="501.949922" style="fill: #2ca02c; stroke: #2ca02c"/>
     <use xlink:href="#md8491464e8" x="711.861679" y="501.913999" style="fill: #2ca02c; stroke: #2ca02c"/>
     <use xlink:href="#md8491464e8" x="717.464095" y="501.364381" style="fill: #2ca02c; stroke: #2ca02c"/>
     <use xlink:href="#md8491464e8" x="723.068308" y="502.600124" style="fill: #2ca02c; stroke: #2ca02c"/>
     <use xlink:href="#md8491464e8" x="728.670617" y="501.452392" style="fill: #2ca02c; stroke: #2ca02c"/>
     <use xlink:href="#md8491464e8" x="734.274537" y="501.651763" style="fill: #2ca02c; stroke: #2ca02c"/>
     <use xlink:href="#md8491464e8" x="739.877659" y="501.461372" style="fill: #2ca02c; stroke: #2ca02c"/>
     <use xlink:href="#md8491464e8" x="745.480301" y="501.517053" style="fill: #2ca02c; stroke: #2ca02c"/>
     <use xlink:href="#md8491464e8" x="751.0794" y="500.760878" style="fill: #2ca02c; stroke: #2ca02c"/>
     <use xlink:href="#md8491464e8" x="756.683254" y="501.874484" style="fill: #2ca02c; stroke: #2ca02c"/>
     <use xlink:href="#md8491464e8" x="762.287987" y="501.170398" style="fill: #2ca02c; stroke: #2ca02c"/>
     <use xlink:href="#md8491464e8" x="767.90344" y="501.170398" style="fill: #2ca02c; stroke: #2ca02c"/>
     <use xlink:href="#md8491464e8" x="773.535328" y="501.170398" style="fill: #2ca02c; stroke: #2ca02c"/>
     <use xlink:href="#md8491464e8" x="779.152766" y="501.170398" style="fill: #2ca02c; stroke: #2ca02c"/>
     <use xlink:href="#md8491464e8" x="784.772521" y="501.170398" style="fill: #2ca02c; stroke: #2ca02c"/>
     <use xlink:href="#md8491464e8" x="790.39763" y="501.170398" style="fill: #2ca02c; stroke: #2ca02c"/>
     <use xlink:href="#md8491464e8" x="796.028598" y="501.170398" style="fill: #2ca02c; stroke: #2ca02c"/>
     <use xlink:href="#md8491464e8" x="801.657063" y="501.170398" style="fill: #2ca02c; stroke: #2ca02c"/>
     <use xlink:href="#md8491464e8" x="807.283837" y="501.170398" style="fill: #2ca02c; stroke: #2ca02c"/>
     <use xlink:href="#md8491464e8" x="812.917216" y="501.170398" style="fill: #2ca02c; stroke: #2ca02c"/>
    </g>
   </g>
   <g id="line2d_28">
    <path d="M 95.375688 270.698952 
L 106.728945 270.698952 
L 118.017038 270.698952 
L 129.298845 270.698952 
L 140.570305 270.698952 
L 151.848357 270.698952 
L 157.542505 270.41157 
L 163.212361 270.41157 
L 168.894736 270.41157 
L 174.611005 270.41157 
L 180.30125 270.41157 
L 185.984345 270.41157 
L 191.666373 270.41157 
L 197.343128 270.41157 
L 203.006952 261.797292 
L 208.641689 244.081983 
L 214.278518 219.852082 
L 219.909633 208.392722 
L 225.550656 197.371619 
L 231.190721 166.830089 
L 236.827177 132.187975 
L 242.466442 129.095026 
L 248.091897 127.435394 
L 253.718325 127.218062 
L 259.364356 127.900594 
L 265.006498 122.896554 
L 270.644631 124.139481 
L 276.277478 115.286317 
L 281.909379 103.796422 
L 287.556102 92.960322 
L 293.197792 76.87411 
L 298.839881 68.491534 
L 304.465815 65.046541 
L 310.106959 64.073035 
L 315.737608 63.744341 
L 321.366419 63.230646 
L 326.99848 63.178558 
L 332.627118 63.060013 
L 338.256528 62.587628 
L 343.884727 60.416098 
L 349.517853 53.714707 
L 355.159662 51.094141 
L 360.787887 50.858847 
L 366.429617 50.858847 
L 372.070227 50.621757 
L 377.706443 50.621757 
L 383.329222 50.267918 
L 388.96043 49.675192 
L 394.599136 48.963922 
L 400.226709 48.734016 
L 405.854095 48.615471 
L 411.481894 48.568771 
L 417.108028 48.568771 
L 422.736933 48.568771 
L 428.370685 48.568771 
L 434.00999 48.331681 
L 439.648963 47.976046 
L 445.28117 47.738956 
L 450.918132 47.385117 
L 456.57784 47.315067 
L 462.208116 47.315067 
L 467.847994 47.315067 
L 473.487926 47.315067 
L 479.131014 47.315067 
L 484.780121 48.15566 
L 490.410091 48.331681 
L 496.0346 48.331681 
L 501.702419 48.455615 
L 507.334387 48.455615 
L 512.965409 48.455615 
L 518.605367 48.522072 
L 524.232513 48.461003 
L 529.862909 48.461003 
L 535.504146 48.344254 
L 541.138111 48.344254 
L 546.778975 48.344254 
L 552.411102 48.227505 
L 558.041738 48.227505 
L 563.682615 48.110756 
L 569.309735 48.110756 
L 574.950905 47.992211 
L 580.581154 47.992211 
L 586.205797 47.875462 
L 591.834448 47.875462 
L 597.459144 47.875462 
L 603.085958 47.756917 
L 608.726515 47.756917 
L 614.375636 47.756917 
L 620.019243 47.756917 
L 625.652249 47.638372 
L 631.280315 47.638372 
L 636.91725 47.638372 
L 642.542545 47.521623 
L 648.167414 47.521623 
L 653.800008 47.521623 
L 659.424397 47.521623 
L 665.063144 47.286329 
L 670.691089 47.051035 
L 676.330368 46.93249 
L 681.962335 46.93249 
L 687.600123 46.93249 
L 693.241133 46.93249 
L 698.870996 46.813945 
L 704.50941 46.813945 
L 710.145852 46.576854 
L 715.775675 46.576854 
L 721.404899 46.576854 
L 727.044618 46.576854 
L 732.684309 46.576854 
L 738.313414 46.458309 
L 743.938882 46.458309 
L 749.566481 46.458309 
L 755.206546 46.339764 
L 760.849434 45.436307 
L 766.526775 45.436307 
L 772.224985 45.436307 
L 777.904936 45.436307 
L 783.595528 45.436307 
L 789.279168 45.436307 
L 794.974581 45.436307 
L 800.667264 45.436307 
L 806.352396 45.436307 
L 812.035104 45.436307 
" clip-path="url(#pb4b9d84cc0)" style="fill: none; stroke: #1f77b4; stroke-width: 2; stroke-linecap: square"/>
    <defs>
     <path id="mf6b2eedfc0" d="M 0 2 
C 0.530406 2 1.03916 1.789267 1.414214 1.414214 
C 1.789267 1.03916 2 0.530406 2 0 
C 2 -0.530406 1.789267 -1.03916 1.414214 -1.414214 
C 1.03916 -1.789267 0.530406 -2 0 -2 
C -0.530406 -2 -1.03916 -1.789267 -1.414214 -1.414214 
C -1.789267 -1.03916 -2 -0.530406 -2 0 
C -2 0.530406 -1.789267 1.03916 -1.414214 1.414214 
C -1.03916 1.789267 -0.530406 2 0 2 
z
" style="stroke: #1f77b4"/>
    </defs>
    <g clip-path="url(#pb4b9d84cc0)">
     <use xlink:href="#mf6b2eedfc0" x="95.375688" y="270.698952" style="fill: #1f77b4; stroke: #1f77b4"/>
     <use xlink:href="#mf6b2eedfc0" x="106.728945" y="270.698952" style="fill: #1f77b4; stroke: #1f77b4"/>
     <use xlink:href="#mf6b2eedfc0" x="118.017038" y="270.698952" style="fill: #1f77b4; stroke: #1f77b4"/>
     <use xlink:href="#mf6b2eedfc0" x="129.298845" y="270.698952" style="fill: #1f77b4; stroke: #1f77b4"/>
     <use xlink:href="#mf6b2eedfc0" x="140.570305" y="270.698952" style="fill: #1f77b4; stroke: #1f77b4"/>
     <use xlink:href="#mf6b2eedfc0" x="151.848357" y="270.698952" style="fill: #1f77b4; stroke: #1f77b4"/>
     <use xlink:href="#mf6b2eedfc0" x="157.542505" y="270.41157" style="fill: #1f77b4; stroke: #1f77b4"/>
     <use xlink:href="#mf6b2eedfc0" x="163.212361" y="270.41157" style="fill: #1f77b4; stroke: #1f77b4"/>
     <use xlink:href="#mf6b2eedfc0" x="168.894736" y="270.41157" style="fill: #1f77b4; stroke: #1f77b4"/>
     <use xlink:href="#mf6b2eedfc0" x="174.611005" y="270.41157" style="fill: #1f77b4; stroke: #1f77b4"/>
     <use xlink:href="#mf6b2eedfc0" x="180.30125" y="270.41157" style="fill: #1f77b4; stroke: #1f77b4"/>
     <use xlink:href="#mf6b2eedfc0" x="185.984345" y="270.41157" style="fill: #1f77b4; stroke: #1f77b4"/>
     <use xlink:href="#mf6b2eedfc0" x="191.666373" y="270.41157" style="fill: #1f77b4; stroke: #1f77b4"/>
     <use xlink:href="#mf6b2eedfc0" x="197.343128" y="270.41157" style="fill: #1f77b4; stroke: #1f77b4"/>
     <use xlink:href="#mf6b2eedfc0" x="203.006952" y="261.797292" style="fill: #1f77b4; stroke: #1f77b4"/>
     <use xlink:href="#mf6b2eedfc0" x="208.641689" y="244.081983" style="fill: #1f77b4; stroke: #1f77b4"/>
     <use xlink:href="#mf6b2eedfc0" x="214.278518" y="219.852082" style="fill: #1f77b4; stroke: #1f77b4"/>
     <use xlink:href="#mf6b2eedfc0" x="219.909633" y="208.392722" style="fill: #1f77b4; stroke: #1f77b4"/>
     <use xlink:href="#mf6b2eedfc0" x="225.550656" y="197.371619" style="fill: #1f77b4; stroke: #1f77b4"/>
     <use xlink:href="#mf6b2eedfc0" x="231.190721" y="166.830089" style="fill: #1f77b4; stroke: #1f77b4"/>
     <use xlink:href="#mf6b2eedfc0" x="236.827177" y="132.187975" style="fill: #1f77b4; stroke: #1f77b4"/>
     <use xlink:href="#mf6b2eedfc0" x="242.466442" y="129.095026" style="fill: #1f77b4; stroke: #1f77b4"/>
     <use xlink:href="#mf6b2eedfc0" x="248.091897" y="127.435394" style="fill: #1f77b4; stroke: #1f77b4"/>
     <use xlink:href="#mf6b2eedfc0" x="253.718325" y="127.218062" style="fill: #1f77b4; stroke: #1f77b4"/>
     <use xlink:href="#mf6b2eedfc0" x="259.364356" y="127.900594" style="fill: #1f77b4; stroke: #1f77b4"/>
     <use xlink:href="#mf6b2eedfc0" x="265.006498" y="122.896554" style="fill: #1f77b4; stroke: #1f77b4"/>
     <use xlink:href="#mf6b2eedfc0" x="270.644631" y="124.139481" style="fill: #1f77b4; stroke: #1f77b4"/>
     <use xlink:href="#mf6b2eedfc0" x="276.277478" y="115.286317" style="fill: #1f77b4; stroke: #1f77b4"/>
     <use xlink:href="#mf6b2eedfc0" x="281.909379" y="103.796422" style="fill: #1f77b4; stroke: #1f77b4"/>
     <use xlink:href="#mf6b2eedfc0" x="287.556102" y="92.960322" style="fill: #1f77b4; stroke: #1f77b4"/>
     <use xlink:href="#mf6b2eedfc0" x="293.197792" y="76.87411" style="fill: #1f77b4; stroke: #1f77b4"/>
     <use xlink:href="#mf6b2eedfc0" x="298.839881" y="68.491534" style="fill: #1f77b4; stroke: #1f77b4"/>
     <use xlink:href="#mf6b2eedfc0" x="304.465815" y="65.046541" style="fill: #1f77b4; stroke: #1f77b4"/>
     <use xlink:href="#mf6b2eedfc0" x="310.106959" y="64.073035" style="fill: #1f77b4; stroke: #1f77b4"/>
     <use xlink:href="#mf6b2eedfc0" x="315.737608" y="63.744341" style="fill: #1f77b4; stroke: #1f77b4"/>
     <use xlink:href="#mf6b2eedfc0" x="321.366419" y="63.230646" style="fill: #1f77b4; stroke: #1f77b4"/>
     <use xlink:href="#mf6b2eedfc0" x="326.99848" y="63.178558" style="fill: #1f77b4; stroke: #1f77b4"/>
     <use xlink:href="#mf6b2eedfc0" x="332.627118" y="63.060013" style="fill: #1f77b4; stroke: #1f77b4"/>
     <use xlink:href="#mf6b2eedfc0" x="338.256528" y="62.587628" style="fill: #1f77b4; stroke: #1f77b4"/>
     <use xlink:href="#mf6b2eedfc0" x="343.884727" y="60.416098" style="fill: #1f77b4; stroke: #1f77b4"/>
     <use xlink:href="#mf6b2eedfc0" x="349.517853" y="53.714707" style="fill: #1f77b4; stroke: #1f77b4"/>
     <use xlink:href="#mf6b2eedfc0" x="355.159662" y="51.094141" style="fill: #1f77b4; stroke: #1f77b4"/>
     <use xlink:href="#mf6b2eedfc0" x="360.787887" y="50.858847" style="fill: #1f77b4; stroke: #1f77b4"/>
     <use xlink:href="#mf6b2eedfc0" x="366.429617" y="50.858847" style="fill: #1f77b4; stroke: #1f77b4"/>
     <use xlink:href="#mf6b2eedfc0" x="372.070227" y="50.621757" style="fill: #1f77b4; stroke: #1f77b4"/>
     <use xlink:href="#mf6b2eedfc0" x="377.706443" y="50.621757" style="fill: #1f77b4; stroke: #1f77b4"/>
     <use xlink:href="#mf6b2eedfc0" x="383.329222" y="50.267918" style="fill: #1f77b4; stroke: #1f77b4"/>
     <use xlink:href="#mf6b2eedfc0" x="388.96043" y="49.675192" style="fill: #1f77b4; stroke: #1f77b4"/>
     <use xlink:href="#mf6b2eedfc0" x="394.599136" y="48.963922" style="fill: #1f77b4; stroke: #1f77b4"/>
     <use xlink:href="#mf6b2eedfc0" x="400.226709" y="48.734016" style="fill: #1f77b4; stroke: #1f77b4"/>
     <use xlink:href="#mf6b2eedfc0" x="405.854095" y="48.615471" style="fill: #1f77b4; stroke: #1f77b4"/>
     <use xlink:href="#mf6b2eedfc0" x="411.481894" y="48.568771" style="fill: #1f77b4; stroke: #1f77b4"/>
     <use xlink:href="#mf6b2eedfc0" x="417.108028" y="48.568771" style="fill: #1f77b4; stroke: #1f77b4"/>
     <use xlink:href="#mf6b2eedfc0" x="422.736933" y="48.568771" style="fill: #1f77b4; stroke: #1f77b4"/>
     <use xlink:href="#mf6b2eedfc0" x="428.370685" y="48.568771" style="fill: #1f77b4; stroke: #1f77b4"/>
     <use xlink:href="#mf6b2eedfc0" x="434.00999" y="48.331681" style="fill: #1f77b4; stroke: #1f77b4"/>
     <use xlink:href="#mf6b2eedfc0" x="439.648963" y="47.976046" style="fill: #1f77b4; stroke: #1f77b4"/>
     <use xlink:href="#mf6b2eedfc0" x="445.28117" y="47.738956" style="fill: #1f77b4; stroke: #1f77b4"/>
     <use xlink:href="#mf6b2eedfc0" x="450.918132" y="47.385117" style="fill: #1f77b4; stroke: #1f77b4"/>
     <use xlink:href="#mf6b2eedfc0" x="456.57784" y="47.315067" style="fill: #1f77b4; stroke: #1f77b4"/>
     <use xlink:href="#mf6b2eedfc0" x="462.208116" y="47.315067" style="fill: #1f77b4; stroke: #1f77b4"/>
     <use xlink:href="#mf6b2eedfc0" x="467.847994" y="47.315067" style="fill: #1f77b4; stroke: #1f77b4"/>
     <use xlink:href="#mf6b2eedfc0" x="473.487926" y="47.315067" style="fill: #1f77b4; stroke: #1f77b4"/>
     <use xlink:href="#mf6b2eedfc0" x="479.131014" y="47.315067" style="fill: #1f77b4; stroke: #1f77b4"/>
     <use xlink:href="#mf6b2eedfc0" x="484.780121" y="48.15566" style="fill: #1f77b4; stroke: #1f77b4"/>
     <use xlink:href="#mf6b2eedfc0" x="490.410091" y="48.331681" style="fill: #1f77b4; stroke: #1f77b4"/>
     <use xlink:href="#mf6b2eedfc0" x="496.0346" y="48.331681" style="fill: #1f77b4; stroke: #1f77b4"/>
     <use xlink:href="#mf6b2eedfc0" x="501.702419" y="48.455615" style="fill: #1f77b4; stroke: #1f77b4"/>
     <use xlink:href="#mf6b2eedfc0" x="507.334387" y="48.455615" style="fill: #1f77b4; stroke: #1f77b4"/>
     <use xlink:href="#mf6b2eedfc0" x="512.965409" y="48.455615" style="fill: #1f77b4; stroke: #1f77b4"/>
     <use xlink:href="#mf6b2eedfc0" x="518.605367" y="48.522072" style="fill: #1f77b4; stroke: #1f77b4"/>
     <use xlink:href="#mf6b2eedfc0" x="524.232513" y="48.461003" style="fill: #1f77b4; stroke: #1f77b4"/>
     <use xlink:href="#mf6b2eedfc0" x="529.862909" y="48.461003" style="fill: #1f77b4; stroke: #1f77b4"/>
     <use xlink:href="#mf6b2eedfc0" x="535.504146" y="48.344254" style="fill: #1f77b4; stroke: #1f77b4"/>
     <use xlink:href="#mf6b2eedfc0" x="541.138111" y="48.344254" style="fill: #1f77b4; stroke: #1f77b4"/>
     <use xlink:href="#mf6b2eedfc0" x="546.778975" y="48.344254" style="fill: #1f77b4; stroke: #1f77b4"/>
     <use xlink:href="#mf6b2eedfc0" x="552.411102" y="48.227505" style="fill: #1f77b4; stroke: #1f77b4"/>
     <use xlink:href="#mf6b2eedfc0" x="558.041738" y="48.227505" style="fill: #1f77b4; stroke: #1f77b4"/>
     <use xlink:href="#mf6b2eedfc0" x="563.682615" y="48.110756" style="fill: #1f77b4; stroke: #1f77b4"/>
     <use xlink:href="#mf6b2eedfc0" x="569.309735" y="48.110756" style="fill: #1f77b4; stroke: #1f77b4"/>
     <use xlink:href="#mf6b2eedfc0" x="574.950905" y="47.992211" style="fill: #1f77b4; stroke: #1f77b4"/>
     <use xlink:href="#mf6b2eedfc0" x="580.581154" y="47.992211" style="fill: #1f77b4; stroke: #1f77b4"/>
     <use xlink:href="#mf6b2eedfc0" x="586.205797" y="47.875462" style="fill: #1f77b4; stroke: #1f77b4"/>
     <use xlink:href="#mf6b2eedfc0" x="591.834448" y="47.875462" style="fill: #1f77b4; stroke: #1f77b4"/>
     <use xlink:href="#mf6b2eedfc0" x="597.459144" y="47.875462" style="fill: #1f77b4; stroke: #1f77b4"/>
     <use xlink:href="#mf6b2eedfc0" x="603.085958" y="47.756917" style="fill: #1f77b4; stroke: #1f77b4"/>
     <use xlink:href="#mf6b2eedfc0" x="608.726515" y="47.756917" style="fill: #1f77b4; stroke: #1f77b4"/>
     <use xlink:href="#mf6b2eedfc0" x="614.375636" y="47.756917" style="fill: #1f77b4; stroke: #1f77b4"/>
     <use xlink:href="#mf6b2eedfc0" x="620.019243" y="47.756917" style="fill: #1f77b4; stroke: #1f77b4"/>
     <use xlink:href="#mf6b2eedfc0" x="625.652249" y="47.638372" style="fill: #1f77b4; stroke: #1f77b4"/>
     <use xlink:href="#mf6b2eedfc0" x="631.280315" y="47.638372" style="fill: #1f77b4; stroke: #1f77b4"/>
     <use xlink:href="#mf6b2eedfc0" x="636.91725" y="47.638372" style="fill: #1f77b4; stroke: #1f77b4"/>
     <use xlink:href="#mf6b2eedfc0" x="642.542545" y="47.521623" style="fill: #1f77b4; stroke: #1f77b4"/>
     <use xlink:href="#mf6b2eedfc0" x="648.167414" y="47.521623" style="fill: #1f77b4; stroke: #1f77b4"/>
     <use xlink:href="#mf6b2eedfc0" x="653.800008" y="47.521623" style="fill: #1f77b4; stroke: #1f77b4"/>
     <use xlink:href="#mf6b2eedfc0" x="659.424397" y="47.521623" style="fill: #1f77b4; stroke: #1f77b4"/>
     <use xlink:href="#mf6b2eedfc0" x="665.063144" y="47.286329" style="fill: #1f77b4; stroke: #1f77b4"/>
     <use xlink:href="#mf6b2eedfc0" x="670.691089" y="47.051035" style="fill: #1f77b4; stroke: #1f77b4"/>
     <use xlink:href="#mf6b2eedfc0" x="676.330368" y="46.93249" style="fill: #1f77b4; stroke: #1f77b4"/>
     <use xlink:href="#mf6b2eedfc0" x="681.962335" y="46.93249" style="fill: #1f77b4; stroke: #1f77b4"/>
     <use xlink:href="#mf6b2eedfc0" x="687.600123" y="46.93249" style="fill: #1f77b4; stroke: #1f77b4"/>
     <use xlink:href="#mf6b2eedfc0" x="693.241133" y="46.93249" style="fill: #1f77b4; stroke: #1f77b4"/>
     <use xlink:href="#mf6b2eedfc0" x="698.870996" y="46.813945" style="fill: #1f77b4; stroke: #1f77b4"/>
     <use xlink:href="#mf6b2eedfc0" x="704.50941" y="46.813945" style="fill: #1f77b4; stroke: #1f77b4"/>
     <use xlink:href="#mf6b2eedfc0" x="710.145852" y="46.576854" style="fill: #1f77b4; stroke: #1f77b4"/>
     <use xlink:href="#mf6b2eedfc0" x="715.775675" y="46.576854" style="fill: #1f77b4; stroke: #1f77b4"/>
     <use xlink:href="#mf6b2eedfc0" x="721.404899" y="46.576854" style="fill: #1f77b4; stroke: #1f77b4"/>
     <use xlink:href="#mf6b2eedfc0" x="727.044618" y="46.576854" style="fill: #1f77b4; stroke: #1f77b4"/>
     <use xlink:href="#mf6b2eedfc0" x="732.684309" y="46.576854" style="fill: #1f77b4; stroke: #1f77b4"/>
     <use xlink:href="#mf6b2eedfc0" x="738.313414" y="46.458309" style="fill: #1f77b4; stroke: #1f77b4"/>
     <use xlink:href="#mf6b2eedfc0" x="743.938882" y="46.458309" style="fill: #1f77b4; stroke: #1f77b4"/>
     <use xlink:href="#mf6b2eedfc0" x="749.566481" y="46.458309" style="fill: #1f77b4; stroke: #1f77b4"/>
     <use xlink:href="#mf6b2eedfc0" x="755.206546" y="46.339764" style="fill: #1f77b4; stroke: #1f77b4"/>
     <use xlink:href="#mf6b2eedfc0" x="760.849434" y="45.436307" style="fill: #1f77b4; stroke: #1f77b4"/>
     <use xlink:href="#mf6b2eedfc0" x="766.526775" y="45.436307" style="fill: #1f77b4; stroke: #1f77b4"/>
     <use xlink:href="#mf6b2eedfc0" x="772.224985" y="45.436307" style="fill: #1f77b4; stroke: #1f77b4"/>
     <use xlink:href="#mf6b2eedfc0" x="777.904936" y="45.436307" style="fill: #1f77b4; stroke: #1f77b4"/>
     <use xlink:href="#mf6b2eedfc0" x="783.595528" y="45.436307" style="fill: #1f77b4; stroke: #1f77b4"/>
     <use xlink:href="#mf6b2eedfc0" x="789.279168" y="45.436307" style="fill: #1f77b4; stroke: #1f77b4"/>
     <use xlink:href="#mf6b2eedfc0" x="794.974581" y="45.436307" style="fill: #1f77b4; stroke: #1f77b4"/>
     <use xlink:href="#mf6b2eedfc0" x="800.667264" y="45.436307" style="fill: #1f77b4; stroke: #1f77b4"/>
     <use xlink:href="#mf6b2eedfc0" x="806.352396" y="45.436307" style="fill: #1f77b4; stroke: #1f77b4"/>
     <use xlink:href="#mf6b2eedfc0" x="812.035104" y="45.436307" style="fill: #1f77b4; stroke: #1f77b4"/>
    </g>
   </g>
   <g id="line2d_29">
    <path d="M 92.668064 403.681416 
L 104.020242 403.681416 
L 115.344719 403.681416 
L 126.639591 403.681416 
L 137.97668 403.681416 
L 149.284044 403.681416 
L 154.998315 403.681416 
L 160.70923 403.681416 
L 166.398038 403.681416 
L 172.096714 403.681416 
L 177.802142 403.681416 
L 183.480322 403.681416 
L 189.149379 403.681416 
L 194.847629 403.681416 
L 200.54721 402.208583 
L 206.191696 401.456001 
L 211.833972 401.456001 
L 217.472678 401.456001 
L 223.119535 401.456001 
L 228.765259 401.456001 
L 234.411024 401.456001 
L 240.056416 401.456001 
L 245.693937 401.456001 
L 251.334854 401.456001 
L 256.989275 401.456001 
L 262.645614 401.456001 
L 268.309051 401.456001 
L 273.94211 401.456001 
L 279.588421 401.456001 
L 285.243229 401.456001 
L 290.888993 401.456001 
L 296.528126 401.283572 
L 302.163689 401.283572 
L 307.810279 401.283572 
L 313.455538 401.283572 
L 319.117084 401.283572 
L 324.779948 401.283572 
L 330.415592 401.283572 
L 336.047825 401.283572 
L 341.688103 401.283572 
L 347.339301 401.283572 
L 352.994801 401.283572 
L 358.635625 401.283572 
L 364.267326 401.283572 
L 369.904754 401.283572 
L 375.563517 401.283572 
L 381.225769 401.283572 
L 386.950667 401.283572 
L 392.596885 401.283572 
L 398.235178 401.283572 
L 403.872939 401.283572 
L 409.507437 401.283572 
L 415.146303 401.283572 
L 420.786967 401.283572 
L 426.432505 401.283572 
L 432.078256 401.283572 
L 437.724061 401.283572 
L 443.368946 401.283572 
L 449.012847 401.283572 
L 454.649475 401.283572 
L 460.290659 401.283572 
L 465.935131 401.283572 
L 471.578166 401.283572 
L 477.22148 401.283572 
L 482.86594 401.283572 
L 488.513009 401.283572 
L 494.156164 401.283572 
L 499.796681 401.283572 
L 505.438131 401.283572 
L 511.082697 401.283572 
L 516.728688 401.283572 
L 522.363306 401.283572 
L 528.004715 401.283572 
L 533.64799 401.283572 
L 539.28306 401.283572 
L 545.062681 401.283572 
L 550.695528 401.283572 
L 556.339068 401.283572 
L 561.979985 401.283572 
L 567.615082 401.283572 
L 573.259355 401.283572 
L 578.903935 401.283572 
L 584.539059 401.283572 
L 590.174995 401.283572 
L 595.813102 401.283572 
L 601.445042 401.283572 
L 607.169182 401.283572 
L 612.833844 401.283572 
L 618.479143 401.283572 
L 624.133857 401.283572 
L 629.780927 401.283572 
L 635.435668 401.283572 
L 641.081552 401.283572 
L 646.725639 401.283572 
L 652.37103 401.283572 
L 658.002851 401.283572 
L 663.637909 401.283572 
L 669.277574 401.283572 
L 674.928878 401.283572 
L 680.569449 401.283572 
L 686.213576 401.283572 
L 691.864002 401.283572 
L 697.496462 401.283572 
L 703.145822 401.283572 
L 708.807981 401.283572 
L 714.457874 401.283572 
L 720.10529 401.283572 
L 725.749044 401.283572 
L 731.380678 401.283572 
L 737.02061 401.283572 
L 742.650167 401.283572 
L 748.289752 401.283572 
L 753.925861 401.283572 
L 759.578258 401.281776 
L 765.318339 401.281776 
L 771.050815 401.281776 
L 776.758414 401.281776 
L 782.452802 401.281776 
L 788.147868 401.281776 
L 793.857252 401.281776 
L 799.558325 401.281776 
L 805.272862 401.281776 
L 810.967489 401.281776 
" clip-path="url(#pb4b9d84cc0)" style="fill: none; stroke: #ff7f0e; stroke-width: 2; stroke-linecap: square"/>
    <defs>
     <path id="m2a8f90d1c3" d="M 0 2 
C 0.530406 2 1.03916 1.789267 1.414214 1.414214 
C 1.789267 1.03916 2 0.530406 2 0 
C 2 -0.530406 1.789267 -1.03916 1.414214 -1.414214 
C 1.03916 -1.789267 0.530406 -2 0 -2 
C -0.530406 -2 -1.03916 -1.789267 -1.414214 -1.414214 
C -1.789267 -1.03916 -2 -0.530406 -2 0 
C -2 0.530406 -1.789267 1.03916 -1.414214 1.414214 
C -1.03916 1.789267 -0.530406 2 0 2 
z
" style="stroke: #ff7f0e"/>
    </defs>
    <g clip-path="url(#pb4b9d84cc0)">
     <use xlink:href="#m2a8f90d1c3" x="92.668064" y="403.681416" style="fill: #ff7f0e; stroke: #ff7f0e"/>
     <use xlink:href="#m2a8f90d1c3" x="104.020242" y="403.681416" style="fill: #ff7f0e; stroke: #ff7f0e"/>
     <use xlink:href="#m2a8f90d1c3" x="115.344719" y="403.681416" style="fill: #ff7f0e; stroke: #ff7f0e"/>
     <use xlink:href="#m2a8f90d1c3" x="126.639591" y="403.681416" style="fill: #ff7f0e; stroke: #ff7f0e"/>
     <use xlink:href="#m2a8f90d1c3" x="137.97668" y="403.681416" style="fill: #ff7f0e; stroke: #ff7f0e"/>
     <use xlink:href="#m2a8f90d1c3" x="149.284044" y="403.681416" style="fill: #ff7f0e; stroke: #ff7f0e"/>
     <use xlink:href="#m2a8f90d1c3" x="154.998315" y="403.681416" style="fill: #ff7f0e; stroke: #ff7f0e"/>
     <use xlink:href="#m2a8f90d1c3" x="160.70923" y="403.681416" style="fill: #ff7f0e; stroke: #ff7f0e"/>
     <use xlink:href="#m2a8f90d1c3" x="166.398038" y="403.681416" style="fill: #ff7f0e; stroke: #ff7f0e"/>
     <use xlink:href="#m2a8f90d1c3" x="172.096714" y="403.681416" style="fill: #ff7f0e; stroke: #ff7f0e"/>
     <use xlink:href="#m2a8f90d1c3" x="177.802142" y="403.681416" style="fill: #ff7f0e; stroke: #ff7f0e"/>
     <use xlink:href="#m2a8f90d1c3" x="183.480322" y="403.681416" style="fill: #ff7f0e; stroke: #ff7f0e"/>
     <use xlink:href="#m2a8f90d1c3" x="189.149379" y="403.681416" style="fill: #ff7f0e; stroke: #ff7f0e"/>
     <use xlink:href="#m2a8f90d1c3" x="194.847629" y="403.681416" style="fill: #ff7f0e; stroke: #ff7f0e"/>
     <use xlink:href="#m2a8f90d1c3" x="200.54721" y="402.208583" style="fill: #ff7f0e; stroke: #ff7f0e"/>
     <use xlink:href="#m2a8f90d1c3" x="206.191696" y="401.456001" style="fill: #ff7f0e; stroke: #ff7f0e"/>
     <use xlink:href="#m2a8f90d1c3" x="211.833972" y="401.456001" style="fill: #ff7f0e; stroke: #ff7f0e"/>
     <use xlink:href="#m2a8f90d1c3" x="217.472678" y="401.456001" style="fill: #ff7f0e; stroke: #ff7f0e"/>
     <use xlink:href="#m2a8f90d1c3" x="223.119535" y="401.456001" style="fill: #ff7f0e; stroke: #ff7f0e"/>
     <use xlink:href="#m2a8f90d1c3" x="228.765259" y="401.456001" style="fill: #ff7f0e; stroke: #ff7f0e"/>
     <use xlink:href="#m2a8f90d1c3" x="234.411024" y="401.456001" style="fill: #ff7f0e; stroke: #ff7f0e"/>
     <use xlink:href="#m2a8f90d1c3" x="240.056416" y="401.456001" style="fill: #ff7f0e; stroke: #ff7f0e"/>
     <use xlink:href="#m2a8f90d1c3" x="245.693937" y="401.456001" style="fill: #ff7f0e; stroke: #ff7f0e"/>
     <use xlink:href="#m2a8f90d1c3" x="251.334854" y="401.456001" style="fill: #ff7f0e; stroke: #ff7f0e"/>
     <use xlink:href="#m2a8f90d1c3" x="256.989275" y="401.456001" style="fill: #ff7f0e; stroke: #ff7f0e"/>
     <use xlink:href="#m2a8f90d1c3" x="262.645614" y="401.456001" style="fill: #ff7f0e; stroke: #ff7f0e"/>
     <use xlink:href="#m2a8f90d1c3" x="268.309051" y="401.456001" style="fill: #ff7f0e; stroke: #ff7f0e"/>
     <use xlink:href="#m2a8f90d1c3" x="273.94211" y="401.456001" style="fill: #ff7f0e; stroke: #ff7f0e"/>
     <use xlink:href="#m2a8f90d1c3" x="279.588421" y="401.456001" style="fill: #ff7f0e; stroke: #ff7f0e"/>
     <use xlink:href="#m2a8f90d1c3" x="285.243229" y="401.456001" style="fill: #ff7f0e; stroke: #ff7f0e"/>
     <use xlink:href="#m2a8f90d1c3" x="290.888993" y="401.456001" style="fill: #ff7f0e; stroke: #ff7f0e"/>
     <use xlink:href="#m2a8f90d1c3" x="296.528126" y="401.283572" style="fill: #ff7f0e; stroke: #ff7f0e"/>
     <use xlink:href="#m2a8f90d1c3" x="302.163689" y="401.283572" style="fill: #ff7f0e; stroke: #ff7f0e"/>
     <use xlink:href="#m2a8f90d1c3" x="307.810279" y="401.283572" style="fill: #ff7f0e; stroke: #ff7f0e"/>
     <use xlink:href="#m2a8f90d1c3" x="313.455538" y="401.283572" style="fill: #ff7f0e; stroke: #ff7f0e"/>
     <use xlink:href="#m2a8f90d1c3" x="319.117084" y="401.283572" style="fill: #ff7f0e; stroke: #ff7f0e"/>
     <use xlink:href="#m2a8f90d1c3" x="324.779948" y="401.283572" style="fill: #ff7f0e; stroke: #ff7f0e"/>
     <use xlink:href="#m2a8f90d1c3" x="330.415592" y="401.283572" style="fill: #ff7f0e; stroke: #ff7f0e"/>
     <use xlink:href="#m2a8f90d1c3" x="336.047825" y="401.283572" style="fill: #ff7f0e; stroke: #ff7f0e"/>
     <use xlink:href="#m2a8f90d1c3" x="341.688103" y="401.283572" style="fill: #ff7f0e; stroke: #ff7f0e"/>
     <use xlink:href="#m2a8f90d1c3" x="347.339301" y="401.283572" style="fill: #ff7f0e; stroke: #ff7f0e"/>
     <use xlink:href="#m2a8f90d1c3" x="352.994801" y="401.283572" style="fill: #ff7f0e; stroke: #ff7f0e"/>
     <use xlink:href="#m2a8f90d1c3" x="358.635625" y="401.283572" style="fill: #ff7f0e; stroke: #ff7f0e"/>
     <use xlink:href="#m2a8f90d1c3" x="364.267326" y="401.283572" style="fill: #ff7f0e; stroke: #ff7f0e"/>
     <use xlink:href="#m2a8f90d1c3" x="369.904754" y="401.283572" style="fill: #ff7f0e; stroke: #ff7f0e"/>
     <use xlink:href="#m2a8f90d1c3" x="375.563517" y="401.283572" style="fill: #ff7f0e; stroke: #ff7f0e"/>
     <use xlink:href="#m2a8f90d1c3" x="381.225769" y="401.283572" style="fill: #ff7f0e; stroke: #ff7f0e"/>
     <use xlink:href="#m2a8f90d1c3" x="386.950667" y="401.283572" style="fill: #ff7f0e; stroke: #ff7f0e"/>
     <use xlink:href="#m2a8f90d1c3" x="392.596885" y="401.283572" style="fill: #ff7f0e; stroke: #ff7f0e"/>
     <use xlink:href="#m2a8f90d1c3" x="398.235178" y="401.283572" style="fill: #ff7f0e; stroke: #ff7f0e"/>
     <use xlink:href="#m2a8f90d1c3" x="403.872939" y="401.283572" style="fill: #ff7f0e; stroke: #ff7f0e"/>
     <use xlink:href="#m2a8f90d1c3" x="409.507437" y="401.283572" style="fill: #ff7f0e; stroke: #ff7f0e"/>
     <use xlink:href="#m2a8f90d1c3" x="415.146303" y="401.283572" style="fill: #ff7f0e; stroke: #ff7f0e"/>
     <use xlink:href="#m2a8f90d1c3" x="420.786967" y="401.283572" style="fill: #ff7f0e; stroke: #ff7f0e"/>
     <use xlink:href="#m2a8f90d1c3" x="426.432505" y="401.283572" style="fill: #ff7f0e; stroke: #ff7f0e"/>
     <use xlink:href="#m2a8f90d1c3" x="432.078256" y="401.283572" style="fill: #ff7f0e; stroke: #ff7f0e"/>
     <use xlink:href="#m2a8f90d1c3" x="437.724061" y="401.283572" style="fill: #ff7f0e; stroke: #ff7f0e"/>
     <use xlink:href="#m2a8f90d1c3" x="443.368946" y="401.283572" style="fill: #ff7f0e; stroke: #ff7f0e"/>
     <use xlink:href="#m2a8f90d1c3" x="449.012847" y="401.283572" style="fill: #ff7f0e; stroke: #ff7f0e"/>
     <use xlink:href="#m2a8f90d1c3" x="454.649475" y="401.283572" style="fill: #ff7f0e; stroke: #ff7f0e"/>
     <use xlink:href="#m2a8f90d1c3" x="460.290659" y="401.283572" style="fill: #ff7f0e; stroke: #ff7f0e"/>
     <use xlink:href="#m2a8f90d1c3" x="465.935131" y="401.283572" style="fill: #ff7f0e; stroke: #ff7f0e"/>
     <use xlink:href="#m2a8f90d1c3" x="471.578166" y="401.283572" style="fill: #ff7f0e; stroke: #ff7f0e"/>
     <use xlink:href="#m2a8f90d1c3" x="477.22148" y="401.283572" style="fill: #ff7f0e; stroke: #ff7f0e"/>
     <use xlink:href="#m2a8f90d1c3" x="482.86594" y="401.283572" style="fill: #ff7f0e; stroke: #ff7f0e"/>
     <use xlink:href="#m2a8f90d1c3" x="488.513009" y="401.283572" style="fill: #ff7f0e; stroke: #ff7f0e"/>
     <use xlink:href="#m2a8f90d1c3" x="494.156164" y="401.283572" style="fill: #ff7f0e; stroke: #ff7f0e"/>
     <use xlink:href="#m2a8f90d1c3" x="499.796681" y="401.283572" style="fill: #ff7f0e; stroke: #ff7f0e"/>
     <use xlink:href="#m2a8f90d1c3" x="505.438131" y="401.283572" style="fill: #ff7f0e; stroke: #ff7f0e"/>
     <use xlink:href="#m2a8f90d1c3" x="511.082697" y="401.283572" style="fill: #ff7f0e; stroke: #ff7f0e"/>
     <use xlink:href="#m2a8f90d1c3" x="516.728688" y="401.283572" style="fill: #ff7f0e; stroke: #ff7f0e"/>
     <use xlink:href="#m2a8f90d1c3" x="522.363306" y="401.283572" style="fill: #ff7f0e; stroke: #ff7f0e"/>
     <use xlink:href="#m2a8f90d1c3" x="528.004715" y="401.283572" style="fill: #ff7f0e; stroke: #ff7f0e"/>
     <use xlink:href="#m2a8f90d1c3" x="533.64799" y="401.283572" style="fill: #ff7f0e; stroke: #ff7f0e"/>
     <use xlink:href="#m2a8f90d1c3" x="539.28306" y="401.283572" style="fill: #ff7f0e; stroke: #ff7f0e"/>
     <use xlink:href="#m2a8f90d1c3" x="545.062681" y="401.283572" style="fill: #ff7f0e; stroke: #ff7f0e"/>
     <use xlink:href="#m2a8f90d1c3" x="550.695528" y="401.283572" style="fill: #ff7f0e; stroke: #ff7f0e"/>
     <use xlink:href="#m2a8f90d1c3" x="556.339068" y="401.283572" style="fill: #ff7f0e; stroke: #ff7f0e"/>
     <use xlink:href="#m2a8f90d1c3" x="561.979985" y="401.283572" style="fill: #ff7f0e; stroke: #ff7f0e"/>
     <use xlink:href="#m2a8f90d1c3" x="567.615082" y="401.283572" style="fill: #ff7f0e; stroke: #ff7f0e"/>
     <use xlink:href="#m2a8f90d1c3" x="573.259355" y="401.283572" style="fill: #ff7f0e; stroke: #ff7f0e"/>
     <use xlink:href="#m2a8f90d1c3" x="578.903935" y="401.283572" style="fill: #ff7f0e; stroke: #ff7f0e"/>
     <use xlink:href="#m2a8f90d1c3" x="584.539059" y="401.283572" style="fill: #ff7f0e; stroke: #ff7f0e"/>
     <use xlink:href="#m2a8f90d1c3" x="590.174995" y="401.283572" style="fill: #ff7f0e; stroke: #ff7f0e"/>
     <use xlink:href="#m2a8f90d1c3" x="595.813102" y="401.283572" style="fill: #ff7f0e; stroke: #ff7f0e"/>
     <use xlink:href="#m2a8f90d1c3" x="601.445042" y="401.283572" style="fill: #ff7f0e; stroke: #ff7f0e"/>
     <use xlink:href="#m2a8f90d1c3" x="607.169182" y="401.283572" style="fill: #ff7f0e; stroke: #ff7f0e"/>
     <use xlink:href="#m2a8f90d1c3" x="612.833844" y="401.283572" style="fill: #ff7f0e; stroke: #ff7f0e"/>
     <use xlink:href="#m2a8f90d1c3" x="618.479143" y="401.283572" style="fill: #ff7f0e; stroke: #ff7f0e"/>
     <use xlink:href="#m2a8f90d1c3" x="624.133857" y="401.283572" style="fill: #ff7f0e; stroke: #ff7f0e"/>
     <use xlink:href="#m2a8f90d1c3" x="629.780927" y="401.283572" style="fill: #ff7f0e; stroke: #ff7f0e"/>
     <use xlink:href="#m2a8f90d1c3" x="635.435668" y="401.283572" style="fill: #ff7f0e; stroke: #ff7f0e"/>
     <use xlink:href="#m2a8f90d1c3" x="641.081552" y="401.283572" style="fill: #ff7f0e; stroke: #ff7f0e"/>
     <use xlink:href="#m2a8f90d1c3" x="646.725639" y="401.283572" style="fill: #ff7f0e; stroke: #ff7f0e"/>
     <use xlink:href="#m2a8f90d1c3" x="652.37103" y="401.283572" style="fill: #ff7f0e; stroke: #ff7f0e"/>
     <use xlink:href="#m2a8f90d1c3" x="658.002851" y="401.283572" style="fill: #ff7f0e; stroke: #ff7f0e"/>
     <use xlink:href="#m2a8f90d1c3" x="663.637909" y="401.283572" style="fill: #ff7f0e; stroke: #ff7f0e"/>
     <use xlink:href="#m2a8f90d1c3" x="669.277574" y="401.283572" style="fill: #ff7f0e; stroke: #ff7f0e"/>
     <use xlink:href="#m2a8f90d1c3" x="674.928878" y="401.283572" style="fill: #ff7f0e; stroke: #ff7f0e"/>
     <use xlink:href="#m2a8f90d1c3" x="680.569449" y="401.283572" style="fill: #ff7f0e; stroke: #ff7f0e"/>
     <use xlink:href="#m2a8f90d1c3" x="686.213576" y="401.283572" style="fill: #ff7f0e; stroke: #ff7f0e"/>
     <use xlink:href="#m2a8f90d1c3" x="691.864002" y="401.283572" style="fill: #ff7f0e; stroke: #ff7f0e"/>
     <use xlink:href="#m2a8f90d1c3" x="697.496462" y="401.283572" style="fill: #ff7f0e; stroke: #ff7f0e"/>
     <use xlink:href="#m2a8f90d1c3" x="703.145822" y="401.283572" style="fill: #ff7f0e; stroke: #ff7f0e"/>
     <use xlink:href="#m2a8f90d1c3" x="708.807981" y="401.283572" style="fill: #ff7f0e; stroke: #ff7f0e"/>
     <use xlink:href="#m2a8f90d1c3" x="714.457874" y="401.283572" style="fill: #ff7f0e; stroke: #ff7f0e"/>
     <use xlink:href="#m2a8f90d1c3" x="720.10529" y="401.283572" style="fill: #ff7f0e; stroke: #ff7f0e"/>
     <use xlink:href="#m2a8f90d1c3" x="725.749044" y="401.283572" style="fill: #ff7f0e; stroke: #ff7f0e"/>
     <use xlink:href="#m2a8f90d1c3" x="731.380678" y="401.283572" style="fill: #ff7f0e; stroke: #ff7f0e"/>
     <use xlink:href="#m2a8f90d1c3" x="737.02061" y="401.283572" style="fill: #ff7f0e; stroke: #ff7f0e"/>
     <use xlink:href="#m2a8f90d1c3" x="742.650167" y="401.283572" style="fill: #ff7f0e; stroke: #ff7f0e"/>
     <use xlink:href="#m2a8f90d1c3" x="748.289752" y="401.283572" style="fill: #ff7f0e; stroke: #ff7f0e"/>
     <use xlink:href="#m2a8f90d1c3" x="753.925861" y="401.283572" style="fill: #ff7f0e; stroke: #ff7f0e"/>
     <use xlink:href="#m2a8f90d1c3" x="759.578258" y="401.281776" style="fill: #ff7f0e; stroke: #ff7f0e"/>
     <use xlink:href="#m2a8f90d1c3" x="765.318339" y="401.281776" style="fill: #ff7f0e; stroke: #ff7f0e"/>
     <use xlink:href="#m2a8f90d1c3" x="771.050815" y="401.281776" style="fill: #ff7f0e; stroke: #ff7f0e"/>
     <use xlink:href="#m2a8f90d1c3" x="776.758414" y="401.281776" style="fill: #ff7f0e; stroke: #ff7f0e"/>
     <use xlink:href="#m2a8f90d1c3" x="782.452802" y="401.281776" style="fill: #ff7f0e; stroke: #ff7f0e"/>
     <use xlink:href="#m2a8f90d1c3" x="788.147868" y="401.281776" style="fill: #ff7f0e; stroke: #ff7f0e"/>
     <use xlink:href="#m2a8f90d1c3" x="793.857252" y="401.281776" style="fill: #ff7f0e; stroke: #ff7f0e"/>
     <use xlink:href="#m2a8f90d1c3" x="799.558325" y="401.281776" style="fill: #ff7f0e; stroke: #ff7f0e"/>
     <use xlink:href="#m2a8f90d1c3" x="805.272862" y="401.281776" style="fill: #ff7f0e; stroke: #ff7f0e"/>
     <use xlink:href="#m2a8f90d1c3" x="810.967489" y="401.281776" style="fill: #ff7f0e; stroke: #ff7f0e"/>
    </g>
   </g>
   <g id="patch_3">
    <path d="M 53.328125 530.918125 
L 53.328125 22.318125 
" style="fill: none; stroke: #000000; stroke-width: 0.8; stroke-linejoin: miter; stroke-linecap: square"/>
   </g>
   <g id="patch_4">
    <path d="M 849.088125 530.918125 
L 849.088125 22.318125 
" style="fill: none; stroke: #000000; stroke-width: 0.8; stroke-linejoin: miter; stroke-linecap: square"/>
   </g>
   <g id="patch_5">
    <path d="M 53.328125 530.918125 
L 849.088125 530.918125 
" style="fill: none; stroke: #000000; stroke-width: 0.8; stroke-linejoin: miter; stroke-linecap: square"/>
   </g>
   <g id="patch_6">
    <path d="M 53.328125 22.318125 
L 849.088125 22.318125 
" style="fill: none; stroke: #000000; stroke-width: 0.8; stroke-linejoin: miter; stroke-linecap: square"/>
   </g>
   <g id="text_16">
    <!-- Memory Usage Comparison Over Time -->
    <g transform="translate(335.446563 16.318125) scale(0.12 -0.12)">
     <defs>
      <path id="DejaVuSans-43" d="M 4122 4306 
L 4122 3641 
Q 3803 3938 3442 4084 
Q 3081 4231 2675 4231 
Q 1875 4231 1450 3742 
Q 1025 3253 1025 2328 
Q 1025 1406 1450 917 
Q 1875 428 2675 428 
Q 3081 428 3442 575 
Q 3803 722 4122 1019 
L 4122 359 
Q 3791 134 3420 21 
Q 3050 -91 2638 -91 
Q 1578 -91 968 557 
Q 359 1206 359 2328 
Q 359 3453 968 4101 
Q 1578 4750 2638 4750 
Q 3056 4750 3426 4639 
Q 3797 4528 4122 4306 
z
" transform="scale(0.015625)"/>
      <path id="DejaVuSans-4f" d="M 2522 4238 
Q 1834 4238 1429 3725 
Q 1025 3213 1025 2328 
Q 1025 1447 1429 934 
Q 1834 422 2522 422 
Q 3209 422 3611 934 
Q 4013 1447 4013 2328 
Q 4013 3213 3611 3725 
Q 3209 4238 2522 4238 
z
M 2522 4750 
Q 3503 4750 4090 4092 
Q 4678 3434 4678 2328 
Q 4678 1225 4090 567 
Q 3503 -91 2522 -91 
Q 1538 -91 948 565 
Q 359 1222 359 2328 
Q 359 3434 948 4092 
Q 1538 4750 2522 4750 
z
" transform="scale(0.015625)"/>
      <path id="DejaVuSans-76" d="M 191 3500 
L 800 3500 
L 1894 563 
L 2988 3500 
L 3597 3500 
L 2284 0 
L 1503 0 
L 191 3500 
z
" transform="scale(0.015625)"/>
     </defs>
     <use xlink:href="#DejaVuSans-4d"/>
     <use xlink:href="#DejaVuSans-65" x="86.279297"/>
     <use xlink:href="#DejaVuSans-6d" x="147.802734"/>
     <use xlink:href="#DejaVuSans-6f" x="245.214844"/>
     <use xlink:href="#DejaVuSans-72" x="306.396484"/>
     <use xlink:href="#DejaVuSans-79" x="347.509766"/>
     <use xlink:href="#DejaVuSans-20" x="406.689453"/>
     <use xlink:href="#DejaVuSans-55" x="438.476562"/>
     <use xlink:href="#DejaVuSans-73" x="511.669922"/>
     <use xlink:href="#DejaVuSans-61" x="563.769531"/>
     <use xlink:href="#DejaVuSans-67" x="625.048828"/>
     <use xlink:href="#DejaVuSans-65" x="688.525391"/>
     <use xlink:href="#DejaVuSans-20" x="750.048828"/>
     <use xlink:href="#DejaVuSans-43" x="781.835938"/>
     <use xlink:href="#DejaVuSans-6f" x="851.660156"/>
     <use xlink:href="#DejaVuSans-6d" x="912.841797"/>
     <use xlink:href="#DejaVuSans-70" x="1010.253906"/>
     <use xlink:href="#DejaVuSans-61" x="1073.730469"/>
     <use xlink:href="#DejaVuSans-72" x="1135.009766"/>
     <use xlink:href="#DejaVuSans-69" x="1176.123047"/>
     <use xlink:href="#DejaVuSans-73" x="1203.90625"/>
     <use xlink:href="#DejaVuSans-6f" x="1256.005859"/>
     <use xlink:href="#DejaVuSans-6e" x="1317.1875"/>
     <use xlink:href="#DejaVuSans-20" x="1380.566406"/>
     <use xlink:href="#DejaVuSans-4f" x="1412.353516"/>
     <use xlink:href="#DejaVuSans-76" x="1491.064453"/>
     <use xlink:href="#DejaVuSans-65" x="1550.244141"/>
     <use xlink:href="#DejaVuSans-72" x="1611.767578"/>
     <use xlink:href="#DejaVuSans-20" x="1652.880859"/>
     <use xlink:href="#DejaVuSans-54" x="1684.667969"/>
     <use xlink:href="#DejaVuSans-69" x="1742.626953"/>
     <use xlink:href="#DejaVuSans-6d" x="1770.410156"/>
     <use xlink:href="#DejaVuSans-65" x="1867.822266"/>
    </g>
   </g>
   <g id="legend_1">
    <g id="patch_7">
     <path d="M 60.328125 74.3525 
L 128.970313 74.3525 
Q 130.970313 74.3525 130.970313 72.3525 
L 130.970313 29.318125 
Q 130.970313 27.318125 128.970313 27.318125 
L 60.328125 27.318125 
Q 58.328125 27.318125 58.328125 29.318125 
L 58.328125 72.3525 
Q 58.328125 74.3525 60.328125 74.3525 
z
" style="fill: #ffffff; opacity: 0.8; stroke: #cccccc; stroke-linejoin: miter"/>
    </g>
    <g id="line2d_30">
     <path d="M 62.328125 35.416562 
L 72.328125 35.416562 
L 82.328125 35.416562 
" style="fill: none; stroke: #2ca02c; stroke-width: 2; stroke-linecap: square"/>
     <g>
      <use xlink:href="#md8491464e8" x="72.328125" y="35.416562" style="fill: #2ca02c; stroke: #2ca02c"/>
     </g>
    </g>
    <g id="text_17">
     <!-- weaver -->
     <g transform="translate(90.328125 38.916562) scale(0.1 -0.1)">
      <defs>
       <path id="DejaVuSans-77" d="M 269 3500 
L 844 3500 
L 1563 769 
L 2278 3500 
L 2956 3500 
L 3675 769 
L 4391 3500 
L 4966 3500 
L 4050 0 
L 3372 0 
L 2619 2869 
L 1863 0 
L 1184 0 
L 269 3500 
z
" transform="scale(0.015625)"/>
      </defs>
      <use xlink:href="#DejaVuSans-77"/>
      <use xlink:href="#DejaVuSans-65" x="81.787109"/>
      <use xlink:href="#DejaVuSans-61" x="143.310547"/>
      <use xlink:href="#DejaVuSans-76" x="204.589844"/>
      <use xlink:href="#DejaVuSans-65" x="263.769531"/>
      <use xlink:href="#DejaVuSans-72" x="325.292969"/>
     </g>
    </g>
    <g id="line2d_31">
     <path d="M 62.328125 50.094687 
L 72.328125 50.094687 
L 82.328125 50.094687 
" style="fill: none; stroke: #1f77b4; stroke-width: 2; stroke-linecap: square"/>
     <g>
      <use xlink:href="#mf6b2eedfc0" x="72.328125" y="50.094687" style="fill: #1f77b4; stroke: #1f77b4"/>
     </g>
    </g>
    <g id="text_18">
     <!-- node -->
     <g transform="translate(90.328125 53.594687) scale(0.1 -0.1)">
      <use xlink:href="#DejaVuSans-6e"/>
      <use xlink:href="#DejaVuSans-6f" x="63.378906"/>
      <use xlink:href="#DejaVuSans-64" x="124.560547"/>
      <use xlink:href="#DejaVuSans-65" x="188.037109"/>
     </g>
    </g>
    <g id="line2d_32">
     <path d="M 62.328125 64.772812 
L 72.328125 64.772812 
L 82.328125 64.772812 
" style="fill: none; stroke: #ff7f0e; stroke-width: 2; stroke-linecap: square"/>
     <g>
      <use xlink:href="#m2a8f90d1c3" x="72.328125" y="64.772812" style="fill: #ff7f0e; stroke: #ff7f0e"/>
     </g>
    </g>
    <g id="text_19">
     <!-- python -->
     <g transform="translate(90.328125 68.272812) scale(0.1 -0.1)">
      <defs>
       <path id="DejaVuSans-74" d="M 1172 4494 
L 1172 3500 
L 2356 3500 
L 2356 3053 
L 1172 3053 
L 1172 1153 
Q 1172 725 1289 603 
Q 1406 481 1766 481 
L 2356 481 
L 2356 0 
L 1766 0 
Q 1100 0 847 248 
Q 594 497 594 1153 
L 594 3053 
L 172 3053 
L 172 3500 
L 594 3500 
L 594 4494 
L 1172 4494 
z
" transform="scale(0.015625)"/>
       <path id="DejaVuSans-68" d="M 3513 2113 
L 3513 0 
L 2938 0 
L 2938 2094 
Q 2938 2591 2744 2837 
Q 2550 3084 2163 3084 
Q 1697 3084 1428 2787 
Q 1159 2491 1159 1978 
L 1159 0 
L 581 0 
L 581 4863 
L 1159 4863 
L 1159 2956 
Q 1366 3272 1645 3428 
Q 1925 3584 2291 3584 
Q 2894 3584 3203 3211 
Q 3513 2838 3513 2113 
z
" transform="scale(0.015625)"/>
      </defs>
      <use xlink:href="#DejaVuSans-70"/>
      <use xlink:href="#DejaVuSans-79" x="63.476562"/>
      <use xlink:href="#DejaVuSans-74" x="122.65625"/>
      <use xlink:href="#DejaVuSans-68" x="161.865234"/>
      <use xlink:href="#DejaVuSans-6f" x="225.244141"/>
      <use xlink:href="#DejaVuSans-6e" x="286.425781"/>
     </g>
    </g>
   </g>
  </g>
 </g>
 <defs>
  <clipPath id="pb4b9d84cc0">
   <rect x="53.328125" y="22.318125" width="795.76" height="508.6"/>
  </clipPath>
 </defs>
</svg>
