<?xml version="1.0" encoding="utf-8" standalone="no"?>
<!DOCTYPE svg PUBLIC "-//W3C//DTD SVG 1.1//EN"
  "http://www.w3.org/Graphics/SVG/1.1/DTD/svg11.dtd">
<svg xmlns:xlink="http://www.w3.org/1999/xlink" width="856.288125pt" height="568.474375pt" viewBox="0 0 856.288125 568.474375" xmlns="http://www.w3.org/2000/svg" version="1.1">
 <metadata>
  <rdf:RDF xmlns:dc="http://purl.org/dc/elements/1.1/" xmlns:cc="http://creativecommons.org/ns#" xmlns:rdf="http://www.w3.org/1999/02/22-rdf-syntax-ns#">
   <cc:Work>
    <dc:type rdf:resource="http://purl.org/dc/dcmitype/StillImage"/>
    <dc:date>2025-06-27T15:22:50.806312</dc:date>
    <dc:format>image/svg+xml</dc:format>
    <dc:creator>
     <cc:Agent>
      <dc:title>Matplotlib v3.6.3, https://matplotlib.org/</dc:title>
     </cc:Agent>
    </dc:creator>
   </cc:Work>
  </rdf:RDF>
 </metadata>
 <defs>
  <style type="text/css">*{stroke-linejoin: round; stroke-linecap: butt}</style>
 </defs>
 <g id="figure_1">
  <g id="patch_1">
   <path d="M 0 568.474375 
L 856.288125 568.474375 
L 856.288125 0 
L 0 0 
z
" style="fill: #ffffff"/>
  </g>
  <g id="axes_1">
   <g id="patch_2">
    <path d="M 53.328125 530.918125 
L 849.088125 530.918125 
L 849.088125 22.318125 
L 53.328125 22.318125 
z
" style="fill: #ffffff"/>
   </g>
   <g id="matplotlib.axis_1">
    <g id="xtick_1">
     <g id="line2d_1">
      <path d="M 83.362412 530.918125 
L 83.362412 22.318125 
" clip-path="url(#pc8bb6493f2)" style="fill: none; stroke: #b0b0b0; stroke-opacity: 0.3; stroke-width: 0.8; stroke-linecap: square"/>
     </g>
     <g id="line2d_2">
      <defs>
       <path id="ma6ad966d2d" d="M 0 0 
L 0 3.5 
" style="stroke: #000000; stroke-width: 0.8"/>
      </defs>
      <g>
       <use xlink:href="#ma6ad966d2d" x="83.362412" y="530.918125" style="stroke: #000000; stroke-width: 0.8"/>
      </g>
     </g>
     <g id="text_1">
      <!-- 0 -->
      <g transform="translate(80.181162 545.516562) scale(0.1 -0.1)">
       <defs>
        <path id="DejaVuSans-30" d="M 2034 4250 
Q 1547 4250 1301 3770 
Q 1056 3291 1056 2328 
Q 1056 1369 1301 889 
Q 1547 409 2034 409 
Q 2525 409 2770 889 
Q 3016 1369 3016 2328 
Q 3016 3291 2770 3770 
Q 2525 4250 2034 4250 
z
M 2034 4750 
Q 2819 4750 3233 4129 
Q 3647 3509 3647 2328 
Q 3647 1150 3233 529 
Q 2819 -91 2034 -91 
Q 1250 -91 836 529 
Q 422 1150 422 2328 
Q 422 3509 836 4129 
Q 1250 4750 2034 4750 
z
" transform="scale(0.015625)"/>
       </defs>
       <use xlink:href="#DejaVuSans-30"/>
      </g>
     </g>
    </g>
    <g id="xtick_2">
     <g id="line2d_3">
      <path d="M 195.812944 530.918125 
L 195.812944 22.318125 
" clip-path="url(#pc8bb6493f2)" style="fill: none; stroke: #b0b0b0; stroke-opacity: 0.3; stroke-width: 0.8; stroke-linecap: square"/>
     </g>
     <g id="line2d_4">
      <g>
       <use xlink:href="#ma6ad966d2d" x="195.812944" y="530.918125" style="stroke: #000000; stroke-width: 0.8"/>
      </g>
     </g>
     <g id="text_2">
      <!-- 2 -->
      <g transform="translate(192.631694 545.516562) scale(0.1 -0.1)">
       <defs>
        <path id="DejaVuSans-32" d="M 1228 531 
L 3431 531 
L 3431 0 
L 469 0 
L 469 531 
Q 828 903 1448 1529 
Q 2069 2156 2228 2338 
Q 2531 2678 2651 2914 
Q 2772 3150 2772 3378 
Q 2772 3750 2511 3984 
Q 2250 4219 1831 4219 
Q 1534 4219 1204 4116 
Q 875 4013 500 3803 
L 500 4441 
Q 881 4594 1212 4672 
Q 1544 4750 1819 4750 
Q 2544 4750 2975 4387 
Q 3406 4025 3406 3419 
Q 3406 3131 3298 2873 
Q 3191 2616 2906 2266 
Q 2828 2175 2409 1742 
Q 1991 1309 1228 531 
z
" transform="scale(0.015625)"/>
       </defs>
       <use xlink:href="#DejaVuSans-32"/>
      </g>
     </g>
    </g>
    <g id="xtick_3">
     <g id="line2d_5">
      <path d="M 308.263475 530.918125 
L 308.263475 22.318125 
" clip-path="url(#pc8bb6493f2)" style="fill: none; stroke: #b0b0b0; stroke-opacity: 0.3; stroke-width: 0.8; stroke-linecap: square"/>
     </g>
     <g id="line2d_6">
      <g>
       <use xlink:href="#ma6ad966d2d" x="308.263475" y="530.918125" style="stroke: #000000; stroke-width: 0.8"/>
      </g>
     </g>
     <g id="text_3">
      <!-- 4 -->
      <g transform="translate(305.082225 545.516562) scale(0.1 -0.1)">
       <defs>
        <path id="DejaVuSans-34" d="M 2419 4116 
L 825 1625 
L 2419 1625 
L 2419 4116 
z
M 2253 4666 
L 3047 4666 
L 3047 1625 
L 3713 1625 
L 3713 1100 
L 3047 1100 
L 3047 0 
L 2419 0 
L 2419 1100 
L 313 1100 
L 313 1709 
L 2253 4666 
z
" transform="scale(0.015625)"/>
       </defs>
       <use xlink:href="#DejaVuSans-34"/>
      </g>
     </g>
    </g>
    <g id="xtick_4">
     <g id="line2d_7">
      <path d="M 420.714007 530.918125 
L 420.714007 22.318125 
" clip-path="url(#pc8bb6493f2)" style="fill: none; stroke: #b0b0b0; stroke-opacity: 0.3; stroke-width: 0.8; stroke-linecap: square"/>
     </g>
     <g id="line2d_8">
      <g>
       <use xlink:href="#ma6ad966d2d" x="420.714007" y="530.918125" style="stroke: #000000; stroke-width: 0.8"/>
      </g>
     </g>
     <g id="text_4">
      <!-- 6 -->
      <g transform="translate(417.532757 545.516562) scale(0.1 -0.1)">
       <defs>
        <path id="DejaVuSans-36" d="M 2113 2584 
Q 1688 2584 1439 2293 
Q 1191 2003 1191 1497 
Q 1191 994 1439 701 
Q 1688 409 2113 409 
Q 2538 409 2786 701 
Q 3034 994 3034 1497 
Q 3034 2003 2786 2293 
Q 2538 2584 2113 2584 
z
M 3366 4563 
L 3366 3988 
Q 3128 4100 2886 4159 
Q 2644 4219 2406 4219 
Q 1781 4219 1451 3797 
Q 1122 3375 1075 2522 
Q 1259 2794 1537 2939 
Q 1816 3084 2150 3084 
Q 2853 3084 3261 2657 
Q 3669 2231 3669 1497 
Q 3669 778 3244 343 
Q 2819 -91 2113 -91 
Q 1303 -91 875 529 
Q 447 1150 447 2328 
Q 447 3434 972 4092 
Q 1497 4750 2381 4750 
Q 2619 4750 2861 4703 
Q 3103 4656 3366 4563 
z
" transform="scale(0.015625)"/>
       </defs>
       <use xlink:href="#DejaVuSans-36"/>
      </g>
     </g>
    </g>
    <g id="xtick_5">
     <g id="line2d_9">
      <path d="M 533.164539 530.918125 
L 533.164539 22.318125 
" clip-path="url(#pc8bb6493f2)" style="fill: none; stroke: #b0b0b0; stroke-opacity: 0.3; stroke-width: 0.8; stroke-linecap: square"/>
     </g>
     <g id="line2d_10">
      <g>
       <use xlink:href="#ma6ad966d2d" x="533.164539" y="530.918125" style="stroke: #000000; stroke-width: 0.8"/>
      </g>
     </g>
     <g id="text_5">
      <!-- 8 -->
      <g transform="translate(529.983289 545.516562) scale(0.1 -0.1)">
       <defs>
        <path id="DejaVuSans-38" d="M 2034 2216 
Q 1584 2216 1326 1975 
Q 1069 1734 1069 1313 
Q 1069 891 1326 650 
Q 1584 409 2034 409 
Q 2484 409 2743 651 
Q 3003 894 3003 1313 
Q 3003 1734 2745 1975 
Q 2488 2216 2034 2216 
z
M 1403 2484 
Q 997 2584 770 2862 
Q 544 3141 544 3541 
Q 544 4100 942 4425 
Q 1341 4750 2034 4750 
Q 2731 4750 3128 4425 
Q 3525 4100 3525 3541 
Q 3525 3141 3298 2862 
Q 3072 2584 2669 2484 
Q 3125 2378 3379 2068 
Q 3634 1759 3634 1313 
Q 3634 634 3220 271 
Q 2806 -91 2034 -91 
Q 1263 -91 848 271 
Q 434 634 434 1313 
Q 434 1759 690 2068 
Q 947 2378 1403 2484 
z
M 1172 3481 
Q 1172 3119 1398 2916 
Q 1625 2713 2034 2713 
Q 2441 2713 2670 2916 
Q 2900 3119 2900 3481 
Q 2900 3844 2670 4047 
Q 2441 4250 2034 4250 
Q 1625 4250 1398 4047 
Q 1172 3844 1172 3481 
z
" transform="scale(0.015625)"/>
       </defs>
       <use xlink:href="#DejaVuSans-38"/>
      </g>
     </g>
    </g>
    <g id="xtick_6">
     <g id="line2d_11">
      <path d="M 645.615071 530.918125 
L 645.615071 22.318125 
" clip-path="url(#pc8bb6493f2)" style="fill: none; stroke: #b0b0b0; stroke-opacity: 0.3; stroke-width: 0.8; stroke-linecap: square"/>
     </g>
     <g id="line2d_12">
      <g>
       <use xlink:href="#ma6ad966d2d" x="645.615071" y="530.918125" style="stroke: #000000; stroke-width: 0.8"/>
      </g>
     </g>
     <g id="text_6">
      <!-- 10 -->
      <g transform="translate(639.252571 545.516562) scale(0.1 -0.1)">
       <defs>
        <path id="DejaVuSans-31" d="M 794 531 
L 1825 531 
L 1825 4091 
L 703 3866 
L 703 4441 
L 1819 4666 
L 2450 4666 
L 2450 531 
L 3481 531 
L 3481 0 
L 794 0 
L 794 531 
z
" transform="scale(0.015625)"/>
       </defs>
       <use xlink:href="#DejaVuSans-31"/>
       <use xlink:href="#DejaVuSans-30" x="63.623047"/>
      </g>
     </g>
    </g>
    <g id="xtick_7">
     <g id="line2d_13">
      <path d="M 758.065602 530.918125 
L 758.065602 22.318125 
" clip-path="url(#pc8bb6493f2)" style="fill: none; stroke: #b0b0b0; stroke-opacity: 0.3; stroke-width: 0.8; stroke-linecap: square"/>
     </g>
     <g id="line2d_14">
      <g>
       <use xlink:href="#ma6ad966d2d" x="758.065602" y="530.918125" style="stroke: #000000; stroke-width: 0.8"/>
      </g>
     </g>
     <g id="text_7">
      <!-- 12 -->
      <g transform="translate(751.703102 545.516562) scale(0.1 -0.1)">
       <use xlink:href="#DejaVuSans-31"/>
       <use xlink:href="#DejaVuSans-32" x="63.623047"/>
      </g>
     </g>
    </g>
    <g id="text_8">
     <!-- Elapsed Time (seconds) -->
     <g transform="translate(391.815156 559.194687) scale(0.1 -0.1)">
      <defs>
       <path id="DejaVuSans-45" d="M 628 4666 
L 3578 4666 
L 3578 4134 
L 1259 4134 
L 1259 2753 
L 3481 2753 
L 3481 2222 
L 1259 2222 
L 1259 531 
L 3634 531 
L 3634 0 
L 628 0 
L 628 4666 
z
" transform="scale(0.015625)"/>
       <path id="DejaVuSans-6c" d="M 603 4863 
L 1178 4863 
L 1178 0 
L 603 0 
L 603 4863 
z
" transform="scale(0.015625)"/>
       <path id="DejaVuSans-61" d="M 2194 1759 
Q 1497 1759 1228 1600 
Q 959 1441 959 1056 
Q 959 750 1161 570 
Q 1363 391 1709 391 
Q 2188 391 2477 730 
Q 2766 1069 2766 1631 
L 2766 1759 
L 2194 1759 
z
M 3341 1997 
L 3341 0 
L 2766 0 
L 2766 531 
Q 2569 213 2275 61 
Q 1981 -91 1556 -91 
Q 1019 -91 701 211 
Q 384 513 384 1019 
Q 384 1609 779 1909 
Q 1175 2209 1959 2209 
L 2766 2209 
L 2766 2266 
Q 2766 2663 2505 2880 
Q 2244 3097 1772 3097 
Q 1472 3097 1187 3025 
Q 903 2953 641 2809 
L 641 3341 
Q 956 3463 1253 3523 
Q 1550 3584 1831 3584 
Q 2591 3584 2966 3190 
Q 3341 2797 3341 1997 
z
" transform="scale(0.015625)"/>
       <path id="DejaVuSans-70" d="M 1159 525 
L 1159 -1331 
L 581 -1331 
L 581 3500 
L 1159 3500 
L 1159 2969 
Q 1341 3281 1617 3432 
Q 1894 3584 2278 3584 
Q 2916 3584 3314 3078 
Q 3713 2572 3713 1747 
Q 3713 922 3314 415 
Q 2916 -91 2278 -91 
Q 1894 -91 1617 61 
Q 1341 213 1159 525 
z
M 3116 1747 
Q 3116 2381 2855 2742 
Q 2594 3103 2138 3103 
Q 1681 3103 1420 2742 
Q 1159 2381 1159 1747 
Q 1159 1113 1420 752 
Q 1681 391 2138 391 
Q 2594 391 2855 752 
Q 3116 1113 3116 1747 
z
" transform="scale(0.015625)"/>
       <path id="DejaVuSans-73" d="M 2834 3397 
L 2834 2853 
Q 2591 2978 2328 3040 
Q 2066 3103 1784 3103 
Q 1356 3103 1142 2972 
Q 928 2841 928 2578 
Q 928 2378 1081 2264 
Q 1234 2150 1697 2047 
L 1894 2003 
Q 2506 1872 2764 1633 
Q 3022 1394 3022 966 
Q 3022 478 2636 193 
Q 2250 -91 1575 -91 
Q 1294 -91 989 -36 
Q 684 19 347 128 
L 347 722 
Q 666 556 975 473 
Q 1284 391 1588 391 
Q 1994 391 2212 530 
Q 2431 669 2431 922 
Q 2431 1156 2273 1281 
Q 2116 1406 1581 1522 
L 1381 1569 
Q 847 1681 609 1914 
Q 372 2147 372 2553 
Q 372 3047 722 3315 
Q 1072 3584 1716 3584 
Q 2034 3584 2315 3537 
Q 2597 3491 2834 3397 
z
" transform="scale(0.015625)"/>
       <path id="DejaVuSans-65" d="M 3597 1894 
L 3597 1613 
L 953 1613 
Q 991 1019 1311 708 
Q 1631 397 2203 397 
Q 2534 397 2845 478 
Q 3156 559 3463 722 
L 3463 178 
Q 3153 47 2828 -22 
Q 2503 -91 2169 -91 
Q 1331 -91 842 396 
Q 353 884 353 1716 
Q 353 2575 817 3079 
Q 1281 3584 2069 3584 
Q 2775 3584 3186 3129 
Q 3597 2675 3597 1894 
z
M 3022 2063 
Q 3016 2534 2758 2815 
Q 2500 3097 2075 3097 
Q 1594 3097 1305 2825 
Q 1016 2553 972 2059 
L 3022 2063 
z
" transform="scale(0.015625)"/>
       <path id="DejaVuSans-64" d="M 2906 2969 
L 2906 4863 
L 3481 4863 
L 3481 0 
L 2906 0 
L 2906 525 
Q 2725 213 2448 61 
Q 2172 -91 1784 -91 
Q 1150 -91 751 415 
Q 353 922 353 1747 
Q 353 2572 751 3078 
Q 1150 3584 1784 3584 
Q 2172 3584 2448 3432 
Q 2725 3281 2906 2969 
z
M 947 1747 
Q 947 1113 1208 752 
Q 1469 391 1925 391 
Q 2381 391 2643 752 
Q 2906 1113 2906 1747 
Q 2906 2381 2643 2742 
Q 2381 3103 1925 3103 
Q 1469 3103 1208 2742 
Q 947 2381 947 1747 
z
" transform="scale(0.015625)"/>
       <path id="DejaVuSans-20" transform="scale(0.015625)"/>
       <path id="DejaVuSans-54" d="M -19 4666 
L 3928 4666 
L 3928 4134 
L 2272 4134 
L 2272 0 
L 1638 0 
L 1638 4134 
L -19 4134 
L -19 4666 
z
" transform="scale(0.015625)"/>
       <path id="DejaVuSans-69" d="M 603 3500 
L 1178 3500 
L 1178 0 
L 603 0 
L 603 3500 
z
M 603 4863 
L 1178 4863 
L 1178 4134 
L 603 4134 
L 603 4863 
z
" transform="scale(0.015625)"/>
       <path id="DejaVuSans-6d" d="M 3328 2828 
Q 3544 3216 3844 3400 
Q 4144 3584 4550 3584 
Q 5097 3584 5394 3201 
Q 5691 2819 5691 2113 
L 5691 0 
L 5113 0 
L 5113 2094 
Q 5113 2597 4934 2840 
Q 4756 3084 4391 3084 
Q 3944 3084 3684 2787 
Q 3425 2491 3425 1978 
L 3425 0 
L 2847 0 
L 2847 2094 
Q 2847 2600 2669 2842 
Q 2491 3084 2119 3084 
Q 1678 3084 1418 2786 
Q 1159 2488 1159 1978 
L 1159 0 
L 581 0 
L 581 3500 
L 1159 3500 
L 1159 2956 
Q 1356 3278 1631 3431 
Q 1906 3584 2284 3584 
Q 2666 3584 2933 3390 
Q 3200 3197 3328 2828 
z
" transform="scale(0.015625)"/>
       <path id="DejaVuSans-28" d="M 1984 4856 
Q 1566 4138 1362 3434 
Q 1159 2731 1159 2009 
Q 1159 1288 1364 580 
Q 1569 -128 1984 -844 
L 1484 -844 
Q 1016 -109 783 600 
Q 550 1309 550 2009 
Q 550 2706 781 3412 
Q 1013 4119 1484 4856 
L 1984 4856 
z
" transform="scale(0.015625)"/>
       <path id="DejaVuSans-63" d="M 3122 3366 
L 3122 2828 
Q 2878 2963 2633 3030 
Q 2388 3097 2138 3097 
Q 1578 3097 1268 2742 
Q 959 2388 959 1747 
Q 959 1106 1268 751 
Q 1578 397 2138 397 
Q 2388 397 2633 464 
Q 2878 531 3122 666 
L 3122 134 
Q 2881 22 2623 -34 
Q 2366 -91 2075 -91 
Q 1284 -91 818 406 
Q 353 903 353 1747 
Q 353 2603 823 3093 
Q 1294 3584 2113 3584 
Q 2378 3584 2631 3529 
Q 2884 3475 3122 3366 
z
" transform="scale(0.015625)"/>
       <path id="DejaVuSans-6f" d="M 1959 3097 
Q 1497 3097 1228 2736 
Q 959 2375 959 1747 
Q 959 1119 1226 758 
Q 1494 397 1959 397 
Q 2419 397 2687 759 
Q 2956 1122 2956 1747 
Q 2956 2369 2687 2733 
Q 2419 3097 1959 3097 
z
M 1959 3584 
Q 2709 3584 3137 3096 
Q 3566 2609 3566 1747 
Q 3566 888 3137 398 
Q 2709 -91 1959 -91 
Q 1206 -91 779 398 
Q 353 888 353 1747 
Q 353 2609 779 3096 
Q 1206 3584 1959 3584 
z
" transform="scale(0.015625)"/>
       <path id="DejaVuSans-6e" d="M 3513 2113 
L 3513 0 
L 2938 0 
L 2938 2094 
Q 2938 2591 2744 2837 
Q 2550 3084 2163 3084 
Q 1697 3084 1428 2787 
Q 1159 2491 1159 1978 
L 1159 0 
L 581 0 
L 581 3500 
L 1159 3500 
L 1159 2956 
Q 1366 3272 1645 3428 
Q 1925 3584 2291 3584 
Q 2894 3584 3203 3211 
Q 3513 2838 3513 2113 
z
" transform="scale(0.015625)"/>
       <path id="DejaVuSans-29" d="M 513 4856 
L 1013 4856 
Q 1481 4119 1714 3412 
Q 1947 2706 1947 2009 
Q 1947 1309 1714 600 
Q 1481 -109 1013 -844 
L 513 -844 
Q 928 -128 1133 580 
Q 1338 1288 1338 2009 
Q 1338 2731 1133 3434 
Q 928 4138 513 4856 
z
" transform="scale(0.015625)"/>
      </defs>
      <use xlink:href="#DejaVuSans-45"/>
      <use xlink:href="#DejaVuSans-6c" x="63.183594"/>
      <use xlink:href="#DejaVuSans-61" x="90.966797"/>
      <use xlink:href="#DejaVuSans-70" x="152.246094"/>
      <use xlink:href="#DejaVuSans-73" x="215.722656"/>
      <use xlink:href="#DejaVuSans-65" x="267.822266"/>
      <use xlink:href="#DejaVuSans-64" x="329.345703"/>
      <use xlink:href="#DejaVuSans-20" x="392.822266"/>
      <use xlink:href="#DejaVuSans-54" x="424.609375"/>
      <use xlink:href="#DejaVuSans-69" x="482.568359"/>
      <use xlink:href="#DejaVuSans-6d" x="510.351562"/>
      <use xlink:href="#DejaVuSans-65" x="607.763672"/>
      <use xlink:href="#DejaVuSans-20" x="669.287109"/>
      <use xlink:href="#DejaVuSans-28" x="701.074219"/>
      <use xlink:href="#DejaVuSans-73" x="740.087891"/>
      <use xlink:href="#DejaVuSans-65" x="792.1875"/>
      <use xlink:href="#DejaVuSans-63" x="853.710938"/>
      <use xlink:href="#DejaVuSans-6f" x="908.691406"/>
      <use xlink:href="#DejaVuSans-6e" x="969.873047"/>
      <use xlink:href="#DejaVuSans-64" x="1033.251953"/>
      <use xlink:href="#DejaVuSans-73" x="1096.728516"/>
      <use xlink:href="#DejaVuSans-29" x="1148.828125"/>
     </g>
    </g>
   </g>
   <g id="matplotlib.axis_2">
    <g id="ytick_1">
     <g id="line2d_15">
      <path d="M 53.328125 518.857057 
L 849.088125 518.857057 
" clip-path="url(#pc8bb6493f2)" style="fill: none; stroke: #b0b0b0; stroke-opacity: 0.3; stroke-width: 0.8; stroke-linecap: square"/>
     </g>
     <g id="line2d_16">
      <defs>
       <path id="m057d124ecc" d="M 0 0 
L -3.5 0 
" style="stroke: #000000; stroke-width: 0.8"/>
      </defs>
      <g>
       <use xlink:href="#m057d124ecc" x="53.328125" y="518.857057" style="stroke: #000000; stroke-width: 0.8"/>
      </g>
     </g>
     <g id="text_9">
      <!-- 0 -->
      <g transform="translate(39.965625 522.656276) scale(0.1 -0.1)">
       <use xlink:href="#DejaVuSans-30"/>
      </g>
     </g>
    </g>
    <g id="ytick_2">
     <g id="line2d_17">
      <path d="M 53.328125 427.132458 
L 849.088125 427.132458 
" clip-path="url(#pc8bb6493f2)" style="fill: none; stroke: #b0b0b0; stroke-opacity: 0.3; stroke-width: 0.8; stroke-linecap: square"/>
     </g>
     <g id="line2d_18">
      <g>
       <use xlink:href="#m057d124ecc" x="53.328125" y="427.132458" style="stroke: #000000; stroke-width: 0.8"/>
      </g>
     </g>
     <g id="text_10">
      <!-- 200 -->
      <g transform="translate(27.240625 430.931677) scale(0.1 -0.1)">
       <use xlink:href="#DejaVuSans-32"/>
       <use xlink:href="#DejaVuSans-30" x="63.623047"/>
       <use xlink:href="#DejaVuSans-30" x="127.246094"/>
      </g>
     </g>
    </g>
    <g id="ytick_3">
     <g id="line2d_19">
      <path d="M 53.328125 335.40786 
L 849.088125 335.40786 
" clip-path="url(#pc8bb6493f2)" style="fill: none; stroke: #b0b0b0; stroke-opacity: 0.3; stroke-width: 0.8; stroke-linecap: square"/>
     </g>
     <g id="line2d_20">
      <g>
       <use xlink:href="#m057d124ecc" x="53.328125" y="335.40786" style="stroke: #000000; stroke-width: 0.8"/>
      </g>
     </g>
     <g id="text_11">
      <!-- 400 -->
      <g transform="translate(27.240625 339.207079) scale(0.1 -0.1)">
       <use xlink:href="#DejaVuSans-34"/>
       <use xlink:href="#DejaVuSans-30" x="63.623047"/>
       <use xlink:href="#DejaVuSans-30" x="127.246094"/>
      </g>
     </g>
    </g>
    <g id="ytick_4">
     <g id="line2d_21">
      <path d="M 53.328125 243.683261 
L 849.088125 243.683261 
" clip-path="url(#pc8bb6493f2)" style="fill: none; stroke: #b0b0b0; stroke-opacity: 0.3; stroke-width: 0.8; stroke-linecap: square"/>
     </g>
     <g id="line2d_22">
      <g>
       <use xlink:href="#m057d124ecc" x="53.328125" y="243.683261" style="stroke: #000000; stroke-width: 0.8"/>
      </g>
     </g>
     <g id="text_12">
      <!-- 600 -->
      <g transform="translate(27.240625 247.48248) scale(0.1 -0.1)">
       <use xlink:href="#DejaVuSans-36"/>
       <use xlink:href="#DejaVuSans-30" x="63.623047"/>
       <use xlink:href="#DejaVuSans-30" x="127.246094"/>
      </g>
     </g>
    </g>
    <g id="ytick_5">
     <g id="line2d_23">
      <path d="M 53.328125 151.958663 
L 849.088125 151.958663 
" clip-path="url(#pc8bb6493f2)" style="fill: none; stroke: #b0b0b0; stroke-opacity: 0.3; stroke-width: 0.8; stroke-linecap: square"/>
     </g>
     <g id="line2d_24">
      <g>
       <use xlink:href="#m057d124ecc" x="53.328125" y="151.958663" style="stroke: #000000; stroke-width: 0.8"/>
      </g>
     </g>
     <g id="text_13">
      <!-- 800 -->
      <g transform="translate(27.240625 155.757882) scale(0.1 -0.1)">
       <use xlink:href="#DejaVuSans-38"/>
       <use xlink:href="#DejaVuSans-30" x="63.623047"/>
       <use xlink:href="#DejaVuSans-30" x="127.246094"/>
      </g>
     </g>
    </g>
    <g id="ytick_6">
     <g id="line2d_25">
      <path d="M 53.328125 60.234064 
L 849.088125 60.234064 
" clip-path="url(#pc8bb6493f2)" style="fill: none; stroke: #b0b0b0; stroke-opacity: 0.3; stroke-width: 0.8; stroke-linecap: square"/>
     </g>
     <g id="line2d_26">
      <g>
       <use xlink:href="#m057d124ecc" x="53.328125" y="60.234064" style="stroke: #000000; stroke-width: 0.8"/>
      </g>
     </g>
     <g id="text_14">
      <!-- 1000 -->
      <g transform="translate(20.878125 64.033283) scale(0.1 -0.1)">
       <use xlink:href="#DejaVuSans-31"/>
       <use xlink:href="#DejaVuSans-30" x="63.623047"/>
       <use xlink:href="#DejaVuSans-30" x="127.246094"/>
       <use xlink:href="#DejaVuSans-30" x="190.869141"/>
      </g>
     </g>
    </g>
    <g id="text_15">
     <!-- Memory Usage (MB) -->
     <g transform="translate(14.798438 327.356406) rotate(-90) scale(0.1 -0.1)">
      <defs>
       <path id="DejaVuSans-4d" d="M 628 4666 
L 1569 4666 
L 2759 1491 
L 3956 4666 
L 4897 4666 
L 4897 0 
L 4281 0 
L 4281 4097 
L 3078 897 
L 2444 897 
L 1241 4097 
L 1241 0 
L 628 0 
L 628 4666 
z
" transform="scale(0.015625)"/>
       <path id="DejaVuSans-72" d="M 2631 2963 
Q 2534 3019 2420 3045 
Q 2306 3072 2169 3072 
Q 1681 3072 1420 2755 
Q 1159 2438 1159 1844 
L 1159 0 
L 581 0 
L 581 3500 
L 1159 3500 
L 1159 2956 
Q 1341 3275 1631 3429 
Q 1922 3584 2338 3584 
Q 2397 3584 2469 3576 
Q 2541 3569 2628 3553 
L 2631 2963 
z
" transform="scale(0.015625)"/>
       <path id="DejaVuSans-79" d="M 2059 -325 
Q 1816 -950 1584 -1140 
Q 1353 -1331 966 -1331 
L 506 -1331 
L 506 -850 
L 844 -850 
Q 1081 -850 1212 -737 
Q 1344 -625 1503 -206 
L 1606 56 
L 191 3500 
L 800 3500 
L 1894 763 
L 2988 3500 
L 3597 3500 
L 2059 -325 
z
" transform="scale(0.015625)"/>
       <path id="DejaVuSans-55" d="M 556 4666 
L 1191 4666 
L 1191 1831 
Q 1191 1081 1462 751 
Q 1734 422 2344 422 
Q 2950 422 3222 751 
Q 3494 1081 3494 1831 
L 3494 4666 
L 4128 4666 
L 4128 1753 
Q 4128 841 3676 375 
Q 3225 -91 2344 -91 
Q 1459 -91 1007 375 
Q 556 841 556 1753 
L 556 4666 
z
" transform="scale(0.015625)"/>
       <path id="DejaVuSans-67" d="M 2906 1791 
Q 2906 2416 2648 2759 
Q 2391 3103 1925 3103 
Q 1463 3103 1205 2759 
Q 947 2416 947 1791 
Q 947 1169 1205 825 
Q 1463 481 1925 481 
Q 2391 481 2648 825 
Q 2906 1169 2906 1791 
z
M 3481 434 
Q 3481 -459 3084 -895 
Q 2688 -1331 1869 -1331 
Q 1566 -1331 1297 -1286 
Q 1028 -1241 775 -1147 
L 775 -588 
Q 1028 -725 1275 -790 
Q 1522 -856 1778 -856 
Q 2344 -856 2625 -561 
Q 2906 -266 2906 331 
L 2906 616 
Q 2728 306 2450 153 
Q 2172 0 1784 0 
Q 1141 0 747 490 
Q 353 981 353 1791 
Q 353 2603 747 3093 
Q 1141 3584 1784 3584 
Q 2172 3584 2450 3431 
Q 2728 3278 2906 2969 
L 2906 3500 
L 3481 3500 
L 3481 434 
z
" transform="scale(0.015625)"/>
       <path id="DejaVuSans-42" d="M 1259 2228 
L 1259 519 
L 2272 519 
Q 2781 519 3026 730 
Q 3272 941 3272 1375 
Q 3272 1813 3026 2020 
Q 2781 2228 2272 2228 
L 1259 2228 
z
M 1259 4147 
L 1259 2741 
L 2194 2741 
Q 2656 2741 2882 2914 
Q 3109 3088 3109 3444 
Q 3109 3797 2882 3972 
Q 2656 4147 2194 4147 
L 1259 4147 
z
M 628 4666 
L 2241 4666 
Q 2963 4666 3353 4366 
Q 3744 4066 3744 3513 
Q 3744 3084 3544 2831 
Q 3344 2578 2956 2516 
Q 3422 2416 3680 2098 
Q 3938 1781 3938 1306 
Q 3938 681 3513 340 
Q 3088 0 2303 0 
L 628 0 
L 628 4666 
z
" transform="scale(0.015625)"/>
      </defs>
      <use xlink:href="#DejaVuSans-4d"/>
      <use xlink:href="#DejaVuSans-65" x="86.279297"/>
      <use xlink:href="#DejaVuSans-6d" x="147.802734"/>
      <use xlink:href="#DejaVuSans-6f" x="245.214844"/>
      <use xlink:href="#DejaVuSans-72" x="306.396484"/>
      <use xlink:href="#DejaVuSans-79" x="347.509766"/>
      <use xlink:href="#DejaVuSans-20" x="406.689453"/>
      <use xlink:href="#DejaVuSans-55" x="438.476562"/>
      <use xlink:href="#DejaVuSans-73" x="511.669922"/>
      <use xlink:href="#DejaVuSans-61" x="563.769531"/>
      <use xlink:href="#DejaVuSans-67" x="625.048828"/>
      <use xlink:href="#DejaVuSans-65" x="688.525391"/>
      <use xlink:href="#DejaVuSans-20" x="750.048828"/>
      <use xlink:href="#DejaVuSans-28" x="781.835938"/>
      <use xlink:href="#DejaVuSans-4d" x="820.849609"/>
      <use xlink:href="#DejaVuSans-42" x="907.128906"/>
      <use xlink:href="#DejaVuSans-29" x="975.732422"/>
     </g>
    </g>
   </g>
   <g id="line2d_27">
    <path d="M 90.245098 507.051098 
L 101.574954 507.051098 
L 112.868188 507.051098 
L 124.169278 507.051098 
L 135.480475 507.051098 
L 146.792583 507.051098 
L 152.463725 507.051098 
L 158.131502 507.051098 
L 163.79948 507.051098 
L 169.465474 507.051098 
L 175.126656 507.051098 
L 180.789955 507.051098 
L 186.4443 507.051098 
L 192.110388 507.051098 
L 197.75909 507.799943 
L 203.399735 506.22701 
L 209.040004 505.773761 
L 214.677298 506.597849 
L 220.317822 505.669854 
L 225.956162 506.608598 
L 231.597343 506.80208 
L 237.237559 506.728629 
L 242.880094 505.739723 
L 248.520203 506.286129 
L 254.179856 506.798497 
L 259.819134 506.43124 
L 265.45935 506.463487 
L 271.099888 505.616109 
L 276.740519 505.585654 
L 282.393765 504.7544 
L 288.04008 506.307627 
L 293.679908 506.692799 
L 299.319614 506.433032 
L 304.96046 506.063983 
L 310.601012 506.223427 
L 316.262729 506.628305 
L 321.90635 506.49036 
L 327.547196 506.488568 
L 333.186849 506.596058 
L 338.82736 505.8078 
L 344.466678 506.029945 
L 350.107524 506.169682 
L 355.748424 506.321959 
L 361.389712 506.477819 
L 367.02781 506.479611 
L 372.667718 505.546241 
L 378.308631 505.653731 
L 383.962882 507.112009 
L 389.602549 507.126341 
L 395.243301 505.578488 
L 400.883182 506.398993 
L 406.523693 506.972272 
L 412.164753 506.628305 
L 417.811377 506.214469 
L 423.453336 507.04214 
L 429.092868 507.17292 
L 434.754144 506.599641 
L 440.394561 506.660552 
L 446.036694 506.128477 
L 451.680315 506.366746 
L 457.320035 505.728974 
L 462.965693 506.529772 
L 468.605722 506.585309 
L 474.258431 506.334499 
L 479.900765 506.520815 
L 485.538367 506.493943 
L 491.201667 506.266423 
L 496.842513 505.94037 
L 502.484069 505.52116 
L 508.122744 506.056818 
L 513.76237 506.277172 
L 519.402774 506.621139 
L 525.052467 506.728629 
L 530.702777 504.811728 
L 536.343932 506.780582 
L 541.985368 506.08369 
L 547.625852 506.348831 
L 553.266644 506.26284 
L 558.909206 505.906332 
L 564.549208 506.553062 
L 570.189973 506.624722 
L 575.830377 506.821786 
L 581.471531 506.148184 
L 587.111908 506.368538 
L 592.750998 506.735795 
L 598.390678 506.071149 
L 604.031873 506.665926 
L 609.67241 505.291849 
L 615.313002 505.902749 
L 620.952145 506.882697 
L 626.614185 506.501109 
L 632.254843 505.924247 
L 637.89703 507.052889 
L 643.537594 506.470653 
L 649.179191 506.212678 
L 654.819984 506.225218 
L 660.46087 506.192971 
L 666.099263 506.80208 
L 671.739881 506.268214 
L 677.380177 506.11952 
L 683.020407 506.398993 
L 688.660918 506.952566 
L 694.302099 506.649803 
L 699.943656 506.613973 
L 705.585708 506.578143 
L 711.22634 506.879114 
L 716.868151 505.723599 
L 722.50889 506.212678 
L 728.14999 506.142809 
L 733.801279 505.843629 
L 739.442072 507.151422 
L 745.081778 506.115937 
L 750.722021 506.742961 
L 756.361754 506.277172 
L 762.005979 506.424074 
L 767.663595 506.424074 
L 773.319441 506.424074 
L 778.982781 506.424074 
L 784.647877 506.424074 
L 790.299661 506.424074 
L 795.957867 506.424074 
L 801.608593 506.424074 
L 807.264949 506.424074 
L 812.917216 506.62293 
" clip-path="url(#pc8bb6493f2)" style="fill: none; stroke: #2ca02c; stroke-width: 2; stroke-linecap: square"/>
    <defs>
     <path id="ma8b6bae3b3" d="M 0 2 
C 0.530406 2 1.03916 1.789267 1.414214 1.414214 
C 1.789267 1.03916 2 0.530406 2 0 
C 2 -0.530406 1.789267 -1.03916 1.414214 -1.414214 
C 1.03916 -1.789267 0.530406 -2 0 -2 
C -0.530406 -2 -1.03916 -1.789267 -1.414214 -1.414214 
C -1.789267 -1.03916 -2 -0.530406 -2 0 
C -2 0.530406 -1.789267 1.03916 -1.414214 1.414214 
C -1.03916 1.789267 -0.530406 2 0 2 
z
" style="stroke: #2ca02c"/>
    </defs>
    <g clip-path="url(#pc8bb6493f2)">
     <use xlink:href="#ma8b6bae3b3" x="90.245098" y="507.051098" style="fill: #2ca02c; stroke: #2ca02c"/>
     <use xlink:href="#ma8b6bae3b3" x="101.574954" y="507.051098" style="fill: #2ca02c; stroke: #2ca02c"/>
     <use xlink:href="#ma8b6bae3b3" x="112.868188" y="507.051098" style="fill: #2ca02c; stroke: #2ca02c"/>
     <use xlink:href="#ma8b6bae3b3" x="124.169278" y="507.051098" style="fill: #2ca02c; stroke: #2ca02c"/>
     <use xlink:href="#ma8b6bae3b3" x="135.480475" y="507.051098" style="fill: #2ca02c; stroke: #2ca02c"/>
     <use xlink:href="#ma8b6bae3b3" x="146.792583" y="507.051098" style="fill: #2ca02c; stroke: #2ca02c"/>
     <use xlink:href="#ma8b6bae3b3" x="152.463725" y="507.051098" style="fill: #2ca02c; stroke: #2ca02c"/>
     <use xlink:href="#ma8b6bae3b3" x="158.131502" y="507.051098" style="fill: #2ca02c; stroke: #2ca02c"/>
     <use xlink:href="#ma8b6bae3b3" x="163.79948" y="507.051098" style="fill: #2ca02c; stroke: #2ca02c"/>
     <use xlink:href="#ma8b6bae3b3" x="169.465474" y="507.051098" style="fill: #2ca02c; stroke: #2ca02c"/>
     <use xlink:href="#ma8b6bae3b3" x="175.126656" y="507.051098" style="fill: #2ca02c; stroke: #2ca02c"/>
     <use xlink:href="#ma8b6bae3b3" x="180.789955" y="507.051098" style="fill: #2ca02c; stroke: #2ca02c"/>
     <use xlink:href="#ma8b6bae3b3" x="186.4443" y="507.051098" style="fill: #2ca02c; stroke: #2ca02c"/>
     <use xlink:href="#ma8b6bae3b3" x="192.110388" y="507.051098" style="fill: #2ca02c; stroke: #2ca02c"/>
     <use xlink:href="#ma8b6bae3b3" x="197.75909" y="507.799943" style="fill: #2ca02c; stroke: #2ca02c"/>
     <use xlink:href="#ma8b6bae3b3" x="203.399735" y="506.22701" style="fill: #2ca02c; stroke: #2ca02c"/>
     <use xlink:href="#ma8b6bae3b3" x="209.040004" y="505.773761" style="fill: #2ca02c; stroke: #2ca02c"/>
     <use xlink:href="#ma8b6bae3b3" x="214.677298" y="506.597849" style="fill: #2ca02c; stroke: #2ca02c"/>
     <use xlink:href="#ma8b6bae3b3" x="220.317822" y="505.669854" style="fill: #2ca02c; stroke: #2ca02c"/>
     <use xlink:href="#ma8b6bae3b3" x="225.956162" y="506.608598" style="fill: #2ca02c; stroke: #2ca02c"/>
     <use xlink:href="#ma8b6bae3b3" x="231.597343" y="506.80208" style="fill: #2ca02c; stroke: #2ca02c"/>
     <use xlink:href="#ma8b6bae3b3" x="237.237559" y="506.728629" style="fill: #2ca02c; stroke: #2ca02c"/>
     <use xlink:href="#ma8b6bae3b3" x="242.880094" y="505.739723" style="fill: #2ca02c; stroke: #2ca02c"/>
     <use xlink:href="#ma8b6bae3b3" x="248.520203" y="506.286129" style="fill: #2ca02c; stroke: #2ca02c"/>
     <use xlink:href="#ma8b6bae3b3" x="254.179856" y="506.798497" style="fill: #2ca02c; stroke: #2ca02c"/>
     <use xlink:href="#ma8b6bae3b3" x="259.819134" y="506.43124" style="fill: #2ca02c; stroke: #2ca02c"/>
     <use xlink:href="#ma8b6bae3b3" x="265.45935" y="506.463487" style="fill: #2ca02c; stroke: #2ca02c"/>
     <use xlink:href="#ma8b6bae3b3" x="271.099888" y="505.616109" style="fill: #2ca02c; stroke: #2ca02c"/>
     <use xlink:href="#ma8b6bae3b3" x="276.740519" y="505.585654" style="fill: #2ca02c; stroke: #2ca02c"/>
     <use xlink:href="#ma8b6bae3b3" x="282.393765" y="504.7544" style="fill: #2ca02c; stroke: #2ca02c"/>
     <use xlink:href="#ma8b6bae3b3" x="288.04008" y="506.307627" style="fill: #2ca02c; stroke: #2ca02c"/>
     <use xlink:href="#ma8b6bae3b3" x="293.679908" y="506.692799" style="fill: #2ca02c; stroke: #2ca02c"/>
     <use xlink:href="#ma8b6bae3b3" x="299.319614" y="506.433032" style="fill: #2ca02c; stroke: #2ca02c"/>
     <use xlink:href="#ma8b6bae3b3" x="304.96046" y="506.063983" style="fill: #2ca02c; stroke: #2ca02c"/>
     <use xlink:href="#ma8b6bae3b3" x="310.601012" y="506.223427" style="fill: #2ca02c; stroke: #2ca02c"/>
     <use xlink:href="#ma8b6bae3b3" x="316.262729" y="506.628305" style="fill: #2ca02c; stroke: #2ca02c"/>
     <use xlink:href="#ma8b6bae3b3" x="321.90635" y="506.49036" style="fill: #2ca02c; stroke: #2ca02c"/>
     <use xlink:href="#ma8b6bae3b3" x="327.547196" y="506.488568" style="fill: #2ca02c; stroke: #2ca02c"/>
     <use xlink:href="#ma8b6bae3b3" x="333.186849" y="506.596058" style="fill: #2ca02c; stroke: #2ca02c"/>
     <use xlink:href="#ma8b6bae3b3" x="338.82736" y="505.8078" style="fill: #2ca02c; stroke: #2ca02c"/>
     <use xlink:href="#ma8b6bae3b3" x="344.466678" y="506.029945" style="fill: #2ca02c; stroke: #2ca02c"/>
     <use xlink:href="#ma8b6bae3b3" x="350.107524" y="506.169682" style="fill: #2ca02c; stroke: #2ca02c"/>
     <use xlink:href="#ma8b6bae3b3" x="355.748424" y="506.321959" style="fill: #2ca02c; stroke: #2ca02c"/>
     <use xlink:href="#ma8b6bae3b3" x="361.389712" y="506.477819" style="fill: #2ca02c; stroke: #2ca02c"/>
     <use xlink:href="#ma8b6bae3b3" x="367.02781" y="506.479611" style="fill: #2ca02c; stroke: #2ca02c"/>
     <use xlink:href="#ma8b6bae3b3" x="372.667718" y="505.546241" style="fill: #2ca02c; stroke: #2ca02c"/>
     <use xlink:href="#ma8b6bae3b3" x="378.308631" y="505.653731" style="fill: #2ca02c; stroke: #2ca02c"/>
     <use xlink:href="#ma8b6bae3b3" x="383.962882" y="507.112009" style="fill: #2ca02c; stroke: #2ca02c"/>
     <use xlink:href="#ma8b6bae3b3" x="389.602549" y="507.126341" style="fill: #2ca02c; stroke: #2ca02c"/>
     <use xlink:href="#ma8b6bae3b3" x="395.243301" y="505.578488" style="fill: #2ca02c; stroke: #2ca02c"/>
     <use xlink:href="#ma8b6bae3b3" x="400.883182" y="506.398993" style="fill: #2ca02c; stroke: #2ca02c"/>
     <use xlink:href="#ma8b6bae3b3" x="406.523693" y="506.972272" style="fill: #2ca02c; stroke: #2ca02c"/>
     <use xlink:href="#ma8b6bae3b3" x="412.164753" y="506.628305" style="fill: #2ca02c; stroke: #2ca02c"/>
     <use xlink:href="#ma8b6bae3b3" x="417.811377" y="506.214469" style="fill: #2ca02c; stroke: #2ca02c"/>
     <use xlink:href="#ma8b6bae3b3" x="423.453336" y="507.04214" style="fill: #2ca02c; stroke: #2ca02c"/>
     <use xlink:href="#ma8b6bae3b3" x="429.092868" y="507.17292" style="fill: #2ca02c; stroke: #2ca02c"/>
     <use xlink:href="#ma8b6bae3b3" x="434.754144" y="506.599641" style="fill: #2ca02c; stroke: #2ca02c"/>
     <use xlink:href="#ma8b6bae3b3" x="440.394561" y="506.660552" style="fill: #2ca02c; stroke: #2ca02c"/>
     <use xlink:href="#ma8b6bae3b3" x="446.036694" y="506.128477" style="fill: #2ca02c; stroke: #2ca02c"/>
     <use xlink:href="#ma8b6bae3b3" x="451.680315" y="506.366746" style="fill: #2ca02c; stroke: #2ca02c"/>
     <use xlink:href="#ma8b6bae3b3" x="457.320035" y="505.728974" style="fill: #2ca02c; stroke: #2ca02c"/>
     <use xlink:href="#ma8b6bae3b3" x="462.965693" y="506.529772" style="fill: #2ca02c; stroke: #2ca02c"/>
     <use xlink:href="#ma8b6bae3b3" x="468.605722" y="506.585309" style="fill: #2ca02c; stroke: #2ca02c"/>
     <use xlink:href="#ma8b6bae3b3" x="474.258431" y="506.334499" style="fill: #2ca02c; stroke: #2ca02c"/>
     <use xlink:href="#ma8b6bae3b3" x="479.900765" y="506.520815" style="fill: #2ca02c; stroke: #2ca02c"/>
     <use xlink:href="#ma8b6bae3b3" x="485.538367" y="506.493943" style="fill: #2ca02c; stroke: #2ca02c"/>
     <use xlink:href="#ma8b6bae3b3" x="491.201667" y="506.266423" style="fill: #2ca02c; stroke: #2ca02c"/>
     <use xlink:href="#ma8b6bae3b3" x="496.842513" y="505.94037" style="fill: #2ca02c; stroke: #2ca02c"/>
     <use xlink:href="#ma8b6bae3b3" x="502.484069" y="505.52116" style="fill: #2ca02c; stroke: #2ca02c"/>
     <use xlink:href="#ma8b6bae3b3" x="508.122744" y="506.056818" style="fill: #2ca02c; stroke: #2ca02c"/>
     <use xlink:href="#ma8b6bae3b3" x="513.76237" y="506.277172" style="fill: #2ca02c; stroke: #2ca02c"/>
     <use xlink:href="#ma8b6bae3b3" x="519.402774" y="506.621139" style="fill: #2ca02c; stroke: #2ca02c"/>
     <use xlink:href="#ma8b6bae3b3" x="525.052467" y="506.728629" style="fill: #2ca02c; stroke: #2ca02c"/>
     <use xlink:href="#ma8b6bae3b3" x="530.702777" y="504.811728" style="fill: #2ca02c; stroke: #2ca02c"/>
     <use xlink:href="#ma8b6bae3b3" x="536.343932" y="506.780582" style="fill: #2ca02c; stroke: #2ca02c"/>
     <use xlink:href="#ma8b6bae3b3" x="541.985368" y="506.08369" style="fill: #2ca02c; stroke: #2ca02c"/>
     <use xlink:href="#ma8b6bae3b3" x="547.625852" y="506.348831" style="fill: #2ca02c; stroke: #2ca02c"/>
     <use xlink:href="#ma8b6bae3b3" x="553.266644" y="506.26284" style="fill: #2ca02c; stroke: #2ca02c"/>
     <use xlink:href="#ma8b6bae3b3" x="558.909206" y="505.906332" style="fill: #2ca02c; stroke: #2ca02c"/>
     <use xlink:href="#ma8b6bae3b3" x="564.549208" y="506.553062" style="fill: #2ca02c; stroke: #2ca02c"/>
     <use xlink:href="#ma8b6bae3b3" x="570.189973" y="506.624722" style="fill: #2ca02c; stroke: #2ca02c"/>
     <use xlink:href="#ma8b6bae3b3" x="575.830377" y="506.821786" style="fill: #2ca02c; stroke: #2ca02c"/>
     <use xlink:href="#ma8b6bae3b3" x="581.471531" y="506.148184" style="fill: #2ca02c; stroke: #2ca02c"/>
     <use xlink:href="#ma8b6bae3b3" x="587.111908" y="506.368538" style="fill: #2ca02c; stroke: #2ca02c"/>
     <use xlink:href="#ma8b6bae3b3" x="592.750998" y="506.735795" style="fill: #2ca02c; stroke: #2ca02c"/>
     <use xlink:href="#ma8b6bae3b3" x="598.390678" y="506.071149" style="fill: #2ca02c; stroke: #2ca02c"/>
     <use xlink:href="#ma8b6bae3b3" x="604.031873" y="506.665926" style="fill: #2ca02c; stroke: #2ca02c"/>
     <use xlink:href="#ma8b6bae3b3" x="609.67241" y="505.291849" style="fill: #2ca02c; stroke: #2ca02c"/>
     <use xlink:href="#ma8b6bae3b3" x="615.313002" y="505.902749" style="fill: #2ca02c; stroke: #2ca02c"/>
     <use xlink:href="#ma8b6bae3b3" x="620.952145" y="506.882697" style="fill: #2ca02c; stroke: #2ca02c"/>
     <use xlink:href="#ma8b6bae3b3" x="626.614185" y="506.501109" style="fill: #2ca02c; stroke: #2ca02c"/>
     <use xlink:href="#ma8b6bae3b3" x="632.254843" y="505.924247" style="fill: #2ca02c; stroke: #2ca02c"/>
     <use xlink:href="#ma8b6bae3b3" x="637.89703" y="507.052889" style="fill: #2ca02c; stroke: #2ca02c"/>
     <use xlink:href="#ma8b6bae3b3" x="643.537594" y="506.470653" style="fill: #2ca02c; stroke: #2ca02c"/>
     <use xlink:href="#ma8b6bae3b3" x="649.179191" y="506.212678" style="fill: #2ca02c; stroke: #2ca02c"/>
     <use xlink:href="#ma8b6bae3b3" x="654.819984" y="506.225218" style="fill: #2ca02c; stroke: #2ca02c"/>
     <use xlink:href="#ma8b6bae3b3" x="660.46087" y="506.192971" style="fill: #2ca02c; stroke: #2ca02c"/>
     <use xlink:href="#ma8b6bae3b3" x="666.099263" y="506.80208" style="fill: #2ca02c; stroke: #2ca02c"/>
     <use xlink:href="#ma8b6bae3b3" x="671.739881" y="506.268214" style="fill: #2ca02c; stroke: #2ca02c"/>
     <use xlink:href="#ma8b6bae3b3" x="677.380177" y="506.11952" style="fill: #2ca02c; stroke: #2ca02c"/>
     <use xlink:href="#ma8b6bae3b3" x="683.020407" y="506.398993" style="fill: #2ca02c; stroke: #2ca02c"/>
     <use xlink:href="#ma8b6bae3b3" x="688.660918" y="506.952566" style="fill: #2ca02c; stroke: #2ca02c"/>
     <use xlink:href="#ma8b6bae3b3" x="694.302099" y="506.649803" style="fill: #2ca02c; stroke: #2ca02c"/>
     <use xlink:href="#ma8b6bae3b3" x="699.943656" y="506.613973" style="fill: #2ca02c; stroke: #2ca02c"/>
     <use xlink:href="#ma8b6bae3b3" x="705.585708" y="506.578143" style="fill: #2ca02c; stroke: #2ca02c"/>
     <use xlink:href="#ma8b6bae3b3" x="711.22634" y="506.879114" style="fill: #2ca02c; stroke: #2ca02c"/>
     <use xlink:href="#ma8b6bae3b3" x="716.868151" y="505.723599" style="fill: #2ca02c; stroke: #2ca02c"/>
     <use xlink:href="#ma8b6bae3b3" x="722.50889" y="506.212678" style="fill: #2ca02c; stroke: #2ca02c"/>
     <use xlink:href="#ma8b6bae3b3" x="728.14999" y="506.142809" style="fill: #2ca02c; stroke: #2ca02c"/>
     <use xlink:href="#ma8b6bae3b3" x="733.801279" y="505.843629" style="fill: #2ca02c; stroke: #2ca02c"/>
     <use xlink:href="#ma8b6bae3b3" x="739.442072" y="507.151422" style="fill: #2ca02c; stroke: #2ca02c"/>
     <use xlink:href="#ma8b6bae3b3" x="745.081778" y="506.115937" style="fill: #2ca02c; stroke: #2ca02c"/>
     <use xlink:href="#ma8b6bae3b3" x="750.722021" y="506.742961" style="fill: #2ca02c; stroke: #2ca02c"/>
     <use xlink:href="#ma8b6bae3b3" x="756.361754" y="506.277172" style="fill: #2ca02c; stroke: #2ca02c"/>
     <use xlink:href="#ma8b6bae3b3" x="762.005979" y="506.424074" style="fill: #2ca02c; stroke: #2ca02c"/>
     <use xlink:href="#ma8b6bae3b3" x="767.663595" y="506.424074" style="fill: #2ca02c; stroke: #2ca02c"/>
     <use xlink:href="#ma8b6bae3b3" x="773.319441" y="506.424074" style="fill: #2ca02c; stroke: #2ca02c"/>
     <use xlink:href="#ma8b6bae3b3" x="778.982781" y="506.424074" style="fill: #2ca02c; stroke: #2ca02c"/>
     <use xlink:href="#ma8b6bae3b3" x="784.647877" y="506.424074" style="fill: #2ca02c; stroke: #2ca02c"/>
     <use xlink:href="#ma8b6bae3b3" x="790.299661" y="506.424074" style="fill: #2ca02c; stroke: #2ca02c"/>
     <use xlink:href="#ma8b6bae3b3" x="795.957867" y="506.424074" style="fill: #2ca02c; stroke: #2ca02c"/>
     <use xlink:href="#ma8b6bae3b3" x="801.608593" y="506.424074" style="fill: #2ca02c; stroke: #2ca02c"/>
     <use xlink:href="#ma8b6bae3b3" x="807.264949" y="506.424074" style="fill: #2ca02c; stroke: #2ca02c"/>
     <use xlink:href="#ma8b6bae3b3" x="812.917216" y="506.62293" style="fill: #2ca02c; stroke: #2ca02c"/>
    </g>
   </g>
   <g id="line2d_28">
    <path d="M 89.499034 268.479358 
L 100.887659 268.479358 
L 112.234527 268.479358 
L 123.577762 268.479358 
L 134.936386 268.479358 
L 146.300855 268.479358 
L 152.0124 268.479358 
L 157.725138 268.479358 
L 163.473802 268.479358 
L 169.200092 268.479358 
L 174.907294 268.479358 
L 180.617257 268.479358 
L 186.321643 268.479358 
L 192.02422 268.479358 
L 197.731837 258.0636 
L 203.410311 234.910305 
L 209.08707 216.710497 
L 214.749914 204.641188 
L 220.415693 190.44179 
L 226.094034 162.283055 
L 231.768755 139.411024 
L 237.431049 132.703663 
L 243.108598 131.480071 
L 248.772662 131.121772 
L 254.43572 127.777049 
L 260.098873 121.368868 
L 265.879186 116.139491 
L 271.550006 104.652418 
L 277.210557 93.858654 
L 282.889005 81.529578 
L 288.559114 70.067586 
L 294.240028 60.730309 
L 299.909025 59.707364 
L 305.587178 58.637841 
L 311.251832 58.637841 
L 316.916927 58.023358 
L 322.57819 57.788672 
L 328.245028 57.315717 
L 333.910339 56.52925 
L 339.572928 53.829466 
L 345.234445 49.936545 
L 350.900318 49.936545 
L 356.567907 49.818306 
L 362.246288 49.818306 
L 367.923475 49.701859 
L 373.592419 49.58362 
L 379.273145 48.877771 
L 384.952464 48.406607 
L 390.62878 48.171921 
L 396.294814 48.118176 
L 401.97302 47.996355 
L 407.638921 47.878116 
L 413.316041 47.878116 
L 418.978791 47.878116 
L 424.645174 47.878116 
L 430.311128 47.405161 
L 435.990313 47.286922 
L 441.65632 47.168684 
L 447.325974 46.933998 
L 453.005655 46.815759 
L 458.672654 46.815759 
L 464.337067 46.699312 
L 470.018182 46.699312 
L 475.694793 46.914291 
L 481.362999 47.127479 
L 487.028323 47.616558 
L 492.707414 47.781375 
L 498.374145 47.781375 
L 504.051547 47.781375 
L 509.714873 47.781375 
L 515.382489 47.781375 
L 521.050856 47.781375 
L 526.728151 47.781375 
L 532.393381 47.781375 
L 538.069603 47.657762 
L 543.736254 47.541315 
L 549.397985 47.541315 
L 555.08768 47.541315 
L 560.757374 47.541315 
L 566.432993 47.541315 
L 572.09699 47.541315 
L 577.768426 47.424867 
L 583.43942 47.555647 
L 589.113927 47.462489 
L 594.790538 47.462489 
L 600.466264 47.462489 
L 606.131467 47.34425 
L 611.796094 47.34425 
L 617.475694 47.34425 
L 623.140871 47.111356 
L 628.809332 46.993117 
L 634.486948 46.993117 
L 640.150703 46.993117 
L 645.820451 46.993117 
L 651.484354 46.993117 
L 657.149678 46.656316 
L 662.820766 46.538077 
L 668.491291 46.419838 
L 674.154121 46.419838 
L 679.830424 46.419838 
L 685.492571 46.419838 
L 691.158739 46.419838 
L 696.828768 46.419838 
L 702.503972 46.419838 
L 708.181588 46.419838 
L 713.84899 46.301599 
L 719.52548 46.301599 
L 725.202467 46.301599 
L 730.869265 46.301599 
L 736.544214 46.301599 
L 742.221334 46.301599 
L 747.899661 46.301599 
L 753.567089 46.183361 
L 759.235563 45.436307 
L 764.956733 45.436307 
L 770.684699 45.436307 
L 776.398188 45.436307 
L 782.111851 45.436307 
L 787.834415 45.436307 
L 793.547689 45.436307 
L 799.254448 45.436307 
L 804.942735 45.436307 
L 810.654816 45.436307 
" clip-path="url(#pc8bb6493f2)" style="fill: none; stroke: #1f77b4; stroke-width: 2; stroke-linecap: square"/>
    <defs>
     <path id="m708fb8aacb" d="M 0 2 
C 0.530406 2 1.03916 1.789267 1.414214 1.414214 
C 1.789267 1.03916 2 0.530406 2 0 
C 2 -0.530406 1.789267 -1.03916 1.414214 -1.414214 
C 1.03916 -1.789267 0.530406 -2 0 -2 
C -0.530406 -2 -1.03916 -1.789267 -1.414214 -1.414214 
C -1.789267 -1.03916 -2 -0.530406 -2 0 
C -2 0.530406 -1.789267 1.03916 -1.414214 1.414214 
C -1.03916 1.789267 -0.530406 2 0 2 
z
" style="stroke: #1f77b4"/>
    </defs>
    <g clip-path="url(#pc8bb6493f2)">
     <use xlink:href="#m708fb8aacb" x="89.499034" y="268.479358" style="fill: #1f77b4; stroke: #1f77b4"/>
     <use xlink:href="#m708fb8aacb" x="100.887659" y="268.479358" style="fill: #1f77b4; stroke: #1f77b4"/>
     <use xlink:href="#m708fb8aacb" x="112.234527" y="268.479358" style="fill: #1f77b4; stroke: #1f77b4"/>
     <use xlink:href="#m708fb8aacb" x="123.577762" y="268.479358" style="fill: #1f77b4; stroke: #1f77b4"/>
     <use xlink:href="#m708fb8aacb" x="134.936386" y="268.479358" style="fill: #1f77b4; stroke: #1f77b4"/>
     <use xlink:href="#m708fb8aacb" x="146.300855" y="268.479358" style="fill: #1f77b4; stroke: #1f77b4"/>
     <use xlink:href="#m708fb8aacb" x="152.0124" y="268.479358" style="fill: #1f77b4; stroke: #1f77b4"/>
     <use xlink:href="#m708fb8aacb" x="157.725138" y="268.479358" style="fill: #1f77b4; stroke: #1f77b4"/>
     <use xlink:href="#m708fb8aacb" x="163.473802" y="268.479358" style="fill: #1f77b4; stroke: #1f77b4"/>
     <use xlink:href="#m708fb8aacb" x="169.200092" y="268.479358" style="fill: #1f77b4; stroke: #1f77b4"/>
     <use xlink:href="#m708fb8aacb" x="174.907294" y="268.479358" style="fill: #1f77b4; stroke: #1f77b4"/>
     <use xlink:href="#m708fb8aacb" x="180.617257" y="268.479358" style="fill: #1f77b4; stroke: #1f77b4"/>
     <use xlink:href="#m708fb8aacb" x="186.321643" y="268.479358" style="fill: #1f77b4; stroke: #1f77b4"/>
     <use xlink:href="#m708fb8aacb" x="192.02422" y="268.479358" style="fill: #1f77b4; stroke: #1f77b4"/>
     <use xlink:href="#m708fb8aacb" x="197.731837" y="258.0636" style="fill: #1f77b4; stroke: #1f77b4"/>
     <use xlink:href="#m708fb8aacb" x="203.410311" y="234.910305" style="fill: #1f77b4; stroke: #1f77b4"/>
     <use xlink:href="#m708fb8aacb" x="209.08707" y="216.710497" style="fill: #1f77b4; stroke: #1f77b4"/>
     <use xlink:href="#m708fb8aacb" x="214.749914" y="204.641188" style="fill: #1f77b4; stroke: #1f77b4"/>
     <use xlink:href="#m708fb8aacb" x="220.415693" y="190.44179" style="fill: #1f77b4; stroke: #1f77b4"/>
     <use xlink:href="#m708fb8aacb" x="226.094034" y="162.283055" style="fill: #1f77b4; stroke: #1f77b4"/>
     <use xlink:href="#m708fb8aacb" x="231.768755" y="139.411024" style="fill: #1f77b4; stroke: #1f77b4"/>
     <use xlink:href="#m708fb8aacb" x="237.431049" y="132.703663" style="fill: #1f77b4; stroke: #1f77b4"/>
     <use xlink:href="#m708fb8aacb" x="243.108598" y="131.480071" style="fill: #1f77b4; stroke: #1f77b4"/>
     <use xlink:href="#m708fb8aacb" x="248.772662" y="131.121772" style="fill: #1f77b4; stroke: #1f77b4"/>
     <use xlink:href="#m708fb8aacb" x="254.43572" y="127.777049" style="fill: #1f77b4; stroke: #1f77b4"/>
     <use xlink:href="#m708fb8aacb" x="260.098873" y="121.368868" style="fill: #1f77b4; stroke: #1f77b4"/>
     <use xlink:href="#m708fb8aacb" x="265.879186" y="116.139491" style="fill: #1f77b4; stroke: #1f77b4"/>
     <use xlink:href="#m708fb8aacb" x="271.550006" y="104.652418" style="fill: #1f77b4; stroke: #1f77b4"/>
     <use xlink:href="#m708fb8aacb" x="277.210557" y="93.858654" style="fill: #1f77b4; stroke: #1f77b4"/>
     <use xlink:href="#m708fb8aacb" x="282.889005" y="81.529578" style="fill: #1f77b4; stroke: #1f77b4"/>
     <use xlink:href="#m708fb8aacb" x="288.559114" y="70.067586" style="fill: #1f77b4; stroke: #1f77b4"/>
     <use xlink:href="#m708fb8aacb" x="294.240028" y="60.730309" style="fill: #1f77b4; stroke: #1f77b4"/>
     <use xlink:href="#m708fb8aacb" x="299.909025" y="59.707364" style="fill: #1f77b4; stroke: #1f77b4"/>
     <use xlink:href="#m708fb8aacb" x="305.587178" y="58.637841" style="fill: #1f77b4; stroke: #1f77b4"/>
     <use xlink:href="#m708fb8aacb" x="311.251832" y="58.637841" style="fill: #1f77b4; stroke: #1f77b4"/>
     <use xlink:href="#m708fb8aacb" x="316.916927" y="58.023358" style="fill: #1f77b4; stroke: #1f77b4"/>
     <use xlink:href="#m708fb8aacb" x="322.57819" y="57.788672" style="fill: #1f77b4; stroke: #1f77b4"/>
     <use xlink:href="#m708fb8aacb" x="328.245028" y="57.315717" style="fill: #1f77b4; stroke: #1f77b4"/>
     <use xlink:href="#m708fb8aacb" x="333.910339" y="56.52925" style="fill: #1f77b4; stroke: #1f77b4"/>
     <use xlink:href="#m708fb8aacb" x="339.572928" y="53.829466" style="fill: #1f77b4; stroke: #1f77b4"/>
     <use xlink:href="#m708fb8aacb" x="345.234445" y="49.936545" style="fill: #1f77b4; stroke: #1f77b4"/>
     <use xlink:href="#m708fb8aacb" x="350.900318" y="49.936545" style="fill: #1f77b4; stroke: #1f77b4"/>
     <use xlink:href="#m708fb8aacb" x="356.567907" y="49.818306" style="fill: #1f77b4; stroke: #1f77b4"/>
     <use xlink:href="#m708fb8aacb" x="362.246288" y="49.818306" style="fill: #1f77b4; stroke: #1f77b4"/>
     <use xlink:href="#m708fb8aacb" x="367.923475" y="49.701859" style="fill: #1f77b4; stroke: #1f77b4"/>
     <use xlink:href="#m708fb8aacb" x="373.592419" y="49.58362" style="fill: #1f77b4; stroke: #1f77b4"/>
     <use xlink:href="#m708fb8aacb" x="379.273145" y="48.877771" style="fill: #1f77b4; stroke: #1f77b4"/>
     <use xlink:href="#m708fb8aacb" x="384.952464" y="48.406607" style="fill: #1f77b4; stroke: #1f77b4"/>
     <use xlink:href="#m708fb8aacb" x="390.62878" y="48.171921" style="fill: #1f77b4; stroke: #1f77b4"/>
     <use xlink:href="#m708fb8aacb" x="396.294814" y="48.118176" style="fill: #1f77b4; stroke: #1f77b4"/>
     <use xlink:href="#m708fb8aacb" x="401.97302" y="47.996355" style="fill: #1f77b4; stroke: #1f77b4"/>
     <use xlink:href="#m708fb8aacb" x="407.638921" y="47.878116" style="fill: #1f77b4; stroke: #1f77b4"/>
     <use xlink:href="#m708fb8aacb" x="413.316041" y="47.878116" style="fill: #1f77b4; stroke: #1f77b4"/>
     <use xlink:href="#m708fb8aacb" x="418.978791" y="47.878116" style="fill: #1f77b4; stroke: #1f77b4"/>
     <use xlink:href="#m708fb8aacb" x="424.645174" y="47.878116" style="fill: #1f77b4; stroke: #1f77b4"/>
     <use xlink:href="#m708fb8aacb" x="430.311128" y="47.405161" style="fill: #1f77b4; stroke: #1f77b4"/>
     <use xlink:href="#m708fb8aacb" x="435.990313" y="47.286922" style="fill: #1f77b4; stroke: #1f77b4"/>
     <use xlink:href="#m708fb8aacb" x="441.65632" y="47.168684" style="fill: #1f77b4; stroke: #1f77b4"/>
     <use xlink:href="#m708fb8aacb" x="447.325974" y="46.933998" style="fill: #1f77b4; stroke: #1f77b4"/>
     <use xlink:href="#m708fb8aacb" x="453.005655" y="46.815759" style="fill: #1f77b4; stroke: #1f77b4"/>
     <use xlink:href="#m708fb8aacb" x="458.672654" y="46.815759" style="fill: #1f77b4; stroke: #1f77b4"/>
     <use xlink:href="#m708fb8aacb" x="464.337067" y="46.699312" style="fill: #1f77b4; stroke: #1f77b4"/>
     <use xlink:href="#m708fb8aacb" x="470.018182" y="46.699312" style="fill: #1f77b4; stroke: #1f77b4"/>
     <use xlink:href="#m708fb8aacb" x="475.694793" y="46.914291" style="fill: #1f77b4; stroke: #1f77b4"/>
     <use xlink:href="#m708fb8aacb" x="481.362999" y="47.127479" style="fill: #1f77b4; stroke: #1f77b4"/>
     <use xlink:href="#m708fb8aacb" x="487.028323" y="47.616558" style="fill: #1f77b4; stroke: #1f77b4"/>
     <use xlink:href="#m708fb8aacb" x="492.707414" y="47.781375" style="fill: #1f77b4; stroke: #1f77b4"/>
     <use xlink:href="#m708fb8aacb" x="498.374145" y="47.781375" style="fill: #1f77b4; stroke: #1f77b4"/>
     <use xlink:href="#m708fb8aacb" x="504.051547" y="47.781375" style="fill: #1f77b4; stroke: #1f77b4"/>
     <use xlink:href="#m708fb8aacb" x="509.714873" y="47.781375" style="fill: #1f77b4; stroke: #1f77b4"/>
     <use xlink:href="#m708fb8aacb" x="515.382489" y="47.781375" style="fill: #1f77b4; stroke: #1f77b4"/>
     <use xlink:href="#m708fb8aacb" x="521.050856" y="47.781375" style="fill: #1f77b4; stroke: #1f77b4"/>
     <use xlink:href="#m708fb8aacb" x="526.728151" y="47.781375" style="fill: #1f77b4; stroke: #1f77b4"/>
     <use xlink:href="#m708fb8aacb" x="532.393381" y="47.781375" style="fill: #1f77b4; stroke: #1f77b4"/>
     <use xlink:href="#m708fb8aacb" x="538.069603" y="47.657762" style="fill: #1f77b4; stroke: #1f77b4"/>
     <use xlink:href="#m708fb8aacb" x="543.736254" y="47.541315" style="fill: #1f77b4; stroke: #1f77b4"/>
     <use xlink:href="#m708fb8aacb" x="549.397985" y="47.541315" style="fill: #1f77b4; stroke: #1f77b4"/>
     <use xlink:href="#m708fb8aacb" x="555.08768" y="47.541315" style="fill: #1f77b4; stroke: #1f77b4"/>
     <use xlink:href="#m708fb8aacb" x="560.757374" y="47.541315" style="fill: #1f77b4; stroke: #1f77b4"/>
     <use xlink:href="#m708fb8aacb" x="566.432993" y="47.541315" style="fill: #1f77b4; stroke: #1f77b4"/>
     <use xlink:href="#m708fb8aacb" x="572.09699" y="47.541315" style="fill: #1f77b4; stroke: #1f77b4"/>
     <use xlink:href="#m708fb8aacb" x="577.768426" y="47.424867" style="fill: #1f77b4; stroke: #1f77b4"/>
     <use xlink:href="#m708fb8aacb" x="583.43942" y="47.555647" style="fill: #1f77b4; stroke: #1f77b4"/>
     <use xlink:href="#m708fb8aacb" x="589.113927" y="47.462489" style="fill: #1f77b4; stroke: #1f77b4"/>
     <use xlink:href="#m708fb8aacb" x="594.790538" y="47.462489" style="fill: #1f77b4; stroke: #1f77b4"/>
     <use xlink:href="#m708fb8aacb" x="600.466264" y="47.462489" style="fill: #1f77b4; stroke: #1f77b4"/>
     <use xlink:href="#m708fb8aacb" x="606.131467" y="47.34425" style="fill: #1f77b4; stroke: #1f77b4"/>
     <use xlink:href="#m708fb8aacb" x="611.796094" y="47.34425" style="fill: #1f77b4; stroke: #1f77b4"/>
     <use xlink:href="#m708fb8aacb" x="617.475694" y="47.34425" style="fill: #1f77b4; stroke: #1f77b4"/>
     <use xlink:href="#m708fb8aacb" x="623.140871" y="47.111356" style="fill: #1f77b4; stroke: #1f77b4"/>
     <use xlink:href="#m708fb8aacb" x="628.809332" y="46.993117" style="fill: #1f77b4; stroke: #1f77b4"/>
     <use xlink:href="#m708fb8aacb" x="634.486948" y="46.993117" style="fill: #1f77b4; stroke: #1f77b4"/>
     <use xlink:href="#m708fb8aacb" x="640.150703" y="46.993117" style="fill: #1f77b4; stroke: #1f77b4"/>
     <use xlink:href="#m708fb8aacb" x="645.820451" y="46.993117" style="fill: #1f77b4; stroke: #1f77b4"/>
     <use xlink:href="#m708fb8aacb" x="651.484354" y="46.993117" style="fill: #1f77b4; stroke: #1f77b4"/>
     <use xlink:href="#m708fb8aacb" x="657.149678" y="46.656316" style="fill: #1f77b4; stroke: #1f77b4"/>
     <use xlink:href="#m708fb8aacb" x="662.820766" y="46.538077" style="fill: #1f77b4; stroke: #1f77b4"/>
     <use xlink:href="#m708fb8aacb" x="668.491291" y="46.419838" style="fill: #1f77b4; stroke: #1f77b4"/>
     <use xlink:href="#m708fb8aacb" x="674.154121" y="46.419838" style="fill: #1f77b4; stroke: #1f77b4"/>
     <use xlink:href="#m708fb8aacb" x="679.830424" y="46.419838" style="fill: #1f77b4; stroke: #1f77b4"/>
     <use xlink:href="#m708fb8aacb" x="685.492571" y="46.419838" style="fill: #1f77b4; stroke: #1f77b4"/>
     <use xlink:href="#m708fb8aacb" x="691.158739" y="46.419838" style="fill: #1f77b4; stroke: #1f77b4"/>
     <use xlink:href="#m708fb8aacb" x="696.828768" y="46.419838" style="fill: #1f77b4; stroke: #1f77b4"/>
     <use xlink:href="#m708fb8aacb" x="702.503972" y="46.419838" style="fill: #1f77b4; stroke: #1f77b4"/>
     <use xlink:href="#m708fb8aacb" x="708.181588" y="46.419838" style="fill: #1f77b4; stroke: #1f77b4"/>
     <use xlink:href="#m708fb8aacb" x="713.84899" y="46.301599" style="fill: #1f77b4; stroke: #1f77b4"/>
     <use xlink:href="#m708fb8aacb" x="719.52548" y="46.301599" style="fill: #1f77b4; stroke: #1f77b4"/>
     <use xlink:href="#m708fb8aacb" x="725.202467" y="46.301599" style="fill: #1f77b4; stroke: #1f77b4"/>
     <use xlink:href="#m708fb8aacb" x="730.869265" y="46.301599" style="fill: #1f77b4; stroke: #1f77b4"/>
     <use xlink:href="#m708fb8aacb" x="736.544214" y="46.301599" style="fill: #1f77b4; stroke: #1f77b4"/>
     <use xlink:href="#m708fb8aacb" x="742.221334" y="46.301599" style="fill: #1f77b4; stroke: #1f77b4"/>
     <use xlink:href="#m708fb8aacb" x="747.899661" y="46.301599" style="fill: #1f77b4; stroke: #1f77b4"/>
     <use xlink:href="#m708fb8aacb" x="753.567089" y="46.183361" style="fill: #1f77b4; stroke: #1f77b4"/>
     <use xlink:href="#m708fb8aacb" x="759.235563" y="45.436307" style="fill: #1f77b4; stroke: #1f77b4"/>
     <use xlink:href="#m708fb8aacb" x="764.956733" y="45.436307" style="fill: #1f77b4; stroke: #1f77b4"/>
     <use xlink:href="#m708fb8aacb" x="770.684699" y="45.436307" style="fill: #1f77b4; stroke: #1f77b4"/>
     <use xlink:href="#m708fb8aacb" x="776.398188" y="45.436307" style="fill: #1f77b4; stroke: #1f77b4"/>
     <use xlink:href="#m708fb8aacb" x="782.111851" y="45.436307" style="fill: #1f77b4; stroke: #1f77b4"/>
     <use xlink:href="#m708fb8aacb" x="787.834415" y="45.436307" style="fill: #1f77b4; stroke: #1f77b4"/>
     <use xlink:href="#m708fb8aacb" x="793.547689" y="45.436307" style="fill: #1f77b4; stroke: #1f77b4"/>
     <use xlink:href="#m708fb8aacb" x="799.254448" y="45.436307" style="fill: #1f77b4; stroke: #1f77b4"/>
     <use xlink:href="#m708fb8aacb" x="804.942735" y="45.436307" style="fill: #1f77b4; stroke: #1f77b4"/>
     <use xlink:href="#m708fb8aacb" x="810.654816" y="45.436307" style="fill: #1f77b4; stroke: #1f77b4"/>
    </g>
   </g>
   <g id="line2d_29">
    <path d="M 98.648222 399.217367 
L 110.073295 399.217367 
L 121.452175 399.215575 
L 132.822421 399.215575 
L 144.171635 399.215575 
L 149.860257 399.215575 
L 155.60624 399.215575 
L 161.331646 399.215575 
L 167.07173 399.215575 
L 172.820059 399.215575 
L 178.545639 399.215575 
L 184.276152 399.215575 
L 190.039052 399.215575 
L 195.756669 397.764463 
L 201.443749 397.536943 
L 207.125133 397.536943 
L 212.808781 397.291508 
L 218.491344 397.291508 
L 224.178639 397.207308 
L 229.852247 397.207308 
L 235.534917 397.207308 
L 241.218244 397.207308 
L 246.894252 397.207308 
L 252.567713 397.207308 
L 258.25486 397.207308 
L 263.937195 397.207308 
L 269.615871 397.207308 
L 275.295297 397.207308 
L 280.972015 397.207308 
L 286.650999 397.06578 
L 292.334849 397.06578 
L 298.025133 397.06578 
L 303.695028 397.06578 
L 309.379266 397.06578 
L 315.131362 397.06578 
L 320.85158 397.06578 
L 326.555122 397.06578 
L 332.25861 397.06578 
L 337.96187 397.06578 
L 343.655251 397.06578 
L 349.337613 397.06578 
L 355.015498 397.06578 
L 360.699763 397.06578 
L 366.370368 397.06578 
L 372.06458 397.06578 
L 377.76406 397.06578 
L 383.457978 397.06578 
L 389.121224 397.06578 
L 394.837192 397.06578 
L 400.5443 397.06578 
L 406.247828 397.06578 
L 411.943662 397.06578 
L 417.683184 397.06578 
L 423.356551 397.06578 
L 429.094008 397.06578 
L 434.774104 397.06578 
L 440.457069 397.06578 
L 446.197971 397.06578 
L 451.879622 397.06578 
L 457.563593 397.06578 
L 463.260955 397.06578 
L 468.937539 397.06578 
L 474.622153 397.06578 
L 480.372104 397.06578 
L 486.056597 397.06578 
L 491.738141 397.06578 
L 497.42053 397.06578 
L 503.105827 397.06578 
L 508.785267 397.06578 
L 514.455282 397.06578 
L 520.136679 397.06578 
L 525.81884 397.06578 
L 531.498413 397.06578 
L 537.178845 397.06578 
L 542.889491 397.06578 
L 548.59562 397.06578 
L 554.303479 397.06578 
L 559.983334 397.06578 
L 565.646044 397.06578 
L 571.328915 397.06578 
L 577.020835 397.06578 
L 582.766737 397.06578 
L 588.47804 397.06578 
L 594.170952 397.06578 
L 599.852952 397.06578 
L 605.535743 397.06578 
L 611.211549 397.06578 
L 616.890171 397.06578 
L 622.561272 397.06578 
L 628.244224 397.06578 
L 633.927819 397.06578 
L 639.610261 397.06578 
L 645.287194 397.06578 
L 650.956647 397.06578 
L 656.640791 397.06578 
L 662.323274 397.06578 
L 668.002606 397.06578 
L 673.679767 397.06578 
L 679.358858 397.06578 
L 685.086435 397.06578 
L 690.767363 397.06578 
L 696.459162 397.06578 
L 702.133239 397.06578 
L 707.814515 397.06578 
L 713.556664 397.06578 
L 719.240272 397.06578 
L 724.91746 397.06578 
L 730.599714 397.06578 
L 736.31091 397.06578 
L 741.994599 397.06578 
L 747.654601 397.06578 
L 753.355918 397.06578 
L 759.04761 397.063988 
L 764.791166 397.063988 
L 770.518516 397.063988 
L 776.237835 397.063988 
L 781.99717 397.063988 
L 787.718447 397.063988 
L 793.45018 397.063988 
L 799.177811 397.063988 
L 804.905482 397.063988 
L 810.624775 397.063988 
" clip-path="url(#pc8bb6493f2)" style="fill: none; stroke: #ff7f0e; stroke-width: 2; stroke-linecap: square"/>
    <defs>
     <path id="m4cf852c063" d="M 0 2 
C 0.530406 2 1.03916 1.789267 1.414214 1.414214 
C 1.789267 1.03916 2 0.530406 2 0 
C 2 -0.530406 1.789267 -1.03916 1.414214 -1.414214 
C 1.03916 -1.789267 0.530406 -2 0 -2 
C -0.530406 -2 -1.03916 -1.789267 -1.414214 -1.414214 
C -1.789267 -1.03916 -2 -0.530406 -2 0 
C -2 0.530406 -1.789267 1.03916 -1.414214 1.414214 
C -1.03916 1.789267 -0.530406 2 0 2 
z
" style="stroke: #ff7f0e"/>
    </defs>
    <g clip-path="url(#pc8bb6493f2)">
     <use xlink:href="#m4cf852c063" x="98.648222" y="399.217367" style="fill: #ff7f0e; stroke: #ff7f0e"/>
     <use xlink:href="#m4cf852c063" x="110.073295" y="399.217367" style="fill: #ff7f0e; stroke: #ff7f0e"/>
     <use xlink:href="#m4cf852c063" x="121.452175" y="399.215575" style="fill: #ff7f0e; stroke: #ff7f0e"/>
     <use xlink:href="#m4cf852c063" x="132.822421" y="399.215575" style="fill: #ff7f0e; stroke: #ff7f0e"/>
     <use xlink:href="#m4cf852c063" x="144.171635" y="399.215575" style="fill: #ff7f0e; stroke: #ff7f0e"/>
     <use xlink:href="#m4cf852c063" x="149.860257" y="399.215575" style="fill: #ff7f0e; stroke: #ff7f0e"/>
     <use xlink:href="#m4cf852c063" x="155.60624" y="399.215575" style="fill: #ff7f0e; stroke: #ff7f0e"/>
     <use xlink:href="#m4cf852c063" x="161.331646" y="399.215575" style="fill: #ff7f0e; stroke: #ff7f0e"/>
     <use xlink:href="#m4cf852c063" x="167.07173" y="399.215575" style="fill: #ff7f0e; stroke: #ff7f0e"/>
     <use xlink:href="#m4cf852c063" x="172.820059" y="399.215575" style="fill: #ff7f0e; stroke: #ff7f0e"/>
     <use xlink:href="#m4cf852c063" x="178.545639" y="399.215575" style="fill: #ff7f0e; stroke: #ff7f0e"/>
     <use xlink:href="#m4cf852c063" x="184.276152" y="399.215575" style="fill: #ff7f0e; stroke: #ff7f0e"/>
     <use xlink:href="#m4cf852c063" x="190.039052" y="399.215575" style="fill: #ff7f0e; stroke: #ff7f0e"/>
     <use xlink:href="#m4cf852c063" x="195.756669" y="397.764463" style="fill: #ff7f0e; stroke: #ff7f0e"/>
     <use xlink:href="#m4cf852c063" x="201.443749" y="397.536943" style="fill: #ff7f0e; stroke: #ff7f0e"/>
     <use xlink:href="#m4cf852c063" x="207.125133" y="397.536943" style="fill: #ff7f0e; stroke: #ff7f0e"/>
     <use xlink:href="#m4cf852c063" x="212.808781" y="397.291508" style="fill: #ff7f0e; stroke: #ff7f0e"/>
     <use xlink:href="#m4cf852c063" x="218.491344" y="397.291508" style="fill: #ff7f0e; stroke: #ff7f0e"/>
     <use xlink:href="#m4cf852c063" x="224.178639" y="397.207308" style="fill: #ff7f0e; stroke: #ff7f0e"/>
     <use xlink:href="#m4cf852c063" x="229.852247" y="397.207308" style="fill: #ff7f0e; stroke: #ff7f0e"/>
     <use xlink:href="#m4cf852c063" x="235.534917" y="397.207308" style="fill: #ff7f0e; stroke: #ff7f0e"/>
     <use xlink:href="#m4cf852c063" x="241.218244" y="397.207308" style="fill: #ff7f0e; stroke: #ff7f0e"/>
     <use xlink:href="#m4cf852c063" x="246.894252" y="397.207308" style="fill: #ff7f0e; stroke: #ff7f0e"/>
     <use xlink:href="#m4cf852c063" x="252.567713" y="397.207308" style="fill: #ff7f0e; stroke: #ff7f0e"/>
     <use xlink:href="#m4cf852c063" x="258.25486" y="397.207308" style="fill: #ff7f0e; stroke: #ff7f0e"/>
     <use xlink:href="#m4cf852c063" x="263.937195" y="397.207308" style="fill: #ff7f0e; stroke: #ff7f0e"/>
     <use xlink:href="#m4cf852c063" x="269.615871" y="397.207308" style="fill: #ff7f0e; stroke: #ff7f0e"/>
     <use xlink:href="#m4cf852c063" x="275.295297" y="397.207308" style="fill: #ff7f0e; stroke: #ff7f0e"/>
     <use xlink:href="#m4cf852c063" x="280.972015" y="397.207308" style="fill: #ff7f0e; stroke: #ff7f0e"/>
     <use xlink:href="#m4cf852c063" x="286.650999" y="397.06578" style="fill: #ff7f0e; stroke: #ff7f0e"/>
     <use xlink:href="#m4cf852c063" x="292.334849" y="397.06578" style="fill: #ff7f0e; stroke: #ff7f0e"/>
     <use xlink:href="#m4cf852c063" x="298.025133" y="397.06578" style="fill: #ff7f0e; stroke: #ff7f0e"/>
     <use xlink:href="#m4cf852c063" x="303.695028" y="397.06578" style="fill: #ff7f0e; stroke: #ff7f0e"/>
     <use xlink:href="#m4cf852c063" x="309.379266" y="397.06578" style="fill: #ff7f0e; stroke: #ff7f0e"/>
     <use xlink:href="#m4cf852c063" x="315.131362" y="397.06578" style="fill: #ff7f0e; stroke: #ff7f0e"/>
     <use xlink:href="#m4cf852c063" x="320.85158" y="397.06578" style="fill: #ff7f0e; stroke: #ff7f0e"/>
     <use xlink:href="#m4cf852c063" x="326.555122" y="397.06578" style="fill: #ff7f0e; stroke: #ff7f0e"/>
     <use xlink:href="#m4cf852c063" x="332.25861" y="397.06578" style="fill: #ff7f0e; stroke: #ff7f0e"/>
     <use xlink:href="#m4cf852c063" x="337.96187" y="397.06578" style="fill: #ff7f0e; stroke: #ff7f0e"/>
     <use xlink:href="#m4cf852c063" x="343.655251" y="397.06578" style="fill: #ff7f0e; stroke: #ff7f0e"/>
     <use xlink:href="#m4cf852c063" x="349.337613" y="397.06578" style="fill: #ff7f0e; stroke: #ff7f0e"/>
     <use xlink:href="#m4cf852c063" x="355.015498" y="397.06578" style="fill: #ff7f0e; stroke: #ff7f0e"/>
     <use xlink:href="#m4cf852c063" x="360.699763" y="397.06578" style="fill: #ff7f0e; stroke: #ff7f0e"/>
     <use xlink:href="#m4cf852c063" x="366.370368" y="397.06578" style="fill: #ff7f0e; stroke: #ff7f0e"/>
     <use xlink:href="#m4cf852c063" x="372.06458" y="397.06578" style="fill: #ff7f0e; stroke: #ff7f0e"/>
     <use xlink:href="#m4cf852c063" x="377.76406" y="397.06578" style="fill: #ff7f0e; stroke: #ff7f0e"/>
     <use xlink:href="#m4cf852c063" x="383.457978" y="397.06578" style="fill: #ff7f0e; stroke: #ff7f0e"/>
     <use xlink:href="#m4cf852c063" x="389.121224" y="397.06578" style="fill: #ff7f0e; stroke: #ff7f0e"/>
     <use xlink:href="#m4cf852c063" x="394.837192" y="397.06578" style="fill: #ff7f0e; stroke: #ff7f0e"/>
     <use xlink:href="#m4cf852c063" x="400.5443" y="397.06578" style="fill: #ff7f0e; stroke: #ff7f0e"/>
     <use xlink:href="#m4cf852c063" x="406.247828" y="397.06578" style="fill: #ff7f0e; stroke: #ff7f0e"/>
     <use xlink:href="#m4cf852c063" x="411.943662" y="397.06578" style="fill: #ff7f0e; stroke: #ff7f0e"/>
     <use xlink:href="#m4cf852c063" x="417.683184" y="397.06578" style="fill: #ff7f0e; stroke: #ff7f0e"/>
     <use xlink:href="#m4cf852c063" x="423.356551" y="397.06578" style="fill: #ff7f0e; stroke: #ff7f0e"/>
     <use xlink:href="#m4cf852c063" x="429.094008" y="397.06578" style="fill: #ff7f0e; stroke: #ff7f0e"/>
     <use xlink:href="#m4cf852c063" x="434.774104" y="397.06578" style="fill: #ff7f0e; stroke: #ff7f0e"/>
     <use xlink:href="#m4cf852c063" x="440.457069" y="397.06578" style="fill: #ff7f0e; stroke: #ff7f0e"/>
     <use xlink:href="#m4cf852c063" x="446.197971" y="397.06578" style="fill: #ff7f0e; stroke: #ff7f0e"/>
     <use xlink:href="#m4cf852c063" x="451.879622" y="397.06578" style="fill: #ff7f0e; stroke: #ff7f0e"/>
     <use xlink:href="#m4cf852c063" x="457.563593" y="397.06578" style="fill: #ff7f0e; stroke: #ff7f0e"/>
     <use xlink:href="#m4cf852c063" x="463.260955" y="397.06578" style="fill: #ff7f0e; stroke: #ff7f0e"/>
     <use xlink:href="#m4cf852c063" x="468.937539" y="397.06578" style="fill: #ff7f0e; stroke: #ff7f0e"/>
     <use xlink:href="#m4cf852c063" x="474.622153" y="397.06578" style="fill: #ff7f0e; stroke: #ff7f0e"/>
     <use xlink:href="#m4cf852c063" x="480.372104" y="397.06578" style="fill: #ff7f0e; stroke: #ff7f0e"/>
     <use xlink:href="#m4cf852c063" x="486.056597" y="397.06578" style="fill: #ff7f0e; stroke: #ff7f0e"/>
     <use xlink:href="#m4cf852c063" x="491.738141" y="397.06578" style="fill: #ff7f0e; stroke: #ff7f0e"/>
     <use xlink:href="#m4cf852c063" x="497.42053" y="397.06578" style="fill: #ff7f0e; stroke: #ff7f0e"/>
     <use xlink:href="#m4cf852c063" x="503.105827" y="397.06578" style="fill: #ff7f0e; stroke: #ff7f0e"/>
     <use xlink:href="#m4cf852c063" x="508.785267" y="397.06578" style="fill: #ff7f0e; stroke: #ff7f0e"/>
     <use xlink:href="#m4cf852c063" x="514.455282" y="397.06578" style="fill: #ff7f0e; stroke: #ff7f0e"/>
     <use xlink:href="#m4cf852c063" x="520.136679" y="397.06578" style="fill: #ff7f0e; stroke: #ff7f0e"/>
     <use xlink:href="#m4cf852c063" x="525.81884" y="397.06578" style="fill: #ff7f0e; stroke: #ff7f0e"/>
     <use xlink:href="#m4cf852c063" x="531.498413" y="397.06578" style="fill: #ff7f0e; stroke: #ff7f0e"/>
     <use xlink:href="#m4cf852c063" x="537.178845" y="397.06578" style="fill: #ff7f0e; stroke: #ff7f0e"/>
     <use xlink:href="#m4cf852c063" x="542.889491" y="397.06578" style="fill: #ff7f0e; stroke: #ff7f0e"/>
     <use xlink:href="#m4cf852c063" x="548.59562" y="397.06578" style="fill: #ff7f0e; stroke: #ff7f0e"/>
     <use xlink:href="#m4cf852c063" x="554.303479" y="397.06578" style="fill: #ff7f0e; stroke: #ff7f0e"/>
     <use xlink:href="#m4cf852c063" x="559.983334" y="397.06578" style="fill: #ff7f0e; stroke: #ff7f0e"/>
     <use xlink:href="#m4cf852c063" x="565.646044" y="397.06578" style="fill: #ff7f0e; stroke: #ff7f0e"/>
     <use xlink:href="#m4cf852c063" x="571.328915" y="397.06578" style="fill: #ff7f0e; stroke: #ff7f0e"/>
     <use xlink:href="#m4cf852c063" x="577.020835" y="397.06578" style="fill: #ff7f0e; stroke: #ff7f0e"/>
     <use xlink:href="#m4cf852c063" x="582.766737" y="397.06578" style="fill: #ff7f0e; stroke: #ff7f0e"/>
     <use xlink:href="#m4cf852c063" x="588.47804" y="397.06578" style="fill: #ff7f0e; stroke: #ff7f0e"/>
     <use xlink:href="#m4cf852c063" x="594.170952" y="397.06578" style="fill: #ff7f0e; stroke: #ff7f0e"/>
     <use xlink:href="#m4cf852c063" x="599.852952" y="397.06578" style="fill: #ff7f0e; stroke: #ff7f0e"/>
     <use xlink:href="#m4cf852c063" x="605.535743" y="397.06578" style="fill: #ff7f0e; stroke: #ff7f0e"/>
     <use xlink:href="#m4cf852c063" x="611.211549" y="397.06578" style="fill: #ff7f0e; stroke: #ff7f0e"/>
     <use xlink:href="#m4cf852c063" x="616.890171" y="397.06578" style="fill: #ff7f0e; stroke: #ff7f0e"/>
     <use xlink:href="#m4cf852c063" x="622.561272" y="397.06578" style="fill: #ff7f0e; stroke: #ff7f0e"/>
     <use xlink:href="#m4cf852c063" x="628.244224" y="397.06578" style="fill: #ff7f0e; stroke: #ff7f0e"/>
     <use xlink:href="#m4cf852c063" x="633.927819" y="397.06578" style="fill: #ff7f0e; stroke: #ff7f0e"/>
     <use xlink:href="#m4cf852c063" x="639.610261" y="397.06578" style="fill: #ff7f0e; stroke: #ff7f0e"/>
     <use xlink:href="#m4cf852c063" x="645.287194" y="397.06578" style="fill: #ff7f0e; stroke: #ff7f0e"/>
     <use xlink:href="#m4cf852c063" x="650.956647" y="397.06578" style="fill: #ff7f0e; stroke: #ff7f0e"/>
     <use xlink:href="#m4cf852c063" x="656.640791" y="397.06578" style="fill: #ff7f0e; stroke: #ff7f0e"/>
     <use xlink:href="#m4cf852c063" x="662.323274" y="397.06578" style="fill: #ff7f0e; stroke: #ff7f0e"/>
     <use xlink:href="#m4cf852c063" x="668.002606" y="397.06578" style="fill: #ff7f0e; stroke: #ff7f0e"/>
     <use xlink:href="#m4cf852c063" x="673.679767" y="397.06578" style="fill: #ff7f0e; stroke: #ff7f0e"/>
     <use xlink:href="#m4cf852c063" x="679.358858" y="397.06578" style="fill: #ff7f0e; stroke: #ff7f0e"/>
     <use xlink:href="#m4cf852c063" x="685.086435" y="397.06578" style="fill: #ff7f0e; stroke: #ff7f0e"/>
     <use xlink:href="#m4cf852c063" x="690.767363" y="397.06578" style="fill: #ff7f0e; stroke: #ff7f0e"/>
     <use xlink:href="#m4cf852c063" x="696.459162" y="397.06578" style="fill: #ff7f0e; stroke: #ff7f0e"/>
     <use xlink:href="#m4cf852c063" x="702.133239" y="397.06578" style="fill: #ff7f0e; stroke: #ff7f0e"/>
     <use xlink:href="#m4cf852c063" x="707.814515" y="397.06578" style="fill: #ff7f0e; stroke: #ff7f0e"/>
     <use xlink:href="#m4cf852c063" x="713.556664" y="397.06578" style="fill: #ff7f0e; stroke: #ff7f0e"/>
     <use xlink:href="#m4cf852c063" x="719.240272" y="397.06578" style="fill: #ff7f0e; stroke: #ff7f0e"/>
     <use xlink:href="#m4cf852c063" x="724.91746" y="397.06578" style="fill: #ff7f0e; stroke: #ff7f0e"/>
     <use xlink:href="#m4cf852c063" x="730.599714" y="397.06578" style="fill: #ff7f0e; stroke: #ff7f0e"/>
     <use xlink:href="#m4cf852c063" x="736.31091" y="397.06578" style="fill: #ff7f0e; stroke: #ff7f0e"/>
     <use xlink:href="#m4cf852c063" x="741.994599" y="397.06578" style="fill: #ff7f0e; stroke: #ff7f0e"/>
     <use xlink:href="#m4cf852c063" x="747.654601" y="397.06578" style="fill: #ff7f0e; stroke: #ff7f0e"/>
     <use xlink:href="#m4cf852c063" x="753.355918" y="397.06578" style="fill: #ff7f0e; stroke: #ff7f0e"/>
     <use xlink:href="#m4cf852c063" x="759.04761" y="397.063988" style="fill: #ff7f0e; stroke: #ff7f0e"/>
     <use xlink:href="#m4cf852c063" x="764.791166" y="397.063988" style="fill: #ff7f0e; stroke: #ff7f0e"/>
     <use xlink:href="#m4cf852c063" x="770.518516" y="397.063988" style="fill: #ff7f0e; stroke: #ff7f0e"/>
     <use xlink:href="#m4cf852c063" x="776.237835" y="397.063988" style="fill: #ff7f0e; stroke: #ff7f0e"/>
     <use xlink:href="#m4cf852c063" x="781.99717" y="397.063988" style="fill: #ff7f0e; stroke: #ff7f0e"/>
     <use xlink:href="#m4cf852c063" x="787.718447" y="397.063988" style="fill: #ff7f0e; stroke: #ff7f0e"/>
     <use xlink:href="#m4cf852c063" x="793.45018" y="397.063988" style="fill: #ff7f0e; stroke: #ff7f0e"/>
     <use xlink:href="#m4cf852c063" x="799.177811" y="397.063988" style="fill: #ff7f0e; stroke: #ff7f0e"/>
     <use xlink:href="#m4cf852c063" x="804.905482" y="397.063988" style="fill: #ff7f0e; stroke: #ff7f0e"/>
     <use xlink:href="#m4cf852c063" x="810.624775" y="397.063988" style="fill: #ff7f0e; stroke: #ff7f0e"/>
    </g>
   </g>
   <g id="patch_3">
    <path d="M 53.328125 530.918125 
L 53.328125 22.318125 
" style="fill: none; stroke: #000000; stroke-width: 0.8; stroke-linejoin: miter; stroke-linecap: square"/>
   </g>
   <g id="patch_4">
    <path d="M 849.088125 530.918125 
L 849.088125 22.318125 
" style="fill: none; stroke: #000000; stroke-width: 0.8; stroke-linejoin: miter; stroke-linecap: square"/>
   </g>
   <g id="patch_5">
    <path d="M 53.328125 530.918125 
L 849.088125 530.918125 
" style="fill: none; stroke: #000000; stroke-width: 0.8; stroke-linejoin: miter; stroke-linecap: square"/>
   </g>
   <g id="patch_6">
    <path d="M 53.328125 22.318125 
L 849.088125 22.318125 
" style="fill: none; stroke: #000000; stroke-width: 0.8; stroke-linejoin: miter; stroke-linecap: square"/>
   </g>
   <g id="text_16">
    <!-- Memory Usage Comparison Over Time -->
    <g transform="translate(335.446563 16.318125) scale(0.12 -0.12)">
     <defs>
      <path id="DejaVuSans-43" d="M 4122 4306 
L 4122 3641 
Q 3803 3938 3442 4084 
Q 3081 4231 2675 4231 
Q 1875 4231 1450 3742 
Q 1025 3253 1025 2328 
Q 1025 1406 1450 917 
Q 1875 428 2675 428 
Q 3081 428 3442 575 
Q 3803 722 4122 1019 
L 4122 359 
Q 3791 134 3420 21 
Q 3050 -91 2638 -91 
Q 1578 -91 968 557 
Q 359 1206 359 2328 
Q 359 3453 968 4101 
Q 1578 4750 2638 4750 
Q 3056 4750 3426 4639 
Q 3797 4528 4122 4306 
z
" transform="scale(0.015625)"/>
      <path id="DejaVuSans-4f" d="M 2522 4238 
Q 1834 4238 1429 3725 
Q 1025 3213 1025 2328 
Q 1025 1447 1429 934 
Q 1834 422 2522 422 
Q 3209 422 3611 934 
Q 4013 1447 4013 2328 
Q 4013 3213 3611 3725 
Q 3209 4238 2522 4238 
z
M 2522 4750 
Q 3503 4750 4090 4092 
Q 4678 3434 4678 2328 
Q 4678 1225 4090 567 
Q 3503 -91 2522 -91 
Q 1538 -91 948 565 
Q 359 1222 359 2328 
Q 359 3434 948 4092 
Q 1538 4750 2522 4750 
z
" transform="scale(0.015625)"/>
      <path id="DejaVuSans-76" d="M 191 3500 
L 800 3500 
L 1894 563 
L 2988 3500 
L 3597 3500 
L 2284 0 
L 1503 0 
L 191 3500 
z
" transform="scale(0.015625)"/>
     </defs>
     <use xlink:href="#DejaVuSans-4d"/>
     <use xlink:href="#DejaVuSans-65" x="86.279297"/>
     <use xlink:href="#DejaVuSans-6d" x="147.802734"/>
     <use xlink:href="#DejaVuSans-6f" x="245.214844"/>
     <use xlink:href="#DejaVuSans-72" x="306.396484"/>
     <use xlink:href="#DejaVuSans-79" x="347.509766"/>
     <use xlink:href="#DejaVuSans-20" x="406.689453"/>
     <use xlink:href="#DejaVuSans-55" x="438.476562"/>
     <use xlink:href="#DejaVuSans-73" x="511.669922"/>
     <use xlink:href="#DejaVuSans-61" x="563.769531"/>
     <use xlink:href="#DejaVuSans-67" x="625.048828"/>
     <use xlink:href="#DejaVuSans-65" x="688.525391"/>
     <use xlink:href="#DejaVuSans-20" x="750.048828"/>
     <use xlink:href="#DejaVuSans-43" x="781.835938"/>
     <use xlink:href="#DejaVuSans-6f" x="851.660156"/>
     <use xlink:href="#DejaVuSans-6d" x="912.841797"/>
     <use xlink:href="#DejaVuSans-70" x="1010.253906"/>
     <use xlink:href="#DejaVuSans-61" x="1073.730469"/>
     <use xlink:href="#DejaVuSans-72" x="1135.009766"/>
     <use xlink:href="#DejaVuSans-69" x="1176.123047"/>
     <use xlink:href="#DejaVuSans-73" x="1203.90625"/>
     <use xlink:href="#DejaVuSans-6f" x="1256.005859"/>
     <use xlink:href="#DejaVuSans-6e" x="1317.1875"/>
     <use xlink:href="#DejaVuSans-20" x="1380.566406"/>
     <use xlink:href="#DejaVuSans-4f" x="1412.353516"/>
     <use xlink:href="#DejaVuSans-76" x="1491.064453"/>
     <use xlink:href="#DejaVuSans-65" x="1550.244141"/>
     <use xlink:href="#DejaVuSans-72" x="1611.767578"/>
     <use xlink:href="#DejaVuSans-20" x="1652.880859"/>
     <use xlink:href="#DejaVuSans-54" x="1684.667969"/>
     <use xlink:href="#DejaVuSans-69" x="1742.626953"/>
     <use xlink:href="#DejaVuSans-6d" x="1770.410156"/>
     <use xlink:href="#DejaVuSans-65" x="1867.822266"/>
    </g>
   </g>
   <g id="legend_1">
    <g id="patch_7">
     <path d="M 60.328125 74.3525 
L 128.970313 74.3525 
Q 130.970313 74.3525 130.970313 72.3525 
L 130.970313 29.318125 
Q 130.970313 27.318125 128.970313 27.318125 
L 60.328125 27.318125 
Q 58.328125 27.318125 58.328125 29.318125 
L 58.328125 72.3525 
Q 58.328125 74.3525 60.328125 74.3525 
z
" style="fill: #ffffff; opacity: 0.8; stroke: #cccccc; stroke-linejoin: miter"/>
    </g>
    <g id="line2d_30">
     <path d="M 62.328125 35.416562 
L 72.328125 35.416562 
L 82.328125 35.416562 
" style="fill: none; stroke: #2ca02c; stroke-width: 2; stroke-linecap: square"/>
     <g>
      <use xlink:href="#ma8b6bae3b3" x="72.328125" y="35.416562" style="fill: #2ca02c; stroke: #2ca02c"/>
     </g>
    </g>
    <g id="text_17">
     <!-- weaver -->
     <g transform="translate(90.328125 38.916562) scale(0.1 -0.1)">
      <defs>
       <path id="DejaVuSans-77" d="M 269 3500 
L 844 3500 
L 1563 769 
L 2278 3500 
L 2956 3500 
L 3675 769 
L 4391 3500 
L 4966 3500 
L 4050 0 
L 3372 0 
L 2619 2869 
L 1863 0 
L 1184 0 
L 269 3500 
z
" transform="scale(0.015625)"/>
      </defs>
      <use xlink:href="#DejaVuSans-77"/>
      <use xlink:href="#DejaVuSans-65" x="81.787109"/>
      <use xlink:href="#DejaVuSans-61" x="143.310547"/>
      <use xlink:href="#DejaVuSans-76" x="204.589844"/>
      <use xlink:href="#DejaVuSans-65" x="263.769531"/>
      <use xlink:href="#DejaVuSans-72" x="325.292969"/>
     </g>
    </g>
    <g id="line2d_31">
     <path d="M 62.328125 50.094687 
L 72.328125 50.094687 
L 82.328125 50.094687 
" style="fill: none; stroke: #1f77b4; stroke-width: 2; stroke-linecap: square"/>
     <g>
      <use xlink:href="#m708fb8aacb" x="72.328125" y="50.094687" style="fill: #1f77b4; stroke: #1f77b4"/>
     </g>
    </g>
    <g id="text_18">
     <!-- node -->
     <g transform="translate(90.328125 53.594687) scale(0.1 -0.1)">
      <use xlink:href="#DejaVuSans-6e"/>
      <use xlink:href="#DejaVuSans-6f" x="63.378906"/>
      <use xlink:href="#DejaVuSans-64" x="124.560547"/>
      <use xlink:href="#DejaVuSans-65" x="188.037109"/>
     </g>
    </g>
    <g id="line2d_32">
     <path d="M 62.328125 64.772812 
L 72.328125 64.772812 
L 82.328125 64.772812 
" style="fill: none; stroke: #ff7f0e; stroke-width: 2; stroke-linecap: square"/>
     <g>
      <use xlink:href="#m4cf852c063" x="72.328125" y="64.772812" style="fill: #ff7f0e; stroke: #ff7f0e"/>
     </g>
    </g>
    <g id="text_19">
     <!-- python -->
     <g transform="translate(90.328125 68.272812) scale(0.1 -0.1)">
      <defs>
       <path id="DejaVuSans-74" d="M 1172 4494 
L 1172 3500 
L 2356 3500 
L 2356 3053 
L 1172 3053 
L 1172 1153 
Q 1172 725 1289 603 
Q 1406 481 1766 481 
L 2356 481 
L 2356 0 
L 1766 0 
Q 1100 0 847 248 
Q 594 497 594 1153 
L 594 3053 
L 172 3053 
L 172 3500 
L 594 3500 
L 594 4494 
L 1172 4494 
z
" transform="scale(0.015625)"/>
       <path id="DejaVuSans-68" d="M 3513 2113 
L 3513 0 
L 2938 0 
L 2938 2094 
Q 2938 2591 2744 2837 
Q 2550 3084 2163 3084 
Q 1697 3084 1428 2787 
Q 1159 2491 1159 1978 
L 1159 0 
L 581 0 
L 581 4863 
L 1159 4863 
L 1159 2956 
Q 1366 3272 1645 3428 
Q 1925 3584 2291 3584 
Q 2894 3584 3203 3211 
Q 3513 2838 3513 2113 
z
" transform="scale(0.015625)"/>
      </defs>
      <use xlink:href="#DejaVuSans-70"/>
      <use xlink:href="#DejaVuSans-79" x="63.476562"/>
      <use xlink:href="#DejaVuSans-74" x="122.65625"/>
      <use xlink:href="#DejaVuSans-68" x="161.865234"/>
      <use xlink:href="#DejaVuSans-6f" x="225.244141"/>
      <use xlink:href="#DejaVuSans-6e" x="286.425781"/>
     </g>
    </g>
   </g>
  </g>
 </g>
 <defs>
  <clipPath id="pc8bb6493f2">
   <rect x="53.328125" y="22.318125" width="795.76" height="508.6"/>
  </clipPath>
 </defs>
</svg>
