<?xml version="1.0" encoding="utf-8" standalone="no"?>
<!DOCTYPE svg PUBLIC "-//W3C//DTD SVG 1.1//EN"
  "http://www.w3.org/Graphics/SVG/1.1/DTD/svg11.dtd">
<svg xmlns:xlink="http://www.w3.org/1999/xlink" width="856.233125pt" height="568.474375pt" viewBox="0 0 856.233125 568.474375" xmlns="http://www.w3.org/2000/svg" version="1.1">
 <metadata>
  <rdf:RDF xmlns:dc="http://purl.org/dc/elements/1.1/" xmlns:cc="http://creativecommons.org/ns#" xmlns:rdf="http://www.w3.org/1999/02/22-rdf-syntax-ns#">
   <cc:Work>
    <dc:type rdf:resource="http://purl.org/dc/dcmitype/StillImage"/>
    <dc:date>2025-06-27T15:22:50.307748</dc:date>
    <dc:format>image/svg+xml</dc:format>
    <dc:creator>
     <cc:Agent>
      <dc:title>Matplotlib v3.6.3, https://matplotlib.org/</dc:title>
     </cc:Agent>
    </dc:creator>
   </cc:Work>
  </rdf:RDF>
 </metadata>
 <defs>
  <style type="text/css">*{stroke-linejoin: round; stroke-linecap: butt}</style>
 </defs>
 <g id="figure_1">
  <g id="patch_1">
   <path d="M 0 568.474375 
L 856.233125 568.474375 
L 856.233125 0 
L 0 0 
z
" style="fill: #ffffff"/>
  </g>
  <g id="axes_1">
   <g id="patch_2">
    <path d="M 66.053125 530.918125 
L 849.033125 530.918125 
L 849.033125 22.318125 
L 66.053125 22.318125 
z
" style="fill: #ffffff"/>
   </g>
   <g id="matplotlib.axis_1">
    <g id="xtick_1">
     <g id="line2d_1">
      <path d="M 94.453226 530.918125 
L 94.453226 22.318125 
" clip-path="url(#pb9d846864a)" style="fill: none; stroke: #b0b0b0; stroke-opacity: 0.3; stroke-width: 0.8; stroke-linecap: square"/>
     </g>
     <g id="line2d_2">
      <defs>
       <path id="me8c1cdeca1" d="M 0 0 
L 0 3.5 
" style="stroke: #000000; stroke-width: 0.8"/>
      </defs>
      <g>
       <use xlink:href="#me8c1cdeca1" x="94.453226" y="530.918125" style="stroke: #000000; stroke-width: 0.8"/>
      </g>
     </g>
     <g id="text_1">
      <!-- 0 -->
      <g transform="translate(91.271976 545.516562) scale(0.1 -0.1)">
       <defs>
        <path id="DejaVuSans-30" d="M 2034 4250 
Q 1547 4250 1301 3770 
Q 1056 3291 1056 2328 
Q 1056 1369 1301 889 
Q 1547 409 2034 409 
Q 2525 409 2770 889 
Q 3016 1369 3016 2328 
Q 3016 3291 2770 3770 
Q 2525 4250 2034 4250 
z
M 2034 4750 
Q 2819 4750 3233 4129 
Q 3647 3509 3647 2328 
Q 3647 1150 3233 529 
Q 2819 -91 2034 -91 
Q 1250 -91 836 529 
Q 422 1150 422 2328 
Q 422 3509 836 4129 
Q 1250 4750 2034 4750 
z
" transform="scale(0.015625)"/>
       </defs>
       <use xlink:href="#DejaVuSans-30"/>
      </g>
     </g>
    </g>
    <g id="xtick_2">
     <g id="line2d_3">
      <path d="M 238.251206 530.918125 
L 238.251206 22.318125 
" clip-path="url(#pb9d846864a)" style="fill: none; stroke: #b0b0b0; stroke-opacity: 0.3; stroke-width: 0.8; stroke-linecap: square"/>
     </g>
     <g id="line2d_4">
      <g>
       <use xlink:href="#me8c1cdeca1" x="238.251206" y="530.918125" style="stroke: #000000; stroke-width: 0.8"/>
      </g>
     </g>
     <g id="text_2">
      <!-- 2 -->
      <g transform="translate(235.069956 545.516562) scale(0.1 -0.1)">
       <defs>
        <path id="DejaVuSans-32" d="M 1228 531 
L 3431 531 
L 3431 0 
L 469 0 
L 469 531 
Q 828 903 1448 1529 
Q 2069 2156 2228 2338 
Q 2531 2678 2651 2914 
Q 2772 3150 2772 3378 
Q 2772 3750 2511 3984 
Q 2250 4219 1831 4219 
Q 1534 4219 1204 4116 
Q 875 4013 500 3803 
L 500 4441 
Q 881 4594 1212 4672 
Q 1544 4750 1819 4750 
Q 2544 4750 2975 4387 
Q 3406 4025 3406 3419 
Q 3406 3131 3298 2873 
Q 3191 2616 2906 2266 
Q 2828 2175 2409 1742 
Q 1991 1309 1228 531 
z
" transform="scale(0.015625)"/>
       </defs>
       <use xlink:href="#DejaVuSans-32"/>
      </g>
     </g>
    </g>
    <g id="xtick_3">
     <g id="line2d_5">
      <path d="M 382.049186 530.918125 
L 382.049186 22.318125 
" clip-path="url(#pb9d846864a)" style="fill: none; stroke: #b0b0b0; stroke-opacity: 0.3; stroke-width: 0.8; stroke-linecap: square"/>
     </g>
     <g id="line2d_6">
      <g>
       <use xlink:href="#me8c1cdeca1" x="382.049186" y="530.918125" style="stroke: #000000; stroke-width: 0.8"/>
      </g>
     </g>
     <g id="text_3">
      <!-- 4 -->
      <g transform="translate(378.867936 545.516562) scale(0.1 -0.1)">
       <defs>
        <path id="DejaVuSans-34" d="M 2419 4116 
L 825 1625 
L 2419 1625 
L 2419 4116 
z
M 2253 4666 
L 3047 4666 
L 3047 1625 
L 3713 1625 
L 3713 1100 
L 3047 1100 
L 3047 0 
L 2419 0 
L 2419 1100 
L 313 1100 
L 313 1709 
L 2253 4666 
z
" transform="scale(0.015625)"/>
       </defs>
       <use xlink:href="#DejaVuSans-34"/>
      </g>
     </g>
    </g>
    <g id="xtick_4">
     <g id="line2d_7">
      <path d="M 525.847165 530.918125 
L 525.847165 22.318125 
" clip-path="url(#pb9d846864a)" style="fill: none; stroke: #b0b0b0; stroke-opacity: 0.3; stroke-width: 0.8; stroke-linecap: square"/>
     </g>
     <g id="line2d_8">
      <g>
       <use xlink:href="#me8c1cdeca1" x="525.847165" y="530.918125" style="stroke: #000000; stroke-width: 0.8"/>
      </g>
     </g>
     <g id="text_4">
      <!-- 6 -->
      <g transform="translate(522.665915 545.516562) scale(0.1 -0.1)">
       <defs>
        <path id="DejaVuSans-36" d="M 2113 2584 
Q 1688 2584 1439 2293 
Q 1191 2003 1191 1497 
Q 1191 994 1439 701 
Q 1688 409 2113 409 
Q 2538 409 2786 701 
Q 3034 994 3034 1497 
Q 3034 2003 2786 2293 
Q 2538 2584 2113 2584 
z
M 3366 4563 
L 3366 3988 
Q 3128 4100 2886 4159 
Q 2644 4219 2406 4219 
Q 1781 4219 1451 3797 
Q 1122 3375 1075 2522 
Q 1259 2794 1537 2939 
Q 1816 3084 2150 3084 
Q 2853 3084 3261 2657 
Q 3669 2231 3669 1497 
Q 3669 778 3244 343 
Q 2819 -91 2113 -91 
Q 1303 -91 875 529 
Q 447 1150 447 2328 
Q 447 3434 972 4092 
Q 1497 4750 2381 4750 
Q 2619 4750 2861 4703 
Q 3103 4656 3366 4563 
z
" transform="scale(0.015625)"/>
       </defs>
       <use xlink:href="#DejaVuSans-36"/>
      </g>
     </g>
    </g>
    <g id="xtick_5">
     <g id="line2d_9">
      <path d="M 669.645145 530.918125 
L 669.645145 22.318125 
" clip-path="url(#pb9d846864a)" style="fill: none; stroke: #b0b0b0; stroke-opacity: 0.3; stroke-width: 0.8; stroke-linecap: square"/>
     </g>
     <g id="line2d_10">
      <g>
       <use xlink:href="#me8c1cdeca1" x="669.645145" y="530.918125" style="stroke: #000000; stroke-width: 0.8"/>
      </g>
     </g>
     <g id="text_5">
      <!-- 8 -->
      <g transform="translate(666.463895 545.516562) scale(0.1 -0.1)">
       <defs>
        <path id="DejaVuSans-38" d="M 2034 2216 
Q 1584 2216 1326 1975 
Q 1069 1734 1069 1313 
Q 1069 891 1326 650 
Q 1584 409 2034 409 
Q 2484 409 2743 651 
Q 3003 894 3003 1313 
Q 3003 1734 2745 1975 
Q 2488 2216 2034 2216 
z
M 1403 2484 
Q 997 2584 770 2862 
Q 544 3141 544 3541 
Q 544 4100 942 4425 
Q 1341 4750 2034 4750 
Q 2731 4750 3128 4425 
Q 3525 4100 3525 3541 
Q 3525 3141 3298 2862 
Q 3072 2584 2669 2484 
Q 3125 2378 3379 2068 
Q 3634 1759 3634 1313 
Q 3634 634 3220 271 
Q 2806 -91 2034 -91 
Q 1263 -91 848 271 
Q 434 634 434 1313 
Q 434 1759 690 2068 
Q 947 2378 1403 2484 
z
M 1172 3481 
Q 1172 3119 1398 2916 
Q 1625 2713 2034 2713 
Q 2441 2713 2670 2916 
Q 2900 3119 2900 3481 
Q 2900 3844 2670 4047 
Q 2441 4250 2034 4250 
Q 1625 4250 1398 4047 
Q 1172 3844 1172 3481 
z
" transform="scale(0.015625)"/>
       </defs>
       <use xlink:href="#DejaVuSans-38"/>
      </g>
     </g>
    </g>
    <g id="xtick_6">
     <g id="line2d_11">
      <path d="M 813.443125 530.918125 
L 813.443125 22.318125 
" clip-path="url(#pb9d846864a)" style="fill: none; stroke: #b0b0b0; stroke-opacity: 0.3; stroke-width: 0.8; stroke-linecap: square"/>
     </g>
     <g id="line2d_12">
      <g>
       <use xlink:href="#me8c1cdeca1" x="813.443125" y="530.918125" style="stroke: #000000; stroke-width: 0.8"/>
      </g>
     </g>
     <g id="text_6">
      <!-- 10 -->
      <g transform="translate(807.080625 545.516562) scale(0.1 -0.1)">
       <defs>
        <path id="DejaVuSans-31" d="M 794 531 
L 1825 531 
L 1825 4091 
L 703 3866 
L 703 4441 
L 1819 4666 
L 2450 4666 
L 2450 531 
L 3481 531 
L 3481 0 
L 794 0 
L 794 531 
z
" transform="scale(0.015625)"/>
       </defs>
       <use xlink:href="#DejaVuSans-31"/>
       <use xlink:href="#DejaVuSans-30" x="63.623047"/>
      </g>
     </g>
    </g>
    <g id="text_7">
     <!-- Elapsed Time (seconds) -->
     <g transform="translate(398.150156 559.194687) scale(0.1 -0.1)">
      <defs>
       <path id="DejaVuSans-45" d="M 628 4666 
L 3578 4666 
L 3578 4134 
L 1259 4134 
L 1259 2753 
L 3481 2753 
L 3481 2222 
L 1259 2222 
L 1259 531 
L 3634 531 
L 3634 0 
L 628 0 
L 628 4666 
z
" transform="scale(0.015625)"/>
       <path id="DejaVuSans-6c" d="M 603 4863 
L 1178 4863 
L 1178 0 
L 603 0 
L 603 4863 
z
" transform="scale(0.015625)"/>
       <path id="DejaVuSans-61" d="M 2194 1759 
Q 1497 1759 1228 1600 
Q 959 1441 959 1056 
Q 959 750 1161 570 
Q 1363 391 1709 391 
Q 2188 391 2477 730 
Q 2766 1069 2766 1631 
L 2766 1759 
L 2194 1759 
z
M 3341 1997 
L 3341 0 
L 2766 0 
L 2766 531 
Q 2569 213 2275 61 
Q 1981 -91 1556 -91 
Q 1019 -91 701 211 
Q 384 513 384 1019 
Q 384 1609 779 1909 
Q 1175 2209 1959 2209 
L 2766 2209 
L 2766 2266 
Q 2766 2663 2505 2880 
Q 2244 3097 1772 3097 
Q 1472 3097 1187 3025 
Q 903 2953 641 2809 
L 641 3341 
Q 956 3463 1253 3523 
Q 1550 3584 1831 3584 
Q 2591 3584 2966 3190 
Q 3341 2797 3341 1997 
z
" transform="scale(0.015625)"/>
       <path id="DejaVuSans-70" d="M 1159 525 
L 1159 -1331 
L 581 -1331 
L 581 3500 
L 1159 3500 
L 1159 2969 
Q 1341 3281 1617 3432 
Q 1894 3584 2278 3584 
Q 2916 3584 3314 3078 
Q 3713 2572 3713 1747 
Q 3713 922 3314 415 
Q 2916 -91 2278 -91 
Q 1894 -91 1617 61 
Q 1341 213 1159 525 
z
M 3116 1747 
Q 3116 2381 2855 2742 
Q 2594 3103 2138 3103 
Q 1681 3103 1420 2742 
Q 1159 2381 1159 1747 
Q 1159 1113 1420 752 
Q 1681 391 2138 391 
Q 2594 391 2855 752 
Q 3116 1113 3116 1747 
z
" transform="scale(0.015625)"/>
       <path id="DejaVuSans-73" d="M 2834 3397 
L 2834 2853 
Q 2591 2978 2328 3040 
Q 2066 3103 1784 3103 
Q 1356 3103 1142 2972 
Q 928 2841 928 2578 
Q 928 2378 1081 2264 
Q 1234 2150 1697 2047 
L 1894 2003 
Q 2506 1872 2764 1633 
Q 3022 1394 3022 966 
Q 3022 478 2636 193 
Q 2250 -91 1575 -91 
Q 1294 -91 989 -36 
Q 684 19 347 128 
L 347 722 
Q 666 556 975 473 
Q 1284 391 1588 391 
Q 1994 391 2212 530 
Q 2431 669 2431 922 
Q 2431 1156 2273 1281 
Q 2116 1406 1581 1522 
L 1381 1569 
Q 847 1681 609 1914 
Q 372 2147 372 2553 
Q 372 3047 722 3315 
Q 1072 3584 1716 3584 
Q 2034 3584 2315 3537 
Q 2597 3491 2834 3397 
z
" transform="scale(0.015625)"/>
       <path id="DejaVuSans-65" d="M 3597 1894 
L 3597 1613 
L 953 1613 
Q 991 1019 1311 708 
Q 1631 397 2203 397 
Q 2534 397 2845 478 
Q 3156 559 3463 722 
L 3463 178 
Q 3153 47 2828 -22 
Q 2503 -91 2169 -91 
Q 1331 -91 842 396 
Q 353 884 353 1716 
Q 353 2575 817 3079 
Q 1281 3584 2069 3584 
Q 2775 3584 3186 3129 
Q 3597 2675 3597 1894 
z
M 3022 2063 
Q 3016 2534 2758 2815 
Q 2500 3097 2075 3097 
Q 1594 3097 1305 2825 
Q 1016 2553 972 2059 
L 3022 2063 
z
" transform="scale(0.015625)"/>
       <path id="DejaVuSans-64" d="M 2906 2969 
L 2906 4863 
L 3481 4863 
L 3481 0 
L 2906 0 
L 2906 525 
Q 2725 213 2448 61 
Q 2172 -91 1784 -91 
Q 1150 -91 751 415 
Q 353 922 353 1747 
Q 353 2572 751 3078 
Q 1150 3584 1784 3584 
Q 2172 3584 2448 3432 
Q 2725 3281 2906 2969 
z
M 947 1747 
Q 947 1113 1208 752 
Q 1469 391 1925 391 
Q 2381 391 2643 752 
Q 2906 1113 2906 1747 
Q 2906 2381 2643 2742 
Q 2381 3103 1925 3103 
Q 1469 3103 1208 2742 
Q 947 2381 947 1747 
z
" transform="scale(0.015625)"/>
       <path id="DejaVuSans-20" transform="scale(0.015625)"/>
       <path id="DejaVuSans-54" d="M -19 4666 
L 3928 4666 
L 3928 4134 
L 2272 4134 
L 2272 0 
L 1638 0 
L 1638 4134 
L -19 4134 
L -19 4666 
z
" transform="scale(0.015625)"/>
       <path id="DejaVuSans-69" d="M 603 3500 
L 1178 3500 
L 1178 0 
L 603 0 
L 603 3500 
z
M 603 4863 
L 1178 4863 
L 1178 4134 
L 603 4134 
L 603 4863 
z
" transform="scale(0.015625)"/>
       <path id="DejaVuSans-6d" d="M 3328 2828 
Q 3544 3216 3844 3400 
Q 4144 3584 4550 3584 
Q 5097 3584 5394 3201 
Q 5691 2819 5691 2113 
L 5691 0 
L 5113 0 
L 5113 2094 
Q 5113 2597 4934 2840 
Q 4756 3084 4391 3084 
Q 3944 3084 3684 2787 
Q 3425 2491 3425 1978 
L 3425 0 
L 2847 0 
L 2847 2094 
Q 2847 2600 2669 2842 
Q 2491 3084 2119 3084 
Q 1678 3084 1418 2786 
Q 1159 2488 1159 1978 
L 1159 0 
L 581 0 
L 581 3500 
L 1159 3500 
L 1159 2956 
Q 1356 3278 1631 3431 
Q 1906 3584 2284 3584 
Q 2666 3584 2933 3390 
Q 3200 3197 3328 2828 
z
" transform="scale(0.015625)"/>
       <path id="DejaVuSans-28" d="M 1984 4856 
Q 1566 4138 1362 3434 
Q 1159 2731 1159 2009 
Q 1159 1288 1364 580 
Q 1569 -128 1984 -844 
L 1484 -844 
Q 1016 -109 783 600 
Q 550 1309 550 2009 
Q 550 2706 781 3412 
Q 1013 4119 1484 4856 
L 1984 4856 
z
" transform="scale(0.015625)"/>
       <path id="DejaVuSans-63" d="M 3122 3366 
L 3122 2828 
Q 2878 2963 2633 3030 
Q 2388 3097 2138 3097 
Q 1578 3097 1268 2742 
Q 959 2388 959 1747 
Q 959 1106 1268 751 
Q 1578 397 2138 397 
Q 2388 397 2633 464 
Q 2878 531 3122 666 
L 3122 134 
Q 2881 22 2623 -34 
Q 2366 -91 2075 -91 
Q 1284 -91 818 406 
Q 353 903 353 1747 
Q 353 2603 823 3093 
Q 1294 3584 2113 3584 
Q 2378 3584 2631 3529 
Q 2884 3475 3122 3366 
z
" transform="scale(0.015625)"/>
       <path id="DejaVuSans-6f" d="M 1959 3097 
Q 1497 3097 1228 2736 
Q 959 2375 959 1747 
Q 959 1119 1226 758 
Q 1494 397 1959 397 
Q 2419 397 2687 759 
Q 2956 1122 2956 1747 
Q 2956 2369 2687 2733 
Q 2419 3097 1959 3097 
z
M 1959 3584 
Q 2709 3584 3137 3096 
Q 3566 2609 3566 1747 
Q 3566 888 3137 398 
Q 2709 -91 1959 -91 
Q 1206 -91 779 398 
Q 353 888 353 1747 
Q 353 2609 779 3096 
Q 1206 3584 1959 3584 
z
" transform="scale(0.015625)"/>
       <path id="DejaVuSans-6e" d="M 3513 2113 
L 3513 0 
L 2938 0 
L 2938 2094 
Q 2938 2591 2744 2837 
Q 2550 3084 2163 3084 
Q 1697 3084 1428 2787 
Q 1159 2491 1159 1978 
L 1159 0 
L 581 0 
L 581 3500 
L 1159 3500 
L 1159 2956 
Q 1366 3272 1645 3428 
Q 1925 3584 2291 3584 
Q 2894 3584 3203 3211 
Q 3513 2838 3513 2113 
z
" transform="scale(0.015625)"/>
       <path id="DejaVuSans-29" d="M 513 4856 
L 1013 4856 
Q 1481 4119 1714 3412 
Q 1947 2706 1947 2009 
Q 1947 1309 1714 600 
Q 1481 -109 1013 -844 
L 513 -844 
Q 928 -128 1133 580 
Q 1338 1288 1338 2009 
Q 1338 2731 1133 3434 
Q 928 4138 513 4856 
z
" transform="scale(0.015625)"/>
      </defs>
      <use xlink:href="#DejaVuSans-45"/>
      <use xlink:href="#DejaVuSans-6c" x="63.183594"/>
      <use xlink:href="#DejaVuSans-61" x="90.966797"/>
      <use xlink:href="#DejaVuSans-70" x="152.246094"/>
      <use xlink:href="#DejaVuSans-73" x="215.722656"/>
      <use xlink:href="#DejaVuSans-65" x="267.822266"/>
      <use xlink:href="#DejaVuSans-64" x="329.345703"/>
      <use xlink:href="#DejaVuSans-20" x="392.822266"/>
      <use xlink:href="#DejaVuSans-54" x="424.609375"/>
      <use xlink:href="#DejaVuSans-69" x="482.568359"/>
      <use xlink:href="#DejaVuSans-6d" x="510.351562"/>
      <use xlink:href="#DejaVuSans-65" x="607.763672"/>
      <use xlink:href="#DejaVuSans-20" x="669.287109"/>
      <use xlink:href="#DejaVuSans-28" x="701.074219"/>
      <use xlink:href="#DejaVuSans-73" x="740.087891"/>
      <use xlink:href="#DejaVuSans-65" x="792.1875"/>
      <use xlink:href="#DejaVuSans-63" x="853.710938"/>
      <use xlink:href="#DejaVuSans-6f" x="908.691406"/>
      <use xlink:href="#DejaVuSans-6e" x="969.873047"/>
      <use xlink:href="#DejaVuSans-64" x="1033.251953"/>
      <use xlink:href="#DejaVuSans-73" x="1096.728516"/>
      <use xlink:href="#DejaVuSans-29" x="1148.828125"/>
     </g>
    </g>
   </g>
   <g id="matplotlib.axis_2">
    <g id="ytick_1">
     <g id="line2d_13">
      <path d="M 66.053125 497.813494 
L 849.033125 497.813494 
" clip-path="url(#pb9d846864a)" style="fill: none; stroke: #b0b0b0; stroke-opacity: 0.3; stroke-width: 0.8; stroke-linecap: square"/>
     </g>
     <g id="line2d_14">
      <defs>
       <path id="m498d33c36f" d="M 0 0 
L -3.5 0 
" style="stroke: #000000; stroke-width: 0.8"/>
      </defs>
      <g>
       <use xlink:href="#m498d33c36f" x="66.053125" y="497.813494" style="stroke: #000000; stroke-width: 0.8"/>
      </g>
     </g>
     <g id="text_8">
      <!-- 20000 -->
      <g transform="translate(27.240625 501.612713) scale(0.1 -0.1)">
       <use xlink:href="#DejaVuSans-32"/>
       <use xlink:href="#DejaVuSans-30" x="63.623047"/>
       <use xlink:href="#DejaVuSans-30" x="127.246094"/>
       <use xlink:href="#DejaVuSans-30" x="190.869141"/>
       <use xlink:href="#DejaVuSans-30" x="254.492188"/>
      </g>
     </g>
    </g>
    <g id="ytick_2">
     <g id="line2d_15">
      <path d="M 66.053125 428.064153 
L 849.033125 428.064153 
" clip-path="url(#pb9d846864a)" style="fill: none; stroke: #b0b0b0; stroke-opacity: 0.3; stroke-width: 0.8; stroke-linecap: square"/>
     </g>
     <g id="line2d_16">
      <g>
       <use xlink:href="#m498d33c36f" x="66.053125" y="428.064153" style="stroke: #000000; stroke-width: 0.8"/>
      </g>
     </g>
     <g id="text_9">
      <!-- 40000 -->
      <g transform="translate(27.240625 431.863372) scale(0.1 -0.1)">
       <use xlink:href="#DejaVuSans-34"/>
       <use xlink:href="#DejaVuSans-30" x="63.623047"/>
       <use xlink:href="#DejaVuSans-30" x="127.246094"/>
       <use xlink:href="#DejaVuSans-30" x="190.869141"/>
       <use xlink:href="#DejaVuSans-30" x="254.492188"/>
      </g>
     </g>
    </g>
    <g id="ytick_3">
     <g id="line2d_17">
      <path d="M 66.053125 358.314812 
L 849.033125 358.314812 
" clip-path="url(#pb9d846864a)" style="fill: none; stroke: #b0b0b0; stroke-opacity: 0.3; stroke-width: 0.8; stroke-linecap: square"/>
     </g>
     <g id="line2d_18">
      <g>
       <use xlink:href="#m498d33c36f" x="66.053125" y="358.314812" style="stroke: #000000; stroke-width: 0.8"/>
      </g>
     </g>
     <g id="text_10">
      <!-- 60000 -->
      <g transform="translate(27.240625 362.11403) scale(0.1 -0.1)">
       <use xlink:href="#DejaVuSans-36"/>
       <use xlink:href="#DejaVuSans-30" x="63.623047"/>
       <use xlink:href="#DejaVuSans-30" x="127.246094"/>
       <use xlink:href="#DejaVuSans-30" x="190.869141"/>
       <use xlink:href="#DejaVuSans-30" x="254.492188"/>
      </g>
     </g>
    </g>
    <g id="ytick_4">
     <g id="line2d_19">
      <path d="M 66.053125 288.56547 
L 849.033125 288.56547 
" clip-path="url(#pb9d846864a)" style="fill: none; stroke: #b0b0b0; stroke-opacity: 0.3; stroke-width: 0.8; stroke-linecap: square"/>
     </g>
     <g id="line2d_20">
      <g>
       <use xlink:href="#m498d33c36f" x="66.053125" y="288.56547" style="stroke: #000000; stroke-width: 0.8"/>
      </g>
     </g>
     <g id="text_11">
      <!-- 80000 -->
      <g transform="translate(27.240625 292.364689) scale(0.1 -0.1)">
       <use xlink:href="#DejaVuSans-38"/>
       <use xlink:href="#DejaVuSans-30" x="63.623047"/>
       <use xlink:href="#DejaVuSans-30" x="127.246094"/>
       <use xlink:href="#DejaVuSans-30" x="190.869141"/>
       <use xlink:href="#DejaVuSans-30" x="254.492188"/>
      </g>
     </g>
    </g>
    <g id="ytick_5">
     <g id="line2d_21">
      <path d="M 66.053125 218.816129 
L 849.033125 218.816129 
" clip-path="url(#pb9d846864a)" style="fill: none; stroke: #b0b0b0; stroke-opacity: 0.3; stroke-width: 0.8; stroke-linecap: square"/>
     </g>
     <g id="line2d_22">
      <g>
       <use xlink:href="#m498d33c36f" x="66.053125" y="218.816129" style="stroke: #000000; stroke-width: 0.8"/>
      </g>
     </g>
     <g id="text_12">
      <!-- 100000 -->
      <g transform="translate(20.878125 222.615348) scale(0.1 -0.1)">
       <use xlink:href="#DejaVuSans-31"/>
       <use xlink:href="#DejaVuSans-30" x="63.623047"/>
       <use xlink:href="#DejaVuSans-30" x="127.246094"/>
       <use xlink:href="#DejaVuSans-30" x="190.869141"/>
       <use xlink:href="#DejaVuSans-30" x="254.492188"/>
       <use xlink:href="#DejaVuSans-30" x="318.115234"/>
      </g>
     </g>
    </g>
    <g id="ytick_6">
     <g id="line2d_23">
      <path d="M 66.053125 149.066788 
L 849.033125 149.066788 
" clip-path="url(#pb9d846864a)" style="fill: none; stroke: #b0b0b0; stroke-opacity: 0.3; stroke-width: 0.8; stroke-linecap: square"/>
     </g>
     <g id="line2d_24">
      <g>
       <use xlink:href="#m498d33c36f" x="66.053125" y="149.066788" style="stroke: #000000; stroke-width: 0.8"/>
      </g>
     </g>
     <g id="text_13">
      <!-- 120000 -->
      <g transform="translate(20.878125 152.866007) scale(0.1 -0.1)">
       <use xlink:href="#DejaVuSans-31"/>
       <use xlink:href="#DejaVuSans-32" x="63.623047"/>
       <use xlink:href="#DejaVuSans-30" x="127.246094"/>
       <use xlink:href="#DejaVuSans-30" x="190.869141"/>
       <use xlink:href="#DejaVuSans-30" x="254.492188"/>
       <use xlink:href="#DejaVuSans-30" x="318.115234"/>
      </g>
     </g>
    </g>
    <g id="ytick_7">
     <g id="line2d_25">
      <path d="M 66.053125 79.317447 
L 849.033125 79.317447 
" clip-path="url(#pb9d846864a)" style="fill: none; stroke: #b0b0b0; stroke-opacity: 0.3; stroke-width: 0.8; stroke-linecap: square"/>
     </g>
     <g id="line2d_26">
      <g>
       <use xlink:href="#m498d33c36f" x="66.053125" y="79.317447" style="stroke: #000000; stroke-width: 0.8"/>
      </g>
     </g>
     <g id="text_14">
      <!-- 140000 -->
      <g transform="translate(20.878125 83.116666) scale(0.1 -0.1)">
       <use xlink:href="#DejaVuSans-31"/>
       <use xlink:href="#DejaVuSans-34" x="63.623047"/>
       <use xlink:href="#DejaVuSans-30" x="127.246094"/>
       <use xlink:href="#DejaVuSans-30" x="190.869141"/>
       <use xlink:href="#DejaVuSans-30" x="254.492188"/>
       <use xlink:href="#DejaVuSans-30" x="318.115234"/>
      </g>
     </g>
    </g>
    <g id="text_15">
     <!-- Requests Per Second (RPS) -->
     <g transform="translate(14.798438 344.232969) rotate(-90) scale(0.1 -0.1)">
      <defs>
       <path id="DejaVuSans-52" d="M 2841 2188 
Q 3044 2119 3236 1894 
Q 3428 1669 3622 1275 
L 4263 0 
L 3584 0 
L 2988 1197 
Q 2756 1666 2539 1819 
Q 2322 1972 1947 1972 
L 1259 1972 
L 1259 0 
L 628 0 
L 628 4666 
L 2053 4666 
Q 2853 4666 3247 4331 
Q 3641 3997 3641 3322 
Q 3641 2881 3436 2590 
Q 3231 2300 2841 2188 
z
M 1259 4147 
L 1259 2491 
L 2053 2491 
Q 2509 2491 2742 2702 
Q 2975 2913 2975 3322 
Q 2975 3731 2742 3939 
Q 2509 4147 2053 4147 
L 1259 4147 
z
" transform="scale(0.015625)"/>
       <path id="DejaVuSans-71" d="M 947 1747 
Q 947 1113 1208 752 
Q 1469 391 1925 391 
Q 2381 391 2643 752 
Q 2906 1113 2906 1747 
Q 2906 2381 2643 2742 
Q 2381 3103 1925 3103 
Q 1469 3103 1208 2742 
Q 947 2381 947 1747 
z
M 2906 525 
Q 2725 213 2448 61 
Q 2172 -91 1784 -91 
Q 1150 -91 751 415 
Q 353 922 353 1747 
Q 353 2572 751 3078 
Q 1150 3584 1784 3584 
Q 2172 3584 2448 3432 
Q 2725 3281 2906 2969 
L 2906 3500 
L 3481 3500 
L 3481 -1331 
L 2906 -1331 
L 2906 525 
z
" transform="scale(0.015625)"/>
       <path id="DejaVuSans-75" d="M 544 1381 
L 544 3500 
L 1119 3500 
L 1119 1403 
Q 1119 906 1312 657 
Q 1506 409 1894 409 
Q 2359 409 2629 706 
Q 2900 1003 2900 1516 
L 2900 3500 
L 3475 3500 
L 3475 0 
L 2900 0 
L 2900 538 
Q 2691 219 2414 64 
Q 2138 -91 1772 -91 
Q 1169 -91 856 284 
Q 544 659 544 1381 
z
M 1991 3584 
L 1991 3584 
z
" transform="scale(0.015625)"/>
       <path id="DejaVuSans-74" d="M 1172 4494 
L 1172 3500 
L 2356 3500 
L 2356 3053 
L 1172 3053 
L 1172 1153 
Q 1172 725 1289 603 
Q 1406 481 1766 481 
L 2356 481 
L 2356 0 
L 1766 0 
Q 1100 0 847 248 
Q 594 497 594 1153 
L 594 3053 
L 172 3053 
L 172 3500 
L 594 3500 
L 594 4494 
L 1172 4494 
z
" transform="scale(0.015625)"/>
       <path id="DejaVuSans-50" d="M 1259 4147 
L 1259 2394 
L 2053 2394 
Q 2494 2394 2734 2622 
Q 2975 2850 2975 3272 
Q 2975 3691 2734 3919 
Q 2494 4147 2053 4147 
L 1259 4147 
z
M 628 4666 
L 2053 4666 
Q 2838 4666 3239 4311 
Q 3641 3956 3641 3272 
Q 3641 2581 3239 2228 
Q 2838 1875 2053 1875 
L 1259 1875 
L 1259 0 
L 628 0 
L 628 4666 
z
" transform="scale(0.015625)"/>
       <path id="DejaVuSans-72" d="M 2631 2963 
Q 2534 3019 2420 3045 
Q 2306 3072 2169 3072 
Q 1681 3072 1420 2755 
Q 1159 2438 1159 1844 
L 1159 0 
L 581 0 
L 581 3500 
L 1159 3500 
L 1159 2956 
Q 1341 3275 1631 3429 
Q 1922 3584 2338 3584 
Q 2397 3584 2469 3576 
Q 2541 3569 2628 3553 
L 2631 2963 
z
" transform="scale(0.015625)"/>
       <path id="DejaVuSans-53" d="M 3425 4513 
L 3425 3897 
Q 3066 4069 2747 4153 
Q 2428 4238 2131 4238 
Q 1616 4238 1336 4038 
Q 1056 3838 1056 3469 
Q 1056 3159 1242 3001 
Q 1428 2844 1947 2747 
L 2328 2669 
Q 3034 2534 3370 2195 
Q 3706 1856 3706 1288 
Q 3706 609 3251 259 
Q 2797 -91 1919 -91 
Q 1588 -91 1214 -16 
Q 841 59 441 206 
L 441 856 
Q 825 641 1194 531 
Q 1563 422 1919 422 
Q 2459 422 2753 634 
Q 3047 847 3047 1241 
Q 3047 1584 2836 1778 
Q 2625 1972 2144 2069 
L 1759 2144 
Q 1053 2284 737 2584 
Q 422 2884 422 3419 
Q 422 4038 858 4394 
Q 1294 4750 2059 4750 
Q 2388 4750 2728 4690 
Q 3069 4631 3425 4513 
z
" transform="scale(0.015625)"/>
      </defs>
      <use xlink:href="#DejaVuSans-52"/>
      <use xlink:href="#DejaVuSans-65" x="64.982422"/>
      <use xlink:href="#DejaVuSans-71" x="126.505859"/>
      <use xlink:href="#DejaVuSans-75" x="189.982422"/>
      <use xlink:href="#DejaVuSans-65" x="253.361328"/>
      <use xlink:href="#DejaVuSans-73" x="314.884766"/>
      <use xlink:href="#DejaVuSans-74" x="366.984375"/>
      <use xlink:href="#DejaVuSans-73" x="406.193359"/>
      <use xlink:href="#DejaVuSans-20" x="458.292969"/>
      <use xlink:href="#DejaVuSans-50" x="490.080078"/>
      <use xlink:href="#DejaVuSans-65" x="546.757812"/>
      <use xlink:href="#DejaVuSans-72" x="608.28125"/>
      <use xlink:href="#DejaVuSans-20" x="649.394531"/>
      <use xlink:href="#DejaVuSans-53" x="681.181641"/>
      <use xlink:href="#DejaVuSans-65" x="744.658203"/>
      <use xlink:href="#DejaVuSans-63" x="806.181641"/>
      <use xlink:href="#DejaVuSans-6f" x="861.162109"/>
      <use xlink:href="#DejaVuSans-6e" x="922.34375"/>
      <use xlink:href="#DejaVuSans-64" x="985.722656"/>
      <use xlink:href="#DejaVuSans-20" x="1049.199219"/>
      <use xlink:href="#DejaVuSans-28" x="1080.986328"/>
      <use xlink:href="#DejaVuSans-52" x="1120"/>
      <use xlink:href="#DejaVuSans-50" x="1189.482422"/>
      <use xlink:href="#DejaVuSans-53" x="1249.785156"/>
      <use xlink:href="#DejaVuSans-29" x="1313.261719"/>
     </g>
    </g>
   </g>
   <g id="line2d_27">
    <path d="M 108.833024 52.722232 
L 123.212822 48.006099 
L 137.59262 46.101496 
L 151.972418 45.436307 
L 166.352216 45.717895 
L 180.732014 47.092135 
L 195.111812 47.385159 
L 209.49161 48.043171 
L 223.871408 48.586529 
L 238.251206 48.875504 
L 252.631004 49.081062 
L 267.010802 49.710811 
L 281.3906 50.088358 
L 295.770398 49.456788 
L 310.150196 49.159802 
L 324.529994 48.619095 
L 338.909792 48.836221 
L 353.28959 48.703523 
L 367.669388 48.637889 
L 382.049186 48.5708 
L 396.428984 48.469235 
L 410.808782 48.480053 
L 425.18858 49.26654 
L 439.568378 48.815913 
L 453.948176 48.838087 
L 468.327973 48.669736 
L 482.707771 48.772728 
L 497.087569 49.33677 
L 511.467367 49.213509 
L 525.847165 49.499813 
L 540.226963 49.603401 
L 554.606761 49.426918 
L 568.986559 49.376873 
L 583.366357 48.976027 
L 597.746155 48.934264 
L 612.125953 48.861414 
L 626.505751 48.761192 
L 640.885549 48.937787 
L 655.265347 48.928806 
L 669.645145 49.016007 
L 684.024943 49.083022 
L 698.404741 49.291984 
L 712.784539 49.263059 
L 727.164337 49.09029 
L 741.544135 49.017381 
L 755.923933 48.831237 
L 770.303731 48.843499 
L 784.683529 48.793496 
L 799.063327 48.693106 
L 813.443125 48.674336 
" clip-path="url(#pb9d846864a)" style="fill: none; stroke: #2ca02c; stroke-width: 2; stroke-linecap: square"/>
    <defs>
     <path id="mffd4efafa5" d="M 0 2 
C 0.530406 2 1.03916 1.789267 1.414214 1.414214 
C 1.789267 1.03916 2 0.530406 2 0 
C 2 -0.530406 1.789267 -1.03916 1.414214 -1.414214 
C 1.03916 -1.789267 0.530406 -2 0 -2 
C -0.530406 -2 -1.03916 -1.789267 -1.414214 -1.414214 
C -1.789267 -1.03916 -2 -0.530406 -2 0 
C -2 0.530406 -1.789267 1.03916 -1.414214 1.414214 
C -1.03916 1.789267 -0.530406 2 0 2 
z
" style="stroke: #2ca02c"/>
    </defs>
    <g clip-path="url(#pb9d846864a)">
     <use xlink:href="#mffd4efafa5" x="108.833024" y="52.722232" style="fill: #2ca02c; stroke: #2ca02c"/>
     <use xlink:href="#mffd4efafa5" x="123.212822" y="48.006099" style="fill: #2ca02c; stroke: #2ca02c"/>
     <use xlink:href="#mffd4efafa5" x="137.59262" y="46.101496" style="fill: #2ca02c; stroke: #2ca02c"/>
     <use xlink:href="#mffd4efafa5" x="151.972418" y="45.436307" style="fill: #2ca02c; stroke: #2ca02c"/>
     <use xlink:href="#mffd4efafa5" x="166.352216" y="45.717895" style="fill: #2ca02c; stroke: #2ca02c"/>
     <use xlink:href="#mffd4efafa5" x="180.732014" y="47.092135" style="fill: #2ca02c; stroke: #2ca02c"/>
     <use xlink:href="#mffd4efafa5" x="195.111812" y="47.385159" style="fill: #2ca02c; stroke: #2ca02c"/>
     <use xlink:href="#mffd4efafa5" x="209.49161" y="48.043171" style="fill: #2ca02c; stroke: #2ca02c"/>
     <use xlink:href="#mffd4efafa5" x="223.871408" y="48.586529" style="fill: #2ca02c; stroke: #2ca02c"/>
     <use xlink:href="#mffd4efafa5" x="238.251206" y="48.875504" style="fill: #2ca02c; stroke: #2ca02c"/>
     <use xlink:href="#mffd4efafa5" x="252.631004" y="49.081062" style="fill: #2ca02c; stroke: #2ca02c"/>
     <use xlink:href="#mffd4efafa5" x="267.010802" y="49.710811" style="fill: #2ca02c; stroke: #2ca02c"/>
     <use xlink:href="#mffd4efafa5" x="281.3906" y="50.088358" style="fill: #2ca02c; stroke: #2ca02c"/>
     <use xlink:href="#mffd4efafa5" x="295.770398" y="49.456788" style="fill: #2ca02c; stroke: #2ca02c"/>
     <use xlink:href="#mffd4efafa5" x="310.150196" y="49.159802" style="fill: #2ca02c; stroke: #2ca02c"/>
     <use xlink:href="#mffd4efafa5" x="324.529994" y="48.619095" style="fill: #2ca02c; stroke: #2ca02c"/>
     <use xlink:href="#mffd4efafa5" x="338.909792" y="48.836221" style="fill: #2ca02c; stroke: #2ca02c"/>
     <use xlink:href="#mffd4efafa5" x="353.28959" y="48.703523" style="fill: #2ca02c; stroke: #2ca02c"/>
     <use xlink:href="#mffd4efafa5" x="367.669388" y="48.637889" style="fill: #2ca02c; stroke: #2ca02c"/>
     <use xlink:href="#mffd4efafa5" x="382.049186" y="48.5708" style="fill: #2ca02c; stroke: #2ca02c"/>
     <use xlink:href="#mffd4efafa5" x="396.428984" y="48.469235" style="fill: #2ca02c; stroke: #2ca02c"/>
     <use xlink:href="#mffd4efafa5" x="410.808782" y="48.480053" style="fill: #2ca02c; stroke: #2ca02c"/>
     <use xlink:href="#mffd4efafa5" x="425.18858" y="49.26654" style="fill: #2ca02c; stroke: #2ca02c"/>
     <use xlink:href="#mffd4efafa5" x="439.568378" y="48.815913" style="fill: #2ca02c; stroke: #2ca02c"/>
     <use xlink:href="#mffd4efafa5" x="453.948176" y="48.838087" style="fill: #2ca02c; stroke: #2ca02c"/>
     <use xlink:href="#mffd4efafa5" x="468.327973" y="48.669736" style="fill: #2ca02c; stroke: #2ca02c"/>
     <use xlink:href="#mffd4efafa5" x="482.707771" y="48.772728" style="fill: #2ca02c; stroke: #2ca02c"/>
     <use xlink:href="#mffd4efafa5" x="497.087569" y="49.33677" style="fill: #2ca02c; stroke: #2ca02c"/>
     <use xlink:href="#mffd4efafa5" x="511.467367" y="49.213509" style="fill: #2ca02c; stroke: #2ca02c"/>
     <use xlink:href="#mffd4efafa5" x="525.847165" y="49.499813" style="fill: #2ca02c; stroke: #2ca02c"/>
     <use xlink:href="#mffd4efafa5" x="540.226963" y="49.603401" style="fill: #2ca02c; stroke: #2ca02c"/>
     <use xlink:href="#mffd4efafa5" x="554.606761" y="49.426918" style="fill: #2ca02c; stroke: #2ca02c"/>
     <use xlink:href="#mffd4efafa5" x="568.986559" y="49.376873" style="fill: #2ca02c; stroke: #2ca02c"/>
     <use xlink:href="#mffd4efafa5" x="583.366357" y="48.976027" style="fill: #2ca02c; stroke: #2ca02c"/>
     <use xlink:href="#mffd4efafa5" x="597.746155" y="48.934264" style="fill: #2ca02c; stroke: #2ca02c"/>
     <use xlink:href="#mffd4efafa5" x="612.125953" y="48.861414" style="fill: #2ca02c; stroke: #2ca02c"/>
     <use xlink:href="#mffd4efafa5" x="626.505751" y="48.761192" style="fill: #2ca02c; stroke: #2ca02c"/>
     <use xlink:href="#mffd4efafa5" x="640.885549" y="48.937787" style="fill: #2ca02c; stroke: #2ca02c"/>
     <use xlink:href="#mffd4efafa5" x="655.265347" y="48.928806" style="fill: #2ca02c; stroke: #2ca02c"/>
     <use xlink:href="#mffd4efafa5" x="669.645145" y="49.016007" style="fill: #2ca02c; stroke: #2ca02c"/>
     <use xlink:href="#mffd4efafa5" x="684.024943" y="49.083022" style="fill: #2ca02c; stroke: #2ca02c"/>
     <use xlink:href="#mffd4efafa5" x="698.404741" y="49.291984" style="fill: #2ca02c; stroke: #2ca02c"/>
     <use xlink:href="#mffd4efafa5" x="712.784539" y="49.263059" style="fill: #2ca02c; stroke: #2ca02c"/>
     <use xlink:href="#mffd4efafa5" x="727.164337" y="49.09029" style="fill: #2ca02c; stroke: #2ca02c"/>
     <use xlink:href="#mffd4efafa5" x="741.544135" y="49.017381" style="fill: #2ca02c; stroke: #2ca02c"/>
     <use xlink:href="#mffd4efafa5" x="755.923933" y="48.831237" style="fill: #2ca02c; stroke: #2ca02c"/>
     <use xlink:href="#mffd4efafa5" x="770.303731" y="48.843499" style="fill: #2ca02c; stroke: #2ca02c"/>
     <use xlink:href="#mffd4efafa5" x="784.683529" y="48.793496" style="fill: #2ca02c; stroke: #2ca02c"/>
     <use xlink:href="#mffd4efafa5" x="799.063327" y="48.693106" style="fill: #2ca02c; stroke: #2ca02c"/>
     <use xlink:href="#mffd4efafa5" x="813.443125" y="48.674336" style="fill: #2ca02c; stroke: #2ca02c"/>
    </g>
   </g>
   <g id="line2d_28">
    <path d="M 108.833024 507.799943 
L 123.212822 502.43233 
L 137.59262 499.996558 
L 151.972418 498.041777 
L 166.352216 496.0687 
L 180.732014 495.430316 
L 195.111812 492.98601 
L 209.49161 491.599877 
L 223.871408 489.948555 
L 238.251206 487.431957 
L 252.631004 485.014741 
L 267.010802 482.759058 
L 281.3906 480.974538 
L 295.770398 479.330466 
L 310.150196 477.778041 
L 324.529994 476.250384 
L 338.909792 475.140958 
L 353.28959 474.27418 
L 367.669388 473.317191 
L 382.049186 472.374825 
L 396.428984 471.539632 
L 410.808782 471.07483 
L 425.18858 470.304263 
L 439.568378 469.614202 
L 453.948176 469.306105 
L 468.327973 468.854513 
L 482.707771 468.304473 
L 497.087569 467.756121 
L 511.467367 467.254233 
L 525.847165 467.206897 
L 540.226963 466.81258 
L 554.606761 466.434678 
L 568.986559 466.065212 
L 583.366357 465.874165 
L 597.746155 465.543313 
L 612.125953 465.259084 
L 626.505751 465.067148 
L 640.885549 464.890672 
L 655.265347 464.666588 
L 669.645145 464.374174 
L 684.024943 464.202776 
L 698.404741 464.070353 
L 712.784539 463.821083 
L 727.164337 463.610203 
L 741.544135 463.48026 
L 755.923933 463.29978 
L 770.303731 463.107101 
L 784.683529 462.896493 
L 799.063327 462.805041 
L 813.443125 462.643069 
L 813.443125 462.653727 
" clip-path="url(#pb9d846864a)" style="fill: none; stroke: #1f77b4; stroke-width: 2; stroke-linecap: square"/>
    <defs>
     <path id="md2ef070bac" d="M 0 2 
C 0.530406 2 1.03916 1.789267 1.414214 1.414214 
C 1.789267 1.03916 2 0.530406 2 0 
C 2 -0.530406 1.789267 -1.03916 1.414214 -1.414214 
C 1.03916 -1.789267 0.530406 -2 0 -2 
C -0.530406 -2 -1.03916 -1.789267 -1.414214 -1.414214 
C -1.789267 -1.03916 -2 -0.530406 -2 0 
C -2 0.530406 -1.789267 1.03916 -1.414214 1.414214 
C -1.03916 1.789267 -0.530406 2 0 2 
z
" style="stroke: #1f77b4"/>
    </defs>
    <g clip-path="url(#pb9d846864a)">
     <use xlink:href="#md2ef070bac" x="108.833024" y="507.799943" style="fill: #1f77b4; stroke: #1f77b4"/>
     <use xlink:href="#md2ef070bac" x="123.212822" y="502.43233" style="fill: #1f77b4; stroke: #1f77b4"/>
     <use xlink:href="#md2ef070bac" x="137.59262" y="499.996558" style="fill: #1f77b4; stroke: #1f77b4"/>
     <use xlink:href="#md2ef070bac" x="151.972418" y="498.041777" style="fill: #1f77b4; stroke: #1f77b4"/>
     <use xlink:href="#md2ef070bac" x="166.352216" y="496.0687" style="fill: #1f77b4; stroke: #1f77b4"/>
     <use xlink:href="#md2ef070bac" x="180.732014" y="495.430316" style="fill: #1f77b4; stroke: #1f77b4"/>
     <use xlink:href="#md2ef070bac" x="195.111812" y="492.98601" style="fill: #1f77b4; stroke: #1f77b4"/>
     <use xlink:href="#md2ef070bac" x="209.49161" y="491.599877" style="fill: #1f77b4; stroke: #1f77b4"/>
     <use xlink:href="#md2ef070bac" x="223.871408" y="489.948555" style="fill: #1f77b4; stroke: #1f77b4"/>
     <use xlink:href="#md2ef070bac" x="238.251206" y="487.431957" style="fill: #1f77b4; stroke: #1f77b4"/>
     <use xlink:href="#md2ef070bac" x="252.631004" y="485.014741" style="fill: #1f77b4; stroke: #1f77b4"/>
     <use xlink:href="#md2ef070bac" x="267.010802" y="482.759058" style="fill: #1f77b4; stroke: #1f77b4"/>
     <use xlink:href="#md2ef070bac" x="281.3906" y="480.974538" style="fill: #1f77b4; stroke: #1f77b4"/>
     <use xlink:href="#md2ef070bac" x="295.770398" y="479.330466" style="fill: #1f77b4; stroke: #1f77b4"/>
     <use xlink:href="#md2ef070bac" x="310.150196" y="477.778041" style="fill: #1f77b4; stroke: #1f77b4"/>
     <use xlink:href="#md2ef070bac" x="324.529994" y="476.250384" style="fill: #1f77b4; stroke: #1f77b4"/>
     <use xlink:href="#md2ef070bac" x="338.909792" y="475.140958" style="fill: #1f77b4; stroke: #1f77b4"/>
     <use xlink:href="#md2ef070bac" x="353.28959" y="474.27418" style="fill: #1f77b4; stroke: #1f77b4"/>
     <use xlink:href="#md2ef070bac" x="367.669388" y="473.317191" style="fill: #1f77b4; stroke: #1f77b4"/>
     <use xlink:href="#md2ef070bac" x="382.049186" y="472.374825" style="fill: #1f77b4; stroke: #1f77b4"/>
     <use xlink:href="#md2ef070bac" x="396.428984" y="471.539632" style="fill: #1f77b4; stroke: #1f77b4"/>
     <use xlink:href="#md2ef070bac" x="410.808782" y="471.07483" style="fill: #1f77b4; stroke: #1f77b4"/>
     <use xlink:href="#md2ef070bac" x="425.18858" y="470.304263" style="fill: #1f77b4; stroke: #1f77b4"/>
     <use xlink:href="#md2ef070bac" x="439.568378" y="469.614202" style="fill: #1f77b4; stroke: #1f77b4"/>
     <use xlink:href="#md2ef070bac" x="453.948176" y="469.306105" style="fill: #1f77b4; stroke: #1f77b4"/>
     <use xlink:href="#md2ef070bac" x="468.327973" y="468.854513" style="fill: #1f77b4; stroke: #1f77b4"/>
     <use xlink:href="#md2ef070bac" x="482.707771" y="468.304473" style="fill: #1f77b4; stroke: #1f77b4"/>
     <use xlink:href="#md2ef070bac" x="497.087569" y="467.756121" style="fill: #1f77b4; stroke: #1f77b4"/>
     <use xlink:href="#md2ef070bac" x="511.467367" y="467.254233" style="fill: #1f77b4; stroke: #1f77b4"/>
     <use xlink:href="#md2ef070bac" x="525.847165" y="467.206897" style="fill: #1f77b4; stroke: #1f77b4"/>
     <use xlink:href="#md2ef070bac" x="540.226963" y="466.81258" style="fill: #1f77b4; stroke: #1f77b4"/>
     <use xlink:href="#md2ef070bac" x="554.606761" y="466.434678" style="fill: #1f77b4; stroke: #1f77b4"/>
     <use xlink:href="#md2ef070bac" x="568.986559" y="466.065212" style="fill: #1f77b4; stroke: #1f77b4"/>
     <use xlink:href="#md2ef070bac" x="583.366357" y="465.874165" style="fill: #1f77b4; stroke: #1f77b4"/>
     <use xlink:href="#md2ef070bac" x="597.746155" y="465.543313" style="fill: #1f77b4; stroke: #1f77b4"/>
     <use xlink:href="#md2ef070bac" x="612.125953" y="465.259084" style="fill: #1f77b4; stroke: #1f77b4"/>
     <use xlink:href="#md2ef070bac" x="626.505751" y="465.067148" style="fill: #1f77b4; stroke: #1f77b4"/>
     <use xlink:href="#md2ef070bac" x="640.885549" y="464.890672" style="fill: #1f77b4; stroke: #1f77b4"/>
     <use xlink:href="#md2ef070bac" x="655.265347" y="464.666588" style="fill: #1f77b4; stroke: #1f77b4"/>
     <use xlink:href="#md2ef070bac" x="669.645145" y="464.374174" style="fill: #1f77b4; stroke: #1f77b4"/>
     <use xlink:href="#md2ef070bac" x="684.024943" y="464.202776" style="fill: #1f77b4; stroke: #1f77b4"/>
     <use xlink:href="#md2ef070bac" x="698.404741" y="464.070353" style="fill: #1f77b4; stroke: #1f77b4"/>
     <use xlink:href="#md2ef070bac" x="712.784539" y="463.821083" style="fill: #1f77b4; stroke: #1f77b4"/>
     <use xlink:href="#md2ef070bac" x="727.164337" y="463.610203" style="fill: #1f77b4; stroke: #1f77b4"/>
     <use xlink:href="#md2ef070bac" x="741.544135" y="463.48026" style="fill: #1f77b4; stroke: #1f77b4"/>
     <use xlink:href="#md2ef070bac" x="755.923933" y="463.29978" style="fill: #1f77b4; stroke: #1f77b4"/>
     <use xlink:href="#md2ef070bac" x="770.303731" y="463.107101" style="fill: #1f77b4; stroke: #1f77b4"/>
     <use xlink:href="#md2ef070bac" x="784.683529" y="462.896493" style="fill: #1f77b4; stroke: #1f77b4"/>
     <use xlink:href="#md2ef070bac" x="799.063327" y="462.805041" style="fill: #1f77b4; stroke: #1f77b4"/>
     <use xlink:href="#md2ef070bac" x="813.443125" y="462.643069" style="fill: #1f77b4; stroke: #1f77b4"/>
     <use xlink:href="#md2ef070bac" x="813.443125" y="462.653727" style="fill: #1f77b4; stroke: #1f77b4"/>
    </g>
   </g>
   <g id="line2d_29">
    <path d="M 101.643125 477.184391 
L 116.022923 476.822643 
L 130.402721 477.001271 
L 151.972418 477.201235 
L 166.352216 487.046874 
L 173.542115 489.056565 
L 187.921913 487.293647 
L 202.301711 486.722902 
L 223.871408 485.740326 
L 238.251206 489.634868 
L 252.631004 490.430477 
L 267.010802 489.477325 
L 281.3906 488.645975 
L 295.770398 487.892951 
L 310.150196 490.019919 
L 317.340095 490.833984 
L 331.719893 490.100626 
L 353.28959 489.454949 
L 367.669388 488.852713 
L 382.049186 489.277545 
L 396.428984 489.937343 
L 410.808782 489.384168 
L 417.998681 488.956513 
L 439.568378 488.541578 
L 453.948176 489.501943 
L 468.327973 489.958135 
L 475.517872 489.521462 
L 497.087569 489.104361 
L 511.467367 488.725828 
L 525.847165 489.911933 
L 540.226963 490.308681 
L 547.416862 489.967527 
L 568.986559 489.622456 
L 576.176458 489.264896 
L 597.746155 489.951366 
L 604.936054 490.204783 
L 626.505751 489.858917 
L 633.69565 489.550823 
L 655.265347 489.349262 
L 669.645145 490.451172 
L 684.024943 490.647346 
L 691.214842 490.333533 
L 705.59464 490.04046 
L 727.164337 489.795068 
L 741.544135 490.557114 
L 748.734034 490.76494 
L 770.303731 490.518571 
L 777.49363 490.271773 
L 791.873428 490.020623 
L 813.443125 490.53732 
L 813.443125 490.54449 
" clip-path="url(#pb9d846864a)" style="fill: none; stroke: #ff7f0e; stroke-width: 2; stroke-linecap: square"/>
    <defs>
     <path id="md2fce21f02" d="M 0 2 
C 0.530406 2 1.03916 1.789267 1.414214 1.414214 
C 1.789267 1.03916 2 0.530406 2 0 
C 2 -0.530406 1.789267 -1.03916 1.414214 -1.414214 
C 1.03916 -1.789267 0.530406 -2 0 -2 
C -0.530406 -2 -1.03916 -1.789267 -1.414214 -1.414214 
C -1.789267 -1.03916 -2 -0.530406 -2 0 
C -2 0.530406 -1.789267 1.03916 -1.414214 1.414214 
C -1.03916 1.789267 -0.530406 2 0 2 
z
" style="stroke: #ff7f0e"/>
    </defs>
    <g clip-path="url(#pb9d846864a)">
     <use xlink:href="#md2fce21f02" x="101.643125" y="477.184391" style="fill: #ff7f0e; stroke: #ff7f0e"/>
     <use xlink:href="#md2fce21f02" x="116.022923" y="476.822643" style="fill: #ff7f0e; stroke: #ff7f0e"/>
     <use xlink:href="#md2fce21f02" x="130.402721" y="477.001271" style="fill: #ff7f0e; stroke: #ff7f0e"/>
     <use xlink:href="#md2fce21f02" x="151.972418" y="477.201235" style="fill: #ff7f0e; stroke: #ff7f0e"/>
     <use xlink:href="#md2fce21f02" x="166.352216" y="487.046874" style="fill: #ff7f0e; stroke: #ff7f0e"/>
     <use xlink:href="#md2fce21f02" x="173.542115" y="489.056565" style="fill: #ff7f0e; stroke: #ff7f0e"/>
     <use xlink:href="#md2fce21f02" x="187.921913" y="487.293647" style="fill: #ff7f0e; stroke: #ff7f0e"/>
     <use xlink:href="#md2fce21f02" x="202.301711" y="486.722902" style="fill: #ff7f0e; stroke: #ff7f0e"/>
     <use xlink:href="#md2fce21f02" x="223.871408" y="485.740326" style="fill: #ff7f0e; stroke: #ff7f0e"/>
     <use xlink:href="#md2fce21f02" x="238.251206" y="489.634868" style="fill: #ff7f0e; stroke: #ff7f0e"/>
     <use xlink:href="#md2fce21f02" x="252.631004" y="490.430477" style="fill: #ff7f0e; stroke: #ff7f0e"/>
     <use xlink:href="#md2fce21f02" x="267.010802" y="489.477325" style="fill: #ff7f0e; stroke: #ff7f0e"/>
     <use xlink:href="#md2fce21f02" x="281.3906" y="488.645975" style="fill: #ff7f0e; stroke: #ff7f0e"/>
     <use xlink:href="#md2fce21f02" x="295.770398" y="487.892951" style="fill: #ff7f0e; stroke: #ff7f0e"/>
     <use xlink:href="#md2fce21f02" x="310.150196" y="490.019919" style="fill: #ff7f0e; stroke: #ff7f0e"/>
     <use xlink:href="#md2fce21f02" x="317.340095" y="490.833984" style="fill: #ff7f0e; stroke: #ff7f0e"/>
     <use xlink:href="#md2fce21f02" x="331.719893" y="490.100626" style="fill: #ff7f0e; stroke: #ff7f0e"/>
     <use xlink:href="#md2fce21f02" x="353.28959" y="489.454949" style="fill: #ff7f0e; stroke: #ff7f0e"/>
     <use xlink:href="#md2fce21f02" x="367.669388" y="488.852713" style="fill: #ff7f0e; stroke: #ff7f0e"/>
     <use xlink:href="#md2fce21f02" x="382.049186" y="489.277545" style="fill: #ff7f0e; stroke: #ff7f0e"/>
     <use xlink:href="#md2fce21f02" x="396.428984" y="489.937343" style="fill: #ff7f0e; stroke: #ff7f0e"/>
     <use xlink:href="#md2fce21f02" x="410.808782" y="489.384168" style="fill: #ff7f0e; stroke: #ff7f0e"/>
     <use xlink:href="#md2fce21f02" x="417.998681" y="488.956513" style="fill: #ff7f0e; stroke: #ff7f0e"/>
     <use xlink:href="#md2fce21f02" x="439.568378" y="488.541578" style="fill: #ff7f0e; stroke: #ff7f0e"/>
     <use xlink:href="#md2fce21f02" x="453.948176" y="489.501943" style="fill: #ff7f0e; stroke: #ff7f0e"/>
     <use xlink:href="#md2fce21f02" x="468.327973" y="489.958135" style="fill: #ff7f0e; stroke: #ff7f0e"/>
     <use xlink:href="#md2fce21f02" x="475.517872" y="489.521462" style="fill: #ff7f0e; stroke: #ff7f0e"/>
     <use xlink:href="#md2fce21f02" x="497.087569" y="489.104361" style="fill: #ff7f0e; stroke: #ff7f0e"/>
     <use xlink:href="#md2fce21f02" x="511.467367" y="488.725828" style="fill: #ff7f0e; stroke: #ff7f0e"/>
     <use xlink:href="#md2fce21f02" x="525.847165" y="489.911933" style="fill: #ff7f0e; stroke: #ff7f0e"/>
     <use xlink:href="#md2fce21f02" x="540.226963" y="490.308681" style="fill: #ff7f0e; stroke: #ff7f0e"/>
     <use xlink:href="#md2fce21f02" x="547.416862" y="489.967527" style="fill: #ff7f0e; stroke: #ff7f0e"/>
     <use xlink:href="#md2fce21f02" x="568.986559" y="489.622456" style="fill: #ff7f0e; stroke: #ff7f0e"/>
     <use xlink:href="#md2fce21f02" x="576.176458" y="489.264896" style="fill: #ff7f0e; stroke: #ff7f0e"/>
     <use xlink:href="#md2fce21f02" x="597.746155" y="489.951366" style="fill: #ff7f0e; stroke: #ff7f0e"/>
     <use xlink:href="#md2fce21f02" x="604.936054" y="490.204783" style="fill: #ff7f0e; stroke: #ff7f0e"/>
     <use xlink:href="#md2fce21f02" x="626.505751" y="489.858917" style="fill: #ff7f0e; stroke: #ff7f0e"/>
     <use xlink:href="#md2fce21f02" x="633.69565" y="489.550823" style="fill: #ff7f0e; stroke: #ff7f0e"/>
     <use xlink:href="#md2fce21f02" x="655.265347" y="489.349262" style="fill: #ff7f0e; stroke: #ff7f0e"/>
     <use xlink:href="#md2fce21f02" x="669.645145" y="490.451172" style="fill: #ff7f0e; stroke: #ff7f0e"/>
     <use xlink:href="#md2fce21f02" x="684.024943" y="490.647346" style="fill: #ff7f0e; stroke: #ff7f0e"/>
     <use xlink:href="#md2fce21f02" x="691.214842" y="490.333533" style="fill: #ff7f0e; stroke: #ff7f0e"/>
     <use xlink:href="#md2fce21f02" x="705.59464" y="490.04046" style="fill: #ff7f0e; stroke: #ff7f0e"/>
     <use xlink:href="#md2fce21f02" x="727.164337" y="489.795068" style="fill: #ff7f0e; stroke: #ff7f0e"/>
     <use xlink:href="#md2fce21f02" x="741.544135" y="490.557114" style="fill: #ff7f0e; stroke: #ff7f0e"/>
     <use xlink:href="#md2fce21f02" x="748.734034" y="490.76494" style="fill: #ff7f0e; stroke: #ff7f0e"/>
     <use xlink:href="#md2fce21f02" x="770.303731" y="490.518571" style="fill: #ff7f0e; stroke: #ff7f0e"/>
     <use xlink:href="#md2fce21f02" x="777.49363" y="490.271773" style="fill: #ff7f0e; stroke: #ff7f0e"/>
     <use xlink:href="#md2fce21f02" x="791.873428" y="490.020623" style="fill: #ff7f0e; stroke: #ff7f0e"/>
     <use xlink:href="#md2fce21f02" x="813.443125" y="490.53732" style="fill: #ff7f0e; stroke: #ff7f0e"/>
     <use xlink:href="#md2fce21f02" x="813.443125" y="490.54449" style="fill: #ff7f0e; stroke: #ff7f0e"/>
    </g>
   </g>
   <g id="patch_3">
    <path d="M 66.053125 530.918125 
L 66.053125 22.318125 
" style="fill: none; stroke: #000000; stroke-width: 0.8; stroke-linejoin: miter; stroke-linecap: square"/>
   </g>
   <g id="patch_4">
    <path d="M 849.033125 530.918125 
L 849.033125 22.318125 
" style="fill: none; stroke: #000000; stroke-width: 0.8; stroke-linejoin: miter; stroke-linecap: square"/>
   </g>
   <g id="patch_5">
    <path d="M 66.053125 530.918125 
L 849.033125 530.918125 
" style="fill: none; stroke: #000000; stroke-width: 0.8; stroke-linejoin: miter; stroke-linecap: square"/>
   </g>
   <g id="patch_6">
    <path d="M 66.053125 22.318125 
L 849.033125 22.318125 
" style="fill: none; stroke: #000000; stroke-width: 0.8; stroke-linejoin: miter; stroke-linecap: square"/>
   </g>
   <g id="text_16">
    <!-- RPS Comparison Over Time -->
    <g transform="translate(375.189375 16.318125) scale(0.12 -0.12)">
     <defs>
      <path id="DejaVuSans-43" d="M 4122 4306 
L 4122 3641 
Q 3803 3938 3442 4084 
Q 3081 4231 2675 4231 
Q 1875 4231 1450 3742 
Q 1025 3253 1025 2328 
Q 1025 1406 1450 917 
Q 1875 428 2675 428 
Q 3081 428 3442 575 
Q 3803 722 4122 1019 
L 4122 359 
Q 3791 134 3420 21 
Q 3050 -91 2638 -91 
Q 1578 -91 968 557 
Q 359 1206 359 2328 
Q 359 3453 968 4101 
Q 1578 4750 2638 4750 
Q 3056 4750 3426 4639 
Q 3797 4528 4122 4306 
z
" transform="scale(0.015625)"/>
      <path id="DejaVuSans-4f" d="M 2522 4238 
Q 1834 4238 1429 3725 
Q 1025 3213 1025 2328 
Q 1025 1447 1429 934 
Q 1834 422 2522 422 
Q 3209 422 3611 934 
Q 4013 1447 4013 2328 
Q 4013 3213 3611 3725 
Q 3209 4238 2522 4238 
z
M 2522 4750 
Q 3503 4750 4090 4092 
Q 4678 3434 4678 2328 
Q 4678 1225 4090 567 
Q 3503 -91 2522 -91 
Q 1538 -91 948 565 
Q 359 1222 359 2328 
Q 359 3434 948 4092 
Q 1538 4750 2522 4750 
z
" transform="scale(0.015625)"/>
      <path id="DejaVuSans-76" d="M 191 3500 
L 800 3500 
L 1894 563 
L 2988 3500 
L 3597 3500 
L 2284 0 
L 1503 0 
L 191 3500 
z
" transform="scale(0.015625)"/>
     </defs>
     <use xlink:href="#DejaVuSans-52"/>
     <use xlink:href="#DejaVuSans-50" x="69.482422"/>
     <use xlink:href="#DejaVuSans-53" x="129.785156"/>
     <use xlink:href="#DejaVuSans-20" x="193.261719"/>
     <use xlink:href="#DejaVuSans-43" x="225.048828"/>
     <use xlink:href="#DejaVuSans-6f" x="294.873047"/>
     <use xlink:href="#DejaVuSans-6d" x="356.054688"/>
     <use xlink:href="#DejaVuSans-70" x="453.466797"/>
     <use xlink:href="#DejaVuSans-61" x="516.943359"/>
     <use xlink:href="#DejaVuSans-72" x="578.222656"/>
     <use xlink:href="#DejaVuSans-69" x="619.335938"/>
     <use xlink:href="#DejaVuSans-73" x="647.119141"/>
     <use xlink:href="#DejaVuSans-6f" x="699.21875"/>
     <use xlink:href="#DejaVuSans-6e" x="760.400391"/>
     <use xlink:href="#DejaVuSans-20" x="823.779297"/>
     <use xlink:href="#DejaVuSans-4f" x="855.566406"/>
     <use xlink:href="#DejaVuSans-76" x="934.277344"/>
     <use xlink:href="#DejaVuSans-65" x="993.457031"/>
     <use xlink:href="#DejaVuSans-72" x="1054.980469"/>
     <use xlink:href="#DejaVuSans-20" x="1096.09375"/>
     <use xlink:href="#DejaVuSans-54" x="1127.880859"/>
     <use xlink:href="#DejaVuSans-69" x="1185.839844"/>
     <use xlink:href="#DejaVuSans-6d" x="1213.623047"/>
     <use xlink:href="#DejaVuSans-65" x="1311.035156"/>
    </g>
   </g>
   <g id="legend_1">
    <g id="patch_7">
     <path d="M 773.390938 300.135312 
L 842.033125 300.135312 
Q 844.033125 300.135312 844.033125 298.135312 
L 844.033125 255.100937 
Q 844.033125 253.100937 842.033125 253.100937 
L 773.390938 253.100937 
Q 771.390938 253.100937 771.390938 255.100937 
L 771.390938 298.135312 
Q 771.390938 300.135312 773.390938 300.135312 
z
" style="fill: #ffffff; opacity: 0.8; stroke: #cccccc; stroke-linejoin: miter"/>
    </g>
    <g id="line2d_30">
     <path d="M 775.390938 261.199375 
L 785.390938 261.199375 
L 795.390938 261.199375 
" style="fill: none; stroke: #2ca02c; stroke-width: 2; stroke-linecap: square"/>
     <g>
      <use xlink:href="#mffd4efafa5" x="785.390938" y="261.199375" style="fill: #2ca02c; stroke: #2ca02c"/>
     </g>
    </g>
    <g id="text_17">
     <!-- weaver -->
     <g transform="translate(803.390938 264.699375) scale(0.1 -0.1)">
      <defs>
       <path id="DejaVuSans-77" d="M 269 3500 
L 844 3500 
L 1563 769 
L 2278 3500 
L 2956 3500 
L 3675 769 
L 4391 3500 
L 4966 3500 
L 4050 0 
L 3372 0 
L 2619 2869 
L 1863 0 
L 1184 0 
L 269 3500 
z
" transform="scale(0.015625)"/>
      </defs>
      <use xlink:href="#DejaVuSans-77"/>
      <use xlink:href="#DejaVuSans-65" x="81.787109"/>
      <use xlink:href="#DejaVuSans-61" x="143.310547"/>
      <use xlink:href="#DejaVuSans-76" x="204.589844"/>
      <use xlink:href="#DejaVuSans-65" x="263.769531"/>
      <use xlink:href="#DejaVuSans-72" x="325.292969"/>
     </g>
    </g>
    <g id="line2d_31">
     <path d="M 775.390938 275.8775 
L 785.390938 275.8775 
L 795.390938 275.8775 
" style="fill: none; stroke: #1f77b4; stroke-width: 2; stroke-linecap: square"/>
     <g>
      <use xlink:href="#md2ef070bac" x="785.390938" y="275.8775" style="fill: #1f77b4; stroke: #1f77b4"/>
     </g>
    </g>
    <g id="text_18">
     <!-- node -->
     <g transform="translate(803.390938 279.3775) scale(0.1 -0.1)">
      <use xlink:href="#DejaVuSans-6e"/>
      <use xlink:href="#DejaVuSans-6f" x="63.378906"/>
      <use xlink:href="#DejaVuSans-64" x="124.560547"/>
      <use xlink:href="#DejaVuSans-65" x="188.037109"/>
     </g>
    </g>
    <g id="line2d_32">
     <path d="M 775.390938 290.555625 
L 785.390938 290.555625 
L 795.390938 290.555625 
" style="fill: none; stroke: #ff7f0e; stroke-width: 2; stroke-linecap: square"/>
     <g>
      <use xlink:href="#md2fce21f02" x="785.390938" y="290.555625" style="fill: #ff7f0e; stroke: #ff7f0e"/>
     </g>
    </g>
    <g id="text_19">
     <!-- python -->
     <g transform="translate(803.390938 294.055625) scale(0.1 -0.1)">
      <defs>
       <path id="DejaVuSans-79" d="M 2059 -325 
Q 1816 -950 1584 -1140 
Q 1353 -1331 966 -1331 
L 506 -1331 
L 506 -850 
L 844 -850 
Q 1081 -850 1212 -737 
Q 1344 -625 1503 -206 
L 1606 56 
L 191 3500 
L 800 3500 
L 1894 763 
L 2988 3500 
L 3597 3500 
L 2059 -325 
z
" transform="scale(0.015625)"/>
       <path id="DejaVuSans-68" d="M 3513 2113 
L 3513 0 
L 2938 0 
L 2938 2094 
Q 2938 2591 2744 2837 
Q 2550 3084 2163 3084 
Q 1697 3084 1428 2787 
Q 1159 2491 1159 1978 
L 1159 0 
L 581 0 
L 581 4863 
L 1159 4863 
L 1159 2956 
Q 1366 3272 1645 3428 
Q 1925 3584 2291 3584 
Q 2894 3584 3203 3211 
Q 3513 2838 3513 2113 
z
" transform="scale(0.015625)"/>
      </defs>
      <use xlink:href="#DejaVuSans-70"/>
      <use xlink:href="#DejaVuSans-79" x="63.476562"/>
      <use xlink:href="#DejaVuSans-74" x="122.65625"/>
      <use xlink:href="#DejaVuSans-68" x="161.865234"/>
      <use xlink:href="#DejaVuSans-6f" x="225.244141"/>
      <use xlink:href="#DejaVuSans-6e" x="286.425781"/>
     </g>
    </g>
   </g>
  </g>
 </g>
 <defs>
  <clipPath id="pb9d846864a">
   <rect x="66.053125" y="22.318125" width="782.98" height="508.6"/>
  </clipPath>
 </defs>
</svg>
