<?xml version="1.0" encoding="utf-8" standalone="no"?>
<!DOCTYPE svg PUBLIC "-//W3C//DTD SVG 1.1//EN"
  "http://www.w3.org/Graphics/SVG/1.1/DTD/svg11.dtd">
<svg xmlns:xlink="http://www.w3.org/1999/xlink" width="856.260625pt" height="568.474375pt" viewBox="0 0 856.260625 568.474375" xmlns="http://www.w3.org/2000/svg" version="1.1">
 <metadata>
  <rdf:RDF xmlns:dc="http://purl.org/dc/elements/1.1/" xmlns:cc="http://creativecommons.org/ns#" xmlns:rdf="http://www.w3.org/1999/02/22-rdf-syntax-ns#">
   <cc:Work>
    <dc:type rdf:resource="http://purl.org/dc/dcmitype/StillImage"/>
    <dc:date>2025-06-28T07:45:54.391343</dc:date>
    <dc:format>image/svg+xml</dc:format>
    <dc:creator>
     <cc:Agent>
      <dc:title>Matplotlib v3.6.3, https://matplotlib.org/</dc:title>
     </cc:Agent>
    </dc:creator>
   </cc:Work>
  </rdf:RDF>
 </metadata>
 <defs>
  <style type="text/css">*{stroke-linejoin: round; stroke-linecap: butt}</style>
 </defs>
 <g id="figure_1">
  <g id="patch_1">
   <path d="M 0 568.474375 
L 856.260625 568.474375 
L 856.260625 0 
L 0 0 
z
" style="fill: #ffffff"/>
  </g>
  <g id="axes_1">
   <g id="patch_2">
    <path d="M 59.690625 530.918125 
L 849.060625 530.918125 
L 849.060625 22.318125 
L 59.690625 22.318125 
z
" style="fill: #ffffff"/>
   </g>
   <g id="matplotlib.axis_1">
    <g id="xtick_1">
     <g id="line2d_1">
      <path d="M 80.925996 530.918125 
L 80.925996 22.318125 
" clip-path="url(#p282b77d4d1)" style="fill: none; stroke: #b0b0b0; stroke-opacity: 0.3; stroke-width: 0.8; stroke-linecap: square"/>
     </g>
     <g id="line2d_2">
      <defs>
       <path id="m5c59a68bbc" d="M 0 0 
L 0 3.5 
" style="stroke: #000000; stroke-width: 0.8"/>
      </defs>
      <g>
       <use xlink:href="#m5c59a68bbc" x="80.925996" y="530.918125" style="stroke: #000000; stroke-width: 0.8"/>
      </g>
     </g>
     <g id="text_1">
      <!-- 0 -->
      <g transform="translate(77.744746 545.516562) scale(0.1 -0.1)">
       <defs>
        <path id="DejaVuSans-30" d="M 2034 4250 
Q 1547 4250 1301 3770 
Q 1056 3291 1056 2328 
Q 1056 1369 1301 889 
Q 1547 409 2034 409 
Q 2525 409 2770 889 
Q 3016 1369 3016 2328 
Q 3016 3291 2770 3770 
Q 2525 4250 2034 4250 
z
M 2034 4750 
Q 2819 4750 3233 4129 
Q 3647 3509 3647 2328 
Q 3647 1150 3233 529 
Q 2819 -91 2034 -91 
Q 1250 -91 836 529 
Q 422 1150 422 2328 
Q 422 3509 836 4129 
Q 1250 4750 2034 4750 
z
" transform="scale(0.015625)"/>
       </defs>
       <use xlink:href="#DejaVuSans-30"/>
      </g>
     </g>
    </g>
    <g id="xtick_2">
     <g id="line2d_3">
      <path d="M 227.376831 530.918125 
L 227.376831 22.318125 
" clip-path="url(#p282b77d4d1)" style="fill: none; stroke: #b0b0b0; stroke-opacity: 0.3; stroke-width: 0.8; stroke-linecap: square"/>
     </g>
     <g id="line2d_4">
      <g>
       <use xlink:href="#m5c59a68bbc" x="227.376831" y="530.918125" style="stroke: #000000; stroke-width: 0.8"/>
      </g>
     </g>
     <g id="text_2">
      <!-- 2 -->
      <g transform="translate(224.195581 545.516562) scale(0.1 -0.1)">
       <defs>
        <path id="DejaVuSans-32" d="M 1228 531 
L 3431 531 
L 3431 0 
L 469 0 
L 469 531 
Q 828 903 1448 1529 
Q 2069 2156 2228 2338 
Q 2531 2678 2651 2914 
Q 2772 3150 2772 3378 
Q 2772 3750 2511 3984 
Q 2250 4219 1831 4219 
Q 1534 4219 1204 4116 
Q 875 4013 500 3803 
L 500 4441 
Q 881 4594 1212 4672 
Q 1544 4750 1819 4750 
Q 2544 4750 2975 4387 
Q 3406 4025 3406 3419 
Q 3406 3131 3298 2873 
Q 3191 2616 2906 2266 
Q 2828 2175 2409 1742 
Q 1991 1309 1228 531 
z
" transform="scale(0.015625)"/>
       </defs>
       <use xlink:href="#DejaVuSans-32"/>
      </g>
     </g>
    </g>
    <g id="xtick_3">
     <g id="line2d_5">
      <path d="M 373.827666 530.918125 
L 373.827666 22.318125 
" clip-path="url(#p282b77d4d1)" style="fill: none; stroke: #b0b0b0; stroke-opacity: 0.3; stroke-width: 0.8; stroke-linecap: square"/>
     </g>
     <g id="line2d_6">
      <g>
       <use xlink:href="#m5c59a68bbc" x="373.827666" y="530.918125" style="stroke: #000000; stroke-width: 0.8"/>
      </g>
     </g>
     <g id="text_3">
      <!-- 4 -->
      <g transform="translate(370.646416 545.516562) scale(0.1 -0.1)">
       <defs>
        <path id="DejaVuSans-34" d="M 2419 4116 
L 825 1625 
L 2419 1625 
L 2419 4116 
z
M 2253 4666 
L 3047 4666 
L 3047 1625 
L 3713 1625 
L 3713 1100 
L 3047 1100 
L 3047 0 
L 2419 0 
L 2419 1100 
L 313 1100 
L 313 1709 
L 2253 4666 
z
" transform="scale(0.015625)"/>
       </defs>
       <use xlink:href="#DejaVuSans-34"/>
      </g>
     </g>
    </g>
    <g id="xtick_4">
     <g id="line2d_7">
      <path d="M 520.278501 530.918125 
L 520.278501 22.318125 
" clip-path="url(#p282b77d4d1)" style="fill: none; stroke: #b0b0b0; stroke-opacity: 0.3; stroke-width: 0.8; stroke-linecap: square"/>
     </g>
     <g id="line2d_8">
      <g>
       <use xlink:href="#m5c59a68bbc" x="520.278501" y="530.918125" style="stroke: #000000; stroke-width: 0.8"/>
      </g>
     </g>
     <g id="text_4">
      <!-- 6 -->
      <g transform="translate(517.097251 545.516562) scale(0.1 -0.1)">
       <defs>
        <path id="DejaVuSans-36" d="M 2113 2584 
Q 1688 2584 1439 2293 
Q 1191 2003 1191 1497 
Q 1191 994 1439 701 
Q 1688 409 2113 409 
Q 2538 409 2786 701 
Q 3034 994 3034 1497 
Q 3034 2003 2786 2293 
Q 2538 2584 2113 2584 
z
M 3366 4563 
L 3366 3988 
Q 3128 4100 2886 4159 
Q 2644 4219 2406 4219 
Q 1781 4219 1451 3797 
Q 1122 3375 1075 2522 
Q 1259 2794 1537 2939 
Q 1816 3084 2150 3084 
Q 2853 3084 3261 2657 
Q 3669 2231 3669 1497 
Q 3669 778 3244 343 
Q 2819 -91 2113 -91 
Q 1303 -91 875 529 
Q 447 1150 447 2328 
Q 447 3434 972 4092 
Q 1497 4750 2381 4750 
Q 2619 4750 2861 4703 
Q 3103 4656 3366 4563 
z
" transform="scale(0.015625)"/>
       </defs>
       <use xlink:href="#DejaVuSans-36"/>
      </g>
     </g>
    </g>
    <g id="xtick_5">
     <g id="line2d_9">
      <path d="M 666.729336 530.918125 
L 666.729336 22.318125 
" clip-path="url(#p282b77d4d1)" style="fill: none; stroke: #b0b0b0; stroke-opacity: 0.3; stroke-width: 0.8; stroke-linecap: square"/>
     </g>
     <g id="line2d_10">
      <g>
       <use xlink:href="#m5c59a68bbc" x="666.729336" y="530.918125" style="stroke: #000000; stroke-width: 0.8"/>
      </g>
     </g>
     <g id="text_5">
      <!-- 8 -->
      <g transform="translate(663.548086 545.516562) scale(0.1 -0.1)">
       <defs>
        <path id="DejaVuSans-38" d="M 2034 2216 
Q 1584 2216 1326 1975 
Q 1069 1734 1069 1313 
Q 1069 891 1326 650 
Q 1584 409 2034 409 
Q 2484 409 2743 651 
Q 3003 894 3003 1313 
Q 3003 1734 2745 1975 
Q 2488 2216 2034 2216 
z
M 1403 2484 
Q 997 2584 770 2862 
Q 544 3141 544 3541 
Q 544 4100 942 4425 
Q 1341 4750 2034 4750 
Q 2731 4750 3128 4425 
Q 3525 4100 3525 3541 
Q 3525 3141 3298 2862 
Q 3072 2584 2669 2484 
Q 3125 2378 3379 2068 
Q 3634 1759 3634 1313 
Q 3634 634 3220 271 
Q 2806 -91 2034 -91 
Q 1263 -91 848 271 
Q 434 634 434 1313 
Q 434 1759 690 2068 
Q 947 2378 1403 2484 
z
M 1172 3481 
Q 1172 3119 1398 2916 
Q 1625 2713 2034 2713 
Q 2441 2713 2670 2916 
Q 2900 3119 2900 3481 
Q 2900 3844 2670 4047 
Q 2441 4250 2034 4250 
Q 1625 4250 1398 4047 
Q 1172 3844 1172 3481 
z
" transform="scale(0.015625)"/>
       </defs>
       <use xlink:href="#DejaVuSans-38"/>
      </g>
     </g>
    </g>
    <g id="xtick_6">
     <g id="line2d_11">
      <path d="M 813.18017 530.918125 
L 813.18017 22.318125 
" clip-path="url(#p282b77d4d1)" style="fill: none; stroke: #b0b0b0; stroke-opacity: 0.3; stroke-width: 0.8; stroke-linecap: square"/>
     </g>
     <g id="line2d_12">
      <g>
       <use xlink:href="#m5c59a68bbc" x="813.18017" y="530.918125" style="stroke: #000000; stroke-width: 0.8"/>
      </g>
     </g>
     <g id="text_6">
      <!-- 10 -->
      <g transform="translate(806.81767 545.516562) scale(0.1 -0.1)">
       <defs>
        <path id="DejaVuSans-31" d="M 794 531 
L 1825 531 
L 1825 4091 
L 703 3866 
L 703 4441 
L 1819 4666 
L 2450 4666 
L 2450 531 
L 3481 531 
L 3481 0 
L 794 0 
L 794 531 
z
" transform="scale(0.015625)"/>
       </defs>
       <use xlink:href="#DejaVuSans-31"/>
       <use xlink:href="#DejaVuSans-30" x="63.623047"/>
      </g>
     </g>
    </g>
    <g id="text_7">
     <!-- Elapsed Time (seconds) -->
     <g transform="translate(394.982656 559.194687) scale(0.1 -0.1)">
      <defs>
       <path id="DejaVuSans-45" d="M 628 4666 
L 3578 4666 
L 3578 4134 
L 1259 4134 
L 1259 2753 
L 3481 2753 
L 3481 2222 
L 1259 2222 
L 1259 531 
L 3634 531 
L 3634 0 
L 628 0 
L 628 4666 
z
" transform="scale(0.015625)"/>
       <path id="DejaVuSans-6c" d="M 603 4863 
L 1178 4863 
L 1178 0 
L 603 0 
L 603 4863 
z
" transform="scale(0.015625)"/>
       <path id="DejaVuSans-61" d="M 2194 1759 
Q 1497 1759 1228 1600 
Q 959 1441 959 1056 
Q 959 750 1161 570 
Q 1363 391 1709 391 
Q 2188 391 2477 730 
Q 2766 1069 2766 1631 
L 2766 1759 
L 2194 1759 
z
M 3341 1997 
L 3341 0 
L 2766 0 
L 2766 531 
Q 2569 213 2275 61 
Q 1981 -91 1556 -91 
Q 1019 -91 701 211 
Q 384 513 384 1019 
Q 384 1609 779 1909 
Q 1175 2209 1959 2209 
L 2766 2209 
L 2766 2266 
Q 2766 2663 2505 2880 
Q 2244 3097 1772 3097 
Q 1472 3097 1187 3025 
Q 903 2953 641 2809 
L 641 3341 
Q 956 3463 1253 3523 
Q 1550 3584 1831 3584 
Q 2591 3584 2966 3190 
Q 3341 2797 3341 1997 
z
" transform="scale(0.015625)"/>
       <path id="DejaVuSans-70" d="M 1159 525 
L 1159 -1331 
L 581 -1331 
L 581 3500 
L 1159 3500 
L 1159 2969 
Q 1341 3281 1617 3432 
Q 1894 3584 2278 3584 
Q 2916 3584 3314 3078 
Q 3713 2572 3713 1747 
Q 3713 922 3314 415 
Q 2916 -91 2278 -91 
Q 1894 -91 1617 61 
Q 1341 213 1159 525 
z
M 3116 1747 
Q 3116 2381 2855 2742 
Q 2594 3103 2138 3103 
Q 1681 3103 1420 2742 
Q 1159 2381 1159 1747 
Q 1159 1113 1420 752 
Q 1681 391 2138 391 
Q 2594 391 2855 752 
Q 3116 1113 3116 1747 
z
" transform="scale(0.015625)"/>
       <path id="DejaVuSans-73" d="M 2834 3397 
L 2834 2853 
Q 2591 2978 2328 3040 
Q 2066 3103 1784 3103 
Q 1356 3103 1142 2972 
Q 928 2841 928 2578 
Q 928 2378 1081 2264 
Q 1234 2150 1697 2047 
L 1894 2003 
Q 2506 1872 2764 1633 
Q 3022 1394 3022 966 
Q 3022 478 2636 193 
Q 2250 -91 1575 -91 
Q 1294 -91 989 -36 
Q 684 19 347 128 
L 347 722 
Q 666 556 975 473 
Q 1284 391 1588 391 
Q 1994 391 2212 530 
Q 2431 669 2431 922 
Q 2431 1156 2273 1281 
Q 2116 1406 1581 1522 
L 1381 1569 
Q 847 1681 609 1914 
Q 372 2147 372 2553 
Q 372 3047 722 3315 
Q 1072 3584 1716 3584 
Q 2034 3584 2315 3537 
Q 2597 3491 2834 3397 
z
" transform="scale(0.015625)"/>
       <path id="DejaVuSans-65" d="M 3597 1894 
L 3597 1613 
L 953 1613 
Q 991 1019 1311 708 
Q 1631 397 2203 397 
Q 2534 397 2845 478 
Q 3156 559 3463 722 
L 3463 178 
Q 3153 47 2828 -22 
Q 2503 -91 2169 -91 
Q 1331 -91 842 396 
Q 353 884 353 1716 
Q 353 2575 817 3079 
Q 1281 3584 2069 3584 
Q 2775 3584 3186 3129 
Q 3597 2675 3597 1894 
z
M 3022 2063 
Q 3016 2534 2758 2815 
Q 2500 3097 2075 3097 
Q 1594 3097 1305 2825 
Q 1016 2553 972 2059 
L 3022 2063 
z
" transform="scale(0.015625)"/>
       <path id="DejaVuSans-64" d="M 2906 2969 
L 2906 4863 
L 3481 4863 
L 3481 0 
L 2906 0 
L 2906 525 
Q 2725 213 2448 61 
Q 2172 -91 1784 -91 
Q 1150 -91 751 415 
Q 353 922 353 1747 
Q 353 2572 751 3078 
Q 1150 3584 1784 3584 
Q 2172 3584 2448 3432 
Q 2725 3281 2906 2969 
z
M 947 1747 
Q 947 1113 1208 752 
Q 1469 391 1925 391 
Q 2381 391 2643 752 
Q 2906 1113 2906 1747 
Q 2906 2381 2643 2742 
Q 2381 3103 1925 3103 
Q 1469 3103 1208 2742 
Q 947 2381 947 1747 
z
" transform="scale(0.015625)"/>
       <path id="DejaVuSans-20" transform="scale(0.015625)"/>
       <path id="DejaVuSans-54" d="M -19 4666 
L 3928 4666 
L 3928 4134 
L 2272 4134 
L 2272 0 
L 1638 0 
L 1638 4134 
L -19 4134 
L -19 4666 
z
" transform="scale(0.015625)"/>
       <path id="DejaVuSans-69" d="M 603 3500 
L 1178 3500 
L 1178 0 
L 603 0 
L 603 3500 
z
M 603 4863 
L 1178 4863 
L 1178 4134 
L 603 4134 
L 603 4863 
z
" transform="scale(0.015625)"/>
       <path id="DejaVuSans-6d" d="M 3328 2828 
Q 3544 3216 3844 3400 
Q 4144 3584 4550 3584 
Q 5097 3584 5394 3201 
Q 5691 2819 5691 2113 
L 5691 0 
L 5113 0 
L 5113 2094 
Q 5113 2597 4934 2840 
Q 4756 3084 4391 3084 
Q 3944 3084 3684 2787 
Q 3425 2491 3425 1978 
L 3425 0 
L 2847 0 
L 2847 2094 
Q 2847 2600 2669 2842 
Q 2491 3084 2119 3084 
Q 1678 3084 1418 2786 
Q 1159 2488 1159 1978 
L 1159 0 
L 581 0 
L 581 3500 
L 1159 3500 
L 1159 2956 
Q 1356 3278 1631 3431 
Q 1906 3584 2284 3584 
Q 2666 3584 2933 3390 
Q 3200 3197 3328 2828 
z
" transform="scale(0.015625)"/>
       <path id="DejaVuSans-28" d="M 1984 4856 
Q 1566 4138 1362 3434 
Q 1159 2731 1159 2009 
Q 1159 1288 1364 580 
Q 1569 -128 1984 -844 
L 1484 -844 
Q 1016 -109 783 600 
Q 550 1309 550 2009 
Q 550 2706 781 3412 
Q 1013 4119 1484 4856 
L 1984 4856 
z
" transform="scale(0.015625)"/>
       <path id="DejaVuSans-63" d="M 3122 3366 
L 3122 2828 
Q 2878 2963 2633 3030 
Q 2388 3097 2138 3097 
Q 1578 3097 1268 2742 
Q 959 2388 959 1747 
Q 959 1106 1268 751 
Q 1578 397 2138 397 
Q 2388 397 2633 464 
Q 2878 531 3122 666 
L 3122 134 
Q 2881 22 2623 -34 
Q 2366 -91 2075 -91 
Q 1284 -91 818 406 
Q 353 903 353 1747 
Q 353 2603 823 3093 
Q 1294 3584 2113 3584 
Q 2378 3584 2631 3529 
Q 2884 3475 3122 3366 
z
" transform="scale(0.015625)"/>
       <path id="DejaVuSans-6f" d="M 1959 3097 
Q 1497 3097 1228 2736 
Q 959 2375 959 1747 
Q 959 1119 1226 758 
Q 1494 397 1959 397 
Q 2419 397 2687 759 
Q 2956 1122 2956 1747 
Q 2956 2369 2687 2733 
Q 2419 3097 1959 3097 
z
M 1959 3584 
Q 2709 3584 3137 3096 
Q 3566 2609 3566 1747 
Q 3566 888 3137 398 
Q 2709 -91 1959 -91 
Q 1206 -91 779 398 
Q 353 888 353 1747 
Q 353 2609 779 3096 
Q 1206 3584 1959 3584 
z
" transform="scale(0.015625)"/>
       <path id="DejaVuSans-6e" d="M 3513 2113 
L 3513 0 
L 2938 0 
L 2938 2094 
Q 2938 2591 2744 2837 
Q 2550 3084 2163 3084 
Q 1697 3084 1428 2787 
Q 1159 2491 1159 1978 
L 1159 0 
L 581 0 
L 581 3500 
L 1159 3500 
L 1159 2956 
Q 1366 3272 1645 3428 
Q 1925 3584 2291 3584 
Q 2894 3584 3203 3211 
Q 3513 2838 3513 2113 
z
" transform="scale(0.015625)"/>
       <path id="DejaVuSans-29" d="M 513 4856 
L 1013 4856 
Q 1481 4119 1714 3412 
Q 1947 2706 1947 2009 
Q 1947 1309 1714 600 
Q 1481 -109 1013 -844 
L 513 -844 
Q 928 -128 1133 580 
Q 1338 1288 1338 2009 
Q 1338 2731 1133 3434 
Q 928 4138 513 4856 
z
" transform="scale(0.015625)"/>
      </defs>
      <use xlink:href="#DejaVuSans-45"/>
      <use xlink:href="#DejaVuSans-6c" x="63.183594"/>
      <use xlink:href="#DejaVuSans-61" x="90.966797"/>
      <use xlink:href="#DejaVuSans-70" x="152.246094"/>
      <use xlink:href="#DejaVuSans-73" x="215.722656"/>
      <use xlink:href="#DejaVuSans-65" x="267.822266"/>
      <use xlink:href="#DejaVuSans-64" x="329.345703"/>
      <use xlink:href="#DejaVuSans-20" x="392.822266"/>
      <use xlink:href="#DejaVuSans-54" x="424.609375"/>
      <use xlink:href="#DejaVuSans-69" x="482.568359"/>
      <use xlink:href="#DejaVuSans-6d" x="510.351562"/>
      <use xlink:href="#DejaVuSans-65" x="607.763672"/>
      <use xlink:href="#DejaVuSans-20" x="669.287109"/>
      <use xlink:href="#DejaVuSans-28" x="701.074219"/>
      <use xlink:href="#DejaVuSans-73" x="740.087891"/>
      <use xlink:href="#DejaVuSans-65" x="792.1875"/>
      <use xlink:href="#DejaVuSans-63" x="853.710938"/>
      <use xlink:href="#DejaVuSans-6f" x="908.691406"/>
      <use xlink:href="#DejaVuSans-6e" x="969.873047"/>
      <use xlink:href="#DejaVuSans-64" x="1033.251953"/>
      <use xlink:href="#DejaVuSans-73" x="1096.728516"/>
      <use xlink:href="#DejaVuSans-29" x="1148.828125"/>
     </g>
    </g>
   </g>
   <g id="matplotlib.axis_2">
    <g id="ytick_1">
     <g id="line2d_13">
      <path d="M 59.690625 490.351032 
L 849.060625 490.351032 
" clip-path="url(#p282b77d4d1)" style="fill: none; stroke: #b0b0b0; stroke-opacity: 0.3; stroke-width: 0.8; stroke-linecap: square"/>
     </g>
     <g id="line2d_14">
      <defs>
       <path id="m5909d4585b" d="M 0 0 
L -3.5 0 
" style="stroke: #000000; stroke-width: 0.8"/>
      </defs>
      <g>
       <use xlink:href="#m5909d4585b" x="59.690625" y="490.351032" style="stroke: #000000; stroke-width: 0.8"/>
      </g>
     </g>
     <g id="text_8">
      <!-- 20000 -->
      <g transform="translate(20.878125 494.150251) scale(0.1 -0.1)">
       <use xlink:href="#DejaVuSans-32"/>
       <use xlink:href="#DejaVuSans-30" x="63.623047"/>
       <use xlink:href="#DejaVuSans-30" x="127.246094"/>
       <use xlink:href="#DejaVuSans-30" x="190.869141"/>
       <use xlink:href="#DejaVuSans-30" x="254.492188"/>
      </g>
     </g>
    </g>
    <g id="ytick_2">
     <g id="line2d_15">
      <path d="M 59.690625 431.584205 
L 849.060625 431.584205 
" clip-path="url(#p282b77d4d1)" style="fill: none; stroke: #b0b0b0; stroke-opacity: 0.3; stroke-width: 0.8; stroke-linecap: square"/>
     </g>
     <g id="line2d_16">
      <g>
       <use xlink:href="#m5909d4585b" x="59.690625" y="431.584205" style="stroke: #000000; stroke-width: 0.8"/>
      </g>
     </g>
     <g id="text_9">
      <!-- 30000 -->
      <g transform="translate(20.878125 435.383424) scale(0.1 -0.1)">
       <defs>
        <path id="DejaVuSans-33" d="M 2597 2516 
Q 3050 2419 3304 2112 
Q 3559 1806 3559 1356 
Q 3559 666 3084 287 
Q 2609 -91 1734 -91 
Q 1441 -91 1130 -33 
Q 819 25 488 141 
L 488 750 
Q 750 597 1062 519 
Q 1375 441 1716 441 
Q 2309 441 2620 675 
Q 2931 909 2931 1356 
Q 2931 1769 2642 2001 
Q 2353 2234 1838 2234 
L 1294 2234 
L 1294 2753 
L 1863 2753 
Q 2328 2753 2575 2939 
Q 2822 3125 2822 3475 
Q 2822 3834 2567 4026 
Q 2313 4219 1838 4219 
Q 1578 4219 1281 4162 
Q 984 4106 628 3988 
L 628 4550 
Q 988 4650 1302 4700 
Q 1616 4750 1894 4750 
Q 2613 4750 3031 4423 
Q 3450 4097 3450 3541 
Q 3450 3153 3228 2886 
Q 3006 2619 2597 2516 
z
" transform="scale(0.015625)"/>
       </defs>
       <use xlink:href="#DejaVuSans-33"/>
       <use xlink:href="#DejaVuSans-30" x="63.623047"/>
       <use xlink:href="#DejaVuSans-30" x="127.246094"/>
       <use xlink:href="#DejaVuSans-30" x="190.869141"/>
       <use xlink:href="#DejaVuSans-30" x="254.492188"/>
      </g>
     </g>
    </g>
    <g id="ytick_3">
     <g id="line2d_17">
      <path d="M 59.690625 372.817378 
L 849.060625 372.817378 
" clip-path="url(#p282b77d4d1)" style="fill: none; stroke: #b0b0b0; stroke-opacity: 0.3; stroke-width: 0.8; stroke-linecap: square"/>
     </g>
     <g id="line2d_18">
      <g>
       <use xlink:href="#m5909d4585b" x="59.690625" y="372.817378" style="stroke: #000000; stroke-width: 0.8"/>
      </g>
     </g>
     <g id="text_10">
      <!-- 40000 -->
      <g transform="translate(20.878125 376.616597) scale(0.1 -0.1)">
       <use xlink:href="#DejaVuSans-34"/>
       <use xlink:href="#DejaVuSans-30" x="63.623047"/>
       <use xlink:href="#DejaVuSans-30" x="127.246094"/>
       <use xlink:href="#DejaVuSans-30" x="190.869141"/>
       <use xlink:href="#DejaVuSans-30" x="254.492188"/>
      </g>
     </g>
    </g>
    <g id="ytick_4">
     <g id="line2d_19">
      <path d="M 59.690625 314.050552 
L 849.060625 314.050552 
" clip-path="url(#p282b77d4d1)" style="fill: none; stroke: #b0b0b0; stroke-opacity: 0.3; stroke-width: 0.8; stroke-linecap: square"/>
     </g>
     <g id="line2d_20">
      <g>
       <use xlink:href="#m5909d4585b" x="59.690625" y="314.050552" style="stroke: #000000; stroke-width: 0.8"/>
      </g>
     </g>
     <g id="text_11">
      <!-- 50000 -->
      <g transform="translate(20.878125 317.84977) scale(0.1 -0.1)">
       <defs>
        <path id="DejaVuSans-35" d="M 691 4666 
L 3169 4666 
L 3169 4134 
L 1269 4134 
L 1269 2991 
Q 1406 3038 1543 3061 
Q 1681 3084 1819 3084 
Q 2600 3084 3056 2656 
Q 3513 2228 3513 1497 
Q 3513 744 3044 326 
Q 2575 -91 1722 -91 
Q 1428 -91 1123 -41 
Q 819 9 494 109 
L 494 744 
Q 775 591 1075 516 
Q 1375 441 1709 441 
Q 2250 441 2565 725 
Q 2881 1009 2881 1497 
Q 2881 1984 2565 2268 
Q 2250 2553 1709 2553 
Q 1456 2553 1204 2497 
Q 953 2441 691 2322 
L 691 4666 
z
" transform="scale(0.015625)"/>
       </defs>
       <use xlink:href="#DejaVuSans-35"/>
       <use xlink:href="#DejaVuSans-30" x="63.623047"/>
       <use xlink:href="#DejaVuSans-30" x="127.246094"/>
       <use xlink:href="#DejaVuSans-30" x="190.869141"/>
       <use xlink:href="#DejaVuSans-30" x="254.492188"/>
      </g>
     </g>
    </g>
    <g id="ytick_5">
     <g id="line2d_21">
      <path d="M 59.690625 255.283725 
L 849.060625 255.283725 
" clip-path="url(#p282b77d4d1)" style="fill: none; stroke: #b0b0b0; stroke-opacity: 0.3; stroke-width: 0.8; stroke-linecap: square"/>
     </g>
     <g id="line2d_22">
      <g>
       <use xlink:href="#m5909d4585b" x="59.690625" y="255.283725" style="stroke: #000000; stroke-width: 0.8"/>
      </g>
     </g>
     <g id="text_12">
      <!-- 60000 -->
      <g transform="translate(20.878125 259.082943) scale(0.1 -0.1)">
       <use xlink:href="#DejaVuSans-36"/>
       <use xlink:href="#DejaVuSans-30" x="63.623047"/>
       <use xlink:href="#DejaVuSans-30" x="127.246094"/>
       <use xlink:href="#DejaVuSans-30" x="190.869141"/>
       <use xlink:href="#DejaVuSans-30" x="254.492188"/>
      </g>
     </g>
    </g>
    <g id="ytick_6">
     <g id="line2d_23">
      <path d="M 59.690625 196.516898 
L 849.060625 196.516898 
" clip-path="url(#p282b77d4d1)" style="fill: none; stroke: #b0b0b0; stroke-opacity: 0.3; stroke-width: 0.8; stroke-linecap: square"/>
     </g>
     <g id="line2d_24">
      <g>
       <use xlink:href="#m5909d4585b" x="59.690625" y="196.516898" style="stroke: #000000; stroke-width: 0.8"/>
      </g>
     </g>
     <g id="text_13">
      <!-- 70000 -->
      <g transform="translate(20.878125 200.316117) scale(0.1 -0.1)">
       <defs>
        <path id="DejaVuSans-37" d="M 525 4666 
L 3525 4666 
L 3525 4397 
L 1831 0 
L 1172 0 
L 2766 4134 
L 525 4134 
L 525 4666 
z
" transform="scale(0.015625)"/>
       </defs>
       <use xlink:href="#DejaVuSans-37"/>
       <use xlink:href="#DejaVuSans-30" x="63.623047"/>
       <use xlink:href="#DejaVuSans-30" x="127.246094"/>
       <use xlink:href="#DejaVuSans-30" x="190.869141"/>
       <use xlink:href="#DejaVuSans-30" x="254.492188"/>
      </g>
     </g>
    </g>
    <g id="ytick_7">
     <g id="line2d_25">
      <path d="M 59.690625 137.750071 
L 849.060625 137.750071 
" clip-path="url(#p282b77d4d1)" style="fill: none; stroke: #b0b0b0; stroke-opacity: 0.3; stroke-width: 0.8; stroke-linecap: square"/>
     </g>
     <g id="line2d_26">
      <g>
       <use xlink:href="#m5909d4585b" x="59.690625" y="137.750071" style="stroke: #000000; stroke-width: 0.8"/>
      </g>
     </g>
     <g id="text_14">
      <!-- 80000 -->
      <g transform="translate(20.878125 141.54929) scale(0.1 -0.1)">
       <use xlink:href="#DejaVuSans-38"/>
       <use xlink:href="#DejaVuSans-30" x="63.623047"/>
       <use xlink:href="#DejaVuSans-30" x="127.246094"/>
       <use xlink:href="#DejaVuSans-30" x="190.869141"/>
       <use xlink:href="#DejaVuSans-30" x="254.492188"/>
      </g>
     </g>
    </g>
    <g id="ytick_8">
     <g id="line2d_27">
      <path d="M 59.690625 78.983244 
L 849.060625 78.983244 
" clip-path="url(#p282b77d4d1)" style="fill: none; stroke: #b0b0b0; stroke-opacity: 0.3; stroke-width: 0.8; stroke-linecap: square"/>
     </g>
     <g id="line2d_28">
      <g>
       <use xlink:href="#m5909d4585b" x="59.690625" y="78.983244" style="stroke: #000000; stroke-width: 0.8"/>
      </g>
     </g>
     <g id="text_15">
      <!-- 90000 -->
      <g transform="translate(20.878125 82.782463) scale(0.1 -0.1)">
       <defs>
        <path id="DejaVuSans-39" d="M 703 97 
L 703 672 
Q 941 559 1184 500 
Q 1428 441 1663 441 
Q 2288 441 2617 861 
Q 2947 1281 2994 2138 
Q 2813 1869 2534 1725 
Q 2256 1581 1919 1581 
Q 1219 1581 811 2004 
Q 403 2428 403 3163 
Q 403 3881 828 4315 
Q 1253 4750 1959 4750 
Q 2769 4750 3195 4129 
Q 3622 3509 3622 2328 
Q 3622 1225 3098 567 
Q 2575 -91 1691 -91 
Q 1453 -91 1209 -44 
Q 966 3 703 97 
z
M 1959 2075 
Q 2384 2075 2632 2365 
Q 2881 2656 2881 3163 
Q 2881 3666 2632 3958 
Q 2384 4250 1959 4250 
Q 1534 4250 1286 3958 
Q 1038 3666 1038 3163 
Q 1038 2656 1286 2365 
Q 1534 2075 1959 2075 
z
" transform="scale(0.015625)"/>
       </defs>
       <use xlink:href="#DejaVuSans-39"/>
       <use xlink:href="#DejaVuSans-30" x="63.623047"/>
       <use xlink:href="#DejaVuSans-30" x="127.246094"/>
       <use xlink:href="#DejaVuSans-30" x="190.869141"/>
       <use xlink:href="#DejaVuSans-30" x="254.492188"/>
      </g>
     </g>
    </g>
    <g id="text_16">
     <!-- Requests Per Second (RPS) -->
     <g transform="translate(14.798438 344.232969) rotate(-90) scale(0.1 -0.1)">
      <defs>
       <path id="DejaVuSans-52" d="M 2841 2188 
Q 3044 2119 3236 1894 
Q 3428 1669 3622 1275 
L 4263 0 
L 3584 0 
L 2988 1197 
Q 2756 1666 2539 1819 
Q 2322 1972 1947 1972 
L 1259 1972 
L 1259 0 
L 628 0 
L 628 4666 
L 2053 4666 
Q 2853 4666 3247 4331 
Q 3641 3997 3641 3322 
Q 3641 2881 3436 2590 
Q 3231 2300 2841 2188 
z
M 1259 4147 
L 1259 2491 
L 2053 2491 
Q 2509 2491 2742 2702 
Q 2975 2913 2975 3322 
Q 2975 3731 2742 3939 
Q 2509 4147 2053 4147 
L 1259 4147 
z
" transform="scale(0.015625)"/>
       <path id="DejaVuSans-71" d="M 947 1747 
Q 947 1113 1208 752 
Q 1469 391 1925 391 
Q 2381 391 2643 752 
Q 2906 1113 2906 1747 
Q 2906 2381 2643 2742 
Q 2381 3103 1925 3103 
Q 1469 3103 1208 2742 
Q 947 2381 947 1747 
z
M 2906 525 
Q 2725 213 2448 61 
Q 2172 -91 1784 -91 
Q 1150 -91 751 415 
Q 353 922 353 1747 
Q 353 2572 751 3078 
Q 1150 3584 1784 3584 
Q 2172 3584 2448 3432 
Q 2725 3281 2906 2969 
L 2906 3500 
L 3481 3500 
L 3481 -1331 
L 2906 -1331 
L 2906 525 
z
" transform="scale(0.015625)"/>
       <path id="DejaVuSans-75" d="M 544 1381 
L 544 3500 
L 1119 3500 
L 1119 1403 
Q 1119 906 1312 657 
Q 1506 409 1894 409 
Q 2359 409 2629 706 
Q 2900 1003 2900 1516 
L 2900 3500 
L 3475 3500 
L 3475 0 
L 2900 0 
L 2900 538 
Q 2691 219 2414 64 
Q 2138 -91 1772 -91 
Q 1169 -91 856 284 
Q 544 659 544 1381 
z
M 1991 3584 
L 1991 3584 
z
" transform="scale(0.015625)"/>
       <path id="DejaVuSans-74" d="M 1172 4494 
L 1172 3500 
L 2356 3500 
L 2356 3053 
L 1172 3053 
L 1172 1153 
Q 1172 725 1289 603 
Q 1406 481 1766 481 
L 2356 481 
L 2356 0 
L 1766 0 
Q 1100 0 847 248 
Q 594 497 594 1153 
L 594 3053 
L 172 3053 
L 172 3500 
L 594 3500 
L 594 4494 
L 1172 4494 
z
" transform="scale(0.015625)"/>
       <path id="DejaVuSans-50" d="M 1259 4147 
L 1259 2394 
L 2053 2394 
Q 2494 2394 2734 2622 
Q 2975 2850 2975 3272 
Q 2975 3691 2734 3919 
Q 2494 4147 2053 4147 
L 1259 4147 
z
M 628 4666 
L 2053 4666 
Q 2838 4666 3239 4311 
Q 3641 3956 3641 3272 
Q 3641 2581 3239 2228 
Q 2838 1875 2053 1875 
L 1259 1875 
L 1259 0 
L 628 0 
L 628 4666 
z
" transform="scale(0.015625)"/>
       <path id="DejaVuSans-72" d="M 2631 2963 
Q 2534 3019 2420 3045 
Q 2306 3072 2169 3072 
Q 1681 3072 1420 2755 
Q 1159 2438 1159 1844 
L 1159 0 
L 581 0 
L 581 3500 
L 1159 3500 
L 1159 2956 
Q 1341 3275 1631 3429 
Q 1922 3584 2338 3584 
Q 2397 3584 2469 3576 
Q 2541 3569 2628 3553 
L 2631 2963 
z
" transform="scale(0.015625)"/>
       <path id="DejaVuSans-53" d="M 3425 4513 
L 3425 3897 
Q 3066 4069 2747 4153 
Q 2428 4238 2131 4238 
Q 1616 4238 1336 4038 
Q 1056 3838 1056 3469 
Q 1056 3159 1242 3001 
Q 1428 2844 1947 2747 
L 2328 2669 
Q 3034 2534 3370 2195 
Q 3706 1856 3706 1288 
Q 3706 609 3251 259 
Q 2797 -91 1919 -91 
Q 1588 -91 1214 -16 
Q 841 59 441 206 
L 441 856 
Q 825 641 1194 531 
Q 1563 422 1919 422 
Q 2459 422 2753 634 
Q 3047 847 3047 1241 
Q 3047 1584 2836 1778 
Q 2625 1972 2144 2069 
L 1759 2144 
Q 1053 2284 737 2584 
Q 422 2884 422 3419 
Q 422 4038 858 4394 
Q 1294 4750 2059 4750 
Q 2388 4750 2728 4690 
Q 3069 4631 3425 4513 
z
" transform="scale(0.015625)"/>
      </defs>
      <use xlink:href="#DejaVuSans-52"/>
      <use xlink:href="#DejaVuSans-65" x="64.982422"/>
      <use xlink:href="#DejaVuSans-71" x="126.505859"/>
      <use xlink:href="#DejaVuSans-75" x="189.982422"/>
      <use xlink:href="#DejaVuSans-65" x="253.361328"/>
      <use xlink:href="#DejaVuSans-73" x="314.884766"/>
      <use xlink:href="#DejaVuSans-74" x="366.984375"/>
      <use xlink:href="#DejaVuSans-73" x="406.193359"/>
      <use xlink:href="#DejaVuSans-20" x="458.292969"/>
      <use xlink:href="#DejaVuSans-50" x="490.080078"/>
      <use xlink:href="#DejaVuSans-65" x="546.757812"/>
      <use xlink:href="#DejaVuSans-72" x="608.28125"/>
      <use xlink:href="#DejaVuSans-20" x="649.394531"/>
      <use xlink:href="#DejaVuSans-53" x="681.181641"/>
      <use xlink:href="#DejaVuSans-65" x="744.658203"/>
      <use xlink:href="#DejaVuSans-63" x="806.181641"/>
      <use xlink:href="#DejaVuSans-6f" x="861.162109"/>
      <use xlink:href="#DejaVuSans-6e" x="922.34375"/>
      <use xlink:href="#DejaVuSans-64" x="985.722656"/>
      <use xlink:href="#DejaVuSans-20" x="1049.199219"/>
      <use xlink:href="#DejaVuSans-28" x="1080.986328"/>
      <use xlink:href="#DejaVuSans-52" x="1120"/>
      <use xlink:href="#DejaVuSans-50" x="1189.482422"/>
      <use xlink:href="#DejaVuSans-53" x="1249.785156"/>
      <use xlink:href="#DejaVuSans-29" x="1313.261719"/>
     </g>
    </g>
   </g>
   <g id="line2d_29">
    <path d="M 95.57108 143.999377 
L 110.216163 93.114674 
L 124.861247 72.859135 
L 139.50633 67.118986 
L 154.151413 64.28686 
L 168.796497 60.276517 
L 183.44158 55.920755 
L 198.086664 53.205017 
L 212.731747 51.818037 
L 227.376831 50.799544 
L 242.021914 51.099754 
L 256.666998 50.453842 
L 271.312081 49.711558 
L 285.957165 49.157205 
L 300.602248 49.032572 
L 315.247332 48.651087 
L 329.892415 47.957286 
L 344.537499 47.198295 
L 359.182582 47.080938 
L 373.827666 46.795395 
L 388.472749 46.546071 
L 403.117833 46.451974 
L 417.762916 46.447331 
L 432.408 46.456334 
L 447.053083 46.53363 
L 461.698167 46.562309 
L 476.34325 46.522541 
L 490.988334 46.002678 
L 505.633417 46.075807 
L 520.278501 45.861502 
L 534.923584 45.891092 
L 549.568668 45.808988 
L 564.213751 45.7486 
L 578.858835 45.522712 
L 593.503918 45.436307 
L 608.149002 45.59657 
L 622.794085 45.727831 
L 637.439169 45.604979 
L 652.084252 45.686559 
L 666.729336 46.042446 
L 681.374419 45.859916 
L 696.019503 45.840117 
L 710.664586 45.754429 
L 725.30967 45.693553 
L 739.954753 45.599173 
L 754.599837 45.699124 
L 769.24492 45.681993 
L 783.890003 45.858546 
L 798.535087 45.928785 
L 813.18017 46.073087 
L 813.18017 46.138435 
" clip-path="url(#p282b77d4d1)" style="fill: none; stroke: #2ca02c; stroke-width: 2; stroke-linecap: square"/>
    <defs>
     <path id="m872346ebd1" d="M 0 2 
C 0.530406 2 1.03916 1.789267 1.414214 1.414214 
C 1.789267 1.03916 2 0.530406 2 0 
C 2 -0.530406 1.789267 -1.03916 1.414214 -1.414214 
C 1.03916 -1.789267 0.530406 -2 0 -2 
C -0.530406 -2 -1.03916 -1.789267 -1.414214 -1.414214 
C -1.789267 -1.03916 -2 -0.530406 -2 0 
C -2 0.530406 -1.789267 1.03916 -1.414214 1.414214 
C -1.03916 1.789267 -0.530406 2 0 2 
z
" style="stroke: #2ca02c"/>
    </defs>
    <g clip-path="url(#p282b77d4d1)">
     <use xlink:href="#m872346ebd1" x="95.57108" y="143.999377" style="fill: #2ca02c; stroke: #2ca02c"/>
     <use xlink:href="#m872346ebd1" x="110.216163" y="93.114674" style="fill: #2ca02c; stroke: #2ca02c"/>
     <use xlink:href="#m872346ebd1" x="124.861247" y="72.859135" style="fill: #2ca02c; stroke: #2ca02c"/>
     <use xlink:href="#m872346ebd1" x="139.50633" y="67.118986" style="fill: #2ca02c; stroke: #2ca02c"/>
     <use xlink:href="#m872346ebd1" x="154.151413" y="64.28686" style="fill: #2ca02c; stroke: #2ca02c"/>
     <use xlink:href="#m872346ebd1" x="168.796497" y="60.276517" style="fill: #2ca02c; stroke: #2ca02c"/>
     <use xlink:href="#m872346ebd1" x="183.44158" y="55.920755" style="fill: #2ca02c; stroke: #2ca02c"/>
     <use xlink:href="#m872346ebd1" x="198.086664" y="53.205017" style="fill: #2ca02c; stroke: #2ca02c"/>
     <use xlink:href="#m872346ebd1" x="212.731747" y="51.818037" style="fill: #2ca02c; stroke: #2ca02c"/>
     <use xlink:href="#m872346ebd1" x="227.376831" y="50.799544" style="fill: #2ca02c; stroke: #2ca02c"/>
     <use xlink:href="#m872346ebd1" x="242.021914" y="51.099754" style="fill: #2ca02c; stroke: #2ca02c"/>
     <use xlink:href="#m872346ebd1" x="256.666998" y="50.453842" style="fill: #2ca02c; stroke: #2ca02c"/>
     <use xlink:href="#m872346ebd1" x="271.312081" y="49.711558" style="fill: #2ca02c; stroke: #2ca02c"/>
     <use xlink:href="#m872346ebd1" x="285.957165" y="49.157205" style="fill: #2ca02c; stroke: #2ca02c"/>
     <use xlink:href="#m872346ebd1" x="300.602248" y="49.032572" style="fill: #2ca02c; stroke: #2ca02c"/>
     <use xlink:href="#m872346ebd1" x="315.247332" y="48.651087" style="fill: #2ca02c; stroke: #2ca02c"/>
     <use xlink:href="#m872346ebd1" x="329.892415" y="47.957286" style="fill: #2ca02c; stroke: #2ca02c"/>
     <use xlink:href="#m872346ebd1" x="344.537499" y="47.198295" style="fill: #2ca02c; stroke: #2ca02c"/>
     <use xlink:href="#m872346ebd1" x="359.182582" y="47.080938" style="fill: #2ca02c; stroke: #2ca02c"/>
     <use xlink:href="#m872346ebd1" x="373.827666" y="46.795395" style="fill: #2ca02c; stroke: #2ca02c"/>
     <use xlink:href="#m872346ebd1" x="388.472749" y="46.546071" style="fill: #2ca02c; stroke: #2ca02c"/>
     <use xlink:href="#m872346ebd1" x="403.117833" y="46.451974" style="fill: #2ca02c; stroke: #2ca02c"/>
     <use xlink:href="#m872346ebd1" x="417.762916" y="46.447331" style="fill: #2ca02c; stroke: #2ca02c"/>
     <use xlink:href="#m872346ebd1" x="432.408" y="46.456334" style="fill: #2ca02c; stroke: #2ca02c"/>
     <use xlink:href="#m872346ebd1" x="447.053083" y="46.53363" style="fill: #2ca02c; stroke: #2ca02c"/>
     <use xlink:href="#m872346ebd1" x="461.698167" y="46.562309" style="fill: #2ca02c; stroke: #2ca02c"/>
     <use xlink:href="#m872346ebd1" x="476.34325" y="46.522541" style="fill: #2ca02c; stroke: #2ca02c"/>
     <use xlink:href="#m872346ebd1" x="490.988334" y="46.002678" style="fill: #2ca02c; stroke: #2ca02c"/>
     <use xlink:href="#m872346ebd1" x="505.633417" y="46.075807" style="fill: #2ca02c; stroke: #2ca02c"/>
     <use xlink:href="#m872346ebd1" x="520.278501" y="45.861502" style="fill: #2ca02c; stroke: #2ca02c"/>
     <use xlink:href="#m872346ebd1" x="534.923584" y="45.891092" style="fill: #2ca02c; stroke: #2ca02c"/>
     <use xlink:href="#m872346ebd1" x="549.568668" y="45.808988" style="fill: #2ca02c; stroke: #2ca02c"/>
     <use xlink:href="#m872346ebd1" x="564.213751" y="45.7486" style="fill: #2ca02c; stroke: #2ca02c"/>
     <use xlink:href="#m872346ebd1" x="578.858835" y="45.522712" style="fill: #2ca02c; stroke: #2ca02c"/>
     <use xlink:href="#m872346ebd1" x="593.503918" y="45.436307" style="fill: #2ca02c; stroke: #2ca02c"/>
     <use xlink:href="#m872346ebd1" x="608.149002" y="45.59657" style="fill: #2ca02c; stroke: #2ca02c"/>
     <use xlink:href="#m872346ebd1" x="622.794085" y="45.727831" style="fill: #2ca02c; stroke: #2ca02c"/>
     <use xlink:href="#m872346ebd1" x="637.439169" y="45.604979" style="fill: #2ca02c; stroke: #2ca02c"/>
     <use xlink:href="#m872346ebd1" x="652.084252" y="45.686559" style="fill: #2ca02c; stroke: #2ca02c"/>
     <use xlink:href="#m872346ebd1" x="666.729336" y="46.042446" style="fill: #2ca02c; stroke: #2ca02c"/>
     <use xlink:href="#m872346ebd1" x="681.374419" y="45.859916" style="fill: #2ca02c; stroke: #2ca02c"/>
     <use xlink:href="#m872346ebd1" x="696.019503" y="45.840117" style="fill: #2ca02c; stroke: #2ca02c"/>
     <use xlink:href="#m872346ebd1" x="710.664586" y="45.754429" style="fill: #2ca02c; stroke: #2ca02c"/>
     <use xlink:href="#m872346ebd1" x="725.30967" y="45.693553" style="fill: #2ca02c; stroke: #2ca02c"/>
     <use xlink:href="#m872346ebd1" x="739.954753" y="45.599173" style="fill: #2ca02c; stroke: #2ca02c"/>
     <use xlink:href="#m872346ebd1" x="754.599837" y="45.699124" style="fill: #2ca02c; stroke: #2ca02c"/>
     <use xlink:href="#m872346ebd1" x="769.24492" y="45.681993" style="fill: #2ca02c; stroke: #2ca02c"/>
     <use xlink:href="#m872346ebd1" x="783.890003" y="45.858546" style="fill: #2ca02c; stroke: #2ca02c"/>
     <use xlink:href="#m872346ebd1" x="798.535087" y="45.928785" style="fill: #2ca02c; stroke: #2ca02c"/>
     <use xlink:href="#m872346ebd1" x="813.18017" y="46.073087" style="fill: #2ca02c; stroke: #2ca02c"/>
     <use xlink:href="#m872346ebd1" x="813.18017" y="46.138435" style="fill: #2ca02c; stroke: #2ca02c"/>
    </g>
   </g>
   <g id="line2d_30">
    <path d="M 95.57108 507.799943 
L 110.216163 498.981346 
L 124.861247 494.667843 
L 139.50633 493.589178 
L 154.151413 488.866453 
L 168.796497 487.006365 
L 183.44158 482.829337 
L 198.086664 479.823231 
L 212.731747 476.179089 
L 227.376831 471.716183 
L 242.021914 467.498147 
L 256.666998 463.24072 
L 271.312081 460.350867 
L 285.957165 457.524658 
L 300.602248 454.658735 
L 315.247332 452.138696 
L 329.892415 449.992967 
L 344.537499 448.554784 
L 359.182582 446.80613 
L 373.827666 445.138997 
L 388.472749 443.732319 
L 403.117833 442.73296 
L 417.762916 441.53883 
L 432.408 440.331424 
L 447.053083 439.283518 
L 461.698167 438.666854 
L 476.34325 437.924347 
L 490.988334 436.999063 
L 505.633417 436.304404 
L 520.278501 435.780304 
L 534.923584 435.170815 
L 549.568668 434.544966 
L 564.213751 434.102376 
L 578.858835 433.620993 
L 593.503918 433.053958 
L 608.149002 432.599514 
L 622.794085 432.323574 
L 637.439169 431.828211 
L 652.084252 431.365675 
L 666.729336 430.895952 
L 681.374419 430.598797 
L 696.019503 430.23613 
L 710.664586 429.811492 
L 725.30967 429.564865 
L 739.954753 429.343885 
L 754.599837 429.042422 
L 769.24492 428.778454 
L 783.890003 428.475834 
L 798.535087 428.344361 
L 813.18017 428.132665 
" clip-path="url(#p282b77d4d1)" style="fill: none; stroke: #1f77b4; stroke-width: 2; stroke-linecap: square"/>
    <defs>
     <path id="m4be51222b3" d="M 0 2 
C 0.530406 2 1.03916 1.789267 1.414214 1.414214 
C 1.789267 1.03916 2 0.530406 2 0 
C 2 -0.530406 1.789267 -1.03916 1.414214 -1.414214 
C 1.03916 -1.789267 0.530406 -2 0 -2 
C -0.530406 -2 -1.03916 -1.789267 -1.414214 -1.414214 
C -1.789267 -1.03916 -2 -0.530406 -2 0 
C -2 0.530406 -1.789267 1.03916 -1.414214 1.414214 
C -1.03916 1.789267 -0.530406 2 0 2 
z
" style="stroke: #1f77b4"/>
    </defs>
    <g clip-path="url(#p282b77d4d1)">
     <use xlink:href="#m4be51222b3" x="95.57108" y="507.799943" style="fill: #1f77b4; stroke: #1f77b4"/>
     <use xlink:href="#m4be51222b3" x="110.216163" y="498.981346" style="fill: #1f77b4; stroke: #1f77b4"/>
     <use xlink:href="#m4be51222b3" x="124.861247" y="494.667843" style="fill: #1f77b4; stroke: #1f77b4"/>
     <use xlink:href="#m4be51222b3" x="139.50633" y="493.589178" style="fill: #1f77b4; stroke: #1f77b4"/>
     <use xlink:href="#m4be51222b3" x="154.151413" y="488.866453" style="fill: #1f77b4; stroke: #1f77b4"/>
     <use xlink:href="#m4be51222b3" x="168.796497" y="487.006365" style="fill: #1f77b4; stroke: #1f77b4"/>
     <use xlink:href="#m4be51222b3" x="183.44158" y="482.829337" style="fill: #1f77b4; stroke: #1f77b4"/>
     <use xlink:href="#m4be51222b3" x="198.086664" y="479.823231" style="fill: #1f77b4; stroke: #1f77b4"/>
     <use xlink:href="#m4be51222b3" x="212.731747" y="476.179089" style="fill: #1f77b4; stroke: #1f77b4"/>
     <use xlink:href="#m4be51222b3" x="227.376831" y="471.716183" style="fill: #1f77b4; stroke: #1f77b4"/>
     <use xlink:href="#m4be51222b3" x="242.021914" y="467.498147" style="fill: #1f77b4; stroke: #1f77b4"/>
     <use xlink:href="#m4be51222b3" x="256.666998" y="463.24072" style="fill: #1f77b4; stroke: #1f77b4"/>
     <use xlink:href="#m4be51222b3" x="271.312081" y="460.350867" style="fill: #1f77b4; stroke: #1f77b4"/>
     <use xlink:href="#m4be51222b3" x="285.957165" y="457.524658" style="fill: #1f77b4; stroke: #1f77b4"/>
     <use xlink:href="#m4be51222b3" x="300.602248" y="454.658735" style="fill: #1f77b4; stroke: #1f77b4"/>
     <use xlink:href="#m4be51222b3" x="315.247332" y="452.138696" style="fill: #1f77b4; stroke: #1f77b4"/>
     <use xlink:href="#m4be51222b3" x="329.892415" y="449.992967" style="fill: #1f77b4; stroke: #1f77b4"/>
     <use xlink:href="#m4be51222b3" x="344.537499" y="448.554784" style="fill: #1f77b4; stroke: #1f77b4"/>
     <use xlink:href="#m4be51222b3" x="359.182582" y="446.80613" style="fill: #1f77b4; stroke: #1f77b4"/>
     <use xlink:href="#m4be51222b3" x="373.827666" y="445.138997" style="fill: #1f77b4; stroke: #1f77b4"/>
     <use xlink:href="#m4be51222b3" x="388.472749" y="443.732319" style="fill: #1f77b4; stroke: #1f77b4"/>
     <use xlink:href="#m4be51222b3" x="403.117833" y="442.73296" style="fill: #1f77b4; stroke: #1f77b4"/>
     <use xlink:href="#m4be51222b3" x="417.762916" y="441.53883" style="fill: #1f77b4; stroke: #1f77b4"/>
     <use xlink:href="#m4be51222b3" x="432.408" y="440.331424" style="fill: #1f77b4; stroke: #1f77b4"/>
     <use xlink:href="#m4be51222b3" x="447.053083" y="439.283518" style="fill: #1f77b4; stroke: #1f77b4"/>
     <use xlink:href="#m4be51222b3" x="461.698167" y="438.666854" style="fill: #1f77b4; stroke: #1f77b4"/>
     <use xlink:href="#m4be51222b3" x="476.34325" y="437.924347" style="fill: #1f77b4; stroke: #1f77b4"/>
     <use xlink:href="#m4be51222b3" x="490.988334" y="436.999063" style="fill: #1f77b4; stroke: #1f77b4"/>
     <use xlink:href="#m4be51222b3" x="505.633417" y="436.304404" style="fill: #1f77b4; stroke: #1f77b4"/>
     <use xlink:href="#m4be51222b3" x="520.278501" y="435.780304" style="fill: #1f77b4; stroke: #1f77b4"/>
     <use xlink:href="#m4be51222b3" x="534.923584" y="435.170815" style="fill: #1f77b4; stroke: #1f77b4"/>
     <use xlink:href="#m4be51222b3" x="549.568668" y="434.544966" style="fill: #1f77b4; stroke: #1f77b4"/>
     <use xlink:href="#m4be51222b3" x="564.213751" y="434.102376" style="fill: #1f77b4; stroke: #1f77b4"/>
     <use xlink:href="#m4be51222b3" x="578.858835" y="433.620993" style="fill: #1f77b4; stroke: #1f77b4"/>
     <use xlink:href="#m4be51222b3" x="593.503918" y="433.053958" style="fill: #1f77b4; stroke: #1f77b4"/>
     <use xlink:href="#m4be51222b3" x="608.149002" y="432.599514" style="fill: #1f77b4; stroke: #1f77b4"/>
     <use xlink:href="#m4be51222b3" x="622.794085" y="432.323574" style="fill: #1f77b4; stroke: #1f77b4"/>
     <use xlink:href="#m4be51222b3" x="637.439169" y="431.828211" style="fill: #1f77b4; stroke: #1f77b4"/>
     <use xlink:href="#m4be51222b3" x="652.084252" y="431.365675" style="fill: #1f77b4; stroke: #1f77b4"/>
     <use xlink:href="#m4be51222b3" x="666.729336" y="430.895952" style="fill: #1f77b4; stroke: #1f77b4"/>
     <use xlink:href="#m4be51222b3" x="681.374419" y="430.598797" style="fill: #1f77b4; stroke: #1f77b4"/>
     <use xlink:href="#m4be51222b3" x="696.019503" y="430.23613" style="fill: #1f77b4; stroke: #1f77b4"/>
     <use xlink:href="#m4be51222b3" x="710.664586" y="429.811492" style="fill: #1f77b4; stroke: #1f77b4"/>
     <use xlink:href="#m4be51222b3" x="725.30967" y="429.564865" style="fill: #1f77b4; stroke: #1f77b4"/>
     <use xlink:href="#m4be51222b3" x="739.954753" y="429.343885" style="fill: #1f77b4; stroke: #1f77b4"/>
     <use xlink:href="#m4be51222b3" x="754.599837" y="429.042422" style="fill: #1f77b4; stroke: #1f77b4"/>
     <use xlink:href="#m4be51222b3" x="769.24492" y="428.778454" style="fill: #1f77b4; stroke: #1f77b4"/>
     <use xlink:href="#m4be51222b3" x="783.890003" y="428.475834" style="fill: #1f77b4; stroke: #1f77b4"/>
     <use xlink:href="#m4be51222b3" x="798.535087" y="428.344361" style="fill: #1f77b4; stroke: #1f77b4"/>
     <use xlink:href="#m4be51222b3" x="813.18017" y="428.132665" style="fill: #1f77b4; stroke: #1f77b4"/>
    </g>
   </g>
   <g id="line2d_31">
    <path d="M 95.57108 475.172419 
L 110.216163 473.855442 
L 124.861247 473.584798 
L 139.50633 473.647813 
L 154.151413 473.734947 
L 168.796497 481.937738 
L 183.44158 483.843012 
L 198.086664 482.94154 
L 212.731747 483.25053 
L 227.376831 482.701366 
L 242.021914 484.715082 
L 256.666998 486.195207 
L 271.312081 485.484063 
L 285.957165 485.016309 
L 300.602248 484.441969 
L 315.247332 487.210797 
L 329.892415 488.187167 
L 344.537499 487.546303 
L 359.182582 486.895384 
L 373.827666 486.352937 
L 388.472749 487.983158 
L 403.117833 488.682965 
L 417.762916 488.136398 
L 432.408 487.678146 
L 447.053083 487.240463 
L 461.698167 488.597471 
L 476.34325 489.020351 
L 490.988334 488.56743 
L 505.633417 488.161997 
L 520.278501 487.811447 
L 534.923584 489.061083 
L 549.568668 489.270786 
L 564.213751 488.861939 
L 578.858835 488.459669 
L 593.503918 488.06448 
L 608.149002 488.78499 
L 622.794085 489.160258 
L 637.439169 488.813657 
L 652.084252 488.492002 
L 666.729336 488.186638 
L 681.374419 488.588821 
L 696.019503 488.864837 
L 710.664586 488.558609 
L 725.30967 488.279125 
L 739.954753 488.01987 
L 754.599837 488.585988 
L 769.24492 488.92378 
L 783.890003 488.683306 
L 798.535087 488.421846 
L 813.18017 488.182189 
" clip-path="url(#p282b77d4d1)" style="fill: none; stroke: #ff7f0e; stroke-width: 2; stroke-linecap: square"/>
    <defs>
     <path id="m9668f88f64" d="M 0 2 
C 0.530406 2 1.03916 1.789267 1.414214 1.414214 
C 1.789267 1.03916 2 0.530406 2 0 
C 2 -0.530406 1.789267 -1.03916 1.414214 -1.414214 
C 1.03916 -1.789267 0.530406 -2 0 -2 
C -0.530406 -2 -1.03916 -1.789267 -1.414214 -1.414214 
C -1.789267 -1.03916 -2 -0.530406 -2 0 
C -2 0.530406 -1.789267 1.03916 -1.414214 1.414214 
C -1.03916 1.789267 -0.530406 2 0 2 
z
" style="stroke: #ff7f0e"/>
    </defs>
    <g clip-path="url(#p282b77d4d1)">
     <use xlink:href="#m9668f88f64" x="95.57108" y="475.172419" style="fill: #ff7f0e; stroke: #ff7f0e"/>
     <use xlink:href="#m9668f88f64" x="110.216163" y="473.855442" style="fill: #ff7f0e; stroke: #ff7f0e"/>
     <use xlink:href="#m9668f88f64" x="124.861247" y="473.584798" style="fill: #ff7f0e; stroke: #ff7f0e"/>
     <use xlink:href="#m9668f88f64" x="139.50633" y="473.647813" style="fill: #ff7f0e; stroke: #ff7f0e"/>
     <use xlink:href="#m9668f88f64" x="154.151413" y="473.734947" style="fill: #ff7f0e; stroke: #ff7f0e"/>
     <use xlink:href="#m9668f88f64" x="168.796497" y="481.937738" style="fill: #ff7f0e; stroke: #ff7f0e"/>
     <use xlink:href="#m9668f88f64" x="183.44158" y="483.843012" style="fill: #ff7f0e; stroke: #ff7f0e"/>
     <use xlink:href="#m9668f88f64" x="198.086664" y="482.94154" style="fill: #ff7f0e; stroke: #ff7f0e"/>
     <use xlink:href="#m9668f88f64" x="212.731747" y="483.25053" style="fill: #ff7f0e; stroke: #ff7f0e"/>
     <use xlink:href="#m9668f88f64" x="227.376831" y="482.701366" style="fill: #ff7f0e; stroke: #ff7f0e"/>
     <use xlink:href="#m9668f88f64" x="242.021914" y="484.715082" style="fill: #ff7f0e; stroke: #ff7f0e"/>
     <use xlink:href="#m9668f88f64" x="256.666998" y="486.195207" style="fill: #ff7f0e; stroke: #ff7f0e"/>
     <use xlink:href="#m9668f88f64" x="271.312081" y="485.484063" style="fill: #ff7f0e; stroke: #ff7f0e"/>
     <use xlink:href="#m9668f88f64" x="285.957165" y="485.016309" style="fill: #ff7f0e; stroke: #ff7f0e"/>
     <use xlink:href="#m9668f88f64" x="300.602248" y="484.441969" style="fill: #ff7f0e; stroke: #ff7f0e"/>
     <use xlink:href="#m9668f88f64" x="315.247332" y="487.210797" style="fill: #ff7f0e; stroke: #ff7f0e"/>
     <use xlink:href="#m9668f88f64" x="329.892415" y="488.187167" style="fill: #ff7f0e; stroke: #ff7f0e"/>
     <use xlink:href="#m9668f88f64" x="344.537499" y="487.546303" style="fill: #ff7f0e; stroke: #ff7f0e"/>
     <use xlink:href="#m9668f88f64" x="359.182582" y="486.895384" style="fill: #ff7f0e; stroke: #ff7f0e"/>
     <use xlink:href="#m9668f88f64" x="373.827666" y="486.352937" style="fill: #ff7f0e; stroke: #ff7f0e"/>
     <use xlink:href="#m9668f88f64" x="388.472749" y="487.983158" style="fill: #ff7f0e; stroke: #ff7f0e"/>
     <use xlink:href="#m9668f88f64" x="403.117833" y="488.682965" style="fill: #ff7f0e; stroke: #ff7f0e"/>
     <use xlink:href="#m9668f88f64" x="417.762916" y="488.136398" style="fill: #ff7f0e; stroke: #ff7f0e"/>
     <use xlink:href="#m9668f88f64" x="432.408" y="487.678146" style="fill: #ff7f0e; stroke: #ff7f0e"/>
     <use xlink:href="#m9668f88f64" x="447.053083" y="487.240463" style="fill: #ff7f0e; stroke: #ff7f0e"/>
     <use xlink:href="#m9668f88f64" x="461.698167" y="488.597471" style="fill: #ff7f0e; stroke: #ff7f0e"/>
     <use xlink:href="#m9668f88f64" x="476.34325" y="489.020351" style="fill: #ff7f0e; stroke: #ff7f0e"/>
     <use xlink:href="#m9668f88f64" x="490.988334" y="488.56743" style="fill: #ff7f0e; stroke: #ff7f0e"/>
     <use xlink:href="#m9668f88f64" x="505.633417" y="488.161997" style="fill: #ff7f0e; stroke: #ff7f0e"/>
     <use xlink:href="#m9668f88f64" x="520.278501" y="487.811447" style="fill: #ff7f0e; stroke: #ff7f0e"/>
     <use xlink:href="#m9668f88f64" x="534.923584" y="489.061083" style="fill: #ff7f0e; stroke: #ff7f0e"/>
     <use xlink:href="#m9668f88f64" x="549.568668" y="489.270786" style="fill: #ff7f0e; stroke: #ff7f0e"/>
     <use xlink:href="#m9668f88f64" x="564.213751" y="488.861939" style="fill: #ff7f0e; stroke: #ff7f0e"/>
     <use xlink:href="#m9668f88f64" x="578.858835" y="488.459669" style="fill: #ff7f0e; stroke: #ff7f0e"/>
     <use xlink:href="#m9668f88f64" x="593.503918" y="488.06448" style="fill: #ff7f0e; stroke: #ff7f0e"/>
     <use xlink:href="#m9668f88f64" x="608.149002" y="488.78499" style="fill: #ff7f0e; stroke: #ff7f0e"/>
     <use xlink:href="#m9668f88f64" x="622.794085" y="489.160258" style="fill: #ff7f0e; stroke: #ff7f0e"/>
     <use xlink:href="#m9668f88f64" x="637.439169" y="488.813657" style="fill: #ff7f0e; stroke: #ff7f0e"/>
     <use xlink:href="#m9668f88f64" x="652.084252" y="488.492002" style="fill: #ff7f0e; stroke: #ff7f0e"/>
     <use xlink:href="#m9668f88f64" x="666.729336" y="488.186638" style="fill: #ff7f0e; stroke: #ff7f0e"/>
     <use xlink:href="#m9668f88f64" x="681.374419" y="488.588821" style="fill: #ff7f0e; stroke: #ff7f0e"/>
     <use xlink:href="#m9668f88f64" x="696.019503" y="488.864837" style="fill: #ff7f0e; stroke: #ff7f0e"/>
     <use xlink:href="#m9668f88f64" x="710.664586" y="488.558609" style="fill: #ff7f0e; stroke: #ff7f0e"/>
     <use xlink:href="#m9668f88f64" x="725.30967" y="488.279125" style="fill: #ff7f0e; stroke: #ff7f0e"/>
     <use xlink:href="#m9668f88f64" x="739.954753" y="488.01987" style="fill: #ff7f0e; stroke: #ff7f0e"/>
     <use xlink:href="#m9668f88f64" x="754.599837" y="488.585988" style="fill: #ff7f0e; stroke: #ff7f0e"/>
     <use xlink:href="#m9668f88f64" x="769.24492" y="488.92378" style="fill: #ff7f0e; stroke: #ff7f0e"/>
     <use xlink:href="#m9668f88f64" x="783.890003" y="488.683306" style="fill: #ff7f0e; stroke: #ff7f0e"/>
     <use xlink:href="#m9668f88f64" x="798.535087" y="488.421846" style="fill: #ff7f0e; stroke: #ff7f0e"/>
     <use xlink:href="#m9668f88f64" x="813.18017" y="488.182189" style="fill: #ff7f0e; stroke: #ff7f0e"/>
    </g>
   </g>
   <g id="patch_3">
    <path d="M 59.690625 530.918125 
L 59.690625 22.318125 
" style="fill: none; stroke: #000000; stroke-width: 0.8; stroke-linejoin: miter; stroke-linecap: square"/>
   </g>
   <g id="patch_4">
    <path d="M 849.060625 530.918125 
L 849.060625 22.318125 
" style="fill: none; stroke: #000000; stroke-width: 0.8; stroke-linejoin: miter; stroke-linecap: square"/>
   </g>
   <g id="patch_5">
    <path d="M 59.690625 530.918125 
L 849.060625 530.918125 
" style="fill: none; stroke: #000000; stroke-width: 0.8; stroke-linejoin: miter; stroke-linecap: square"/>
   </g>
   <g id="patch_6">
    <path d="M 59.690625 22.318125 
L 849.060625 22.318125 
" style="fill: none; stroke: #000000; stroke-width: 0.8; stroke-linejoin: miter; stroke-linecap: square"/>
   </g>
   <g id="text_17">
    <!-- RPS Comparison Over Time -->
    <g transform="translate(372.021875 16.318125) scale(0.12 -0.12)">
     <defs>
      <path id="DejaVuSans-43" d="M 4122 4306 
L 4122 3641 
Q 3803 3938 3442 4084 
Q 3081 4231 2675 4231 
Q 1875 4231 1450 3742 
Q 1025 3253 1025 2328 
Q 1025 1406 1450 917 
Q 1875 428 2675 428 
Q 3081 428 3442 575 
Q 3803 722 4122 1019 
L 4122 359 
Q 3791 134 3420 21 
Q 3050 -91 2638 -91 
Q 1578 -91 968 557 
Q 359 1206 359 2328 
Q 359 3453 968 4101 
Q 1578 4750 2638 4750 
Q 3056 4750 3426 4639 
Q 3797 4528 4122 4306 
z
" transform="scale(0.015625)"/>
      <path id="DejaVuSans-4f" d="M 2522 4238 
Q 1834 4238 1429 3725 
Q 1025 3213 1025 2328 
Q 1025 1447 1429 934 
Q 1834 422 2522 422 
Q 3209 422 3611 934 
Q 4013 1447 4013 2328 
Q 4013 3213 3611 3725 
Q 3209 4238 2522 4238 
z
M 2522 4750 
Q 3503 4750 4090 4092 
Q 4678 3434 4678 2328 
Q 4678 1225 4090 567 
Q 3503 -91 2522 -91 
Q 1538 -91 948 565 
Q 359 1222 359 2328 
Q 359 3434 948 4092 
Q 1538 4750 2522 4750 
z
" transform="scale(0.015625)"/>
      <path id="DejaVuSans-76" d="M 191 3500 
L 800 3500 
L 1894 563 
L 2988 3500 
L 3597 3500 
L 2284 0 
L 1503 0 
L 191 3500 
z
" transform="scale(0.015625)"/>
     </defs>
     <use xlink:href="#DejaVuSans-52"/>
     <use xlink:href="#DejaVuSans-50" x="69.482422"/>
     <use xlink:href="#DejaVuSans-53" x="129.785156"/>
     <use xlink:href="#DejaVuSans-20" x="193.261719"/>
     <use xlink:href="#DejaVuSans-43" x="225.048828"/>
     <use xlink:href="#DejaVuSans-6f" x="294.873047"/>
     <use xlink:href="#DejaVuSans-6d" x="356.054688"/>
     <use xlink:href="#DejaVuSans-70" x="453.466797"/>
     <use xlink:href="#DejaVuSans-61" x="516.943359"/>
     <use xlink:href="#DejaVuSans-72" x="578.222656"/>
     <use xlink:href="#DejaVuSans-69" x="619.335938"/>
     <use xlink:href="#DejaVuSans-73" x="647.119141"/>
     <use xlink:href="#DejaVuSans-6f" x="699.21875"/>
     <use xlink:href="#DejaVuSans-6e" x="760.400391"/>
     <use xlink:href="#DejaVuSans-20" x="823.779297"/>
     <use xlink:href="#DejaVuSans-4f" x="855.566406"/>
     <use xlink:href="#DejaVuSans-76" x="934.277344"/>
     <use xlink:href="#DejaVuSans-65" x="993.457031"/>
     <use xlink:href="#DejaVuSans-72" x="1054.980469"/>
     <use xlink:href="#DejaVuSans-20" x="1096.09375"/>
     <use xlink:href="#DejaVuSans-54" x="1127.880859"/>
     <use xlink:href="#DejaVuSans-69" x="1185.839844"/>
     <use xlink:href="#DejaVuSans-6d" x="1213.623047"/>
     <use xlink:href="#DejaVuSans-65" x="1311.035156"/>
    </g>
   </g>
   <g id="legend_1">
    <g id="patch_7">
     <path d="M 773.418438 300.135312 
L 842.060625 300.135312 
Q 844.060625 300.135312 844.060625 298.135312 
L 844.060625 255.100937 
Q 844.060625 253.100937 842.060625 253.100937 
L 773.418438 253.100937 
Q 771.418438 253.100937 771.418438 255.100937 
L 771.418438 298.135312 
Q 771.418438 300.135312 773.418438 300.135312 
z
" style="fill: #ffffff; opacity: 0.8; stroke: #cccccc; stroke-linejoin: miter"/>
    </g>
    <g id="line2d_32">
     <path d="M 775.418438 261.199375 
L 785.418438 261.199375 
L 795.418438 261.199375 
" style="fill: none; stroke: #2ca02c; stroke-width: 2; stroke-linecap: square"/>
     <g>
      <use xlink:href="#m872346ebd1" x="785.418438" y="261.199375" style="fill: #2ca02c; stroke: #2ca02c"/>
     </g>
    </g>
    <g id="text_18">
     <!-- weaver -->
     <g transform="translate(803.418438 264.699375) scale(0.1 -0.1)">
      <defs>
       <path id="DejaVuSans-77" d="M 269 3500 
L 844 3500 
L 1563 769 
L 2278 3500 
L 2956 3500 
L 3675 769 
L 4391 3500 
L 4966 3500 
L 4050 0 
L 3372 0 
L 2619 2869 
L 1863 0 
L 1184 0 
L 269 3500 
z
" transform="scale(0.015625)"/>
      </defs>
      <use xlink:href="#DejaVuSans-77"/>
      <use xlink:href="#DejaVuSans-65" x="81.787109"/>
      <use xlink:href="#DejaVuSans-61" x="143.310547"/>
      <use xlink:href="#DejaVuSans-76" x="204.589844"/>
      <use xlink:href="#DejaVuSans-65" x="263.769531"/>
      <use xlink:href="#DejaVuSans-72" x="325.292969"/>
     </g>
    </g>
    <g id="line2d_33">
     <path d="M 775.418438 275.8775 
L 785.418438 275.8775 
L 795.418438 275.8775 
" style="fill: none; stroke: #1f77b4; stroke-width: 2; stroke-linecap: square"/>
     <g>
      <use xlink:href="#m4be51222b3" x="785.418438" y="275.8775" style="fill: #1f77b4; stroke: #1f77b4"/>
     </g>
    </g>
    <g id="text_19">
     <!-- node -->
     <g transform="translate(803.418438 279.3775) scale(0.1 -0.1)">
      <use xlink:href="#DejaVuSans-6e"/>
      <use xlink:href="#DejaVuSans-6f" x="63.378906"/>
      <use xlink:href="#DejaVuSans-64" x="124.560547"/>
      <use xlink:href="#DejaVuSans-65" x="188.037109"/>
     </g>
    </g>
    <g id="line2d_34">
     <path d="M 775.418438 290.555625 
L 785.418438 290.555625 
L 795.418438 290.555625 
" style="fill: none; stroke: #ff7f0e; stroke-width: 2; stroke-linecap: square"/>
     <g>
      <use xlink:href="#m9668f88f64" x="785.418438" y="290.555625" style="fill: #ff7f0e; stroke: #ff7f0e"/>
     </g>
    </g>
    <g id="text_20">
     <!-- python -->
     <g transform="translate(803.418438 294.055625) scale(0.1 -0.1)">
      <defs>
       <path id="DejaVuSans-79" d="M 2059 -325 
Q 1816 -950 1584 -1140 
Q 1353 -1331 966 -1331 
L 506 -1331 
L 506 -850 
L 844 -850 
Q 1081 -850 1212 -737 
Q 1344 -625 1503 -206 
L 1606 56 
L 191 3500 
L 800 3500 
L 1894 763 
L 2988 3500 
L 3597 3500 
L 2059 -325 
z
" transform="scale(0.015625)"/>
       <path id="DejaVuSans-68" d="M 3513 2113 
L 3513 0 
L 2938 0 
L 2938 2094 
Q 2938 2591 2744 2837 
Q 2550 3084 2163 3084 
Q 1697 3084 1428 2787 
Q 1159 2491 1159 1978 
L 1159 0 
L 581 0 
L 581 4863 
L 1159 4863 
L 1159 2956 
Q 1366 3272 1645 3428 
Q 1925 3584 2291 3584 
Q 2894 3584 3203 3211 
Q 3513 2838 3513 2113 
z
" transform="scale(0.015625)"/>
      </defs>
      <use xlink:href="#DejaVuSans-70"/>
      <use xlink:href="#DejaVuSans-79" x="63.476562"/>
      <use xlink:href="#DejaVuSans-74" x="122.65625"/>
      <use xlink:href="#DejaVuSans-68" x="161.865234"/>
      <use xlink:href="#DejaVuSans-6f" x="225.244141"/>
      <use xlink:href="#DejaVuSans-6e" x="286.425781"/>
     </g>
    </g>
   </g>
  </g>
 </g>
 <defs>
  <clipPath id="p282b77d4d1">
   <rect x="59.690625" y="22.318125" width="789.37" height="508.6"/>
  </clipPath>
 </defs>
</svg>
